<svg id="air-conditioner" xmlns="http://www.w3.org/2000/svg" width="29.984" height="19.344" viewBox="0 0 29.984 19.344">
  <path id="Caminho_8970" data-name="Caminho 8970" d="M36.049,96H9.934A1.936,1.936,0,0,0,8,97.934v10.639a1.936,1.936,0,0,0,1.934,1.934H36.049a1.936,1.936,0,0,0,1.934-1.934V97.934A1.936,1.936,0,0,0,36.049,96Zm.967,12.574a.968.968,0,0,1-.967.967H9.934a.969.969,0,0,1-.967-.967V97.934a.968.968,0,0,1,.967-.967H36.049a.968.968,0,0,1,.967.967Z" transform="translate(-8 -96)" fill="#00A443"/>
  <path id="Caminho_8971" data-name="Caminho 8971" d="M86.73,256H64.484a.484.484,0,0,0-.484.484v1.934a.484.484,0,0,0,.484.484H86.73a.484.484,0,0,0,.484-.484v-1.934A.484.484,0,0,0,86.73,256Zm-14.508.967h2.9v.967h-2.9Zm-.967.967h-2.9v-.967h2.9Zm4.836-.967h2.9v.967h-2.9Zm3.869,0h2.9v.967h-2.9Zm-14.992,0h2.418v.967H64.967Zm21.279.967H83.828v-.967h2.418Z" transform="translate(-60.615 -246.328)" fill="#00A443"/>
  <path id="Caminho_8972" data-name="Caminho 8972" d="M47.738,130.418v-1.934a.484.484,0,0,0-.484-.484h-6.77a.484.484,0,0,0-.484.484v1.934a.484.484,0,0,0,.484.484h6.77A.484.484,0,0,0,47.738,130.418Zm-.967-.484h-5.8v-.967h5.8Z" transform="translate(-38.066 -126.066)" fill="#00A443"/>
  <path id="Caminho_8973" data-name="Caminho 8973" d="M411.385,128h-2.9a.484.484,0,0,0,0,.967h2.9a.484.484,0,0,0,0-.967Z" transform="translate(-383.82 -126.066)" fill="#00A443"/>
  <path id="Caminho_8974" data-name="Caminho 8974" d="M433.934,152h-1.451a.484.484,0,0,0,0,.967h1.451a.484.484,0,0,0,0-.967Z" transform="translate(-406.369 -148.615)" fill="#00A443"/>
  <path id="Caminho_8975" data-name="Caminho 8975" d="M245.451,352.484a.484.484,0,0,0-.967,0c0,.037,0,.042-.1.142a1.08,1.08,0,0,0,0,1.651c.1.1.1.1.1.142s0,.042-.1.142a1.1,1.1,0,0,0-.383.826.484.484,0,1,0,.967,0c0-.037,0-.041.1-.142a1.081,1.081,0,0,0,0-1.651c-.1-.1-.1-.1-.1-.142s0-.042.1-.142A1.1,1.1,0,0,0,245.451,352.484Z" transform="translate(-229.734 -336.525)" fill="#00A443"/>
  <path id="Caminho_8976" data-name="Caminho 8976" d="M185.451,352.484a.484.484,0,0,0-.967,0c0,.037,0,.042-.1.142a1.08,1.08,0,0,0,0,1.651c.1.1.1.1.1.142s0,.042-.1.142a1.1,1.1,0,0,0-.383.826.484.484,0,1,0,.967,0c0-.037,0-.041.1-.142a1.081,1.081,0,0,0,0-1.651c-.1-.1-.1-.1-.1-.142s0-.042.1-.142A1.1,1.1,0,0,0,185.451,352.484Z" transform="translate(-173.361 -336.525)" fill="#00A443"/>
  <path id="Caminho_8977" data-name="Caminho 8977" d="M121.451,352.484a.484.484,0,0,0-.967,0c0,.037,0,.042-.1.142a1.08,1.08,0,0,0,0,1.651c.1.1.1.1.1.142s0,.042-.1.142a1.1,1.1,0,0,0-.383.826.484.484,0,1,0,.967,0c0-.037,0-.041.1-.142a1.081,1.081,0,0,0,0-1.651c-.1-.1-.1-.1-.1-.142s0-.042.1-.142A1.1,1.1,0,0,0,121.451,352.484Z" transform="translate(-113.23 -336.525)" fill="#00A443"/>
  <path id="Caminho_8978" data-name="Caminho 8978" d="M377.451,352.484a.484.484,0,0,0-.967,0c0,.037,0,.042-.1.142a1.08,1.08,0,0,0,0,1.651c.1.1.1.1.1.142s0,.042-.1.142a1.1,1.1,0,0,0-.383.826.484.484,0,1,0,.967,0c0-.037,0-.041.1-.142a1.081,1.081,0,0,0,0-1.651c-.1-.1-.1-.1-.1-.142s0-.042.1-.142A1.1,1.1,0,0,0,377.451,352.484Z" transform="translate(-353.754 -336.525)" fill="#00A443"/>
  <path id="Caminho_8979" data-name="Caminho 8979" d="M313.451,352.484a.484.484,0,0,0-.967,0c0,.037,0,.042-.1.142a1.08,1.08,0,0,0,0,1.651c.1.1.1.1.1.142s0,.042-.1.142a1.1,1.1,0,0,0-.383.826.484.484,0,1,0,.967,0c0-.037,0-.041.1-.142a1.08,1.08,0,0,0,0-1.651c-.1-.1-.1-.1-.1-.142s0-.042.1-.142A1.1,1.1,0,0,0,313.451,352.484Z" transform="translate(-293.623 -336.525)" fill="#00A443"/>
</svg>
