<svg xmlns="http://www.w3.org/2000/svg" xmlns:xlink="http://www.w3.org/1999/xlink" width="576.974" height="369.014" viewBox="0 0 576.974 369.014">
  <defs>
    <linearGradient id="linear-gradient" y1="0.5" x2="1" y2="0.5" gradientUnits="objectBoundingBox">
      <stop offset="0" stop-color="#040559"/>
      <stop offset="1" stop-color="#14188a"/>
    </linearGradient>
  </defs>
  <g id="Grupo_40351" data-name="Grupo 40351" transform="translate(-184.864 -144.999)">
    <path id="Caminho_14398" data-name="Caminho 14398" d="M258.413,513.35s-70.024-67.965-25.475-147.928,104.381-39.75,101.485-132.82,137.6-101.066,182.324-74.079,44.453,59.488,136.775,48.735,109.96,78.89,85.941,124.577c-34.078,64.822,94.582,54.131,13.512,181.516Z" transform="translate(-25.841)" fill="#FF9C1A"/>
    <rect id="Retângulo_18864" data-name="Retângulo 18864" width="576.974" height="1.585" rx="0.792" transform="translate(184.864 512.428)" fill="#232323"/>
    <g id="Grupo_40344" data-name="Grupo 40344" transform="translate(470.872 199.96)">
      <g id="Grupo_40343" data-name="Grupo 40343">
        <path id="Caminho_14399" data-name="Caminho 14399" d="M1469.132,456.381a8.932,8.932,0,0,1,.677-3.5,8.183,8.183,0,0,1,1.912-2.785,8.779,8.779,0,0,1,2.971-1.838,10.945,10.945,0,0,1,3.913-.66,11.2,11.2,0,0,1,3.942.66,8.733,8.733,0,0,1,3,1.838,8.2,8.2,0,0,1,1.912,2.785,8.948,8.948,0,0,1,.677,3.5,8.739,8.739,0,0,1-.677,3.474,8.252,8.252,0,0,1-1.912,2.757,8.71,8.71,0,0,1-3,1.838,11.2,11.2,0,0,1-3.942.66,10.951,10.951,0,0,1-3.913-.66,8.753,8.753,0,0,1-2.971-1.838,8.237,8.237,0,0,1-1.912-2.757A8.72,8.72,0,0,1,1469.132,456.381Zm16.533-16.342h-14.121l-2-48.25h18.122Z" transform="translate(-1469.132 -391.789)" fill="#D60E00"/>
      </g>
    </g>
    <g id="Grupo_40346" data-name="Grupo 40346" transform="translate(428.235 167.811)">
      <g id="Grupo_40345" data-name="Grupo 40345">
        <path id="Caminho_14400" data-name="Caminho 14400" d="M1277.678,297a6.86,6.86,0,0,1,.519-2.689,6.286,6.286,0,0,1,1.468-2.138,6.741,6.741,0,0,1,2.28-1.411,8.4,8.4,0,0,1,3-.507,8.592,8.592,0,0,1,3.026.507,6.7,6.7,0,0,1,2.3,1.411,6.3,6.3,0,0,1,1.467,2.138,6.869,6.869,0,0,1,.519,2.689,6.711,6.711,0,0,1-.519,2.667,6.336,6.336,0,0,1-1.467,2.116,6.683,6.683,0,0,1-2.3,1.411,8.6,8.6,0,0,1-3.026.507,8.406,8.406,0,0,1-3-.507,6.721,6.721,0,0,1-2.28-1.411,6.325,6.325,0,0,1-1.468-2.116A6.7,6.7,0,0,1,1277.678,297Zm12.689-12.543h-10.838l-1.535-37.031H1291.9Z" transform="translate(-1277.678 -247.431)" fill="#D60E00"/>
      </g>
    </g>
    <g id="Grupo_40348" data-name="Grupo 40348" transform="translate(638.771 230.381)">
      <g id="Grupo_40347" data-name="Grupo 40347">
        <path id="Caminho_14401" data-name="Caminho 14401" d="M2223.052,577.964a6.854,6.854,0,0,1,.52-2.689,6.28,6.28,0,0,1,1.468-2.138,6.744,6.744,0,0,1,2.28-1.411,8.4,8.4,0,0,1,3-.507,8.6,8.6,0,0,1,3.025.507,6.7,6.7,0,0,1,2.3,1.411,6.294,6.294,0,0,1,1.467,2.138,6.869,6.869,0,0,1,.52,2.689,6.7,6.7,0,0,1-.52,2.667,6.325,6.325,0,0,1-1.468,2.116,6.68,6.68,0,0,1-2.3,1.41,8.583,8.583,0,0,1-3.025.507,8.4,8.4,0,0,1-3-.507,6.721,6.721,0,0,1-2.28-1.41,6.319,6.319,0,0,1-1.468-2.116,6.693,6.693,0,0,1-.521-2.667Zm12.689-12.543H2224.9l-1.536-37.031h13.909Z" transform="translate(-2223.052 -528.39)" fill="#D60E00"/>
      </g>
    </g>
    <path id="Caminho_14402" data-name="Caminho 14402" d="M1989.2,1106.332a73.045,73.045,0,0,1-7.979,11.9h0c-3.029,3.616-6.13,6.365-8.746,7.3l-.02.007c-.137.047-.271.092-.406.128a.032.032,0,0,1-.02,0h0a4.767,4.767,0,0,1-1.52.195c-8.586-.385-17.637-18.8-17.637-18.8a6.55,6.55,0,0,1,1.906-3.726,7.722,7.722,0,0,1,2.578-1.7s9.248,9.5,11.508,10.181c1.421.428,3.289-6.2,5.966-14.532s12.084-10.383,12.084-10.383S1996.432,1092.925,1989.2,1106.332Z" transform="translate(-1374.269 -732.139)" fill="#1f6022"/>
    <path id="Caminho_14403" data-name="Caminho 14403" d="M2048.088,1204.907h0c-3.029,3.616-6.129,6.365-8.746,7.3l-.02.007-.406.128-.022.007h0c.094-.063,2.9-1.515,3.334-4.21.449-2.755-2.465-5.008,4.858-9.268C2051.356,1196.382,2048.088,1204.907,2048.088,1204.907Z" transform="translate(-1441.135 -818.816)" fill="#1f4822"/>
    <path id="Caminho_14404" data-name="Caminho 14404" d="M2050.075,1756.3H2070.2c1.442-.978-.389-10.538-.389-10.538s-5.493-2.084-6.442,2.154-7,5.582-10.2,6.1C2050.986,1754.371,2050.294,1755.574,2050.075,1756.3Z" transform="translate(-1449.826 -1243.872)" fill="url(#linear-gradient)"/>
    <path id="Caminho_14405" data-name="Caminho 14405" d="M2099.666,1325.807s-.635,11.741-1.428,25.345c-.572,9.755-1.222,20.469-1.78,28.493-.074,1.065-.148,2.083-.217,3.044-.02.3-.043.594-.065.89a178.887,178.887,0,0,1-6.26,33.755c-5.658,1.193-8.214-.989-8.214-.989s-3.9-45.693-5.343-64.122c-1.063-13.566-1.969-33.318-1.969-33.318Z" transform="translate(-1468.726 -912.476)" fill="#46a7f2"/>
    <path id="Caminho_14406" data-name="Caminho 14406" d="M2135.971,1413.987c-.572,9.755-1.222,20.469-1.78,28.493-3.7-8.726-11.256-42.736-11.256-42.736Z" transform="translate(-1506.459 -975.311)" fill="#4692f2"/>
    <path id="Caminho_14407" data-name="Caminho 14407" d="M2184.1,1756.3h20.126c1.441-.978-.389-10.538-.389-10.538s-5.493-2.084-6.441,2.154-7,5.582-10.2,6.1C2185.015,1754.371,2184.323,1755.574,2184.1,1756.3Z" transform="translate(-1554.007 -1243.872)" fill="url(#linear-gradient)"/>
    <path id="Caminho_14408" data-name="Caminho 14408" d="M2098.939,1315.279s14.372,35.775,18.966,49.336c3.273,9.659,12.5,43.546,12.5,43.546a9.275,9.275,0,0,0,7.387-1.14s3.434-34.621-3.5-44.383c-3.68-5.179-.915-53.838-15.835-54.255S2098.939,1315.279,2098.939,1315.279Z" transform="translate(-1487.808 -904.283)" fill="#46a7f2"/>
    <path id="Caminho_14409" data-name="Caminho 14409" d="M2101.845,1125.035c-.061,5.087-.116,8.822-.1,9.766.04,3.078-1.928,3.773-3.957,4.242,0,0-1.875.4-4.24.8a46.649,46.649,0,0,1-7.082.758,63.879,63.879,0,0,1-18.536-3.051c-1.9,0-2.764-2.937-3.076-7.037-.211-2.776.646-30.455.754-37.367.073-4.957,2.8-9.537,3.555-10.208,7.047-6.23,27.84-5.446,31.583-1.148.926,1.063,1.2,11.311,1.226,22.536C2101.989,1111.557,2101.915,1119.188,2101.845,1125.035Z" transform="translate(-1461.286 -725.546)" fill="#1f6022"/>
    <path id="Caminho_14410" data-name="Caminho 14410" d="M2135.538,1049.059c-2.654,2.876-11.57,2.45-11.306-.061.036-.309.094-2.148.123-2.432.022-.229.045-.453.063-.664q.091-.928.15-1.639c.119-1.377.157-2.123.157-2.123h.009c.255-.072,5.988-1.7,8.84-2.374a4.6,4.6,0,0,1,1.581-.262C2134.28,1045.909,2136.408,1048.115,2135.538,1049.059Z" transform="translate(-1507.464 -695.276)" fill="#ffb27d"/>
    <path id="Caminho_14411" data-name="Caminho 14411" d="M2135.07,1042.664s-2.394,2.433-9.308,2.608c.119-1.377.157-2.123.157-2.123h.009c.256-.072,5.989-1.7,8.84-2.374C2135.27,1040.98,2134.6,1042.319,2135.07,1042.664Z" transform="translate(-1508.657 -696.284)" fill="#ed975d"/>
    <path id="Caminho_14412" data-name="Caminho 14412" d="M2114.479,988.9a21.62,21.62,0,0,0,3.982.928c3.264.441,7.555.181,8.9-3.768,2.271-6.646,5.172-10.632-1.511-13.346-3.577-1.453-5.866-1.53-7.421-.976a5.377,5.377,0,0,0-2.75,2.38C2114.386,976.149,2111.776,987.732,2114.479,988.9Z" transform="translate(-1498.97 -642.372)" fill="#ffb27d"/>
    <path id="Caminho_14413" data-name="Caminho 14413" d="M2107.2,948.708a3.153,3.153,0,0,0,1.205,5.737,23.161,23.161,0,0,1,3.918.719c1.662.738,3.09,1.522,2.7,4.1-.133.877-.561,1.945,1.7,1.415a1.1,1.1,0,0,1,.82.049c.937.555-.26,3.248-.621,3.831,0,0-.519,1.929.633,2.868.139.112,2.4,1.1,7.859-7.248a7.754,7.754,0,0,0,.352-7.106c-1.323-2.843-5.012-6.438-11.963-6.438A13.256,13.256,0,0,0,2107.2,948.708Z" transform="translate(-1493.13 -623.109)" fill="url(#linear-gradient)"/>
    <path id="Caminho_14414" data-name="Caminho 14414" d="M2207.408,1205.431c-1.015,4.719-.757,4.769-2.314,3.531-6.347-5.045-4.492-7.687-3.082-12.059s-3.54-11.21,0-14.124c3.462-2.849,5.434,1.744,5.52,1.948C2207.552,1191.952,2207.478,1199.584,2207.408,1205.431Z" transform="translate(-1566.848 -805.941)" fill="#1f4822"/>
    <path id="Caminho_14415" data-name="Caminho 14415" d="M2189.885,1285.014s-2.392,3.912-3.96,3.774-3.685-.723-4.907.443-3.191,4.174-2.641,4.975,2.763.091,4.353-.786,4.094.432,5.428-.564a46.625,46.625,0,0,0,4.53-4.952Z" transform="translate(-1549.481 -886.131)" fill="#ffb27d"/>
    <path id="Caminho_14416" data-name="Caminho 14416" d="M2211.148,1093.576s19.854,18.682,17.276,31.11c-1.175,5.662-4.82,10.44-14.535,18.175,0,0-4.6-3.176-5.6-5.754,0,0,8.818-12.421,8.478-14.536-.417-2.589-6.437-9.08-8.6-10.089S2206.2,1095.744,2211.148,1093.576Z" transform="translate(-1571.691 -737.327)" fill="#1f6022"/>
    <path id="Caminho_14417" data-name="Caminho 14417" d="M2201.235,1296.963s-2.093-.915-2.765-1.308-.523.243-.318.56a2.322,2.322,0,0,0,1.588,1.1,2.626,2.626,0,0,0,1.5-.352Z" transform="translate(-1564.791 -894.306)" fill="#ffb27d"/>
    <path id="Caminho_14418" data-name="Caminho 14418" d="M611.637,970.366c-.718-1.384,15.66-6.37,15.92,7.293,0,0,30.681-.754,16.031-17.855-5.072-5.92-4.55-10.815-4.4-15.371s-3.159-17.8-14.515-16.468a8.458,8.458,0,0,0-6.685.715C609.549,933.059,590.641,975.4,611.637,970.366Z" transform="translate(-324.299 -608.306)" fill="url(#linear-gradient)"/>
    <path id="Caminho_14419" data-name="Caminho 14419" d="M870.234,1163.375s2-3.04,3.607-3.1,4.59-.894,4.352-.3-2.086.656-2.265,1.013,2.742.894,3.577.954,2.8,0,2.742.417-3.546,2.146-6.005,1.908a16.68,16.68,0,0,0-5.5.715Z" transform="translate(-532.737 -788.775)" fill="#ffb27d"/>
    <path id="Caminho_14420" data-name="Caminho 14420" d="M740.543,1095.662a29.95,29.95,0,0,0,3.055,4.62c2.373,2.972,6.032,6.406,10.626,7.084a11.407,11.407,0,0,0,6.313-1.025h.007c5.58-2.477,9.775-8.173,9.775-8.173a4.587,4.587,0,0,0-.626-4.5s-11.267,2.534-12.34,2-7.67-15.172-8.858-17.61a13.364,13.364,0,0,0-6.534-6.667Z" transform="translate(-431.929 -720.078)" fill="#aec3ff"/>
    <path id="Caminho_14421" data-name="Caminho 14421" d="M753.022,1180.3c2.373,2.972,6.032,6.406,10.626,7.084a11.407,11.407,0,0,0,6.313-1.025c-.218.029-5.791.717-8.012-3.257-2.266-4.054-4.716-10.492-8.082-8.346C752.415,1175.682,752.48,1177.983,753.022,1180.3Z" transform="translate(-441.353 -800.096)" fill="#94b0ed"/>
    <path id="Caminho_14422" data-name="Caminho 14422" d="M541.835,1721.317s-3.438,3.137-2.767,5.367,3.773,3.715,4.193,6.44,2.1,4.211,3.606,4.211h7.2s1.111-1.917-1.572-2.5-3.7-3.78-3.527-6.752a52.393,52.393,0,0,0-.251-6.935l-5.7-1.322Z" transform="translate(-275.255 -1224.114)" fill="url(#linear-gradient)"/>
    <path id="Caminho_14423" data-name="Caminho 14423" d="M680.792,1732.485s-1.237,13.292.273,14.035l19.316-.04s0-2.229-3.1-2.725-8.553-2.312-9.475-6.357S680.792,1732.485,680.792,1732.485Z" transform="translate(-385.113 -1233.95)" fill="url(#linear-gradient)"/>
    <path id="Caminho_14424" data-name="Caminho 14424" d="M615.289,1081.13a76.894,76.894,0,0,0,0,8.928c.192,3.228,3.457,7.552,3.92,8.621,1.162,2.682,2.473,3.119,2.473,3.119l10.142,2.486,3.566.873,11.245-3.359s5.122-14.3,3.065-22.344a61.848,61.848,0,0,0-5.2-13.636s-7.624-3.009-21.124-.762Z" transform="translate(-334.47 -714.51)" fill="#aec3ff"/>
    <path id="Caminho_14425" data-name="Caminho 14425" d="M629.066,1174.749c.191,3.228.488,6.234.951,7.3,1.162,2.682,2.473,3.119,2.473,3.119l10.142,2.486,4.4-1.3s-14.7-2.228-13.075-14.879Z" transform="translate(-345.278 -797.884)" fill="#f2ccaa"/>
    <path id="Caminho_14426" data-name="Caminho 14426" d="M688.158,1242.691s5.569,17.334,5.927,23.236S683.44,1349.765,683,1352.484c-.417,2.563-3.6,4.2-3.6,4.2a4.816,4.816,0,0,1-3.553.273c-2.9-.818-3.815-1.8-3.815-1.8s-4.334-55.584-1.652-75.439a314.514,314.514,0,0,0,2.714-37.026Z" transform="translate(-376.707 -853.234)" fill="#4692f2"/>
    <path id="Caminho_14427" data-name="Caminho 14427" d="M577.17,1240.371s-8.495,11.4-9.287,19.1-1.242,34.769-2.93,42.28-7.886,21.966-7.886,45.394a4.673,4.673,0,0,0,2.634,2.058,21.659,21.659,0,0,0,2.316.641,3.641,3.641,0,0,0,4.073-1.933c4.191-8.438,17.541-35.653,18.225-41.3.484-4,4.7-30.457,13.894-45.983,2.207-3.727-1.355-18.551-1.355-18.551Z" transform="translate(-289.313 -851.43)" fill="#46a7f2"/>
    <path id="Caminho_14428" data-name="Caminho 14428" d="M667.616,1230.676s-2.236,1.769-6.677,1.858c-5.3.107-18.45-1.353-18.45-1.353a10.87,10.87,0,0,0-.56,3.355s16.055,4.05,25.357.591a5.879,5.879,0,0,0,.33-4.451Z" transform="translate(-355.275 -843.895)" fill="#1f4822"/>
    <g id="Grupo_40349" data-name="Grupo 40349" transform="translate(304.516 387.731)">
      <path id="Caminho_14429" data-name="Caminho 14429" d="M722.139,1237.682a2.439,2.439,0,1,1,2.421,2.74,2.6,2.6,0,0,1-2.421-2.74Zm.8,0a1.644,1.644,0,1,0,1.618-1.937,1.8,1.8,0,0,0-1.616,1.937Z" transform="translate(-722.139 -1234.942)" fill="#fff"/>
    </g>
    <path id="Caminho_14430" data-name="Caminho 14430" d="M571.789,1170.9l13.037,11.352a2.261,2.261,0,0,0,3.191-.22l16.635-19.1a2.261,2.261,0,0,0-.22-3.191L591.4,1148.389a2.262,2.262,0,0,0-3.191.22l-16.635,19.1A2.262,2.262,0,0,0,571.789,1170.9Z" transform="translate(-300.153 -779.498)" fill="#f78248"/>
    <path id="Caminho_14431" data-name="Caminho 14431" d="M657.116,1244.992c.185.049,6.925.841,6.926,2.234,0,1.61-1.975,3.768-3.837,3.666-.755-.041-4.231-3.239-4.231-3.239Z" transform="translate(-366.193 -855.022)" fill="#ffb27d"/>
    <path id="Caminho_14432" data-name="Caminho 14432" d="M675.942,1036.038a22.421,22.421,0,0,0,1.2-8.2l.509.1,8.561,1.7s-.2,2.695-.2,5.233v.063c-.01,2.2,1.489,4.416-2.047,5.291C682.875,1040.492,674.332,1039.944,675.942,1036.038Z" transform="translate(-381.558 -686.23)" fill="#ffb27d"/>
    <path id="Caminho_14433" data-name="Caminho 14433" d="M692.89,1029.985s-.2,2.694-.2,5.233c-4.791-.135-7.323-4.505-8.361-6.928Z" transform="translate(-388.234 -686.58)" fill="#e8945b"/>
    <path id="Caminho_14434" data-name="Caminho 14434" d="M689.921,979.936s-11.335.187-11.343-6.873-1.476-11.792,5.761-12.21,8.646,2.275,9.222,4.631S692.87,979.706,689.921,979.936Z" transform="translate(-383.665 -634.128)" fill="#ffb27d"/>
    <path id="Caminho_14435" data-name="Caminho 14435" d="M676.781,955.219s-3.1,8.283-7.866,9.508-6.829-.051-6.829-.051a13.486,13.486,0,0,0,4.411-7.968S674.44,951.276,676.781,955.219Z" transform="translate(-370.944 -628.667)" fill="#163560"/>
    <path id="Caminho_14436" data-name="Caminho 14436" d="M724.618,958.533a7.031,7.031,0,0,1,3.249,2.539,11.412,11.412,0,0,1,1.532,6.482s2.338-5.63-.289-8.816C726.323,955.361,724.618,958.533,724.618,958.533Z" transform="translate(-419.55 -631.308)" fill="#163560"/>
    <path id="Caminho_14437" data-name="Caminho 14437" d="M661.1,1243.612a7.706,7.706,0,0,1,2.7-.368c1.079.151,1.878-.021,1.878.281s-1.394.443-1.69.588A14.68,14.68,0,0,1,661.1,1243.612Z" transform="translate(-370.182 -853.643)" fill="#ffb27d"/>
    <path id="Caminho_14438" data-name="Caminho 14438" d="M582.018,1067.964s-8.046.564-11.131,8.062-8.936,20.086-8.936,22.2,3.269,8.646,20.824,12.4c0,0,1.816-1.91,1.706-3.421,0,0-10.959-9.413-10.929-10.513.056-2.081,1.8-4.828,11.418-14.453C587.586,1079.627,582.018,1067.964,582.018,1067.964Z" transform="translate(-293.109 -717.419)" fill="#aec3ff"/>
    <path id="Caminho_14439" data-name="Caminho 14439" d="M1116.015,781.076h-86.95a7.929,7.929,0,0,0-5.606,2.322l-61.483,61.483a7.929,7.929,0,0,0-2.322,5.606v86.95a7.928,7.928,0,0,0,2.323,5.608l61.482,61.482a7.928,7.928,0,0,0,5.606,2.322h86.95a7.927,7.927,0,0,0,5.606-2.322l61.483-61.483a7.928,7.928,0,0,0,2.322-5.607v-86.95a7.93,7.93,0,0,0-2.322-5.606L1121.621,783.4a7.929,7.929,0,0,0-5.606-2.324Z" transform="translate(-602.243 -494.421)" fill="#D60E00"/>
    <g id="Grupo_40350" data-name="Grupo 40350" transform="translate(368.713 297.957)">
      <path id="Caminho_14440" data-name="Caminho 14440" d="M1149.346,1034.994H1074.63a11.322,11.322,0,0,1-8.057-3.337l-52.832-52.833a11.318,11.318,0,0,1-3.337-8.056V896.052a11.319,11.319,0,0,1,3.338-8.057l52.832-52.832a11.321,11.321,0,0,1,8.057-3.338h74.716a11.319,11.319,0,0,1,8.057,3.338L1210.235,888a11.319,11.319,0,0,1,3.337,8.057v74.717a11.318,11.318,0,0,1-3.337,8.056l-52.832,52.833A11.32,11.32,0,0,1,1149.346,1034.994ZM1074.63,839.573a3.621,3.621,0,0,0-2.579,1.068l-52.832,52.832a3.623,3.623,0,0,0-1.068,2.578v74.717a3.622,3.622,0,0,0,1.068,2.578l52.833,52.833a3.623,3.623,0,0,0,2.578,1.068h74.716a3.623,3.623,0,0,0,2.579-1.068l52.833-52.832a3.625,3.625,0,0,0,1.068-2.578V896.052a3.624,3.624,0,0,0-1.068-2.578l-52.833-52.833a3.622,3.622,0,0,0-2.579-1.068Z" transform="translate(-1010.403 -831.825)" fill="#fff"/>
    </g>
    <path id="Caminho_14441" data-name="Caminho 14441" d="M1388.166,1050.4l-1.522-1.318a9.224,9.224,0,0,0-12.973.933l-8.6,9.93a2.027,2.027,0,0,1-3.559-1.327h0a21.845,21.845,0,0,0-.124-2.326v-62.52a7.487,7.487,0,0,0-7.465-7.465h-.551a7.487,7.487,0,0,0-7.465,7.465v40.687a1.788,1.788,0,0,1-1.788,1.787h0a1.974,1.974,0,0,1-1.974-1.974V985.889a7.236,7.236,0,0,0-7.215-7.215h-1.051a7.236,7.236,0,0,0-7.215,7.215v48.7a1.655,1.655,0,0,1-1.655,1.655h0a2.106,2.106,0,0,1-2.106-2.106V995.315a7.487,7.487,0,0,0-7.465-7.465h-.551a7.487,7.487,0,0,0-7.465,7.465v39.14a1.791,1.791,0,0,1-1.791,1.791h0a1.97,1.97,0,0,1-1.97-1.97v-30.622a7.487,7.487,0,0,0-7.465-7.465h-.552a7.487,7.487,0,0,0-7.465,7.465v53.766c0,.149.006.3.015.444-.009.25-.015.5-.015.753v29.594a21.933,21.933,0,0,0,21.869,21.869h29.594a21.9,21.9,0,0,0,18.395-10.08,46.229,46.229,0,0,1,3.876-5.233l27.187-31.4a9.224,9.224,0,0,0-.933-12.967Z" transform="translate(-857.607 -648.014)" fill="#fff"/>
  </g>
</svg>
