<svg xmlns="http://www.w3.org/2000/svg" xmlns:xlink="http://www.w3.org/1999/xlink" width="511.248" height="351.762" viewBox="0 0 511.248 351.762">
  <defs>
    <linearGradient id="linear-gradient" y1="0.5" x2="1" y2="0.5" gradientUnits="objectBoundingBox">
      <stop offset="0" stop-color="#febbba"/>
      <stop offset="1" stop-color="#ff928e"/>
    </linearGradient>
    <linearGradient id="linear-gradient-2" y1="0.5" x2="1" y2="0.5" gradientUnits="objectBoundingBox">
      <stop offset="0" stop-color="#09005d"/>
      <stop offset="1" stop-color="#1a0f91"/>
    </linearGradient>
  </defs>
  <g id="Grupo_40342" data-name="Grupo 40342" transform="translate(-596.142 -116.024)">
    <path id="Caminho_14378" data-name="Caminho 14378" d="M1145.542,327.6c-32.447,57.158-119.415,93.9-185.683,115.507-91.143,30.071-229.3,46.24-280.626-33.617-37.015-57.654,51.009-155.675,164.474-224.632l.018-.006c40.708-24.76,86.441-46.78,131.958-61.276C1107.167,81.746,1205.144,222.583,1145.542,327.6Z" transform="translate(-56.01 0)" fill="#00A443"/>
    <path id="Caminho_14379" data-name="Caminho 14379" d="M606.665,212.044H817.1a10.554,10.554,0,0,1,10.523,10.523V329.313A10.553,10.553,0,0,1,817.1,339.836H799.309l8.59,36.28-53.928-36.28H606.665a10.553,10.553,0,0,1-10.523-10.523V222.567A10.554,10.554,0,0,1,606.665,212.044Z" transform="translate(0 -72.171)" fill="#1f6022"/>
    <g id="Grupo_40341" data-name="Grupo 40341" transform="translate(614.111 153.681)">
      <path id="Caminho_14380" data-name="Caminho 14380" d="M673.091,412.762h185.9a4.6,4.6,0,0,0,0-9.207h-185.9a4.6,4.6,0,1,0,0,9.207Z" transform="translate(-668.487 -369.796)" fill="#fff"/>
      <path id="Caminho_14381" data-name="Caminho 14381" d="M858.987,486.521h-185.9a4.6,4.6,0,1,0,0,9.207h185.9a4.6,4.6,0,0,0,0-9.207Z" transform="translate(-668.487 -432.155)" fill="#fff"/>
      <path id="Caminho_14382" data-name="Caminho 14382" d="M858.987,569.485h-185.9a4.618,4.618,0,0,0-4.6,4.6h0a4.618,4.618,0,0,0,4.6,4.6h185.9a4.617,4.617,0,0,0,4.6-4.6h0A4.617,4.617,0,0,0,858.987,569.485Z" transform="translate(-668.487 -494.512)" fill="#fff"/>
      <path id="Caminho_14383" data-name="Caminho 14383" d="M1078.2,278.6h78.919a5.481,5.481,0,0,0,0-10.961H1078.2a5.481,5.481,0,0,0,0,10.961Z" transform="translate(-972.316 -267.636)" fill="#fff"/>
      <path id="Retângulo_18863" data-name="Retângulo 18863" d="M5.481,0H50.67A5.481,5.481,0,0,1,56.15,5.481v0a5.481,5.481,0,0,1-5.481,5.481H5.48A5.48,5.48,0,0,1,0,5.481v0A5.481,5.481,0,0,1,5.481,0Z" transform="translate(33.729 0)" fill="#fff"/>
    </g>
    <path id="Caminho_14384" data-name="Caminho 14384" d="M1746.3,899.043c2.374-38.05-16.087-79.251-31.167-91.055a16.916,16.916,0,0,0-6.807-3.5,3.951,3.951,0,0,1-1.406-.767c-4.247-3.417-9.967-17.024-10.892-37.894-.093-2.068-.137-4.2-.13-6.4,0,0,.006,0,0-.006l-2.092.412-2,.394h-.006l-33.174,6.57c.188,2.378.824,13.457.824,21.5.025,8.693-.5,16.931-2.473,17.967-.055.005-.547.045-1.063.1-1.171.116-2.9.3-3.019.322a221.511,221.511,0,0,0-22.215,40.885v.025l-.006.006c-4.79,11.76-8.68,24.874-9.518,37.665A85.736,85.736,0,0,0,1622.633,907v.007c1.867,10.043,5.017,20.581,6.886,32.206,15.655-3.654,30.694-7.924,44.63-12.522A700.789,700.789,0,0,0,1746.3,899.043Z" transform="translate(-770.299 -483.587)" fill="url(#linear-gradient)"/>
    <path id="Caminho_14385" data-name="Caminho 14385" d="M1772.521,768.033s.8,11.071.825,21.5c19.685-.553,30.09-18.512,34.353-28.464Z" transform="translate(-884.192 -484.83)" fill="#eb8d8d"/>
    <path id="Caminho_14386" data-name="Caminho 14386" d="M1788.449,351.141c-7.8-4.776-20.267.932-20.267.932,4.309-6.057,20.033-4.077,20.033-4.077-31.32-6.664-37.859,13.36-38.4,15.235-19.78-17.85-49.909,12.968-57.374,21.24-7.347,6.4-14.513,18.935-3.283,46.766l3.373,10.872,42.444,2.983,7.943,10.529s4.761-11.008,11.051-7.571c9.807,5.358,28.774-16.322,22.713-44.844a75.307,75.307,0,0,0-2.318-8.483,16.912,16.912,0,0,0,6.512,1.611c5.706,0,14.326-14.559,15.491-19.452S1796.252,355.916,1788.449,351.141Z" transform="translate(-817.152 -173.339)" fill="url(#linear-gradient-2)"/>
    <path id="Caminho_14387" data-name="Caminho 14387" d="M1699.113,591.051s46.574.769,46.605-28.242,6.065-48.451-23.669-50.168-35.525,9.347-37.891,19.027S1687,590.1,1699.113,591.051Z" transform="translate(-817.358 -297.973)" fill="url(#linear-gradient)"/>
    <path id="Caminho_14388" data-name="Caminho 14388" d="M1752.994,492.473s12.753,34.035,32.322,39.068,28.059-.211,28.059-.211a55.416,55.416,0,0,1-18.126-32.741S1762.613,476.273,1752.994,492.473Z" transform="translate(-869.515 -278.516)" fill="url(#linear-gradient-2)"/>
    <path id="Caminho_14389" data-name="Caminho 14389" d="M1694.357,504.645s-9.523,7.6-11.845,14.987-3.366,22.6-7.8,22.078c0,0-9.607-23.133,1.191-36.221C1687.352,491.613,1694.357,504.645,1694.357,504.645Z" transform="translate(-807.717 -287.925)" fill="url(#linear-gradient-2)"/>
    <path id="Caminho_14390" data-name="Caminho 14390" d="M2025.738,1021.372q-11.624,5.809-22.831,10.929-6.53,3-12.9,5.771c-.555.244-1.111.481-1.661.718-5.432-19.6-10-35.684-10-35.684L1974.9,988.2l-6.938-30.051v-.006l-4.8-20.789s.331.032.943.107c1.53.174,4.815.574,8.924,1.224,7.482,1.192,17.723,3.216,25.2,6.226.057.025.113.044.169.075.137.05.269.106.4.162,3.779,1.581,6.782,3.422,8.262,5.546l.018.019c0,.006.007.013.013.019s.006.006.006.012a6.466,6.466,0,0,1,.532.937C2013.936,965.542,2020.236,993.2,2025.738,1021.372Z" transform="translate(-1027.484 -617.329)" fill="#fc9492"/>
    <path id="Caminho_14391" data-name="Caminho 14391" d="M1758.6,498.028s9.085,35.642,33.778,47.057c0,0-24.693-21.9-26.79-45.426S1758.6,498.028,1758.6,498.028Z" transform="translate(-873.727 -280.158)" fill="url(#linear-gradient-2)"/>
    <path id="Caminho_14392" data-name="Caminho 14392" d="M1262.34,1044.82q-1.031,4.628-1.943,9.642c-1.6,8.793-2.892,18.51-3.784,29.214,0,0-39.069-24.393-47.75-37.1,0-1.049.644-12.458-.455-20.221-.406-2.853-1.049-5.215-2.043-6.389-.474-.556-1.005-1.143-1.586-1.749-.006-.006,0-.006,0-.006a57.905,57.905,0,0,0-6.42-5.683c-2.279-1.717-4.353-2.935-5.484-2.959a.6.6,0,0,0-.155,0,.942.942,0,0,0-.243.056c-2.7.9-11.347,12.79-8.637,21.964,2.791,9.474,14.6,22.289,14.6,22.289s19.825,34.363,43.6,55.388c14.259-1.5,28.485-3.732,42.368-6.5,3.574-9.721,6.818-22.822,9.271-35.707v-.007c3.792-19.914,6.37-41.736,8.044-59.409l.006-.006v-.032c.881-9.311,1.518-17.466,1.942-23.587.349-4.971.562-8.593.655-10.392.056-.837.075-1.273.075-1.273a14.49,14.49,0,0,0-1.68.848C1296.431,976.749,1273.961,992.736,1262.34,1044.82Z" transform="translate(-441.336 -643.636)" fill="url(#linear-gradient)"/>
    <path id="Caminho_14393" data-name="Caminho 14393" d="M1583.817,1064.4c30.506-9.946,65.4-23.1,97.338-39.98-6.181-26.695-14.077-55.711-20.913-68.727a5.6,5.6,0,0,0-.662-.987c0-.006,0-.012-.006-.012s-.013-.013-.013-.019l-.019-.019a10.5,10.5,0,0,0-2.067-1.879c.069-.088.106-.138.106-.138a34.769,34.769,0,0,0-6.7-3.691c-.056-.031-.113-.05-.169-.075-10.979-4.69-25.192-6.245-25.192-6.245a.05.05,0,0,1-.007.019c-.038.169-.293,1.3-.711,3.047-.894,3.741-2.529,10.311-4.353,16.412v.006c-1.911,6.371-4.035,12.228-5.752,13.8-4.2,3.841-65,10.129-66.4,3.148-1.335-6.676,16-32.7,17.285-34.994-5.048.469-14.415,1.827-18.309,2.489-6.907,1.186-11.129,4.141-11.528,4.6-8.181,6.2-27.423,25.235-34.94,71.1,0,0,.056.081.162.225,1.336,1.743,10.385,13.114,22.75,16.661.35.106.705.194,1.062.281-.67,11.155-2.726,27.069-4.675,41.574A521.6,521.6,0,0,0,1583.817,1064.4Z" transform="translate(-679.967 -621.298)" fill="#20a8f9"/>
    <path id="Caminho_14394" data-name="Caminho 14394" d="M1231.609,1007.951l-18.721,5.61c-.622.186-1.343-.387-1.609-1.279L1195.9,960.974c-.268-.893.019-1.767.641-1.954l18.722-5.611c.62-.186,1.341.386,1.609,1.279L1232.249,1006C1232.516,1006.889,1232.229,1007.764,1231.609,1007.951Z" transform="translate(-450.715 -629.371)" fill="#D8CFC7"/>
    <path id="Caminho_14395" data-name="Caminho 14395" d="M1215.557,1013.739l-16.981,5.089c-1.1.33-2.38-.685-2.854-2.268l-14.628-48.807c-.475-1.584.034-3.135,1.135-3.466l16.981-5.09c1.1-.33,2.379.686,2.854,2.269l14.628,48.806C1217.167,1011.857,1216.658,1013.409,1215.557,1013.739Z" transform="translate(-439.529 -633.701)" fill="#babebf"/>
    <path id="Caminho_14396" data-name="Caminho 14396" d="M2012.7,1319.661c-2.042-5.375-4.429-9.913-6.01-9.547-1.489.343-6.439,7.242-10.791,16.309Q2004.265,1323.191,2012.7,1319.661Z" transform="translate(-1052.091 -897.489)" fill="#1a98d8"/>
    <path id="Caminho_14397" data-name="Caminho 14397" d="M1205.152,1119.262s6.8-6.172,12.361-.335-2.1,16.268-7.709,18.752a43.143,43.143,0,0,0-7.467,3.892Z" transform="translate(-455.629 -751.917)" fill="url(#linear-gradient)"/>
  </g>
</svg>
