<svg xmlns="http://www.w3.org/2000/svg" xmlns:xlink="http://www.w3.org/1999/xlink" width="125.41" height="84.177" viewBox="0 0 125.41 84.177">
  <defs>
    <linearGradient id="linear-gradient" x1="-0.031" y1="0.503" x2="0.968" y2="0.503" gradientUnits="objectBoundingBox">
      <stop offset="0" stop-color="#615470"/>
      <stop offset="0.095" stop-color="#61506a"/>
      <stop offset="0.3" stop-color="#584e68"/>
      <stop offset="0.377" stop-color="#544560"/>
      <stop offset="0.587" stop-color="#43344f"/>
      <stop offset="0.744" stop-color="#412f4a"/>
      <stop offset="1" stop-color="#33203d"/>
    </linearGradient>
    <clipPath id="clip-path">
      <path id="Caminho_7478" data-name="Caminho 7478" d="M486.971,632.381c-18.75-10.865-38.118-10.9-56.9-.091h0c-9.392,5.4-14.093,10.9-14.1,16.4s4.674,11.016,14.049,16.449c18.75,10.865,38.118,10.9,56.9.091,9.392-5.4,14.093-10.9,14.1-16.4S496.346,637.814,486.971,632.381Z" transform="translate(-415.967 -624.209)" fill="none"/>
    </clipPath>
    <clipPath id="clip-path-2">
      <path id="Caminho_7558" data-name="Caminho 7558" d="M497.936,307.781c-21.645-12.543-44-12.579-65.689-.105h0c-10.843,6.237-16.269,12.583-16.28,18.937s5.4,12.717,16.219,18.989c21.645,12.543,44,12.579,65.689.105,10.843-6.237,16.269-12.583,16.279-18.937S508.758,314.052,497.936,307.781Z" transform="translate(-415.967 -298.347)" fill="none"/>
    </clipPath>
    <linearGradient id="linear-gradient-2" x1="0.561" y1="0.896" x2="-0.212" y2="-0.489" gradientUnits="objectBoundingBox">
      <stop offset="0" stop-color="#9c473c"/>
      <stop offset="1" stop-color="#3e2d31"/>
    </linearGradient>
    <linearGradient id="linear-gradient-3" x1="0.338" y1="0.239" x2="0.609" y2="0.675" gradientUnits="objectBoundingBox">
      <stop offset="0" stop-color="#808534"/>
      <stop offset="1" stop-color="#7d6e41"/>
    </linearGradient>
    <linearGradient id="linear-gradient-4" x1="0.276" y1="0.276" x2="1.847" y2="1.847" xlink:href="#linear-gradient-2"/>
    <linearGradient id="linear-gradient-5" x1="0.505" y1="0.766" x2="0.45" y2="0.677" gradientUnits="objectBoundingBox">
      <stop offset="0" stop-color="#895770"/>
      <stop offset="1" stop-color="#7c4660"/>
    </linearGradient>
    <linearGradient id="linear-gradient-6" x1="0.829" y1="0.139" x2="0.524" y2="0.422" gradientUnits="objectBoundingBox">
      <stop offset="0" stop-color="#832224"/>
      <stop offset="1" stop-color="#711d1d"/>
    </linearGradient>
    <linearGradient id="linear-gradient-7" x1="0.464" y1="0.436" x2="0.57" y2="0.752" xlink:href="#linear-gradient-6"/>
    <linearGradient id="linear-gradient-8" x1="0.86" y1="0.17" x2="0.747" y2="0.257" xlink:href="#linear-gradient-6"/>
    <linearGradient id="linear-gradient-9" x1="16.297" y1="-20.837" x2="13.751" y2="-17.451" xlink:href="#linear-gradient-6"/>
    <linearGradient id="linear-gradient-10" x1="0.458" y1="0.616" x2="0.532" y2="0.366" xlink:href="#linear-gradient-6"/>
    <linearGradient id="linear-gradient-11" x1="-0.028" y1="0.5" x2="2.211" y2="0.5" gradientUnits="objectBoundingBox">
      <stop offset="0" stop-color="#ae8c8c"/>
      <stop offset="1" stop-color="#723f57"/>
    </linearGradient>
    <linearGradient id="linear-gradient-12" x1="-0.451" y1="0.5" x2="2.865" y2="0.5" xlink:href="#linear-gradient-11"/>
    <linearGradient id="linear-gradient-13" x1="0.383" y1="0.178" x2="0.529" y2="0.581" xlink:href="#linear-gradient-5"/>
    <linearGradient id="linear-gradient-14" x1="-0.408" y1="0.459" x2="1.588" y2="0.549" gradientUnits="objectBoundingBox">
      <stop offset="0" stop-color="#b32622"/>
      <stop offset="1" stop-color="#8e2020"/>
    </linearGradient>
    <linearGradient id="linear-gradient-15" x1="0.941" y1="2.074" x2="0.152" y2="-0.736" xlink:href="#linear-gradient-14"/>
    <linearGradient id="linear-gradient-16" x1="0.559" y1="0.694" x2="0.433" y2="0.313" gradientUnits="objectBoundingBox">
      <stop offset="0" stop-color="#ae8c8c"/>
      <stop offset="1" stop-color="#832224"/>
    </linearGradient>
    <linearGradient id="linear-gradient-17" x1="0.474" y1="0.445" x2="1.236" y2="2.06" xlink:href="#linear-gradient-11"/>
    <linearGradient id="linear-gradient-18" x1="1.084" y1="0.5" x2="-0.768" y2="0.5" gradientUnits="objectBoundingBox">
      <stop offset="0" stop-color="#ae8c8c"/>
      <stop offset="1" stop-color="#9d2221"/>
    </linearGradient>
    <linearGradient id="linear-gradient-19" x1="0.337" y1="0.265" x2="0.858" y2="1.017" xlink:href="#linear-gradient-16"/>
    <linearGradient id="linear-gradient-20" x1="0.021" y1="0.261" x2="-0.087" y2="0.204" gradientUnits="objectBoundingBox">
      <stop offset="0" stop-color="#b38f94"/>
      <stop offset="1" stop-color="#ab878c"/>
    </linearGradient>
    <linearGradient id="linear-gradient-21" x1="1.078" y1="0.5" x2="-0.763" y2="0.5" gradientUnits="objectBoundingBox">
      <stop offset="0" stop-color="#a17981"/>
      <stop offset="1" stop-color="#832224"/>
    </linearGradient>
    <linearGradient id="linear-gradient-22" x1="0.81" y1="0.5" x2="-2.614" y2="0.5" xlink:href="#linear-gradient-11"/>
    <linearGradient id="linear-gradient-23" x1="0.5" y1="0.06" x2="0.5" y2="-0.247" gradientUnits="objectBoundingBox">
      <stop offset="0" stop-color="#ab878c"/>
      <stop offset="1" stop-color="#aa8488"/>
    </linearGradient>
    <linearGradient id="linear-gradient-24" x1="0.458" y1="0.448" x2="0.306" y2="0.26" gradientUnits="objectBoundingBox">
      <stop offset="0" stop-color="#b38f94"/>
      <stop offset="0.56" stop-color="#b18e92"/>
      <stop offset="1" stop-color="#ab878c"/>
    </linearGradient>
    <linearGradient id="linear-gradient-25" x1="0.36" y1="0.185" x2="0.252" y2="-0.059" xlink:href="#linear-gradient-23"/>
    <linearGradient id="linear-gradient-26" x1="0.508" y1="0.524" x2="0.423" y2="0.269" xlink:href="#linear-gradient-21"/>
  </defs>
  <g id="Grupo_10350" data-name="Grupo 10350" transform="translate(-415.94 -259.751)" style="isolation: isolate">
    <g id="Grupo_9840" data-name="Grupo 9840" transform="translate(415.94 287.24)" style="mix-blend-mode: multiply;isolation: isolate">
      <path id="Caminho_7487" data-name="Caminho 7487" d="M546.787,324.729c-21.665-12.508-44.024-12.508-65.689,0h0c-10.833,6.255-16.249,12.609-16.249,18.963s5.416,12.709,16.249,18.963c21.665,12.509,44.025,12.509,65.69,0,10.833-6.255,16.249-12.609,16.249-18.963S557.62,330.983,546.787,324.729Z" transform="translate(-437.626 -315.347)" fill="#fff" opacity="0"/>
      <path id="Caminho_7488" data-name="Caminho 7488" d="M545.305,324.729c-21.665-12.508-44.024-12.508-65.689,0h0c-10.833,6.255-16.249,12.609-16.249,18.963s5.416,12.709,16.249,18.963c21.665,12.509,44.024,12.509,65.69,0,10.833-6.255,16.249-12.609,16.249-18.963S556.138,330.983,545.305,324.729Z" transform="translate(-436.969 -315.347)" fill="#fcfcfc" opacity="0.03"/>
      <path id="Caminho_7489" data-name="Caminho 7489" d="M543.823,324.729c-21.665-12.508-44.024-12.508-65.689,0h0c-10.833,6.255-16.249,12.609-16.249,18.963s5.416,12.709,16.249,18.963c21.665,12.509,44.025,12.509,65.69,0,10.833-6.255,16.249-12.609,16.249-18.963S554.656,330.983,543.823,324.729Z" transform="translate(-436.312 -315.347)" fill="#f9f9f9" opacity="0.061"/>
      <path id="Caminho_7490" data-name="Caminho 7490" d="M542.341,324.729c-21.665-12.508-44.024-12.508-65.689,0h0c-10.833,6.255-16.249,12.609-16.249,18.963s5.416,12.709,16.249,18.963c21.665,12.509,44.024,12.509,65.69,0,10.833-6.255,16.249-12.609,16.249-18.963S553.174,330.983,542.341,324.729Z" transform="translate(-435.655 -315.347)" fill="#f5f5f5" opacity="0.091"/>
      <path id="Caminho_7491" data-name="Caminho 7491" d="M540.859,324.729c-21.665-12.508-44.024-12.508-65.689,0h0c-10.833,6.255-16.249,12.609-16.249,18.963s5.416,12.709,16.249,18.963c21.665,12.509,44.025,12.509,65.69,0,10.833-6.255,16.249-12.609,16.249-18.963S551.692,330.983,540.859,324.729Z" transform="translate(-434.998 -315.347)" fill="#f2f2f2" opacity="0.121"/>
      <path id="Caminho_7492" data-name="Caminho 7492" d="M539.377,324.729c-21.665-12.508-44.024-12.508-65.69,0h0c-10.832,6.255-16.249,12.609-16.249,18.963s5.417,12.709,16.249,18.963c21.666,12.509,44.025,12.509,65.69,0,10.833-6.255,16.249-12.609,16.249-18.963S550.209,330.983,539.377,324.729Z" transform="translate(-434.34 -315.347)" fill="#efefef" opacity="0.152"/>
      <path id="Caminho_7493" data-name="Caminho 7493" d="M537.895,324.729c-21.665-12.508-44.024-12.508-65.69,0h0c-10.832,6.255-16.249,12.609-16.249,18.963s5.417,12.709,16.249,18.963c21.666,12.509,44.025,12.509,65.69,0,10.833-6.255,16.249-12.609,16.249-18.963S548.727,330.983,537.895,324.729Z" transform="translate(-433.683 -315.347)" fill="#ececec" opacity="0.182"/>
      <path id="Caminho_7494" data-name="Caminho 7494" d="M536.413,324.729c-21.666-12.508-44.024-12.508-65.69,0h0c-10.833,6.255-16.249,12.609-16.249,18.963s5.416,12.709,16.249,18.963c21.666,12.509,44.024,12.509,65.69,0,10.833-6.255,16.249-12.609,16.249-18.963S547.245,330.983,536.413,324.729Z" transform="translate(-433.026 -315.347)" fill="#e8e8e8" opacity="0.212"/>
      <path id="Caminho_7495" data-name="Caminho 7495" d="M534.93,324.729c-21.665-12.508-44.024-12.508-65.689,0h0c-10.833,6.255-16.249,12.609-16.249,18.963s5.416,12.709,16.249,18.963c21.666,12.509,44.025,12.509,65.69,0,10.833-6.255,16.249-12.609,16.249-18.963S545.763,330.983,534.93,324.729Z" transform="translate(-432.369 -315.347)" fill="#e5e5e5" opacity="0.242"/>
      <path id="Caminho_7496" data-name="Caminho 7496" d="M533.448,324.729c-21.665-12.508-44.024-12.508-65.689,0h0c-10.833,6.255-16.249,12.609-16.249,18.963s5.416,12.709,16.249,18.963c21.666,12.509,44.025,12.509,65.69,0,10.833-6.255,16.249-12.609,16.249-18.963S544.281,330.983,533.448,324.729Z" transform="translate(-431.712 -315.347)" fill="#e2e2e2" opacity="0.273"/>
      <path id="Caminho_7497" data-name="Caminho 7497" d="M531.966,324.729c-21.665-12.508-44.024-12.508-65.689,0h0c-10.833,6.255-16.249,12.609-16.249,18.963s5.416,12.709,16.249,18.963c21.665,12.509,44.024,12.509,65.69,0,10.833-6.255,16.249-12.609,16.249-18.963S542.8,330.983,531.966,324.729Z" transform="translate(-431.055 -315.347)" fill="#dfdfdf" opacity="0.303"/>
      <path id="Caminho_7498" data-name="Caminho 7498" d="M530.484,324.729c-21.665-12.508-44.024-12.508-65.689,0h0c-10.833,6.255-16.249,12.609-16.249,18.963s5.416,12.709,16.249,18.963c21.665,12.509,44.024,12.509,65.69,0,10.833-6.255,16.249-12.609,16.249-18.963S541.317,330.983,530.484,324.729Z" transform="translate(-430.397 -315.347)" fill="#dbdbdb" opacity="0.333"/>
      <path id="Caminho_7499" data-name="Caminho 7499" d="M529,324.729c-21.665-12.508-44.024-12.508-65.689,0h0c-10.833,6.255-16.249,12.609-16.249,18.963s5.416,12.709,16.249,18.963c21.665,12.509,44.025,12.509,65.69,0,10.833-6.255,16.249-12.609,16.249-18.963S539.835,330.983,529,324.729Z" transform="translate(-429.74 -315.347)" fill="#d8d8d8" opacity="0.364"/>
      <path id="Caminho_7500" data-name="Caminho 7500" d="M527.52,324.729c-21.665-12.508-44.024-12.508-65.689,0h0c-10.833,6.255-16.249,12.609-16.249,18.963S451,356.4,461.831,362.654c21.665,12.509,44.025,12.509,65.69,0,10.833-6.255,16.249-12.609,16.249-18.963S538.353,330.983,527.52,324.729Z" transform="translate(-429.083 -315.347)" fill="#d5d5d5" opacity="0.394"/>
      <path id="Caminho_7501" data-name="Caminho 7501" d="M526.038,324.729c-21.665-12.508-44.024-12.508-65.689,0h0c-10.833,6.255-16.249,12.609-16.249,18.963s5.416,12.709,16.249,18.963c21.665,12.509,44.025,12.509,65.69,0,10.833-6.255,16.249-12.609,16.249-18.963S536.871,330.983,526.038,324.729Z" transform="translate(-428.426 -315.347)" fill="#d2d2d2" opacity="0.424"/>
      <path id="Caminho_7502" data-name="Caminho 7502" d="M524.556,324.729c-21.665-12.508-44.024-12.508-65.689,0h0c-10.833,6.255-16.249,12.609-16.249,18.963s5.416,12.709,16.249,18.963c21.665,12.509,44.025,12.509,65.69,0,10.833-6.255,16.249-12.609,16.249-18.963S535.389,330.983,524.556,324.729Z" transform="translate(-427.769 -315.347)" fill="#cecece" opacity="0.455"/>
      <path id="Caminho_7503" data-name="Caminho 7503" d="M523.074,324.729c-21.666-12.508-44.024-12.508-65.69,0h0c-10.832,6.255-16.249,12.609-16.249,18.963s5.417,12.709,16.249,18.963c21.666,12.509,44.025,12.509,65.69,0,10.833-6.255,16.249-12.609,16.249-18.963S533.906,330.983,523.074,324.729Z" transform="translate(-427.111 -315.347)" fill="#cbcbcb" opacity="0.485"/>
      <path id="Caminho_7504" data-name="Caminho 7504" d="M521.592,324.729c-21.666-12.508-44.024-12.508-65.69,0h0c-10.832,6.255-16.249,12.609-16.249,18.963S445.07,356.4,455.9,362.654c21.666,12.509,44.024,12.509,65.69,0,10.833-6.255,16.249-12.609,16.249-18.963S532.424,330.983,521.592,324.729Z" transform="translate(-426.454 -315.347)" fill="#c8c8c8" opacity="0.515"/>
      <path id="Caminho_7505" data-name="Caminho 7505" d="M520.11,324.729c-21.666-12.508-44.025-12.508-65.69,0h0c-10.833,6.255-16.249,12.609-16.249,18.963s5.416,12.709,16.249,18.963c21.666,12.509,44.025,12.509,65.69,0,10.833-6.255,16.249-12.609,16.249-18.963S530.942,330.983,520.11,324.729Z" transform="translate(-425.797 -315.347)" fill="#c5c5c5" opacity="0.545"/>
      <path id="Caminho_7506" data-name="Caminho 7506" d="M518.628,324.729c-21.666-12.508-44.025-12.508-65.69,0h0c-10.833,6.255-16.249,12.609-16.249,18.963s5.416,12.709,16.249,18.963c21.666,12.509,44.024,12.509,65.69,0,10.833-6.255,16.249-12.609,16.249-18.963S529.46,330.983,518.628,324.729Z" transform="translate(-425.14 -315.347)" fill="#c1c1c1" opacity="0.576"/>
      <path id="Caminho_7507" data-name="Caminho 7507" d="M517.146,324.729c-21.666-12.508-44.024-12.508-65.69,0h0c-10.833,6.255-16.249,12.609-16.249,18.963s5.416,12.709,16.249,18.963c21.666,12.509,44.025,12.509,65.69,0,10.833-6.255,16.249-12.609,16.249-18.963S527.978,330.983,517.146,324.729Z" transform="translate(-424.483 -315.347)" fill="#bebebe" opacity="0.606"/>
      <path id="Caminho_7508" data-name="Caminho 7508" d="M515.664,324.729c-21.666-12.508-44.025-12.508-65.69,0h0c-10.833,6.255-16.249,12.609-16.249,18.963s5.416,12.709,16.249,18.963c21.666,12.509,44.024,12.509,65.69,0,10.833-6.255,16.249-12.609,16.249-18.963S526.5,330.983,515.664,324.729Z" transform="translate(-423.826 -315.347)" fill="#bbb" opacity="0.636"/>
      <path id="Caminho_7509" data-name="Caminho 7509" d="M514.182,324.729c-21.666-12.508-44.024-12.508-65.69,0h0c-10.833,6.255-16.249,12.609-16.249,18.963s5.416,12.709,16.249,18.963c21.666,12.509,44.025,12.509,65.69,0,10.833-6.255,16.249-12.609,16.249-18.963S525.014,330.983,514.182,324.729Z" transform="translate(-423.169 -315.347)" fill="#b8b8b8" opacity="0.667"/>
      <path id="Caminho_7510" data-name="Caminho 7510" d="M512.7,324.729c-21.666-12.508-44.025-12.508-65.69,0h0c-10.833,6.255-16.249,12.609-16.249,18.963s5.416,12.709,16.249,18.963c21.666,12.509,44.024,12.509,65.69,0,10.833-6.255,16.249-12.609,16.249-18.963S523.532,330.983,512.7,324.729Z" transform="translate(-422.512 -315.347)" fill="#b4b4b4" opacity="0.697"/>
      <path id="Caminho_7511" data-name="Caminho 7511" d="M511.217,324.729c-21.665-12.508-44.024-12.508-65.689,0h0c-10.833,6.255-16.249,12.609-16.249,18.963s5.416,12.709,16.249,18.963c21.665,12.509,44.025,12.509,65.69,0,10.833-6.255,16.249-12.609,16.249-18.963S522.05,330.983,511.217,324.729Z" transform="translate(-421.854 -315.347)" fill="#b1b1b1" opacity="0.727"/>
      <path id="Caminho_7512" data-name="Caminho 7512" d="M509.735,324.729c-21.665-12.508-44.024-12.508-65.689,0h0c-10.833,6.255-16.249,12.609-16.249,18.963s5.416,12.709,16.249,18.963c21.665,12.509,44.025,12.509,65.69,0,10.833-6.255,16.249-12.609,16.249-18.963S520.568,330.983,509.735,324.729Z" transform="translate(-421.197 -315.347)" fill="#aeaeae" opacity="0.758"/>
      <path id="Caminho_7513" data-name="Caminho 7513" d="M508.253,324.729c-21.665-12.508-44.024-12.508-65.689,0h0c-10.833,6.255-16.249,12.609-16.249,18.963s5.416,12.709,16.249,18.963c21.665,12.509,44.024,12.509,65.69,0,10.833-6.255,16.249-12.609,16.249-18.963S519.086,330.983,508.253,324.729Z" transform="translate(-420.54 -315.347)" fill="#ababab" opacity="0.788"/>
      <path id="Caminho_7514" data-name="Caminho 7514" d="M506.771,324.729c-21.666-12.508-44.025-12.508-65.69,0h0c-10.833,6.255-16.249,12.609-16.249,18.963s5.416,12.709,16.249,18.963c21.666,12.509,44.024,12.509,65.69,0,10.832-6.255,16.249-12.609,16.249-18.963S517.6,330.983,506.771,324.729Z" transform="translate(-419.883 -315.347)" fill="#a7a7a7" opacity="0.818"/>
      <path id="Caminho_7515" data-name="Caminho 7515" d="M505.289,324.729c-21.666-12.508-44.025-12.508-65.69,0h0c-10.833,6.255-16.249,12.609-16.249,18.963s5.416,12.709,16.249,18.963c21.666,12.509,44.024,12.509,65.69,0,10.832-6.255,16.248-12.609,16.248-18.963S516.121,330.983,505.289,324.729Z" transform="translate(-419.226 -315.347)" fill="#a4a4a4" opacity="0.848"/>
      <path id="Caminho_7516" data-name="Caminho 7516" d="M503.807,324.729c-21.666-12.508-44.025-12.508-65.69,0h0c-10.833,6.255-16.249,12.609-16.249,18.963s5.416,12.709,16.249,18.963c21.666,12.509,44.025,12.509,65.69,0,10.833-6.255,16.249-12.609,16.249-18.963S514.639,330.983,503.807,324.729Z" transform="translate(-418.569 -315.347)" fill="#a1a1a1" opacity="0.879"/>
      <path id="Caminho_7517" data-name="Caminho 7517" d="M502.325,324.729c-21.666-12.508-44.025-12.508-65.69,0h0c-10.833,6.255-16.249,12.609-16.249,18.963s5.416,12.709,16.249,18.963c21.666,12.509,44.025,12.509,65.69,0,10.833-6.255,16.249-12.609,16.249-18.963S513.157,330.983,502.325,324.729Z" transform="translate(-417.911 -315.347)" fill="#9e9e9e" opacity="0.909"/>
      <path id="Caminho_7518" data-name="Caminho 7518" d="M500.843,324.729c-21.666-12.508-44.025-12.508-65.69,0h0c-10.833,6.255-16.249,12.609-16.249,18.963s5.416,12.709,16.249,18.963c21.666,12.509,44.025,12.509,65.69,0,10.833-6.255,16.249-12.609,16.249-18.963S511.675,330.983,500.843,324.729Z" transform="translate(-417.254 -315.347)" fill="#9a9a9a" opacity="0.939"/>
      <path id="Caminho_7519" data-name="Caminho 7519" d="M499.361,324.729c-21.666-12.508-44.024-12.508-65.69,0h0c-10.833,6.255-16.249,12.609-16.249,18.963s5.416,12.709,16.249,18.963c21.666,12.509,44.024,12.509,65.69,0,10.833-6.255,16.249-12.609,16.249-18.963S510.193,330.983,499.361,324.729Z" transform="translate(-416.597 -315.347)" fill="#979797" opacity="0.97"/>
      <path id="Caminho_7520" data-name="Caminho 7520" d="M497.879,324.729c-21.666-12.508-44.024-12.508-65.69,0h0c-10.833,6.255-16.249,12.609-16.249,18.963s5.416,12.709,16.249,18.963c21.666,12.509,44.025,12.509,65.69,0,10.833-6.255,16.249-12.609,16.249-18.963S508.711,330.983,497.879,324.729Z" transform="translate(-415.94 -315.347)" fill="#949494"/>
    </g>
    <g id="Grupo_12666" data-name="Grupo 12666" transform="translate(416.326 276.394)">
      <g id="Grupo_9829" data-name="Grupo 9829" transform="translate(0 8.197)" style="mix-blend-mode: multiply;isolation: isolate">
        <path id="Caminho_7407" data-name="Caminho 7407" d="M535.827,649.336c-18.767-10.835-38.135-10.835-56.9,0h0c-9.384,5.417-14.075,10.922-14.075,16.426s4.692,11.008,14.075,16.426c18.767,10.835,38.136,10.835,56.9,0,9.384-5.418,14.075-10.922,14.075-16.426S545.211,654.753,535.827,649.336Z" transform="translate(-441.268 -641.209)" fill="#fff" opacity="0"/>
        <path id="Caminho_7408" data-name="Caminho 7408" d="M534.345,649.336c-18.767-10.835-38.135-10.835-56.9,0h0c-9.384,5.417-14.075,10.922-14.075,16.426s4.692,11.008,14.075,16.426c18.767,10.835,38.136,10.835,56.9,0,9.384-5.418,14.075-10.922,14.075-16.426S543.729,654.753,534.345,649.336Z" transform="translate(-440.5 -641.209)" fill="#fcfcfc" opacity="0.03"/>
        <path id="Caminho_7409" data-name="Caminho 7409" d="M532.863,649.336c-18.767-10.835-38.135-10.835-56.9,0h0c-9.384,5.417-14.075,10.922-14.075,16.426s4.692,11.008,14.075,16.426c18.767,10.835,38.136,10.835,56.9,0,9.384-5.418,14.075-10.922,14.075-16.426S542.247,654.753,532.863,649.336Z" transform="translate(-439.733 -641.209)" fill="#f9f9f9" opacity="0.061"/>
        <path id="Caminho_7410" data-name="Caminho 7410" d="M531.381,649.336c-18.767-10.835-38.135-10.835-56.9,0h0c-9.384,5.417-14.075,10.922-14.075,16.426s4.692,11.008,14.075,16.426c18.767,10.835,38.136,10.835,56.9,0,9.384-5.418,14.076-10.922,14.076-16.426S540.765,654.753,531.381,649.336Z" transform="translate(-438.965 -641.209)" fill="#f5f5f5" opacity="0.091"/>
        <path id="Caminho_7411" data-name="Caminho 7411" d="M529.9,649.336c-18.767-10.835-38.135-10.835-56.9,0h0c-9.384,5.417-14.075,10.922-14.075,16.426s4.692,11.008,14.075,16.426c18.767,10.835,38.136,10.835,56.9,0,9.384-5.418,14.075-10.922,14.075-16.426S539.283,654.753,529.9,649.336Z" transform="translate(-438.198 -641.209)" fill="#f2f2f2" opacity="0.121"/>
        <path id="Caminho_7412" data-name="Caminho 7412" d="M528.416,649.336c-18.767-10.835-38.135-10.835-56.9,0h0c-9.383,5.417-14.075,10.922-14.075,16.426s4.692,11.008,14.075,16.426c18.768,10.835,38.136,10.835,56.9,0,9.384-5.418,14.075-10.922,14.075-16.426S537.8,654.753,528.416,649.336Z" transform="translate(-437.43 -641.209)" fill="#efefef" opacity="0.152"/>
        <path id="Caminho_7413" data-name="Caminho 7413" d="M526.934,649.336c-18.767-10.835-38.135-10.835-56.9,0h0c-9.383,5.417-14.075,10.922-14.075,16.426s4.692,11.008,14.075,16.426c18.768,10.835,38.136,10.835,56.9,0,9.384-5.418,14.075-10.922,14.075-16.426S536.318,654.753,526.934,649.336Z" transform="translate(-436.662 -641.209)" fill="#ececec" opacity="0.182"/>
        <path id="Caminho_7414" data-name="Caminho 7414" d="M525.452,649.336c-18.768-10.835-38.136-10.835-56.9,0h0c-9.384,5.417-14.075,10.922-14.075,16.426s4.692,11.008,14.075,16.426c18.768,10.835,38.136,10.835,56.9,0,9.384-5.418,14.075-10.922,14.075-16.426S534.836,654.753,525.452,649.336Z" transform="translate(-435.895 -641.209)" fill="#e8e8e8" opacity="0.212"/>
        <path id="Caminho_7415" data-name="Caminho 7415" d="M523.97,649.336c-18.767-10.835-38.135-10.835-56.9,0h0c-9.384,5.417-14.075,10.922-14.075,16.426s4.692,11.008,14.075,16.426c18.768,10.835,38.136,10.835,56.9,0,9.383-5.418,14.075-10.922,14.075-16.426S533.354,654.753,523.97,649.336Z" transform="translate(-435.127 -641.209)" fill="#e5e5e5" opacity="0.242"/>
        <path id="Caminho_7416" data-name="Caminho 7416" d="M522.488,649.336c-18.767-10.835-38.135-10.835-56.9,0h0c-9.384,5.417-14.075,10.922-14.075,16.426s4.692,11.008,14.075,16.426c18.768,10.835,38.136,10.835,56.9,0,9.384-5.418,14.075-10.922,14.075-16.426S531.872,654.753,522.488,649.336Z" transform="translate(-434.36 -641.209)" fill="#e2e2e2" opacity="0.273"/>
        <path id="Caminho_7417" data-name="Caminho 7417" d="M521.006,649.336c-18.767-10.835-38.135-10.835-56.9,0h0c-9.384,5.417-14.075,10.922-14.075,16.426s4.692,11.008,14.075,16.426c18.767,10.835,38.136,10.835,56.9,0,9.384-5.418,14.075-10.922,14.075-16.426S530.39,654.753,521.006,649.336Z" transform="translate(-433.593 -641.209)" fill="#dfdfdf" opacity="0.303"/>
        <path id="Caminho_7418" data-name="Caminho 7418" d="M519.524,649.336c-18.767-10.835-38.135-10.835-56.9,0h0c-9.384,5.417-14.075,10.922-14.075,16.426s4.692,11.008,14.075,16.426c18.767,10.835,38.136,10.835,56.9,0,9.384-5.418,14.075-10.922,14.075-16.426S528.908,654.753,519.524,649.336Z" transform="translate(-432.825 -641.209)" fill="#dbdbdb" opacity="0.333"/>
        <path id="Caminho_7419" data-name="Caminho 7419" d="M518.042,649.336c-18.767-10.835-38.135-10.835-56.9,0h0c-9.384,5.417-14.075,10.922-14.075,16.426s4.692,11.008,14.075,16.426c18.767,10.835,38.136,10.835,56.9,0,9.384-5.418,14.076-10.922,14.076-16.426S527.426,654.753,518.042,649.336Z" transform="translate(-432.058 -641.209)" fill="#d8d8d8" opacity="0.364"/>
        <path id="Caminho_7420" data-name="Caminho 7420" d="M516.56,649.336c-18.767-10.835-38.135-10.835-56.9,0h0c-9.384,5.417-14.075,10.922-14.075,16.426s4.692,11.008,14.075,16.426c18.767,10.835,38.136,10.835,56.9,0,9.384-5.418,14.076-10.922,14.076-16.426S525.944,654.753,516.56,649.336Z" transform="translate(-431.29 -641.209)" fill="#d5d5d5" opacity="0.394"/>
        <path id="Caminho_7421" data-name="Caminho 7421" d="M515.078,649.336c-18.767-10.835-38.135-10.835-56.9,0h0c-9.384,5.417-14.076,10.922-14.076,16.426s4.692,11.008,14.076,16.426c18.767,10.835,38.136,10.835,56.9,0,9.384-5.418,14.075-10.922,14.075-16.426S524.462,654.753,515.078,649.336Z" transform="translate(-430.523 -641.209)" fill="#d2d2d2" opacity="0.424"/>
        <path id="Caminho_7422" data-name="Caminho 7422" d="M513.6,649.336c-18.767-10.835-38.135-10.835-56.9,0h0c-9.384,5.417-14.075,10.922-14.075,16.426s4.692,11.008,14.075,16.426c18.767,10.835,38.136,10.835,56.9,0,9.384-5.418,14.075-10.922,14.075-16.426S522.98,654.753,513.6,649.336Z" transform="translate(-429.755 -641.209)" fill="#cecece" opacity="0.455"/>
        <path id="Caminho_7423" data-name="Caminho 7423" d="M512.113,649.336c-18.768-10.835-38.135-10.835-56.9,0h0c-9.383,5.417-14.075,10.922-14.075,16.426s4.692,11.008,14.075,16.426c18.768,10.835,38.136,10.835,56.9,0,9.384-5.418,14.075-10.922,14.075-16.426S521.5,654.753,512.113,649.336Z" transform="translate(-428.987 -641.209)" fill="#cbcbcb" opacity="0.485"/>
        <path id="Caminho_7424" data-name="Caminho 7424" d="M510.631,649.336c-18.768-10.835-38.135-10.835-56.9,0h0c-9.383,5.417-14.075,10.922-14.075,16.426s4.692,11.008,14.075,16.426c18.768,10.835,38.136,10.835,56.9,0,9.384-5.418,14.075-10.922,14.075-16.426S520.015,654.753,510.631,649.336Z" transform="translate(-428.22 -641.209)" fill="#c8c8c8" opacity="0.515"/>
        <path id="Caminho_7425" data-name="Caminho 7425" d="M509.149,649.336c-18.768-10.835-38.136-10.835-56.9,0h0c-9.384,5.417-14.075,10.922-14.075,16.426s4.692,11.008,14.075,16.426c18.768,10.835,38.136,10.835,56.9,0,9.384-5.418,14.075-10.922,14.075-16.426S518.533,654.753,509.149,649.336Z" transform="translate(-427.452 -641.209)" fill="#c5c5c5" opacity="0.545"/>
        <path id="Caminho_7426" data-name="Caminho 7426" d="M507.667,649.336c-18.768-10.835-38.136-10.835-56.9,0h0c-9.384,5.417-14.075,10.922-14.075,16.426s4.692,11.008,14.075,16.426c18.768,10.835,38.136,10.835,56.9,0,9.384-5.418,14.075-10.922,14.075-16.426S517.051,654.753,507.667,649.336Z" transform="translate(-426.685 -641.209)" fill="#c1c1c1" opacity="0.576"/>
        <path id="Caminho_7427" data-name="Caminho 7427" d="M506.185,649.336c-18.768-10.835-38.136-10.835-56.9,0h0c-9.384,5.417-14.075,10.922-14.075,16.426s4.692,11.008,14.075,16.426c18.768,10.835,38.136,10.835,56.9,0,9.384-5.418,14.076-10.922,14.076-16.426S515.569,654.753,506.185,649.336Z" transform="translate(-425.917 -641.209)" fill="#bebebe" opacity="0.606"/>
        <path id="Caminho_7428" data-name="Caminho 7428" d="M504.7,649.336c-18.768-10.835-38.136-10.835-56.9,0h0c-9.384,5.417-14.075,10.922-14.075,16.426s4.692,11.008,14.075,16.426c18.768,10.835,38.136,10.835,56.9,0,9.384-5.418,14.076-10.922,14.076-16.426S514.087,654.753,504.7,649.336Z" transform="translate(-425.15 -641.209)" fill="#bbb" opacity="0.636"/>
        <path id="Caminho_7429" data-name="Caminho 7429" d="M503.221,649.336c-18.768-10.835-38.136-10.835-56.9,0h0c-9.383,5.417-14.075,10.922-14.075,16.426s4.692,11.008,14.075,16.426c18.768,10.835,38.136,10.835,56.9,0,9.384-5.418,14.075-10.922,14.075-16.426S512.6,654.753,503.221,649.336Z" transform="translate(-424.383 -641.209)" fill="#b8b8b8" opacity="0.667"/>
        <path id="Caminho_7430" data-name="Caminho 7430" d="M501.739,649.336c-18.768-10.835-38.136-10.835-56.9,0h0c-9.384,5.417-14.075,10.922-14.075,16.426s4.692,11.008,14.075,16.426c18.768,10.835,38.136,10.835,56.9,0,9.384-5.418,14.075-10.922,14.075-16.426S511.123,654.753,501.739,649.336Z" transform="translate(-423.615 -641.209)" fill="#b4b4b4" opacity="0.697"/>
        <path id="Caminho_7431" data-name="Caminho 7431" d="M500.257,649.336c-18.767-10.835-38.135-10.835-56.9,0h0c-9.384,5.417-14.075,10.922-14.075,16.426s4.692,11.008,14.075,16.426c18.767,10.835,38.136,10.835,56.9,0,9.384-5.418,14.075-10.922,14.075-16.426S509.641,654.753,500.257,649.336Z" transform="translate(-422.848 -641.209)" fill="#b1b1b1" opacity="0.727"/>
        <path id="Caminho_7432" data-name="Caminho 7432" d="M498.775,649.336c-18.767-10.835-38.135-10.835-56.9,0h0c-9.384,5.417-14.075,10.922-14.075,16.426s4.692,11.008,14.075,16.426c18.767,10.835,38.136,10.835,56.9,0,9.384-5.418,14.075-10.922,14.075-16.426S508.159,654.753,498.775,649.336Z" transform="translate(-422.08 -641.209)" fill="#aeaeae" opacity="0.758"/>
        <path id="Caminho_7433" data-name="Caminho 7433" d="M497.293,649.336c-18.767-10.835-38.135-10.835-56.9,0h0c-9.384,5.417-14.075,10.922-14.075,16.426s4.692,11.008,14.075,16.426c18.767,10.835,38.136,10.835,56.9,0,9.384-5.418,14.075-10.922,14.075-16.426S506.677,654.753,497.293,649.336Z" transform="translate(-421.313 -641.209)" fill="#ababab" opacity="0.788"/>
        <path id="Caminho_7434" data-name="Caminho 7434" d="M495.81,649.336c-18.768-10.835-38.136-10.835-56.9,0h0c-9.384,5.417-14.075,10.922-14.075,16.426s4.692,11.008,14.075,16.426c18.768,10.835,38.136,10.835,56.9,0,9.383-5.418,14.075-10.922,14.075-16.426S505.194,654.753,495.81,649.336Z" transform="translate(-420.545 -641.209)" fill="#a7a7a7" opacity="0.818"/>
        <path id="Caminho_7435" data-name="Caminho 7435" d="M494.328,649.336c-18.768-10.835-38.136-10.835-56.9,0h0c-9.384,5.417-14.075,10.922-14.075,16.426s4.692,11.008,14.075,16.426c18.768,10.835,38.136,10.835,56.9,0,9.383-5.418,14.075-10.922,14.075-16.426S503.712,654.753,494.328,649.336Z" transform="translate(-419.777 -641.209)" fill="#a4a4a4" opacity="0.848"/>
        <path id="Caminho_7436" data-name="Caminho 7436" d="M492.846,649.336c-18.768-10.835-38.136-10.835-56.9,0h0c-9.384,5.417-14.075,10.922-14.075,16.426s4.692,11.008,14.075,16.426c18.768,10.835,38.136,10.835,56.9,0,9.384-5.418,14.075-10.922,14.075-16.426S502.23,654.753,492.846,649.336Z" transform="translate(-419.01 -641.209)" fill="#a1a1a1" opacity="0.879"/>
        <path id="Caminho_7437" data-name="Caminho 7437" d="M491.364,649.336c-18.768-10.835-38.136-10.835-56.9,0h0c-9.384,5.417-14.075,10.922-14.075,16.426s4.692,11.008,14.075,16.426c18.768,10.835,38.136,10.835,56.9,0,9.384-5.418,14.075-10.922,14.075-16.426S500.748,654.753,491.364,649.336Z" transform="translate(-418.242 -641.209)" fill="#9e9e9e" opacity="0.909"/>
        <path id="Caminho_7438" data-name="Caminho 7438" d="M489.882,649.336c-18.768-10.835-38.136-10.835-56.9,0h0c-9.384,5.417-14.075,10.922-14.075,16.426s4.692,11.008,14.075,16.426c18.768,10.835,38.136,10.835,56.9,0,9.383-5.418,14.075-10.922,14.075-16.426S499.266,654.753,489.882,649.336Z" transform="translate(-417.475 -641.209)" fill="#9a9a9a" opacity="0.939"/>
        <path id="Caminho_7439" data-name="Caminho 7439" d="M488.4,649.336c-18.768-10.835-38.136-10.835-56.9,0h0c-9.384,5.417-14.075,10.922-14.075,16.426s4.692,11.008,14.075,16.426c18.768,10.835,38.136,10.835,56.9,0,9.384-5.418,14.075-10.922,14.075-16.426S497.784,654.753,488.4,649.336Z" transform="translate(-416.707 -641.209)" fill="#979797" opacity="0.97"/>
        <path id="Caminho_7440" data-name="Caminho 7440" d="M486.918,649.336c-18.768-10.835-38.136-10.835-56.9,0h0c-9.383,5.417-14.075,10.922-14.075,16.426s4.692,11.008,14.075,16.426c18.768,10.835,38.136,10.835,56.9,0,9.384-5.418,14.076-10.922,14.076-16.426S496.3,654.753,486.918,649.336Z" transform="translate(-415.94 -641.209)" fill="#949494"/>
      </g>
      <g id="Grupo_9830" data-name="Grupo 9830" transform="translate(0 2.727)">
        <path id="Caminho_7441" data-name="Caminho 7441" d="M495.884,650.41c-21.111-12.234-42.918-12.268-64.067-.1h0c-10.575,6.083-15.868,12.272-15.877,18.469s5.263,12.4,15.818,18.519c21.111,12.233,42.917,12.269,64.067.1,10.575-6.083,15.867-12.272,15.877-18.469S506.439,656.527,495.884,650.41Z" transform="translate(-415.94 -631.981)" fill="#ff9b00"/>
        <path id="Caminho_7442" data-name="Caminho 7442" d="M495.839,693.614c-21.15,12.165-42.956,12.13-64.067-.1-10.555-6.117-15.828-12.323-15.818-18.52l-.015,9.229c-.01,6.2,5.263,12.4,15.818,18.519,21.111,12.233,42.917,12.268,64.067.1,10.575-6.083,15.867-12.272,15.877-18.469l.015-9.229C511.707,681.342,506.414,687.531,495.839,693.614Z" transform="translate(-415.94 -647.424)" fill="url(#linear-gradient)"/>
        <path id="Caminho_7443" data-name="Caminho 7443" d="M495.911,633.41c-21.111-12.233-42.917-12.268-64.067-.1h0c-10.575,6.083-15.867,12.272-15.877,18.469s5.263,12.4,15.818,18.52c21.111,12.233,42.917,12.268,64.067.1,10.575-6.083,15.867-12.272,15.877-18.469S506.466,639.527,495.911,633.41Z" transform="translate(-415.952 -624.209)" fill="#4e374f"/>
      </g>
    </g>
    <g id="Grupo_12665" data-name="Grupo 12665" transform="translate(314.612 225.881)">
      <g id="Grupo_12656" data-name="Grupo 12656" transform="translate(113.352 65.529)">
        <path id="Caminho_10506" data-name="Caminho 10506" d="M113.352,137.243l4.722-2.725h5.453l1.181.682h1.942l3.542,2.044-3.542,2.044h-1.942l-1.18.681h-5.453Z" transform="translate(-113.352 -126.623)" fill="#9b7684" fill-rule="evenodd"/>
        <path id="Caminho_10507" data-name="Caminho 10507" d="M113.351,127.577l4.721,2.726v5.452l-4.721-2.727Z" transform="translate(-113.351 -122.41)" fill="#e59259" fill-rule="evenodd"/>
        <path id="Caminho_10508" data-name="Caminho 10508" d="M113.352,123.367l4.722-2.725,4.722,2.725-4.722,2.726Z" transform="translate(-113.352 -118.2)" fill="#f7ac67" fill-rule="evenodd"/>
        <path id="Caminho_10509" data-name="Caminho 10509" d="M125.72,120.845l4.583,2.645-1.684,1.953-1.719.011h-1.18Z" transform="translate(-120.86 -118.324)" fill-rule="evenodd" fill="url(#linear-gradient-2)"/>
        <g id="Grupo_12655" data-name="Grupo 12655" transform="translate(1.18)">
          <path id="Caminho_10510" data-name="Caminho 10510" d="M116.355,116.474l3.542-2.044,3.542,2.044-3.542,2.044Z" transform="translate(-116.355 -114.43)" fill="#ecdf53" fill-rule="evenodd"/>
          <path id="Caminho_10511" data-name="Caminho 10511" d="M116.355,119.632v3.122L119.9,124.8v-3.122Z" transform="translate(-116.355 -117.588)" fill="#dfd954" fill-rule="evenodd"/>
          <path id="Caminho_10512" data-name="Caminho 10512" d="M128.909,119.632v3.122l-3.542,2.044v-3.122Z" transform="translate(-121.826 -117.588)" fill-rule="evenodd" fill="url(#linear-gradient-3)"/>
        </g>
        <path id="Caminho_10513" data-name="Caminho 10513" d="M130.089,127.577l-4.721,2.726v5.452l4.721-2.727Z" transform="translate(-120.645 -122.41)" fill-rule="evenodd" fill="url(#linear-gradient-4)"/>
      </g>
      <path id="Caminho_10518" data-name="Caminho 10518" d="M196.452,129.392l-26.241,15.151h-1.354l-30.274-18.261,26.241-15.15Z" transform="translate(-15.316 -46.898)" fill="#9b7684" fill-rule="evenodd"/>
      <path id="Caminho_10519" data-name="Caminho 10519" d="M193.007,125.947,166.766,141.1l-31.628-18.261,26.242-15.15Z" transform="translate(-13.225 -44.807)" fill="#e7b0a5" fill-rule="evenodd"/>
      <path id="Caminho_10520" data-name="Caminho 10520" d="M241.861,130.751l-22.218,13.32-2.331.854H215.62V115.6Z" transform="translate(-62.078 -49.611)" fill-rule="evenodd" fill="url(#linear-gradient-5)"/>
      <path id="Caminho_10521" data-name="Caminho 10521" d="M193.929,51.154,169.38,65.328,139.444,48.044l24.549-14.173Z" transform="translate(-15.838 0)" fill="#e85945" fill-rule="evenodd"/>
      <path id="Caminho_10522" data-name="Caminho 10522" d="M175.829,81.988l-2.34,2-4.109,1.719h0l-11.615-6.706L139.444,68.428l1.692-.977h9.514Z" transform="translate(-15.838 -20.384)" fill-rule="evenodd" fill="url(#linear-gradient-6)"/>
      <path id="Caminho_10523" data-name="Caminho 10523" d="M138.137,96.476l-.846-.488.846-.488Z" transform="translate(-14.532 -37.41)" fill="#e7b0a5" fill-rule="evenodd"/>
      <path id="Caminho_10524" data-name="Caminho 10524" d="M138.137,78.675l-.846-.488.846-.488Z" transform="translate(-14.532 -26.604)" fill="#faf3e3" fill-rule="evenodd"/>
      <path id="Caminho_10525" data-name="Caminho 10525" d="M137.291,78.941l.846.488v7l-.846-.488Z" transform="translate(-14.532 -27.358)" fill="#f2e4ce" fill-rule="evenodd"/>
      <g id="Grupo_12660" data-name="Grupo 12660" transform="translate(126.99 35.825)">
        <path id="Caminho_10526" data-name="Caminho 10526" d="M195.772,54.172l-26.552-15.33-21.165,12.22,30.211,13.217Z" transform="translate(-148.056 -38.843)" fill="#e33f39" fill-rule="evenodd"/>
        <path id="Caminho_10527" data-name="Caminho 10527" d="M170.721,42.709l-1.5-3.866-21.165,12.22,2.6,1.5Z" transform="translate(-148.056 -38.843)" fill-rule="evenodd" fill="url(#linear-gradient-7)"/>
        <path id="Caminho_10528" data-name="Caminho 10528" d="M154.667,57.2l1.5.866,18.567-10.72-1.5-.866Z" transform="translate(-152.069 -43.476)" fill="#832224" fill-rule="evenodd"/>
        <path id="Caminho_10529" data-name="Caminho 10529" d="M158.483,59.4,184.6,70.251,199.5,61.643,177.05,48.68Z" transform="translate(-154.386 -44.814)" fill="#e85945" fill-rule="evenodd"/>
      </g>
      <g id="Grupo_12661" data-name="Grupo 12661" transform="translate(130.493 50.067)">
        <path id="Caminho_10530" data-name="Caminho 10530" d="M156.971,75.084l23.048,13.307,3.659-2.113L164.289,75.084Z" transform="translate(-156.971 -75.084)" fill-rule="evenodd" fill="url(#linear-gradient-8)"/>
        <path id="Caminho_10531" data-name="Caminho 10531" d="M156.971,75.084l.594.343.594-.343Z" transform="translate(-156.971 -75.084)" fill-rule="evenodd" fill="url(#linear-gradient-9)"/>
      </g>
      <path id="Caminho_10532" data-name="Caminho 10532" d="M169.38,61.5,139.444,44.218l1.692-.977,29.936,17.283Z" transform="translate(-15.838 -5.688)" fill="#e85945" fill-rule="evenodd"/>
      <path id="Caminho_10533" data-name="Caminho 10533" d="M139.444,45.727,169.38,63.011v39.5L139.444,85.227Z" transform="translate(-15.838 -7.197)" fill="#e33f39" fill-rule="evenodd"/>
      <path id="Caminho_10534" data-name="Caminho 10534" d="M235.831,77.851,211.282,92.024v5.837l-2.808,8.674,2.808,8.707v6.767l16.473-9.511v-.54l4.461-2.576.468.27,3.147-1.817Z" transform="translate(-57.741 -26.697)" fill="#832224" fill-rule="evenodd"/>
      <g id="Grupo_12662" data-name="Grupo 12662" transform="translate(167.98 66.985)">
        <path id="Caminho_10535" data-name="Caminho 10535" d="M252.36,138.127l2.034-1.174v-.541l4.33-3.665.6,1.36,1.789-1.033c0-5.925-.007-11.3.007-12.919s-.589-2.395-1.6-1.842-4.467,2.312-5.269,2.717a3.34,3.34,0,0,0-1.888,3.247Z" transform="translate(-252.36 -118.135)" fill="#832224" fill-rule="evenodd"/>
        <path id="Caminho_10536" data-name="Caminho 10536" d="M252.489,138.158l2-1.156v-.541l4.311-3.646.6,1.351,1.753-1.013c0-5.925-.007-11.286.007-12.908s-.553-2.386-1.566-1.833-4.457,2.316-5.259,2.722a3.26,3.26,0,0,0-1.849,3.183Z" transform="translate(-252.438 -118.195)" fill="#832224" fill-rule="evenodd"/>
        <path id="Caminho_10537" data-name="Caminho 10537" d="M252.618,138.189l1.97-1.137v-.54l4.292-3.627.6,1.343,1.718-.992c0-5.925-.007-11.276.007-12.9s-.516-2.376-1.529-1.824-4.447,2.321-5.249,2.727a3.182,3.182,0,0,0-1.809,3.12Z" transform="translate(-252.517 -118.256)" fill="#822223" fill-rule="evenodd"/>
        <path id="Caminho_10538" data-name="Caminho 10538" d="M252.747,138.221l1.937-1.118v-.54l4.272-3.608.6,1.334,1.683-.972c0-5.925-.007-11.265.007-12.887s-.48-2.367-1.493-1.814-4.438,2.326-5.239,2.731a3.1,3.1,0,0,0-1.769,3.056Z" transform="translate(-252.595 -118.316)" fill="#822223" fill-rule="evenodd"/>
        <path id="Caminho_10539" data-name="Caminho 10539" d="M252.875,138.252l1.905-1.1v-.541l4.254-3.588.6,1.326,1.647-.951c0-5.925-.007-11.254.007-12.877s-.444-2.358-1.457-1.8-4.428,2.33-5.229,2.735a3.026,3.026,0,0,0-1.729,2.993Z" transform="translate(-252.673 -118.377)" fill="#812123" fill-rule="evenodd"/>
        <path id="Caminho_10540" data-name="Caminho 10540" d="M253,138.283l1.873-1.081v-.54l4.235-3.57.6,1.317,1.612-.931c0-5.925-.007-11.244.007-12.866s-.408-2.348-1.421-1.8-4.418,2.335-5.219,2.74a2.947,2.947,0,0,0-1.69,2.929Z" transform="translate(-252.751 -118.437)" fill="#812123" fill-rule="evenodd"/>
        <path id="Caminho_10541" data-name="Caminho 10541" d="M253.133,138.314l1.841-1.063v-.54l4.216-3.55.6,1.308,1.577-.911c0-5.925-.008-11.233.007-12.855s-.371-2.339-1.384-1.787-4.408,2.339-5.209,2.745a2.869,2.869,0,0,0-1.65,2.866Z" transform="translate(-252.829 -118.498)" fill="#802123" fill-rule="evenodd"/>
        <path id="Caminho_10542" data-name="Caminho 10542" d="M253.262,138.346l1.808-1.044v-.54l4.2-3.531.6,1.3,1.541-.89c0-5.925-.007-11.222.007-12.845s-.335-2.33-1.348-1.777-4.4,2.344-5.2,2.749a2.791,2.791,0,0,0-1.61,2.8Z" transform="translate(-252.908 -118.558)" fill="#802122" fill-rule="evenodd"/>
        <path id="Caminho_10543" data-name="Caminho 10543" d="M253.391,138.377l1.776-1.025v-.54l4.178-3.512.6,1.291,1.506-.87c0-5.925-.007-11.212.007-12.834s-.3-2.321-1.311-1.768-4.388,2.348-5.189,2.754a2.713,2.713,0,0,0-1.57,2.739Z" transform="translate(-252.986 -118.619)" fill="#7f2122" fill-rule="evenodd"/>
        <path id="Caminho_10544" data-name="Caminho 10544" d="M253.52,138.408l1.744-1.007v-.54l4.159-3.493.606,1.283,1.47-.849c0-5.925-.007-11.2.007-12.823s-.262-2.312-1.275-1.759-4.378,2.353-5.18,2.758a2.635,2.635,0,0,0-1.53,2.675Z" transform="translate(-253.064 -118.679)" fill="#7f2122" fill-rule="evenodd"/>
        <path id="Caminho_10545" data-name="Caminho 10545" d="M253.649,138.439l1.711-.988v-.54l4.14-3.474.606,1.274,1.435-.829c0-5.924-.007-11.191.007-12.813s-.225-2.3-1.238-1.75-4.368,2.358-5.17,2.763a2.558,2.558,0,0,0-1.491,2.612Z" transform="translate(-253.142 -118.739)" fill="#7e2022" fill-rule="evenodd"/>
        <path id="Caminho_10546" data-name="Caminho 10546" d="M253.777,138.47l1.679-.969v-.54l4.121-3.454.607,1.265,1.4-.808c0-5.924-.008-11.18.007-12.8s-.189-2.293-1.2-1.74-4.358,2.362-5.16,2.767a2.479,2.479,0,0,0-1.451,2.548Z" transform="translate(-253.22 -118.799)" fill="#7e2022" fill-rule="evenodd"/>
        <path id="Caminho_10547" data-name="Caminho 10547" d="M253.906,138.5l1.647-.951v-.54l4.1-3.435.608,1.257,1.364-.788c0-5.924-.007-11.169.007-12.792s-.152-2.284-1.166-1.731-4.348,2.367-5.15,2.772a2.4,2.4,0,0,0-1.412,2.484Z" transform="translate(-253.298 -118.86)" fill="#7d2021" fill-rule="evenodd"/>
        <path id="Caminho_10548" data-name="Caminho 10548" d="M254.035,138.532l1.614-.932v-.54l4.083-3.416.608,1.248,1.329-.767c0-5.924-.007-11.159.007-12.781s-.116-2.274-1.129-1.722-4.338,2.371-5.14,2.776a2.324,2.324,0,0,0-1.371,2.421Z" transform="translate(-253.377 -118.92)" fill="#7d2021" fill-rule="evenodd"/>
        <path id="Caminho_10549" data-name="Caminho 10549" d="M254.164,138.563l1.582-.914v-.54l4.064-3.4.609,1.24,1.293-.746c0-5.925-.007-11.149.007-12.771s-.079-2.265-1.093-1.712S256.3,122.1,255.5,122.5a2.247,2.247,0,0,0-1.332,2.357Z" transform="translate(-253.455 -118.98)" fill="#7c2021" fill-rule="evenodd"/>
        <path id="Caminho_10550" data-name="Caminho 10550" d="M254.293,138.594l1.55-.895v-.54l4.045-3.378.609,1.231,1.258-.726c0-5.925-.007-11.138.007-12.76s-.043-2.256-1.056-1.7-4.318,2.38-5.12,2.785a2.17,2.17,0,0,0-1.292,2.294Z" transform="translate(-253.533 -119.041)" fill="#7c2021" fill-rule="evenodd"/>
        <path id="Caminho_10551" data-name="Caminho 10551" d="M254.422,138.625l1.517-.876v-.54l4.026-3.358.61,1.222,1.222-.706c0-5.924-.007-11.127.007-12.749s-.007-2.247-1.02-1.694-4.308,2.385-5.11,2.79a2.092,2.092,0,0,0-1.252,2.231Z" transform="translate(-253.612 -119.101)" fill="#7b1f21" fill-rule="evenodd"/>
        <path id="Caminho_10552" data-name="Caminho 10552" d="M254.551,138.656l1.485-.858v-.54l4.007-3.34.611,1.214,1.187-.685c0-5.925-.007-11.117.007-12.739s.029-2.237-.984-1.685-4.3,2.389-5.1,2.795a2.015,2.015,0,0,0-1.212,2.167Z" transform="translate(-253.69 -119.161)" fill="#7b1f21" fill-rule="evenodd"/>
        <path id="Caminho_10553" data-name="Caminho 10553" d="M254.679,138.687l1.453-.839v-.54l3.988-3.32.611,1.205,1.151-.665c0-5.925-.007-11.106.007-12.728s.066-2.228-.947-1.675-4.289,2.394-5.09,2.8a1.939,1.939,0,0,0-1.173,2.1Z" transform="translate(-253.768 -119.221)" fill="#7a1f20" fill-rule="evenodd"/>
        <path id="Caminho_10554" data-name="Caminho 10554" d="M254.808,138.718l1.421-.82v-.54l3.969-3.3.612,1.2,1.116-.644c0-5.925-.007-11.1.007-12.718s.1-2.219-.911-1.666-4.279,2.4-5.08,2.8a1.862,1.862,0,0,0-1.133,2.04Z" transform="translate(-253.846 -119.281)" fill="#7a1f20" fill-rule="evenodd"/>
        <path id="Caminho_10555" data-name="Caminho 10555" d="M254.937,138.749l1.388-.8v-.54l3.95-3.282.612,1.188,1.081-.624c0-5.925-.007-11.085.007-12.707s.138-2.209-.875-1.657-4.269,2.4-5.07,2.808-1.093.818-1.093,1.977Z" transform="translate(-253.924 -119.342)" fill="#791f20" fill-rule="evenodd"/>
        <path id="Caminho_10556" data-name="Caminho 10556" d="M255.066,138.78l1.356-.783v-.54l3.931-3.263.613,1.179,1.045-.6c0-5.925-.007-11.074.007-12.7s.175-2.2-.838-1.647-4.259,2.407-5.06,2.813-1.054.8-1.054,1.913Z" transform="translate(-254.003 -119.402)" fill="#791f20" fill-rule="evenodd"/>
        <path id="Caminho_10557" data-name="Caminho 10557" d="M255.13,138.806l1.34-.773v-.54l3.923-3.274.612,1.2,1.027-.593c0-5.925-.007-11.062.007-12.684s.193-2.2-.82-1.643-4.254,2.41-5.055,2.815-1.034.785-1.034,1.881Z" transform="translate(-254.041 -119.442)" fill="#771f20" fill-rule="evenodd"/>
        <path id="Caminho_10558" data-name="Caminho 10558" d="M255.195,138.832l1.324-.764v-.54l3.915-3.285.611,1.212,1.01-.583c0-5.925-.007-11.05.007-12.672s.211-2.191-.8-1.639-4.249,2.413-5.05,2.818-1.014.774-1.014,1.849Z" transform="translate(-254.081 -119.483)" fill="#761e1f" fill-rule="evenodd"/>
        <path id="Caminho_10559" data-name="Caminho 10559" d="M255.259,138.858l1.308-.755v-.54l3.907-3.3.61,1.228.992-.573c0-5.925-.007-11.037.007-12.66s.23-2.187-.783-1.634-4.244,2.414-5.046,2.82-.994.763-.994,1.818Z" transform="translate(-254.12 -119.524)" fill="#741e1f" fill-rule="evenodd"/>
        <path id="Caminho_10560" data-name="Caminho 10560" d="M255.324,138.884l1.291-.746v-.54l3.9-3.307.608,1.245.974-.562c0-5.925-.007-11.025.007-12.647s.248-2.182-.765-1.629-4.239,2.417-5.04,2.822-.974.752-.974,1.786Z" transform="translate(-254.159 -119.564)" fill="#731e1f" fill-rule="evenodd"/>
        <path id="Caminho_10561" data-name="Caminho 10561" d="M255.388,138.91l1.275-.736v-.54l3.891-3.318.607,1.261.957-.552c0-5.925-.008-11.013.007-12.635s.266-2.177-.747-1.625-4.234,2.419-5.036,2.824-.954.741-.954,1.754Z" transform="translate(-254.198 -119.605)" fill="#721e1f" fill-rule="evenodd"/>
        <path id="Caminho_10562" data-name="Caminho 10562" d="M255.452,138.937l1.26-.727v-.54l3.883-3.329.606,1.278.939-.542c0-5.925-.007-11,.007-12.623s.284-2.172-.729-1.62-4.229,2.421-5.031,2.827-.935.73-.935,1.722Z" transform="translate(-254.237 -119.646)" fill="#701e1f" fill-rule="evenodd"/>
        <path id="Caminho_10563" data-name="Caminho 10563" d="M255.517,138.962l1.243-.718v-.54l3.875-3.34.6,1.294.921-.532c0-5.925-.007-10.989.007-12.611s.3-2.168-.711-1.615-4.224,2.424-5.025,2.829-.914.719-.914,1.691Z" transform="translate(-254.276 -119.687)" fill="#6f1e1f" fill-rule="evenodd"/>
        <path id="Caminho_10564" data-name="Caminho 10564" d="M255.581,138.988l1.227-.708v-.541l3.867-3.351.6,1.31.9-.521c0-5.925-.007-10.976.007-12.6s.321-2.163-.692-1.61-4.22,2.426-5.021,2.831-.895.708-.895,1.659Z" transform="translate(-254.315 -119.727)" fill="#6d1e1e" fill-rule="evenodd"/>
        <path id="Caminho_10565" data-name="Caminho 10565" d="M255.646,139.015l1.211-.7v-.54l3.859-3.362.6,1.327.885-.511c0-5.925-.007-10.964.007-12.587s.339-2.159-.674-1.606-4.214,2.428-5.016,2.833-.875.7-.875,1.627Z" transform="translate(-254.355 -119.768)" fill="#6c1e1e" fill-rule="evenodd"/>
        <path id="Caminho_10566" data-name="Caminho 10566" d="M255.71,139.041l1.195-.69v-.54l3.852-3.373.6,1.343.868-.5c0-5.925-.007-10.952.007-12.574s.357-2.154-.656-1.6-4.209,2.43-5.011,2.836-.855.686-.855,1.6Z" transform="translate(-254.393 -119.809)" fill="#6b1e1e" fill-rule="evenodd"/>
        <path id="Caminho_10567" data-name="Caminho 10567" d="M255.774,139.067l1.179-.681v-.54l3.844-3.384.6,1.36.85-.491c0-5.924-.007-10.94.007-12.562s.375-2.15-.638-1.6-4.2,2.433-5.006,2.838-.835.675-.835,1.564Z" transform="translate(-254.432 -119.849)" fill="#691e1e" fill-rule="evenodd"/>
        <path id="Caminho_10568" data-name="Caminho 10568" d="M255.839,139.093l1.162-.671v-.54l3.835-3.4.6,1.376.832-.481c0-5.924-.007-10.927.007-12.55s.394-2.145-.619-1.592-4.2,2.435-5,2.84-.815.664-.815,1.532Z" transform="translate(-254.472 -119.89)" fill="#681e1e" fill-rule="evenodd"/>
        <path id="Caminho_10569" data-name="Caminho 10569" d="M255.9,139.119l1.146-.662v-.54l3.828-3.406.6,1.392.815-.471c0-5.924-.007-10.915.007-12.537s.412-2.14-.6-1.588-4.195,2.437-5,2.843-.8.653-.8,1.5Z" transform="translate(-254.511 -119.931)" fill="#661e1d" fill-rule="evenodd"/>
        <path id="Caminho_10570" data-name="Caminho 10570" d="M255.968,139.145l1.13-.652v-.54l3.82-3.418.6,1.409.8-.461c0-5.924-.007-10.9.007-12.525s.43-2.135-.583-1.583-4.19,2.44-4.991,2.845-.775.642-.775,1.469Z" transform="translate(-254.55 -119.971)" fill="#651d1d" fill-rule="evenodd"/>
        <path id="Caminho_10571" data-name="Caminho 10571" d="M256.031,139.171l1.114-.643v-.541l3.812-3.428.6,1.425.779-.45c0-5.924-.007-10.891.007-12.513s.448-2.131-.565-1.578-4.185,2.442-4.986,2.847-.756.631-.756,1.437Z" transform="translate(-254.588 -120.012)" fill="#641d1d" fill-rule="evenodd"/>
        <path id="Caminho_10572" data-name="Caminho 10572" d="M256.094,139.2l1.1-.634v-.54l3.8-3.44.594,1.441.762-.44c0-5.924-.007-10.879.007-12.5s.466-2.126-.547-1.574-4.18,2.444-4.981,2.85-.736.62-.736,1.4Z" transform="translate(-254.626 -120.053)" fill="#621d1d" fill-rule="evenodd"/>
        <path id="Caminho_10573" data-name="Caminho 10573" d="M256.157,139.223l1.082-.624v-.54l3.8-3.451.593,1.458.744-.43c0-5.925-.007-10.867.007-12.489s.485-2.121-.529-1.569-4.175,2.446-4.976,2.852-.716.609-.716,1.373Z" transform="translate(-254.663 -120.093)" fill="#611d1d" fill-rule="evenodd"/>
        <path id="Caminho_10574" data-name="Caminho 10574" d="M256.218,139.249l1.066-.615v-.54l3.788-3.462.591,1.474.726-.419c0-5.925-.007-10.855.007-12.476s.5-2.117-.51-1.564-4.17,2.449-4.971,2.854-.7.6-.7,1.342Z" transform="translate(-254.699 -120.134)" fill="#601d1c" fill-rule="evenodd"/>
        <path id="Caminho_10575" data-name="Caminho 10575" d="M256.279,139.275l1.049-.606v-.54l3.78-3.473.59,1.49.708-.409c0-5.925-.007-10.842.007-12.464s.521-2.112-.492-1.56-4.165,2.451-4.966,2.856-.676.587-.676,1.309Z" transform="translate(-254.735 -120.175)" fill="#5e1d1c" fill-rule="evenodd"/>
        <path id="Caminho_10576" data-name="Caminho 10576" d="M256.338,139.3l1.033-.6v-.54l3.772-3.484.589,1.507.69-.4c0-5.925-.007-10.83.007-12.452s.54-2.108-.474-1.555-4.16,2.453-4.961,2.858-.656.576-.656,1.278Z" transform="translate(-254.769 -120.215)" fill="#5d1d1c" fill-rule="evenodd"/>
        <path id="Caminho_10577" data-name="Caminho 10577" d="M256.4,139.327l1.017-.587v-.54l3.764-3.5.588,1.523.673-.389c0-5.925-.007-10.818.007-12.44s.558-2.1-.455-1.55-4.155,2.455-4.956,2.861-.637.565-.637,1.246Z" transform="translate(-254.802 -120.256)" fill="#5c1c1c" fill-rule="evenodd"/>
      </g>
      <path id="Caminho_10578" data-name="Caminho 10578" d="M142.522,120.715,168.9,135.943v-.619l-1.3-3.35-.208-.116v0l.007,0v-2.65l1.98,1.143V112.969l-29.936-10.23,5.164,13.31,22.155,12.791.022,1.025h-1.3v.931l-24.265-13.43Z" transform="translate(-15.838 -41.804)" fill-rule="evenodd" fill="url(#linear-gradient-10)"/>
      <path id="Caminho_10579" data-name="Caminho 10579" d="M140.662,140.293v.619l26.379,15.227v-.619l-20.786-12.508Z" transform="translate(-16.578 -64.6)" fill="#f2e4ce" fill-rule="evenodd"/>
      <path id="Caminho_10580" data-name="Caminho 10580" d="M141.962,138.383l-1.3.751,5.065,2.923,21.314,12.3,1.3-.75Z" transform="translate(-16.578 -63.44)" fill="#faf3e3" fill-rule="evenodd"/>
      <path id="Caminho_10581" data-name="Caminho 10581" d="M209.244,176.063l-.867-.5v.5Z" transform="translate(-57.682 -86.009)" fill="#ae8c8c" fill-rule="evenodd"/>
      <path id="Caminho_10582" data-name="Caminho 10582" d="M209.087,177.75l-1.3.75v-.619l1.3-.75Z" transform="translate(-57.324 -86.961)" fill-rule="evenodd" fill="url(#linear-gradient-11)"/>
      <path id="Caminho_10583" data-name="Caminho 10583" d="M169.987,140.419v13.892l-21.982-12.267-1.671-1.388Z" transform="translate(-20.021 -64.677)" fill="#faf3e3" fill-rule="evenodd"/>
      <path id="Caminho_10584" data-name="Caminho 10584" d="M146.335,105.671l.867.5,3.319,4.891v7.86l-2.452.641h-1.733V105.671Z" transform="translate(-20.021 -43.584)" fill="#ae8c8c" fill-rule="evenodd"/>
      <path id="Caminho_10585" data-name="Caminho 10585" d="M150.52,119.389v7.86l-2.452.641h-1.733l.867-.5Z" transform="translate(-20.021 -51.911)" fill="#ae8c8c" fill-rule="evenodd"/>
      <path id="Caminho_10586" data-name="Caminho 10586" d="M171.326,132.991,148.54,119.835V106.944L171.326,120.1Z" transform="translate(-21.36 -44.356)" fill="#707d8b" fill-rule="evenodd"/>
      <path id="Caminho_10587" data-name="Caminho 10587" d="M172.664,146.006l-21.919-12.655v-4.966l1.59,4.1,20.329,11.737Z" transform="translate(-22.699 -57.372)" fill="#bed5b4" fill-rule="evenodd"/>
      <path id="Caminho_10588" data-name="Caminho 10588" d="M144.478,116.636V101.543l3.648,1.856,21.464,12.642v15.091l-.73-.421V116.823l-23.652-13.656v13.89Z" transform="translate(-18.894 -41.078)" fill="#f2e4ce" fill-rule="evenodd"/>
      <path id="Caminho_10589" data-name="Caminho 10589" d="M144.478,109.367v-6.36l3.446,1.178.2.1L169.59,116.93V128.5l-.73-.421v-10.37l-23.652-13.656v7.191Z" transform="translate(-18.894 -41.967)" fill="#b7979a" fill-rule="evenodd"/>
      <path id="Caminho_10590" data-name="Caminho 10590" d="M208.811,152.885l-.433.25V138.042l.433-.25Z" transform="translate(-57.682 -63.082)" fill-rule="evenodd" fill="url(#linear-gradient-12)"/>
      <path id="Caminho_10591" data-name="Caminho 10591" d="M144.912,100.906l-.433.25,3.453,1.993,21.659,12.5.433-.25Z" transform="translate(-18.894 -40.692)" fill="#faf3e3" fill-rule="evenodd"/>
      <path id="Caminho_10592" data-name="Caminho 10592" d="M135.138,146.239,166.766,164.5v1.354l-31.628-18.261Z" transform="translate(-13.225 -68.209)" fill="#de9788" fill-rule="evenodd"/>
      <path id="Caminho_10593" data-name="Caminho 10593" d="M241.861,154.152,215.62,169.3v1.354l26.242-15.151Z" transform="translate(-62.078 -73.013)" fill-rule="evenodd" fill="url(#linear-gradient-13)"/>
      <path id="Caminho_10594" data-name="Caminho 10594" d="M207.643,128.771l-5.164,8.3v1.738l5.164-2.981Z" transform="translate(-54.102 -57.606)" fill-rule="evenodd" fill="url(#linear-gradient-14)"/>
      <path id="Caminho_10595" data-name="Caminho 10595" d="M131.467,84.791,161.4,102.074l-5.164,8.3L135.609,99.85,126.3,93.087Z" transform="translate(-7.862 -30.909)" fill="#ea6344" fill-rule="evenodd"/>
      <path id="Caminho_10596" data-name="Caminho 10596" d="M139.035,84.791l29.936,17.283-.56.9L138.771,85.861Z" transform="translate(-15.43 -30.909)" fill-rule="evenodd" fill="url(#linear-gradient-15)"/>
      <path id="Caminho_10597" data-name="Caminho 10597" d="M126.3,107.641l29.936,17.283v-1.738L126.3,105.9Z" transform="translate(-7.862 -43.725)" fill="#e75337" fill-rule="evenodd"/>
      <path id="Caminho_10598" data-name="Caminho 10598" d="M215.62,88.2v15.351l1.692-.977V87.221Z" transform="translate(-62.078 -32.384)" fill="#832224" fill-rule="evenodd"/>
      <path id="Caminho_10599" data-name="Caminho 10599" d="M137.186,99.371l1.8,2.517,2.481-.048,5.164-8.3-4.276-2.469Z" transform="translate(-14.468 -34.723)" fill="#faf3e3" fill-rule="evenodd"/>
      <path id="Caminho_10600" data-name="Caminho 10600" d="M153.179,94.443l.56-.9-2.706-1.562-1.57-.907-.56.9Z" transform="translate(-21.58 -34.723)" fill="#ae8c8c" fill-rule="evenodd"/>
      <path id="Caminho_10601" data-name="Caminho 10601" d="M158.95,111.936l1.927,2.338,2.349.131,5.164-8.3-4.277-2.469Z" transform="translate(-27.679 -42.351)" fill="#faf3e3" fill-rule="evenodd"/>
      <path id="Caminho_10602" data-name="Caminho 10602" d="M180.715,124.5l1.783,1.733,2.493.736,5.164-8.3-4.276-2.469Z" transform="translate(-40.891 -49.978)" fill="#faf3e3" fill-rule="evenodd"/>
      <path id="Caminho_10603" data-name="Caminho 10603" d="M174.943,107.008l.56-.9-2.706-1.562-1.57-.907-.56.9Z" transform="translate(-34.791 -42.351)" fill="#ae8c8c" fill-rule="evenodd"/>
      <path id="Caminho_10604" data-name="Caminho 10604" d="M154.292,122.062l4.276,2.469v1.738l-4.276-2.469v-1.738Zm-17.106-9.876,4.276,2.469v1.738l-4.276-2.469v-1.738Zm8.553,4.938,4.276,2.469v1.737l-4.276-2.469Z" transform="translate(-14.468 -47.539)" fill="#f2e4ce" fill-rule="evenodd"/>
      <path id="Caminho_10605" data-name="Caminho 10605" d="M196.707,119.573l.56-.9-2.706-1.562-1.57-.907-.56.9Z" transform="translate(-48.002 -49.978)" fill="#ae8c8c" fill-rule="evenodd"/>
      <path id="Caminho_10606" data-name="Caminho 10606" d="M137.291,80.672l29.936,17.283.846-.488L138.137,80.184Z" transform="translate(-14.532 -28.113)" fill="#e85945" fill-rule="evenodd"/>
      <path id="Caminho_10607" data-name="Caminho 10607" d="M137.291,83.237l29.936,17.284V98.71L137.291,81.427Z" transform="translate(-14.532 -28.867)" fill="#e33f39" fill-rule="evenodd"/>
      <path id="Caminho_10608" data-name="Caminho 10608" d="M214.313,125.975l-.846.488v-1.81l.846-.488Z" transform="translate(-60.772 -54.81)" fill="#832224" fill-rule="evenodd"/>
      <path id="Caminho_10609" data-name="Caminho 10609" d="M241.861,86.588l-7.725,8.767-17.671,5.895-.846-.488,24.549-14.174v-.977Z" transform="translate(-62.078 -31.407)" fill-rule="evenodd" fill="url(#linear-gradient-16)"/>
      <path id="Caminho_10610" data-name="Caminho 10610" d="M243.168,88.1l-25.4,14.662v6.1l25.4-14.662Z" transform="translate(-63.385 -32.917)" fill-rule="evenodd" fill="url(#linear-gradient-17)"/>
      <path id="Caminho_10611" data-name="Caminho 10611" d="M217.312,124.164l-.846.488-.255.188-.591-.677Z" transform="translate(-62.079 -54.81)" fill="#faf3e3" fill-rule="evenodd"/>
      <path id="Caminho_10612" data-name="Caminho 10612" d="M215.62,124.164l.846.488v6.1l-.846-.488Z" transform="translate(-62.078 -54.81)" fill="#f2e4ce" fill-rule="evenodd"/>
      <path id="Caminho_10613" data-name="Caminho 10613" d="M216.466,129.026v1.727l-.846-.488v-6.1h0l.846,2.18v1.811l-.273-.158Z" transform="translate(-62.078 -54.81)" fill-rule="evenodd" fill="url(#linear-gradient-18)"/>
      <path id="Caminho_10614" data-name="Caminho 10614" d="M197.257,57.771,201,62.062h3.692l5.954-3.438-7.431-4.29Z" transform="translate(-50.932 -12.421)" fill="#832224" fill-rule="evenodd"/>
      <path id="Caminho_10615" data-name="Caminho 10615" d="M187.863,48.377l7.431,7.982,5.954-7.13-7.431-4.29Z" transform="translate(-45.229 -6.719)" fill="#faf3e3" fill-rule="evenodd"/>
      <path id="Caminho_10616" data-name="Caminho 10616" d="M187.863,53.687l7.431,4.29v3.692l-7.431-4.29Z" transform="translate(-45.229 -12.029)" fill="#f2e4ce" fill-rule="evenodd"/>
      <path id="Caminho_10617" data-name="Caminho 10617" d="M212.726,55.856l-5.954,3.438v3.692l5.954-3.438Z" transform="translate(-56.708 -13.346)" fill-rule="evenodd" fill="url(#linear-gradient-19)"/>
      <path id="Caminho_10618" data-name="Caminho 10618" d="M200.87,50.126l.368.368.368.368v.85l-.368.368-.368.368-.638.213-.638.213h-1.473l-.638-.213-.638-.213-.368-.368-.368-.368v-.85l.368-.368.368-.368.638-.213.638-.213h1.473l.638.213.638.213Zm-1.358.784-.207-.069-.208-.069h-.479l-.208.069-.207.069-.12.12-.12.12v.277l.12.12.12.119.207.069.208.07h.479l.208-.069.207-.07.12-.119.12-.12v-.277l-.12-.12Z" transform="translate(-50.235 -9.609)" fill="#ae8a94" fill-rule="evenodd"/>
      <path id="Caminho_10619" data-name="Caminho 10619" d="M261.445,122.734,261.7,135.8l-.252.823-.936.54-3.883,2.242V125.517Z" transform="translate(-86.97 -53.942)" fill-rule="evenodd" fill="url(#linear-gradient-20)"/>
      <path id="Caminho_10620" data-name="Caminho 10620" d="M255.975,129.439l.468.271v14.729l-.468-.271Z" transform="translate(-86.575 -58.011)" fill-rule="evenodd" fill="url(#linear-gradient-21)"/>
      <path id="Caminho_10621" data-name="Caminho 10621" d="M268.889,124.109h.936l.256,6.744L269.825,138l-.936-.541V124.109Z" transform="translate(-94.414 -54.776)" fill-rule="evenodd" fill="url(#linear-gradient-22)"/>
      <path id="Caminho_10622" data-name="Caminho 10622" d="M263.432,120.92l-3.845,1.975-.717.487-1.7,1.157v14.729l.724-.418V124.956l4.819-2.782v13.894l.724-.418Z" transform="translate(-87.297 -52.84)" fill="#b7979a" fill-rule="evenodd"/>
      <path id="Caminho_10623" data-name="Caminho 10623" d="M262.552,148.7v3.189l-3.545,2.047v-1.188l1.828-2.206h.354v-1.055Z" transform="translate(-88.415 -69.706)" fill-rule="evenodd" fill="url(#linear-gradient-23)"/>
      <path id="Caminho_10624" data-name="Caminho 10624" d="M262.318,149.048v2.919l-3.311,1.912V150.96Z" transform="translate(-88.415 -69.914)" fill-rule="evenodd" fill="url(#linear-gradient-24)"/>
      <path id="Caminho_10625" data-name="Caminho 10625" d="M262.552,127.341v6.881l-.6.345-2.948,1.7v-6.881l2.182-1.26.766-.442Z" transform="translate(-88.415 -56.738)" fill-rule="evenodd" fill="url(#linear-gradient-25)"/>
      <path id="Caminho_10626" data-name="Caminho 10626" d="M262.318,127.684V134.3l-3.311,1.912V129.6Z" transform="translate(-88.415 -56.946)" fill="#4f2f37" fill-rule="evenodd"/>
      <path id="Caminho_10627" data-name="Caminho 10627" d="M262.242,120.235l.468.27-6.267,3.617-.468-.27Z" transform="translate(-86.575 -52.424)" fill-rule="evenodd" fill="url(#linear-gradient-26)"/>
      <g id="Grupo_12664" data-name="Grupo 12664" transform="translate(154.423 89.241)">
        <path id="Caminho_10628" data-name="Caminho 10628" d="M217.865,197.579l4.722-2.725h5.453l1.181.682h1.942l3.542,2.044-3.542,2.044H229.22l-1.18.681h-5.453Z" transform="translate(-217.865 -186.96)" fill="#9b7684" fill-rule="evenodd"/>
        <path id="Caminho_10629" data-name="Caminho 10629" d="M217.864,187.913l4.721,2.726v5.452l-4.721-2.727Z" transform="translate(-217.864 -182.747)" fill="#e59259" fill-rule="evenodd"/>
        <path id="Caminho_10630" data-name="Caminho 10630" d="M217.865,183.7l4.722-2.725,4.722,2.725-4.722,2.726Z" transform="translate(-217.865 -178.537)" fill="#f7ac67" fill-rule="evenodd"/>
        <path id="Caminho_10631" data-name="Caminho 10631" d="M230.233,181.181l4.583,2.645-1.684,1.953-1.719.011h-1.18Z" transform="translate(-225.372 -178.66)" fill-rule="evenodd" fill="url(#linear-gradient-2)"/>
        <g id="Grupo_12663" data-name="Grupo 12663" transform="translate(1.18 0)">
          <path id="Caminho_10632" data-name="Caminho 10632" d="M220.868,176.811l3.542-2.044,3.542,2.044-3.542,2.044Z" transform="translate(-220.868 -174.767)" fill="#ecdf53" fill-rule="evenodd"/>
          <path id="Caminho_10633" data-name="Caminho 10633" d="M220.868,179.969v3.122l3.542,2.044v-3.122Z" transform="translate(-220.868 -177.924)" fill="#dfd954" fill-rule="evenodd"/>
          <path id="Caminho_10634" data-name="Caminho 10634" d="M233.422,179.969v3.122l-3.542,2.044v-3.122Z" transform="translate(-226.339 -177.924)" fill-rule="evenodd" fill="url(#linear-gradient-3)"/>
        </g>
        <path id="Caminho_10635" data-name="Caminho 10635" d="M234.6,187.913l-4.721,2.726v5.452l4.721-2.727Z" transform="translate(-225.158 -182.747)" fill-rule="evenodd" fill="url(#linear-gradient-4)"/>
      </g>
    </g>
  </g>
</svg>
