<svg xmlns="http://www.w3.org/2000/svg" xmlns:xlink="http://www.w3.org/1999/xlink" width="430.169" height="320.728" viewBox="0 0 430.169 320.728">
  <defs>
    <linearGradient id="linear-gradient" y1="0.5" x2="1" y2="0.5" gradientUnits="objectBoundingBox">
      <stop offset="0" stop-color="#febbba"/>
      <stop offset="1" stop-color="#ff928e"/>
    </linearGradient>
    <linearGradient id="linear-gradient-2" y1="0.5" x2="1" y2="0.5" gradientUnits="objectBoundingBox">
      <stop offset="0" stop-color="#09005d"/>
      <stop offset="1" stop-color="#1a0f91"/>
    </linearGradient>
  </defs>
  <g id="Grupo_40339" data-name="Grupo 40339" transform="translate(-33.205 -87.133)">
    <path id="Caminho_14332" data-name="Caminho 14332" d="M421.71,402.442c46.436-37.7,67.116-142.229-8.282-193.487-49.917-33.929-80.962-14.573-137.117-37.019C207.757,144.543,197.539,61.778,114.152,102.5c-44.177,21.568-74.8,82.358-80.189,151.447-5.28,67.659,17.18,114.084,63.078,145.851C204.824,404.7,312.822,403.809,421.71,402.442Z" transform="translate(0 -0.096)" fill="#00A443"/>
    <path id="Caminho_14333" data-name="Caminho 14333" d="M227.407,126.149c-7.013,28.161,19.032,56.038,46.472,67.6s58.906,10.189,88.3,4.674c12.685-2.376,25.723-5.72,35.577-13.807s15.567-22.128,10.166-33.47c-4.766-10-16.368-15.127-27.429-17.757s-22.809-3.706-32.663-9.24c-9.344-5.251-15.972-13.943-24.1-20.827-15.015-12.7-36.107-19-55.628-14.98S233.369,102.213,227.407,126.149Z" transform="translate(-4.285)" fill="#00A443"/>
    <path id="Caminho_14334" data-name="Caminho 14334" d="M448.087,255.88v-21.3h-8.079a41.328,41.328,0,0,0-4.343-10.472l5.711-5.721-15.065-15.066-5.721,5.712a41.345,41.345,0,0,0-10.472-4.344v-8.078h-21.3v8.078a41.337,41.337,0,0,0-10.471,4.344l-5.721-5.712-15.066,15.066,5.712,5.721a41.652,41.652,0,0,0-4.344,10.472h-8.078v21.3h8.078a41.652,41.652,0,0,0,4.344,10.472l-5.712,5.721,15.066,15.065,5.721-5.711a41.659,41.659,0,0,0,10.471,4.344v8.078h21.3v-8.078a41.667,41.667,0,0,0,10.472-4.344l5.721,5.711,15.065-15.065-5.711-5.721a41.329,41.329,0,0,0,4.343-10.472Zm-48.615,7.806c-24.264-.416-24.272-36.5,0-36.915C423.731,227.192,423.717,263.272,399.472,263.686Z" transform="translate(-7.051 -2.43)" fill="#1f6022"/>
    <path id="Caminho_14335" data-name="Caminho 14335" d="M383.268,311.314l-4.053-10.565-4.007,1.537a21.945,21.945,0,0,0-4.146-4.367l1.743-3.924-10.337-4.605-1.75,3.921a21.964,21.964,0,0,0-6.02-.161l-1.536-4.006L342.6,293.2l1.537,4.006a21.949,21.949,0,0,0-4.367,4.147l-3.924-1.744-4.605,10.337,3.922,1.751a22.107,22.107,0,0,0-.162,6.019l-4.006,1.537,4.053,10.565,4.006-1.537a22.145,22.145,0,0,0,4.147,4.367l-1.744,3.924,10.338,4.605,1.75-3.921a22.146,22.146,0,0,0,6.019.161l1.537,4.006,10.565-4.053-1.536-4.006a22.142,22.142,0,0,0,4.367-4.147l3.924,1.744,4.6-10.337L379.1,318.87a21.953,21.953,0,0,0,.162-6.019Zm-22.624,13.121c-11.812,4.729-18.973-13.922-7.023-18.308C365.429,301.4,372.58,320.054,360.644,324.435Z" transform="translate(-6.61 -4.484)" fill="#1f6022"/>
    <path id="Caminho_14336" data-name="Caminho 14336" d="M348.251,273.576l-2.739-7.139-2.707,1.039a14.86,14.86,0,0,0-2.8-2.951l1.179-2.652-6.985-3.111-1.183,2.65a14.839,14.839,0,0,0-4.068-.109l-1.038-2.708-7.138,2.739,1.038,2.708a14.827,14.827,0,0,0-2.951,2.8l-2.652-1.178-3.111,6.985,2.65,1.182a14.954,14.954,0,0,0-.109,4.068l-2.707,1.038,2.738,7.139,2.708-1.038a14.933,14.933,0,0,0,2.8,2.95L320,290.641l6.985,3.111,1.182-2.649a14.959,14.959,0,0,0,4.068.109l1.038,2.707,7.139-2.739-1.038-2.707a14.938,14.938,0,0,0,2.95-2.8l2.652,1.179,3.111-6.985-2.649-1.183a14.843,14.843,0,0,0,.109-4.068Zm-15.287,8.866c-7.981,3.2-12.82-9.406-4.745-12.37C336.2,266.878,341.029,279.482,332.964,282.442Z" transform="translate(-6.209 -3.806)" fill="#1f6022"/>
    <path id="Caminho_14337" data-name="Caminho 14337" d="M344.983,145.335c-1.154,44.415-66.179,44.4-67.324,0C278.415,101.091,344.232,101.09,344.983,145.335Z" transform="translate(-5.427 -0.555)" fill="#1f6022"/>
    <g id="Grupo_40322" data-name="Grupo 40322" transform="translate(285.02 122.68)">
      <path id="Caminho_14338" data-name="Caminho 14338" d="M311.842,123.489c14.3-.209,14.3,22.247,0,22.036C297.546,145.734,297.546,123.278,311.842,123.489Z" transform="translate(-290.967 -123.487)" fill="#fff"/>
      <path id="Caminho_14339" data-name="Caminho 14339" d="M332.485,168.207c-11.249,9.547-30.477,9.542-41.748,0,3.655-17.9,5.206-23.776,20.865-24.331C327.617,144.277,329.318,151.49,332.485,168.207Z" transform="translate(-290.737 -123.94)" fill="#fff"/>
    </g>
    <g id="Grupo_40325" data-name="Grupo 40325" transform="translate(254.291 202.922)">
      <g id="Grupo_40323" data-name="Grupo 40323" transform="translate(0 0)">
        <path id="Caminho_14340" data-name="Caminho 14340" d="M262.606,230.388c.795-7.08-3.665-24.957,8.214-24.835H323.19c11.848-.144,7.443,17.779,8.214,24.837a8.212,8.212,0,0,1-8.214,8.213H270.829A8.215,8.215,0,0,1,262.606,230.388Z" transform="translate(-259.379 -205.551)" fill="#1f6022"/>
        <path id="Caminho_14341" data-name="Caminho 14341" d="M284.655,230.062,259.31,254.752l41.077-20.759" transform="translate(-259.31 -206.095)" fill="#1f6022"/>
      </g>
      <g id="Grupo_40324" data-name="Grupo 40324" transform="translate(9.52 6.311)">
        <path id="Caminho_14342" data-name="Caminho 14342" d="M269.109,213.5a1.231,1.231,0,0,1,1.222-1.31c.7.6,28.242-1.426,27.115,1.221a1.231,1.231,0,0,1-1.223,1.311C295.527,214.122,267.983,216.147,269.109,213.5Z" transform="translate(-269.047 -212.005)" fill="#fff"/>
        <path id="Caminho_14343" data-name="Caminho 14343" d="M299.279,213.5c-1.516-2.745,23.276-.729,23.819-1.31a1.268,1.268,0,0,1,0,2.533C322.505,214.174,297.918,216.067,299.279,213.5Z" transform="translate(-269.716 -212.006)" fill="#fff"/>
        <path id="Caminho_14344" data-name="Caminho 14344" d="M289.189,219.188a1.231,1.231,0,0,1,1.222-1.31c.617.639,34.968-1.493,33.686,1.221a1.231,1.231,0,0,1-1.223,1.311C322.258,219.771,287.906,221.9,289.189,219.188Z" transform="translate(-269.493 -212.131)" fill="#fff"/>
        <path id="Caminho_14345" data-name="Caminho 14345" d="M269.11,219.192a1.23,1.23,0,0,1,1.222-1.31h14.5a1.267,1.267,0,0,1,0,2.532h-14.5A1.223,1.223,0,0,1,269.11,219.192Z" transform="translate(-269.048 -212.136)" fill="#fff"/>
        <path id="Caminho_14346" data-name="Caminho 14346" d="M293.8,224.878a1.231,1.231,0,0,1,1.222-1.31c.553.6,30.606-1.434,29.178,1.221a1.23,1.23,0,0,1-1.222,1.311C322.424,225.5,292.371,227.535,293.8,224.878Z" transform="translate(-269.595 -212.258)" fill="#fff"/>
        <path id="Caminho_14347" data-name="Caminho 14347" d="M269.109,224.879c-1.354-2.693,19.891-.762,20.534-1.31a1.268,1.268,0,0,1,0,2.533C288.889,225.565,268.07,227.431,269.109,224.879Z" transform="translate(-269.046 -212.259)" fill="#fff"/>
        <path id="Caminho_14348" data-name="Caminho 14348" d="M269.11,230.57a1.23,1.23,0,0,1,1.222-1.31c1.1.42,8.6-1.119,8.39,1.222a1.229,1.229,0,0,1-1.222,1.31C276.4,231.371,268.9,232.912,269.11,230.57Z" transform="translate(-269.048 -212.386)" fill="#fff"/>
        <path id="Caminho_14349" data-name="Caminho 14349" d="M281.53,230.572a1.231,1.231,0,0,1,1.222-1.31h39.953a1.267,1.267,0,0,1,0,2.533H282.752A1.223,1.223,0,0,1,281.53,230.572Z" transform="translate(-269.324 -212.389)" fill="#fff"/>
      </g>
    </g>
    <path id="Caminho_14350" data-name="Caminho 14350" d="M88.147,161.9c40.058-14.426,62.52,44.778,22.98,60.555C71.071,236.88,48.609,177.676,88.147,161.9Z" transform="translate(-0.761 -1.61)" fill="#1f6022"/>
    <path id="Caminho_14351" data-name="Caminho 14351" d="M85.308,205.6c-4.542,9.115,9.876,16.037,14.149,6.794C104,203.276,89.581,196.355,85.308,205.6Zm7.454,8.375-4.5-2.161-.379-4.977L92,204.018l4.5,2.16.378,4.977Z" transform="translate(-1.137 -2.533)" fill="#fff"/>
    <path id="Caminho_14352" data-name="Caminho 14352" d="M113.609,171.194l-.241,5.623-4.77,4.167-4.5-2.16.27-6.328,4.238-3.7a7.091,7.091,0,0,0-7.689,4.294c-4.543,9.114,9.876,16.037,14.149,6.794A7.093,7.093,0,0,0,113.609,171.194Z" transform="translate(-1.484 -1.811)" fill="#fff"/>
    <path id="Caminho_14353" data-name="Caminho 14353" d="M97.986,204.9l-6-2.883A219.343,219.343,0,0,1,102.549,180l6,2.883A183.1,183.1,0,0,1,97.986,204.9Z" transform="translate(-1.305 -2.062)" fill="#fff"/>
    <path id="Caminho_14354" data-name="Caminho 14354" d="M123.374,210.462c1.158-.536,19.738.311,19.738.311l-13.394-12.3Z" transform="translate(-2.002 -2.472)" fill="#1f6022"/>
    <g id="Grupo_40327" data-name="Grupo 40327" transform="translate(142.785 91.34)">
      <g id="Grupo_40326" data-name="Grupo 40326">
        <path id="Caminho_14355" data-name="Caminho 14355" d="M176.46,91.436c41.844.463,42.211,62.7.38,63.659C135,154.631,134.631,92.4,176.46,91.436Z" transform="translate(-145.272 -91.436)" fill="#1f6022"/>
      </g>
    </g>
    <g id="Grupo_40328" data-name="Grupo 40328" transform="translate(150.674 96.045)">
      <rect id="Retângulo_18860" data-name="Retângulo 18860" width="2.126" height="26.731" transform="translate(22.426)" fill="#fff"/>
      <rect id="Retângulo_18861" data-name="Retângulo 18861" width="27.095" height="2.126" transform="matrix(0.822, -0.569, 0.569, 0.822, 0, 42.152)" fill="#fff"/>
      <path id="Caminho_14356" data-name="Caminho 14356" d="M180.226,123.923c.056,3.8-5.915,3.8-5.859,0C174.311,120.123,180.283,120.123,180.226,123.923Z" transform="translate(-153.808 -96.798)" fill="#fff"/>
    </g>
    <g id="Grupo_40329" data-name="Grupo 40329" transform="translate(199.172 279.485)">
      <path id="Caminho_14357" data-name="Caminho 14357" d="M235.788,348.992s2.141,19.624,4.537,21.2c4.283,2.826,53.857,9.358,53.857,9.358l-1.623,12.9s-67.9,6.1-70.783,2.708c-5.006-5.886-13.807-34.282-13.807-34.282Z" transform="translate(-203.052 -285.298)" fill="url(#linear-gradient)"/>
      <path id="Caminho_14358" data-name="Caminho 14358" d="M202.94,297.023l5.485-13.171s14.882,6.991,19.791,15.625c5.251,9.23,11.675,58.306,11.675,58.306s-26.273,6.053-31.1,3.481S202.94,297.023,202.94,297.023Z" transform="translate(-202.94 -283.852)" fill="#f79431"/>
    </g>
    <path id="Caminho_14359" data-name="Caminho 14359" d="M158.964,234.748c-3.843-1.408-7.91-2.64-12.027-2.327s-8.321,2.493-9.719,6.111c-1,2.562-.538,5.583-2.112,7.891-1.506,2.21-4.5,3.129-7.294,3.315s-5.632-.176-8.419.186c-8.6,1.144-14.745,10.492-11.919,18.148,1.124,3.051,3.432,5.965,2.9,9.142-.557,3.4-4.126,5.642-5.593,8.8-1.946,4.2.381,9.3,4.224,12.164s8.839,3.941,13.689,4.664c6.678,1,13.572,1.467,20.172.059s12.907-4.889,16.32-10.326c1.516-2.405,2.435-5.124,4.195-7.382,3.637-4.664,10.081-6.473,15.156-9.778,5.544-3.628,9.612-10.687,6.346-16.212-3.149-5.309-11.342-6.493-14.628-11.724-1.359-2.161-1.682-4.733-2.562-7.089C166.8,238.024,164.645,236.831,158.964,234.748Z" transform="translate(-1.573 -3.224)" fill="url(#linear-gradient-2)"/>
    <g id="Grupo_40330" data-name="Grupo 40330" transform="translate(150.038 238.398)">
      <path id="Caminho_14360" data-name="Caminho 14360" d="M182.435,300.089c.968,1.115,2.112,2.337,3.7,2.444,1.672.117,3.07-1.066,4.146-2.21a42.085,42.085,0,0,0,10.707-20.534c-1.379-.782-2.708-1.535-3.911-2.239a5.939,5.939,0,0,1-2.435-2.679,5.147,5.147,0,0,1-.362-2.523,72.107,72.107,0,0,1,4.058-18.911c-12.262-2.767-23.829-6.053-30.478-11.607-.812,3.422-1.77,10.12-3.813,16.759-2.18,7.03-5.583,13.983-11.352,16.975A121.656,121.656,0,0,1,182.435,300.089Z" transform="translate(-152.69 -241.832)" fill="url(#linear-gradient)"/>
      <path id="Caminho_14361" data-name="Caminho 14361" d="M194.534,272.359a5.131,5.131,0,0,0,.362,2.523c-7.255,8.8-23.477-2.7-30.6-16.28,2.044-6.639,3-13.337,3.813-16.76,6.639,5.554,18.216,8.849,30.478,11.607A72.023,72.023,0,0,0,194.534,272.359Z" transform="translate(-152.948 -241.832)" fill="url(#linear-gradient)"/>
    </g>
    <g id="Grupo_40331" data-name="Grupo 40331" transform="translate(120.607 268.446)">
      <path id="Caminho_14362" data-name="Caminho 14362" d="M213.809,379.426c-1.6,10.619,9.856,22.049,10.14,27.721-24.337,0-75.32,1.486-101.281-2.044-1.183-6.551,11.636-21.287,11.636-35.836,0-1.926-.078-4.038-.235-6.307-.411-6.493-1.369-14.217-2.435-22.137-2.894-21.248-6.747-43.972-3.9-48.685,5.573-9.182,18.608-15.42,25.071-18.1,2.22-.919,3.667-1.418,3.774-1.476,8.106,13.826,24.6,25.618,30.83,25.09,1.731-.137,6.864-1.926,10.257-19.008,1.32.753,2.64,1.447,3.95,2.122,6.444,3.354,12.487,6.121,14.227,10.433,4.6,11.352,9.1,39.973,8.106,50.152-1.007,10.267-5.133,18.108-8.028,28.414-.675,2.415-1.291,4.977-1.789,7.734C214,378.116,213.907,378.761,213.809,379.426Z" transform="translate(-122.591 -272.562)" fill="#FF9C1A"/>
      <path id="Caminho_14363" data-name="Caminho 14363" d="M223.949,408.452c-24.337,0-75.32,1.486-101.281-2.044-1.183-6.551,11.636-21.287,11.636-35.836,0-1.926-.078-4.038-.235-6.307-.411-6.493-1.369-14.217-2.435-22.137,4.605,4.86,11.323-15.674,14.3-9.661,16.085,32.463,28.767,41,50.807,41a84.615,84.615,0,0,0,19.184-2.4c-.675,2.415-1.291,4.977-1.789,7.734q-.176.939-.323,1.936C212.206,391.34,223.665,402.771,223.949,408.452Z" transform="translate(-122.591 -273.867)" fill="#FF9C1A"/>
      <path id="Caminho_14364" data-name="Caminho 14364" d="M202.3,280.766c-1.046,7.6-4.146,17.835-13.161,20.534-12.183,3.647-29.813-19.116-35.651-27.261,2.22-.919,3.667-1.418,3.774-1.476,8.106,13.826,24.6,25.618,30.83,25.09,1.731-.137,6.864-1.926,10.257-19.008C199.672,279.387,200.992,280.081,202.3,280.766Z" transform="translate(-123.277 -272.562)" fill="#FF9C1A"/>
    </g>
    <g id="Grupo_40332" data-name="Grupo 40332" transform="translate(204.55 391.366)">
      <path id="Caminho_14365" data-name="Caminho 14365" d="M208.528,398.507l-.088,8.478,151.559.9.313-9.612Z" transform="translate(-208.44 -398.272)" fill="#babebf"/>
    </g>
    <path id="Caminho_14366" data-name="Caminho 14366" d="M426.78,321.068l-3.373-3.422-110.394-.724L257.63,397.014l2.894,2.327Z" transform="translate(-4.982 -5.101)" fill="#D8CFC7"/>
    <path id="Caminho_14367" data-name="Caminho 14367" d="M315.21,319.952l-54.62,79.456,104.331.518,61.924-78.791Z" transform="translate(-5.048 -5.168)" fill="#babebf"/>
    <g id="Grupo_40333" data-name="Grupo 40333" transform="translate(203.764 219.63)">
      <ellipse id="Elipse_1" data-name="Elipse 1" cx="17.004" cy="11.216" rx="17.004" ry="11.216" transform="translate(0 33.433) rotate(-79.444)" fill="#D8CFC7"/>
    </g>
    <path id="Caminho_14368" data-name="Caminho 14368" d="M232.83,213.54c-1.134,8.038-4.723,16.9-9.954,26.684-1.838-8.018-3.012-17.786-4.635-27.554-1.652-9.788-3.755-19.576-7.4-27.574a47.869,47.869,0,0,0-2.679-5.026,17.841,17.841,0,0,1,6.434.577,21.556,21.556,0,0,1,8.8,4.8,30.856,30.856,0,0,1,8.575,14.012A31.445,31.445,0,0,1,232.83,213.54Z" transform="translate(-3.884 -2.061)" fill="url(#linear-gradient-2)"/>
    <g id="Grupo_40334" data-name="Grupo 40334" transform="translate(153.743 173.959)">
      <path id="Caminho_14369" data-name="Caminho 14369" d="M225.542,221.762c-.059,1.584-.166,3.2-.313,4.8-2.229,26.009-13.151,43.854-29.862,43.854-23.594,0-38.887-26.459-38.887-52.381,0-25.57,15.664-44.079,34-41.938,10.57,1.212,18.295,4.723,23.78,9.866a32.412,32.412,0,0,1,8.038,12.262,53.608,53.608,0,0,1,3.237,17.659c0,.02.02.039.02.059C225.63,217.841,225.611,219.777,225.542,221.762Z" transform="translate(-156.48 -175.93)" fill="url(#linear-gradient)"/>
      <path id="Caminho_14370" data-name="Caminho 14370" d="M225.787,222.191a26.139,26.139,0,0,0-3.178-7.167,74.248,74.248,0,0,1-46.221,7.422c-2.992,2.493-5.916,4.948-8.859,7.4.059-11.831.225-19.84,4.84-25.57,4.332-5.378,11.558-7.4,18.4-8.282a85.12,85.12,0,0,1,23.223.147,23.5,23.5,0,0,1,8.556,2.533,53.608,53.608,0,0,1,3.237,17.659c0,.02.02.039.02.059C225.875,218.27,225.856,220.206,225.787,222.191Z" transform="translate(-156.725 -176.359)" fill="url(#linear-gradient)"/>
    </g>
    <path id="Caminho_14371" data-name="Caminho 14371" d="M228.786,205.648a43.586,43.586,0,0,1-11.851,6.845c-12.966,5.231-29.813,6.962-42.945,6.326-6.453,14.178-9.064,19.263-10.717,31.632-6.307-5.916-11.44-16.75-12.966-25.266a57.79,57.79,0,0,1,1.007-25.736,38.49,38.49,0,0,1,19.634-23.614,36.9,36.9,0,0,1,4.224-1.956c8.321-3.217,17.7-2.924,26.234-.313a31.244,31.244,0,0,1,11.87,6.9c6.659,6.013,10.775,14.159,13.435,20.26C227.554,202.6,228.229,204.288,228.786,205.648Z" transform="translate(-2.578 -1.874)" fill="url(#linear-gradient-2)"/>
    <path id="Caminho_14372" data-name="Caminho 14372" d="M232.015,213.352a39.811,39.811,0,0,0-2.474-8.262,28.468,28.468,0,0,0-2.327-4.371,23.967,23.967,0,0,0-12.486-10.179,45.948,45.948,0,0,0-4.693-5.622,36.219,36.219,0,0,0-20.211-10.658,38.4,38.4,0,0,0-18.363,1.564,36.9,36.9,0,0,1,4.224-1.956c8.321-3.217,17.7-2.924,26.234-.313a31.244,31.244,0,0,1,11.87,6.9,21.556,21.556,0,0,1,8.8,4.8,30.856,30.856,0,0,1,8.575,14.012A31.588,31.588,0,0,1,232.015,213.352Z" transform="translate(-3.069 -1.873)" fill="url(#linear-gradient-2)"/>
    <g id="Grupo_40337" data-name="Grupo 40337" transform="translate(145.04 173.714)">
      <path id="Caminho_14373" data-name="Caminho 14373" d="M163.562,224.9a67.593,67.593,0,0,1,4.869-24.308c6.365-15.2,19.341-21.707,31.925-22.147a34.29,34.29,0,0,1,24.66,9.641s-4.938-8.712-14.677-11.215c-6.395-1.643-16.046-1.907-23.79,1.242-7.979,3.237-17.923,12.223-21.521,21.717s-5.339,24.279-5.339,24.279Z" transform="translate(-147.848 -175.68)" fill="#D8CFC7"/>
      <g id="Grupo_40335" data-name="Grupo 40335" transform="translate(0 44.117)">
        <ellipse id="Elipse_2" data-name="Elipse 2" cx="11.821" cy="17.913" rx="11.821" ry="17.913" transform="translate(0 2.445) rotate(-5.935)" fill="#D8CFC7"/>
        <ellipse id="Elipse_3" data-name="Elipse 3" cx="7.676" cy="13.503" rx="7.676" ry="13.503" transform="translate(0.87 8.126) rotate(-8.546)" fill="#D8CFC7"/>
      </g>
      <g id="Grupo_40336" data-name="Grupo 40336" transform="translate(20.975 78.06)">
        <ellipse id="Elipse_4" data-name="Elipse 4" cx="6.297" cy="3.921" rx="6.297" ry="3.921" transform="translate(25.335 9.192)" fill="#D8CFC7"/>
        <path id="Caminho_14374" data-name="Caminho 14374" d="M169.03,255.512s9.25,11.89,25.335,13.112" transform="translate(-169.03 -255.512)" fill="#D8CFC7"/>
      </g>
    </g>
    <g id="Grupo_40338" data-name="Grupo 40338" transform="translate(115.592 275.975)">
      <path id="Caminho_14375" data-name="Caminho 14375" d="M251.474,376.938c-2.884-5.329-13.807-10.981-18-9.925-5.806,1.462-19.654,5.659-28.111,7.509-7.087.346-44.077,2.064-46.72.323-.772-.518-1.349-3.686-1.75-8.038v-.019h0c-1.124-11.685-1.144-31.9-1.144-31.886L122.6,341.395l0,.01h0s2.132,14.393,5.456,29.178c3.178,14.071,7.431,28.483,11.988,31.1,8.172,4.69,52.505-7.7,63.444-10.871,2.578,1.831,6.153,2.37,9.676,2.208a25.091,25.091,0,0,0,12.477-3.432c-.205,4.283.508,8.448,1.662,8.966,1.9.86,3.364-1.4,3.95-3.442.372,1.056.724,1.858,1.594,2.1,1.946.557,3.53-1.193,3.725-4.38.264-4.165.352-8.35.274-12.526a89.011,89.011,0,0,0,1.868,11.753c.225,1.085.567,2.327,1.564,2.738a2.245,2.245,0,0,0,2.64-1.183,6.9,6.9,0,0,0,.626-3.129c.2-4.869.264-8.8-1.545-13.308,2.709,1.564,4.488,3.383,5.045,5.261.684,2.308.323,7.959,2.513,8.644C253.929,392.446,252.736,379.265,251.474,376.938Z" transform="translate(-117.576 -281.475)" fill="url(#linear-gradient)"/>
      <path id="Caminho_14376" data-name="Caminho 14376" d="M151.908,300.9c-2.405-6.776-11.215-20.641-11.215-20.641s-13.445,5.593-18.216,15.087c-8.077,16.075-3.97,62.227-3.97,62.227,10.883,4.557,32.727,4.625,42.026,3.315C160.532,360.891,156.729,314.446,151.908,300.9Z" transform="translate(-117.462 -280.262)" fill="#FF9C1A"/>
    </g>
    <path id="Caminho_14377" data-name="Caminho 14377" d="M154.44,304.272a298.961,298.961,0,0,1,6.258,49.956" transform="translate(-2.691 -4.82)" fill="#fb9234"/>
    <rect id="Retângulo_18862" data-name="Retângulo 18862" width="385.528" height="9.67" transform="translate(53.988 398.191)" fill="#232323"/>
  </g>
</svg>
