<svg id="Layer_1" data-name="Layer 1" xmlns="http://www.w3.org/2000/svg" viewBox="0 0 393.23 261.45"><defs><style>.cls-1{fill:#fff;}.cls-2{fill:#94c759;}.cls-3{fill:#e2edbf;}.cls-4{fill:#489cdf;}.cls-5{fill:#0085d3;}.cls-6{fill:#f49600;}.cls-7{fill:#eb6a00;}</style></defs><path class="cls-1" d="M295.66,194.64c3.37-1,9.24-3.92,9.24-11.71,0-6.08-4.84-12.22-14.08-12.22H271.1v44.41h9.14V176.75h7.2c6.94,0,8,4.13,8,6.59,0,4.1-3,6.67-7.69,6.67-3.08,0-4.84,1.2-4.84,3.23,0,1.14.72,2.62,4.11,3.14,4.18.65,5.87,4.74,8,9.91,0,0,1.85,4.37,2.49,5.78s1.21,3.05,4.38,3.05H309l-3.14-6.78C302.7,201.37,300.19,197.27,295.66,194.64Z"/><path class="cls-1" d="M161.4,195.22h21.41v-6H161.4V176.76h22.45v-6H152.26v44.4h32.07v-6H161.4Z"/><path class="cls-1" d="M333.14,170.1c-16.42,0-23.76,11.46-23.76,22.82s7.34,22.83,23.76,22.83,23.7-11.83,23.7-22.83C356.84,181.56,349.51,170.1,333.14,170.1Zm0,38.43c-9.08,0-14.28-5.69-14.28-15.61s5.2-15.61,14.28-15.61,14.21,5.69,14.21,15.61S342.18,208.53,333.14,208.53Z"/><polygon class="cls-1" points="125.57 209.08 125.57 170.69 116.4 170.69 116.4 215.12 144.38 215.12 144.39 209.08 125.57 209.08 125.57 209.08"/><polygon class="cls-1" points="86.17 195.25 107.53 195.25 107.53 189.23 86.17 189.23 86.17 176.83 108.55 176.83 108.55 170.81 77.06 170.81 77.06 215.11 109.03 215.11 109.03 209.09 86.17 209.09 86.17 195.25 86.17 195.25"/><path class="cls-1" d="M216.6,213.63a4.11,4.11,0,0,0,3.6,1.56h9l-18.93-23.56s12-17.94,13.95-20.82h-9.8L200.88,191V170.81h-9.13v44.38h9.13V194.36l15.72,19.27Z"/><polygon class="cls-1" points="265.26 170.8 265.26 176.84 251.78 176.84 251.78 215.18 242.65 215.18 242.65 176.84 229.17 176.84 229.17 170.8 265.26 170.8 265.26 170.8"/><path class="cls-2" d="M91.79,36c-3.27,41.41-54.41,38.59-55.11,78-.11,5.77,2.33,13.8,8.84,20.31A29.73,29.73,0,0,0,53,139.7a102.61,102.61,0,0,0-1.17,30.6L58,170a84.56,84.56,0,0,1-1.4-28.63C82.71,151.09,123.48,128.62,91.79,36Z"/><path class="cls-3" d="M58.85,120.64C54.65,114,50.25,101,50.49,92h0a103.46,103.46,0,0,0,10,25A152,152,0,0,1,71.25,98.63c-4.27-6.42-5.37-17-5.3-19,0,0,0,0,.08,0A67.69,67.69,0,0,0,73.18,95.7,176.06,176.06,0,0,0,83.32,79.11c-1.92-3.94-3.18-10.1-3-12.1h0a29.31,29.31,0,0,0,4.81,8.47,77.11,77.11,0,0,0,6.79-18.35A71.27,71.27,0,0,0,91.79,36c-3.27,41.41-54.41,38.59-55.11,78-.11,5.77,2.33,13.8,8.84,20.31A29.73,29.73,0,0,0,53,139.7,94.17,94.17,0,0,1,58.85,120.64Z"/><path class="cls-4" d="M131.66,36c-3.26,41.41-54.4,38.59-55.11,78-.1,5.77,2.33,13.8,8.85,20.31C107.6,156.5,168.44,143.53,131.66,36Z"/><path class="cls-5" d="M76.55,114c-.1,5.77,2.33,13.8,8.85,20.31a32,32,0,0,0,2.45,2.18c11.24-9.15,18.68-27.94,14.13-59.95C89.12,85.65,76.89,94.84,76.55,114Z"/><path class="cls-6" d="M172,36c-3.26,41.41-54.4,38.59-55.1,78-.11,5.77,2.33,13.8,8.84,20.31C147.94,156.5,208.78,143.53,172,36Z"/><path class="cls-7" d="M116.89,114c-.11,5.77,2.33,13.8,8.84,20.31.71.7,1.44,1.37,2.22,2,11.08-9.19,18.38-27.86,14-59.48C129.19,85.86,117.22,95.05,116.89,114Z"/></svg>