<svg xmlns="http://www.w3.org/2000/svg" xmlns:xlink="http://www.w3.org/1999/xlink" width="323.018" height="275.434" viewBox="0 0 323.018 275.434">
  <defs>
    <style>
      .cls-1 {
        fill: #FF9C1A;
      }

      .cls-2 {
        fill: #707070;
      }

      .cls-3 {
        fill: #babebf;
      }

      .cls-4 {
        fill: url(#linear-gradient);
      }

      .cls-5, .cls-7 {
        fill: #fff;
      }

      .cls-5 {
        opacity: 0.9;
        mix-blend-mode: soft-light;
      }

      .cls-13, .cls-17, .cls-23, .cls-5, .cls-8 {
        isolation: isolate;
      }

      .cls-6 {
        fill: #f9352d;
      }

      .cls-8 {
        opacity: 0.2;
      }

      .cls-13, .cls-17, .cls-23, .cls-8 {
        mix-blend-mode: multiply;
      }

      .cls-9 {
        fill: url(#linear-gradient-2);
      }

      .cls-10 {
        fill: url(#linear-gradient-3);
      }

      .cls-11 {
        fill: #0958b9;
      }

      .cls-12, .cls-17 {
        fill: #0965b9;
      }

      .cls-13, .cls-17, .cls-23 {
        opacity: 0.3;
      }

      .cls-13 {
        fill: url(#linear-gradient-4);
      }

      .cls-14 {
        fill: url(#linear-gradient-5);
      }

      .cls-15 {
        fill: url(#linear-gradient-6);
      }

      .cls-16 {
        fill: #00A443;
      }

      .cls-18 {
        fill: url(#linear-gradient-7);
      }

      .cls-19 {
        fill: url(#linear-gradient-8);
      }

      .cls-20 {
        fill: url(#linear-gradient-10);
      }

      .cls-21 {
        fill: url(#linear-gradient-11);
      }

      .cls-22, .cls-23 {
        fill: url(#linear-gradient-12);
      }
    </style>
    <linearGradient id="linear-gradient" y1="0.5" x2="1" y2="0.5" gradientUnits="objectBoundingBox">
      <stop offset="0.494" stop-color="#ebeff2"/>
      <stop offset="1" stop-color="#fff"/>
    </linearGradient>
    <linearGradient id="linear-gradient-2" x1="-0.178" y1="0.627" x2="0.872" y2="0.627" gradientUnits="objectBoundingBox">
      <stop offset="0" stop-color="#ff9085"/>
      <stop offset="1" stop-color="#fb6fbb"/>
    </linearGradient>
    <linearGradient id="linear-gradient-3" x1="0.505" y1="-0.112" x2="0.495" y2="0.524" xlink:href="#linear-gradient-2"/>
    <linearGradient id="linear-gradient-4" x1="-0.017" y1="0.5" x2="1" y2="0.5" gradientUnits="objectBoundingBox">
      <stop offset="0" stop-color="#aa80f9"/>
      <stop offset="0.996" stop-color="#6165d7"/>
    </linearGradient>
    <linearGradient id="linear-gradient-5" x1="0.907" y1="1.663" x2="-0.146" y2="-1.371" gradientUnits="objectBoundingBox">
      <stop offset="0" stop-color="#09005d"/>
      <stop offset="1" stop-color="#1a0f91"/>
    </linearGradient>
    <linearGradient id="linear-gradient-6" x1="1.065" y1="1.559" x2="-2.052" y2="-3.747" gradientUnits="objectBoundingBox">
      <stop offset="0" stop-color="#febbba"/>
      <stop offset="1" stop-color="#ff928e"/>
    </linearGradient>
    <linearGradient id="linear-gradient-7" x1="0" y1="0.5" x2="1" y2="0.5" xlink:href="#linear-gradient-6"/>
    <linearGradient id="linear-gradient-8" x1="-23.359" y1="-8.491" x2="-24.029" y2="-10.238" xlink:href="#linear-gradient-5"/>
    <linearGradient id="linear-gradient-10" x1="-38.938" y1="-9.099" x2="-40.048" y2="-10.91" xlink:href="#linear-gradient-5"/>
    <linearGradient id="linear-gradient-11" x1="0" y1="0.5" x2="1" y2="0.5" xlink:href="#linear-gradient-5"/>
    <linearGradient id="linear-gradient-12" y1="0.5" x2="1" y2="0.5" gradientUnits="objectBoundingBox">
      <stop offset="0" stop-color="#444b8c"/>
      <stop offset="0.996" stop-color="#26264f"/>
    </linearGradient>
  </defs>
  <g id="Grupo_40359" data-name="Grupo 40359" transform="translate(-472.36 -403.098)">
    <path id="Caminho_14444" data-name="Caminho 14444" class="cls-1" d="M791.646,635.011c-21.469,49.325-127.109,44.031-154.3,42.668-14.665-.735-141.517-6.113-158.379-63.492-11.134-37.887,30.177-83.113,6.894-116.8-4.324-6.257-13.441-15.827-13.5-30.144,0,0-.058-14.121,11.938-28.631,35.546-43,299.554-49.772,304.736-4.668,1.187,10.336-12.694,11.056-23.055,31.28C736.3,523.138,812.724,586.586,791.646,635.011Z"/>
    <path id="Caminho_14445" data-name="Caminho 14445" class="cls-2" d="M916.524,1000.9l-244.043,22.03c-3.643.3-8.87-4.52-8.87-8.175V829.984a6.255,6.255,0,0,1,6.168-6.254l246.15-3.4c3.488-.048,10.081,2.523,10.081,6.011l-3.739,168.33A6.255,6.255,0,0,1,916.524,1000.9Z" transform="translate(-170.672 -372.332)"/>
    <path id="Caminho_14446" data-name="Caminho 14446" class="cls-3" d="M962.6,1016.781l-246.15,20.089a6.255,6.255,0,0,1-6.763-6.234V845.864a6.255,6.255,0,0,1,6.168-6.254l246.15-3.4a6.255,6.255,0,0,1,6.341,6.254v168.087A6.255,6.255,0,0,1,962.6,1016.781Z" transform="translate(-211.787 -386.504)"/>
    <path id="Caminho_14447" data-name="Caminho 14447" class="cls-4" d="M917.341,1065.06l208.5-16.6a6.4,6.4,0,0,0,5.895-6.383V882.6a6.4,6.4,0,0,0-6.5-6.4l-208.5,3.2a6.4,6.4,0,0,0-6.3,6.4v172.876A6.4,6.4,0,0,0,917.341,1065.06Z" transform="translate(-390.932 -422.192)"/>
    <path id="Caminho_14448" data-name="Caminho 14448" class="cls-2" d="M3029.917,1556.037h0a2.18,2.18,0,0,1-2.18-2.18v-16.164a2.18,2.18,0,0,1,2.18-2.18h0a2.18,2.18,0,0,1,2.18,2.18v16.164A2.18,2.18,0,0,1,3029.917,1556.037Z" transform="translate(-2280.409 -1010.562)"/>
    <path id="Caminho_14449" data-name="Caminho 14449" class="cls-5" d="M1094.924,1041.771c-18.989-16.563-34.211-10.084-54.3-26.913-24.933-20.89-12.518-40.153-34.467-58.547-27.448-23-60.613-4.345-81.21-27.385a44.353,44.353,0,0,1-9.967-20.406,6.4,6.4,0,0,0-4.552,6.126v172.876a6.4,6.4,0,0,0,6.911,6.383l199.651-15.9C1113.342,1065.619,1106.84,1052.165,1094.924,1041.771Z" transform="translate(-390.932 -451.037)"/>
    <g id="Grupo_40356" data-name="Grupo 40356" transform="translate(590.346 497.753)">
      <g id="Grupo_40354" data-name="Grupo 40354" transform="translate(0)">
        <path id="Caminho_14450" data-name="Caminho 14450" class="cls-6" d="M1655.352,1327.105c-2.195,23.724-23.209,42.465-47.009,41.858-23.882-.609-41.511-20.456-39.3-44.327s23.407-42.607,47.276-41.85C1640.1,1283.54,1657.547,1303.381,1655.352,1327.105Z" transform="translate(-1568.853 -1282.764)"/>
        <g id="Grupo_40352" data-name="Grupo 40352" transform="translate(16.638 15.841)">
          <path id="Caminho_14451" data-name="Caminho 14451" class="cls-7" d="M1750.741,1484.51a27.266,27.266,0,1,1,27.266-27.266A27.3,27.3,0,0,1,1750.741,1484.51Zm0-44.5a17.237,17.237,0,1,0,17.237,17.236A17.256,17.256,0,0,0,1750.741,1440.007Z" transform="translate(-1723.475 -1429.978)"/>
        </g>
        <g id="Grupo_40353" data-name="Grupo 40353" transform="translate(26.277 24.534)">
          <path id="Caminho_14452" data-name="Caminho 14452" class="cls-7" d="M1818.071,1548.179a5.015,5.015,0,0,1-3.556-8.55l27.22-27.381a5.015,5.015,0,0,1,7.113,7.071l-27.22,27.381A5,5,0,0,1,1818.071,1548.179Z" transform="translate(-1813.057 -1510.769)"/>
        </g>
      </g>
      <g id="Grupo_40355" data-name="Grupo 40355" class="cls-8" transform="translate(0 0.279)">
        <path id="Caminho_14453" data-name="Caminho 14453" class="cls-9" d="M1608.633,1359.846c-3.126-5.533,3.2-10.085,3.458-21.119.392-16.755-13.81-22.83-11.907-36.964.529-3.93,2.482-9.808,9.81-16.41-21.183,2.378-38.944,19.855-40.956,41.594-2.208,23.871,15.421,43.717,39.3,44.327a45.083,45.083,0,0,0,22.8-5.6C1622.233,1366.278,1611.942,1365.7,1608.633,1359.846Z" transform="translate(-1568.852 -1285.353)"/>
      </g>
    </g>
    <path id="Caminho_14454" data-name="Caminho 14454" class="cls-10" d="M797.886,2495.4l60.629-15.165,3.033,14.73-55.5,25.617-43.949-10.856L735.583,2483.7Z" transform="translate(-234.899 -1853.631)"/>
    <path id="Caminho_14455" data-name="Caminho 14455" class="cls-11" d="M797.886,2495.4l60.629-15.165,3.033,14.73-55.5,25.617-43.949-10.856L735.583,2483.7Z" transform="translate(-234.899 -1853.631)"/>
    <path id="Caminho_14456" data-name="Caminho 14456" class="cls-12" d="M1296.876,2484.094a164.545,164.545,0,0,0,26.991-18.014c11.886-9.786,17.338-17.168,29.371-20.085,2.151-.521,14.4-3.491,18.357,1.949,4.377,6.024-4.133,18.621-5.167,20.151-15.373,22.755-54.522,21.693-66.8,20.955Z" transform="translate(-735.795 -1821.935)"/>
    <path id="Caminho_14457" data-name="Caminho 14457" class="cls-13" d="M1382.049,2450.877a8.058,8.058,0,0,0-5.141-2.873,9.746,9.746,0,0,1-.111,6.717c-2.4,5.457-9.516,3.776-14.512,10.18-4.907,6.289-1.51,12.351-5.848,14.945-4.972,2.973-11.135-3.973-16.461-.65-3.621,2.259-2.495,6.546-6.715,8.88-2.916,1.614-5.775.851-9.1.433a46.957,46.957,0,0,0-15.573.787l1.49,2.685c12.28.738,51.428,1.8,66.8-20.955C1377.915,2469.5,1386.426,2456.9,1382.049,2450.877Z" transform="translate(-746.249 -1824.868)"/>
    <path id="Caminho_14458" data-name="Caminho 14458" class="cls-14" d="M1379.978,2834.949a6.241,6.241,0,0,1,5.412-.5c3.2,1.079,8.292,1.95,8.284,3.517s-5.1,2.547-8.615,1.9C1381.693,2839.248,1379.047,2836.324,1379.978,2834.949Z" transform="translate(-809.787 -2169.389)"/>
    <path id="Caminho_14459" data-name="Caminho 14459" class="cls-15" d="M1349.622,2817.4l5.9,1.9a2.04,2.04,0,0,1-.335,2.608c-1.293,1.012-5.785-1.128-5.785-1.128Z" transform="translate(-782.666 -2154.516)"/>
    <path id="Caminho_14460" data-name="Caminho 14460" class="cls-12" d="M588.948,2486.01c-1.741,10.137,20.137,21.1,25.146,23.614,10.208,5.116,29.414,12.339,57.92,9.58l1.137-6.823a135.037,135.037,0,0,1-15.822-6.573c-11.051-5.436-15.248-9.318-30.583-18.59-16.969-10.259-21.912-11.575-26.968-10.305C595.455,2478,589.757,2481.3,588.948,2486.01Z" transform="translate(-103.955 -1850.307)"/>
    <path id="Caminho_14461" data-name="Caminho 14461" class="cls-16" d="M792.769,1998.449c-3.7-13.375,2.406-31.423,15.27-40.125,10.5-7.1,22.8-6.642,26.642-6.5,4.2.157,3.768.7,17,3.15,18.365,3.4,20.06,2.574,25.4,5.134a36.755,36.755,0,0,1,15.832,15.263c4.668,8.71,8.467,24.9-.4,32.822-5.04,4.5-12.106,4.483-16.083,4.061l-.812-5.361a16.4,16.4,0,0,0,6.173-11.209c.678-7.764-4.749-12.775-5.361-13.321a52.727,52.727,0,0,0-4.1,38.045,62.964,62.964,0,0,1-23.35,7.44c-7.882.872-17.641-.8-23.88-5.673-8.8-6.88-9.548-22.048-.853-40.7-3.183,2.132-7.793,5.989-9.706,12.094-.289.923-.779,2.735-.975,9.747C813.211,2015.921,796.6,2012.31,792.769,1998.449Z" transform="translate(-284.979 -1382.024)"/>
    <path id="Caminho_14462" data-name="Caminho 14462" class="cls-17" d="M1052.028,2181.987c-4.43.543-5.636,5.143-9.747,4.873-8.945-.586-16.124-16.071-12.346-24.53,2.464-5.515,8.885-6.477,8.447-10.072-.35-2.877-4.808-5.09-8.447-5.2-5.667-.168-9.409,4.766-10.722,6.5a19.505,19.505,0,0,0-3.8,11.348,25.016,25.016,0,0,1,8.47-9.146c-8.7,18.649-7.951,33.473.853,40.354,6.239,4.876,16,6.889,23.88,6.017a62.593,62.593,0,0,0,20.272-5.855C1064.136,2188.538,1058.083,2181.244,1052.028,2181.987Z" transform="translate(-484.619 -1556.302)"/>
    <path id="Caminho_14463" data-name="Caminho 14463" class="cls-17" d="M1069.242,2582.517l-51.839-.774,13.785,6.653,38.187-2.5Z" transform="translate(-486.395 -1944.216)"/>
    <path id="Caminho_14464" data-name="Caminho 14464" class="cls-16" d="M808.323,2287.5c4-3.786,13.814-1.4,17.475,4.039,2.7,4,.465,7.3,2.437,12.346,2.416,6.181,11.529,11.77,17.13,13.63-.877,1.887-.619,2.376-1.5,4.264-3.563-.445-29.316-4.39-35.616-19.681C807.925,2301.3,804.033,2291.563,808.323,2287.5Z" transform="translate(-298.026 -1679.99)"/>
    <path id="Caminho_14465" data-name="Caminho 14465" class="cls-18" d="M1226.007,1931.819s-4.192,4.533-7.672,5.005-8.509-.453-9.375,0,4.37,2.315,8.524,3.455,11.695,3.415,13.78,2.917-2.278-3.172-4.006-3.88.745-4.349.745-4.349Z" transform="translate(-657.254 -1364.225)"/>
    <g id="Grupo_40357" data-name="Grupo 40357" transform="translate(565.63 560.908)">
      <path id="Caminho_14466" data-name="Caminho 14466" class="cls-19" d="M1356.134,1878.966a4.216,4.216,0,0,0,2.884-3.883,4.592,4.592,0,0,0-1.718-3.173c-1.848-1.8-5.059-2.921-7.387-1.74-1.38.7-2.01,3.877-2.149,4.428a4.266,4.266,0,0,0,.153,1.681c.093.852.229,2.2.427,4.427a10.554,10.554,0,0,1,1.521-1.021,9.335,9.335,0,0,1,2.208-.875C1354.124,1878.334,1354.7,1879.362,1356.134,1878.966Z" transform="translate(-1346.791 -1869.684)"/>
      <path id="Caminho_14467" data-name="Caminho 14467" class="cls-18" d="M1339.838,1917.428a5.721,5.721,0,0,0,2.436,5.087c2.5,1.676,6.95-3.386,6.3-5.686a3.787,3.787,0,0,0-2.112-2.11c-.592-.239-.913-.163-1.873-.572-.886-.377-1.031-.62-1.4-.6-.459.02-1.106.438-1.841,2.354a1.631,1.631,0,0,0-1.034-1.519,1.025,1.025,0,0,0-.554.065C1338.962,1914.8,1338.919,1916,1339.838,1917.428Z" transform="translate(-1339.155 -1908.823)"/>
      <path id="Caminho_14468" data-name="Caminho 14468" class="cls-20" d="M1348.425,1908.8c.049.174-.631.332-1.123.917a3.672,3.672,0,0,0,.268,4.516c.663.623,1.193.343,2.475,1.131a6.858,6.858,0,0,1,1.653,1.432,3.608,3.608,0,0,1-3.281,2.523,3.758,3.758,0,0,1-2.676-1.919,4.291,4.291,0,0,1-.846-2.93c.2-1.46,1.241-1.634,1.107-2.831a6.964,6.964,0,0,1-.3-2.092,4.165,4.165,0,0,1,.107-.637C1346.918,1908.729,1348.354,1908.545,1348.425,1908.8Z" transform="translate(-1344.25 -1904.478)"/>
      <path id="Caminho_14469" data-name="Caminho 14469" class="cls-21" d="M1382.8,1974.858a3.652,3.652,0,0,1-1.569-.86c-.041-.036-.1-.059-.121-.042-.085.068.193.884.831,1.141.453.182,1.014.053,1.033-.076C1382.981,1974.966,1382.893,1974.907,1382.8,1974.858Z" transform="translate(-1376.581 -1962.73)"/>
    </g>
    <g id="Grupo_40358" data-name="Grupo 40358" transform="translate(545.052 608.224)">
      <path id="Caminho_14470" data-name="Caminho 14470" class="cls-22" d="M1151.573,2312.667l-3.654,33.271a3.139,3.139,0,0,0,2.635,2.8l53.6-3.291a1.879,1.879,0,0,0,1.763-1.559l6.728-32.133c.2-1.169-1.9-2.377-3.088-2.344l-56.174,1.58A1.879,1.879,0,0,0,1151.573,2312.667Z" transform="translate(-1147.912 -2309.413)"/>
      <path id="Caminho_14471" data-name="Caminho 14471" class="cls-22" d="M1162.923,2321.683l-3.654,33.271a1.879,1.879,0,0,0,1.957,2.083l54.282-2.57a1.879,1.879,0,0,0,1.763-1.559l5.546-32.28a1.879,1.879,0,0,0-1.905-2.2l-56.174,1.579A1.879,1.879,0,0,0,1162.923,2321.683Z" transform="translate(-1158.036 -2317.46)"/>
    </g>
    <path id="Caminho_14472" data-name="Caminho 14472" class="cls-23" d="M1194.8,2358.827c-4.74-2.009-3.067-5.84-8.664-10.613-7.384-6.3-14.91-3.566-17.544-8.448-.821-1.521-1.212-3.886.217-7.714l-4.068.115a1.879,1.879,0,0,0-1.815,1.673l-3.654,33.271a1.88,1.88,0,0,0,1.957,2.083l54.283-2.57a1.88,1.88,0,0,0,1.763-1.559l.765-4.454a20.509,20.509,0,0,0-5.912-2.216C1204.161,2356.779,1200.254,2361.14,1194.8,2358.827Z" transform="translate(-612.984 -1721.392)"/>
    <path id="Caminho_14473" data-name="Caminho 14473" class="cls-18" d="M1140.148,2571.561c2.268,2.123,3.783,1.934,4.292,1.817.853-.2.968-.672,3.132-2.366,1.933-1.513,2.544-1.683,2.521-2.205-.043-.988-2.3-1.854-4.132-1.946a7.973,7.973,0,0,0-5.28,1.867Z" transform="translate(-595.932 -1930.927)"/>
  </g>
</svg>
