<svg xmlns="http://www.w3.org/2000/svg" xmlns:xlink="http://www.w3.org/1999/xlink" width="299.814" height="296.732" viewBox="0 0 299.814 296.732">
  <defs>
    <linearGradient id="linear-gradient" x1="1.068" y1="0.993" x2="-0.149" y2="0.093" gradientUnits="objectBoundingBox">
      <stop offset="0" stop-color="#febbba"/>
      <stop offset="1" stop-color="#ff928e"/>
    </linearGradient>
    <linearGradient id="linear-gradient-2" x1="-25.825" y1="-27.04" x2="-26.015" y2="-23.32" gradientUnits="objectBoundingBox">
      <stop offset="0" stop-color="#09005d"/>
      <stop offset="1" stop-color="#1a0f91"/>
    </linearGradient>
    <linearGradient id="linear-gradient-3" x1="25.152" y1="0.225" x2="28.555" y2="-1.251" xlink:href="#linear-gradient"/>
    <linearGradient id="linear-gradient-4" x1="-23.53" y1="-30.528" x2="-23.751" y2="-27.42" xlink:href="#linear-gradient-2"/>
    <linearGradient id="linear-gradient-5" x1="-14.782" y1="-0.083" x2="-15.707" y2="1.093" xlink:href="#linear-gradient-2"/>
    <linearGradient id="linear-gradient-6" x1="-36.368" y1="-0.845" x2="-36.713" y2="1.374" xlink:href="#linear-gradient"/>
    <linearGradient id="linear-gradient-7" x1="-71.118" y1="-1.515" x2="-70.934" y2="-2.595" xlink:href="#linear-gradient"/>
    <linearGradient id="linear-gradient-8" x1="-74.53" y1="3.958" x2="-72.963" y2="1.683" gradientUnits="objectBoundingBox">
      <stop offset="0" stop-color="#c7c47f"/>
      <stop offset="1" stop-color="#ff928e"/>
    </linearGradient>
    <linearGradient id="linear-gradient-9" x1="-40.267" y1="-0.355" x2="-42.791" y2="5.255" xlink:href="#linear-gradient-2"/>
    <linearGradient id="linear-gradient-10" x1="-306.112" y1="13.198" x2="-299.706" y2="5.752" xlink:href="#linear-gradient"/>
    <linearGradient id="linear-gradient-11" x1="-25.039" y1="0.5" x2="-24.039" y2="0.5" xlink:href="#linear-gradient"/>
    <linearGradient id="linear-gradient-12" x1="-38.241" y1="3.987" x2="-38.656" y2="4.397" xlink:href="#linear-gradient-2"/>
    <linearGradient id="linear-gradient-13" x1="-128.733" y1="-0.446" x2="-129.385" y2="1.215" xlink:href="#linear-gradient"/>
    <linearGradient id="linear-gradient-14" x1="0.775" y1="-2.099" x2="0.393" y2="1.837" xlink:href="#linear-gradient"/>
    <linearGradient id="linear-gradient-15" x1="1.136" y1="-0.486" x2="0.125" y2="1.068" xlink:href="#linear-gradient"/>
    <linearGradient id="linear-gradient-16" x1="-2.999" y1="0.472" x2="-1.919" y2="1.374" xlink:href="#linear-gradient"/>
    <linearGradient id="linear-gradient-17" x1="0.861" y1="-0.306" x2="0.129" y2="1.943" xlink:href="#linear-gradient-2"/>
    <linearGradient id="linear-gradient-18" x1="0.412" y1="0.299" x2="0.789" y2="1.317" xlink:href="#linear-gradient"/>
    <linearGradient id="linear-gradient-19" x1="0.41" y1="0.378" x2="0.786" y2="1.148" xlink:href="#linear-gradient"/>
    <linearGradient id="linear-gradient-20" x1="1.523" y1="4.235" x2="1.923" y2="5.128" xlink:href="#linear-gradient"/>
    <linearGradient id="linear-gradient-21" x1="-6.781" y1="-2.736" x2="-6.274" y2="-1.71" xlink:href="#linear-gradient"/>
    <linearGradient id="linear-gradient-22" x1="-3.568" y1="-2.678" x2="-3.387" y2="-1.406" xlink:href="#linear-gradient-2"/>
    <linearGradient id="linear-gradient-23" x1="-26.572" y1="-9.759" x2="-26.017" y2="-8.678" xlink:href="#linear-gradient"/>
    <linearGradient id="linear-gradient-24" x1="0.456" y1="0.406" x2="0.702" y2="1.953" xlink:href="#linear-gradient"/>
    <linearGradient id="linear-gradient-25" x1="0.42" y1="-0.291" x2="0.599" y2="2.09" xlink:href="#linear-gradient-2"/>
    <linearGradient id="linear-gradient-26" x1="0.988" y1="1.807" x2="2.476" y2="5.433" xlink:href="#linear-gradient"/>
    <linearGradient id="linear-gradient-27" x1="0" y1="0.5" x2="1" y2="0.5" xlink:href="#linear-gradient"/>
  </defs>
  <g id="Grupo_40230" data-name="Grupo 40230" transform="translate(-435.269 -448.022)">
    <path id="Caminho_14285" data-name="Caminho 14285" d="M709.032,703.22A114.176,114.176,0,0,1,688.978,719.5c-51.936,34.678-111.3,24.683-129.659,21.267-29.614-5.512-54.612-9.4-76.09-28.8-48.8-44.093-46.431-136.074-9.138-193.052,4.422-6.756,41.658-61.951,101.155-69.729,1.455-.19,2.541-.3,3.492-.4,9.2-.975,66.239-6.118,112.746,32.846a138.736,138.736,0,0,1,27.305,30.981C755.115,568.71,755.23,655.6,709.032,703.22Z" transform="translate(-9.88 0)" fill="#00A443"/>
    <ellipse id="Elipse_5" data-name="Elipse 5" cx="94.996" cy="102.539" rx="94.996" ry="102.539" transform="matrix(0.044, -0.999, 0.999, 0.044, 435.269, 652.204)" fill="#3c7326"/>
    <ellipse id="Elipse_6" data-name="Elipse 6" cx="80.461" cy="76.01" rx="80.461" ry="76.01" transform="translate(455.864 478.931)" fill="#fff" opacity="0.19"/>
    <g id="Grupo_40218" data-name="Grupo 40218" transform="translate(448.604 469.244)" opacity="0.68">
      <g id="Grupo_40212" data-name="Grupo 40212" transform="translate(66.915 0.517)" style="mix-blend-mode: soft-light;isolation: isolate">
        <path id="Caminho_14286" data-name="Caminho 14286" d="M1243,745.073s.006,1.57-.033,4.518-.135,7.268-.422,12.763-.773,12.161-1.718,19.768a206.706,206.706,0,0,1-4.615,25.323,112.6,112.6,0,0,1-4.476,14.039,59.62,59.62,0,0,1-3.335,7.039,28.145,28.145,0,0,1-4.811,6.473,12.72,12.72,0,0,1-3.421,2.4,8.029,8.029,0,0,1-4.205.73,9.038,9.038,0,0,1-4.037-1.507,16.011,16.011,0,0,1-3.219-2.873,34.963,34.963,0,0,1-4.708-7.272,72.152,72.152,0,0,1-3.422-8.1,136.228,136.228,0,0,1-4.782-17.322c-1.263-5.939-2.254-12.007-3.036-18.148a312.335,312.335,0,0,1-2.371-37.436c-.011-6.287.2-12.573.541-18.826s.864-12.471,1.571-18.62,1.612-12.226,2.777-18.182a139.791,139.791,0,0,1,4.462-17.394,72.238,72.238,0,0,1,3.253-8.157,34.258,34.258,0,0,1,4.56-7.326,15.327,15.327,0,0,1,3.162-2.879,8.678,8.678,0,0,1,3.974-1.472,8.543,8.543,0,0,1,1.059-.025,8.974,8.974,0,0,1,1.058.119,8.78,8.78,0,0,1,2.005.627,13.018,13.018,0,0,1,3.415,2.316,28.414,28.414,0,0,1,4.945,6.317,58.793,58.793,0,0,1,3.51,6.933,108.98,108.98,0,0,1,4.8,13.915,194.421,194.421,0,0,1,5.059,25.229c.521,3.8.923,7.361,1.235,10.663s.526,6.341.69,9.086c.327,5.493.437,9.816.488,12.762S1243,745.073,1243,745.073Zm-1.362,0s.012-1.565-.023-4.5-.127-7.238-.427-12.708c-.152-2.735-.358-5.76-.646-9.049s-.642-6.841-1.123-10.626-1.08-7.8-1.85-12.008-1.7-8.612-2.9-13.148a108.314,108.314,0,0,0-4.6-13.875,58.175,58.175,0,0,0-3.39-6.9A27.892,27.892,0,0,0,1221.9,656a12.578,12.578,0,0,0-3.267-2.275,7.394,7.394,0,0,0-3.9-.706,8.24,8.24,0,0,0-3.757,1.447,14.836,14.836,0,0,0-3.027,2.825,33.718,33.718,0,0,0-4.4,7.259,71.678,71.678,0,0,0-3.125,8.119,138.931,138.931,0,0,0-4.227,17.343c-1.088,5.94-1.913,12-2.547,18.133a352.076,352.076,0,0,0-1.7,37.318A310.738,310.738,0,0,0,1194,782.75c.727,6.118,1.662,12.163,2.867,18.077a135.213,135.213,0,0,0,4.6,17.231,71.347,71.347,0,0,0,3.311,8.03,34.169,34.169,0,0,0,4.532,7.137,15.246,15.246,0,0,0,3.037,2.761,8.3,8.3,0,0,0,3.695,1.42,7.15,7.15,0,0,0,3.816-.692,11.957,11.957,0,0,0,3.191-2.287,27.355,27.355,0,0,0,4.61-6.325,58.736,58.736,0,0,0,3.223-6.962,111.546,111.546,0,0,0,4.313-13.953c1.116-4.555,1.978-8.971,2.689-13.189s1.26-8.24,1.7-12.029.77-7.344,1.031-10.635.455-6.317.6-9.053c.278-5.471.364-9.777.4-12.711S1241.641,745.072,1241.641,745.072Z" transform="translate(-1190.391 -652.579)" fill="#fff"/>
      </g>
      <g id="Grupo_40213" data-name="Grupo 40213" transform="translate(19.23)" style="mix-blend-mode: soft-light;isolation: isolate">
        <path id="Caminho_14287" data-name="Caminho 14287" d="M884.267,740.739s-.011.5-.031,1.477c-.01.487-.023,1.092-.038,1.811s-.021,1.549-.092,2.5l-.189,3.18c-.072,1.168-.227,2.43-.352,3.8s-.339,2.834-.549,4.4c-.187,1.567-.511,3.214-.814,4.959-.08.435-.15.879-.241,1.324l-.294,1.35-.61,2.8-.748,2.909-.389,1.5-.456,1.519a102.628,102.628,0,0,1-4.778,12.963,97.97,97.97,0,0,1-7.479,13.809A85.521,85.521,0,0,1,856.29,814.6a70.544,70.544,0,0,1-14.962,11.534c-.694.436-1.439.787-2.169,1.172l-1.1.57-.553.286c-.186.093-.379.171-.568.257l-2.292,1.016c-.193.083-.382.174-.578.251l-.592.22-1.187.442c-1.57.635-3.223,1.063-4.862,1.574-.833.207-1.674.394-2.515.593-.422.092-.84.209-1.267.282l-1.286.213-1.29.213c-.431.073-.862.149-1.3.18l-2.625.258c-.438.056-.881.056-1.323.072l-1.329.042-1.333.042c-.468,0-.892-.023-1.341-.033-.887-.034-1.775-.038-2.67-.1l-2.7-.262-.677-.067-.67-.11-1.344-.221-1.348-.222c-.449-.08-.89-.2-1.336-.3a54.632,54.632,0,0,1-10.519-3.434l-1.282-.567-.642-.284L788,827.9,785.5,826.6c-1.621-.956-3.276-1.878-4.83-2.973-.789-.528-1.591-1.042-2.342-1.63s-1.536-1.134-2.289-1.725l-2.211-1.842-.553-.464-.53-.49-1.061-.981-1.063-.983c-.348-.335-.679-.688-1.02-1.031-.671-.7-1.368-1.373-2.022-2.091l-1.938-2.182c-.33-.359-.638-.737-.941-1.119l-.92-1.14-.922-1.142c-.3-.384-.583-.786-.876-1.179-.576-.793-1.169-1.576-1.734-2.38-1.086-1.638-2.212-3.26-3.2-4.97-1.056-1.673-1.971-3.431-2.932-5.17-.459-.88-.886-1.778-1.331-2.669l-.661-1.34-.607-1.366c-.4-.913-.819-1.821-1.206-2.741l-1.1-2.79c-.385-.925-.7-1.876-1.034-2.822l-.5-1.42c-.166-.474-.338-.946-.477-1.429-.587-1.921-1.2-3.84-1.673-5.8l-.381-1.463-.191-.731-.164-.738-.648-2.957-.162-.74-.135-.745-.267-1.491-.267-1.492c-.092-.5-.179-.995-.241-1.5-.268-2-.579-4.005-.741-6.024-.445-4.026-.564-8.082-.627-12.133l.063-3.035.031-1.509c.011-.5.055-1.013.08-1.52l.181-3.044c.065-1.013.188-2.017.28-3.026.164-2.019.476-4.019.745-6.023.063-.5.149-1,.242-1.5l.268-1.492.268-1.491.136-.745.163-.74.651-2.956.164-.738.191-.732.382-1.462c.479-1.957,1.089-3.875,1.677-5.8.139-.482.312-.954.478-1.428l.5-1.42c.333-.945.651-1.9,1.036-2.82l1.107-2.788c.388-.92.807-1.827,1.208-2.739l.608-1.366.662-1.339c.446-.889.874-1.787,1.333-2.667.962-1.737,1.879-3.494,2.935-5.165.993-1.709,2.12-3.329,3.207-4.965.566-.8,1.158-1.586,1.735-2.378.293-.392.573-.794.876-1.178l.922-1.141.92-1.139c.3-.381.611-.759.941-1.117l1.938-2.179c.654-.717,1.351-1.392,2.022-2.088.341-.343.671-.7,1.02-1.03l1.063-.982,1.061-.98.53-.489.552-.463,2.21-1.839c.753-.59,1.528-1.148,2.288-1.722s1.552-1.1,2.341-1.627c1.554-1.091,3.208-2.01,4.828-2.962l2.5-1.286.624-.32.641-.283,1.281-.564a55.626,55.626,0,0,1,10.5-3.427,52.806,52.806,0,0,1,10.731-1.287c.45-.01.882-.036,1.344-.034l1.324.043,1.32.043c.439.017.877.017,1.317.073l2.627.26c.439.032.869.108,1.3.181l1.288.214,1.284.214c.427.073.844.19,1.265.283.84.2,1.679.387,2.511.595,1.636.51,3.285.943,4.854,1.573l1.185.439.591.219c.2.076.385.167.577.25l2.291,1.012c.189.086.382.164.568.256l.553.284,1.1.567c.73.384,1.475.733,2.168,1.167A70.232,70.232,0,0,1,856.245,666.9a85.508,85.508,0,0,1,10.919,13.531,97.908,97.908,0,0,1,7.488,13.8,102.5,102.5,0,0,1,4.788,12.955l.457,1.518.39,1.5.75,2.909.612,2.8.295,1.35c.091.445.162.889.242,1.324.3,1.745.63,3.391.818,4.958.211,1.564.441,3.025.552,4.4.126,1.37.282,2.635.355,3.8s.134,2.222.191,3.169.077,1.785.094,2.509.029,1.332.04,1.822c.021.981.032,1.486.032,1.486Zm-1.562-.015s-.008-.5-.025-1.468c-.008-.484-.018-1.086-.03-1.8s-.015-1.543-.08-2.478l-.173-3.131c-.066-1.15-.214-2.4-.332-3.753-.1-1.356-.323-2.8-.523-4.346-.178-1.549-.491-3.176-.783-4.9-.077-.431-.144-.869-.232-1.309l-.284-1.334-.59-2.77-.727-2.876-.378-1.486-.444-1.5a102.677,102.677,0,0,0-4.583-12.851A96.758,96.758,0,0,0,866.284,681a84.478,84.478,0,0,0-10.643-13.5,67.961,67.961,0,0,0-14.682-11.533c-.684-.435-1.419-.784-2.138-1.169l-1.087-.568-.545-.285c-.183-.093-.374-.171-.56-.257l-2.26-1.015c-.19-.083-.377-.174-.57-.251l-.583-.22-1.17-.442c-1.548-.638-3.182-1.06-4.8-1.57-.822-.206-1.653-.393-2.483-.592-.417-.093-.829-.209-1.252-.282l-1.27-.213-1.274-.214c-.425-.073-.851-.149-1.282-.181l-2.586-.262c-.43-.056-.871-.058-1.31-.075l-1.32-.045-1.324-.045c-.422,0-.875.026-1.312.038a52.22,52.22,0,0,0-10.613,1.31,52.914,52.914,0,0,0-10.367,3.448l-1.261.568-.632.284-.615.322-2.464,1.292c-1.594.957-3.221,1.877-4.748,2.969-.775.528-1.558,1.047-2.293,1.638s-1.5,1.139-2.238,1.732l-2.159,1.847-.539.464-.517.491-1.035.982-1.037.983c-.34.335-.662.688-.993,1.031-.654.7-1.332,1.372-1.969,2.089l-1.884,2.179c-.321.358-.62.735-.914,1.116l-.893,1.137-.894,1.138c-.295.383-.565.784-.85,1.175-.558.79-1.133,1.57-1.68,2.371-1.051,1.631-2.141,3.243-3.1,4.944-1.02,1.663-1.9,3.41-2.827,5.136-.441.874-.851,1.766-1.279,2.649l-.636,1.329-.581,1.356c-.383.906-.784,1.805-1.155,2.718l-1.054,2.765c-.368.916-.668,1.858-.984,2.8l-.472,1.406c-.157.469-.321.936-.452,1.414-.549,1.9-1.146,3.795-1.6,5.73l-.365,1.444-.182.722-.156.729-.617,2.919-.155.73-.127.735-.252,1.472L745,721.346c-.088.49-.169.982-.227,1.477-.259,1.976-.56,3.949-.715,5.94-.087.993-.206,1.987-.266,2.98l-.167,2.98c-.024.5-.065.991-.075,1.493l-.027,1.509-.053,3A124.376,124.376,0,0,0,745.8,764.51l.619,2.918.156.729.183.722.366,1.444c.454,1.934,1.052,3.825,1.6,5.727.131.477.3.944.453,1.413l.473,1.406c.317.936.618,1.877.986,2.793l1.056,2.763c.371.912.773,1.811,1.157,2.716l.582,1.355.637,1.328c.428.883.839,1.773,1.281,2.647.927,1.724,1.809,3.47,2.83,5.131.958,1.7,2.049,3.309,3.1,4.939.548.8,1.122,1.579,1.681,2.368.284.391.555.792.85,1.174l.895,1.137.893,1.135c.295.381.593.758.914,1.115l1.884,2.175c.637.716,1.315,1.39,1.968,2.086.332.343.654.7.993,1.03l1.036.982,1.035.981.517.49.539.463,2.158,1.844c.735.591,1.493,1.152,2.236,1.728s1.517,1.108,2.292,1.634c1.527,1.089,3.154,2.005,4.747,2.958l2.463,1.287.614.321.631.283,1.26.566a53.832,53.832,0,0,0,10.351,3.441c.44.1.874.22,1.316.3l1.327.225,1.324.225.66.112.663.069,2.644.272c.885.065,1.779.073,2.664.112.438.012.9.041,1.315.039l1.315-.046,1.311-.046c.436-.018.872-.019,1.3-.076l2.589-.263c.431-.032.856-.108,1.281-.182l1.272-.215,1.268-.214c.421-.074.833-.191,1.249-.283.829-.2,1.658-.387,2.479-.593,1.614-.51,3.244-.937,4.79-1.569l1.169-.439.583-.219c.193-.077.379-.167.569-.25l2.258-1.01c.187-.086.377-.163.56-.255l.545-.284,1.086-.566c.719-.383,1.454-.73,2.137-1.164A67.657,67.657,0,0,0,855.6,813.911a84.441,84.441,0,0,0,10.645-13.486,96.732,96.732,0,0,0,7.248-13.71,102.662,102.662,0,0,0,4.592-12.844l.445-1.5.379-1.485.729-2.875.592-2.769.285-1.334c.088-.44.156-.878.233-1.309.293-1.725.608-3.351.786-4.9.2-1.545.423-2.989.527-4.345.119-1.353.268-2.605.334-3.752l.175-3.121c.066-.929.069-1.765.082-2.484s.023-1.324.032-1.811c.017-.974.026-1.477.026-1.477Z" transform="translate(-741.693 -647.714)" fill="#fff"/>
      </g>
      <g id="Grupo_40214" data-name="Grupo 40214" transform="translate(7.427 55.793)" style="mix-blend-mode: soft-light;isolation: isolate">
        <path id="Caminho_14288" data-name="Caminho 14288" d="M630.731,1173.086l7.346-.076,19.368-.143,27.382-.119,31.389-.047,31.389.056,14.442.057,12.94.071c8.014.036,14.693.12,19.368.154l7.346.081a.069.069,0,0,1,0,.138l-7.346.081c-4.675.034-11.354.117-19.368.153l-12.94.071-14.442.057-31.389.056-31.389-.046-27.382-.118-19.368-.143-7.346-.076a.1.1,0,0,1,0-.205Z" transform="translate(-630.629 -1172.702)" fill="#fff"/>
      </g>
      <g id="Grupo_40215" data-name="Grupo 40215" transform="translate(32.22 19.998)" style="mix-blend-mode: soft-light;isolation: isolate">
        <path id="Caminho_14289" data-name="Caminho 14289" d="M864.03,836.268l5.216-.076,13.75-.143,9.187-.063c3.26-.019,6.7-.056,10.254-.055l22.285-.047,22.285.056c3.556,0,6.994.03,10.254.057l9.187.071c5.69.036,10.431.12,13.75.154l5.216.081a.069.069,0,0,1,0,.138l-5.216.081c-3.319.033-8.061.117-13.75.153l-9.187.071c-3.26.027-6.7.054-10.254.057l-22.285.055-22.285-.046c-3.556,0-6.994-.036-10.254-.055L883,836.692l-13.75-.143-5.216-.076a.1.1,0,0,1,0-.205Z" transform="translate(-863.929 -835.884)" fill="#fff"/>
      </g>
      <g id="Grupo_40216" data-name="Grupo 40216" transform="translate(0 91.588)" style="mix-blend-mode: soft-light;isolation: isolate">
        <path id="Caminho_14290" data-name="Caminho 14290" d="M560.848,1509.9l7.985-.076,21.05-.143,29.761-.118,34.116-.047,34.116.055,15.7.057,14.064.071,21.051.154,7.985.081a.069.069,0,0,1,0,.138l-7.985.081-21.051.153-14.064.071-15.7.057-34.116.056-34.116-.047-29.761-.118-21.05-.143-7.985-.076a.1.1,0,0,1,0-.205Z" transform="translate(-560.746 -1509.521)" fill="#fff"/>
      </g>
      <g id="Grupo_40217" data-name="Grupo 40217" transform="translate(7.427 127.383)" style="mix-blend-mode: soft-light;isolation: isolate">
        <path id="Caminho_14291" data-name="Caminho 14291" d="M630.731,1846.723l7.346-.076,19.368-.143,27.382-.118,31.389-.047,31.389.056,14.442.057,12.94.071c8.014.036,14.693.12,19.368.154l7.346.081a.069.069,0,0,1,0,.138l-7.346.081c-4.675.033-11.354.118-19.368.153l-12.94.071-14.442.057-31.389.055-31.389-.046-27.382-.118L638.077,1847l-7.346-.076a.1.1,0,0,1,0-.205Z" transform="translate(-630.629 -1846.339)" fill="#fff"/>
      </g>
      <path id="Caminho_14292" data-name="Caminho 14292" d="M1012.011,2185.069H890.627a.36.36,0,1,1,0-.72h121.384a.36.36,0,0,1,0,.72Z" transform="translate(-855.247 -2021.045)" fill="#fff" style="mix-blend-mode: soft-light;isolation: isolate"/>
    </g>
    <path id="Caminho_14293" data-name="Caminho 14293" d="M688.359,1462.268V1595.4c0,10.952,7.872,19.908,17.748,20.19,43.863,1.254,197.275,4.295,239.03,3.612,7.177-.117,12.99-6.484,13.2-14.437.805-30.928,2.113-105.3-2.726-139.829-1.019-7.271-6.555-12.709-13.19-12.944-36.752-1.3-199.379-5.442-241.114-4.4C694.107,1447.769,688.359,1454.287,688.359,1462.268Z" transform="translate(-226.194 -893.191)" fill="#414141"/>
    <path id="Caminho_14294" data-name="Caminho 14294" d="M772.416,1510.625V1637.11c0,6.394,4.631,11.6,10.4,11.7L1015.708,1652c5.719.095,10.407-5,10.428-11.344l.39-125.354c.015-4.533-3.243-8.247-7.332-8.357L780.756,1501.6C776.183,1501.48,772.416,1505.556,772.416,1510.625Z" transform="translate(-301.317 -941.611)" fill="#babebf"/>
    <path id="Caminho_14295" data-name="Caminho 14295" d="M853.188,1558.362v114.562c0,5.792,4.35,10.51,9.768,10.6l218.746,2.888c5.372.086,9.775-4.533,9.795-10.275l.366-113.538a7.33,7.33,0,0,0-6.886-7.57l-223.955-4.836A7.908,7.908,0,0,0,853.188,1558.362Z" transform="translate(-373.505 -985.035)" fill="#fff"/>
    <path id="Caminho_14296" data-name="Caminho 14296" d="M1025.168,2919.226h-.006L769.688,2914.4a.324.324,0,0,1-.317-.33.33.33,0,0,1,.33-.317l255.474,4.825a.324.324,0,0,1-.006.647Z" transform="translate(-298.595 -2203.688)" fill="#414141"/>
    <path id="Caminho_14297" data-name="Caminho 14297" d="M1082.092,1982.069A15.336,15.336,0,0,1,1067.133,1968l-1.418-17.728a15.01,15.01,0,0,1,3.812-11.366,13.718,13.718,0,0,1,10.172-4.458l138.409-.254a13.47,13.47,0,0,1,10.688,4.876,14.321,14.321,0,0,1,2.721,12l-3.789,18.593c-1.575,7.728-9.1,13.782-17.134,13.782Z" transform="translate(-563.401 -1328.233)" fill="#3c7326"/>
    <path id="Caminho_14298" data-name="Caminho 14298" d="M1248.375,1968.066l-138.409.254c-6.278.012-10.921,5.455-10.4,11.937l1.418,17.728a11.789,11.789,0,0,0,11.41,10.754l128.329,1.379a14.219,14.219,0,0,0,13.742-10.9l3.788-18.593C1259.637,1973.822,1255.234,1968.053,1248.375,1968.066Z" transform="translate(-593.662 -1358.503)" fill="#1f6022"/>
    <g id="Grupo_40220" data-name="Grupo 40220" transform="translate(517.632 613.175)">
      <g id="Grupo_40219" data-name="Grupo 40219" transform="translate(0 5.42)">
        <path id="Caminho_14299" data-name="Caminho 14299" d="M1241.083,2056.8l-6.388,19.516h-.025a2.707,2.707,0,0,1-1.886,1.836h-.025c-.025,0-.075.025-.1.025h-.05c-.025,0-.05.025-.075.025h-.6c-.025,0-.05-.025-.075-.025h-.05c-.025,0-.075-.025-.1-.025h-.025a2.786,2.786,0,0,1-1.911-1.836l-4.024-12.3-4.024,12.3a2.707,2.707,0,0,1-1.886,1.836h-.025c-.05,0-.075.025-.1.025h-.05c-.025,0-.05.025-.076.025h-.6c-.025,0-.05-.025-.075-.025h-.05c-.05,0-.075-.025-.1-.025h-.025a2.74,2.74,0,0,1-1.912-1.836l-6.388-19.516v-.05a3,3,0,0,1-.151-.931,2.75,2.75,0,0,1,1.735-2.615,2.117,2.117,0,0,1,.78-.126,2.629,2.629,0,0,1,2.465,1.936c.025.05,2.213,6.715,4.024,12.248,1.81-5.533,4-12.2,4-12.248a2.81,2.81,0,0,1,1.559-1.76l.025-.025c.025,0,.05-.025.076-.025h.025c.025,0,.025-.025.05-.025h.05a.093.093,0,0,1,.075-.025l.025-.025c.05,0,.075,0,.1-.025h.025c.05,0,.075,0,.1-.025h.151c.05,0,.075,0,.1-.025h.226a.091.091,0,0,0,.075.025h.151a.224.224,0,0,0,.126.025.192.192,0,0,0,.1.025c.025,0,.025,0,.025.025.05,0,.075,0,.1.025h.05a.088.088,0,0,0,.05.025h.025c.025,0,.05.025.075.025l.025.025a2.809,2.809,0,0,1,1.559,1.76c0,.05,2.188,6.715,4,12.248,1.811-5.533,4-12.2,4-12.248a2.681,2.681,0,0,1,2.49-1.936,2.118,2.118,0,0,1,.78.126,2.75,2.75,0,0,1,1.735,2.615,3,3,0,0,1-.151.931Z" transform="translate(-1210.275 -2053.053)" fill="#fff"/>
        <path id="Caminho_14300" data-name="Caminho 14300" d="M1544.246,2056.8l-6.388,19.516h-.025a2.707,2.707,0,0,1-1.886,1.836h-.025c-.025,0-.076.025-.1.025h-.05c-.025,0-.05.025-.075.025h-.6c-.025,0-.05-.025-.076-.025h-.05c-.025,0-.076-.025-.1-.025h-.025a2.785,2.785,0,0,1-1.911-1.836l-4.024-12.3-4.024,12.3a2.707,2.707,0,0,1-1.886,1.836h-.025c-.051,0-.076.025-.1.025h-.05c-.025,0-.05.025-.075.025h-.6c-.025,0-.05-.025-.075-.025h-.05c-.05,0-.075-.025-.1-.025h-.026a2.739,2.739,0,0,1-1.911-1.836l-6.388-19.516v-.05a3,3,0,0,1-.151-.931,2.75,2.75,0,0,1,1.735-2.615,2.117,2.117,0,0,1,.78-.126,2.629,2.629,0,0,1,2.465,1.936c.025.05,2.213,6.715,4.024,12.248,1.811-5.533,4-12.2,4-12.248a2.808,2.808,0,0,1,1.559-1.76l.025-.025c.025,0,.051-.025.076-.025h.025c.025,0,.025-.025.05-.025h.05a.093.093,0,0,1,.075-.025l.025-.025c.05,0,.076,0,.1-.025h.025c.05,0,.075,0,.1-.025h.151c.05,0,.075,0,.1-.025h.226a.092.092,0,0,0,.075.025h.151a.224.224,0,0,0,.125.025.193.193,0,0,0,.1.025c.025,0,.025,0,.025.025.05,0,.076,0,.1.025h.05a.088.088,0,0,0,.05.025h.025c.025,0,.05.025.075.025l.025.025a2.808,2.808,0,0,1,1.559,1.76c0,.05,2.188,6.715,4,12.248,1.811-5.533,4-12.2,4-12.248a2.681,2.681,0,0,1,2.49-1.936,2.117,2.117,0,0,1,.78.126,2.75,2.75,0,0,1,1.735,2.615,3.006,3.006,0,0,1-.151.931Z" transform="translate(-1481.22 -2053.053)" fill="#fff"/>
        <path id="Caminho_14301" data-name="Caminho 14301" d="M1847.408,2056.8l-6.388,19.516h-.025a2.706,2.706,0,0,1-1.886,1.836h-.025c-.025,0-.076.025-.1.025h-.05c-.025,0-.05.025-.075.025h-.6c-.025,0-.05-.025-.075-.025h-.05c-.025,0-.075-.025-.1-.025H1838a2.786,2.786,0,0,1-1.911-1.836l-4.024-12.3-4.024,12.3a2.707,2.707,0,0,1-1.886,1.836h-.025c-.05,0-.075.025-.1.025h-.05c-.025,0-.05.025-.075.025h-.6c-.025,0-.05-.025-.075-.025h-.05c-.05,0-.075-.025-.1-.025h-.025a2.74,2.74,0,0,1-1.912-1.836l-6.388-19.516v-.05a3.006,3.006,0,0,1-.151-.931,2.75,2.75,0,0,1,1.735-2.615,2.115,2.115,0,0,1,.78-.126,2.629,2.629,0,0,1,2.465,1.936c.025.05,2.213,6.715,4.024,12.248,1.811-5.533,4-12.2,4-12.248a2.81,2.81,0,0,1,1.559-1.76l.025-.025c.025,0,.05-.025.075-.025h.025c.025,0,.025-.025.05-.025h.051a.092.092,0,0,1,.075-.025l.025-.025c.05,0,.075,0,.1-.025h.025c.05,0,.075,0,.1-.025h.151c.05,0,.075,0,.1-.025h.226a.092.092,0,0,0,.075.025h.151a.225.225,0,0,0,.126.025.193.193,0,0,0,.1.025c.025,0,.025,0,.025.025.05,0,.075,0,.1.025h.05a.089.089,0,0,0,.051.025h.025c.025,0,.05.025.075.025l.025.025a2.81,2.81,0,0,1,1.559,1.76c0,.05,2.188,6.715,4,12.248,1.811-5.533,4-12.2,4-12.248a2.682,2.682,0,0,1,2.49-1.936,2.115,2.115,0,0,1,.78.126,2.75,2.75,0,0,1,1.735,2.615,3.013,3.013,0,0,1-.151.931Z" transform="translate(-1752.163 -2053.053)" fill="#fff"/>
      </g>
      <path id="Caminho_14302" data-name="Caminho 14302" d="M2152.686,2033.007a1.08,1.08,0,0,1-1.08,1.08h0a1.08,1.08,0,0,1-1.08-1.08v-29.875a1.08,1.08,0,0,1,1.08-1.08h0a1.08,1.08,0,0,1,1.08,1.08Z" transform="translate(-2050.602 -2002.052)" fill="#fff"/>
    </g>
    <path id="Caminho_14303" data-name="Caminho 14303" d="M2338.275,2085.172l-16.107-19.65a.583.583,0,0,1,.314-.937l14.227-3.414a1.479,1.479,0,0,0,.445-2.688l-40.592-25.654a1.479,1.479,0,0,0-2.249,1.491l8.439,50.962a1.478,1.478,0,0,0,2.729.515l7.875-13.219a.583.583,0,0,1,.96-.06l15,19.24a2.652,2.652,0,0,0,3.583.563l4.814-3.273a2.652,2.652,0,0,0,.56-3.875Z" transform="translate(-1661.459 -1416.178)" fill="#00A443"/>
    <g id="Grupo_40222" data-name="Grupo 40222" transform="translate(697.655 623.288)">
      <path id="Caminho_14304" data-name="Caminho 14304" d="M2927.012,2098.248l-19.907-1.036a2.7,2.7,0,0,0-2.877,2.821l.514,18.307a2.685,2.685,0,0,0,2.873,2.563l18.9-.934a2.6,2.6,0,0,0,2.378-2.546l.461-16.4A2.617,2.617,0,0,0,2927.012,2098.248Z" transform="translate(-2904.227 -2097.209)" fill="#1f6022"/>
      <g id="Grupo_40221" data-name="Grupo 40221" transform="translate(3.408 4.285)">
        <path id="Caminho_14305" data-name="Caminho 14305" d="M2952.482,2151.928h-14.016a2.173,2.173,0,0,1-2.171-2.171V2139.7a2.173,2.173,0,0,1,2.171-2.171h14.016a2.174,2.174,0,0,1,2.171,2.171v10.056A2.174,2.174,0,0,1,2952.482,2151.928Zm-14.016-12.6a.372.372,0,0,0-.371.371v10.056a.372.372,0,0,0,.371.371h14.016a.372.372,0,0,0,.371-.371V2139.7a.372.372,0,0,0-.371-.371Z" transform="translate(-2936.296 -2137.53)" fill="#fff"/>
        <path id="Caminho_14306" data-name="Caminho 14306" d="M2948.13,2152.691a.9.9,0,0,1-.521-.166l-7.815-5.542a.9.9,0,0,1,1.041-1.468l7.294,5.173,7.2-5.112a.9.9,0,1,1,1.042,1.467l-7.718,5.482A.9.9,0,0,1,2948.13,2152.691Z" transform="translate(-2939.083 -2144.518)" fill="#fff"/>
        <path id="Caminho_14307" data-name="Caminho 14307" d="M2941.65,2187.893l-.267-1.779.125.891-.758-.485c.16-.259,2.969-5.172,4.818-8.412a.9.9,0,0,1,1.563.893s-1.206,2.112-2.414,4.224c-.6,1.057-1.209,2.113-1.665,2.906C2942.081,2187.825,2942.081,2187.825,2941.65,2187.893Z" transform="translate(-2940.277 -2173.39)" fill="#fff"/>
        <path id="Caminho_14308" data-name="Caminho 14308" d="M3046.091,2187.89c-.428-.071-.428-.071-1.4-1.761-.455-.792-1.06-1.849-1.664-2.906-1.208-2.113-2.414-4.224-2.414-4.224a.9.9,0,0,1,1.563-.892c1.849,3.238,4.657,8.15,4.818,8.411l-.758.485Z" transform="translate(-3029.422 -2173.388)" fill="#fff"/>
      </g>
    </g>
    <g id="Grupo_40224" data-name="Grupo 40224" transform="translate(458.032 518.793)">
      <path id="Caminho_14309" data-name="Caminho 14309" d="M831.772,1315.712a4.318,4.318,0,1,1-1.264-5.974A4.322,4.322,0,0,1,831.772,1315.712Zm-5.8-3.775a2.6,2.6,0,1,0,3.6-.762A2.607,2.607,0,0,0,825.971,1311.937Z" transform="translate(-805.305 -1288.309)" fill="#fff"/>
      <g id="Grupo_40223" data-name="Grupo 40223">
        <path id="Caminho_14310" data-name="Caminho 14310" d="M767.134,1245.586a9.221,9.221,0,0,1,12.744-2.7,8.942,8.942,0,0,1,.754.55.628.628,0,0,0,.973-.218l.563-1.233a.632.632,0,0,0-.2-.765q-.335-.255-.692-.488a11.8,11.8,0,0,0-16.3,3.449,11.606,11.606,0,0,0-.715,1.268.63.63,0,0,0,.314.855l1.213.525a.623.623,0,0,0,.809-.3A8.783,8.783,0,0,1,767.134,1245.586Z" transform="translate(-752.006 -1225.561)" fill="#fff"/>
        <path id="Caminho_14311" data-name="Caminho 14311" d="M710.265,1186.138A15.869,15.869,0,0,1,732.2,1181.5l.006,0a.623.623,0,0,0,.91-.257l.552-1.209-.23-.8a18.443,18.443,0,0,0-25.323,5.5,18.255,18.255,0,0,0-1.258,2.277.623.623,0,0,0,.324.829l1.21.523a.622.622,0,0,0,.812-.3A15.7,15.7,0,0,1,710.265,1186.138Z" transform="translate(-700.703 -1169.734)" fill="#fff"/>
        <path id="Caminho_14312" data-name="Caminho 14312" d="M653.457,1126.737a22.516,22.516,0,0,1,30.3-7.088.628.628,0,0,0,.9-.273l.548-1.2a.628.628,0,0,0-.249-.8,25.021,25.021,0,0,0-35.435,11.222.627.627,0,0,0,.326.831l1.208.523a.627.627,0,0,0,.819-.32A22.351,22.351,0,0,1,653.457,1126.737Z" transform="translate(-649.461 -1113.955)" fill="#fff"/>
      </g>
    </g>
    <path id="Caminho_14313" data-name="Caminho 14313" d="M2766.844,1834.52l-20.1-1.046a2.73,2.73,0,0,0-2.9,2.848l.52,18.484a2.711,2.711,0,0,0,2.9,2.588l19.085-.943a2.625,2.625,0,0,0,2.4-2.57l.466-16.557A2.643,2.643,0,0,0,2766.844,1834.52Z" transform="translate(-2063.229 -1238.211)" fill="#1f6022"/>
    <path id="Caminho_14314" data-name="Caminho 14314" d="M2790.918,1863.188h-14.208c-1.316,0-2.986.957-2.986,2.315v7.9c0,1.3,1.684,2.381,2.986,2.381h9.774c.337,0,.558.625.558.961v1.168c0,.481.46.659.7.738a.926.926,0,0,0,.534.2.672.672,0,0,0,.512-.232l2.126-2.482c1.328-.029,1.89-1.43,1.89-2.732v-7.9C2792.8,1864.21,2792.211,1863.188,2790.918,1863.188Zm.442,10.218c0,.611.051,1.3-.442,1.3h-.531l-2.626,2.5v-1.716c0-.337.32-.78-.017-.78h-11.035c-.605,0-1.907-.7-1.907-1.3v-7.577c0-.883,1.3-.84,1.907-.84h14.208c.6,0,.442-.086.442.515Z" transform="translate(-2089.938 -1264.771)" fill="#fff"/>
    <path id="Caminho_14315" data-name="Caminho 14315" d="M2811.11,1897.417a.36.36,0,0,1-.36.36h-12.958a.36.36,0,0,1-.36-.36h0a.36.36,0,0,1,.36-.36h12.958a.36.36,0,0,1,.36.36Z" transform="translate(-2111.126 -1295.041)" fill="#fff"/>
    <path id="Caminho_14316" data-name="Caminho 14316" d="M2811.11,1917.739a.36.36,0,0,1-.36.36h-12.958a.36.36,0,0,1-.36-.36h0a.36.36,0,0,1,.36-.36h12.958a.36.36,0,0,1,.36.36Z" transform="translate(-2111.126 -1313.203)" fill="#fff"/>
    <path id="Caminho_14317" data-name="Caminho 14317" d="M2811.11,1948.222a.36.36,0,0,1-.36.36h-12.958a.36.36,0,0,1-.36-.36h0a.36.36,0,0,1,.36-.36h12.958a.36.36,0,0,1,.36.36Z" transform="translate(-2111.126 -1340.446)" fill="#fff"/>
    <path id="Caminho_14318" data-name="Caminho 14318" d="M2133.3,1355.983c.046-.018,24.641-43.089,27.965-47.143a2.576,2.576,0,0,1,2.3-.925l6.865.818,8.065,17.447-13.436-7.825c1.329,9.195-15.931,22.859-21.85,27.845a1.359,1.359,0,0,0-.107,1.98l2.363,2.474a27.145,27.145,0,0,1-13.41,7.626Z" transform="translate(-1516.458 -768.493)" fill="url(#linear-gradient)"/>
    <path id="Caminho_14319" data-name="Caminho 14319" d="M2131.33,1697.671a3.482,3.482,0,0,1,2.019,1.831,1.537,1.537,0,0,1-.578,1.771c-2.484,1.779-10.676,7.524-14.456,8.649a.427.427,0,0,1-.535-.5,13.613,13.613,0,0,1,2.843-5.2l-.181.367a.525.525,0,0,0,.727.693C2123.7,1703.851,2128.847,1700.727,2131.33,1697.671Z" transform="translate(-1503.695 -1116.844)" fill="url(#linear-gradient-2)"/>
    <path id="Caminho_14320" data-name="Caminho 14320" d="M2227.57,1407.52c.041-.027,3.731-8.917,3.772-8.944a156.549,156.549,0,0,1,14.073-42.883,2.576,2.576,0,0,1,2.065-1.371l6.888-.588,11.429,15.454-14.741-4.944c3.163,8.735-10.974,25.61-15.763,31.691a1.36,1.36,0,0,0,.3,1.961l2.815,1.944a27.14,27.14,0,0,1-11.589,10.182Z" transform="translate(-1601.151 -809.458)" fill="url(#linear-gradient-3)"/>
    <path id="Caminho_14321" data-name="Caminho 14321" d="M2229.119,1777.88a3.479,3.479,0,0,1,2.348,1.384,1.536,1.536,0,0,1-.208,1.852c-2.072,2.245-8.932,9.529-12.406,11.4a.428.428,0,0,1-.626-.385,13.622,13.622,0,0,1,1.732-5.667l-.1.4a.525.525,0,0,0,.852.531C2222.9,1785.477,2227.307,1781.375,2229.119,1777.88Z" transform="translate(-1593.476 -1188.529)" fill="url(#linear-gradient-4)"/>
    <g id="Grupo_40225" data-name="Grupo 40225" transform="translate(647.103 539.423)">
      <path id="Caminho_14322" data-name="Caminho 14322" d="M2466.907,1309.667s6.231,9.269,6.743,13.5-1.723,5.69-8.245,6.229c-19.409,1.6-28.977-4.212-28.977-4.212,1.454-4.035,3.21-12.509-7.878-17.111,0,0,9.155,1.467,11.979.371S2466.907,1309.667,2466.907,1309.667Z" transform="translate(-2428.549 -1308.069)" fill="#0965b9"/>
    </g>
    <path id="Caminho_14323" data-name="Caminho 14323" d="M2458.443,825.254c.107.813,14.253,40.181,14.253,40.181l21.65,3.393a9.446,9.446,0,0,0,10.043-5.383h0a19,19,0,0,0-9.33-25.212l-3.2-1.468c-4.768-2.19-9.441-5.97-13.548-9.942a19.817,19.817,0,0,0-12.8-5.5h0Z" transform="translate(-1808.163 -333.63)" fill="url(#linear-gradient-5)"/>
    <path id="Caminho_14324" data-name="Caminho 14324" d="M2389.707,1143.6s7.4,8.862,14.851,1.665l2.879,6.676s-10.881,8.425-19.135-4.831Z" transform="translate(-1745.477 -621.654)" fill="url(#linear-gradient-6)"/>
    <path id="Caminho_14325" data-name="Caminho 14325" d="M2522.624,1029.02a142.231,142.231,0,0,1-10.829-11.486,9.71,9.71,0,0,1-1.644-8.739c1.631-5.494,4.529-11.185,4.793-12.07.4-1.358,8.542-1.3,8.542-1.3s7.661,1.191,7.721,14.171a16.96,16.96,0,0,0,2.484,8.758c1.849,3.026,3.648,7.569,5.785,11.9Z" transform="translate(-1854.016 -489.226)" fill="#FF9C1A"/>
    <path id="Caminho_14326" data-name="Caminho 14326" d="M2546.059,896.749l5.469,10.169c-.361,2.22-5.952,2.282-6.815.957a1.31,1.31,0,0,1-.171-.448l-3.271-6.795c-.141-.663,1.675-2.9,2.273-3.213l2.173-1.157C2546.553,895.815,2543.061,895.781,2546.059,896.749Z" transform="translate(-1882.181 -400.335)" fill="url(#linear-gradient-7)"/>
    <g id="Grupo_40226" data-name="Grupo 40226" transform="translate(649.038 487.418)">
      <path id="Caminho_14327" data-name="Caminho 14327" d="M2481.752,860.092s-.617,3.436,2.083,7.8,5.389,4.171,6.756,2.613a9.6,9.6,0,0,0,2.258-8.509C2492.1,857.643,2482.685,855.711,2481.752,860.092Z" transform="translate(-2477.979 -853.483)" fill="url(#linear-gradient-8)"/>
      <path id="Caminho_14328" data-name="Caminho 14328" d="M2458.359,827.716s-4.373-5.743-7.729-.737l.056,1.729s-4.365-.2-3.892-4.228,4.037-6.772,8.978-5.4,7.828,2.94,8.385,6.371-2.243,2.87-2.243,2.87-1.07-2.367-2.362-2.529-.825,1.711-.825,1.711Z" transform="translate(-2446.758 -818.726)" fill="url(#linear-gradient-9)"/>
      <path id="Caminho_14329" data-name="Caminho 14329" d="M2556.364,871.438s-2.265-2.939-.2-3.549,1.985,2.88,1.85,4.178Z" transform="translate(-2543.759 -862.601)" fill="url(#linear-gradient-10)"/>
    </g>
    <path id="Caminho_14330" data-name="Caminho 14330" d="M2486.391,1154.241s-15.605-2.173-20.743-6.98c0,0-2.486-2.348-4.281-2.634-.967-.154-2.058-.256-2.858-.318a.361.361,0,0,0-.237.654,4.769,4.769,0,0,0,1.993.912c1.27.132-.084,1.063,1.3,3.494s3.358,1.515,3.358,1.515,10.339,8.908,20.216,8.833C2485.14,1159.715,2487.577,1158.916,2486.391,1154.241Z" transform="translate(-1807.874 -622.288)" fill="url(#linear-gradient-11)"/>
    <g id="Grupo_40227" data-name="Grupo 40227" transform="translate(638.801 515.116)">
      <path id="Caminho_14331" data-name="Caminho 14331" d="M2351,1080.083l5.393-.711a1.707,1.707,0,0,1,1.7.967l3.548,7.842c.667,1.172.192,2.726-.888,2.905l-4.331.555a1.06,1.06,0,0,1-1.074-.659l-4.8-9.576C2350.274,1080.852,2350.506,1080.164,2351,1080.083Z" transform="translate(-2350.432 -1079.354)" fill="url(#linear-gradient-12)"/>
    </g>
    <path id="Caminho_14332" data-name="Caminho 14332" d="M2660.036,1021.8s14.7,21.768,2.251,26.765l-2.251-6.072s1.488-3.363-2.9-11.8a7.21,7.21,0,0,1-.8-3.612C2656.484,1023.425,2657.141,1016.648,2660.036,1021.8Z" transform="translate(-1985.02 -511.133)" fill="#FF9C1A"/>
    <path id="Caminho_14333" data-name="Caminho 14333" d="M2664.631,1130.952a.262.262,0,0,0,.24-.156c.063-.142,1.489-3.576-2.9-12.03a.263.263,0,1,0-.467.243c4.25,8.182,2.9,11.542,2.888,11.575a.264.264,0,0,0,.137.346A.261.261,0,0,0,2664.631,1130.952Z" transform="translate(-1989.615 -599.334)" fill="#e88725"/>
    <path id="Caminho_14334" data-name="Caminho 14334" d="M2363.13,1120.694s-3.626-5.277-3.2-5.927,3.6-1.581,4.346-1.8S2366.423,1117.533,2363.13,1120.694Z" transform="translate(-1720.085 -594.273)" fill="url(#linear-gradient-13)"/>
    <path id="Caminho_14335" data-name="Caminho 14335" d="M2918.506,2863.624c1.456.29,9.75,5.225,9.75-.418v-6.3S2918.088,2863.541,2918.506,2863.624Z" transform="translate(-2219.323 -2152.88)" fill="url(#linear-gradient-14)"/>
    <path id="Caminho_14336" data-name="Caminho 14336" d="M2888.554,2573.142s-3.645-6.151-4.1-12.188.285-8.679-.4-10.434-4.006-8.418-4.158-6.415a8.272,8.272,0,0,0,1.063,4.091s-2.107,1.677-1.746,3.607,1.1,2.126,1.1,2.126a30.9,30.9,0,0,0,.3,4.177c.19,0-3.342,20.959.608,21.415S2888.364,2582.786,2888.554,2573.142Z" transform="translate(-2184.18 -1872.991)" fill="url(#linear-gradient-15)"/>
    <path id="Caminho_14337" data-name="Caminho 14337" d="M2851.043,2546.3c-.037-.278-2.59-5.83-2.133-6.462s.919-1.195,1.636.678,1.571,6.966,1.3,7S2851.175,2547.3,2851.043,2546.3Z" transform="translate(-2157.085 -1868.973)" fill="url(#linear-gradient-16)"/>
    <path id="Caminho_14338" data-name="Caminho 14338" d="M2560.775,3163.291a6.722,6.722,0,0,0-4.49-1.367c-1.786.313-3.882,1.894-5.233,3.065a.72.72,0,0,0-.2.816.756.756,0,0,0,.719.464c3.35-.069,9.905-.268,9.905-.762A8.661,8.661,0,0,0,2560.775,3163.291Z" transform="translate(-1890.705 -2425.463)" fill="url(#linear-gradient-17)"/>
    <path id="Caminho_14339" data-name="Caminho 14339" d="M2615.938,3138.39l-1.538,2.9s-3.475.285-3.36-1.083a9.824,9.824,0,0,1,.968-3.018Z" transform="translate(-1944.541 -2403.383)" fill="url(#linear-gradient-18)"/>
    <path id="Caminho_14340" data-name="Caminho 14340" d="M2655.2,2870.39c-2.409-13.154-4.164-21.6-4.164-21.6s-26.7-17.226-29.436-13.011-10.568,32.977-10.568,32.977l5.223,1.424s9.987-13.527,10.9-25.075c2.571,8.423,4.967,28.55,24.748,29.127a3.259,3.259,0,0,0,3.3-3.84Z" transform="translate(-1944.541 -2133.406)" fill="#075b99"/>
    <path id="Caminho_14341" data-name="Caminho 14341" d="M2435.615,3136.21l-3.189,3.019-2.506-2.506,3.3-3.816Z" transform="translate(-1782.671 -2399.551)" fill="url(#linear-gradient-19)"/>
    <path id="Caminho_14342" data-name="Caminho 14342" d="M3033.586,2588.41l6.243,8.028a1.141,1.141,0,0,1,.114,1.255,9.149,9.149,0,0,1-8.121,4.506,1.59,1.59,0,0,1-1.39-.909l-3.881-7.645Z" transform="translate(-2315.897 -1912.92)" fill="url(#linear-gradient-20)"/>
    <g id="Grupo_40228" data-name="Grupo 40228" transform="translate(697.349 654.351)">
      <path id="Caminho_14343" data-name="Caminho 14343" d="M2948.61,2475.034s-1.591,9.163.9,12.947,9.705,3.878,14.059-2.008l-.755-12.72Z" transform="translate(-2943.14 -2464.352)" fill="url(#linear-gradient-21)"/>
      <path id="Caminho_14344" data-name="Caminho 14344" d="M2918.123,2406.271a.456.456,0,0,1-.451-.53,11.912,11.912,0,0,0,.095-3.835s.693-1.045-3.095-.354-9.458,1.673-11.819-.77c-2.3-2.381-2.7-10.745,4.2-6.984a.456.456,0,0,0,.663-.287c.306-1.254,1.34-4.032,4.486-4.012,2.944.019,4.015,1.7,4.382,2.62a.453.453,0,0,0,.679.208,5.257,5.257,0,0,1,6.771.14c2.258,2.014,2.142,3.769,1.771,4.766a.454.454,0,0,0,.482.612,2.735,2.735,0,0,1,3.025,2.077c1.021,2.709-2.04,3.781-2.934,4.032a.456.456,0,0,0-.313.294c-.37,1.117-1.951,6.112-5.291,8.074-.289.17-.833-.194-.861-.529l-.431-5.1a.457.457,0,0,0-.456-.419Z" transform="translate(-2901.347 -2389.498)" fill="url(#linear-gradient-22)"/>
      <path id="Caminho_14345" data-name="Caminho 14345" d="M3051.538,2529.08s2.669-4.314,3.924-2.226-2.034,4.724-4.243,4.713Z" transform="translate(-3035.292 -2511.746)" fill="url(#linear-gradient-23)"/>
    </g>
    <path id="Caminho_14346" data-name="Caminho 14346" d="M2808.561,2659.78s-12.168,5.126-14.446,2.506-1.025-17.312-1.025-17.312l-5.126-1.369s-6.3,25.933,4.4,29.806c7.773,2.812,22.593-6.341,22.593-6.341Z" transform="translate(-2101.018 -1962.25)" fill="url(#linear-gradient-24)"/>
    <path id="Caminho_14347" data-name="Caminho 14347" d="M2935.573,2626.674c-1.848.431-3.874,2.3-5.458,4.1a14.79,14.79,0,0,0-3.473,7.4l-.044.271c-3.989,4.642-7.5,7.646-9.866,8.757a71.808,71.808,0,0,0,6.394,8.632s.478-.109,1.281-.329c-.78,7.465-1.2,13.244-1.2,13.244s8.1,8.54,17.919,10.97c8.939-6.987,10.306-26.973,10.306-26.973C2952.129,2629.04,2941.816,2625.217,2935.573,2626.674Z" transform="translate(-2217.747 -1946.875)" fill="#FF9C1A"/>
    <path id="Caminho_14348" data-name="Caminho 14348" d="M2521.44,2892.62s-4.271,12.7-25.355,5.581c-10.223-3.452-24.538-23.465-24.538-23.465s-3.531,9.682-21.985,22.668l-4.1-3.683s18.681-32.2,28.25-28.857S2524.364,2884.38,2521.44,2892.62Z" transform="translate(-1796.562 -2159.776)" fill="#0965b9"/>
    <path id="Caminho_14349" data-name="Caminho 14349" d="M2350.073,3166.495a22.81,22.81,0,0,1-4.062-1.433l-3.056.816a9.77,9.77,0,0,0-6.494,1.419.879.879,0,0,0,.437,1.634c3.017.05,7.971.1,10.48-.05C2351.137,3168.656,2351.707,3168.764,2350.073,3166.495Z" transform="translate(-1698.763 -2428.289)" fill="url(#linear-gradient-25)"/>
    <path id="Caminho_14350" data-name="Caminho 14350" d="M3031.845,2778.545a.135.135,0,0,1-.032-.266,29.538,29.538,0,0,0,6.74-2.8c3.2-1.827,7.257-5.054,8.457-10.05a.135.135,0,0,1,.262.063c-1.223,5.092-5.347,8.371-8.592,10.225a29.811,29.811,0,0,1-6.8,2.828A.13.13,0,0,1,3031.845,2778.545Z" transform="translate(-2320.507 -2071.032)" fill="#e88725"/>
    <g id="Grupo_40230-2" data-name="Grupo 40230" transform="translate(684.182 667.246)">
      <g id="Grupo_40229" data-name="Grupo 40229">
        <path id="Caminho_14351" data-name="Caminho 14351" d="M2777.506,2513.08a.814.814,0,0,1,.606-1.1l5.938-1.133a.461.461,0,0,1,.527.316l4.568,14.725a.25.25,0,0,1-.167.313l-4.964,1.49a.815.815,0,0,1-.993-.484Z" transform="translate(-2777.45 -2510.843)" fill="#686868"/>
        <path id="Caminho_14352" data-name="Caminho 14352" d="M2795.357,2522.442a.461.461,0,0,1,.355-.616l3.942-.665a.461.461,0,0,1,.518.318l3.879,12.544a.249.249,0,0,1-.18.315l-3.532.85a.249.249,0,0,1-.292-.155Z" transform="translate(-2793.428 -2520.059)" fill="#8d8f8f"/>
        <path id="Caminho_14353" data-name="Caminho 14353" d="M2813.4,2518.127c.01.046.089.069.177.05l1.3-.273c.088-.019.151-.071.142-.117l-.009-.044c-.01-.047-.089-.069-.177-.051l-1.3.273c-.088.019-.151.071-.142.117Z" transform="translate(-2809.573 -2516.958)" fill="#686868"/>
      </g>
    </g>
    <path id="Caminho_14354" data-name="Caminho 14354" d="M2789.283,2561.339c-.076-.653-2.269-4.811-1.415-6.406s1.2-4.329,2.022-3.56-.2,3.446.171,4.243,1.792,2.823,1.978,4.4,1.24,3.828-.981,4.141S2789.283,2561.339,2789.283,2561.339Z" transform="translate(-2102.403 -1879.701)" fill="url(#linear-gradient-26)"/>
    <path id="Caminho_14355" data-name="Caminho 14355" d="M3022.594,2668.6a.129.129,0,0,1-.076-.024.134.134,0,0,1-.035-.187c.251-.366,6.2-8.958,9.618-7.509a.135.135,0,1,1-.105.248c-3.221-1.367-9.231,7.326-9.291,7.413A.135.135,0,0,1,3022.594,2668.6Z" transform="translate(-2312.24 -1977.544)" fill="#e88725"/>
    <path id="Caminho_14356" data-name="Caminho 14356" d="M2892.37,2600.306a.134.134,0,0,1-.109-.056,3.852,3.852,0,0,1-.1-3.788c.035-.087.074-.184.087-.23a6.225,6.225,0,0,1-.472-2.652c.035-.21.144-.274.229-.29.468-.092,1.484,1.452,1.9,2.121a.135.135,0,1,1-.229.142,6.225,6.225,0,0,0-1.612-2h0s-.01.023-.018.071a6.059,6.059,0,0,0,.459,2.512c.048.083.014.17-.089.426a3.616,3.616,0,0,0,.072,3.531.135.135,0,0,1-.109.213Zm-.108-4.036h0Z" transform="translate(-2195.372 -1917.278)" fill="url(#linear-gradient-27)"/>
  </g>
</svg>
