<svg id="Layer_1" data-name="Layer 1" xmlns="http://www.w3.org/2000/svg" viewBox="0 0 24 24"><defs><style>.cls-1{fill:#fff;}</style></defs><path class="cls-1" d="M19,6.59H5A1.35,1.35,0,0,0,3.61,7.93v7.62A1.35,1.35,0,0,0,5,16.89H19a1.35,1.35,0,0,0,1.35-1.34V7.93A1.35,1.35,0,0,0,19,6.59Zm.92,9a.92.92,0,0,1-.92.91H5A.92.92,0,0,1,4,15.55V7.93A.92.92,0,0,1,5,7H19a.92.92,0,0,1,.92.91Z"/><path class="cls-1" d="M13.89,7.92h-8a.93.93,0,0,0-.93.93v5.77a.94.94,0,0,0,.93.94h8a.94.94,0,0,0,.94-.94V8.85A.94.94,0,0,0,13.89,7.92Zm.51,6.7a.5.5,0,0,1-.51.5h-8a.5.5,0,0,1-.5-.5V8.85a.51.51,0,0,1,.5-.5h8a.51.51,0,0,1,.51.5Z"/><path class="cls-1" d="M18.68,13.82H16.31a.58.58,0,0,0-.58.59V15a.59.59,0,0,0,.58.59h2.37a.59.59,0,0,0,.59-.59v-.56A.58.58,0,0,0,18.68,13.82ZM18.84,15a.15.15,0,0,1-.16.15H16.31a.15.15,0,0,1-.15-.15v-.56a.16.16,0,0,1,.15-.16h2.37a.16.16,0,0,1,.16.16Z"/><path class="cls-1" d="M17.5,10a1,1,0,1,0-1-1A1,1,0,0,0,17.5,10Zm0-1.65a.62.62,0,0,1,.61.61.61.61,0,0,1-.61.61A.61.61,0,0,1,16.89,9,.61.61,0,0,1,17.5,8.35Z"/><path class="cls-1" d="M17.5,12.61a1,1,0,1,0-1-1A1,1,0,0,0,17.5,12.61Zm0-1.65a.61.61,0,0,1,.61.61.62.62,0,0,1-.61.61.61.61,0,0,1-.61-.61A.61.61,0,0,1,17.5,11Z"/><path class="cls-1" d="M8,17H6.28a.22.22,0,0,0-.22.22.21.21,0,0,0,.22.21H8a.21.21,0,0,0,.22-.21A.22.22,0,0,0,8,17Z"/><path class="cls-1" d="M17.72,17H16a.22.22,0,0,0-.22.22.21.21,0,0,0,.22.21h1.76a.21.21,0,0,0,.22-.21A.22.22,0,0,0,17.72,17Z"/></svg>