<svg id="Capa_1" data-name="Capa 1" xmlns="http://www.w3.org/2000/svg" xmlns:xlink="http://www.w3.org/1999/xlink" viewBox="0 0 820.91 242.97"><defs><style>.cls-1{fill:url(#linear-gradient);}.cls-2{fill:url(#radial-gradient);}.cls-3{fill:url(#radial-gradient-2);}.cls-4{fill:url(#radial-gradient-3);}.cls-5{fill:url(#radial-gradient-4);}.cls-6{fill:url(#radial-gradient-5);}.cls-7{font-size:79.05px;font-family:Dialog;}.cls-7,.cls-8{fill:#638c1c;}</style><linearGradient id="linear-gradient" x1="1717.25" y1="1800.08" x2="1765.98" y2="1874.87" gradientTransform="translate(-2332.34 -2324.61) scale(1.41)" gradientUnits="userSpaceOnUse"><stop offset="0.03" stop-color="#d0ce00"/><stop offset="0.18" stop-color="#bfc404"/><stop offset="0.48" stop-color="#93aa10"/><stop offset="0.8" stop-color="#5d891e"/></linearGradient><radialGradient id="radial-gradient" cx="-8820.65" cy="-20945.19" r="765.01" gradientTransform="translate(2337.62 5571.73) scale(0.26)" gradientUnits="userSpaceOnUse"><stop offset="0.19" stop-color="#d4d733"/><stop offset="0.35" stop-color="#acbd2c"/><stop offset="0.53" stop-color="#81a124"/><stop offset="0.68" stop-color="#678f20"/><stop offset="0.77" stop-color="#5d891e"/></radialGradient><radialGradient id="radial-gradient-2" cx="-8800.39" cy="-20945.2" r="765.01" gradientTransform="translate(2382.56 5571.7) scale(0.26)" gradientUnits="userSpaceOnUse"><stop offset="0" stop-color="#e5ecf8"/><stop offset="0.13" stop-color="#e1eaf7"/><stop offset="0.25" stop-color="#d7e4f4"/><stop offset="0.37" stop-color="#c4daef"/><stop offset="0.48" stop-color="#abcde8"/><stop offset="0.58" stop-color="#8abbdf"/><stop offset="0.69" stop-color="#61a5d4"/><stop offset="0.79" stop-color="#328cc7"/><stop offset="0.89" stop-color="#0071ba"/></radialGradient><radialGradient id="radial-gradient-3" cx="-8800.36" cy="-20945.16" r="765.01" gradientTransform="translate(2382.63 5571.77) scale(0.26)" gradientUnits="userSpaceOnUse"><stop offset="0" stop-color="#fff"/><stop offset="0.05" stop-color="#e9f0f9"/><stop offset="0.1" stop-color="#d5e2f3"/><stop offset="0.17" stop-color="#c7d8ef"/><stop offset="0.25" stop-color="#bfd2ed"/><stop offset="0.38" stop-color="#bcd0ec"/><stop offset="0.47" stop-color="#8fb9e0"/><stop offset="0.63" stop-color="#4393cc"/><stop offset="0.74" stop-color="#127abf"/><stop offset="0.8" stop-color="#0071ba"/></radialGradient><radialGradient id="radial-gradient-4" cx="-8779.84" cy="-20945.2" r="765.01" gradientTransform="translate(2428.05 5571.7) scale(0.26)" gradientUnits="userSpaceOnUse"><stop offset="0.14" stop-color="#ffec00"/><stop offset="0.15" stop-color="#ffe800"/><stop offset="0.25" stop-color="gold"/><stop offset="0.36" stop-color="#ffcd00"/><stop offset="0.5" stop-color="#ffca00"/><stop offset="0.58" stop-color="#fbb800"/><stop offset="0.83" stop-color="#f18801"/><stop offset="0.95" stop-color="#FF9C1A"/></radialGradient><radialGradient id="radial-gradient-5" cx="-8779.86" cy="-20945.19" r="765.04" gradientTransform="translate(2428.05 5571.7) scale(0.26)" gradientUnits="userSpaceOnUse"><stop offset="0" stop-color="#ffec00"/><stop offset="0.01" stop-color="#ffe800"/><stop offset="0.09" stop-color="#fdd400"/><stop offset="0.17" stop-color="#fcc600"/><stop offset="0.28" stop-color="#fbbe00"/><stop offset="0.45" stop-color="#fbbb00"/><stop offset="0.46" stop-color="#fab800"/><stop offset="0.56" stop-color="#f59b00"/><stop offset="0.66" stop-color="#f08701"/><stop offset="0.76" stop-color="#ee7a01"/><stop offset="0.85" stop-color="#FF9C1A"/></radialGradient></defs><path class="cls-1" d="M146.4,177.84C142.28,230,77.87,226.46,77,276.15c-.14,7.26,2.94,17.39,11.14,25.58a37.9,37.9,0,0,0,9.38,6.81A129.69,129.69,0,0,0,96,347.08l7.83-.42a106.35,106.35,0,0,1-1.76-36.06C135,322.88,186.31,294.59,146.4,177.84Z" transform="translate(-76.97 -177.84)"/><path class="cls-2" d="M104.91,284.52c-5.3-8.38-10.83-24.7-10.54-36h0A130.88,130.88,0,0,0,106.94,280a192.5,192.5,0,0,1,13.58-23.24c-5.37-8.09-6.75-21.38-6.66-24,0,0,0,0,.09-.07a85.38,85.38,0,0,0,9,20.39,225.42,225.42,0,0,0,12.78-20.92c-2.43-5-4-12.72-3.86-15.24h0A36.68,36.68,0,0,0,138,227.64a97.43,97.43,0,0,0,8.55-23.11,90.1,90.1,0,0,0-.1-26.69C142.28,230,77.87,226.46,77,276.15c-.14,7.26,2.94,17.39,11.14,25.58a37.9,37.9,0,0,0,9.38,6.81A118.07,118.07,0,0,1,104.91,284.52Z" transform="translate(-76.97 -177.84)"/><path class="cls-3" d="M196.62,177.84c-4.11,52.17-68.53,48.62-69.42,98.31-.12,7.26,2.94,17.39,11.14,25.58C166.32,329.71,243,313.36,196.62,177.84Z" transform="translate(-76.97 -177.84)"/><path class="cls-4" d="M127.2,276.15c-.12,7.26,2.94,17.39,11.14,25.58a40.57,40.57,0,0,0,3.1,2.75C155.59,293,165,269.29,159.24,229,143,240.46,127.64,252,127.2,276.15Z" transform="translate(-76.97 -177.84)"/><path class="cls-5" d="M247.43,177.84C243.31,230,178.9,226.46,178,276.15c-.13,7.26,2.94,17.39,11.14,25.58C217.12,329.71,293.77,313.36,247.43,177.84Z" transform="translate(-76.97 -177.84)"/><path class="cls-6" d="M178,276.15c-.13,7.26,2.94,17.39,11.14,25.58.89.88,1.82,1.73,2.8,2.53,14-11.58,23.15-35.09,17.57-74.93C193.51,240.72,178.44,252.29,178,276.15Z" transform="translate(-76.97 -177.84)"/><text class="cls-7" transform="translate(210.73 223.21)">BRASÍLIA</text><path class="cls-8" d="M868.8,235.1H854.05l-26.46,65.3h14.23L847,286.74h30.81l3.82,9.18c.89,2.1,1.88,4.48,6.42,4.48h9.84L868.8,235.1ZM850.71,277l10.84-28.69L873.65,277Z" transform="translate(-76.97 -177.84)"/><polygon class="cls-8" points="303.6 93.28 335.16 93.28 335.16 84.4 303.6 84.4 303.6 66.12 336.68 66.12 336.68 57.25 290.14 57.25 290.14 122.56 337.38 122.56 337.38 113.68 303.6 113.68 303.6 93.28 303.6 93.28"/><polygon class="cls-8" points="432.14 93.28 463.7 93.28 463.7 84.4 432.14 84.4 432.14 66.12 465.22 66.12 465.22 57.25 418.68 57.25 418.68 122.56 465.93 122.56 465.93 113.68 432.14 113.68 432.14 93.28 432.14 93.28"/><polygon class="cls-8" points="729.86 57.25 729.86 122.56 743.6 122.56 743.6 57.25 729.86 57.25 729.86 57.25"/><path class="cls-8" d="M772.7,269.9c0,2,1.62,4.2,6.06,4.2h4.73l0,14.08a22.75,22.75,0,0,1-9.57,1.91c-13,0-20.48-8.15-20.48-22.35,0-13.28,6.68-22.38,20.52-22.38a62.79,62.79,0,0,1,15.71,2.16V237.05a66.62,66.62,0,0,0-15.79-2c-24,0-34,17.1-34,32.64,0,16.28,10.54,32.66,34.07,32.66,9.73,0,17.76-3.6,22.73-8.14V265.67H778.68c-5.55,0-6,3.24-6,4.23Z" transform="translate(-76.97 -177.84)"/><path class="cls-8" d="M453.15,235.1c-23.53,0-34,16.42-34,32.65s10.51,32.65,34,32.65c23.34,0,34-16.92,34-32.65,0-16.23-10.49-32.65-34-32.65Zm0,55c-13,0-20.45-8.16-20.45-22.35s7.46-22.32,20.45-22.32,20.35,8.13,20.35,22.32-7.4,22.35-20.35,22.35Z" transform="translate(-76.97 -177.84)"/><path class="cls-8" d="M716.67,270.27c5-1.5,13.6-5.76,13.6-17.23,0-8.93-7.12-17.95-20.72-17.95H680.49V300.4H694V244h10.62c10.21,0,11.73,6.08,11.73,9.7,0,6-4.35,9.8-11.33,9.8-4.53,0-7.13,1.77-7.13,4.75,0,1.68,1.06,3.85,6,4.62,6.17,1,8.66,7,11.82,14.57,0,0,2.72,6.44,3.66,8.51s1.77,4.49,6.45,4.49h10.49l-4.64-10c-4.64-10.26-8.33-16.3-15-20.16Z" transform="translate(-76.97 -177.84)"/><path class="cls-8" d="M342.87,235.1v44.67L307,235.1H292.83v65.3h13.46V252.64S335,290,342,298.6a5.91,5.91,0,0,0,4.65,1.8h9.69V235.1Z" transform="translate(-76.97 -177.84)"/><polygon class="cls-8" points="561.92 93.28 593.48 93.28 593.48 84.4 561.92 84.4 561.92 66.12 595 66.12 595 57.25 548.46 57.25 548.46 122.56 595.7 122.56 595.7 113.68 561.92 113.68 561.92 93.28 561.92 93.28"/><path class="cls-8" d="M601.33,235.1v44.67L565.45,235.1H551.29v65.3h13.46V252.64s28.73,37.39,35.75,46a5.91,5.91,0,0,0,4.65,1.8h9.69V235.1Z" transform="translate(-76.97 -177.84)"/></svg>
