<svg id="Capa_1" data-name="Capa 1" xmlns="http://www.w3.org/2000/svg" xmlns:xlink="http://www.w3.org/1999/xlink" viewBox="0 0 821.19 169.23"><defs><style>.cls-1{fill:url(#linear-gradient);}.cls-2{fill:url(#radial-gradient);}.cls-3{fill:url(#radial-gradient-2);}.cls-4{fill:url(#radial-gradient-3);}.cls-5{fill:url(#radial-gradient-4);}.cls-6{fill:url(#radial-gradient-5);}.cls-7{fill:#638c1c;}</style><linearGradient id="linear-gradient" x1="1716.62" y1="2360.03" x2="1765.35" y2="2434.82" gradientTransform="translate(-2331.52 -3084.94) scale(1.41)" gradientUnits="userSpaceOnUse"><stop offset="0.03" stop-color="#d0ce00"/><stop offset="0.18" stop-color="#bfc404"/><stop offset="0.48" stop-color="#93aa10"/><stop offset="0.8" stop-color="#5d891e"/></linearGradient><radialGradient id="radial-gradient" cx="-8815.18" cy="-26139.84" r="765.01" gradientTransform="translate(2336.14 6944.61) scale(0.26)" gradientUnits="userSpaceOnUse"><stop offset="0.19" stop-color="#d4d733"/><stop offset="0.35" stop-color="#acbd2c"/><stop offset="0.53" stop-color="#81a124"/><stop offset="0.68" stop-color="#678f20"/><stop offset="0.77" stop-color="#5d891e"/></radialGradient><radialGradient id="radial-gradient-2" cx="-8794.92" cy="-26139.86" r="765.01" gradientTransform="translate(2381.07 6944.58) scale(0.26)" gradientUnits="userSpaceOnUse"><stop offset="0" stop-color="#e5ecf8"/><stop offset="0.13" stop-color="#e1eaf7"/><stop offset="0.25" stop-color="#d7e4f4"/><stop offset="0.37" stop-color="#c4daef"/><stop offset="0.48" stop-color="#abcde8"/><stop offset="0.58" stop-color="#8abbdf"/><stop offset="0.69" stop-color="#61a5d4"/><stop offset="0.79" stop-color="#328cc7"/><stop offset="0.89" stop-color="#0071ba"/></radialGradient><radialGradient id="radial-gradient-3" cx="-8794.88" cy="-26139.82" r="765.01" gradientTransform="translate(2381.15 6944.65) scale(0.26)" gradientUnits="userSpaceOnUse"><stop offset="0" stop-color="#fff"/><stop offset="0.05" stop-color="#e9f0f9"/><stop offset="0.1" stop-color="#d5e2f3"/><stop offset="0.17" stop-color="#c7d8ef"/><stop offset="0.25" stop-color="#bfd2ed"/><stop offset="0.38" stop-color="#bcd0ec"/><stop offset="0.47" stop-color="#8fb9e0"/><stop offset="0.63" stop-color="#4393cc"/><stop offset="0.74" stop-color="#127abf"/><stop offset="0.8" stop-color="#0071ba"/></radialGradient><radialGradient id="radial-gradient-4" cx="-8774.37" cy="-26139.86" r="765.01" gradientTransform="translate(2426.57 6944.58) scale(0.26)" gradientUnits="userSpaceOnUse"><stop offset="0.14" stop-color="#ffec00"/><stop offset="0.15" stop-color="#ffe800"/><stop offset="0.25" stop-color="gold"/><stop offset="0.36" stop-color="#ffcd00"/><stop offset="0.5" stop-color="#ffca00"/><stop offset="0.58" stop-color="#fbb800"/><stop offset="0.83" stop-color="#f18801"/><stop offset="0.95" stop-color="#FF9C1A"/></radialGradient><radialGradient id="radial-gradient-5" cx="-8774.38" cy="-26139.85" r="765.04" gradientTransform="translate(2426.57 6944.58) scale(0.26)" gradientUnits="userSpaceOnUse"><stop offset="0" stop-color="#ffec00"/><stop offset="0.01" stop-color="#ffe800"/><stop offset="0.09" stop-color="#fdd400"/><stop offset="0.17" stop-color="#fcc600"/><stop offset="0.28" stop-color="#fbbe00"/><stop offset="0.45" stop-color="#fbbb00"/><stop offset="0.46" stop-color="#fab800"/><stop offset="0.56" stop-color="#f59b00"/><stop offset="0.66" stop-color="#f08701"/><stop offset="0.76" stop-color="#ee7a01"/><stop offset="0.85" stop-color="#FF9C1A"/></radialGradient></defs><path class="cls-1" d="M146.34,207.38C142.22,259.55,77.8,256,76.91,305.69c-.13,7.26,2.94,17.38,11.14,25.58a37.9,37.9,0,0,0,9.38,6.81A129.69,129.69,0,0,0,96,376.62l7.84-.42A106.12,106.12,0,0,1,102,340.14C134.9,352.42,186.24,324.12,146.34,207.38Z" transform="translate(-76.91 -207.38)"/><path class="cls-2" d="M104.85,314.06c-5.31-8.38-10.84-24.7-10.55-36h0a131,131,0,0,0,12.55,31.56,192.55,192.55,0,0,1,13.59-23.24c-5.38-8.09-6.76-21.38-6.67-24,0,0,.06,0,.09-.07a85.38,85.38,0,0,0,9,20.39,225.42,225.42,0,0,0,12.78-20.92c-2.42-5-4-12.72-3.85-15.24h0a36.81,36.81,0,0,0,6.06,10.67,97.14,97.14,0,0,0,8.55-23.11,90.08,90.08,0,0,0-.09-26.69C142.22,259.55,77.8,256,76.91,305.69c-.13,7.26,2.94,17.38,11.14,25.58a37.9,37.9,0,0,0,9.38,6.81A117.44,117.44,0,0,1,104.85,314.06Z" transform="translate(-76.91 -207.38)"/><path class="cls-3" d="M196.55,207.38C192.44,259.55,128,256,127.14,305.69c-.13,7.26,2.94,17.38,11.14,25.58C166.25,359.24,242.89,342.9,196.55,207.38Z" transform="translate(-76.91 -207.38)"/><path class="cls-4" d="M127.14,305.69c-.13,7.26,2.94,17.38,11.14,25.58a38.61,38.61,0,0,0,3.09,2.75c14.16-11.52,23.52-35.2,17.8-75.51C143,270,127.57,281.58,127.14,305.69Z" transform="translate(-76.91 -207.38)"/><path class="cls-5" d="M247.36,207.38C243.24,259.55,178.83,256,178,305.69c-.14,7.26,2.93,17.38,11.13,25.58C217.05,359.24,293.7,342.9,247.36,207.38Z" transform="translate(-76.91 -207.38)"/><path class="cls-6" d="M178,305.69c-.14,7.26,2.93,17.38,11.13,25.58.89.88,1.82,1.73,2.8,2.53,14-11.59,23.15-35.09,17.57-74.93C193.44,270.26,178.37,281.83,178,305.69Z" transform="translate(-76.91 -207.38)"/><path class="cls-7" d="M869,264.56H854.24L827.77,330H842l5.19-13.7H878l3.82,9.2c.88,2.11,1.89,4.5,6.42,4.5h9.84Zm-18.09,42,10.84-28.75,12.12,28.75Z" transform="translate(-76.91 -207.38)"/><polygon class="cls-7" points="303.65 93.3 335.23 93.3 335.23 84.4 303.65 84.4 303.65 66.07 336.72 66.07 336.72 57.18 290.18 57.18 290.18 122.65 337.45 122.65 337.45 113.74 303.65 113.74 303.65 93.3"/><polygon class="cls-7" points="432.24 93.3 463.82 93.3 463.82 84.4 432.24 84.4 432.24 66.07 465.34 66.07 465.34 57.18 418.77 57.18 418.77 122.65 466.04 122.65 466.04 113.74 432.24 113.74 432.24 93.3"/><rect class="cls-7" x="730.1" y="57.19" width="13.77" height="65.47"/><path class="cls-7" d="M772.85,299.46c0,2,1.62,4.2,6,4.2h4.75l0,14.12a22.79,22.79,0,0,1-9.57,1.91c-13,0-20.5-8.18-20.5-22.4,0-13.32,6.68-22.45,20.53-22.45A62.85,62.85,0,0,1,789.8,277V266.51A67.32,67.32,0,0,0,774,264.56c-24,0-34,17.15-34,32.73,0,16.32,10.56,32.74,34.1,32.74,9.74,0,17.77-3.61,22.73-8.16V295.21H778.85c-5.57,0-6,3.24-6,4.25" transform="translate(-76.91 -207.38)"/><path class="cls-7" d="M453.16,264.56c-23.55,0-34.06,16.46-34.06,32.74S429.61,330,453.16,330c23.35,0,34-17,34-32.73,0-16.28-10.49-32.74-34-32.74m0,55.14c-13,0-20.45-8.18-20.45-22.4s7.44-22.38,20.45-22.38,20.36,8.15,20.36,22.38-7.4,22.4-20.36,22.4" transform="translate(-76.91 -207.38)"/><path class="cls-7" d="M716.8,299.82c5-1.5,13.61-5.77,13.61-17.27,0-9-7.11-18-20.75-18h-29V330h13.47V273.45h10.61c10.22,0,11.75,6.08,11.75,9.71,0,6-4.36,9.83-11.34,9.83-4.53,0-7.13,1.79-7.13,4.77,0,1.69,1,3.85,6,4.63,6.17,1,8.67,7,11.82,14.61,0,0,2.74,6.44,3.66,8.52s1.79,4.5,6.46,4.5h10.49l-4.63-10c-4.65-10.29-8.33-16.34-15-20.22" transform="translate(-76.91 -207.38)"/><path class="cls-7" d="M342.83,264.56v44.79L307,264.56H292.78V330h13.45V282.15S335,319.63,342,328.22a5.91,5.91,0,0,0,4.65,1.81h9.69V264.56Z" transform="translate(-76.91 -207.38)"/><polygon class="cls-7" points="562.09 93.3 593.66 93.3 593.66 84.4 562.09 84.4 562.09 66.07 595.16 66.07 595.16 57.18 548.61 57.18 548.61 122.65 595.88 122.65 595.88 113.74 562.09 113.74 562.09 93.3"/><path class="cls-7" d="M601.4,264.56v44.79l-35.87-44.79H551.36V330h13.45V282.15s28.74,37.48,35.78,46.07a5.85,5.85,0,0,0,4.64,1.81h9.69V264.56Z" transform="translate(-76.91 -207.38)"/></svg>
