<svg xmlns="http://www.w3.org/2000/svg" xmlns:xlink="http://www.w3.org/1999/xlink" width="399.557" height="340.697" viewBox="0 0 399.557 340.697">
  <defs>
    <linearGradient id="linear-gradient" y1="0.5" x2="1" y2="0.5" gradientUnits="objectBoundingBox">
      <stop offset="0.494" stop-color="#ebeff2"/>
      <stop offset="1" stop-color="#fff"/>
    </linearGradient>
    <linearGradient id="linear-gradient-2" x1="-0.178" y1="0.627" x2="0.872" y2="0.627" gradientUnits="objectBoundingBox">
      <stop offset="0" stop-color="#ff9085"/>
      <stop offset="1" stop-color="#fb6fbb"/>
    </linearGradient>
    <linearGradient id="linear-gradient-3" x1="0.505" y1="-0.112" x2="0.495" y2="0.524" xlink:href="#linear-gradient-2"/>
    <linearGradient id="linear-gradient-4" x1="-0.017" y1="0.5" x2="1" y2="0.5" gradientUnits="objectBoundingBox">
      <stop offset="0" stop-color="#aa80f9"/>
      <stop offset="0.996" stop-color="#6165d7"/>
    </linearGradient>
    <linearGradient id="linear-gradient-5" x1="0.907" y1="1.663" x2="-0.146" y2="-1.371" gradientUnits="objectBoundingBox">
      <stop offset="0" stop-color="#09005d"/>
      <stop offset="1" stop-color="#1a0f91"/>
    </linearGradient>
    <linearGradient id="linear-gradient-6" x1="1.065" y1="1.559" x2="-2.052" y2="-3.747" gradientUnits="objectBoundingBox">
      <stop offset="0" stop-color="#febbba"/>
      <stop offset="1" stop-color="#ff928e"/>
    </linearGradient>
    <linearGradient id="linear-gradient-7" x1="0" y1="0.5" x2="1" y2="0.5" xlink:href="#linear-gradient-6"/>
    <linearGradient id="linear-gradient-8" x1="-23.359" y1="-8.491" x2="-24.029" y2="-10.238" xlink:href="#linear-gradient-5"/>
    <linearGradient id="linear-gradient-10" x1="-38.938" y1="-9.099" x2="-40.048" y2="-10.91" xlink:href="#linear-gradient-5"/>
    <linearGradient id="linear-gradient-11" x1="0" y1="0.5" x2="1" y2="0.5" xlink:href="#linear-gradient-5"/>
    <linearGradient id="linear-gradient-12" y1="0.5" x2="1" y2="0.5" gradientUnits="objectBoundingBox">
      <stop offset="0" stop-color="#444b8c"/>
      <stop offset="0.996" stop-color="#26264f"/>
    </linearGradient>
  </defs>
  <g id="Group_40359" data-name="Group 40359" transform="translate(-472.36 -403.098)">
    <path id="Path_14444" data-name="Path 14444" d="M867.3,689.962c-26.556,61.013-157.227,54.464-190.863,52.779-18.14-.909-175.049-7.561-195.907-78.537-13.772-46.865,37.327-102.806,8.528-144.48-5.349-7.74-16.626-19.578-16.7-37.286,0,0-.072-17.466,14.766-35.415,43.969-53.185,370.533-61.566,376.942-5.775,1.469,12.785-15.7,13.676-28.518,38.692C798.844,551.581,893.373,630.064,867.3,689.962Z" transform="translate(0 0)" fill="#FF9C1A"/>
    <path id="Path_14445" data-name="Path 14445" d="M976.452,1043.688l-301.869,27.25c-4.506.368-10.971-5.591-10.971-10.113V832.272a7.737,7.737,0,0,1,7.63-7.736l304.475-4.211c4.314-.06,12.469,3.121,12.469,7.436l-4.625,208.216A7.737,7.737,0,0,1,976.452,1043.688Z" transform="translate(-165.795 -361.694)" fill="#707070"/>
    <path id="Path_14446" data-name="Path 14446" d="M1022.525,1059.569,718.05,1084.417a7.737,7.737,0,0,1-8.366-7.711V848.153a7.737,7.737,0,0,1,7.63-7.736l304.475-4.211a7.737,7.737,0,0,1,7.844,7.736v207.915A7.736,7.736,0,0,1,1022.525,1059.569Z" transform="translate(-205.736 -375.461)" fill="#babebf"/>
    <path id="Path_14447" data-name="Path 14447" d="M918.979,1109.811l257.9-20.536a7.92,7.92,0,0,0,7.291-7.9V884.117a7.92,7.92,0,0,0-8.042-7.919l-257.9,3.959a7.92,7.92,0,0,0-7.8,7.919v213.839A7.92,7.92,0,0,0,918.979,1109.811Z" transform="translate(-379.763 -410.129)" fill="url(#linear-gradient)"/>
    <path id="Path_14448" data-name="Path 14448" d="M3030.433,1560.9h0a2.7,2.7,0,0,1-2.7-2.7v-19.994a2.7,2.7,0,0,1,2.7-2.7h0a2.7,2.7,0,0,1,2.7,2.7V1558.2A2.7,2.7,0,0,1,3030.433,1560.9Z" transform="translate(-2215.255 -981.69)" fill="#707070"/>
    <path id="Path_14449" data-name="Path 14449" d="M1138.639,1073.344c-23.488-20.487-42.317-12.473-67.163-33.29-30.841-25.839-15.485-49.667-42.634-72.419-33.951-28.453-74.975-5.374-100.453-33.874-6.668-7.459-10.38-16.34-12.329-25.242a7.919,7.919,0,0,0-5.63,7.577v213.839a7.92,7.92,0,0,0,8.549,7.9l246.958-19.665C1161.422,1102.843,1153.38,1086.2,1138.639,1073.344Z" transform="translate(-379.763 -438.15)" fill="#fff" opacity="0.9" style="mix-blend-mode: soft-light;isolation: isolate"/>
    <g id="Group_40356" data-name="Group 40356" transform="translate(618.303 520.182)">
      <g id="Group_40354" data-name="Group 40354" transform="translate(0)">
        <path id="Path_14450" data-name="Path 14450" d="M1675.848,1337.612c-2.715,29.345-28.708,52.527-58.148,51.776-29.541-.754-51.347-25.3-48.615-54.83s28.954-52.7,58.478-51.766C1656.985,1283.724,1678.563,1308.267,1675.848,1337.612Z" transform="translate(-1568.853 -1282.764)" fill="#f9352d"/>
        <g id="Group_40352" data-name="Group 40352" transform="translate(20.58 19.594)">
          <path id="Path_14451" data-name="Path 14451" d="M1757.2,1497.431a33.727,33.727,0,1,1,33.727-33.727A33.765,33.765,0,0,1,1757.2,1497.431Zm0-55.048a21.321,21.321,0,1,0,21.321,21.321A21.345,21.345,0,0,0,1757.2,1442.384Z" transform="translate(-1723.475 -1429.978)" fill="#fff"/>
        </g>
        <g id="Group_40353" data-name="Group 40353" transform="translate(32.504 30.348)">
          <path id="Path_14452" data-name="Path 14452" d="M1819.259,1557.044a6.2,6.2,0,0,1-4.4-10.576l33.669-33.869a6.2,6.2,0,1,1,8.8,8.746l-33.669,33.869A6.185,6.185,0,0,1,1819.259,1557.044Z" transform="translate(-1813.057 -1510.769)" fill="#fff"/>
        </g>
      </g>
      <g id="Group_40355" data-name="Group 40355" transform="translate(0 0.345)" opacity="0.2" style="mix-blend-mode: multiply;isolation: isolate">
        <path id="Path_14453" data-name="Path 14453" d="M1618.059,1377.5c-3.867-6.844,3.959-12.475,4.278-26.123.485-20.725-17.082-28.24-14.728-45.722.655-4.862,3.07-12.132,12.134-20.3-26.2,2.942-48.172,24.56-50.66,51.449-2.732,29.527,19.075,54.076,48.615,54.83a55.767,55.767,0,0,0,28.208-6.921C1634.882,1385.454,1622.152,1384.739,1618.059,1377.5Z" transform="translate(-1568.852 -1285.353)" fill="url(#linear-gradient-2)"/>
      </g>
    </g>
    <path id="Path_14454" data-name="Path 14454" d="M812.649,2499l75-18.759,3.751,18.22-68.656,31.688-54.362-13.428-32.794-32.2Z" transform="translate(-228.188 -1800.671)" fill="url(#linear-gradient-3)"/>
    <path id="Path_14455" data-name="Path 14455" d="M812.649,2499l75-18.759,3.751,18.22-68.656,31.688-54.362-13.428-32.794-32.2Z" transform="translate(-228.188 -1800.671)" fill="#0958b9"/>
    <path id="Path_14456" data-name="Path 14456" d="M1296.876,2493.424a203.525,203.525,0,0,0,33.386-22.282c14.7-12.1,21.447-21.236,36.331-24.844,2.66-.645,17.816-4.319,22.707,2.411,5.415,7.452-5.113,23.034-6.391,24.926-19.016,28.147-67.441,26.833-82.63,25.92Z" transform="translate(-714.773 -1769.881)" fill="#0965b9"/>
    <path id="Path_14457" data-name="Path 14457" d="M1399.455,2451.558A9.967,9.967,0,0,0,1393.1,2448a12.054,12.054,0,0,1-.138,8.309c-2.971,6.75-11.77,4.671-17.951,12.593-6.07,7.78-1.868,15.278-7.234,18.487-6.15,3.677-13.774-4.915-20.362-.8-4.479,2.795-3.086,8.1-8.306,10.985-3.607,2-7.143,1.052-11.252.536a58.078,58.078,0,0,0-19.263.974l1.843,3.322c15.189.912,63.614,2.226,82.63-25.921C1394.342,2474.591,1404.869,2459.01,1399.455,2451.558Z" transform="translate(-724.928 -1772.729)" opacity="0.3" fill="url(#linear-gradient-4)" style="mix-blend-mode: multiply;isolation: isolate"/>
    <path id="Path_14458" data-name="Path 14458" d="M1380.023,2835.158a7.72,7.72,0,0,1,6.695-.624c3.963,1.335,10.256,2.412,10.246,4.35s-6.306,3.151-10.657,2.355C1382.145,2840.476,1378.871,2836.858,1380.023,2835.158Z" transform="translate(-786.651 -2107.407)" fill="url(#linear-gradient-5)"/>
    <path id="Path_14459" data-name="Path 14459" d="M1349.675,2817.4l7.294,2.346s1.185,1.974-.414,3.225-7.156-1.4-7.156-1.4Z" transform="translate(-760.305 -2092.96)" fill="url(#linear-gradient-6)"/>
    <path id="Path_14460" data-name="Path 14460" d="M588.971,2488.261c-2.154,12.539,24.909,26.1,31.1,29.209,12.626,6.329,36.384,15.263,71.644,11.85l1.407-8.439a167.05,167.05,0,0,1-19.571-8.13c-13.67-6.724-18.86-11.526-37.829-23-20.99-12.69-27.1-14.318-33.358-12.747C597.02,2478.351,589.972,2482.434,588.971,2488.261Z" transform="translate(-100.985 -1797.443)" fill="#0965b9"/>
    <path id="Path_14461" data-name="Path 14461" d="M793.022,2009.511c-4.575-16.544,2.977-38.868,18.888-49.632,12.988-8.786,28.206-8.216,32.954-8.038,5.2.194,4.661.869,21.024,3.9,22.716,4.2,24.814,3.184,31.422,6.351a45.464,45.464,0,0,1,19.583,18.88c5.774,10.774,10.474,30.8-.493,40.6-6.235,5.569-14.975,5.546-19.893,5.023q-.5-3.315-1-6.631a20.279,20.279,0,0,0,7.636-13.865c.839-9.6-5.874-15.8-6.631-16.477a65.221,65.221,0,0,0-5.076,47.06,77.882,77.882,0,0,1-28.883,9.2c-9.75,1.079-21.821-.987-29.538-7.018-10.89-8.511-11.811-27.272-1.055-50.341-3.937,2.637-9.64,7.408-12.006,14.96-.358,1.142-.963,3.383-1.206,12.056C818.307,2031.123,797.762,2026.656,793.022,2009.511Z" transform="translate(-276.837 -1342.538)" fill="#00A443"/>
    <path id="Path_14462" data-name="Path 14462" d="M1060.7,2190.264c-5.48.672-6.971,6.361-12.056,6.028-11.064-.724-19.945-19.879-15.272-30.342,3.047-6.822,10.991-8.011,10.449-12.459-.433-3.558-5.947-6.3-10.449-6.43-7.01-.208-11.638,5.9-13.262,8.038a24.127,24.127,0,0,0-4.7,14.037,30.941,30.941,0,0,1,10.477-11.314c-10.755,23.068-9.835,41.4,1.055,49.915,7.717,6.031,19.789,8.522,29.538,7.443a77.43,77.43,0,0,0,25.075-7.243C1075.681,2198.368,1068.193,2189.345,1060.7,2190.264Z" transform="translate(-470.773 -1511.837)" fill="#0965b9" opacity="0.3" style="mix-blend-mode: multiply;isolation: isolate"/>
    <path id="Path_14463" data-name="Path 14463" d="M1081.526,2582.7l-64.122-.957,17.051,8.229,47.235-3.092Z" transform="translate(-472.498 -1888.667)" fill="#0965b9" opacity="0.3" style="mix-blend-mode: multiply;isolation: isolate"/>
    <path id="Path_14464" data-name="Path 14464" d="M808.8,2287.939c4.948-4.684,17.087-1.733,21.615,5,3.334,4.954.575,9.031,3.014,15.272,2.988,7.646,14.261,14.559,21.189,16.859-1.084,2.334-.766,2.939-1.85,5.274-4.407-.55-36.263-5.43-44.055-24.344C808.3,2305.011,803.491,2292.961,808.8,2287.939Z" transform="translate(-289.511 -1631.991)" fill="#00A443"/>
    <path id="Path_14465" data-name="Path 14465" d="M1230.069,1931.819s-5.186,5.607-9.49,6.191-10.525-.56-11.6,0,5.406,2.864,10.544,4.273,14.466,4.225,17.045,3.608-2.818-3.923-4.956-4.8.922-5.38.922-5.38Z" transform="translate(-638.475 -1325.248)" fill="url(#linear-gradient-7)"/>
    <g id="Group_40357" data-name="Group 40357" transform="translate(587.731 598.301)">
      <path id="Path_14466" data-name="Path 14466" d="M1358.13,1881.165a5.215,5.215,0,0,0,3.567-4.8,5.681,5.681,0,0,0-2.125-3.924c-2.286-2.222-6.258-3.614-9.137-2.153-1.706.866-2.486,4.8-2.658,5.478a5.277,5.277,0,0,0,.189,2.079c.115,1.054.283,2.719.528,5.476a13.057,13.057,0,0,1,1.881-1.263,11.554,11.554,0,0,1,2.732-1.083C1355.643,1880.384,1356.352,1881.655,1358.13,1881.165Z" transform="translate(-1346.573 -1869.683)" fill="url(#linear-gradient-8)"/>
      <path id="Path_14467" data-name="Path 14467" d="M1340,1918.349a7.076,7.076,0,0,0,3.013,6.292c3.088,2.073,8.6-4.188,7.8-7.034a4.685,4.685,0,0,0-2.613-2.61c-.733-.3-1.13-.2-2.317-.708-1.1-.467-1.276-.767-1.73-.747-.568.024-1.369.541-2.278,2.912a2.018,2.018,0,0,0-1.279-1.879,1.267,1.267,0,0,0-.686.08C1338.916,1915.093,1338.863,1916.584,1340,1918.349Z" transform="translate(-1339.155 -1907.705)" fill="url(#linear-gradient-7)"/>
      <path id="Path_14468" data-name="Path 14468" d="M1349.269,1908.825c.06.215-.781.41-1.389,1.134a4.542,4.542,0,0,0,.331,5.586c.82.771,1.476.424,3.062,1.4a8.481,8.481,0,0,1,2.045,1.771,4.463,4.463,0,0,1-4.058,3.121c-1.759-.09-2.853-1.7-3.31-2.373a5.309,5.309,0,0,1-1.047-3.624c.251-1.806,1.536-2.021,1.369-3.5a8.614,8.614,0,0,1-.375-2.588,5.158,5.158,0,0,1,.132-.788C1347.405,1908.743,1349.182,1908.514,1349.269,1908.825Z" transform="translate(-1344.104 -1903.484)" fill="url(#linear-gradient-10)"/>
      <path id="Path_14469" data-name="Path 14469" d="M1383.2,1975.073a4.517,4.517,0,0,1-1.94-1.064c-.051-.044-.122-.073-.15-.051-.105.084.239,1.094,1.028,1.411.56.225,1.255.065,1.278-.094C1383.428,1975.207,1383.319,1975.133,1383.2,1975.073Z" transform="translate(-1375.512 -1960.072)" fill="url(#linear-gradient-11)"/>
    </g>
    <g id="Group_40358" data-name="Group 40358" transform="translate(562.276 656.829)">
      <path id="Path_14470" data-name="Path 14470" d="M1152.441,2313.438l-4.52,41.154c-.156,1.42,1.832,3.536,3.259,3.468l66.306-4.071a2.324,2.324,0,0,0,2.181-1.929l8.322-39.747c.248-1.447-2.352-2.94-3.819-2.9l-69.484,1.954A2.324,2.324,0,0,0,1152.441,2313.438Z" transform="translate(-1147.912 -2309.413)" fill="url(#linear-gradient-12)"/>
      <path id="Path_14471" data-name="Path 14471" d="M1163.791,2322.454l-4.52,41.154a2.325,2.325,0,0,0,2.421,2.576l67.145-3.179a2.325,2.325,0,0,0,2.181-1.929l6.86-39.929a2.325,2.325,0,0,0-2.356-2.717l-69.485,1.954A2.325,2.325,0,0,0,1163.791,2322.454Z" transform="translate(-1157.747 -2317.229)" fill="url(#linear-gradient-12)"/>
    </g>
    <path id="Path_14472" data-name="Path 14472" d="M1203.218,2365.172c-5.863-2.485-3.794-7.224-10.717-13.128-9.133-7.79-18.443-4.411-21.7-10.449-1.015-1.881-1.5-4.807.268-9.542l-5.031.142a2.324,2.324,0,0,0-2.245,2.07l-4.52,41.154a2.325,2.325,0,0,0,2.421,2.576l67.145-3.178a2.325,2.325,0,0,0,2.181-1.929l.947-5.51a25.364,25.364,0,0,0-7.312-2.741C1214.8,2362.638,1209.968,2368.032,1203.218,2365.172Z" transform="translate(-595.471 -1672.21)" opacity="0.3" fill="url(#linear-gradient-12)" style="mix-blend-mode: multiply;isolation: isolate"/>
    <path id="Path_14473" data-name="Path 14473" d="M1140.148,2572.677c2.805,2.626,4.679,2.393,5.309,2.247,1.056-.243,1.2-.832,3.874-2.927,2.391-1.872,3.147-2.082,3.119-2.728-.053-1.222-2.841-2.294-5.111-2.407a9.864,9.864,0,0,0-6.532,2.31Z" transform="translate(-578.905 -1875.759)" fill="url(#linear-gradient-7)"/>
  </g>
</svg>
