<svg xmlns="http://www.w3.org/2000/svg" width="437.577" height="330.218" viewBox="0 0 437.577 330.218">
  <g id="Group_14259" data-name="Group 14259" transform="translate(-950.26 -362.645)">
    <path id="Path_12269" data-name="Path 12269" d="M1476.113-12097.125s25.922-20.794,48.173-14.242,21.02,26.691,40.83,40.452,53.388-2.236,53.388-2.236" transform="matrix(0.899, -0.438, 0.438, 0.899, 5008.089, 12183.576)" fill="none" stroke="#0792E5" stroke-width="1" stroke-dasharray="6"/>
    <path id="Path_11515" data-name="Path 11515" d="M1668.215,1828.716c0-4.956-31.03-8.974-69.306-8.974s-69.307,4.017-69.307,8.974,31.03,8.975,69.307,8.975S1668.215,1833.673,1668.215,1828.716Z" transform="translate(-579.342 -1144.85)" fill="#f0f3ea"/>
    <g id="Group_13044" data-name="Group 13044" transform="translate(316.171 296.254)">
      <rect id="Rectangle_18189" data-name="Rectangle 18189" width="82.097" height="5.636" rx="1.898" transform="translate(663.819 125.455)" fill="#ccc"/>
      <rect id="Rectangle_18190" data-name="Rectangle 18190" width="82.097" height="5.636" rx="1.898" transform="translate(663.819 88.464)" fill="#ccc"/>
      <g id="Group_13043" data-name="Group 13043" transform="translate(666.799 66.391)">
        <g id="Group_13034" data-name="Group 13034" transform="translate(28.299 0)">
          <path id="Path_11506" data-name="Path 11506" d="M767.616,83.933c-.013.159-.024.32-.024.483V400.333h19.537V84.416c0-.163-.011-.323-.024-.483Z" transform="translate(-767.592 -78.645)" fill="#bfbfbf"/>
          <path id="Path_11507" data-name="Path 11507" d="M781.415,66.391h-8a5.768,5.768,0,0,0-5.746,5.288h19.488A5.768,5.768,0,0,0,781.415,66.391Z" transform="translate(-767.649 -66.391)" fill="#ccc"/>
        </g>
        <g id="Group_13035" data-name="Group 13035" transform="translate(55 47.19)">
          <rect id="Rectangle_18191" data-name="Rectangle 18191" width="5.048" height="7.305" transform="translate(0 4.622)" fill="#ccc"/>
          <path id="Rectangle_18192" data-name="Rectangle 18192" d="M1.147,0H3.9A1.147,1.147,0,0,1,5.048,1.147v0a0,0,0,0,1,0,0H0a0,0,0,0,1,0,0v0A1.147,1.147,0,0,1,1.147,0Z" transform="translate(0 3.475)" fill="#bfbfbf"/>
          <path id="Rectangle_18193" data-name="Rectangle 18193" d="M1.45,0h0A1.45,1.45,0,0,1,2.9,1.45V3.475a0,0,0,0,1,0,0H0a0,0,0,0,1,0,0V1.45A1.45,1.45,0,0,1,1.45,0Z" transform="translate(1.074)" fill="#666"/>
        </g>
        <g id="Group_13036" data-name="Group 13036" transform="translate(67.751 47.19)">
          <rect id="Rectangle_18194" data-name="Rectangle 18194" width="5.048" height="7.305" transform="translate(0 4.622)" fill="#ccc"/>
          <path id="Rectangle_18195" data-name="Rectangle 18195" d="M1.147,0H3.9A1.147,1.147,0,0,1,5.048,1.147v0a0,0,0,0,1,0,0H0a0,0,0,0,1,0,0v0A1.147,1.147,0,0,1,1.147,0Z" transform="translate(0 3.475)" fill="#bfbfbf"/>
          <path id="Rectangle_18196" data-name="Rectangle 18196" d="M1.45,0h0A1.45,1.45,0,0,1,2.9,1.45V3.475a0,0,0,0,1,0,0H0a0,0,0,0,1,0,0V1.45A1.45,1.45,0,0,1,1.45,0Z" transform="translate(1.074)" fill="#666"/>
        </g>
        <g id="Group_13037" data-name="Group 13037" transform="translate(4.166 47.19)">
          <rect id="Rectangle_18197" data-name="Rectangle 18197" width="5.048" height="7.305" transform="translate(0 4.622)" fill="#ccc"/>
          <path id="Rectangle_18198" data-name="Rectangle 18198" d="M1.147,0H3.9A1.147,1.147,0,0,1,5.048,1.147v0a0,0,0,0,1,0,0H0a0,0,0,0,1,0,0v0A1.147,1.147,0,0,1,1.147,0Z" transform="translate(0 3.475)" fill="#bfbfbf"/>
          <path id="Rectangle_18199" data-name="Rectangle 18199" d="M1.45,0h0A1.45,1.45,0,0,1,2.9,1.45V3.475a0,0,0,0,1,0,0H0a0,0,0,0,1,0,0V1.45A1.45,1.45,0,0,1,1.45,0Z" transform="translate(1.074)" fill="#666"/>
        </g>
        <g id="Group_13038" data-name="Group 13038" transform="translate(16.917 47.19)">
          <rect id="Rectangle_18200" data-name="Rectangle 18200" width="5.048" height="7.305" transform="translate(0 4.622)" fill="#ccc"/>
          <path id="Rectangle_18201" data-name="Rectangle 18201" d="M1.147,0H3.9A1.147,1.147,0,0,1,5.048,1.147v0a0,0,0,0,1,0,0H0a0,0,0,0,1,0,0v0A1.147,1.147,0,0,1,1.147,0Z" transform="translate(0 3.475)" fill="#bfbfbf"/>
          <path id="Rectangle_18202" data-name="Rectangle 18202" d="M1.45,0h0A1.45,1.45,0,0,1,2.9,1.45V3.475a0,0,0,0,1,0,0H0a0,0,0,0,1,0,0V1.45A1.45,1.45,0,0,1,1.45,0Z" transform="translate(1.074)" fill="#666"/>
        </g>
        <g id="Group_13039" data-name="Group 13039" transform="translate(55 10.146)">
          <rect id="Rectangle_18203" data-name="Rectangle 18203" width="5.048" height="7.305" transform="translate(0 4.622)" fill="#ccc"/>
          <path id="Rectangle_18204" data-name="Rectangle 18204" d="M1.147,0H3.9A1.147,1.147,0,0,1,5.048,1.147v0a0,0,0,0,1,0,0H0a0,0,0,0,1,0,0v0A1.147,1.147,0,0,1,1.147,0Z" transform="translate(0 3.475)" fill="#bfbfbf"/>
          <path id="Rectangle_18205" data-name="Rectangle 18205" d="M1.45,0h0A1.45,1.45,0,0,1,2.9,1.45V3.475a0,0,0,0,1,0,0H0a0,0,0,0,1,0,0V1.45A1.45,1.45,0,0,1,1.45,0Z" transform="translate(1.074)" fill="#666"/>
        </g>
        <g id="Group_13040" data-name="Group 13040" transform="translate(67.751 10.146)">
          <rect id="Rectangle_18206" data-name="Rectangle 18206" width="5.048" height="7.305" transform="translate(0 4.622)" fill="#ccc"/>
          <path id="Rectangle_18207" data-name="Rectangle 18207" d="M1.147,0H3.9A1.147,1.147,0,0,1,5.048,1.147v0a0,0,0,0,1,0,0H0a0,0,0,0,1,0,0v0A1.147,1.147,0,0,1,1.147,0Z" transform="translate(0 3.475)" fill="#bfbfbf"/>
          <path id="Rectangle_18208" data-name="Rectangle 18208" d="M1.45,0h0A1.45,1.45,0,0,1,2.9,1.45V3.475a0,0,0,0,1,0,0H0a0,0,0,0,1,0,0V1.45A1.45,1.45,0,0,1,1.45,0Z" transform="translate(1.074)" fill="#666"/>
        </g>
        <g id="Group_13041" data-name="Group 13041" transform="translate(4.088 10.146)">
          <rect id="Rectangle_18209" data-name="Rectangle 18209" width="5.048" height="7.305" transform="translate(0 4.622)" fill="#ccc"/>
          <path id="Rectangle_18210" data-name="Rectangle 18210" d="M1.147,0H3.9A1.147,1.147,0,0,1,5.048,1.147v0a0,0,0,0,1,0,0H0a0,0,0,0,1,0,0v0A1.147,1.147,0,0,1,1.147,0Z" transform="translate(0 3.475)" fill="#bfbfbf"/>
          <path id="Rectangle_18211" data-name="Rectangle 18211" d="M1.45,0h0A1.45,1.45,0,0,1,2.9,1.45V3.475a0,0,0,0,1,0,0H0a0,0,0,0,1,0,0V1.45A1.45,1.45,0,0,1,1.45,0Z" transform="translate(1.074)" fill="#666"/>
        </g>
        <g id="Group_13042" data-name="Group 13042" transform="translate(16.839 10.146)">
          <rect id="Rectangle_18212" data-name="Rectangle 18212" width="5.048" height="7.305" transform="translate(0 4.622)" fill="#ccc"/>
          <path id="Rectangle_18213" data-name="Rectangle 18213" d="M1.147,0H3.9A1.147,1.147,0,0,1,5.048,1.147v0a0,0,0,0,1,0,0H0a0,0,0,0,1,0,0v0A1.147,1.147,0,0,1,1.147,0Z" transform="translate(0 3.475)" fill="#bfbfbf"/>
          <path id="Rectangle_18214" data-name="Rectangle 18214" d="M1.45,0h0A1.45,1.45,0,0,1,2.9,1.45V3.475a0,0,0,0,1,0,0H0a0,0,0,0,1,0,0V1.45A1.45,1.45,0,0,1,1.45,0Z" transform="translate(1.074)" fill="#666"/>
        </g>
        <rect id="Rectangle_18215" data-name="Rectangle 18215" width="19.537" height="1.445" transform="translate(28.299 50.006)" fill="#ababab"/>
        <rect id="Rectangle_18216" data-name="Rectangle 18216" width="19.537" height="1.445" transform="translate(28.299 53.619)" fill="#ababab"/>
        <path id="Path_11508" data-name="Path 11508" d="M675.835,146.5a1.064,1.064,0,1,1-1.063-1.064A1.063,1.063,0,0,1,675.835,146.5Z" transform="translate(-673.708 -121.613)" fill="#999"/>
        <path id="Path_11509" data-name="Path 11509" d="M694.243,146.5a1.064,1.064,0,1,1-1.064-1.064A1.064,1.064,0,0,1,694.243,146.5Z" transform="translate(-686.567 -121.613)" fill="#999"/>
        <path id="Path_11510" data-name="Path 11510" d="M712.652,146.5a1.064,1.064,0,1,1-1.063-1.064A1.063,1.063,0,0,1,712.652,146.5Z" transform="translate(-699.427 -121.613)" fill="#999"/>
        <path id="Path_11511" data-name="Path 11511" d="M887.04,146.5a1.064,1.064,0,1,1-1.064-1.064A1.064,1.064,0,0,1,887.04,146.5Z" transform="translate(-821.25 -121.613)" fill="#999"/>
        <path id="Path_11512" data-name="Path 11512" d="M905.448,146.5a1.064,1.064,0,1,1-1.064-1.064A1.064,1.064,0,0,1,905.448,146.5Z" transform="translate(-834.11 -121.613)" fill="#999"/>
        <path id="Path_11513" data-name="Path 11513" d="M923.857,146.5a1.064,1.064,0,1,1-1.064-1.064A1.064,1.064,0,0,1,923.857,146.5Z" transform="translate(-846.969 -121.613)" fill="#999"/>
        <circle id="Ellipse_207" data-name="Ellipse 207" cx="1.064" cy="1.064" r="1.064" transform="translate(0 60.819)" fill="#999"/>
        <circle id="Ellipse_208" data-name="Ellipse 208" cx="1.064" cy="1.064" r="1.064" transform="translate(5.549 60.819)" fill="#999"/>
        <circle id="Ellipse_209" data-name="Ellipse 209" cx="1.064" cy="1.064" r="1.064" transform="translate(11.098 60.819)" fill="#999"/>
        <path id="Path_11514" data-name="Path 11514" d="M887.04,269.224a1.064,1.064,0,1,1-1.064-1.063A1.064,1.064,0,0,1,887.04,269.224Z" transform="translate(-821.25 -207.342)" fill="#999"/>
        <circle id="Ellipse_210" data-name="Ellipse 210" cx="1.064" cy="1.064" r="1.064" transform="translate(69.211 60.819)" fill="#999"/>
        <circle id="Ellipse_211" data-name="Ellipse 211" cx="1.064" cy="1.064" r="1.064" transform="translate(74.76 60.819)" fill="#999"/>
      </g>
    </g>
    <text id="_30M" data-name="30M" transform="translate(1062 621)" fill="#0792E5" font-size="24" font-family="IberPangea-Bold, IberPangea" font-weight="700"><tspan x="0" y="0">30M</tspan></text>
    <g id="Group_13282" data-name="Group 13282" transform="translate(45.721 266.465)">
      <path id="Path_12163" data-name="Path 12163" d="M1680.382,744.923l62.147-5.2,41.577-16.423a6.566,6.566,0,0,0-.7-12.447l-53.709-14.5Z" transform="translate(-446.143 -359.697)" fill="#f0f3ea"/>
      <path id="Path_12164" data-name="Path 12164" d="M1478.532,725.282l53.088,12.939,91.715-31.584-36.62-16.271Z" transform="translate(-326.009 -355.449)" fill="#84a029"/>
      <path id="Path_12165" data-name="Path 12165" d="M1122.583,206.573s-7.752-21.653-38.033-15.9c-42.262,8.034-4.208,48.733-15.663,62s-26.549,23.994-10.054,38.494c29.1,25.581,61.183,17.876,70.586-5.216S1112,252.8,1120.291,237.31,1122.583,206.573,1122.583,206.573Z" transform="translate(0 0)" fill="#00A443"/>
      <line id="Line_9" data-name="Line 9" y2="122.735" transform="translate(1095.603 226.818)" fill="none" stroke="#343834" stroke-linecap="round" stroke-linejoin="round" stroke-width="6.139"/>
      <path id="Path_12166" data-name="Path 12166" d="M1192.936,461.36l20.2-7.031-8.672-12.087Z" transform="translate(-100.38 -179.292)" fill="#ad4921"/>
      <path id="Path_12167" data-name="Path 12167" d="M1730.374,287.739s6.355-21.116,18.31-21.116c16.19,0,18.585,16.776,18.585,16.776s3.3-11.685,12.733-11.5,13.032,11.5,13.032,11.5,8.089-9.8,17.526,4.528Z" transform="translate(-481.937 -54.61)" fill="#0792E5" opacity="0.04"/>
      <path id="Path_12168" data-name="Path 12168" d="M1515.545,538.134l-79.56,18.72-32.8-5.748-7.541-87.763h119.9Z" transform="translate(-244.291 -194.273)" fill="#bfbdbd"/>
      <path id="Path_12169" data-name="Path 12169" d="M1614.3,470.318l-79.56,12.432V454.86l79.56,2.46Z" transform="translate(-343.046 -188.25)" fill="#a0a0a0"/>
      <path id="Path_12170" data-name="Path 12170" d="M1310.845,412.224l-91.47-7.918V310.8l45.735-51.168,45.735,59.087Z" transform="translate(-119.151 -49.643)" fill="#dadada"/>
      <rect id="Rectangle_18217" data-name="Rectangle 18217" width="7.541" height="91.061" transform="translate(1142.36 205.462) rotate(37.763)" fill="#e36837"/>
      <path id="Path_12171" data-name="Path 12171" d="M1502.876,308.175l5.483-4.247L1447.447,236.2l-79.49.976,53.75,81.7Z" transform="translate(-224.637 -33.01)" fill="#cf5e32"/>
      <path id="Path_12172" data-name="Path 12172" d="M1342.256,623.887l-38.175-3.594V561.265l38.175,2.3Z" transform="translate(-179.288 -263.793)" fill="#a6a098"/>
      <circle id="Ellipse_212" data-name="Ellipse 212" cx="12.82" cy="12.82" r="12.82" transform="translate(1131.061 260.732)" fill="#ebe4d8"/>
      <circle id="Ellipse_213" data-name="Ellipse 213" cx="9.318" cy="9.318" r="9.318" transform="translate(1130.675 271.782) rotate(-37.281)" fill="#a6a098"/>
      <path id="Path_12173" data-name="Path 12173" d="M1608.256,597.75l-26.867,5.6V569.068l26.867-4.971Z" transform="translate(-376.164 -265.804)" fill="#ebe4d8"/>
      <path id="Path_12174" data-name="Path 12174" d="M1612.3,605.958l-21.282,3.937V582.736L1612.3,578.8Z" transform="translate(-382.999 -276.241)" fill="#99948c"/>
      <path id="Path_12175" data-name="Path 12175" d="M1724.585,576.022l-26.34,4.873V547.282l26.34-4.873Z" transform="translate(-459.127 -250.406)" fill="#ebe4d8"/>
      <path id="Path_12176" data-name="Path 12176" d="M1728.549,583.449l-20.865,3.86V560.682l20.865-3.86Z" transform="translate(-465.828 -260.639)" fill="#99948c"/>
      <path id="Path_12223" data-name="Path 12223" d="M1747.559,605.8c-2.9-15.423,10.451-29.235,25.9-26.478q.369.066.744.143c19.984,4.1,10.18,31.63,10.18,31.63s1.666-20.336,14.864-15.057-5.534,31.166-5.534,31.166h-30.384a14.162,14.162,0,0,1-13.919-11.549Z" transform="translate(-493.855 -276.364)" fill="#84a029"/>
      <path id="Path_12227" data-name="Path 12227" d="M1410.088,321.261l5.962-4.618-59.711-77.081-4.747,6.186Z" transform="translate(-213.018 -35.398)" fill="#e36837"/>
      <path id="Path_12228" data-name="Path 12228" d="M1559.235,480.039l80.691-10.327-5.483,4.247-81.17,10.7Z" transform="translate(-356.203 -198.794)" fill="#ad4921"/>
      <path id="Path_12229" data-name="Path 12229" d="M1310.845,360.185l-47.961-63.831-43.508,57.564V337.853l43.1-55.632,48.5,62.55Z" transform="translate(-119.151 -65.684)" fill="#bfbfbf"/>
      <path id="Path_12230" data-name="Path 12230" d="M1591.015,597.23l11.122-13.729,3.929-.727-15.051,19.058Z" transform="translate(-382.999 -279.063)" fill="#b3ada4"/>
      <path id="Path_12231" data-name="Path 12231" d="M1591.015,604.067,1612.3,578.8v7.991l-19.462,22.769-1.821.337Z" transform="translate(-382.999 -276.241)" fill="#b3ada4"/>
      <path id="Path_12232" data-name="Path 12232" d="M1707.87,574.784l10.806-13.34,3.886-.719-14.692,18.6Z" transform="translate(-465.96 -263.41)" fill="#b3ada4"/>
      <path id="Path_12233" data-name="Path 12233" d="M1707.87,581.552l20.811-24.73v7.911l-19.013,22.243-1.8.333Z" transform="translate(-465.96 -260.639)" fill="#b3ada4"/>
      <path id="Path_12234" data-name="Path 12234" d="M1310.942,652.576h0a.693.693,0,0,1-.691-.691v-4.509a.693.693,0,0,1,.691-.691h0a.694.694,0,0,1,.691.691v4.508A.693.693,0,0,1,1310.942,652.576Z" transform="translate(-183.669 -324.437)" fill="#ebe4d8"/>
      <path id="Path_12235" data-name="Path 12235" d="M1338.844,460.089a9.257,9.257,0,0,0,1.337,2.532l12.884-13.151a9.336,9.336,0,0,0-2.666-1.321Z" transform="translate(-203.968 -183.485)" fill="#b3ada4"/>
      <path id="Path_12236" data-name="Path 12236" d="M1350.435,471.63a9.308,9.308,0,0,0,4.413,1.7l10.3-10.23c-.018-.172-.04-.344-.068-.517a9.272,9.272,0,0,0-2.1-4.55Z" transform="translate(-212.197 -190.502)" fill="#b3ada4"/>
      <path id="Path_12241" data-name="Path 12241" d="M1678.977,771.045l-.484,24.837,3.126,1.96-.057-24.388Z" transform="translate(-445.104 -412.728)" fill="#ebe4d8"/>
      <path id="Path_12246" data-name="Path 12246" d="M1749.41,615.658a14.152,14.152,0,0,0,.995,3.174c7.978.256,41.061-1.729,46.769-23.434-5.865-1.275-9.089,3-10.831,7.412,1.241-8.459.67-20.712-12.139-23.343q-.375-.077-.744-.143c-15.448-2.757-28.8,11.056-25.9,26.478Z" transform="translate(-493.855 -276.363)" fill="#00A443"/>
      <path id="Path_12247" data-name="Path 12247" d="M1917.217,676.755l-2.708-1.541-5.411,7.644,2.585,2.4Z" transform="translate(-608.824 -344.692)" fill="#ebe4d8"/>
      <path id="Path_12248" data-name="Path 12248" d="M1879.061,688.225l-2.707-1.541-5.411,7.644,2.585,2.4Z" transform="translate(-581.734 -352.835)" fill="#ebe4d8"/>
      <path id="Path_12249" data-name="Path 12249" d="M1840.9,699.826l-2.707-1.541-5.411,7.644,2.585,2.4Z" transform="translate(-554.645 -361.072)" fill="#ebe4d8"/>
      <path id="Path_12250" data-name="Path 12250" d="M1802.748,711.428l-2.707-1.541-5.411,7.644,2.585,2.4Z" transform="translate(-527.556 -369.308)" fill="#ebe4d8"/>
      <path id="Path_12251" data-name="Path 12251" d="M1764.591,723.029l-2.707-1.54-5.411,7.644,2.585,2.4Z" transform="translate(-500.466 -377.545)" fill="#ebe4d8"/>
      <path id="Path_12252" data-name="Path 12252" d="M1726.435,734.631l-2.707-1.541-5.411,7.644,2.585,2.4Z" transform="translate(-473.377 -385.781)" fill="#ebe4d8"/>
      <path id="Path_12253" data-name="Path 12253" d="M1688.279,746.232l-2.707-1.54-5.411,7.644,2.585,2.4Z" transform="translate(-446.288 -394.018)" fill="#ebe4d8"/>
      <path id="Path_12264" data-name="Path 12264" d="M1688.279,746.232l-2.707-1.54-5.411,7.644,2.585,2.4Z" transform="translate(-457.798 -390.52)" fill="#ebe4d8"/>
      <path id="Path_12265" data-name="Path 12265" d="M1688.279,746.232l-2.707-1.54-5.411,7.644,2.585,2.4Z" transform="translate(-468.6 -387.035)" fill="#ebe4d8"/>
      <path id="Path_12266" data-name="Path 12266" d="M1688.279,746.232l-2.707-1.54-5.411,7.644,2.585,2.4Z" transform="translate(-490.622 -380.415)" fill="#ebe4d8"/>
      <path id="Path_12267" data-name="Path 12267" d="M1688.279,746.232l-2.707-1.54-5.411,7.644,2.585,2.4Z" transform="translate(-479.75 -383.899)" fill="#ebe4d8"/>
      <g id="Group_13281" data-name="Group 13281" transform="translate(1236.457 332.063)">
        <g id="Group_13280" data-name="Group 13280">
          <g id="Group_13279" data-name="Group 13279">
            <path id="Path_12254" data-name="Path 12254" d="M1700.139,779.661l-11.067,3.365V758.638l5.533-8.5,5.534,5.139Z" transform="translate(-1689.072 -729.945)" fill="#dbd5ca"/>
            <path id="Path_12255" data-name="Path 12255" d="M1738.3,768.06l-11.067,3.365V747.037l5.533-8.5,5.534,5.139Z" transform="translate(-1716.162 -721.708)" fill="#dbd5ca"/>
            <path id="Path_12256" data-name="Path 12256" d="M1776.452,756.458l-11.067,3.365V735.435l5.534-8.5,5.533,5.139Z" transform="translate(-1743.251 -713.472)" fill="#dbd5ca"/>
            <path id="Path_12257" data-name="Path 12257" d="M1814.608,744.857l-11.067,3.365V723.834l5.533-8.5,5.533,5.139Z" transform="translate(-1770.34 -705.235)" fill="#dbd5ca"/>
            <path id="Path_12258" data-name="Path 12258" d="M1852.765,733.255,1841.7,736.62V712.232l5.534-8.5,5.533,5.139Z" transform="translate(-1797.429 -696.999)" fill="#dbd5ca"/>
            <path id="Path_12259" data-name="Path 12259" d="M1890.921,721.654l-11.067,3.365V700.631l5.534-8.5,5.533,5.139Z" transform="translate(-1824.519 -688.762)" fill="#dbd5ca"/>
            <path id="Path_12260" data-name="Path 12260" d="M1929.078,710.052l-11.067,3.365V689.029l5.534-8.5,5.533,5.139Z" transform="translate(-1851.608 -680.525)" fill="#dbd5ca"/>
          </g>
        </g>
        <line id="Line_12" data-name="Line 12" y1="24.388" transform="translate(11.067 25.373)" fill="none" stroke="#b3ada4" stroke-linecap="round" stroke-linejoin="round" stroke-width="1.228"/>
        <line id="Line_13" data-name="Line 13" y1="24.388" transform="translate(22.134 22.053)" fill="none" stroke="#b3ada4" stroke-linecap="round" stroke-linejoin="round" stroke-width="1.228"/>
        <line id="Line_14" data-name="Line 14" y1="24.388" transform="translate(33.201 18.733)" fill="none" stroke="#b3ada4" stroke-linecap="round" stroke-linejoin="round" stroke-width="1.228"/>
        <line id="Line_15" data-name="Line 15" y1="24.209" transform="translate(44.268 15.413)" fill="none" stroke="#b3ada4" stroke-linecap="round" stroke-linejoin="round" stroke-width="1.228"/>
        <line id="Line_16" data-name="Line 16" y1="24.164" transform="translate(55.335 12.093)" fill="none" stroke="#b3ada4" stroke-linecap="round" stroke-linejoin="round" stroke-width="1.228"/>
        <line id="Line_17" data-name="Line 17" y1="24.014" transform="translate(66.402 8.773)" fill="none" stroke="#b3ada4" stroke-linecap="round" stroke-linejoin="round" stroke-width="1.228"/>
        <line id="Line_18" data-name="Line 18" y1="24.074" transform="translate(77.469 5.453)" fill="none" stroke="#b3ada4" stroke-linecap="round" stroke-linejoin="round" stroke-width="1.228"/>
        <line id="Line_19" data-name="Line 19" y1="24.388" transform="translate(0.057 28.694)" fill="none" stroke="#b3ada4" stroke-linecap="round" stroke-linejoin="round" stroke-width="1.228"/>
      </g>
      <g id="Group_13284" data-name="Group 13284" transform="translate(1191.856 355.566)">
        <g id="Group_13280-2" data-name="Group 13280" transform="translate(0 0)">
          <g id="Group_13279-2" data-name="Group 13279">
            <path id="Path_12254-2" data-name="Path 12254" d="M1700.139,779.661l-11.067,3.365V758.638l5.533-8.5,5.534,5.139Z" transform="translate(-1689.072 -740.04)" fill="#dbd5ca"/>
            <path id="Path_12255-2" data-name="Path 12255" d="M1738.3,768.06l-11.067,3.365V747.037l5.533-8.5,5.534,5.139Z" transform="translate(-1716.162 -731.803)" fill="#dbd5ca"/>
            <path id="Path_12256-2" data-name="Path 12256" d="M1776.452,756.458l-11.067,3.365V735.435l5.534-8.5,5.533,5.139Z" transform="translate(-1743.251 -723.566)" fill="#dbd5ca"/>
            <path id="Path_12257-2" data-name="Path 12257" d="M1814.608,744.857l-11.067,3.365V723.834l5.533-8.5,5.533,5.139Z" transform="translate(-1770.34 -715.33)" fill="#dbd5ca"/>
          </g>
        </g>
        <line id="Line_12-2" data-name="Line 12" y1="24.388" transform="translate(11.067 15.278)" fill="none" stroke="#b3ada4" stroke-linecap="round" stroke-linejoin="round" stroke-width="1.228"/>
        <line id="Line_13-2" data-name="Line 13" y1="24.388" transform="translate(22.134 11.958)" fill="none" stroke="#b3ada4" stroke-linecap="round" stroke-linejoin="round" stroke-width="1.228"/>
        <line id="Line_14-2" data-name="Line 14" y1="24.388" transform="translate(33.201 8.638)" fill="none" stroke="#b3ada4" stroke-linecap="round" stroke-linejoin="round" stroke-width="1.228"/>
        <line id="Line_19-2" data-name="Line 19" y1="24.388" transform="translate(0.057 18.599)" fill="none" stroke="#b3ada4" stroke-linecap="round" stroke-linejoin="round" stroke-width="1.228"/>
      </g>
      <g id="Group_13283" data-name="Group 13283" transform="translate(1148.344 362.794)">
        <path id="Path_12224" data-name="Path 12224" d="M1614.406,784.412l-11.065-1.217V758.807l5.532-6.213,5.532,7.43Z" transform="translate(-1581.211 -749.181)" fill="#ebe4d8"/>
        <path id="Path_12225" data-name="Path 12225" d="M1538.108,775.878l-11.065-1.217V750.273l5.533-6.213,5.532,7.43Z" transform="translate(-1527.043 -743.123)" fill="#ebe4d8"/>
        <path id="Path_12226" data-name="Path 12226" d="M1576.257,780.074l-11.065-1.217V754.469l5.532-6.213,5.533,7.43Z" transform="translate(-1554.127 -746.101)" fill="#ebe4d8"/>
        <line id="Line_10" data-name="Line 10" y1="24.388" transform="translate(21.84 9.408)" fill="none" stroke="#b3ada4" stroke-linecap="round" stroke-linejoin="round" stroke-width="1.228"/>
        <line id="Line_11" data-name="Line 11" y1="24.388" transform="translate(11.065 8.422)" fill="none" stroke="#b3ada4" stroke-linecap="round" stroke-linejoin="round" stroke-width="1.228"/>
        <path id="Path_12242" data-name="Path 12242" d="M1627.948,758.13l-5.532-7.507,2.529-.805,4.922,6.157Z" transform="translate(-1594.753 -747.21)" fill="#dbd5ca"/>
        <path id="Path_12243" data-name="Path 12243" d="M1589.8,753.589l-5.532-7.507,2.529-.805,4.922,6.157Z" transform="translate(-1567.669 -743.986)" fill="#dbd5ca"/>
        <path id="Path_12244" data-name="Path 12244" d="M1551.65,749.138l-5.532-7.507,2.529-.805,4.923,6.157Z" transform="translate(-1540.585 -740.826)" fill="#dbd5ca"/>
        <line id="Line_20" data-name="Line 20" y1="24.388" transform="translate(33.029 11.174)" fill="none" stroke="#b3ada4" stroke-linecap="round" stroke-linejoin="round" stroke-width="1.228"/>
        <path id="Path_12261" data-name="Path 12261" d="M1660.716,785.485l-2.736.963L1649.132,783V758.609l3.316-3.979,3.081-.991,5.187,7.458Z" transform="translate(-1613.721 -749.923)" fill="#dbd5ca"/>
        <path id="Path_12262" data-name="Path 12262" d="M1652.555,788.873l-11.065-1.217V763.268l5.532-6.213,5.532,7.43Z" transform="translate(-1608.296 -752.348)" fill="#ebe4d8"/>
      </g>
    </g>
  </g>
</svg>
