<svg xmlns="http://www.w3.org/2000/svg" width="431.401" height="397.562" viewBox="0 0 431.401 397.562">
  <g id="Group_14580" data-name="Group 14580" transform="translate(-90.488 -87.094)">
    <g id="Group_13016" data-name="Group 13016" transform="translate(90.488 87.094)">
      <path id="Path_11030" data-name="Path 11030" d="M67.631,313.849c-1.555,1.653-3.049,3.508-3.292,5.65-.629,5.534,6.576,8.7,11.767,11.815,8.022,4.814,13.246,13.116,13.657,21.7.6,12.63-8.326,23.792-15.151,34.886s-11.559,25.5-3.276,35.785c7.772,9.649,23.083,10.938,36.438,11.344l92.967,2.832c6.855.209,13.764.415,20.533-.574,15.467-2.258,29.59-10.651,45.264-10.636,14.86.014,29.025,7.663,43.8,6.232,10.353-1,20.066-6.435,30.434-5.559,8.914.754,16.534,6.057,25.26,7.839,16.022,3.273,31.848-5.686,48.224-6.968,11.851-.928,23.577,2.206,35.414,3.267s25.221-.554,32.835-8.668c6.832-7.279,7.1-17.907,4.377-27.067s-8.017-17.555-11.364-26.552c-1.218-3.275-2.184-6.759-1.469-10.148.85-4.03,3.927-7.349,6.246-10.894,5.4-8.256,6.706-18.87,1.987-27.449-7.94-14.433-28.857-18.6-46.953-18.619-12.819-.015-25.6,1.181-38.389,1.9-25.362,1.419-50.809.953-76.2.125q-73.349-2.39-146.439-8.8C140.524,292.336,92.065,287.88,67.631,313.849Z" transform="translate(-57.094 -108.075)" fill="#f1f1f1"/>
      <g id="Group_12987" data-name="Group 12987">
        <g id="Group_12986" data-name="Group 12986">
          <g id="Group_12970" data-name="Group 12970" transform="translate(61.273 143.677)">
            <g id="Group_12966" data-name="Group 12966" transform="translate(0 44.471)">
              <path id="Path_11129" data-name="Path 11129" d="M158.713,313.484v13.529c0,2.376,1.663,4.06,3.762,5.189,9.425,5.051,29.007,9.112,49.025,9.33,17.681.2,32.768-1.169,44.886-5.389q1.544-.505,3.029-1.129a55.509,55.509,0,0,0,5.682-2.654,5.476,5.476,0,0,0,3.168-4.735V313.484Z" transform="translate(-158.713 -298.31)" fill="#febf3e"/>
              <path id="Path_11130" data-name="Path 11130" d="M158.713,313.484v13.529c0,2.376,1.663,4.06,3.762,5.189,9.425,5.051,29.007,9.112,49.025,9.33,12.375.138,23.483-.5,33.164-2.338,1.01-.179,2-.4,2.97-.614.95-.2,1.882-.436,2.812-.674,1.009-.238,2-.515,2.97-.812q1.514-.446,2.97-.951,1.544-.505,3.029-1.129a55.509,55.509,0,0,0,5.682-2.654,5.476,5.476,0,0,0,3.168-4.735V313.484Z" transform="translate(-158.713 -298.31)" fill="#febf3e"/>
              <path id="Path_11131" data-name="Path 11131" d="M158.713,313.484v13.529a5.359,5.359,0,0,0,2.475,4.358,7.959,7.959,0,0,0,1.287.832c.475.258.97.516,1.5.753.911.436,1.9.872,2.97,1.268.891.357,1.822.713,2.812,1.03.95.337,1.94.634,2.97.95.911.258,1.841.516,2.811.773s1.961.495,2.97.733c.911.217,1.842.416,2.792.633.97.2,1.96.4,2.97.575.93.179,1.861.337,2.811.495q1.456.238,2.97.476c.931.118,1.862.258,2.812.376.97.119,1.961.237,2.97.337.911.1,1.841.2,2.791.277.971.1,1.98.179,2.97.238.93.08,1.862.139,2.812.179.99.059,1.98.1,2.97.138.93.04,1.861.059,2.812.079.436,0,.87.021,1.307.021.554.02,1.108.02,1.663.02.93,0,1.861,0,2.791-.02.99.02,1.98,0,2.97-.021.95,0,1.881-.039,2.811-.079,1.01,0,2-.039,2.971-.1.95-.02,1.881-.079,2.811-.138,1.01-.04,2-.119,2.97-.2q1.4-.089,2.792-.238c1.009-.079,2-.178,2.969-.317.951-.079,1.882-.2,2.812-.357,1.01-.119,2-.257,2.97-.436.891-.138,1.762-.3,2.633-.455,1.01-.179,2-.4,2.97-.614.95-.2,1.882-.436,2.812-.674,1.009-.238,2-.515,2.97-.812q1.514-.446,2.97-.951,1.544-.505,3.029-1.129a55.509,55.509,0,0,0,5.682-2.654,5.476,5.476,0,0,0,3.168-4.735V313.484Z" transform="translate(-158.713 -298.31)" fill="#febf3e"/>
              <path id="Path_11132" data-name="Path 11132" d="M158.713,311.762a7.2,7.2,0,0,0,2.475,5.249,15.742,15.742,0,0,0,2.791,2.08,26.016,26.016,0,0,0,2.97,1.486c.891.376,1.822.733,2.812,1.07.95.337,1.94.634,2.97.931.911.258,1.841.495,2.811.713q1.456.357,2.97.654c.911.178,1.842.357,2.792.515q1.455.268,2.97.476c.93.138,1.881.278,2.811.376.991.138,1.98.257,2.97.376.931.1,1.882.2,2.812.277.99.1,2,.178,2.97.257.95.08,1.881.138,2.791.2q1.545.119,2.97.178c.971.059,1.921.119,2.812.159,1.049.04,2.059.059,2.97.1,1.049.02,1.98.059,2.812.079,1.307.02,2.316.02,2.97.02h.316c.5,0,1.347,0,2.475-.02q1.277-.03,2.97-.059c.871-.02,1.8-.059,2.811-.079.931-.059,1.941-.1,2.971-.158.911-.04,1.841-.1,2.811-.159s1.961-.119,2.97-.2c.911-.079,1.861-.158,2.792-.237q1.485-.119,2.969-.3c.931-.1,1.882-.2,2.812-.317.99-.119,1.98-.258,2.97-.4,13.345-1.9,26.235-5.7,26.235-13.271,0-14.758-49.163-15.173-54.786-15.173C207.876,296.589,158.713,297,158.713,311.762Z" transform="translate(-158.713 -296.589)" fill="#f4d854"/>
              <ellipse id="Ellipse_195" data-name="Ellipse 195" cx="50.82" cy="13.205" rx="50.82" ry="13.205" transform="translate(3.954 1.974)" fill="#febf3e"/>
              <path id="Path_11133" data-name="Path 11133" d="M213.935,298.787c28.067,0,50.819,7.006,50.819,13.206,0,1.167-.807,2.361-2.3,3.533a3.027,3.027,0,0,0,.486-1.552c0-5.968-21.9-12.713-48.922-12.713S165.1,308.006,165.1,313.974a3.154,3.154,0,0,0,.623,1.772c-1.68-1.242-2.6-2.514-2.6-3.753C163.115,305.793,185.868,298.787,213.935,298.787Z" transform="translate(-159.162 -296.813)" fill="#ffa238"/>
              <path id="Path_11134" data-name="Path 11134" d="M270.5,323.566v12.477q-1.486.624-3.029,1.129v-12.5C268.531,324.329,269.538,323.958,270.5,323.566Z" transform="translate(-169.795 -299.338)" fill="#f4d854"/>
              <path id="Path_11135" data-name="Path 11135" d="M277.235,319.632v13.137c-.12.074-.237.152-.363.219-.846.456-1.719.89-2.607,1.309V321.707A16.463,16.463,0,0,0,277.235,319.632Z" transform="translate(-170.487 -298.937)" fill="#f4d854"/>
              <path id="Path_11136" data-name="Path 11136" d="M263.824,325.764v12.582c-.971.3-1.961.574-2.97.812V326.494C261.869,326.267,262.856,326.022,263.824,325.764Z" transform="translate(-169.121 -299.562)" fill="#f4d854"/>
              <path id="Path_11137" data-name="Path 11137" d="M257.386,327.227v12.754c-.97.218-1.96.436-2.97.614V327.75C255.415,327.586,256.408,327.414,257.386,327.227Z" transform="translate(-168.465 -299.711)" fill="#f4d854"/>
              <path id="Path_11138" data-name="Path 11138" d="M248.177,328.657v12.934c1.01-.118,2-.257,2.97-.436V328.261C250.157,328.4,249.167,328.538,248.177,328.657Z" transform="translate(-167.829 -299.816)" fill="#f4d854"/>
              <path id="Path_11139" data-name="Path 11139" d="M241.74,329.352v12.994c1.009-.079,2-.178,2.969-.317V329.055Q243.225,329.233,241.74,329.352Z" transform="translate(-167.173 -299.897)" fill="#ffa238"/>
              <path id="Path_11140" data-name="Path 11140" d="M235.324,329.848v12.995c1.01-.04,2-.119,2.97-.2V329.65C237.285,329.729,236.294,329.789,235.324,329.848Z" transform="translate(-166.519 -299.958)" fill="#ffa238"/>
              <path id="Path_11141" data-name="Path 11141" d="M228.886,330.206v12.915c1.01,0,2-.04,2.971-.1V330.048C230.827,330.107,229.817,330.147,228.886,330.206Z" transform="translate(-165.863 -299.998)" fill="#ffa238"/>
              <path id="Path_11142" data-name="Path 11142" d="M222.449,330.371v12.876c.99.02,1.98,0,2.97-.021V330.312Q223.726,330.342,222.449,330.371Z" transform="translate(-165.207 -300.025)" fill="#ffa238"/>
              <path id="Path_11143" data-name="Path 11143" d="M216.034,330.378v12.855c.436,0,.87.021,1.307.021.554.02,1.108.02,1.663.02V330.4C218.35,330.4,217.341,330.4,216.034,330.378Z" transform="translate(-164.554 -300.032)" fill="#ffa238"/>
              <path id="Path_11144" data-name="Path 11144" d="M209.6,330.18V343c.99.059,1.98.1,2.97.138V330.279C211.655,330.239,210.645,330.219,209.6,330.18Z" transform="translate(-163.898 -300.012)" fill="#ffa238"/>
              <path id="Path_11145" data-name="Path 11145" d="M203.158,329.8v12.736c.971.1,1.98.179,2.97.238v-12.8Q204.7,329.924,203.158,329.8Z" transform="translate(-163.242 -299.974)" fill="#ffa238"/>
              <path id="Path_11146" data-name="Path 11146" d="M196.743,329.3v12.578c.97.119,1.961.237,2.97.337V329.555C198.743,329.476,197.733,329.4,196.743,329.3Z" transform="translate(-162.588 -299.922)" fill="#ffa238"/>
              <path id="Path_11147" data-name="Path 11147" d="M190.3,328.57v12.379q1.456.238,2.97.476V328.946C192.285,328.827,191.3,328.708,190.3,328.57Z" transform="translate(-161.932 -299.848)" fill="#ffa238"/>
              <path id="Path_11148" data-name="Path 11148" d="M183.868,327.621v12.162c.97.2,1.96.4,2.97.575V328.1Q185.322,327.888,183.868,327.621Z" transform="translate(-161.276 -299.751)" fill="#ffa238"/>
              <path id="Path_11149" data-name="Path 11149" d="M177.452,326.32v11.965c.971.257,1.961.495,2.97.733V326.974Q178.908,326.676,177.452,326.32Z" transform="translate(-160.622 -299.618)" fill="#e59323"/>
              <path id="Path_11150" data-name="Path 11150" d="M171.015,324.489v11.885c.95.337,1.94.634,2.97.95v-11.9C172.955,325.123,171.965,324.826,171.015,324.489Z" transform="translate(-159.967 -299.432)" fill="#e59323"/>
              <path id="Path_11151" data-name="Path 11151" d="M164.577,321.644v12.142c.911.436,1.9.872,2.97,1.268V323.129A26.018,26.018,0,0,1,164.577,321.644Z" transform="translate(-159.311 -299.142)" fill="#e59323"/>
              <path id="Path_11152" data-name="Path 11152" d="M158.713,313.484v13.529a5.359,5.359,0,0,0,2.475,4.358V318.732A7.2,7.2,0,0,1,158.713,313.484Z" transform="translate(-158.713 -298.31)" fill="#e59323"/>
            </g>
            <g id="Group_12967" data-name="Group 12967" transform="translate(17.826 28.981)">
              <path id="Path_11153" data-name="Path 11153" d="M178.561,295.252v12.741c0,2.238,1.566,3.824,3.543,4.888,8.876,4.756,27.318,8.581,46.17,8.786,16.652.187,30.861-1.1,42.273-5.074q1.455-.476,2.853-1.063a52.218,52.218,0,0,0,5.352-2.5,5.156,5.156,0,0,0,2.984-4.458v-13.32Z" transform="translate(-178.561 -280.962)" fill="#febf3e"/>
              <path id="Path_11154" data-name="Path 11154" d="M178.561,295.252v12.741c0,2.238,1.566,3.824,3.543,4.888,8.876,4.756,27.318,8.581,46.17,8.786,11.655.131,22.116-.466,31.234-2.2.951-.168,1.883-.373,2.8-.578.9-.187,1.772-.41,2.648-.634.951-.224,1.884-.485,2.8-.764q1.427-.42,2.8-.9,1.455-.476,2.853-1.063a52.218,52.218,0,0,0,5.352-2.5,5.156,5.156,0,0,0,2.984-4.458v-13.32Z" transform="translate(-178.561 -280.962)" fill="#febf3e"/>
              <path id="Path_11155" data-name="Path 11155" d="M178.561,295.252v12.741a5.048,5.048,0,0,0,2.331,4.1,7.5,7.5,0,0,0,1.212.784c.448.242.914.485,1.417.709.858.41,1.79.821,2.8,1.194.839.336,1.715.672,2.648.971.895.317,1.828.6,2.8.895.858.243,1.734.486,2.649.728s1.846.466,2.8.69c.858.206,1.734.392,2.63.6.913.187,1.846.373,2.8.541.877.168,1.753.317,2.648.467q1.37.224,2.8.447c.876.112,1.752.242,2.648.355.913.111,1.846.224,2.8.317.858.093,1.734.187,2.63.261.913.093,1.864.168,2.8.224.877.075,1.753.13,2.648.168.933.056,1.865.093,2.8.13.877.038,1.752.056,2.648.075.41,0,.821.019,1.23.019.523.019,1.044.019,1.567.019.876,0,1.752,0,2.629-.019.932.019,1.864,0,2.8-.019.9,0,1.772-.037,2.649-.075.951,0,1.883-.037,2.8-.093.9-.018,1.771-.075,2.648-.13.951-.038,1.883-.112,2.8-.187q1.315-.083,2.629-.224c.951-.075,1.883-.168,2.8-.3.895-.075,1.771-.187,2.648-.336.951-.112,1.883-.242,2.8-.41.84-.131,1.66-.28,2.481-.429.951-.168,1.883-.373,2.8-.578.9-.187,1.772-.41,2.648-.634.951-.224,1.884-.485,2.8-.764q1.427-.42,2.8-.9,1.455-.476,2.853-1.063a52.218,52.218,0,0,0,5.352-2.5,5.156,5.156,0,0,0,2.984-4.458v-13.32Z" transform="translate(-178.561 -280.962)" fill="#febf3e"/>
              <path id="Path_11156" data-name="Path 11156" d="M178.561,293.631a6.784,6.784,0,0,0,2.331,4.943,14.767,14.767,0,0,0,2.629,1.959,24.249,24.249,0,0,0,2.8,1.4c.839.355,1.715.691,2.648,1.008.895.317,1.828.6,2.8.877.858.243,1.734.466,2.649.672q1.37.335,2.8.615c.858.168,1.734.336,2.63.485q1.37.252,2.8.448c.877.13,1.771.261,2.648.355.932.13,1.864.242,2.8.354.876.093,1.771.187,2.648.261.932.093,1.883.168,2.8.243.9.074,1.772.13,2.63.187q1.454.112,2.8.168c.913.056,1.809.111,2.648.149.989.037,1.94.056,2.8.093.988.019,1.864.056,2.648.075,1.23.019,2.182.019,2.8.019h.3c.466,0,1.268,0,2.331-.019q1.2-.028,2.8-.056c.821-.019,1.7-.057,2.649-.075.876-.056,1.827-.092,2.8-.149.858-.037,1.734-.093,2.648-.149s1.846-.112,2.8-.187c.858-.074,1.752-.149,2.629-.224q1.4-.112,2.8-.279c.876-.093,1.771-.187,2.648-.3.932-.111,1.864-.242,2.8-.373,12.568-1.791,24.708-5.373,24.708-12.5,0-13.9-46.3-14.29-51.6-14.29C224.862,279.341,178.561,279.733,178.561,293.631Z" transform="translate(-178.561 -279.341)" fill="#f4d854"/>
              <ellipse id="Ellipse_196" data-name="Ellipse 196" cx="47.861" cy="12.436" rx="47.861" ry="12.436" transform="translate(3.724 1.86)" fill="#febf3e"/>
              <path id="Path_11157" data-name="Path 11157" d="M230.568,281.411c26.432,0,47.86,6.6,47.86,12.437,0,1.1-.76,2.224-2.167,3.327a2.846,2.846,0,0,0,.458-1.461c0-5.62-20.628-11.972-46.074-11.972s-46.074,6.351-46.074,11.972a2.974,2.974,0,0,0,.588,1.67c-1.583-1.17-2.453-2.367-2.453-3.535C182.707,288.009,204.135,281.411,230.568,281.411Z" transform="translate(-178.983 -279.552)" fill="#ffa238"/>
              <path id="Path_11158" data-name="Path 11158" d="M283.836,304.747V316.5q-1.4.589-2.853,1.063v-11.77C281.985,305.466,282.933,305.117,283.836,304.747Z" transform="translate(-188.997 -281.93)" fill="#f4d854"/>
              <path id="Path_11159" data-name="Path 11159" d="M290.182,301.042v12.372c-.113.069-.224.143-.341.206-.8.429-1.619.839-2.455,1.234V303A15.542,15.542,0,0,0,290.182,301.042Z" transform="translate(-189.65 -281.552)" fill="#f4d854"/>
              <path id="Path_11160" data-name="Path 11160" d="M277.552,306.817v11.851c-.913.279-1.846.541-2.8.764V307.5C275.71,307.291,276.64,307.06,277.552,306.817Z" transform="translate(-188.363 -282.141)" fill="#f4d854"/>
              <path id="Path_11161" data-name="Path 11161" d="M271.489,308.2v12.011c-.913.206-1.846.41-2.8.578v-12.1C269.632,308.533,270.567,308.371,271.489,308.2Z" transform="translate(-187.745 -282.281)" fill="#f4d854"/>
              <path id="Path_11162" data-name="Path 11162" d="M262.816,309.542v12.182c.951-.112,1.883-.243,2.8-.41V309.169C264.68,309.3,263.748,309.43,262.816,309.542Z" transform="translate(-187.146 -282.38)" fill="#f4d854"/>
              <path id="Path_11163" data-name="Path 11163" d="M256.753,310.2v12.238c.951-.075,1.883-.168,2.8-.3V309.917Q258.152,310.084,256.753,310.2Z" transform="translate(-186.528 -282.457)" fill="#ffa238"/>
              <path id="Path_11164" data-name="Path 11164" d="M250.711,310.664V322.9c.951-.038,1.883-.112,2.8-.187V310.477C252.557,310.552,251.625,310.608,250.711,310.664Z" transform="translate(-185.913 -282.514)" fill="#ffa238"/>
              <path id="Path_11165" data-name="Path 11165" d="M244.649,311v12.163c.951,0,1.883-.037,2.8-.093V310.851C246.476,310.908,245.525,310.944,244.649,311Z" transform="translate(-185.295 -282.552)" fill="#ffa238"/>
              <path id="Path_11166" data-name="Path 11166" d="M238.586,311.157v12.125c.932.019,1.864,0,2.8-.019V311.1Q239.789,311.128,238.586,311.157Z" transform="translate(-184.677 -282.577)" fill="#ffa238"/>
              <path id="Path_11167" data-name="Path 11167" d="M232.544,311.163v12.106c.41,0,.821.019,1.23.019.523.019,1.044.019,1.567.019V311.182C234.725,311.182,233.774,311.182,232.544,311.163Z" transform="translate(-184.062 -282.583)" fill="#ffa238"/>
              <path id="Path_11168" data-name="Path 11168" d="M226.481,310.976v12.07c.933.056,1.865.093,2.8.13V311.069C228.421,311.032,227.47,311.013,226.481,310.976Z" transform="translate(-183.444 -282.564)" fill="#ffa238"/>
              <path id="Path_11169" data-name="Path 11169" d="M220.419,310.623v12c.913.092,1.864.168,2.8.224V310.791Q221.873,310.734,220.419,310.623Z" transform="translate(-182.826 -282.528)" fill="#ffa238"/>
              <path id="Path_11170" data-name="Path 11170" d="M214.377,310.145v11.846c.913.111,1.846.224,2.8.317V310.387C216.26,310.313,215.309,310.238,214.377,310.145Z" transform="translate(-182.21 -282.48)" fill="#ffa238"/>
              <path id="Path_11171" data-name="Path 11171" d="M208.314,309.46v11.659q1.37.224,2.8.447V309.814C210.178,309.7,209.246,309.59,208.314,309.46Z" transform="translate(-181.593 -282.41)" fill="#ffa238"/>
              <path id="Path_11172" data-name="Path 11172" d="M202.252,308.566V320.02c.913.187,1.846.373,2.8.541V309.014Q203.622,308.817,202.252,308.566Z" transform="translate(-180.975 -282.319)" fill="#ffa238"/>
              <path id="Path_11173" data-name="Path 11173" d="M196.21,307.341v11.268c.913.243,1.846.466,2.8.69V307.956Q197.58,307.677,196.21,307.341Z" transform="translate(-180.359 -282.194)" fill="#e59323"/>
              <path id="Path_11174" data-name="Path 11174" d="M190.147,305.617V316.81c.895.317,1.828.6,2.8.895V306.493C191.975,306.213,191.042,305.934,190.147,305.617Z" transform="translate(-179.742 -282.018)" fill="#e59323"/>
              <path id="Path_11175" data-name="Path 11175" d="M184.084,302.937v11.436c.858.41,1.79.821,2.8,1.194v-11.23A24.241,24.241,0,0,1,184.084,302.937Z" transform="translate(-179.124 -281.745)" fill="#e59323"/>
              <path id="Path_11176" data-name="Path 11176" d="M178.561,295.252v12.741a5.048,5.048,0,0,0,2.331,4.1V300.2A6.784,6.784,0,0,1,178.561,295.252Z" transform="translate(-178.561 -280.962)" fill="#e59323"/>
            </g>
            <g id="Group_12968" data-name="Group 12968" transform="translate(18.105 15.615)">
              <path id="Path_11177" data-name="Path 11177" d="M178.872,280.166v12.579c0,2.209,1.547,3.775,3.5,4.825,8.762,4.7,26.968,8.471,45.579,8.674,16.439.184,30.466-1.087,41.732-5.01q1.436-.469,2.816-1.049a51.621,51.621,0,0,0,5.284-2.468,5.091,5.091,0,0,0,2.945-4.4V280.166Z" transform="translate(-178.872 -266.059)" fill="#febf3e"/>
              <path id="Path_11178" data-name="Path 11178" d="M178.872,280.166v12.579c0,2.209,1.547,3.775,3.5,4.825,8.762,4.7,26.968,8.471,45.579,8.674,11.506.128,21.833-.461,30.835-2.173.938-.165,1.859-.368,2.761-.57.884-.184,1.75-.405,2.614-.626.939-.222,1.859-.48,2.762-.755q1.408-.415,2.761-.885,1.436-.469,2.816-1.049a51.621,51.621,0,0,0,5.284-2.468,5.091,5.091,0,0,0,2.945-4.4V280.166Z" transform="translate(-178.872 -266.059)" fill="#febf3e"/>
              <path id="Path_11179" data-name="Path 11179" d="M178.872,280.166v12.579a4.985,4.985,0,0,0,2.3,4.051,7.377,7.377,0,0,0,1.2.773c.442.24.9.479,1.4.7.846.405,1.767.81,2.761,1.178.829.332,1.694.664,2.614.958.883.313,1.8.589,2.761.884.847.24,1.712.479,2.614.718s1.822.46,2.761.682c.847.2,1.712.386,2.6.589.9.184,1.823.368,2.762.533.865.166,1.731.313,2.613.461q1.354.221,2.762.442c.865.11,1.731.24,2.614.35.9.11,1.822.221,2.761.313.847.093,1.712.185,2.6.258.9.092,1.841.166,2.762.221.865.075,1.731.129,2.613.166.921.056,1.841.092,2.762.129.865.037,1.731.055,2.614.074.4,0,.809.018,1.214.018.516.019,1.031.019,1.547.019.866,0,1.731,0,2.6-.019.921.019,1.841,0,2.762-.018.884,0,1.749-.037,2.613-.074.939,0,1.86-.038,2.762-.093.884-.019,1.749-.074,2.613-.128.939-.037,1.86-.11,2.762-.185q1.3-.082,2.6-.221c.939-.074,1.859-.165,2.762-.295.883-.074,1.749-.184,2.613-.331.939-.11,1.859-.239,2.762-.405.828-.129,1.638-.276,2.448-.424.938-.165,1.859-.368,2.761-.57.884-.184,1.75-.405,2.614-.626.939-.222,1.859-.48,2.762-.755q1.408-.415,2.761-.885,1.436-.469,2.816-1.049a51.621,51.621,0,0,0,5.284-2.468,5.091,5.091,0,0,0,2.945-4.4V280.166Z" transform="translate(-178.872 -266.059)" fill="#febf3e"/>
              <path id="Path_11180" data-name="Path 11180" d="M178.872,278.566a6.7,6.7,0,0,0,2.3,4.88,14.646,14.646,0,0,0,2.6,1.934,23.906,23.906,0,0,0,2.761,1.381c.829.35,1.694.682,2.614,1,.883.313,1.8.589,2.761.865.847.24,1.712.461,2.614.664q1.353.33,2.761.607c.847.166,1.712.331,2.6.479q1.354.249,2.762.442c.865.129,1.749.259,2.613.35.921.129,1.841.24,2.762.35.865.092,1.75.184,2.614.258.92.092,1.859.165,2.761.239.884.074,1.749.129,2.6.184q1.436.111,2.762.166c.9.056,1.785.11,2.613.147.976.037,1.915.055,2.762.093.975.018,1.841.055,2.614.074,1.214.018,2.154.018,2.761.018h.295c.461,0,1.252,0,2.3-.018q1.187-.028,2.762-.056c.81-.018,1.675-.056,2.613-.074.866-.056,1.8-.092,2.762-.147.847-.037,1.712-.092,2.613-.147s1.822-.111,2.762-.184c.847-.074,1.731-.147,2.6-.221q1.381-.11,2.762-.277c.865-.092,1.749-.184,2.613-.295.921-.111,1.841-.24,2.762-.368,12.407-1.768,24.391-5.3,24.391-12.339,0-13.719-45.708-14.107-50.936-14.107C224.58,264.459,178.872,264.846,178.872,278.566Z" transform="translate(-178.872 -264.459)" fill="#f4d854"/>
              <path id="Path_11181" data-name="Path 11181" d="M182.965,278.78c0,5.764,21.154,12.277,47.248,12.277s47.248-6.513,47.248-12.277S256.308,266.5,230.213,266.5,182.965,273.017,182.965,278.78Z" transform="translate(-179.289 -264.667)" fill="#febf3e"/>
              <path id="Path_11182" data-name="Path 11182" d="M230.213,266.5c26.094,0,47.248,6.515,47.248,12.278,0,1.085-.75,2.2-2.14,3.284a2.8,2.8,0,0,0,.453-1.442c0-5.548-20.364-11.819-45.484-11.819s-45.484,6.271-45.484,11.819a2.927,2.927,0,0,0,.58,1.647c-1.563-1.154-2.421-2.336-2.421-3.489C182.965,273.017,204.119,266.5,230.213,266.5Z" transform="translate(-179.289 -264.667)" fill="#ffa238"/>
              <path id="Path_11183" data-name="Path 11183" d="M282.8,289.54v11.6q-1.381.579-2.816,1.049V290.57C280.973,290.25,281.909,289.9,282.8,289.54Z" transform="translate(-189.175 -267.015)" fill="#f4d854"/>
              <path id="Path_11184" data-name="Path 11184" d="M289.065,285.883V298.1c-.111.068-.221.141-.337.2-.788.424-1.6.828-2.424,1.218V287.811A15.363,15.363,0,0,0,289.065,285.883Z" transform="translate(-189.819 -266.642)" fill="#f4d854"/>
              <path id="Path_11185" data-name="Path 11185" d="M276.6,291.584v11.7c-.9.276-1.823.533-2.762.755V292.262C274.779,292.052,275.7,291.824,276.6,291.584Z" transform="translate(-188.548 -267.223)" fill="#f4d854"/>
              <path id="Path_11186" data-name="Path 11186" d="M270.611,292.943V304.8c-.9.2-1.822.405-2.761.57V293.429C268.779,293.277,269.7,293.117,270.611,292.943Z" transform="translate(-187.938 -267.361)" fill="#f4d854"/>
              <path id="Path_11187" data-name="Path 11187" d="M262.049,294.273V306.3c.939-.111,1.859-.239,2.762-.405V293.9C263.89,294.033,262.97,294.163,262.049,294.273Z" transform="translate(-187.347 -267.459)" fill="#f4d854"/>
              <path id="Path_11188" data-name="Path 11188" d="M256.064,294.92V307c.939-.074,1.859-.165,2.762-.295V294.643Q257.445,294.809,256.064,294.92Z" transform="translate(-186.737 -267.535)" fill="#ffa238"/>
              <path id="Path_11189" data-name="Path 11189" d="M250.1,295.381v12.081c.939-.037,1.86-.11,2.762-.185V295.2C251.921,295.271,251,295.325,250.1,295.381Z" transform="translate(-186.13 -267.591)" fill="#ffa238"/>
              <path id="Path_11190" data-name="Path 11190" d="M244.114,295.713v12.008c.939,0,1.86-.038,2.762-.093V295.566C245.918,295.621,244.98,295.658,244.114,295.713Z" transform="translate(-185.52 -267.629)" fill="#ffa238"/>
              <path id="Path_11191" data-name="Path 11191" d="M238.129,295.868v11.97c.921.019,1.841,0,2.762-.018V295.812Q239.316,295.839,238.129,295.868Z" transform="translate(-184.91 -267.654)" fill="#ffa238"/>
              <path id="Path_11192" data-name="Path 11192" d="M232.165,295.874v11.952c.4,0,.809.018,1.214.018.516.019,1.031.019,1.547.019V295.892C234.319,295.892,233.379,295.892,232.165,295.874Z" transform="translate(-184.302 -267.66)" fill="#ffa238"/>
              <path id="Path_11193" data-name="Path 11193" d="M226.179,295.689V307.6c.921.056,1.841.092,2.762.129V295.781C228.094,295.744,227.155,295.726,226.179,295.689Z" transform="translate(-183.692 -267.641)" fill="#ffa238"/>
              <path id="Path_11194" data-name="Path 11194" d="M220.194,295.34v11.841c.9.092,1.841.166,2.762.221v-11.9Q221.63,295.451,220.194,295.34Z" transform="translate(-183.082 -267.606)" fill="#ffa238"/>
              <path id="Path_11195" data-name="Path 11195" d="M214.23,294.869v11.694c.9.11,1.822.221,2.761.313V295.108C216.089,295.034,215.15,294.961,214.23,294.869Z" transform="translate(-182.475 -267.558)" fill="#ffa238"/>
              <path id="Path_11196" data-name="Path 11196" d="M208.244,294.192V305.7q1.354.221,2.762.442v-11.6C210.085,294.432,209.165,294.321,208.244,294.192Z" transform="translate(-181.865 -267.489)" fill="#ffa238"/>
              <path id="Path_11197" data-name="Path 11197" d="M202.259,293.31v11.308c.9.184,1.823.368,2.762.533v-11.4Q203.613,293.559,202.259,293.31Z" transform="translate(-181.255 -267.399)" fill="#ffa238"/>
              <path id="Path_11198" data-name="Path 11198" d="M196.295,292.1v11.123c.9.239,1.822.46,2.761.682v-11.2Q197.648,292.432,196.295,292.1Z" transform="translate(-180.647 -267.276)" fill="#e59323"/>
              <path id="Path_11199" data-name="Path 11199" d="M190.31,290.4v11.049c.883.313,1.8.589,2.761.884V291.264C192.113,290.988,191.193,290.712,190.31,290.4Z" transform="translate(-180.037 -267.102)" fill="#e59323"/>
              <path id="Path_11200" data-name="Path 11200" d="M184.325,287.753v11.289c.846.405,1.767.81,2.761,1.178V289.134A23.9,23.9,0,0,1,184.325,287.753Z" transform="translate(-179.428 -266.833)" fill="#e59323"/>
              <path id="Path_11201" data-name="Path 11201" d="M178.872,280.166v12.579a4.985,4.985,0,0,0,2.3,4.051v-11.75A6.7,6.7,0,0,1,178.872,280.166Z" transform="translate(-178.872 -266.059)" fill="#e59323"/>
            </g>
            <g id="Group_12969" data-name="Group 12969" transform="translate(17.065)">
              <path id="Path_11202" data-name="Path 11202" d="M177.714,262.779v12.578c0,2.21,1.546,3.776,3.5,4.826,8.763,4.7,26.968,8.471,45.58,8.674,16.438.184,30.465-1.087,41.731-5.01q1.436-.469,2.816-1.049a51.752,51.752,0,0,0,5.284-2.468,5.09,5.09,0,0,0,2.945-4.4V262.779Z" transform="translate(-177.714 -248.672)" fill="#febf3e"/>
              <path id="Path_11203" data-name="Path 11203" d="M177.714,262.779v12.578c0,2.21,1.546,3.776,3.5,4.826,8.763,4.7,26.968,8.471,45.58,8.674,11.5.128,21.832-.461,30.834-2.173.939-.166,1.859-.368,2.762-.57.884-.185,1.749-.406,2.613-.627.939-.221,1.86-.479,2.762-.755q1.408-.414,2.761-.884,1.436-.469,2.816-1.049a51.752,51.752,0,0,0,5.284-2.468,5.09,5.09,0,0,0,2.945-4.4V262.779Z" transform="translate(-177.714 -248.672)" fill="#febf3e"/>
              <path id="Path_11204" data-name="Path 11204" d="M177.714,262.779v12.578a4.984,4.984,0,0,0,2.3,4.052,7.468,7.468,0,0,0,1.2.773c.442.239.9.479,1.4.7.847.4,1.767.81,2.762,1.178.828.331,1.693.663,2.613.958.884.313,1.8.589,2.761.884.847.239,1.713.479,2.614.718s1.822.461,2.762.682c.847.2,1.712.387,2.6.59.9.183,1.822.367,2.761.533.866.166,1.731.313,2.614.461q1.353.221,2.761.442c.866.11,1.731.239,2.614.349.9.111,1.822.221,2.761.314.847.092,1.713.184,2.6.258.9.092,1.84.166,2.761.221.866.074,1.731.129,2.614.166.921.055,1.84.092,2.761.128.866.037,1.731.056,2.614.074.405,0,.81.019,1.215.019.516.018,1.03.018,1.546.018.866,0,1.731,0,2.6-.018.92.018,1.84,0,2.761-.019.884,0,1.749-.037,2.614-.074.939,0,1.859-.037,2.761-.092.884-.019,1.749-.074,2.614-.129.939-.037,1.859-.111,2.761-.184q1.3-.082,2.6-.221c.939-.074,1.86-.165,2.762-.295.884-.074,1.749-.184,2.613-.331.939-.11,1.86-.24,2.762-.405.828-.129,1.638-.277,2.448-.424.939-.166,1.859-.368,2.762-.57.884-.185,1.749-.406,2.613-.627.939-.221,1.86-.479,2.762-.755q1.408-.414,2.761-.884,1.436-.469,2.816-1.049a51.752,51.752,0,0,0,5.284-2.468,5.09,5.09,0,0,0,2.945-4.4V262.779Z" transform="translate(-177.714 -248.672)" fill="#febf3e"/>
              <path id="Path_11205" data-name="Path 11205" d="M177.714,261.179a6.7,6.7,0,0,0,2.3,4.88,14.65,14.65,0,0,0,2.6,1.934,24.051,24.051,0,0,0,2.762,1.381c.828.349,1.693.682,2.613.994.884.313,1.8.589,2.761.866.847.24,1.713.461,2.614.663q1.353.331,2.762.608c.847.166,1.712.331,2.6.479q1.353.248,2.761.442c.866.129,1.75.258,2.614.35.921.128,1.841.239,2.761.349.866.092,1.75.184,2.614.258.921.093,1.859.166,2.761.24.884.074,1.749.129,2.6.184q1.435.11,2.761.165c.9.056,1.785.111,2.614.147.975.038,1.915.056,2.761.092.976.019,1.841.056,2.614.074,1.215.019,2.154.019,2.761.019h.295c.461,0,1.252,0,2.3-.019q1.187-.027,2.761-.055c.81-.019,1.675-.056,2.614-.074.865-.056,1.8-.092,2.761-.147.847-.038,1.712-.092,2.614-.147s1.822-.11,2.761-.184c.847-.075,1.731-.148,2.6-.222q1.381-.111,2.762-.276c.865-.092,1.749-.184,2.613-.295.921-.11,1.841-.24,2.762-.369,12.407-1.767,24.391-5.3,24.391-12.338,0-13.72-45.707-14.107-50.936-14.107C223.422,247.072,177.714,247.458,177.714,261.179Z" transform="translate(-177.714 -247.072)" fill="#f4d854"/>
              <ellipse id="Ellipse_197" data-name="Ellipse 197" cx="47.249" cy="12.277" rx="47.249" ry="12.277" transform="translate(3.675 1.835)" fill="#febf3e"/>
              <path id="Path_11206" data-name="Path 11206" d="M229.054,249.115c26.094,0,47.248,6.514,47.248,12.278,0,1.084-.75,2.195-2.139,3.284a2.81,2.81,0,0,0,.452-1.443c0-5.549-20.364-11.819-45.485-11.819s-45.484,6.271-45.484,11.819a2.934,2.934,0,0,0,.58,1.648c-1.563-1.154-2.421-2.337-2.421-3.489C181.806,255.629,202.96,249.115,229.054,249.115Z" transform="translate(-178.131 -247.28)" fill="#ffa238"/>
              <path id="Path_11207" data-name="Path 11207" d="M281.641,272.152v11.6q-1.379.579-2.816,1.049V273.183C279.815,272.862,280.75,272.518,281.641,272.152Z" transform="translate(-188.017 -249.628)" fill="#f4d854"/>
              <path id="Path_11208" data-name="Path 11208" d="M287.907,268.495v12.214c-.112.068-.221.141-.338.2-.787.424-1.6.828-2.424,1.218V270.424A15.409,15.409,0,0,0,287.907,268.495Z" transform="translate(-188.661 -249.255)" fill="#f4d854"/>
              <path id="Path_11209" data-name="Path 11209" d="M275.438,274.2v11.7c-.9.277-1.822.534-2.762.755V274.875C273.62,274.664,274.538,274.436,275.438,274.2Z" transform="translate(-187.39 -249.836)" fill="#f4d854"/>
              <path id="Path_11210" data-name="Path 11210" d="M269.453,275.556v11.859c-.9.2-1.822.4-2.762.57V276.042C267.62,275.89,268.542,275.73,269.453,275.556Z" transform="translate(-186.78 -249.974)" fill="#f4d854"/>
              <path id="Path_11211" data-name="Path 11211" d="M260.89,276.886v12.026c.939-.11,1.86-.24,2.762-.405v-11.99C262.731,276.646,261.811,276.776,260.89,276.886Z" transform="translate(-186.189 -250.072)" fill="#f4d854"/>
              <path id="Path_11212" data-name="Path 11212" d="M254.9,277.532v12.081c.939-.074,1.86-.165,2.762-.295V277.256Q256.286,277.422,254.9,277.532Z" transform="translate(-185.579 -250.148)" fill="#ffa238"/>
              <path id="Path_11213" data-name="Path 11213" d="M248.941,277.994v12.08c.939-.037,1.859-.11,2.761-.184V277.81C250.763,277.884,249.843,277.938,248.941,277.994Z" transform="translate(-184.972 -250.204)" fill="#ffa238"/>
              <path id="Path_11214" data-name="Path 11214" d="M242.956,278.326v12.007c.939,0,1.859-.037,2.761-.092V278.179C244.759,278.234,243.821,278.271,242.956,278.326Z" transform="translate(-184.362 -250.242)" fill="#ffa238"/>
              <path id="Path_11215" data-name="Path 11215" d="M236.971,278.48v11.971c.92.018,1.84,0,2.761-.019V278.425Q238.158,278.452,236.971,278.48Z" transform="translate(-183.752 -250.267)" fill="#ffa238"/>
              <path id="Path_11216" data-name="Path 11216" d="M231.006,278.486v11.952c.405,0,.81.019,1.215.019.516.018,1.03.018,1.546.018V278.5C233.16,278.5,232.221,278.5,231.006,278.486Z" transform="translate(-183.144 -250.273)" fill="#ffa238"/>
              <path id="Path_11217" data-name="Path 11217" d="M225.021,278.3v11.916c.921.055,1.84.092,2.761.128V278.393C226.936,278.357,226,278.339,225.021,278.3Z" transform="translate(-182.534 -250.254)" fill="#ffa238"/>
              <path id="Path_11218" data-name="Path 11218" d="M219.036,277.953v11.841c.9.092,1.84.166,2.761.221v-11.9Q220.471,278.063,219.036,277.953Z" transform="translate(-181.925 -250.219)" fill="#ffa238"/>
              <path id="Path_11219" data-name="Path 11219" d="M213.071,277.481v11.694c.9.111,1.822.221,2.761.313V277.721C214.93,277.647,213.992,277.574,213.071,277.481Z" transform="translate(-181.317 -250.171)" fill="#ffa238"/>
              <path id="Path_11220" data-name="Path 11220" d="M207.086,276.8v11.51q1.353.221,2.761.442v-11.6C208.927,277.044,208.007,276.933,207.086,276.8Z" transform="translate(-180.707 -250.102)" fill="#ffa238"/>
              <path id="Path_11221" data-name="Path 11221" d="M201.1,275.923v11.308c.9.183,1.822.367,2.761.533v-11.4Q202.454,276.171,201.1,275.923Z" transform="translate(-180.097 -250.012)" fill="#ffa238"/>
              <path id="Path_11222" data-name="Path 11222" d="M195.136,274.713v11.123c.9.24,1.822.461,2.762.682v-11.2Q196.489,275.045,195.136,274.713Z" transform="translate(-179.489 -249.888)" fill="#e59323"/>
              <path id="Path_11223" data-name="Path 11223" d="M189.151,273.011v11.05c.884.313,1.8.589,2.761.884V273.877C190.955,273.6,190.035,273.324,189.151,273.011Z" transform="translate(-178.879 -249.715)" fill="#e59323"/>
              <path id="Path_11224" data-name="Path 11224" d="M183.166,270.366v11.289c.847.4,1.767.81,2.762,1.178V271.747A24.052,24.052,0,0,1,183.166,270.366Z" transform="translate(-178.27 -249.446)" fill="#e59323"/>
              <path id="Path_11225" data-name="Path 11225" d="M177.714,262.779v12.578a4.984,4.984,0,0,0,2.3,4.052v-11.75A6.7,6.7,0,0,1,177.714,262.779Z" transform="translate(-177.714 -248.672)" fill="#e59323"/>
            </g>
          </g>
          <g id="Group_12975" data-name="Group 12975" transform="translate(160.547)">
            <g id="Group_12973" data-name="Group 12973">
              <rect id="Rectangle_18156" data-name="Rectangle 18156" width="228.972" height="282.412" rx="7" fill="#007F33"/>
              <rect id="Rectangle_18157" data-name="Rectangle 18157" width="196.822" height="223.576" transform="translate(13.853 31.902)" fill="#fcfcfa"/>
              <rect id="Rectangle_18158" data-name="Rectangle 18158" width="197.606" height="38.44" transform="translate(13.853 31.118)" fill="#00A443"/>
              <path id="Path_11226" data-name="Path 11226" d="M450.256,103.857v9.414c0,2.023-1.318,3.655-2.936,3.655H325.205c-1.618,0-2.923-1.632-2.923-3.655v-9.414c0-2.023,1.3-3.655,2.923-3.655H447.32C448.938,100.2,450.256,101.834,450.256,103.857Z" transform="translate(-274.654 -88.429)" fill="#dfe0db"/>
              <path id="Path_11227" data-name="Path 11227" d="M450.256,108.64v5.491c0,2.023-1.318,3.655-2.936,3.655H325.205c-1.618,0-2.923-1.632-2.923-3.655V108.64Z" transform="translate(-274.654 -89.289)" fill="#dfe0db"/>
              <g id="Group_12971" data-name="Group 12971" transform="translate(35.025 16.997)">
                <path id="Path_11228" data-name="Path 11228" d="M454.1,129.554H314.522a6.282,6.282,0,0,1-6.273-6.276V112.295a6.282,6.282,0,0,1,6.273-6.276H454.1a6.282,6.282,0,0,1,6.273,6.276v10.983A6.282,6.282,0,0,1,454.1,129.554ZM314.522,110.726a1.59,1.59,0,0,0-1.568,1.569v10.983a1.59,1.59,0,0,0,1.568,1.569H454.1a1.589,1.589,0,0,0,1.568-1.569V112.295a1.589,1.589,0,0,0-1.568-1.569Z" transform="translate(-308.249 -106.019)" fill="#dfe0db"/>
              </g>
              <g id="Group_12972" data-name="Group 12972" transform="translate(26.661 83.024)">
                <rect id="Rectangle_18159" data-name="Rectangle 18159" width="71.358" height="4.707" transform="translate(167.939 4.707) rotate(180)" fill="#dfe0db"/>
                <rect id="Rectangle_18160" data-name="Rectangle 18160" width="78.938" height="4.707" transform="translate(172.383 80.278) rotate(180)" fill="#dfe0db"/>
                <rect id="Rectangle_18161" data-name="Rectangle 18161" width="49.271" height="4.707" transform="translate(167.939 14.121) rotate(180)" fill="#dfe0db"/>
                <rect id="Rectangle_18162" data-name="Rectangle 18162" width="49.271" height="4.707" transform="translate(171.598 70.603) rotate(180)" fill="#dfe0db"/>
                <rect id="Rectangle_18163" data-name="Rectangle 18163" width="84.819" height="4.315" transform="translate(0 57.332)" fill="#e8e8e6"/>
                <rect id="Rectangle_18164" data-name="Rectangle 18164" width="84.819" height="4.315" transform="translate(0 65.962)" fill="#e8e8e6"/>
                <rect id="Rectangle_18165" data-name="Rectangle 18165" width="84.819" height="4.315" transform="translate(0 75.179)" fill="#e8e8e6"/>
              </g>
            </g>
            <g id="Group_12974" data-name="Group 12974" transform="translate(21.692 77.998)">
              <path id="Path_11229" data-name="Path 11229" d="M475.854,319.708l-.005-.9-.331,0V173.941H293.741V200.09h-.076l.005.9h.071v26.3h-.076l.005.9h.071v40.153l-.338,0,.005.9.332,0V294.75h-.076l.005.9h.071V342.2H475.517V319.71Zm-55.865-24.787V319.13l-66.8.385V295.306Zm.9-.005,53.73-.311v24.21l-53.73.31Zm53.73-94.971v26.3l-55.559.322v-26.3Zm-179.978-25.1H474.618v24.2l-120.383.7v-.246h-.9v.251l-58.7.339Zm0,26.144,58.7-.339v26.044h.9V200.64l63.924-.369v26.3l-123.52.714Zm0,68.248,179.907-1.039-.005-.9-87.372.5V227.736h-.9V267.8l-91.631.529V228.179l179.978-1.039v66.566L294.64,294.745ZM474.618,341.3H294.64V295.645l57.651-.333v24.209l-57.581.332.005.9,179.9-1.038Z" transform="translate(-293.403 -173.941)" fill="#dfe0db"/>
              <path id="Path_11230" data-name="Path 11230" d="M307.081,179.392a4.091,4.091,0,0,0-3.416,1.44,6.208,6.208,0,0,0-1.139,3.951V192.6a7.266,7.266,0,0,0,.494,2.792,4.124,4.124,0,0,0,1.535,1.9,4.416,4.416,0,0,0,2.526.7,4.066,4.066,0,0,0,3.391-1.47,6.133,6.133,0,0,0,1.164-3.921v-7.813a6.189,6.189,0,0,0-1.144-3.946A4.086,4.086,0,0,0,307.081,179.392Zm1.952,13.2q0,3.255-1.952,3.256a1.63,1.63,0,0,1-.965-.28,1.762,1.762,0,0,1-.605-.768,4.389,4.389,0,0,1-.295-1.027,7.384,7.384,0,0,1-.086-1.18v-7.813q0-.548.04-.982a4.8,4.8,0,0,1,.168-.874,2.416,2.416,0,0,1,.335-.737,1.543,1.543,0,0,1,.565-.479,2.035,2.035,0,0,1,1.688,0,1.539,1.539,0,0,1,.564.479,2.437,2.437,0,0,1,.336.737,4.872,4.872,0,0,1,.168.874q.04.434.04.982Z" transform="translate(-294.333 -174.496)" fill="#dfe0db"/>
              <path id="Path_11231" data-name="Path 11231" d="M319.4,179.392a4.089,4.089,0,0,0-3.416,1.44,6.2,6.2,0,0,0-1.139,3.951V192.6a7.284,7.284,0,0,0,.493,2.792,4.126,4.126,0,0,0,1.536,1.9,4.416,4.416,0,0,0,2.526.7,4.068,4.068,0,0,0,3.391-1.47,6.138,6.138,0,0,0,1.164-3.921v-7.813a6.2,6.2,0,0,0-1.144-3.946A4.087,4.087,0,0,0,319.4,179.392Zm1.952,13.2q0,3.255-1.952,3.256a1.628,1.628,0,0,1-.965-.28,1.756,1.756,0,0,1-.605-.768,4.347,4.347,0,0,1-.3-1.027,7.489,7.489,0,0,1-.086-1.18v-7.813q0-.548.041-.982a4.79,4.79,0,0,1,.167-.874,2.437,2.437,0,0,1,.336-.737,1.539,1.539,0,0,1,.564-.479,2.034,2.034,0,0,1,1.688,0,1.543,1.543,0,0,1,.565.479,2.44,2.44,0,0,1,.336.737,4.8,4.8,0,0,1,.167.874q.04.434.04.982Z" transform="translate(-295.588 -174.496)" fill="#dfe0db"/>
              <path id="Path_11232" data-name="Path 11232" d="M329.4,179.6a4.4,4.4,0,0,1-2.6,1.952V183.5h1.952v14.322h2.6V179.6Z" transform="translate(-296.806 -174.517)" fill="#dfe0db"/>
              <rect id="Rectangle_18166" data-name="Rectangle 18166" width="19.996" height="18.043" transform="translate(98.414 58.24)" fill="#dfe0db"/>
              <rect id="Rectangle_18167" data-name="Rectangle 18167" width="19.996" height="18.043" transform="translate(156.964 124.136)" fill="#dfe0db"/>
            </g>
          </g>
          <g id="Group_12980" data-name="Group 12980" transform="translate(0 76.319)">
            <g id="Group_12976" data-name="Group 12976">
              <path id="Path_11233" data-name="Path 11233" d="M256.225,172.072l-10.384,28.783-17.055,19.613-17.248-15.011,15.038-17.606Z" transform="translate(-102.822 -172.072)" fill="#f2dfcf"/>
              <path id="Path_11234" data-name="Path 11234" d="M232.5,202.655l-5.764,4.447.552-5.226-6.345,5.649,4.362-6.351c-.536-.22-8.851.6-8.851.6l1.388-6.016c-.045-.052-.09-.1-.135-.153l-9.365,7.7,6.258-12.747c-.137-.322-.261-.63-.365-.91L90.488,334.46a15.474,15.474,0,0,0,3.8,8.328c4.944,5.445,12.075,5.04,13.043,4.969l126.177-145.1C233.207,202.663,232.858,202.661,232.5,202.655Z" transform="translate(-90.488 -173.863)" fill="#00A443"/>
              <path id="Path_11235" data-name="Path 11235" d="M260.082,172.072,255.961,183.5a14.3,14.3,0,0,1-6.57-5.735Z" transform="translate(-106.679 -172.072)" fill="#25572e"/>
            </g>
            <g id="Group_12977" data-name="Group 12977" transform="translate(3.717 32.391)">
              <rect id="Rectangle_18168" data-name="Rectangle 18168" width="171.292" height="1.364" transform="matrix(0.651, -0.759, 0.759, 0.651, 0, 130.088)" fill="#25572e"/>
            </g>
            <g id="Group_12978" data-name="Group 12978" transform="translate(8.151 29.308)">
              <rect id="Rectangle_18169" data-name="Rectangle 18169" width="180.369" height="1.364" transform="translate(0 137.03) rotate(-49.44)" fill="#25572e"/>
            </g>
            <g id="Group_12979" data-name="Group 12979" transform="translate(12.512 35.175)">
              <rect id="Rectangle_18170" data-name="Rectangle 18170" width="177.67" height="1.364" transform="translate(0 134.958) rotate(-49.429)" fill="#25572e"/>
            </g>
          </g>
        </g>
      </g>
      <g id="Group_13015" data-name="Group 13015" transform="translate(195.016 184.355)">
        <g id="Group_13005" data-name="Group 13005">
          <path id="Path_11403" data-name="Path 11403" d="M419.873,378.206c-.1,1.626-4.059,2.7-8.835,2.39s-8.563-1.872-8.458-3.5,4.059-2.7,8.835-2.39S419.977,376.582,419.873,378.206Z" transform="translate(-317.305 -300.75)" fill="#e1b6af"/>
          <path id="Path_11404" data-name="Path 11404" d="M355.515,338.409l16.42,22.9a14.711,14.711,0,0,0,9.375,5.76l19.652,3.322-.393,6.151L378.2,378.3a9.573,9.573,0,0,1-7.771-3.034l-10.768-10.4S357.3,341.869,355.515,338.409Z" transform="translate(-312.509 -297.057)" fill="#43848a"/>
          <path id="Path_11405" data-name="Path 11405" d="M381.122,397.561c0,1.709-4.071,3.095-9.093,3.095s-9.092-1.386-9.092-3.095,4.07-3.095,9.092-3.095S381.122,395.852,381.122,397.561Z" transform="translate(-313.265 -302.769)" fill="#f0b7b0"/>
          <path id="Path_11406" data-name="Path 11406" d="M312.4,392.608h39.123l-.405-55.15a28.043,28.043,0,0,0-7.813-6.419l-5.538-1.966s-8.933.179-10.183.179a41.542,41.542,0,0,1-6.789,3.4c-3.507,1.174-2.149.632-5.358,2.874Z" transform="translate(-308.116 -296.105)" fill="#8dcfff"/>
          <ellipse id="Ellipse_206" data-name="Ellipse 206" cx="11.998" cy="13.503" rx="11.998" ry="13.503" transform="translate(14.627 4.163)" fill="#e1b6af"/>
          <path id="Path_11407" data-name="Path 11407" d="M329.227,324.122s1.732,3.562-.907,5.592l5.714,2.428,5.856-2.632a8.756,8.756,0,0,1-1.222-3.451A11.263,11.263,0,0,1,329.227,324.122Z" transform="translate(-309.738 -295.601)" fill="#e1b6af"/>
          <path id="Path_11408" data-name="Path 11408" d="M352.95,292.365s-8.471,1.995-14.745.571a18.034,18.034,0,0,0-9.456.26c-4.349,1.383-9.693,4.821-9.8,13.181-.115.863-.177,7.5,4.536,12.023a12.749,12.749,0,0,0,5.546,3.071,24.157,24.157,0,0,1-.852-6.836c-.064-2.614.262-5.287,1.6-6.618a1.945,1.945,0,0,1,2.772.084,2.343,2.343,0,0,1,.71,2.338h1.827s-1.015-5.141,4.059-4.8C339.148,305.634,356.2,304.955,352.95,292.365Z" transform="translate(-308.78 -292.365)" fill="#5d4911"/>
          <path id="Path_11409" data-name="Path 11409" d="M334.682,332.647l4.284,5.54,6.613-7.149-5.538-1.966Z" transform="translate(-310.387 -296.105)" fill="#ccf4f4"/>
          <path id="Path_11410" data-name="Path 11410" d="M328.542,329.272l-6.788,3.4,7.5,5.54,4.109-5.54Z" transform="translate(-309.069 -296.126)" fill="#ccf4f4"/>
          <path id="Path_11411" data-name="Path 11411" d="M329.854,521.6c-6.562,0-11.88,3.281-11.88,7.328h23.759C341.733,524.883,336.415,521.6,329.854,521.6Z" transform="translate(-308.684 -315.723)" fill="#6a1300"/>
          <path id="Path_11412" data-name="Path 11412" d="M351.331,518.691c-6.561,0-11.88,3.281-11.88,7.328h23.76C363.211,521.972,357.892,518.691,351.331,518.691Z" transform="translate(-310.872 -315.426)" fill="#6a1300"/>
          <rect id="Rectangle_18175" data-name="Rectangle 18175" width="39.123" height="5.077" transform="translate(4.288 96.502)" fill="#b52a09"/>
          <rect id="Rectangle_18176" data-name="Rectangle 18176" width="1.429" height="5.077" transform="translate(11.255 96.502)" fill="#c07700"/>
          <rect id="Rectangle_18177" data-name="Rectangle 18177" width="1.429" height="5.077" transform="translate(35.015 96.502)" fill="#c07700"/>
          <path id="Path_11413" data-name="Path 11413" d="M312.4,405.289l9.111,106.16h9.111l3.28-87.5,7.439,84.645h9.29l.893-103.138Z" transform="translate(-308.116 -303.871)" fill="#c07700"/>
          <path id="Path_11414" data-name="Path 11414" d="M320.135,333.053l5.36,69.812s-3.93,12.4-17.865,6.858l1.251-55.939S309.06,335.376,320.135,333.053Z" transform="translate(-307.63 -296.511)" fill="#43848a"/>
          <path id="Path_11415" data-name="Path 11415" d="M346.694,331.262l-1.071,67.814s-.357,10.219,7.86,11.89h6.967l-2.144-61.125A20.217,20.217,0,0,0,346.694,331.262Z" transform="translate(-311.501 -296.328)" fill="#43848a"/>
          <path id="Path_11416" data-name="Path 11416" d="M315.362,335.927,328.029,372.7a10.918,10.918,0,0,0,6.634,6.559l26.068,9.168-1.688,4.876-29.54-2.267a8.65,8.65,0,0,1-6.734-4.138l-13.989-23.043S306.7,343.222,315.362,335.927Z" transform="translate(-307.725 -296.804)" fill="#35aeb9"/>
        </g>
        <g id="Group_13010" data-name="Group 13010" transform="translate(54.095 3.392)">
          <path id="Path_11417" data-name="Path 11417" d="M399.749,360.156l-.445,19.7-18.09,9.282s-16.053,1-12.954,9.7a4.377,4.377,0,0,0,5.848,2.536,23.228,23.228,0,0,0,8.291-7.124c6.21-2.437,14.038-4.511,20.876-6.807a6.7,6.7,0,0,0,4.557-6.59l-.757-21.746Z" transform="translate(-367.863 -302.558)" fill="#dcaa9b"/>
          <g id="Group_13009" data-name="Group 13009" transform="translate(20.203)">
            <path id="Path_11418" data-name="Path 11418" d="M443.158,493.2l1.331,4.785s4.826-2.352,8.415.371l.02-5.038Z" transform="translate(-395.738 -316.222)" fill="#e1b6af"/>
            <path id="Path_11419" data-name="Path 11419" d="M407.841,493.431l-1.485,4.086s6.1,1.3,8.328,5.01l.829-8.971Z" transform="translate(-391.989 -316.245)" fill="#e1b6af"/>
            <path id="Path_11420" data-name="Path 11420" d="M391.4,505.03c3.774-5.859,10.469-8.651,16.3-7.074,5.514,1.491,8.122,6.309,8.624,7.282Z" transform="translate(-390.464 -316.661)" fill="#3d3f39"/>
            <path id="Path_11421" data-name="Path 11421" d="M438.991,504.783a9.349,9.349,0,0,1,18.15-.331Z" transform="translate(-395.314 -316.66)" fill="#3d3f39"/>
            <path id="Path_11422" data-name="Path 11422" d="M405.186,483.044l10.932.412,21.408-85.917s-13.777,3.466-27.348-3.22Z" transform="translate(-391.869 -306.146)" fill="#114071"/>
            <path id="Path_11423" data-name="Path 11423" d="M415.842,396.618l23.1,86.825h12.21L444.8,395.009S433,402.231,415.842,396.618Z" transform="translate(-392.955 -306.216)" fill="#245f9d"/>
            <g id="Group_13006" data-name="Group 13006" transform="translate(0 33.774)">
              <path id="Path_11424" data-name="Path 11424" d="M413.477,335.019s-13.041,4.531-10.786,22.747c0,0,4.948,1.667,6.2-.031C408.889,357.736,406.739,341.281,413.477,335.019Z" transform="translate(-391.588 -333.877)" fill="#387592"/>
              <path id="Path_11425" data-name="Path 11425" d="M429.269,334.01s8.051,1.267,11,6.041l3.859,48.975s-16.668,8.854-34.109.713l-2.206-38.366s-.8-10.464,5.125-16.515A53.74,53.74,0,0,1,429.269,334.01Z" transform="translate(-392.134 -333.748)" fill="#4a9cc2"/>
              <path id="Path_11426" data-name="Path 11426" d="M431.349,357.781s-4.662-18.31,6.64-20.161c0,0,8.327.517,8.438,18.851C446.426,356.471,438.94,359.219,431.349,357.781Z" transform="translate(-394.438 -334.142)" fill="#57a9de"/>
              <path id="Path_11427" data-name="Path 11427" d="M429.858,360.292l2.086,11.28-27.893,7.884a80.235,80.235,0,0,0-10.606,1.386,3.678,3.678,0,0,0-2.54,1.914c-.762,1.506-1.131,3.949,1.682,6.843,0,0,2.314,2.5,12.591-4.271l31.788-6.277s6.289-1.656,4.228-10.541l-1.259-9.214A38.211,38.211,0,0,1,429.858,360.292Z" transform="translate(-390.358 -336.351)" fill="#e1b6af"/>
            </g>
            <g id="Group_13008" data-name="Group 13008" transform="translate(2.89)">
              <path id="Path_11428" data-name="Path 11428" d="M406.13,310.984s-1.349,5.151.918,13.95c.065.251,4.118,4.559,4.118,4.559l4.369.346s3.517-.371,7.812-6.029l2.261-8.88s-.624-8.137-11.221-9.286C414.386,305.644,409.66,303.918,406.13,310.984Z" transform="translate(-394.815 -297.091)" fill="#e1b6af"/>
              <g id="Group_13007" data-name="Group 13007">
                <path id="Path_11429" data-name="Path 11429" d="M415.1,336.084l-.143,2.044s1.786,9.894,11.529-2.5a3.792,3.792,0,0,0,.8-2.847c-.377-2.744-.531-9.186.989-12.666-.033-.125.267-2.384-.461-2.7a1.794,1.794,0,0,0-1.57.137c-1.011.625-1.847,3.141-.948,5.812.122.9,1.944,9.065-2.134,11.311a4.242,4.242,0,0,1-1.1.417Z" transform="translate(-395.755 -298.297)" fill="#e1b6af"/>
                <path id="Path_11430" data-name="Path 11430" d="M406.962,325.23c.151.587,2.532,3.671,3.178,1.415a1.631,1.631,0,0,1,1.057-1.131,4.427,4.427,0,0,1,4.622.8s-.262.48,4.94-3.736c0,0,2.818-3.6,1.575-7.387,0,0,4.253.409,5.375,2.173,0,0-4.524-1.524-2.544,4.854a5.386,5.386,0,0,1,.245,1.48c.03,1.345.058,4.144-.134,6.666a4.9,4.9,0,0,1-.788,2.342,8.341,8.341,0,0,1-1.065,1.3,5.8,5.8,0,0,1-3.348,1.586l-6.74.87a4.2,4.2,0,0,1-3.415-1.086,11.661,11.661,0,0,1-1.31-1.467,4.185,4.185,0,0,1-.828-2.079Z" transform="translate(-394.94 -298.083)" fill="#f0f8fa"/>
                <path id="Path_11431" data-name="Path 11431" d="M427.488,317.35a3.453,3.453,0,0,0-2.275-1.256l-.109-.008-5.892,1.88c-.017-.074-.022-.147-.046-.22a3.051,3.051,0,0,0-3.85-1.938,3.085,3.085,0,0,0-2.144,2.636l-2.728.246a2.984,2.984,0,0,0-.092-.445,3.081,3.081,0,1,0-2.019,3.811,3.083,3.083,0,0,0,2.069-2.248l2.879-.26c.007.023.008.048.015.071a3.083,3.083,0,0,0,5.959-.5l5.962-1.9a2.331,2.331,0,0,1,1.4.816,3.322,3.322,0,0,1,.413,2.653l1.093.187A4.356,4.356,0,0,0,427.488,317.35ZM408,321a1.909,1.909,0,1,1,1.3-2.418A1.943,1.943,0,0,1,408,321Zm8.815-.5a1.909,1.909,0,1,1,1.3-2.417A1.942,1.942,0,0,1,416.811,320.5Z" transform="translate(-394.673 -298.131)" fill="#164059"/>
                <path id="Path_11432" data-name="Path 11432" d="M393.73,311.942c3.739.148,7.618.207,11.628.156a222.6,222.6,0,0,0,26.673-1.948.327.327,0,0,0,.286-.278.346.346,0,0,0-.222-.363l-9.379-2.873a24.925,24.925,0,0,1-.42-3.155c-.225-1.279-.386-3.071-.745-4.323-.86-3-3.746-3.859-6.518-2.134a10.111,10.111,0,0,1-2.6,1.642c-1.531.523-2.618.038-4.1-.187-2.833-.427-4.1,1.348-4.007,4.038l.186,5.487-10.854,3.659A.148.148,0,0,0,393.73,311.942Z" transform="translate(-393.576 -296.142)" fill="#d97700"/>
              </g>
            </g>
          </g>
        </g>
        <g id="Group_13013" data-name="Group 13013" transform="translate(110.822 20.229)">
          <g id="Group_13012" data-name="Group 13012">
            <g id="Group_13011" data-name="Group 13011">
              <path id="Path_11433" data-name="Path 11433" d="M448.738,337.018c.348,7.634,5.753,12.864,12.115,12.574s11.269-5.99,10.921-13.624-5.787-13.587-12.148-13.3S448.39,329.384,448.738,337.018Z" transform="translate(-432.828 -315.681)" fill="#e1b6af"/>
              <path id="Path_11434" data-name="Path 11434" d="M447.713,338.408a3.167,3.167,0,0,0,3.151,3.12,2.949,2.949,0,0,0,2.443-2.662l2.7.513c0,.055-.006.107,0,.162a3.41,3.41,0,0,0,6.784.044l4.905-1.939c1.268-.615,2.337-.448,2.968.445a1.887,1.887,0,0,1,.063,1.881l.909.441a2.869,2.869,0,0,0-.147-2.9,3.137,3.137,0,0,0-4.2-.786l-4.562,1.8a3.392,3.392,0,0,0-6.619-.155l-2.759-.524a2.879,2.879,0,1,0-5.632.563Zm9.294,1.034a2.4,2.4,0,1,1,2.626,2.156A2.405,2.405,0,0,1,457.007,339.442Zm-8.289-1.132a2.177,2.177,0,0,1,1.577-2.569c1-.1,1.917.895,2.047,2.213a2.177,2.177,0,0,1-1.577,2.569C449.766,340.621,448.848,339.627,448.718,338.309Z" transform="translate(-432.723 -316.91)" fill="#6a1300"/>
              <path id="Path_11435" data-name="Path 11435" d="M451.231,329.335s2.951,6.594,16.283,5.4c0,0,2.024,3.272,4.435,3.68,0,0,1.321,7.7,8.155,2.992,0,0,10.919-8.713-6.179-13.562C473.924,327.848,459.691,314.913,451.231,329.335Z" transform="translate(-433.084 -315.666)" fill="#f0f8fa"/>
              <path id="Path_11436" data-name="Path 11436" d="M443.145,324.225c-.468,3.354,7.421,7.228,17.621,8.651s18.847-.142,19.315-3.5-7.422-7.228-17.621-8.651S443.613,320.87,443.145,324.225Z" transform="translate(-432.258 -315.43)" fill="#ba3b22"/>
              <path id="Path_11437" data-name="Path 11437" d="M473.615,327.972s1.483-11.453-9.9-12.939c0,0-9.729-2.079-12.755,9.574C450.959,324.606,458.771,331.43,473.615,327.972Z" transform="translate(-433.056 -314.889)" fill="#b96250"/>
              <path id="Path_11438" data-name="Path 11438" d="M466.271,351.088l.256,4.192a7.343,7.343,0,0,1-9.375-.048l.224-3.545A10.886,10.886,0,0,0,466.271,351.088Z" transform="translate(-433.687 -318.577)" fill="#f0b7b0"/>
              <path id="Path_11439" data-name="Path 11439" d="M453.615,500.8l-1.2,11.493h-4.746l-.324-11.855Z" transform="translate(-432.688 -333.796)" fill="#e1b6af"/>
              <path id="Path_11440" data-name="Path 11440" d="M478.694,501.088l.465,11.469-4.54-.225-1.978-10.968Z" transform="translate(-435.265 -333.862)" fill="#e1b6af"/>
              <path id="Path_11441" data-name="Path 11441" d="M468.281,410.983l-14.4,81.145-7.628.235-.048-80.728Z" transform="translate(-432.572 -324.68)" fill="#114071"/>
              <path id="Path_11442" data-name="Path 11442" d="M478.317,409.994l-25.167,1.579,16.159,80.57,8.744-.4Z" transform="translate(-433.279 -324.58)" fill="#245f9d"/>
              <path id="Path_11443" data-name="Path 11443" d="M484.527,513.03l-16.34,1.176a8.233,8.233,0,0,1,16.34-1.176Z" transform="translate(-434.812 -334.385)" fill="#6a1300"/>
              <path id="Path_11444" data-name="Path 11444" d="M451.631,514.647c-.333-1.044-1.986-5.878-6.257-7.837-4.7-2.154-10.643.049-14.349,5.679Z" transform="translate(-431.025 -334.362)" fill="#6a1300"/>
              <path id="Path_11445" data-name="Path 11445" d="M469.9,356.2l.38,66.29s7.427,1.214,13.064-2.795L477.8,360.3S476.409,358.675,469.9,356.2Z" transform="translate(-434.986 -319.098)" fill="#d97700"/>
              <path id="Path_11446" data-name="Path 11446" d="M441.576,382.047l.229,22.674.458,17.405s-1.831,5.421-1.6,7.94H446l-.076-46.874Z" transform="translate(-432.005 -321.732)" fill="#dcaa9b"/>
              <path id="Path_11447" data-name="Path 11447" d="M468.814,406.094l-.446-8.372-.109-41.567-2.124-.944a6.8,6.8,0,0,1-9.25-.145l-3.294,1.848,1.106,49.1Z" transform="translate(-433.324 -318.983)" fill="#febf3e"/>
              <path id="Path_11448" data-name="Path 11448" d="M452.523,356.783l-3.874,2.349a15.168,15.168,0,0,0-6.582,6.456,34.081,34.081,0,0,0-3.26,13.182l6.479,1.877.166,40.124s5,2.147,8.052,1.1Z" transform="translate(-431.818 -319.158)" fill="#d97700"/>
              <path id="Path_11449" data-name="Path 11449" d="M471.417,381.566v20.612l-8.7,15.573s-9.521,2.337-11.536,5.9a1.41,1.41,0,0,0,.646,1.981c2.393,1.074,8.737,2.686,15.927-5.586l11.217-16.718,2.747-22.216S476.225,382.711,471.417,381.566Z" transform="translate(-433.06 -321.636)" fill="#dcaa9b"/>
              <path id="Path_11450" data-name="Path 11450" d="M485.421,379.773s2.431-17.389-8.378-19.548c0,0-8.035-.3-6.457,19.689A19.348,19.348,0,0,0,485.421,379.773Z" transform="translate(-435.035 -319.508)" fill="#e19233"/>
            </g>
          </g>
        </g>
        <g id="Group_13014" data-name="Group 13014" transform="translate(0.838 39.123)">
          <path id="Path_11451" data-name="Path 11451" d="M381.122,397.561c0,1.709-4.071,3.095-9.093,3.095s-9.092-1.386-9.092-3.095,4.07-3.095,9.092-3.095S381.122,395.852,381.122,397.561Z" transform="translate(-314.103 -341.892)" fill="#f0b7b0"/>
          <path id="Path_11452" data-name="Path 11452" d="M315.362,335.927,328.029,372.7a10.918,10.918,0,0,0,6.634,6.559l26.068,9.168-1.688,4.876-29.54-2.267a8.65,8.65,0,0,1-6.734-4.138l-13.989-23.043S306.7,343.222,315.362,335.927Z" transform="translate(-308.563 -335.927)" fill="#35aeb9"/>
        </g>
      </g>
    </g>
  </g>
</svg>
