<svg id="Capa_1" data-name="Capa 1" xmlns="http://www.w3.org/2000/svg" xmlns:xlink="http://www.w3.org/1999/xlink" viewBox="0 0 821.44 169.17"><defs><style>.cls-1{fill:#fff;}.cls-2{fill:url(#linear-gradient);}.cls-3{fill:url(#radial-gradient);}.cls-4{fill:url(#radial-gradient-2);}.cls-5{fill:url(#radial-gradient-3);}.cls-6{fill:url(#radial-gradient-4);}.cls-7{fill:url(#radial-gradient-5);}</style><linearGradient id="linear-gradient" x1="1426.52" y1="2360.04" x2="1475.23" y2="2434.8" gradientTransform="translate(-1922.56 -3084.94) scale(1.41)" gradientUnits="userSpaceOnUse"><stop offset="0" stop-color="#5d891e"/><stop offset="0.35" stop-color="#9eb878"/><stop offset="0.74" stop-color="#e3ebd9"/><stop offset="0.92" stop-color="#fff"/></linearGradient><radialGradient id="radial-gradient" cx="-4965.37" cy="-33707.75" r="917.14" gradientTransform="translate(1126.91 7452.93) scale(0.22)" gradientUnits="userSpaceOnUse"><stop offset="0.19" stop-color="#5d891e"/><stop offset="0.21" stop-color="#658f29"/><stop offset="0.36" stop-color="#9bb674"/><stop offset="0.5" stop-color="#c6d5b0"/><stop offset="0.61" stop-color="#e5ecdb"/><stop offset="0.7" stop-color="#f8faf5"/><stop offset="0.75" stop-color="#fff"/></radialGradient><radialGradient id="radial-gradient-2" cx="-4906.53" cy="-33707.79" r="917.15" gradientTransform="translate(1164.38 7452.9) scale(0.22)" gradientUnits="userSpaceOnUse"><stop offset="0" stop-color="#e5ecf8"/><stop offset="0.13" stop-color="#e1eaf7"/><stop offset="0.25" stop-color="#d7e4f4"/><stop offset="0.37" stop-color="#c4daef"/><stop offset="0.48" stop-color="#abcde8"/><stop offset="0.58" stop-color="#8abbdf"/><stop offset="0.69" stop-color="#61a5d4"/><stop offset="0.79" stop-color="#328cc7"/><stop offset="0.89" stop-color="#0071ba"/></radialGradient><radialGradient id="radial-gradient-3" cx="-4906.43" cy="-33707.69" r="917.14" gradientTransform="translate(1164.44 7452.96) scale(0.22)" gradientUnits="userSpaceOnUse"><stop offset="0" stop-color="#fff"/><stop offset="0.05" stop-color="#e9f0f9"/><stop offset="0.1" stop-color="#d5e2f3"/><stop offset="0.17" stop-color="#c7d8ef"/><stop offset="0.25" stop-color="#bfd2ed"/><stop offset="0.38" stop-color="#bcd0ec"/><stop offset="0.47" stop-color="#8fb9e0"/><stop offset="0.63" stop-color="#4393cc"/><stop offset="0.74" stop-color="#127abf"/><stop offset="0.8" stop-color="#0071ba"/></radialGradient><radialGradient id="radial-gradient-4" cx="-4846.9" cy="-33707.79" r="917.14" gradientTransform="translate(1202.32 7452.9) scale(0.22)" gradientUnits="userSpaceOnUse"><stop offset="0.14" stop-color="#ffec00"/><stop offset="0.15" stop-color="#ffe800"/><stop offset="0.25" stop-color="gold"/><stop offset="0.36" stop-color="#ffcd00"/><stop offset="0.5" stop-color="#ffca00"/><stop offset="0.58" stop-color="#fbb800"/><stop offset="0.83" stop-color="#f18801"/><stop offset="0.95" stop-color="#FF9C1A"/></radialGradient><radialGradient id="radial-gradient-5" cx="-4846.92" cy="-33707.78" r="917.18" gradientTransform="translate(1202.32 7452.9) scale(0.22)" gradientUnits="userSpaceOnUse"><stop offset="0" stop-color="#ffec00"/><stop offset="0.01" stop-color="#ffe800"/><stop offset="0.09" stop-color="#fdd400"/><stop offset="0.17" stop-color="#fcc600"/><stop offset="0.28" stop-color="#fbbe00"/><stop offset="0.45" stop-color="#fbbb00"/><stop offset="0.46" stop-color="#fab800"/><stop offset="0.56" stop-color="#f59b00"/><stop offset="0.66" stop-color="#f08701"/><stop offset="0.76" stop-color="#ee7a01"/><stop offset="0.85" stop-color="#FF9C1A"/></radialGradient></defs><path class="cls-1" d="M869,264.56H854.24L827.77,330H842l5.19-13.7H878l3.82,9.2c.88,2.11,1.89,4.5,6.42,4.5h9.84Zm-18.09,42,10.84-28.75,12.12,28.75Z" transform="translate(-76.65 -207.42)"/><polygon class="cls-1" points="303.91 93.27 335.48 93.27 335.48 84.36 303.91 84.36 303.91 66.03 336.98 66.03 336.98 57.14 290.43 57.14 290.43 122.61 337.7 122.61 337.7 113.71 303.91 113.71 303.91 93.27"/><polygon class="cls-1" points="432.5 93.27 464.07 93.27 464.07 84.36 432.5 84.36 432.5 66.03 465.59 66.03 465.59 57.14 419.02 57.14 419.02 122.61 466.29 122.61 466.29 113.71 432.5 113.71 432.5 93.27"/><rect class="cls-1" x="730.36" y="57.16" width="13.77" height="65.47"/><path class="cls-1" d="M772.85,299.46c0,2,1.62,4.2,6,4.2h4.75l0,14.12a22.79,22.79,0,0,1-9.57,1.91c-13,0-20.5-8.18-20.5-22.4,0-13.32,6.68-22.45,20.53-22.45A62.85,62.85,0,0,1,789.8,277V266.51A67.32,67.32,0,0,0,774,264.56c-24,0-34,17.15-34,32.73,0,16.32,10.56,32.74,34.1,32.74,9.74,0,17.77-3.61,22.73-8.16V295.21H778.85c-5.57,0-6,3.24-6,4.25" transform="translate(-76.65 -207.42)"/><path class="cls-1" d="M453.16,264.56c-23.55,0-34.06,16.46-34.06,32.74S429.61,330,453.16,330c23.35,0,34-17,34-32.73,0-16.28-10.49-32.74-34-32.74m0,55.14c-13,0-20.45-8.18-20.45-22.4s7.44-22.38,20.45-22.38,20.36,8.15,20.36,22.38-7.4,22.4-20.36,22.4" transform="translate(-76.65 -207.42)"/><path class="cls-1" d="M716.8,299.82c5-1.5,13.61-5.77,13.61-17.27,0-9-7.11-18-20.75-18h-29V330h13.47V273.45h10.61c10.22,0,11.75,6.08,11.75,9.71,0,6-4.36,9.83-11.34,9.83-4.53,0-7.13,1.79-7.13,4.77,0,1.69,1,3.85,6,4.63,6.17,1,8.67,7,11.82,14.61,0,0,2.74,6.44,3.66,8.52s1.79,4.5,6.46,4.5h10.49l-4.63-10c-4.65-10.29-8.33-16.34-15-20.22" transform="translate(-76.65 -207.42)"/><path class="cls-1" d="M342.83,264.56v44.79L307,264.56H292.78V330h13.45V282.15S335,319.63,342,328.22a5.91,5.91,0,0,0,4.65,1.81h9.69V264.56Z" transform="translate(-76.65 -207.42)"/><polygon class="cls-1" points="562.34 93.27 593.91 93.27 593.91 84.36 562.34 84.36 562.34 66.03 595.41 66.03 595.41 57.14 548.87 57.14 548.87 122.61 596.13 122.61 596.13 113.71 562.34 113.71 562.34 93.27"/><path class="cls-1" d="M601.4,264.56v44.79l-35.87-44.79H551.36V330h13.45V282.15s28.74,37.48,35.78,46.07a5.85,5.85,0,0,0,4.64,1.81h9.69V264.56Z" transform="translate(-76.65 -207.42)"/><path class="cls-2" d="M146.05,207.42c-4.11,52.14-68.5,48.6-69.39,98.27-.14,7.25,2.93,17.37,11.13,25.56a38,38,0,0,0,9.37,6.81,129.93,129.93,0,0,0-1.46,38.52l7.83-.42a106.21,106.21,0,0,1-1.76-36C134.62,352.39,186,324.11,146.05,207.42Z" transform="translate(-76.65 -207.42)"/><path class="cls-3" d="M104.58,314.05c-5.3-8.38-10.83-24.69-10.54-36h0a131.19,131.19,0,0,0,12.55,31.55,193.69,193.69,0,0,1,13.58-23.23c-5.37-8.08-6.75-21.37-6.66-24,0,0,.06,0,.09-.07a85.17,85.17,0,0,0,9,20.38,223.85,223.85,0,0,0,12.77-20.91c-2.42-4.95-4-12.72-3.85-15.23h0a36.5,36.5,0,0,0,6,10.66,97.4,97.4,0,0,0,8.55-23.1,90,90,0,0,0-.1-26.67c-4.11,52.14-68.5,48.6-69.39,98.27-.14,7.25,2.93,17.37,11.13,25.56a38,38,0,0,0,9.37,6.81A118.79,118.79,0,0,1,104.58,314.05Z" transform="translate(-76.65 -207.42)"/><path class="cls-4" d="M196.25,207.42c-4.11,52.14-68.5,48.6-69.39,98.27-.12,7.25,2.94,17.37,11.14,25.56C166,359.22,242.57,342.88,196.25,207.42Z" transform="translate(-76.65 -207.42)"/><path class="cls-5" d="M126.86,305.69c-.12,7.25,2.94,17.37,11.14,25.56a36.75,36.75,0,0,0,3.09,2.75c14.15-11.51,23.51-35.18,17.79-75.48C142.68,270,127.29,281.58,126.86,305.69Z" transform="translate(-76.65 -207.42)"/><path class="cls-6" d="M247,207.42c-4.12,52.14-68.51,48.6-69.39,98.27-.13,7.25,2.94,17.37,11.13,25.56C216.74,359.22,293.36,342.88,247,207.42Z" transform="translate(-76.65 -207.42)"/><path class="cls-7" d="M177.65,305.69c-.13,7.25,2.94,17.37,11.13,25.56a35.31,35.31,0,0,0,2.8,2.53c14-11.58,23.14-35.08,17.57-74.9C193.14,270.26,178.07,281.84,177.65,305.69Z" transform="translate(-76.65 -207.42)"/></svg>
