<svg id="Group_39515" data-name="Group 39515" xmlns="http://www.w3.org/2000/svg" xmlns:xlink="http://www.w3.org/1999/xlink" width="141.969" height="90.169" viewBox="0 0 141.969 90.169">
  <defs>
    <clipPath id="clip-path">
      <path id="Path_6050" data-name="Path 6050" d="M33.126,118.647a12.934,12.934,0,0,0,3.938,9.041,13.418,13.418,0,0,0,3.315,2.409,45.9,45.9,0,0,0-.522,13.624l2.772-.147a37.535,37.535,0,0,1-.623-12.747c11.619,4.342,29.774-5.661,15.664-46.936-1.455,18.446-24.23,17.19-24.544,34.757" transform="translate(-33.124 -83.89)"/>
    </clipPath>
    <linearGradient id="linear-gradient" x1="-2.102" y1="2.181" x2="-2.089" y2="2.181" gradientUnits="objectBoundingBox">
      <stop offset="0" stop-color="#d3d200"/>
      <stop offset="0.034" stop-color="#d3d200"/>
      <stop offset="0.228" stop-color="#b9c205"/>
      <stop offset="0.642" stop-color="#779a13"/>
      <stop offset="0.8" stop-color="#5c8a19"/>
      <stop offset="1" stop-color="#5c8a19"/>
    </linearGradient>
    <clipPath id="clip-path-2">
      <path id="Path_6051" data-name="Path 6051" d="M33.126,118.64a12.934,12.934,0,0,0,3.938,9.041,13.418,13.418,0,0,0,3.315,2.409A41.883,41.883,0,0,1,43,121.6c-1.876-2.966-3.831-8.733-3.728-12.742l0,0a46.252,46.252,0,0,0,4.44,11.158,67.921,67.921,0,0,1,4.8-8.217c-1.9-2.859-2.387-7.561-2.357-8.484,0-.014.019-.014.03-.022a30.1,30.1,0,0,0,3.19,7.209A79.881,79.881,0,0,0,53.9,103.1a15.064,15.064,0,0,1-1.363-5.388h0a13,13,0,0,0,2.141,3.774A34.488,34.488,0,0,0,57.7,93.315a31.94,31.94,0,0,0-.033-9.435c-1.455,18.449-24.23,17.193-24.544,34.76" transform="translate(-33.124 -83.88)"/>
    </clipPath>
    <radialGradient id="radial-gradient" cx="-0.285" cy="-0.172" r="1.514" gradientTransform="matrix(1.841, 0, 0, -1, 7.574, 8.066)" gradientUnits="objectBoundingBox">
      <stop offset="0" stop-color="#d6da42"/>
      <stop offset="0.191" stop-color="#d6da42"/>
      <stop offset="0.211" stop-color="#d0d640"/>
      <stop offset="0.395" stop-color="#9eb62f"/>
      <stop offset="0.556" stop-color="#7a9e23"/>
      <stop offset="0.686" stop-color="#648f1c"/>
      <stop offset="0.77" stop-color="#5c8a19"/>
      <stop offset="1" stop-color="#5c8a19"/>
    </radialGradient>
    <clipPath id="clip-path-3">
      <path id="Path_6052" data-name="Path 6052" d="M98.157,118.64a12.97,12.97,0,0,0,3.938,9.041c9.888,9.891,36.986,4.115,20.6-43.8-1.453,18.449-24.227,17.193-24.541,34.76" transform="translate(-98.155 -83.88)"/>
    </clipPath>
    <radialGradient id="radial-gradient-2" cx="-0.175" cy="-0.149" r="1.303" gradientTransform="matrix(1.31, 0, 0, -1, 1.845, 6.942)" gradientUnits="objectBoundingBox">
      <stop offset="0" stop-color="#e8eff9"/>
      <stop offset="0.14" stop-color="#e5edf8"/>
      <stop offset="0.259" stop-color="#dae7f5"/>
      <stop offset="0.371" stop-color="#c9ddf0"/>
      <stop offset="0.477" stop-color="#b0d0e9"/>
      <stop offset="0.581" stop-color="#90bee0"/>
      <stop offset="0.682" stop-color="#69a8d4"/>
      <stop offset="0.781" stop-color="#3a8ec7"/>
      <stop offset="0.876" stop-color="#0670b8"/>
      <stop offset="0.885" stop-color="#006db6"/>
      <stop offset="1" stop-color="#006db6"/>
    </radialGradient>
    <clipPath id="clip-path-4">
      <path id="Path_6053" data-name="Path 6053" d="M98.157,166.762a12.97,12.97,0,0,0,3.938,9.041,13.269,13.269,0,0,0,1.1.972c5-4.072,8.318-12.441,6.292-26.7-5.729,4.063-11.172,8.157-11.325,16.682" transform="translate(-98.155 -150.08)"/>
    </clipPath>
    <radialGradient id="radial-gradient-3" cx="-0.534" cy="-0.975" r="2.62" gradientTransform="matrix(1.993, 0, 0, -1, 18.055, 12.607)" gradientUnits="objectBoundingBox">
      <stop offset="0" stop-color="#fff"/>
      <stop offset="0.037" stop-color="#eff4fa"/>
      <stop offset="0.104" stop-color="#d9e6f4"/>
      <stop offset="0.177" stop-color="#cadbef"/>
      <stop offset="0.261" stop-color="#c1d5ed"/>
      <stop offset="0.382" stop-color="#bed3ec"/>
      <stop offset="0.579" stop-color="#5e9fd1"/>
      <stop offset="0.73" stop-color="#1a7bbd"/>
      <stop offset="0.8" stop-color="#006db6"/>
      <stop offset="1" stop-color="#006db6"/>
    </radialGradient>
    <clipPath id="clip-path-5">
      <path id="Path_6054" data-name="Path 6054" d="M163.936,118.64a12.953,12.953,0,0,0,3.935,9.041c9.891,9.891,36.988,4.115,20.606-43.8-1.456,18.449-24.23,17.193-24.542,34.76" transform="translate(-163.935 -83.88)"/>
    </clipPath>
    <radialGradient id="radial-gradient-4" cx="-0.175" cy="-0.149" r="1.303" gradientTransform="matrix(1.31, 0, 0, -1, 1.979, 6.942)" gradientUnits="objectBoundingBox">
      <stop offset="0" stop-color="#ffef00"/>
      <stop offset="0.135" stop-color="#ffef00"/>
      <stop offset="0.243" stop-color="#fedf00"/>
      <stop offset="0.375" stop-color="#fcd200"/>
      <stop offset="0.5" stop-color="#fcce00"/>
      <stop offset="0.616" stop-color="#f7b700"/>
      <stop offset="0.835" stop-color="#f09000"/>
      <stop offset="0.95" stop-color="#ed8100"/>
      <stop offset="1" stop-color="#ed8100"/>
    </radialGradient>
    <clipPath id="clip-path-6">
      <path id="Path_6055" data-name="Path 6055" d="M163.936,167.1a12.954,12.954,0,0,0,3.935,9.042,12.788,12.788,0,0,0,.989.893c4.937-4.093,8.187-12.406,6.215-26.488-5.658,4.025-10.989,8.118-11.139,16.554" transform="translate(-163.935 -150.55)"/>
    </clipPath>
    <radialGradient id="radial-gradient-5" cx="-0.546" cy="-0.989" r="2.641" gradientTransform="matrix(2.013, 0, 0, -1, 20.106, 12.696)" gradientUnits="objectBoundingBox">
      <stop offset="0" stop-color="#ffef00"/>
      <stop offset="0.082" stop-color="#fddc00"/>
      <stop offset="0.184" stop-color="#fbcc00"/>
      <stop offset="0.299" stop-color="#f9c200"/>
      <stop offset="0.45" stop-color="#f9bf00"/>
      <stop offset="0.547" stop-color="#f4a400"/>
      <stop offset="0.646" stop-color="#f09100"/>
      <stop offset="0.747" stop-color="#ee8500"/>
      <stop offset="0.85" stop-color="#ed8100"/>
      <stop offset="1" stop-color="#ed8100"/>
    </radialGradient>
  </defs>
  <rect id="Rectangle_18680" data-name="Rectangle 18680" width="141.968" height="90.169" fill="#fff" opacity="0"/>
  <g id="Group_14570" data-name="Group 14570" transform="translate(0 5.582)">
    <g id="Neoenergia-ClaroEscuro_Fundo_Escuro_Fundo_Escuro" data-name="Neoenergia-ClaroEscuro_Fundo Escuro_Fundo Escuro" transform="translate(0 0)">
      <g id="Group_2297" data-name="Group 2297" transform="translate(0 0.003)">
        <g id="Group_2296" data-name="Group 2296" clip-path="url(#clip-path)">
          <path id="Path_6049" data-name="Path 6049" d="M-12.726,19.06l38.9,59.7L-28.36,114.3l-38.9-59.7Z" transform="translate(39.847 -36.763)" fill="url(#linear-gradient)"/>
        </g>
      </g>
      <g id="Group_2299" data-name="Group 2299" transform="translate(0 0)">
        <g id="Group_2298" data-name="Group 2298" clip-path="url(#clip-path-2)">
          <rect id="Rectangle_17258" data-name="Rectangle 17258" width="25.099" height="46.207" transform="translate(-0.048 0.003)" fill="url(#radial-gradient)"/>
        </g>
      </g>
      <g id="Group_2301" data-name="Group 2301" transform="translate(17.759 0)">
        <g id="Group_2300" data-name="Group 2300" clip-path="url(#clip-path-3)">
          <rect id="Rectangle_17259" data-name="Rectangle 17259" width="40.97" height="53.689" transform="translate(-0.045 0.003)" fill="url(#radial-gradient-2)"/>
        </g>
      </g>
      <g id="Group_2303" data-name="Group 2303" transform="translate(17.759 18.077)">
        <g id="Group_2302" data-name="Group 2302" clip-path="url(#clip-path-4)">
          <rect id="Rectangle_17260" data-name="Rectangle 17260" width="13.394" height="26.696" transform="translate(-0.045 0.003)" fill="url(#radial-gradient-3)"/>
        </g>
      </g>
      <g id="Group_2305" data-name="Group 2305" transform="translate(35.721 0)">
        <g id="Group_2304" data-name="Group 2304" clip-path="url(#clip-path-5)">
          <rect id="Rectangle_17261" data-name="Rectangle 17261" width="40.973" height="53.689" transform="translate(-0.045 0.003)" fill="url(#radial-gradient-4)"/>
        </g>
      </g>
      <g id="Group_2307" data-name="Group 2307" transform="translate(35.721 18.206)">
        <g id="Group_2306" data-name="Group 2306" clip-path="url(#clip-path-6)">
          <rect id="Rectangle_17262" data-name="Rectangle 17262" width="13.16" height="26.488" transform="translate(-0.045)" fill="url(#radial-gradient-5)"/>
        </g>
      </g>
    </g>
    <g id="Group_9506" data-name="Group 9506" transform="translate(17.579 59.769)">
      <path id="Path_6789" data-name="Path 6789" d="M718.889,624.778A5.3,5.3,0,0,0,723,619.572c0-2.7-2.149-5.432-6.257-5.432H707.97v19.743h4.062V616.822h3.2c3.084,0,3.541,1.839,3.541,2.932,0,1.822-1.309,2.962-3.419,2.962-1.369,0-2.15.536-2.15,1.442,0,.506.322,1.162,1.825,1.394,1.858.291,2.611,2.108,3.565,4.406,0,0,.822,1.942,1.107,2.57a1.8,1.8,0,0,0,1.946,1.357h3.165l-1.4-3.015c-1.4-3.1-2.517-4.925-4.527-6.09" transform="translate(-621.697 -613.866)" fill="#5c8a19"/>
      <path id="Path_6790" data-name="Path 6790" d="M399.724,625.044h9.52v-2.687h-9.52v-5.522h9.98V614.15H395.66v19.742h14.259V631.2H399.724Z" transform="translate(-362.224 -613.872)" fill="#5c8a19"/>
      <path id="Path_6791" data-name="Path 6791" d="M819.132,612.52c-7.3,0-10.562,5.094-10.562,10.146s3.263,10.149,10.562,10.149c7.238,0,10.535-5.261,10.535-10.149,0-5.05-3.258-10.146-10.535-10.146m0,17.087c-4.035,0-6.349-2.531-6.349-6.94s2.314-6.943,6.349-6.943c4.018,0,6.319,2.532,6.319,6.943s-2.3,6.94-6.319,6.94" transform="translate(-705.277 -612.52)" fill="#5c8a19"/>
      <path id="Path_6792" data-name="Path 6792" d="M305.514,631.13V614.06H301.44v19.754h12.438l0-2.683Z" transform="translate(-283.945 -613.8)" fill="#5c8a19"/>
      <path id="Path_6793" data-name="Path 6793" d="M202.08,625.265h9.5v-2.678h-9.5v-5.512h9.956V614.4H198.03v19.693h14.215v-2.68H202.08Z" transform="translate(-198.03 -614.083)" fill="#5c8a19"/>
      <path id="Path_6794" data-name="Path 6794" d="M510.489,633.435a1.818,1.818,0,0,0,1.6.7h4c-1.086-1.353-8.417-10.474-8.417-10.474s5.349-7.975,6.206-9.254h-4.36c-.232.342-4.833,7.192-6.023,8.956V614.4H499.44v19.728H503.5v-9.259c1.771,2.169,6.991,8.566,6.991,8.566" transform="translate(-448.447 -614.083)" fill="#5c8a19"/>
      <path id="Path_6795" data-name="Path 6795" d="M613.809,614.36v2.686h-5.992v17.047h-4.06V617.046h-6V614.36Z" transform="translate(-530.133 -614.049)" fill="#5c8a19"/>
    </g>
  </g>
</svg>
