<svg id="Capa_1" data-name="Capa 1" xmlns="http://www.w3.org/2000/svg" viewBox="0 0 1393.6 497"><defs><style>.cls-1{fill:#00a443;}.cls-2{fill:#ff9c1a;}.cls-3{fill:#0da9ff;}.cls-4{fill:none;}</style></defs><path class="cls-1" d="M456.1,339.9c-5.4-4.6-12.6-6.9-21.8-6.9H405v81.2h10.4v-29h19a38,38,0,0,0,15.8-3.1,23.3,23.3,0,0,0,10.3-9,26.3,26.3,0,0,0,3.6-14C464.1,350.9,461.4,344.5,456.1,339.9ZM448,371.6q-5.1,4.2-14.7,4.2H415.4V342.5h17.9c6.4,0,11.3,1.4,14.7,4.1s5.2,6.9,5.2,12.5S451.5,368.7,448,371.6Z"/><path class="cls-1" d="M509.1,358.2a26.3,26.3,0,0,0-13.8-3.6,29,29,0,0,0-11.2,2.1,25.2,25.2,0,0,0-8.9,6.1,27.8,27.8,0,0,0-5.9,9.5,35.2,35.2,0,0,0-2.1,12.5,34.2,34.2,0,0,0,3.7,16.1A27.9,27.9,0,0,0,481,411.5a27.4,27.4,0,0,0,14.7,3.9,31.1,31.1,0,0,0,9.6-1.5,27.5,27.5,0,0,0,8.8-4.6,26.6,26.6,0,0,0,7-8.6l-7.6-4.6a23.9,23.9,0,0,1-4.7,5.9,16.4,16.4,0,0,1-6,3.4,22.6,22.6,0,0,1-6.9,1,18.4,18.4,0,0,1-9.5-2.4,17.5,17.5,0,0,1-6.6-7.3,22.5,22.5,0,0,1-2.4-9.5H522a6.1,6.1,0,0,0,.1-1.4v-1.5a32.8,32.8,0,0,0-3.5-15.7A25.9,25.9,0,0,0,509.1,358.2Zm-26.9,10.7a14.8,14.8,0,0,1,5.6-4.3,17.8,17.8,0,0,1,7.4-1.5,15.7,15.7,0,0,1,12.1,5.3c2.3,2.7,3.8,6.4,4.4,11.1h-34a23.4,23.4,0,0,1,.9-3.8A19.3,19.3,0,0,1,482.2,368.9Z"/><path class="cls-1" d="M548.1,357.3a19.9,19.9,0,0,0-6.8,8.4V355.6h-9.9v58.6h9.9V382.8c0-5.4,1.4-9.7,4-12.9a12.8,12.8,0,0,1,10.3-4.8h5.6V354.6h-3.5A17.6,17.6,0,0,0,548.1,357.3Z"/><path class="cls-1" d="M607.1,357.3a23.4,23.4,0,0,0-11.4-2.7,22.5,22.5,0,0,0-11.3,3,16.7,16.7,0,0,0-6.5,7.1v-9.1h-10v58.6h10V379.4c0-5,1.4-8.8,4.4-11.7s6.7-4.2,11.4-4.2a13.2,13.2,0,0,1,10.1,4.2c2.6,2.8,3.9,6.5,3.9,11.3v35.2h10V377.5a25.7,25.7,0,0,0-2.8-12.1A20.3,20.3,0,0,0,607.1,357.3Z"/><path class="cls-1" d="M669.6,359.9a24.8,24.8,0,0,0-8.3-4.1,37.1,37.1,0,0,0-9.6-1.2,27.8,27.8,0,0,0-14.2,3.6,20.8,20.8,0,0,0-9.2,10.6l7.9,4.3a14.7,14.7,0,0,1,5.8-7,17.7,17.7,0,0,1,9.6-2.6,22.2,22.2,0,0,1,7.9,1.4,13.1,13.1,0,0,1,5.9,4.8c1.5,2.2,2.2,5.2,2.2,8.9v7.2l-1.7-1.8c-3.7-3.1-9.1-4.7-16-4.7a32.2,32.2,0,0,0-11.8,2.1,19.6,19.6,0,0,0-8.6,6.1,14.7,14.7,0,0,0-3.3,9.8,15.6,15.6,0,0,0,3.2,9.8,20,20,0,0,0,8.5,6.2,31.9,31.9,0,0,0,11.6,2.1c7.1,0,12.5-1.7,16.3-4.9a21.8,21.8,0,0,0,2.1-2.2v5.9h9.7V377.5a22.6,22.6,0,0,0-2.2-10.5A21.3,21.3,0,0,0,669.6,359.9Zm-6.2,45a22.2,22.2,0,0,1-11.1,2.6,23,23,0,0,1-11.3-2.6,8.3,8.3,0,0,1-4.6-7.6,8.5,8.5,0,0,1,4.6-7.8,24.2,24.2,0,0,1,11.3-2.5,21.2,21.2,0,0,1,11.1,2.7,8.2,8.2,0,0,1,4.5,7.6A8.4,8.4,0,0,1,663.4,404.9Z"/><path class="cls-1" d="M761.5,357.3a21,21,0,0,0-10.7-2.7,21.5,21.5,0,0,0-11.4,3.3,16.8,16.8,0,0,0-6.3,7.7,18.9,18.9,0,0,0-17.7-11,18.9,18.9,0,0,0-10.3,2.9,16.4,16.4,0,0,0-5.8,6.6v-8.5h-10v58.6h10V378.6a16.7,16.7,0,0,1,1.8-8.1,12.3,12.3,0,0,1,4.9-5.2,13.6,13.6,0,0,1,7.1-1.8,11.4,11.4,0,0,1,8.9,3.9c2.3,2.6,3.4,6.3,3.4,11.1v35.7h10V378.6c0-4.8,1.3-8.5,3.9-11.2a13.4,13.4,0,0,1,9.9-3.9,11.2,11.2,0,0,1,8.8,3.9c2.3,2.6,3.5,6.3,3.5,11.1v35.7h10V376.7a23.4,23.4,0,0,0-2.7-11.6A20.3,20.3,0,0,0,761.5,357.3Z"/><path class="cls-1" d="M827.6,358.4a25.6,25.6,0,0,0-14-3.8,21.6,21.6,0,0,0-11,2.6,23.1,23.1,0,0,0-7.7,6.9,26.1,26.1,0,0,0-1.7,2.8V333h-10v81.2h10V403l1.6,2.7a22.5,22.5,0,0,0,7.8,6.9,21.6,21.6,0,0,0,11,2.6,25.8,25.8,0,0,0,10.8-2.2,24.9,24.9,0,0,0,8.6-6.2,28.5,28.5,0,0,0,5.8-9.7,36.9,36.9,0,0,0,2-12.3,34.3,34.3,0,0,0-3.5-15.7A26.5,26.5,0,0,0,827.6,358.4Zm1.8,35.4a18.1,18.1,0,0,1-3.9,6.8,16.5,16.5,0,0,1-6,4.1,19.4,19.4,0,0,1-7.6,1.5,17.9,17.9,0,0,1-13.6-5.6c-3.5-3.8-5.3-9-5.3-15.8a26.6,26.6,0,0,1,1.4-8.8,19.8,19.8,0,0,1,3.9-6.8,15.6,15.6,0,0,1,6-4.2,20.6,20.6,0,0,1,7.6-1.4,17.8,17.8,0,0,1,13.5,5.6c3.5,3.8,5.3,9,5.3,15.6A27.5,27.5,0,0,1,829.4,393.8Z"/><path class="cls-1" d="M889.4,389.7c0,5.5-1.4,9.6-4.1,12.4a16.1,16.1,0,0,1-21.5,0c-2.8-2.8-4.2-6.9-4.2-12.4V355.6h-10v34.9a27,27,0,0,0,3.2,13.5,21.4,21.4,0,0,0,9,8.4,30.4,30.4,0,0,0,25.5,0,20.9,20.9,0,0,0,8.8-8.4,26,26,0,0,0,3.3-13.5V355.6h-10Z"/><path class="cls-1" d="M923.7,369a17,17,0,0,1,5.9-4.1,19.1,19.1,0,0,1,7.1-1.4,20.7,20.7,0,0,1,10.8,2.8c3.1,1.9,5.5,5.2,7.3,9.8l8.5-4.1a24.7,24.7,0,0,0-16-15.8,34,34,0,0,0-10.6-1.6,27.6,27.6,0,0,0-11.2,2.2,26.2,26.2,0,0,0-9.2,6.2,28.1,28.1,0,0,0-6.1,9.6,34.3,34.3,0,0,0-2.1,12.2,32.8,32.8,0,0,0,3.7,15.9,27.2,27.2,0,0,0,10.3,10.7,27.7,27.7,0,0,0,14.6,3.8,34,34,0,0,0,10.6-1.6,24.7,24.7,0,0,0,9.3-5.5,27.9,27.9,0,0,0,6.7-10.3l-8.5-4.1c-1.8,4.5-4.2,7.7-7.3,9.6a20.8,20.8,0,0,1-10.8,2.9,17.7,17.7,0,0,1-9.1-2.4,18.9,18.9,0,0,1-6.8-7.2,24.8,24.8,0,0,1-2.5-11.8,28.5,28.5,0,0,1,1.4-9.1A20.2,20.2,0,0,1,923.7,369Z"/><path class="cls-1" d="M1023.7,369a26.8,26.8,0,0,0-10.5-10.6,29.2,29.2,0,0,0-15.1-3.8,32,32,0,0,0-11.7,2.1,27,27,0,0,0-9.4,6.2,28.8,28.8,0,0,0-6.2,9.7,35.3,35.3,0,0,0,1.6,28.2,27.7,27.7,0,0,0,10.5,10.7,29.7,29.7,0,0,0,15.2,3.9,32.6,32.6,0,0,0,11.8-2.2,27.3,27.3,0,0,0,9.3-6.3,28.1,28.1,0,0,0,6.1-9.6,33.5,33.5,0,0,0,2.3-12.5A31.1,31.1,0,0,0,1023.7,369Zm-7.7,24.8a18.5,18.5,0,0,1-4.1,6.8,16.5,16.5,0,0,1-6.1,4.3,21.5,21.5,0,0,1-7.7,1.4,19.4,19.4,0,0,1-9.9-2.5,18.3,18.3,0,0,1-6.9-7.4,24.5,24.5,0,0,1-2.5-11.6,24.8,24.8,0,0,1,1.5-8.9,18.7,18.7,0,0,1,4-6.7,16.3,16.3,0,0,1,6.2-4.2,21,21,0,0,1,7.6-1.4,19.2,19.2,0,0,1,9.9,2.6,18,18,0,0,1,6.9,7.3,23.3,23.3,0,0,1,2.6,11.3A25,25,0,0,1,1016,393.8Z"/><path class="cls-1" d="M496.2,224.5v17l-10.1-13.8-63.5-85.9H405V274.5h19.5V174.8l10.1,13.8,63.5,85.9h17.6V141.8H496.2Z"/><path class="cls-1" d="M597.9,182.5a42.9,42.9,0,0,0-22.9-6.2,49,49,0,0,0-18.7,3.5A44.2,44.2,0,0,0,541.6,190a45.7,45.7,0,0,0-9.5,15.8,60.6,60.6,0,0,0-3.3,20.6c0,9.9,2,18.7,6,26.2a44.9,44.9,0,0,0,16.7,17.6,47,47,0,0,0,24.4,6.4,54.8,54.8,0,0,0,16.2-2.4,40.4,40.4,0,0,0,14.4-7.8,46.2,46.2,0,0,0,11.3-13.9l-14.4-8.9a32.7,32.7,0,0,1-7.2,9.6,27,27,0,0,1-9.3,5.3,39,39,0,0,1-11,1.6,28.6,28.6,0,0,1-14.6-3.8A26,26,0,0,1,551.2,245a37.6,37.6,0,0,1-3.5-14.3h71.6a24.6,24.6,0,0,0,.2-2.6v-2.5c0-9.9-1.9-18.5-5.8-25.9A42.4,42.4,0,0,0,597.9,182.5Zm-43.1,18.4a21.7,21.7,0,0,1,8.6-6.7,29.7,29.7,0,0,1,11.4-2.1,23.6,23.6,0,0,1,18.7,8.3c3.4,4,5.7,9.5,6.7,16.5h-52a36.2,36.2,0,0,1,1.2-5.2A32.2,32.2,0,0,1,554.8,200.9Z"/><path class="cls-1" d="M701.1,182.6a49.6,49.6,0,0,0-25.2-6.3,50.6,50.6,0,0,0-19.3,3.6,46,46,0,0,0-25.8,26.3,54.6,54.6,0,0,0-3.6,20.2,53.1,53.1,0,0,0,6.3,26.1A45.8,45.8,0,0,0,651,270.2a49.8,49.8,0,0,0,25.1,6.4,51,51,0,0,0,19.3-3.7,47,47,0,0,0,15.5-10.4,44.6,44.6,0,0,0,10.3-15.8,55.1,55.1,0,0,0,3.6-20.3c0-10-2.2-18.8-6.4-26.3A45.5,45.5,0,0,0,701.1,182.6Zm2.4,57.8a32.1,32.1,0,0,1-6.2,10.5,27.3,27.3,0,0,1-9.5,6.5,30.8,30.8,0,0,1-11.9,2.3,28.7,28.7,0,0,1-15.1-4,27.9,27.9,0,0,1-10.6-11.4,38.4,38.4,0,0,1-3.9-17.9,40.5,40.5,0,0,1,2.2-14.1,30.9,30.9,0,0,1,6.2-10.4,24.5,24.5,0,0,1,9.4-6.5,31,31,0,0,1,11.8-2.2,29.2,29.2,0,0,1,15.4,4,27.6,27.6,0,0,1,10.6,11.3c2.6,5,3.9,10.9,3.9,17.9A39.2,39.2,0,0,1,703.5,240.4Z"/><path class="cls-1" d="M802,182.5a43.2,43.2,0,0,0-22.9-6.2,48.7,48.7,0,0,0-18.7,3.5,43.8,43.8,0,0,0-24.3,26,60.6,60.6,0,0,0-3.3,20.6c0,9.9,2,18.7,6.1,26.2a44.3,44.3,0,0,0,16.7,17.6,46.7,46.7,0,0,0,24.4,6.4,54.8,54.8,0,0,0,16.2-2.4,42.2,42.2,0,0,0,14.4-7.8,47.8,47.8,0,0,0,11.3-13.9l-14.4-8.9a32.7,32.7,0,0,1-7.2,9.6,27,27,0,0,1-9.3,5.3,39,39,0,0,1-11,1.6,28.6,28.6,0,0,1-14.6-3.8A25.4,25.4,0,0,1,755.3,245a37.6,37.6,0,0,1-3.6-14.3h71.7a24.6,24.6,0,0,0,.2-2.6v-2.5c0-9.9-1.9-18.5-5.8-25.9A43.1,43.1,0,0,0,802,182.5Zm-43.1,18.4a21.7,21.7,0,0,1,8.6-6.7,29.7,29.7,0,0,1,11.4-2.1c7.5,0,13.8,2.7,18.6,8.3,3.5,4,5.7,9.5,6.7,16.5H752.3a36.2,36.2,0,0,1,1.2-5.2A28.9,28.9,0,0,1,758.9,200.9Z"/><path class="cls-1" d="M901.4,180.9a37.2,37.2,0,0,0-36.9.6,27.2,27.2,0,0,0-9.9,11V178.2H836v96.3h18.6V217.4c0-7.7,2.2-13.7,6.7-18s10.3-6.6,17.4-6.6a19.7,19.7,0,0,1,15.3,6.5c3.9,4.3,5.9,10.1,5.9,17.4v57.8h18.7V213.7c0-7.6-1.5-14.2-4.6-19.8A32.2,32.2,0,0,0,901.4,180.9Z"/><path class="cls-1" d="M999.9,182.5a43.3,43.3,0,0,0-23-6.2,48.5,48.5,0,0,0-18.6,3.5,43.8,43.8,0,0,0-24.3,26,60.6,60.6,0,0,0-3.3,20.6c0,9.9,2,18.7,6.1,26.2a44.7,44.7,0,0,0,16.6,17.6,47.3,47.3,0,0,0,24.5,6.4,55.8,55.8,0,0,0,16.2-2.4,42.2,42.2,0,0,0,14.4-7.8,49.4,49.4,0,0,0,11.3-13.9l-14.4-8.9a36.5,36.5,0,0,1-7.2,9.6,27,27,0,0,1-9.3,5.3,39,39,0,0,1-11,1.6,28.6,28.6,0,0,1-14.6-3.8A25.4,25.4,0,0,1,953.2,245a37.6,37.6,0,0,1-3.6-14.3h71.7a24.6,24.6,0,0,0,.2-2.6v-2.5c0-9.9-2-18.5-5.8-25.9A43.1,43.1,0,0,0,999.9,182.5Zm-43.1,18.4a21.7,21.7,0,0,1,8.6-6.7,29.5,29.5,0,0,1,11.3-2.1,23.6,23.6,0,0,1,18.7,8.3c3.5,4,5.7,9.5,6.7,16.5H950.2a36.2,36.2,0,0,1,1.2-5.2A28.9,28.9,0,0,1,956.8,200.9Z"/><path class="cls-1" d="M1063.4,180.7c-4.5,2.9-8.1,7.3-10.9,13.3V178.2h-18.6v96.3h18.6V223.1c0-8.2,2.1-14.7,6.2-19.7a20.1,20.1,0,0,1,15.9-7.4h9.5V176.3h-5.5A27.3,27.3,0,0,0,1063.4,180.7Z"/><path class="cls-1" d="M1158.9,194.4a23.9,23.9,0,0,0-2.1-3.4,34,34,0,0,0-11.6-10.7,35.4,35.4,0,0,0-17.3-4,43.4,43.4,0,0,0-17,3.4,41,41,0,0,0-13.6,9.6,42.3,42.3,0,0,0-9,14.5A49.1,49.1,0,0,0,1085,222a47.7,47.7,0,0,0,5.7,23.4,43.1,43.1,0,0,0,15.4,16.3,40.4,40.4,0,0,0,21.8,6c6.8,0,12.6-1.4,17.3-4.1a35,35,0,0,0,11.6-10.7,23.9,23.9,0,0,0,2.1-3.4v13.6c0,6.3-1.3,11.6-4,15.8a24,24,0,0,1-10.6,9.6,33.3,33.3,0,0,1-14.6,3.2,32.2,32.2,0,0,1-16.6-4.4,35.6,35.6,0,0,1-12.3-12.4l-13.1,10.4a43.3,43.3,0,0,0,11.2,13.1,42.4,42.4,0,0,0,14.5,7.4,54.8,54.8,0,0,0,16.2,2.4,56.2,56.2,0,0,0,24.8-5.3,39.4,39.4,0,0,0,17-15.6c4.2-6.9,6.3-15.3,6.3-25.1v-84h-18.8Zm-3.2,42.5a26.5,26.5,0,0,1-24.1,13.9,27.1,27.1,0,0,1-14.2-3.7,27.4,27.4,0,0,1-9.8-10.2A30.4,30.4,0,0,1,1104,222a30.9,30.9,0,0,1,3.6-15.1,27.4,27.4,0,0,1,9.8-10.2,27.1,27.1,0,0,1,14.2-3.7,26.5,26.5,0,0,1,24.1,13.9,30.9,30.9,0,0,1,3.6,15.1A30.4,30.4,0,0,1,1155.7,236.9Z"/><path class="cls-1" d="M1213.1,140.8a13.6,13.6,0,0,0-9.1-3.3,12.8,12.8,0,0,0-9,3.3c-2.5,2.2-3.7,5.2-3.7,9a11.1,11.1,0,0,0,3.7,8.8,12.8,12.8,0,0,0,9,3.3,13.6,13.6,0,0,0,9.1-3.3,11.1,11.1,0,0,0,3.8-8.8A11.4,11.4,0,0,0,1213.1,140.8Z"/><rect class="cls-1" x="1194.7" y="178.2" width="18.6" height="96.25"/><path class="cls-1" d="M1306.7,197.2a35,35,0,0,0-9.5-11.9,40.9,40.9,0,0,0-13.7-6.8,60.9,60.9,0,0,0-16.2-2.2,48.4,48.4,0,0,0-23.5,5.8,36,36,0,0,0-15.5,17.5l14.6,8.4a22.8,22.8,0,0,1,9-11c4.1-2.7,9.1-4,15-4a33.5,33.5,0,0,1,12.5,2.3,19.6,19.6,0,0,1,9,7.4c2.2,3.4,3.4,7.9,3.4,13.4v10.8l-2.1-2.1c-6-5.1-14.5-7.7-25.8-7.7a54,54,0,0,0-19.7,3.4,31.2,31.2,0,0,0-14,10.1,26.1,26.1,0,0,0-5.1,16.2c0,6.3,1.6,11.7,5,16.1a32.2,32.2,0,0,0,13.6,10.2,51.8,51.8,0,0,0,19.3,3.5c11.3,0,20.1-2.7,26.3-8.1a23.1,23.1,0,0,0,3.4-3.6v9.6h17.6V214.4A38,38,0,0,0,1306.7,197.2Zm-21.2,61c-4.5,2.6-10.2,4-17,4s-12.8-1.4-17.4-4-6.9-6.5-6.9-11.6a12.7,12.7,0,0,1,6.9-11.8q6.9-3.9,17.4-3.9c6.8,0,12.5,1.3,17,4a12.5,12.5,0,0,1,6.8,11.7C1292.3,251.7,1290.1,255.5,1285.5,258.2Z"/><path class="cls-2" d="M230.2,227.3A57.5,57.5,0,0,0,247,268.1c20.7,20.7,48.8,20.7,66.8,10.9,21.9-11.9,71.3-47.6,20-195.8C333.8,153.2,230.2,160.3,230.2,227.3Z"/><path class="cls-3" d="M277.4,144.5c-3.4-18.4-8.8-37.1-17-61.3,0,70-103.6,77.1-103.6,144.1a57.8,57.8,0,0,0,16.7,40.8c20.8,20.7,49.1,20.7,66.8,10.9C199.1,235.1,213.6,184.3,277.4,144.5Z"/><path class="cls-1" d="M204,144.5c-3.4-18.4-8.9-37.1-17-61.3,0,70-103.6,77.1-103.6,144.1,0,34.4,27.8,49.6,27.8,49.6a154.6,154.6,0,0,0-2.6,56.1l13.3-2.2c-6.5-22.6-2.5-47.2-2.1-49.7,17,6.9,34.5,4.8,47.1-2.1C125.7,235.1,140.2,184.3,204,144.5Z"/><rect class="cls-4" x="0.5" y="0.4" width="1392.7" height="496.15"/></svg>