<svg id="Capa_1" data-name="Capa 1" xmlns="http://www.w3.org/2000/svg" viewBox="0 0 1393.6 497.03"><defs><style>.cls-1{fill:#00a443;}.cls-2{fill:#ff9c1a;}.cls-3{fill:#0da9ff;}.cls-4{fill:none;}</style></defs><path class="cls-1" d="M496.17,224.46v17q-6.26-8.72-10.05-13.83l-63.47-85.84H405V274.48h19.51V174.81c4.17,5.82,7.52,10.42,10,13.84l63.47,85.83h17.62V141.84H496.17Z"/><path class="cls-1" d="M597.91,182.49A42.89,42.89,0,0,0,575,176.33a48.32,48.32,0,0,0-18.67,3.5A42.32,42.32,0,0,0,541.64,190a45,45,0,0,0-9.57,15.82,60.28,60.28,0,0,0-3.32,20.56q0,15,6.07,26.24a44.88,44.88,0,0,0,16.67,17.63,46.71,46.71,0,0,0,24.44,6.34,55.81,55.81,0,0,0,16.2-2.37,40.83,40.83,0,0,0,14.41-7.76,48.27,48.27,0,0,0,11.27-13.93l-14.4-8.91a32.41,32.41,0,0,1-7.2,9.57,25.18,25.18,0,0,1-9.29,5.31,36.5,36.5,0,0,1-11,1.61,28.21,28.21,0,0,1-14.59-3.79A26,26,0,0,1,551.21,245a38.23,38.23,0,0,1-3.53-14.3h71.65a19.66,19.66,0,0,0,.18-2.65v-2.47q0-14.78-5.77-25.86A43.1,43.1,0,0,0,597.91,182.49Zm-43.1,18.38a21.51,21.51,0,0,1,8.62-6.63,28.6,28.6,0,0,1,11.37-2.18,23.69,23.69,0,0,1,18.66,8.33q5.22,6,6.7,16.49H548.23a41.08,41.08,0,0,1,1.18-5.21A32,32,0,0,1,554.81,200.87Z"/><path class="cls-1" d="M701.08,182.58a50,50,0,0,0-25.2-6.25,51.1,51.1,0,0,0-19.33,3.6A45.49,45.49,0,0,0,641,190.26a46.3,46.3,0,0,0-10.23,15.91,54.7,54.7,0,0,0-3.6,20.18q0,14.78,6.34,26.15A45.7,45.7,0,0,0,651,270.22a52.69,52.69,0,0,0,44.43,2.65,47.59,47.59,0,0,0,15.54-10.33,45.56,45.56,0,0,0,10.23-15.82,55.4,55.4,0,0,0,3.6-20.37q0-15-6.35-26.24A45.3,45.3,0,0,0,701.08,182.58Zm2.47,57.79a30.37,30.37,0,0,1-6.26,10.52,26.91,26.91,0,0,1-9.47,6.54,31.08,31.08,0,0,1-11.94,2.27,29,29,0,0,1-15.06-4,27.73,27.73,0,0,1-10.61-11.46q-3.88-7.48-3.89-17.91a41.45,41.45,0,0,1,2.18-14,30.66,30.66,0,0,1,6.16-10.42,25.32,25.32,0,0,1,9.47-6.54,31.66,31.66,0,0,1,11.75-2.18,29.76,29.76,0,0,1,15.44,4,27.92,27.92,0,0,1,10.61,11.37q3.89,7.4,3.89,17.81A41,41,0,0,1,703.55,240.37Z"/><path class="cls-1" d="M802,182.49a43,43,0,0,0-22.93-6.16,48.27,48.27,0,0,0-18.66,3.5A42.36,42.36,0,0,0,745.7,190a45.18,45.18,0,0,0-9.57,15.82,60.29,60.29,0,0,0-3.31,20.56q0,15,6.06,26.24a44.83,44.83,0,0,0,16.68,17.63A46.68,46.68,0,0,0,780,276.56a55.81,55.81,0,0,0,16.2-2.37,40.87,40.87,0,0,0,14.4-7.76,48.11,48.11,0,0,0,11.27-13.93l-14.4-8.91a32.41,32.41,0,0,1-7.2,9.57,25.22,25.22,0,0,1-9.28,5.31,36.55,36.55,0,0,1-11,1.61,28.19,28.19,0,0,1-14.59-3.79A26,26,0,0,1,755.27,245a38.42,38.42,0,0,1-3.53-14.3h71.65a19.68,19.68,0,0,0,.19-2.65v-2.47q0-14.78-5.78-25.86A43.07,43.07,0,0,0,802,182.49Zm-43.11,18.38a21.57,21.57,0,0,1,8.62-6.63,28.6,28.6,0,0,1,11.37-2.18,23.73,23.73,0,0,1,18.67,8.33q5.21,6,6.69,16.49H752.29a41.08,41.08,0,0,1,1.18-5.21A32,32,0,0,1,758.87,200.87Z"/><path class="cls-1" d="M901.4,180.88A36.34,36.34,0,0,0,883,176.33a35.16,35.16,0,0,0-18.48,5.21,27.32,27.32,0,0,0-9.95,10.92V178.22H836v96.26h18.56v-57q0-11.56,6.73-18.1t17.34-6.54q9.47,0,15.35,6.45t5.87,17.43v57.79h18.76V213.66a40.46,40.46,0,0,0-4.64-19.8A32.88,32.88,0,0,0,901.4,180.88Z"/><path class="cls-1" d="M999.86,182.49a42.89,42.89,0,0,0-22.92-6.16,48.32,48.32,0,0,0-18.67,3.5A42.32,42.32,0,0,0,943.59,190,45,45,0,0,0,934,205.79a60.28,60.28,0,0,0-3.32,20.56q0,15,6.07,26.24a44.88,44.88,0,0,0,16.67,17.63,46.68,46.68,0,0,0,24.44,6.34,55.81,55.81,0,0,0,16.2-2.37,40.78,40.78,0,0,0,14.4-7.76,48.14,48.14,0,0,0,11.28-13.93l-14.4-8.91a32.41,32.41,0,0,1-7.2,9.57,25.26,25.26,0,0,1-9.29,5.31,36.5,36.5,0,0,1-11,1.61,28.21,28.21,0,0,1-14.59-3.79A26,26,0,0,1,953.16,245a38.23,38.23,0,0,1-3.53-14.3h71.64a18.17,18.17,0,0,0,.19-2.65v-2.47q0-14.78-5.77-25.86A43.1,43.1,0,0,0,999.86,182.49Zm-43.1,18.38a21.51,21.51,0,0,1,8.62-6.63,28.6,28.6,0,0,1,11.37-2.18,23.69,23.69,0,0,1,18.66,8.33c3.48,4,5.7,9.48,6.7,16.49H950.18a41.08,41.08,0,0,1,1.18-5.21A32,32,0,0,1,956.76,200.87Z"/><path class="cls-1" d="M1063.37,180.69q-6.72,4.35-10.89,13.26V178.22h-18.57v96.26h18.57V223.13q0-12.31,6.25-19.71a20,20,0,0,1,15.92-7.39h9.47v-19.7h-5.49A27.42,27.42,0,0,0,1063.37,180.69Z"/><path class="cls-1" d="M1158.93,194.4c-.65-1.16-1.34-2.29-2.09-3.39a33.77,33.77,0,0,0-11.65-10.7q-7.11-4-17.34-4a42.23,42.23,0,0,0-17,3.41,40.73,40.73,0,0,0-13.64,9.57,44.31,44.31,0,0,0-9,14.49A50,50,0,0,0,1085,222a47.79,47.79,0,0,0,5.68,23.4,43.31,43.31,0,0,0,15.35,16.3,40.62,40.62,0,0,0,21.79,6q10.23,0,17.34-4.08a35,35,0,0,0,11.65-10.7c.75-1.08,1.44-2.2,2.09-3.34v13.57q0,9.48-4,15.82a25.5,25.5,0,0,1-10.61,9.57,33,33,0,0,1-14.59,3.22,31.69,31.69,0,0,1-16.68-4.45,36.82,36.82,0,0,1-12.31-12.41l-13.08,10.42a43.56,43.56,0,0,0,11.18,13.07,44.62,44.62,0,0,0,14.5,7.49,59,59,0,0,0,41-2.94,40.39,40.39,0,0,0,17-15.63q6.25-10.33,6.26-25.11V178.22h-18.76Zm-3.22,42.47A26.77,26.77,0,0,1,1146,247.1a29.4,29.4,0,0,1-28.52,0,26.41,26.41,0,0,1-9.85-10.23A30.34,30.34,0,0,1,1104,222a30.72,30.72,0,0,1,3.6-15.06,26.41,26.41,0,0,1,9.85-10.23,29.33,29.33,0,0,1,28.52,0,26.77,26.77,0,0,1,9.76,10.23,30.83,30.83,0,0,1,3.6,15.06A30.45,30.45,0,0,1,1155.71,236.87Z"/><path class="cls-1" d="M1213.06,140.8a13.35,13.35,0,0,0-9.09-3.31,13,13,0,0,0-9,3.31,11.46,11.46,0,0,0-3.7,9,11.23,11.23,0,0,0,3.7,8.81,13,13,0,0,0,9,3.32,13.36,13.36,0,0,0,9.09-3.32,11.11,11.11,0,0,0,3.79-8.81A11.33,11.33,0,0,0,1213.06,140.8Z"/><rect class="cls-1" x="1194.68" y="178.22" width="18.57" height="96.25"/><path class="cls-1" d="M1306.74,197.17a34,34,0,0,0-9.57-11.84,39.67,39.67,0,0,0-13.64-6.82,59.18,59.18,0,0,0-16.2-2.18,47.67,47.67,0,0,0-23.5,5.78,35.52,35.52,0,0,0-15.54,17.53l14.59,8.33a23.16,23.16,0,0,1,9-11q6.16-4,15.07-4a32.61,32.61,0,0,1,12.41,2.28,19.42,19.42,0,0,1,9,7.39q3.41,5.12,3.41,13.45v10.74a26.66,26.66,0,0,0-2.09-2q-8.9-7.77-25.76-7.77a54.55,54.55,0,0,0-19.71,3.41,31.05,31.05,0,0,0-14,10.13,28.27,28.27,0,0,0-.1,32.31,31.64,31.64,0,0,0,13.65,10.14,50.71,50.71,0,0,0,19.23,3.5q17.05,0,26.33-8.05a25.25,25.25,0,0,0,3.42-3.6v9.57h17.62V214.41A38.32,38.32,0,0,0,1306.74,197.17Zm-21.22,61q-6.82,4-17.06,4-10.43,0-17.33-4t-6.92-11.55a12.71,12.71,0,0,1,6.92-11.85q6.9-3.87,17.33-3.88,10.23,0,17.06,4a12.81,12.81,0,0,1,6.82,11.75Q1292.34,254.21,1285.52,258.18Z"/><path class="cls-2" d="M230.25,227.34A57.85,57.85,0,0,0,247,268.1c20.72,20.72,48.85,20.68,66.78,10.94,22-11.91,71.33-47.63,20.07-195.8C333.83,153.18,230.25,160.29,230.25,227.34Z"/><path class="cls-3" d="M277.41,144.47c-3.4-18.33-8.85-37.1-17-61.23,0,69.94-103.58,77.05-103.58,144.1a57.85,57.85,0,0,0,16.73,40.76c20.72,20.72,49.07,20.66,66.79,10.94C199.09,235.13,213.65,184.3,277.41,144.47Z"/><path class="cls-1" d="M204,144.47c-3.4-18.33-8.86-37.1-17-61.23,0,69.94-103.57,77.05-103.57,144.1,0,34.39,27.85,49.53,27.85,49.53A153.82,153.82,0,0,0,108.6,333l13.29-2.21c-6.49-22.6-2.51-47.21-2.1-49.62,17,6.81,34.54,4.79,47.11-2.11C125.66,235.13,140.22,184.31,204,144.47Z"/><rect class="cls-4" x="0.46" y="0.44" width="1392.68" height="496.15"/><polygon class="cls-1" points="409.42 333 405.13 333 405.13 414.2 409.42 414.2 415.57 414.2 460 414.2 460 404.69 415.57 404.69 415.57 377.78 455.36 377.78 455.36 368.38 415.57 368.38 415.57 342.51 460 342.51 460 333 415.57 333 409.42 333"/><path class="cls-1" d="M481.34,403.41a8.74,8.74,0,0,1-1.51-5.45V333h-10v65.54a19.11,19.11,0,0,0,1.62,8.06,12.26,12.26,0,0,0,5.1,5.57,16.52,16.52,0,0,0,8.47,2h6.27v-8.81h-4.87Q482.85,405.39,481.34,403.41Z"/><path class="cls-1" d="M534.7,358.23a26.15,26.15,0,0,0-13.8-3.65,28.73,28.73,0,0,0-11.25,2.14,26.35,26.35,0,0,0-8.88,6.09,27.83,27.83,0,0,0-5.86,9.52,35.51,35.51,0,0,0-2.08,12.52,33,33,0,0,0,3.71,16,26.92,26.92,0,0,0,24.71,14.5,32.53,32.53,0,0,0,9.68-1.45,27.45,27.45,0,0,0,8.76-4.58,26.05,26.05,0,0,0,7-8.58l-7.54-4.64a23.05,23.05,0,0,1-4.76,5.91,16.73,16.73,0,0,1-6,3.37,23,23,0,0,1-6.9,1A18,18,0,0,1,512,404a17.59,17.59,0,0,1-6.56-7.25,23.85,23.85,0,0,1-2.41-9.56h44.58a8,8,0,0,0,.11-1.4v-1.51a33.58,33.58,0,0,0-3.48-15.65A25.55,25.55,0,0,0,534.7,358.23Zm-26.91,10.68a14.89,14.89,0,0,1,5.63-4.3,18.21,18.21,0,0,1,7.36-1.45,15.56,15.56,0,0,1,12.07,5.28q3.55,4,4.45,11.08h-34a26.35,26.35,0,0,1,.86-3.77A20.42,20.42,0,0,1,507.79,368.91Z"/><polygon class="cls-1" points="604.07 355.62 591.77 355.62 566.83 382.12 566.83 333 556.74 333 556.74 414.2 566.83 414.2 566.83 384.66 592.93 414.2 605.23 414.2 577.4 383.12 604.07 355.62"/><path class="cls-1" d="M625.53,336.37l-10,6.49v12.76h-10.9v8.47h10.9v32.83a20.6,20.6,0,0,0,1.86,9A13.78,13.78,0,0,0,623,412a18.26,18.26,0,0,0,9.34,2.2h7v-8.81h-6c-2.71,0-4.68-.8-5.92-2.38s-1.85-3.89-1.85-6.9v-32h13.8v-8.47h-13.8Z"/><path class="cls-1" d="M663.52,357.36a19.2,19.2,0,0,0-6.79,8.36v-10.1h-10V414.2h10V382.77q0-8,4-12.82A12.75,12.75,0,0,1,671,365.14h5.57V354.58h-3.48A17.06,17.06,0,0,0,663.52,357.36Z"/><path class="cls-1" d="M732,369a27.7,27.7,0,0,0-10.49-10.61,29.81,29.81,0,0,0-15.14-3.83,31.27,31.27,0,0,0-11.66,2.14,27.2,27.2,0,0,0-9.4,6.21,28.51,28.51,0,0,0-6.2,9.69,33.23,33.23,0,0,0-2.21,12.23,32.34,32.34,0,0,0,3.83,15.95,27.37,27.37,0,0,0,10.5,10.73,29.79,29.79,0,0,0,15.14,3.83,30.79,30.79,0,0,0,11.77-2.2,27.16,27.16,0,0,0,9.34-6.27,28.84,28.84,0,0,0,6.15-9.62,33.49,33.49,0,0,0,2.2-12.42A31.58,31.58,0,0,0,732,369Zm-7.71,24.82a19.57,19.57,0,0,1-4.06,6.79,17.35,17.35,0,0,1-6.15,4.24,20.27,20.27,0,0,1-7.71,1.44,19.32,19.32,0,0,1-9.86-2.55,17.62,17.62,0,0,1-6.9-7.36,24.74,24.74,0,0,1-2.5-11.55,25.7,25.7,0,0,1,1.45-8.93,19.53,19.53,0,0,1,4.06-6.72,16.7,16.7,0,0,1,6.15-4.18,20.53,20.53,0,0,1,7.6-1.39,19.26,19.26,0,0,1,9.92,2.55,18.25,18.25,0,0,1,6.9,7.31,23.73,23.73,0,0,1,2.55,11.36A26.13,26.13,0,0,1,724.3,393.84Z"/></svg>