<svg id="Capa_1" data-name="Capa 1" xmlns="http://www.w3.org/2000/svg" xmlns:xlink="http://www.w3.org/1999/xlink" viewBox="0 0 820.91 242.79"><defs><style>.cls-1{font-size:79.05px;font-family:Dialog;}.cls-1,.cls-2{fill:#fff;}.cls-3{fill:url(#linear-gradient);}.cls-4{fill:url(#radial-gradient);}.cls-5{fill:url(#radial-gradient-2);}.cls-6{fill:url(#radial-gradient-3);}.cls-7{fill:url(#radial-gradient-4);}.cls-8{fill:url(#radial-gradient-5);}</style><linearGradient id="linear-gradient" x1="1427.62" y1="1800.2" x2="1476.33" y2="1874.96" gradientTransform="translate(-1923.79 -2324.61) scale(1.41)" gradientUnits="userSpaceOnUse"><stop offset="0" stop-color="#5d891e"/><stop offset="0.35" stop-color="#9eb878"/><stop offset="0.74" stop-color="#e3ebd9"/><stop offset="0.92" stop-color="#fff"/></linearGradient><radialGradient id="radial-gradient" cx="-4974.79" cy="-27107.81" r="917.14" gradientTransform="translate(1129.27 6000.46) scale(0.22)" gradientUnits="userSpaceOnUse"><stop offset="0.19" stop-color="#5d891e"/><stop offset="0.21" stop-color="#658f29"/><stop offset="0.36" stop-color="#9bb674"/><stop offset="0.5" stop-color="#c6d5b0"/><stop offset="0.61" stop-color="#e5ecdb"/><stop offset="0.7" stop-color="#f8faf5"/><stop offset="0.75" stop-color="#fff"/></radialGradient><radialGradient id="radial-gradient-2" cx="-4915.94" cy="-27107.85" r="917.15" gradientTransform="translate(1166.74 6000.44) scale(0.22)" gradientUnits="userSpaceOnUse"><stop offset="0" stop-color="#e5ecf8"/><stop offset="0.13" stop-color="#e1eaf7"/><stop offset="0.25" stop-color="#d7e4f4"/><stop offset="0.37" stop-color="#c4daef"/><stop offset="0.48" stop-color="#abcde8"/><stop offset="0.58" stop-color="#8abbdf"/><stop offset="0.69" stop-color="#61a5d4"/><stop offset="0.79" stop-color="#328cc7"/><stop offset="0.89" stop-color="#0071ba"/></radialGradient><radialGradient id="radial-gradient-3" cx="-4915.85" cy="-27107.75" r="917.14" gradientTransform="translate(1166.8 6000.49) scale(0.22)" gradientUnits="userSpaceOnUse"><stop offset="0" stop-color="#fff"/><stop offset="0.05" stop-color="#e9f0f9"/><stop offset="0.1" stop-color="#d5e2f3"/><stop offset="0.17" stop-color="#c7d8ef"/><stop offset="0.25" stop-color="#bfd2ed"/><stop offset="0.38" stop-color="#bcd0ec"/><stop offset="0.47" stop-color="#8fb9e0"/><stop offset="0.63" stop-color="#4393cc"/><stop offset="0.74" stop-color="#127abf"/><stop offset="0.8" stop-color="#0071ba"/></radialGradient><radialGradient id="radial-gradient-4" cx="-4856.32" cy="-27107.85" r="917.14" gradientTransform="translate(1204.67 6000.44) scale(0.22)" gradientUnits="userSpaceOnUse"><stop offset="0.14" stop-color="#ffec00"/><stop offset="0.15" stop-color="#ffe800"/><stop offset="0.25" stop-color="gold"/><stop offset="0.36" stop-color="#ffcd00"/><stop offset="0.5" stop-color="#ffca00"/><stop offset="0.58" stop-color="#fbb800"/><stop offset="0.83" stop-color="#f18801"/><stop offset="0.95" stop-color="#FF9C1A"/></radialGradient><radialGradient id="radial-gradient-5" cx="-4856.34" cy="-27107.84" r="917.18" gradientTransform="translate(1204.67 6000.44) scale(0.22)" gradientUnits="userSpaceOnUse"><stop offset="0" stop-color="#ffec00"/><stop offset="0.01" stop-color="#ffe800"/><stop offset="0.09" stop-color="#fdd400"/><stop offset="0.17" stop-color="#fcc600"/><stop offset="0.28" stop-color="#fbbe00"/><stop offset="0.45" stop-color="#fbbb00"/><stop offset="0.46" stop-color="#fab800"/><stop offset="0.56" stop-color="#f59b00"/><stop offset="0.66" stop-color="#f08701"/><stop offset="0.76" stop-color="#ee7a01"/><stop offset="0.85" stop-color="#FF9C1A"/></radialGradient></defs><text class="cls-1" transform="translate(210.73 223.03)">BRASÍLIA</text><path class="cls-2" d="M868.8,235.1H854.05l-26.46,65.3h14.23L847,286.74h30.81l3.82,9.18c.89,2.1,1.88,4.48,6.42,4.48h9.84L868.8,235.1ZM850.71,277l10.84-28.69L873.65,277Z" transform="translate(-76.97 -178.02)"/><polygon class="cls-2" points="303.6 93.11 335.16 93.11 335.16 84.22 303.6 84.22 303.6 65.94 336.68 65.94 336.68 57.07 290.14 57.07 290.14 122.38 337.38 122.38 337.38 113.5 303.6 113.5 303.6 93.11 303.6 93.11"/><polygon class="cls-2" points="432.14 93.11 463.7 93.11 463.7 84.22 432.14 84.22 432.14 65.94 465.22 65.94 465.22 57.07 418.68 57.07 418.68 122.38 465.93 122.38 465.93 113.5 432.14 113.5 432.14 93.11 432.14 93.11"/><polygon class="cls-2" points="729.86 57.07 729.86 122.38 743.6 122.38 743.6 57.07 729.86 57.07 729.86 57.07"/><path class="cls-2" d="M772.7,269.9c0,2,1.62,4.2,6.06,4.2h4.73l0,14.08a22.75,22.75,0,0,1-9.57,1.91c-13,0-20.48-8.15-20.48-22.35,0-13.28,6.68-22.38,20.52-22.38a62.79,62.79,0,0,1,15.71,2.16V237.05a66.62,66.62,0,0,0-15.79-2c-24,0-34,17.1-34,32.64,0,16.28,10.54,32.66,34.07,32.66,9.73,0,17.76-3.6,22.73-8.14V265.67H778.68c-5.55,0-6,3.24-6,4.23Z" transform="translate(-76.97 -178.02)"/><path class="cls-2" d="M453.15,235.1c-23.53,0-34,16.42-34,32.65s10.51,32.65,34,32.65c23.34,0,34-16.92,34-32.65,0-16.23-10.49-32.65-34-32.65Zm0,55c-13,0-20.45-8.16-20.45-22.35s7.46-22.32,20.45-22.32,20.35,8.13,20.35,22.32-7.4,22.35-20.35,22.35Z" transform="translate(-76.97 -178.02)"/><path class="cls-2" d="M716.67,270.27c5-1.5,13.6-5.76,13.6-17.23,0-8.93-7.12-17.95-20.72-17.95H680.49V300.4H694V244h10.62c10.21,0,11.73,6.08,11.73,9.7,0,6-4.35,9.8-11.33,9.8-4.53,0-7.13,1.77-7.13,4.75,0,1.68,1.06,3.85,6,4.62,6.17,1,8.66,7,11.82,14.57,0,0,2.72,6.44,3.66,8.51s1.77,4.49,6.45,4.49h10.49l-4.64-10c-4.64-10.26-8.33-16.3-15-20.16Z" transform="translate(-76.97 -178.02)"/><path class="cls-2" d="M342.87,235.1v44.67L307,235.1H292.83v65.3h13.46V252.64S335,290,342,298.6a5.91,5.91,0,0,0,4.65,1.8h9.69V235.1Z" transform="translate(-76.97 -178.02)"/><polygon class="cls-2" points="561.92 93.11 593.48 93.11 593.48 84.22 561.92 84.22 561.92 65.94 595 65.94 595 57.07 548.46 57.07 548.46 122.38 595.7 122.38 595.7 113.5 561.92 113.5 561.92 93.11 561.92 93.11"/><path class="cls-2" d="M601.33,235.1v44.67L565.45,235.1H551.29v65.3h13.46V252.64s28.73,37.39,35.75,46a5.91,5.91,0,0,0,4.65,1.8h9.69V235.1Z" transform="translate(-76.97 -178.02)"/><path class="cls-3" d="M146.38,178c-4.12,52.15-68.51,48.61-69.4,98.27-.14,7.26,2.94,17.38,11.13,25.57a38.08,38.08,0,0,0,9.38,6.81A129.57,129.57,0,0,0,96,347.19l7.83-.42a106.23,106.23,0,0,1-1.76-36C135,323,186.27,294.72,146.38,178Z" transform="translate(-76.97 -178.02)"/><path class="cls-4" d="M104.9,284.66c-5.3-8.38-10.83-24.69-10.53-36h0a131.16,131.16,0,0,0,12.54,31.55A191.64,191.64,0,0,1,120.51,257c-5.38-8.08-6.75-21.38-6.67-24,0,0,.06,0,.09-.07a85.17,85.17,0,0,0,9,20.38,221.74,221.74,0,0,0,12.77-20.91c-2.42-5-4-12.72-3.85-15.23h0a36.3,36.3,0,0,0,6.06,10.66,97.27,97.27,0,0,0,8.54-23.1,90,90,0,0,0-.09-26.68c-4.12,52.15-68.51,48.61-69.4,98.27-.14,7.26,2.94,17.38,11.13,25.57a38.08,38.08,0,0,0,9.38,6.81A118,118,0,0,1,104.9,284.66Z" transform="translate(-76.97 -178.02)"/><path class="cls-5" d="M196.57,178c-4.1,52.15-68.49,48.61-69.39,98.27-.12,7.26,2.94,17.38,11.14,25.57C166.28,329.83,242.89,313.49,196.57,178Z" transform="translate(-76.97 -178.02)"/><path class="cls-6" d="M127.18,276.29c-.12,7.26,2.94,17.38,11.14,25.57a36.75,36.75,0,0,0,3.09,2.75c14.15-11.52,23.52-35.18,17.79-75.48C143,240.61,127.62,252.19,127.18,276.29Z" transform="translate(-76.97 -178.02)"/><path class="cls-7" d="M247.36,178c-4.12,52.15-68.5,48.61-69.38,98.27-.14,7.26,2.93,17.38,11.12,25.57C217.07,329.83,293.68,313.49,247.36,178Z" transform="translate(-76.97 -178.02)"/><path class="cls-8" d="M178,276.29c-.14,7.26,2.93,17.38,11.12,25.57.9.88,1.82,1.73,2.8,2.53,14-11.58,23.15-35.08,17.57-74.9C193.47,240.87,178.4,252.44,178,276.29Z" transform="translate(-76.97 -178.02)"/></svg>
