<svg id="Capa_1" data-name="Capa 1" xmlns="http://www.w3.org/2000/svg" viewBox="0 0 1393.6 497.03"><defs><style>.cls-1{fill:#fff;}.cls-2{fill:none;}</style></defs><path class="cls-1" d="M496.17,224.46v17q-6.26-8.72-10.05-13.83l-63.47-85.84H405V274.48h19.51V174.81c4.17,5.82,7.52,10.42,10,13.84l63.47,85.83h17.62V141.84H496.17Z"/><path class="cls-1" d="M597.91,182.49A42.89,42.89,0,0,0,575,176.33a48.32,48.32,0,0,0-18.67,3.5A42.32,42.32,0,0,0,541.64,190a45,45,0,0,0-9.57,15.82,60.28,60.28,0,0,0-3.32,20.56q0,15,6.07,26.24a44.88,44.88,0,0,0,16.67,17.63,46.71,46.71,0,0,0,24.44,6.34,55.81,55.81,0,0,0,16.2-2.37,40.83,40.83,0,0,0,14.41-7.76,48.27,48.27,0,0,0,11.27-13.93l-14.4-8.91a32.41,32.41,0,0,1-7.2,9.57,25.18,25.18,0,0,1-9.29,5.31,36.5,36.5,0,0,1-11,1.61,28.21,28.21,0,0,1-14.59-3.79A26,26,0,0,1,551.21,245a38.23,38.23,0,0,1-3.53-14.3h71.65a19.66,19.66,0,0,0,.18-2.65v-2.47q0-14.78-5.77-25.86A43.1,43.1,0,0,0,597.91,182.49Zm-43.1,18.38a21.51,21.51,0,0,1,8.62-6.63,28.6,28.6,0,0,1,11.37-2.18,23.69,23.69,0,0,1,18.66,8.33q5.22,6,6.7,16.49H548.23a41.08,41.08,0,0,1,1.18-5.21A32,32,0,0,1,554.81,200.87Z"/><path class="cls-1" d="M701.08,182.58a50,50,0,0,0-25.2-6.25,51.1,51.1,0,0,0-19.33,3.6A45.49,45.49,0,0,0,641,190.26a46.3,46.3,0,0,0-10.23,15.91,54.7,54.7,0,0,0-3.6,20.18q0,14.78,6.34,26.15A45.7,45.7,0,0,0,651,270.22a52.69,52.69,0,0,0,44.43,2.65,47.59,47.59,0,0,0,15.54-10.33,45.56,45.56,0,0,0,10.23-15.82,55.4,55.4,0,0,0,3.6-20.37q0-15-6.35-26.24A45.3,45.3,0,0,0,701.08,182.58Zm2.47,57.79a30.37,30.37,0,0,1-6.26,10.52,26.91,26.91,0,0,1-9.47,6.54,31.08,31.08,0,0,1-11.94,2.27,29,29,0,0,1-15.06-4,27.73,27.73,0,0,1-10.61-11.46q-3.88-7.48-3.89-17.91a41.45,41.45,0,0,1,2.18-14,30.66,30.66,0,0,1,6.16-10.42,25.32,25.32,0,0,1,9.47-6.54,31.66,31.66,0,0,1,11.75-2.18,29.76,29.76,0,0,1,15.44,4,27.92,27.92,0,0,1,10.61,11.37q3.89,7.4,3.89,17.81A41,41,0,0,1,703.55,240.37Z"/><path class="cls-1" d="M802,182.49a43,43,0,0,0-22.93-6.16,48.27,48.27,0,0,0-18.66,3.5A42.36,42.36,0,0,0,745.7,190a45.18,45.18,0,0,0-9.57,15.82,60.29,60.29,0,0,0-3.31,20.56q0,15,6.06,26.24a44.83,44.83,0,0,0,16.68,17.63A46.68,46.68,0,0,0,780,276.56a55.81,55.81,0,0,0,16.2-2.37,40.87,40.87,0,0,0,14.4-7.76,48.11,48.11,0,0,0,11.27-13.93l-14.4-8.91a32.41,32.41,0,0,1-7.2,9.57,25.22,25.22,0,0,1-9.28,5.31,36.55,36.55,0,0,1-11,1.61,28.19,28.19,0,0,1-14.59-3.79A26,26,0,0,1,755.27,245a38.42,38.42,0,0,1-3.53-14.3h71.65a19.68,19.68,0,0,0,.19-2.65v-2.47q0-14.78-5.78-25.86A43.07,43.07,0,0,0,802,182.49Zm-43.11,18.38a21.57,21.57,0,0,1,8.62-6.63,28.6,28.6,0,0,1,11.37-2.18,23.73,23.73,0,0,1,18.67,8.33q5.21,6,6.69,16.49H752.29a41.08,41.08,0,0,1,1.18-5.21A32,32,0,0,1,758.87,200.87Z"/><path class="cls-1" d="M901.4,180.88A36.34,36.34,0,0,0,883,176.33a35.16,35.16,0,0,0-18.48,5.21,27.32,27.32,0,0,0-9.95,10.92V178.22H836v96.26h18.56v-57q0-11.56,6.73-18.1t17.34-6.54q9.47,0,15.35,6.45t5.87,17.43v57.79h18.76V213.66a40.46,40.46,0,0,0-4.64-19.8A32.88,32.88,0,0,0,901.4,180.88Z"/><path class="cls-1" d="M999.86,182.49a42.89,42.89,0,0,0-22.92-6.16,48.32,48.32,0,0,0-18.67,3.5A42.32,42.32,0,0,0,943.59,190,45,45,0,0,0,934,205.79a60.28,60.28,0,0,0-3.32,20.56q0,15,6.07,26.24a44.88,44.88,0,0,0,16.67,17.63,46.68,46.68,0,0,0,24.44,6.34,55.81,55.81,0,0,0,16.2-2.37,40.78,40.78,0,0,0,14.4-7.76,48.14,48.14,0,0,0,11.28-13.93l-14.4-8.91a32.41,32.41,0,0,1-7.2,9.57,25.26,25.26,0,0,1-9.29,5.31,36.5,36.5,0,0,1-11,1.61,28.21,28.21,0,0,1-14.59-3.79A26,26,0,0,1,953.16,245a38.23,38.23,0,0,1-3.53-14.3h71.64a18.17,18.17,0,0,0,.19-2.65v-2.47q0-14.78-5.77-25.86A43.1,43.1,0,0,0,999.86,182.49Zm-43.1,18.38a21.51,21.51,0,0,1,8.62-6.63,28.6,28.6,0,0,1,11.37-2.18,23.69,23.69,0,0,1,18.66,8.33c3.48,4,5.7,9.48,6.7,16.49H950.18a41.08,41.08,0,0,1,1.18-5.21A32,32,0,0,1,956.76,200.87Z"/><path class="cls-1" d="M1063.37,180.69q-6.72,4.35-10.89,13.26V178.22h-18.57v96.26h18.57V223.13q0-12.31,6.25-19.71a20,20,0,0,1,15.92-7.39h9.47v-19.7h-5.49A27.42,27.42,0,0,0,1063.37,180.69Z"/><path class="cls-1" d="M1158.93,194.4c-.65-1.16-1.34-2.29-2.09-3.39a33.77,33.77,0,0,0-11.65-10.7q-7.11-4-17.34-4a42.23,42.23,0,0,0-17,3.41,40.73,40.73,0,0,0-13.64,9.57,44.31,44.31,0,0,0-9,14.49A50,50,0,0,0,1085,222a47.79,47.79,0,0,0,5.68,23.4,43.31,43.31,0,0,0,15.35,16.3,40.62,40.62,0,0,0,21.79,6q10.23,0,17.34-4.08a35,35,0,0,0,11.65-10.7c.75-1.08,1.44-2.2,2.09-3.34v13.57q0,9.48-4,15.82a25.5,25.5,0,0,1-10.61,9.57,33,33,0,0,1-14.59,3.22,31.69,31.69,0,0,1-16.68-4.45,36.82,36.82,0,0,1-12.31-12.41l-13.08,10.42a43.56,43.56,0,0,0,11.18,13.07,44.62,44.62,0,0,0,14.5,7.49,59,59,0,0,0,41-2.94,40.39,40.39,0,0,0,17-15.63q6.25-10.33,6.26-25.11V178.22h-18.76Zm-3.22,42.47A26.77,26.77,0,0,1,1146,247.1a29.4,29.4,0,0,1-28.52,0,26.41,26.41,0,0,1-9.85-10.23A30.34,30.34,0,0,1,1104,222a30.72,30.72,0,0,1,3.6-15.06,26.41,26.41,0,0,1,9.85-10.23,29.33,29.33,0,0,1,28.52,0,26.77,26.77,0,0,1,9.76,10.23,30.83,30.83,0,0,1,3.6,15.06A30.45,30.45,0,0,1,1155.71,236.87Z"/><path class="cls-1" d="M1213.06,140.8a13.35,13.35,0,0,0-9.09-3.31,13,13,0,0,0-9,3.31,11.46,11.46,0,0,0-3.7,9,11.23,11.23,0,0,0,3.7,8.81,13,13,0,0,0,9,3.32,13.36,13.36,0,0,0,9.09-3.32,11.11,11.11,0,0,0,3.79-8.81A11.33,11.33,0,0,0,1213.06,140.8Z"/><rect class="cls-1" x="1194.68" y="178.22" width="18.57" height="96.25"/><path class="cls-1" d="M1306.74,197.17a34,34,0,0,0-9.57-11.84,39.67,39.67,0,0,0-13.64-6.82,59.18,59.18,0,0,0-16.2-2.18,47.67,47.67,0,0,0-23.5,5.78,35.52,35.52,0,0,0-15.54,17.53l14.59,8.33a23.16,23.16,0,0,1,9-11q6.16-4,15.07-4a32.61,32.61,0,0,1,12.41,2.28,19.42,19.42,0,0,1,9,7.39q3.41,5.12,3.41,13.45v10.74a26.66,26.66,0,0,0-2.09-2q-8.9-7.77-25.76-7.77a54.55,54.55,0,0,0-19.71,3.41,31.05,31.05,0,0,0-14,10.13,28.27,28.27,0,0,0-.1,32.31,31.64,31.64,0,0,0,13.65,10.14,50.71,50.71,0,0,0,19.23,3.5q17.05,0,26.33-8.05a25.25,25.25,0,0,0,3.42-3.6v9.57h17.62V214.41A38.32,38.32,0,0,0,1306.74,197.17Zm-21.22,61q-6.82,4-17.06,4-10.43,0-17.33-4t-6.92-11.55a12.71,12.71,0,0,1,6.92-11.85q6.9-3.87,17.33-3.88,10.23,0,17.06,4a12.81,12.81,0,0,1,6.82,11.75Q1292.34,254.21,1285.52,258.18Z"/><path class="cls-1" d="M230.25,227.34A57.85,57.85,0,0,0,247,268.1c20.72,20.72,48.85,20.68,66.78,10.94,22-11.91,71.33-47.63,20.07-195.8C333.83,153.18,230.25,160.29,230.25,227.34Z"/><path class="cls-1" d="M277.41,144.47c-3.4-18.33-8.85-37.1-17-61.23,0,69.94-103.58,77.05-103.58,144.1a57.85,57.85,0,0,0,16.73,40.76c20.72,20.72,49.07,20.66,66.79,10.94C199.09,235.13,213.65,184.3,277.41,144.47Z"/><path class="cls-1" d="M204,144.47c-3.4-18.33-8.86-37.1-17-61.23,0,69.94-103.57,77.05-103.57,144.1,0,34.39,27.85,49.53,27.85,49.53A153.82,153.82,0,0,0,108.6,333l13.29-2.21c-6.49-22.6-2.51-47.21-2.1-49.62,17,6.81,34.54,4.79,47.11-2.11C125.66,235.13,140.22,184.31,204,144.47Z"/><path class="cls-1" d="M441.32,415.36a40.24,40.24,0,0,1-20.65-5.28,37.49,37.49,0,0,1-14.21-14.67,44.56,44.56,0,0,1-5.16-21.81,47.14,47.14,0,0,1,3-17,38.68,38.68,0,0,1,8.29-13.22,36.82,36.82,0,0,1,12.71-8.53,42,42,0,0,1,16.06-3,39.79,39.79,0,0,1,14.73,2.61,36,36,0,0,1,11.72,7.48,34.73,34.73,0,0,1,8,11.72l-9.28,4.87a25.39,25.39,0,0,0-5.85-9.16,26.31,26.31,0,0,0-8.65-5.68,28,28,0,0,0-10.67-2,30.39,30.39,0,0,0-11.54,2.15,26.07,26.07,0,0,0-9.22,6.32,29.48,29.48,0,0,0-6.15,10.09,38,38,0,0,0-2.2,13.34A35.86,35.86,0,0,0,416,390.66a27.3,27.3,0,0,0,10.44,11,29.12,29.12,0,0,0,14.85,3.82,26.36,26.36,0,0,0,25.17-16.82l9.28,4.87a35.77,35.77,0,0,1-13.51,16A37.72,37.72,0,0,1,441.32,415.36Z"/><path class="cls-1" d="M509.76,415.36a29.79,29.79,0,0,1-15.14-3.83,27.43,27.43,0,0,1-10.5-10.73,32.34,32.34,0,0,1-3.82-15.95,33.23,33.23,0,0,1,2.2-12.23,28.39,28.39,0,0,1,6.21-9.69,27.16,27.16,0,0,1,9.39-6.21,31.27,31.27,0,0,1,11.66-2.14,29.81,29.81,0,0,1,15.14,3.83A27.8,27.8,0,0,1,535.4,369a31.68,31.68,0,0,1,3.82,15.83,33.49,33.49,0,0,1-2.2,12.42,28.84,28.84,0,0,1-6.15,9.62,27.16,27.16,0,0,1-9.34,6.27A30.79,30.79,0,0,1,509.76,415.36Zm0-9.05a20.27,20.27,0,0,0,7.71-1.44,17.35,17.35,0,0,0,6.15-4.24,19.57,19.57,0,0,0,4.06-6.79,26.13,26.13,0,0,0,1.45-9,23.73,23.73,0,0,0-2.55-11.36,18.25,18.25,0,0,0-6.9-7.31,19.26,19.26,0,0,0-9.92-2.55,20.53,20.53,0,0,0-7.6,1.39A16.7,16.7,0,0,0,496,369.2a19.53,19.53,0,0,0-4.06,6.72,25.93,25.93,0,0,0-1.45,8.93A24.74,24.74,0,0,0,493,396.4a17.62,17.62,0,0,0,6.9,7.36A19.32,19.32,0,0,0,509.76,406.31Z"/><path class="cls-1" d="M574,415.36a27.69,27.69,0,0,1-14.67-3.83,27.38,27.38,0,0,1-10-10.67,33,33,0,0,1-3.72-16,35.5,35.5,0,0,1,2.09-12.52,27.68,27.68,0,0,1,5.86-9.52,26.41,26.41,0,0,1,8.87-6.09,28.82,28.82,0,0,1,11.26-2.14,26.15,26.15,0,0,1,13.8,3.65A25.55,25.55,0,0,1,597,368.62a33.58,33.58,0,0,1,3.48,15.65v1.51a8,8,0,0,1-.11,1.4H551.17v-7.66h43.5l-4.29,6.26v-1.16q0-10.9-4.76-16.18a15.52,15.52,0,0,0-12.06-5.28,18.29,18.29,0,0,0-7.37,1.45,14.86,14.86,0,0,0-5.62,4.3,20.42,20.42,0,0,0-3.6,6.84,30,30,0,0,0-1.27,9.1,25.64,25.64,0,0,0,2.49,11.89,17.64,17.64,0,0,0,6.55,7.25,18.1,18.1,0,0,0,9.52,2.44,23,23,0,0,0,6.9-1,16.73,16.73,0,0,0,6-3.37,23.05,23.05,0,0,0,4.76-5.91l7.54,4.64a26.31,26.31,0,0,1-7,8.58,27.45,27.45,0,0,1-8.76,4.58A32.54,32.54,0,0,1,574,415.36Z"/><path class="cls-1" d="M625,414.2a16.47,16.47,0,0,1-8.47-2,12.21,12.21,0,0,1-5.1-5.57,19,19,0,0,1-1.63-8.06V333h10v65a8.74,8.74,0,0,0,1.51,5.45q1.5,2,5.1,2h4.87v8.81Z"/><path class="cls-1" d="M637.59,414.2V333h10v43.39l-2,8.58,2,9.63v19.6ZM668,415.25a21.87,21.87,0,0,1-18.79-9.57,31.22,31.22,0,0,1-4.47-9.75,42.29,42.29,0,0,1-1.45-11,43,43,0,0,1,1.45-11,30.43,30.43,0,0,1,4.53-9.8,23.38,23.38,0,0,1,7.71-7,22.12,22.12,0,0,1,11-2.61,25.73,25.73,0,0,1,13.92,3.83,26.72,26.72,0,0,1,9.69,10.67,33.84,33.84,0,0,1,3.54,15.77,35.74,35.74,0,0,1-2,12.3,28.71,28.71,0,0,1-5.75,9.63A25.7,25.7,0,0,1,668,415.25Zm-1.74-9.05a19.33,19.33,0,0,0,7.54-1.45,17.26,17.26,0,0,0,6-4.18,18,18,0,0,0,3.89-6.73,28.27,28.27,0,0,0,1.33-9q0-10-5.27-15.6a17.72,17.72,0,0,0-13.52-5.62,20,20,0,0,0-7.6,1.39,16.16,16.16,0,0,0-6,4.23,20,20,0,0,0-3.94,6.73,26.17,26.17,0,0,0-1.4,8.87q0,10.09,5.28,15.72A17.85,17.85,0,0,0,666.24,406.2Z"/><path class="cls-1" d="M724.24,415.36a31.43,31.43,0,0,1-11.6-2.09,19.64,19.64,0,0,1-8.52-6.14,15.47,15.47,0,0,1-3.19-9.86,15.05,15.05,0,0,1,3.24-9.8,20.39,20.39,0,0,1,8.65-6.1,32.35,32.35,0,0,1,11.77-2.08q10.44,0,16,4.75a15.94,15.94,0,0,1,5.57,12.76q0,8.82-5.69,13.69T724.24,415.36Zm18.33-1.16v-11l.12-1.62V390.89l-.35-.7v-11.6c0-3.71-.76-6.67-2.26-8.87a12.8,12.8,0,0,0-5.86-4.76,20.86,20.86,0,0,0-7.89-1.45,17.44,17.44,0,0,0-9.63,2.61,14.47,14.47,0,0,0-5.8,7L703,368.85a21.1,21.1,0,0,1,9.17-10.67,28.1,28.1,0,0,1,14.27-3.6,35.59,35.59,0,0,1,9.57,1.27,24.37,24.37,0,0,1,8.23,4.06,20.44,20.44,0,0,1,5.86,7.14,23,23,0,0,1,2.2,10.5V414.2ZM727,407.47a21.72,21.72,0,0,0,11.07-2.6,8.7,8.7,0,0,0,0-15.2A21.62,21.62,0,0,0,727,387.06a23.41,23.41,0,0,0-11.31,2.49,8.73,8.73,0,0,0,0,15.37A23,23,0,0,0,727,407.47Z"/><rect class="cls-2" x="0.46" y="0.44" width="1392.68" height="496.15"/></svg>