<svg xmlns="http://www.w3.org/2000/svg" xmlns:xlink="http://www.w3.org/1999/xlink" width="349.563" height="351.326" viewBox="0 0 349.563 351.326">
  <defs>
    <linearGradient id="linear-gradient" x1="0.411" y1="-0.455" x2="0.526" y2="0.301" gradientUnits="objectBoundingBox">
      <stop offset="0" stop-color="#ebeff2"/>
      <stop offset="1" stop-color="#fff"/>
    </linearGradient>
    <linearGradient id="linear-gradient-2" x1="31.064" y1="0.253" x2="30.24" y2="1.578" gradientUnits="objectBoundingBox">
      <stop offset="0" stop-color="#febbba"/>
      <stop offset="1" stop-color="#ff928e"/>
    </linearGradient>
    <linearGradient id="linear-gradient-3" y1="0.5" x2="1" y2="0.5" gradientUnits="objectBoundingBox">
      <stop offset="0" stop-color="#09005d"/>
      <stop offset="1" stop-color="#1a0f91"/>
    </linearGradient>
    <linearGradient id="linear-gradient-4" x1="-80.186" y1="5.841" x2="-78.962" y2="4.065" xlink:href="#linear-gradient-2"/>
    <linearGradient id="linear-gradient-5" x1="-21.963" y1="13.782" x2="-21" y2="13.782" xlink:href="#linear-gradient-3"/>
    <linearGradient id="linear-gradient-6" x1="-60.44" y1="9.527" x2="-59.428" y2="7.649" xlink:href="#linear-gradient-2"/>
    <linearGradient id="linear-gradient-7" x1="4.023" y1="0.836" x2="3.222" y2="0.171" gradientUnits="objectBoundingBox">
      <stop offset="0" stop-color="#444b8c"/>
      <stop offset="0.996" stop-color="#26264f"/>
    </linearGradient>
    <linearGradient id="linear-gradient-8" x1="-6.17" y1="-0.046" x2="-4.982" y2="1.189" xlink:href="#linear-gradient-3"/>
    <linearGradient id="linear-gradient-9" x1="1.183" y1="1.207" x2="1.684" y2="0.075" gradientUnits="objectBoundingBox">
      <stop offset="0" stop-color="#aa80f9"/>
      <stop offset="0.996" stop-color="#6165d7"/>
    </linearGradient>
    <linearGradient id="linear-gradient-10" x1="12.327" y1="-2.427" x2="12.378" y2="-4.189" xlink:href="#linear-gradient-2"/>
    <linearGradient id="linear-gradient-11" x1="23.971" y1="-5.192" x2="23.928" y2="-2.021" xlink:href="#linear-gradient-2"/>
    <linearGradient id="linear-gradient-12" x1="8.649" y1="0.341" x2="8.356" y2="2.669" xlink:href="#linear-gradient-2"/>
    <linearGradient id="linear-gradient-13" x1="0.963" y1="0.557" x2="17.578" y2="2.461" gradientUnits="objectBoundingBox">
      <stop offset="0.1" stop-color="#311944"/>
      <stop offset="0.267" stop-color="#361b47"/>
      <stop offset="0.48" stop-color="#462050"/>
      <stop offset="0.719" stop-color="#602a5f"/>
      <stop offset="0.974" stop-color="#843773"/>
      <stop offset="1" stop-color="#893976"/>
    </linearGradient>
    <linearGradient id="linear-gradient-14" x1="0.862" y1="7.196" x2="-0.865" y2="-22.66" gradientUnits="objectBoundingBox">
      <stop offset="0.1" stop-color="#311944"/>
      <stop offset="0.685" stop-color="#6d2e66"/>
      <stop offset="1" stop-color="#893976"/>
    </linearGradient>
    <linearGradient id="linear-gradient-15" x1="0.637" y1="3.156" x2="0.467" y2="-0.19" gradientUnits="objectBoundingBox">
      <stop offset="0" stop-color="#311944"/>
      <stop offset="1" stop-color="#893976"/>
    </linearGradient>
  </defs>
  <g id="Grupo_39776" data-name="Grupo 39776" transform="translate(-410.177 -342.738)">
    <path id="Caminho_14194" data-name="Caminho 14194" d="M753.791,928.659c-23.105,52.088-136.794,46.5-166.058,45.058-15.782-.776-152.3-6.455-170.446-67.049-11.982-40.01,32.476-87.769,7.419-123.347-4.654-6.607-14.465-16.714-14.529-31.832,0,0-.063-14.911,12.847-30.235,38.255-45.405,322.378-52.56,327.955-4.93,1.278,10.915-13.661,11.676-24.812,33.032C694.231,810.519,776.474,877.521,753.791,928.659Z" transform="translate(0 -299.877)" fill="#00A443"/>
    <path id="Caminho_14195" data-name="Caminho 14195" d="M1687.47,2412.593a15.2,15.2,0,0,1-10.265-11.272l-8.1-36.938-64.02,3.341-7.241,38.742c-1.014,5.426,3.5,10.777,8.619,12.684l26.975,10.04a34.845,34.845,0,0,0,15.706,2.011l56.558-5.788a3.514,3.514,0,0,0,3.125-3.166c.165-1.673,1.294-3.567-.294-4.065Z" transform="translate(-1044.26 -1777.76)" fill="#97a6b7"/>
    <path id="Caminho_14196" data-name="Caminho 14196" d="M1703.615,2398.264a15.064,15.064,0,0,1-10.253-11.129l-8.09-36.472-62.459,3.288-7.241,38.256a11.157,11.157,0,0,0,7.111,12.546l26.946,9.908a35.182,35.182,0,0,0,15.69,1.983l56.5-5.726a3.491,3.491,0,0,0,.68-6.809Z" transform="translate(-1059.808 -1765.695)" fill="#D8CFC7"/>
    <path id="Caminho_14197" data-name="Caminho 14197" d="M978.914,827.485,976.149,661.3a6.553,6.553,0,0,0-6.357-6.343l-285.7-6.727c-4.348-.1-7.863,2.959-7.8,6.8l3.056,183.661Z" transform="translate(-234.011 -268.635)" fill="#232323"/>
    <path id="Caminho_14198" data-name="Caminho 14198" d="M753.025,915.3l2.387,143.465c.06,3.581,3.417,6.362,7.449,6.18l270.839-12.215a6.062,6.062,0,0,0,5.774-6.072l-2.129-127.954Z" transform="translate(-301.488 -503.492)" fill="#D8CFC7"/>
    <path id="Caminho_14199" data-name="Caminho 14199" d="M1035.343,753.277l-.244-14.684a6,6,0,0,0-5.851-5.807l-271.406-5.606c-3.955-.082-7.151,2.721-7.093,6.229l.274,16.464Z" transform="translate(-299.485 -338.062)" fill="#3c7326"/>
    <g id="Grupo_39766" data-name="Grupo 39766" transform="translate(466.146 398.034)">
      <path id="Caminho_14200" data-name="Caminho 14200" d="M879.153,803.385a2.3,2.3,0,0,1-2.475,2.195,2.485,2.485,0,0,1-2.557-2.276,2.3,2.3,0,0,1,2.482-2.194A2.485,2.485,0,0,1,879.153,803.385Z" transform="translate(-874.121 -801.108)" fill="#00A443"/>
      <path id="Caminho_14201" data-name="Caminho 14201" d="M969.365,804.938a2.274,2.274,0,0,1-2.446,2.182,2.462,2.462,0,0,1-2.527-2.263,2.275,2.275,0,0,1,2.453-2.182A2.461,2.461,0,0,1,969.365,804.938Z" transform="translate(-953.501 -802.486)" fill="#00A443"/>
      <path id="Caminho_14202" data-name="Caminho 14202" d="M1058.525,806.473a2.253,2.253,0,0,1-2.418,2.169,2.438,2.438,0,0,1-2.5-2.249,2.253,2.253,0,0,1,2.424-2.169A2.438,2.438,0,0,1,1058.525,806.473Z" transform="translate(-1031.956 -803.848)" fill="#00A443"/>
    </g>
    <path id="Caminho_14203" data-name="Caminho 14203" d="M701.628,2137.6l.61,36.679c.064,3.844,3.679,6.78,8.021,6.524l285.31-16.821a6.569,6.569,0,0,0,6.143-6.564l-.534-32.093Z" transform="translate(-256.291 -1567.54)" fill="#D8CFC7"/>
    <path id="Caminho_14204" data-name="Caminho 14204" d="M938.813,367.786c11.18,18.008,21.187,37.443,11.286,91.4-9.7,52.848-9.219,78.3-.023,100.248l203.82-9.192c-6.016-11.229-7.055-18.559-7.871-30.729-3.007-44.878,23.828-88.825,7.769-135.741a84.674,84.674,0,0,0-28.14-39.654l-210.716-1.38A84.254,84.254,0,0,1,938.813,367.786Z" transform="translate(-443.867)" fill="url(#linear-gradient)"/>
    <g id="Grupo_39767" data-name="Grupo 39767" transform="translate(504.532 356.247)">
      <path id="Caminho_14205" data-name="Caminho 14205" d="M1454.154,1760.519q.011.676.03,1.353a.865.865,0,0,1-.918.794l-170.015,5.257a.878.878,0,0,1-1-.838q.064-.676.127-1.365a.893.893,0,0,1,.918-.721l169.857-5.252A.9.9,0,0,1,1454.154,1760.519Z" transform="translate(-1271.399 -1602.312)" fill="#D8CFC7"/>
      <path id="Caminho_14206" data-name="Caminho 14206" d="M1460.561,1641.065q-.059.679-.112,1.358a.886.886,0,0,1-.92.727l-169.591,4.8a.88.88,0,0,1-1-.828q.052-.677.1-1.363a.889.889,0,0,1,.922-.731l169.6-4.8A.879.879,0,0,1,1460.561,1641.065Z" transform="translate(-1277.282 -1497.211)" fill="#D8CFC7"/>
      <path id="Caminho_14207" data-name="Caminho 14207" d="M1468.935,1879.689q.1.674.21,1.345c.074.454-.344.859-.907.878l-169.512,5.727a.88.88,0,0,1-1-.843q.066-.675.134-1.364a.892.892,0,0,1,.915-.716L1467.939,1879A.925.925,0,0,1,1468.935,1879.689Z" transform="translate(-1285.005 -1707.178)" fill="#D8CFC7"/>
      <path id="Caminho_14208" data-name="Caminho 14208" d="M1469.776,1521.539q-.109.683-.214,1.366a.9.9,0,0,1-.916.678l-170.283,4.363a.883.883,0,0,1-.995-.818q.04-.677.079-1.362a.886.886,0,0,1,.926-.742l170.418-4.366C1469.385,1520.644,1469.853,1521.062,1469.776,1521.539Z" transform="translate(-1284.694 -1392.067)" fill="#D8CFC7"/>
      <path id="Caminho_14209" data-name="Caminho 14209" d="M1494.174,1998.369q.2.67.414,1.336c.152.479-.272.949-.881.971l-169.9,6.252a.888.888,0,0,1-1.008-.814q.038-.677.082-1.371a.885.885,0,0,1,.914-.737l169.4-6.234A.956.956,0,0,1,1494.174,1998.369Z" transform="translate(-1307.059 -1811.622)" fill="#D8CFC7"/>
      <path id="Caminho_14210" data-name="Caminho 14210" d="M1491.653,1402.131q-.136.683-.271,1.367a.912.912,0,0,1-.917.653l-170.209,3.907a.886.886,0,0,1-.992-.807q.028-.677.055-1.36a.883.883,0,0,1,.929-.753l170.426-3.912C1491.279,1401.212,1491.75,1401.647,1491.653,1402.131Z" transform="translate(-1303.948 -1287.041)" fill="#D8CFC7"/>
      <path id="Caminho_14211" data-name="Caminho 14211" d="M1483.206,692.875a.965.965,0,0,1,.932.56q.249.681.487,1.37l0,.01c.168.491-.292.975-.92.978l-175.169.745a.941.941,0,0,1-.949-.627q-.174-.68-.354-1.35c-.13-.484.318-.939.928-.942Z" transform="translate(-1293.352 -664.144)" fill="#D8CFC7"/>
      <path id="Caminho_14212" data-name="Caminho 14212" d="M1509.838,810.624q.118.684.224,1.369c.072.461-.371.869-.944.873l-175.8,1.342a.92.92,0,0,1-.967-.7q-.1-.681-.2-1.352c-.069-.46.369-.863.941-.868l175.769-1.341A.93.93,0,0,1,1509.838,810.624Z" transform="translate(-1315.283 -767.095)" fill="#D8CFC7"/>
      <path id="Caminho_14213" data-name="Caminho 14213" d="M1375.686,471.473l-173.29.716a.975.975,0,0,1-.911-.52,86.35,86.35,0,0,0-5.67-10.722q-1.607-2.589-3.369-5.057c-.372-.523.085-1.174.828-1.172l170.429.483a1.081,1.081,0,0,1,.734.274,72.314,72.314,0,0,1,12.1,14.879C1376.858,470.867,1376.394,471.47,1375.686,471.473Z" transform="translate(-1192.315 -454.717)" fill="#D8CFC7"/>
      <path id="Caminho_14214" data-name="Caminho 14214" d="M1511.976,1282.991q-.139.682-.279,1.366a.917.917,0,0,1-.922.65l-170.755,3.438a.891.891,0,0,1-.989-.8q.017-.683.032-1.36a.878.878,0,0,1,.933-.76l171-3.443C1511.6,1282.071,1512.075,1282.508,1511.976,1282.991Z" transform="translate(-1321.333 -1182.272)" fill="#D8CFC7"/>
      <path id="Caminho_14215" data-name="Caminho 14215" d="M1526.747,1164.241q-.116.682-.235,1.365a.915.915,0,0,1-.931.67l-171.857,2.951a.894.894,0,0,1-.985-.788q0-.683.005-1.359a.875.875,0,0,1,.937-.773l172.085-2.955C1526.36,1163.341,1526.828,1163.764,1526.747,1164.241Z" transform="translate(-1333.386 -1077.864)" fill="#D8CFC7"/>
      <path id="Caminho_14216" data-name="Caminho 14216" d="M1527.524,1045.93q-.065.684-.137,1.368a.9.9,0,0,1-.939.711l-174.015,2.451a.9.9,0,0,1-.981-.77q-.016-.682-.035-1.357a.87.87,0,0,1,.94-.792l174.186-2.454A.877.877,0,0,1,1527.524,1045.93Z" transform="translate(-1332.223 -973.867)" fill="#D8CFC7"/>
      <path id="Caminho_14217" data-name="Caminho 14217" d="M1522.828,928.08q.013.684.017,1.368a.879.879,0,0,1-.947.78l-175.413,1.913a.907.907,0,0,1-.976-.742q-.047-.682-.1-1.355a.862.862,0,0,1,.942-.822l175.493-1.914A.9.9,0,0,1,1522.828,928.08Z" transform="translate(-1326.941 -870.297)" fill="#D8CFC7"/>
    </g>
    <path id="Caminho_14218" data-name="Caminho 14218" d="M1443.618,689.194c0,21.29-17.155,39.7-38.382,41.114-21.3,1.424-38.62-14.784-38.62-36.205s17.32-39.837,38.62-41.129C1426.463,651.686,1443.618,667.9,1443.618,689.194Z" transform="translate(-841.057 -272.747)" fill="#1f6022"/>
    <path id="Caminho_14219" data-name="Caminho 14219" d="M1481.388,700.5c0,21.29-17.155,39.7-38.382,41.114-21.3,1.424-38.62-14.784-38.62-36.205s17.32-39.837,38.62-41.129C1464.233,662.991,1481.388,679.21,1481.388,700.5Z" transform="translate(-874.271 -282.688)" fill="#3c7326"/>
    <path id="Caminho_14220" data-name="Caminho 14220" d="M1572.707,833.885a4.424,4.424,0,0,1-4.087-2.055l-14.514-23.306a4.973,4.973,0,0,1,1.636-6.681,4.62,4.62,0,0,1,6.555,1.228l10.066,16.178,13.281-27.049a4.973,4.973,0,0,1,6.395-2.488,4.585,4.585,0,0,1,2.079,6.3l-17.163,34.983a5.175,5.175,0,0,1-4.08,2.878C1572.818,833.876,1572.762,833.881,1572.707,833.885Z" transform="translate(-1005.328 -392.703)" fill="#fff"/>
    <path id="Caminho_14221" data-name="Caminho 14221" d="M1834.269,1181.041a8.381,8.381,0,0,1,0-6.457c1.435-3.587,1.435-9.327,2.152-11.479.173-.519.137-.83-.026-.952-.338-.251-1.887,1.811-2.843,3.821-1.7,3.565-1.227,6.28-2.152,6.457-1.035.2-2.2-3.085-2.87-2.87-.522.167,0,2.283,0,4.3,0,1.435,3.587,8.609,3.587,8.609Z" transform="translate(-1247.042 -720.545)" fill="url(#linear-gradient-2)"/>
    <path id="Caminho_14222" data-name="Caminho 14222" d="M1926.206,1319.912c.172-3.514.549-11.193-3.7-13.87-5.61-3.537-13.868,5.067-23.117,7.4-9.725,2.45-25.418-.807-50.858-28.665l-4.623,4.624c2.627,9.242,9.37,27.426,26.816,40.686,4.073,3.1,28.817,21.9,44.385,12.021C1922.742,1337.259,1925.86,1326.984,1926.206,1319.912Z" transform="translate(-1260.771 -828.392)" fill="#FF9C1A"/>
    <path id="Caminho_14223" data-name="Caminho 14223" d="M2474.935,3204.441c.716.583.848,2.037.934,2.988a2.345,2.345,0,0,1,.01.787c-.346,1.094-2.468,1.209-5.8,1.549-5.258.537-6.823.95-7.234.168-.385-.733.548-1.934.653-2.066a4.821,4.821,0,0,1,2.6-1.412c2.481-.816,4.157-1.263,4.664-1.4C2473.935,3204.21,2474.465,3204.059,2474.935,3204.441Z" transform="translate(-1804.964 -2516.302)" fill="url(#linear-gradient-3)"/>
    <path id="Caminho_14224" data-name="Caminho 14224" d="M2533.948,3166.071l-.527,5.991a3.253,3.253,0,0,0,3.345.413l1.352-5.889Z" transform="translate(-1867.102 -2482.735)" fill="url(#linear-gradient-4)"/>
    <path id="Caminho_14225" data-name="Caminho 14225" d="M2082.989,3177.509a2.96,2.96,0,0,1,.308,3.554c-.734.846-1.838.211-4.968.3-3.353.1-4.228.892-6.506.263-.92-.254-2.546-.871-2.515-1.529.022-.462.849-.7,3.614-1.626,3.923-1.315,3.906-1.387,4.74-1.524C2079.753,3176.6,2081.854,3176.256,2082.989,3177.509Z" transform="translate(-1458.978 -2492.018)" fill="url(#linear-gradient-5)"/>
    <path id="Caminho_14226" data-name="Caminho 14226" d="M2152.654,3138.6l-1.682,5.593a3.255,3.255,0,0,0,3.3.667l2.5-5.429Z" transform="translate(-1530.792 -2458.579)" fill="url(#linear-gradient-6)"/>
    <path id="Caminho_14227" data-name="Caminho 14227" d="M2168.071,2123.122a523.97,523.97,0,0,1-16.557,124.133l6.436,1.731c5.443-5.075,12.309-13.065,15.622-24.354,2.057-7.008,1.371-10.608,2.676-19.227,2.077-13.723,6.284-20.913,10.632-31.979a182.109,182.109,0,0,0,11-44.046Z" transform="translate(-1531.267 -1565.604)" fill="#20a8f9"/>
    <path id="Caminho_14228" data-name="Caminho 14228" d="M2168.071,2123.122c5.86,4.467,13.143,11.511,12.912,20-.171,6.3-4.317,7.457-7.4,16.644-3.776,11.265.825,14.4-1.849,28.666-1.99,10.621-4.435,8.329-7.4,21.268-2.638,11.521-1.467,16.685-5.548,25.891a49.715,49.715,0,0,1-7.277,11.665l6.436,1.731c5.443-5.075,12.309-13.065,15.622-24.354,2.056-7.008,1.371-10.608,2.676-19.227,2.077-13.723,6.284-20.913,10.632-31.979a182.1,182.1,0,0,0,11-44.046Z" transform="translate(-1531.267 -1565.604)" opacity="0.3" fill="url(#linear-gradient-7)" style="mix-blend-mode: multiply;isolation: isolate"/>
    <path id="Caminho_14229" data-name="Caminho 14229" d="M2484.684,2123.2q1.968,35.862,3.207,73.045.92,27.9,1.362,55.081l6.575.812a76.592,76.592,0,0,0,6.858-17.7c2.34-9.383,1.8-14.955,2.826-24.68,1.152-10.907,2.825-13.283,5.788-27.042,6.015-27.923,9.023-41.885,2.315-50.571C2511.438,2129.333,2504.611,2122.26,2484.684,2123.2Z" transform="translate(-1824.245 -1565.599)" fill="#20a8f9"/>
    <path id="Caminho_14230" data-name="Caminho 14230" d="M2397.4,1259.753c-2.46-1.595-.219-6.234-.086-16.2.162-12.212-3.081-14.487-.476-19.278,3.186-5.858,11.2-8.283,16.516-8.4,1.172-.025,1.446-.665,11.262,1.877,17.685,4.58,22.113-.33,30.032,4.575,7.652,4.739,4.3,9.928,11.731,15.485,12.044,9.008,24.709-.73,33.316,6.8,8.142,7.127,8.329,25.284-.234,35.194-9.708,11.233-27.214,7.858-38.947,5.631a71.705,71.705,0,0,1-27.92-12.669,74.351,74.351,0,0,1-15.25-15.133,5.5,5.5,0,0,0-3.4-1.994,5.948,5.948,0,0,0-3.989,1.407C2406.247,1259.618,2399.813,1261.319,2397.4,1259.753Z" transform="translate(-1746.099 -767.728)" fill="url(#linear-gradient-8)"/>
    <g id="Grupo_39769" data-name="Grupo 39769" transform="translate(629.327 477.086)">
      <g id="Grupo_39768" data-name="Grupo 39768" transform="translate(0 0)">
        <path id="Caminho_14231" data-name="Caminho 14231" d="M2257.691,1458.135s20.543-5.991,29.591,4.251c1.408,1.594,2.835,3.943,3.93,9.126,3.839,18.186-6.379,24.663-4.984,41.164.16,1.89,1.944,20.035,15.121,31.187,6.267,5.3,13.407,7.584,13.231,12.286-.126,3.385-3.987,6.47-7.561,7.561-6.838,2.087-10.828-3.676-19.846-5.671-9.425-2.084-11.609,2.764-26.461,4.725-4.944.653-27.509,3.633-33.077-5.67-2.369-3.959.552-6.447,4.726-22.681.422-1.642,7.646-30.171,5.46-42.6a59.289,59.289,0,0,1-.639-11.242,27.41,27.41,0,0,1,.639-4.947,36.4,36.4,0,0,1,8.045-15.053C2246.77,1459.569,2247.847,1458.529,2257.691,1458.135Z" transform="translate(-2226.786 -1456.394)" fill="#FF9C1A"/>
      </g>
    </g>
    <g id="Grupo_39771" data-name="Grupo 39771" transform="translate(629.431 483.078)" opacity="0.3" style="mix-blend-mode: multiply;isolation: isolate">
      <g id="Grupo_39770" data-name="Grupo 39770" transform="translate(0 0)">
        <path id="Caminho_14232" data-name="Caminho 14232" d="M2288.04,1506.067c2.071-.023,3.686,7.971,3.93,9.126,3.84,18.186-6.38,24.663-4.984,41.164.16,1.89,1.944,20.035,15.121,31.187,6.267,5.3,13.406,7.584,13.231,12.286-.126,3.385-3.986,6.47-7.56,7.56-6.838,2.087-10.828-3.676-19.846-5.67-9.425-2.084-11.609,2.764-26.462,4.725-4.944.653-27.509,3.633-33.076-5.67-.575-.961-.792-1.381-.736-1.791.622-4.522,21.513-.409,26.749-8.649,5.115-8.05-8.138-22.5-3.7-26.816,3.467-3.372,12.309,4.7,19.418.925,4.459-2.37,5.194-7.787,7.4-19.419C2281.392,1524.6,2284.9,1506.1,2288.04,1506.067Z" transform="translate(-2227.648 -1506.067)" fill="url(#linear-gradient-9)"/>
      </g>
    </g>
    <g id="Grupo_39772" data-name="Grupo 39772" transform="translate(650.039 460.501)">
      <path id="Caminho_14233" data-name="Caminho 14233" d="M2415.265,1360.376c-.278,1.3-1.695,8.275,1.159,10.069.618.389,1.807.612,4.185,1.058,1.556.292,2.862.47,3.783.58a9.545,9.545,0,0,1-1.877,4.805c-3.783,4.854-11.37,3.6-12.452,3.4-3.816-.695-7.571-1.874-8.478-2.595a19.264,19.264,0,0,1-3.109-2.757c1.477-.714,4.458-2.6,6.459-3.211a37.043,37.043,0,0,1,4.176-1.024q.314-2.021.63-4.042Z" transform="translate(-2398.476 -1355.374)" fill="url(#linear-gradient-10)"/>
      <path id="Caminho_14234" data-name="Caminho 14234" d="M2453.178,1327.393s-.516,5.111-5.485,6.012c-4.448.807-7.8-9.944-5.521-12.725a5.959,5.959,0,0,1,4.26-1.763,6.609,6.609,0,0,1,5.543,5.367c.769-.81,1.727-1.043,2.2-.7.6.43.279,1.682.206,1.965A3.6,3.6,0,0,1,2453.178,1327.393Z" transform="translate(-2436.255 -1318.915)" fill="url(#linear-gradient-11)"/>
    </g>
    <g id="Grupo_39773" data-name="Grupo 39773" transform="translate(644.882 503.087)">
      <path id="Caminho_14235" data-name="Caminho 14235" d="M2369.9,1720.786l-13.854-34.308a4.3,4.3,0,0,1,2.68-5.71l27.416-8.758a3.289,3.289,0,0,1,3.792,2.007l14.167,36.168a3.289,3.289,0,0,1-2.146,4.358l-28.1,8.152A3.289,3.289,0,0,1,2369.9,1720.786Z" transform="translate(-2355.727 -1671.928)" fill="#26264f"/>
    </g>
    <path id="Caminho_14236" data-name="Caminho 14236" d="M2384.877,1852.647s-2.774-1.849-2.774-3.7-1.849-4.623-2.774-4.623-.925.925,0,2.774-3.7.925-5.548-.925-3.7-1.849-2.774-.925a7.357,7.357,0,0,1,1.85,2.774,9.5,9.5,0,0,0,9.94,6.935Z" transform="translate(-1724.065 -1320.44)" fill="url(#linear-gradient-12)"/>
    <path id="Caminho_14237" data-name="Caminho 14237" d="M2486.972,1473.41c5.916-2.639,15.812,8.24,17.569,10.172,9.322,10.247,22.547,33.476,12.021,47.159-8.781,11.416-32.358,13.931-51.783-.925l2.774-5.548c2.018.731,15.28,5.322,24.967-1.849,2.055-1.522,5.215-3.861,5.548-7.4.621-6.59-9.393-8.62-13.87-18.494C2480.235,1487.787,2481.871,1475.685,2486.972,1473.41Z" transform="translate(-1806.741 -993.91)" fill="#FF9C1A"/>
    <path id="Caminho_14240" data-name="Caminho 14240" d="M1074.567,1910.208c.015-1.128.1-2.536.486-2.7.362-.15.849.877,1.058,1.447a9.337,9.337,0,0,1,.4,2.633,13.8,13.8,0,0,1-.191,4.2c-.1.426-.255,1.071-.486,1.084-.186.011-.347-.4-.588-1.195A17.872,17.872,0,0,1,1074.567,1910.208Z" transform="translate(-584.238 -1375.992)" fill="url(#linear-gradient-13)"/>
    <path id="Caminho_14242" data-name="Caminho 14242" d="M619.246,2071.044s.271-5.823,9.5-5.719c1.45,1.075,1.522,5.829,1.522,5.829Z" transform="translate(-183.848 -1514.778)" fill="url(#linear-gradient-14)"/>
    <path id="Caminho_14249" data-name="Caminho 14249" d="M798.16,2126.225l-7.479-54.7c-.518-2.932-2.742-5.059-5.324-5.088L656.1,2064.977a19.115,19.115,0,0,0-5.472.28,5.665,5.665,0,0,0-1.841.739s4.377-1,6.031,2.68a9.56,9.56,0,0,1,.439,1.25c12.611.63,25.151.4,37.621,1.336,24.445,1.8,48.89,2.036,71.462,12.112,7.171,3.2,12.074,14.533,10.135,19.748-1.4,3.763-6.18,3.455-7.851,8.4-1.759,5.207,2.456,8.741.689,12.4-1.853,3.834-7.491,2.023-16.649,4.789a43.781,43.781,0,0,0-11.387,5.38l54.383-1.431a4.286,4.286,0,0,0,2.58-.929A5.789,5.789,0,0,0,798.16,2126.225Z" transform="translate(-209.821 -1514.415)" opacity="0.1" fill="url(#linear-gradient-15)" style="mix-blend-mode: multiply;isolation: isolate"/>
  </g>
</svg>
