<svg xmlns="http://www.w3.org/2000/svg" width="745.833" height="559.374" viewBox="0 0 745.833 559.374">
    <g id="Group_14583" data-name="Group 14583" transform="translate(-430.5 -103.5)">
        <g id="Group_14582" data-name="Group 14582" transform="translate(-6061.5 -1962.813)">
            <path id="Exclusion_1" data-name="Exclusion 1"
                  d="M735.833,558.875H10a9.51,9.51,0,0,1-9.5-9.5V10A9.51,9.51,0,0,1,10,.5H735.833a9.511,9.511,0,0,1,9.5,9.5V549.375A9.511,9.511,0,0,1,735.833,558.875ZM371.93,87.806a154.108,154.108,0,0,0-19.166,1.162,128.994,128.994,0,0,0-17.1,3.313,109.08,109.08,0,0,0-28.491,12.038,105.413,105.413,0,0,0-21.684,17.523,121.655,121.655,0,0,0-15.845,20.93A168.561,168.561,0,0,0,251.6,186.54a269.462,269.462,0,0,0-6.314,32.454l-.1.7c-1.158,8.106-1.487,19.506-.9,31.279.318,6.382.89,12.582,1.7,18.429a139.4,139.4,0,0,0,3.441,17.356c1.55,5.683,2.83,10.031,4.068,14.235l0,.012c3.494,11.866,7.106,24.136,17.377,67.94a188.661,188.661,0,0,0,11.451,34.541,139.3,139.3,0,0,0,6.835,13.223,123.026,123.026,0,0,0,7.276,10.981,120.163,120.163,0,0,0,14.981,16.6c4.94,4.572,9.785,8.379,14.06,11.737l.006,0c1.271,1,2.472,1.942,3.644,2.88A66.028,66.028,0,0,0,341,466.526a62.042,62.042,0,0,0,11.407,4.311,74.391,74.391,0,0,0,19.523,2.358h2.136a74.39,74.39,0,0,0,19.523-2.358A62.039,62.039,0,0,0,405,466.526a66.017,66.017,0,0,0,11.877-7.61c1.166-.933,2.36-1.871,3.624-2.865l.026-.02c4.275-3.359,9.12-7.165,14.06-11.737a120.17,120.17,0,0,0,14.981-16.6,123.059,123.059,0,0,0,7.276-10.981,139.292,139.292,0,0,0,6.835-13.223,188.657,188.657,0,0,0,11.451-34.54c10.271-43.805,13.884-56.075,17.378-67.94l0-.005c1.238-4.206,2.519-8.555,4.07-14.241a139.378,139.378,0,0,0,3.441-17.356c.811-5.847,1.383-12.047,1.7-18.429.586-11.773.257-23.174-.9-31.279l-.1-.7a269.473,269.473,0,0,0-6.313-32.453,168.562,168.562,0,0,0-18.046-43.768,121.654,121.654,0,0,0-15.845-20.931,105.417,105.417,0,0,0-21.684-17.524,109.079,109.079,0,0,0-28.492-12.039,129,129,0,0,0-17.1-3.313,154.107,154.107,0,0,0-19.167-1.162Z"
                  transform="translate(6492 2066.313)" fill="#00A443" stroke="#707070" stroke-width="1"/>
            <path id="Path_13346" data-name="Path 13346"
                  d="M-1443.93-2374.444h-2.14c-108.852,0-122.848,104.588-126.748,131.888-2.207,15.443-1.609,45.615,4.241,67.065s7.471,22.573,21.449,82.187c13.62,58.088,40.892,76.08,58.253,89.969,15.941,12.752,31.881,14.279,42.807,14.279h2.136c10.926,0,26.866-1.527,42.807-14.279,17.361-13.889,44.633-31.881,58.253-89.969,13.978-59.614,15.6-60.737,21.449-82.187s6.447-51.622,4.241-67.065C-1321.082-2269.856-1335.078-2374.444-1443.93-2374.444Z"
                  transform="translate(8310 4528.563)" fill="none" stroke="#fff" stroke-miterlimit="10"
                  stroke-width="4"/>
        </g>
    </g>
</svg>
