<svg xmlns="http://www.w3.org/2000/svg" xmlns:xlink="http://www.w3.org/1999/xlink" width="272.832" height="274.207" viewBox="0 0 272.832 274.207">
  <defs>
    <linearGradient id="linear-gradient" x1="0.411" y1="-0.455" x2="0.526" y2="0.301" gradientUnits="objectBoundingBox">
      <stop offset="0" stop-color="#ebeff2"/>
      <stop offset="1" stop-color="#fff"/>
    </linearGradient>
    <linearGradient id="linear-gradient-2" x1="31.064" y1="0.253" x2="30.24" y2="1.578" gradientUnits="objectBoundingBox">
      <stop offset="0" stop-color="#febbba"/>
      <stop offset="1" stop-color="#ff928e"/>
    </linearGradient>
    <linearGradient id="linear-gradient-3" y1="0.5" x2="1" y2="0.5" gradientUnits="objectBoundingBox">
      <stop offset="0" stop-color="#09005d"/>
      <stop offset="1" stop-color="#1a0f91"/>
    </linearGradient>
    <linearGradient id="linear-gradient-4" x1="-80.186" y1="5.841" x2="-78.962" y2="4.065" xlink:href="#linear-gradient-2"/>
    <linearGradient id="linear-gradient-5" x1="-21.963" y1="13.782" x2="-21" y2="13.782" xlink:href="#linear-gradient-3"/>
    <linearGradient id="linear-gradient-6" x1="-60.44" y1="9.527" x2="-59.428" y2="7.649" xlink:href="#linear-gradient-2"/>
    <linearGradient id="linear-gradient-7" x1="4.023" y1="0.836" x2="3.222" y2="0.171" gradientUnits="objectBoundingBox">
      <stop offset="0" stop-color="#444b8c"/>
      <stop offset="0.996" stop-color="#26264f"/>
    </linearGradient>
    <linearGradient id="linear-gradient-8" x1="-6.17" y1="-0.046" x2="-4.982" y2="1.189" xlink:href="#linear-gradient-3"/>
    <linearGradient id="linear-gradient-9" x1="1.183" y1="1.207" x2="1.684" y2="0.075" gradientUnits="objectBoundingBox">
      <stop offset="0" stop-color="#aa80f9"/>
      <stop offset="0.996" stop-color="#6165d7"/>
    </linearGradient>
    <linearGradient id="linear-gradient-10" x1="12.327" y1="-2.427" x2="12.378" y2="-4.189" xlink:href="#linear-gradient-2"/>
    <linearGradient id="linear-gradient-11" x1="23.971" y1="-5.192" x2="23.928" y2="-2.021" xlink:href="#linear-gradient-2"/>
    <linearGradient id="linear-gradient-12" x1="8.649" y1="0.341" x2="8.356" y2="2.669" xlink:href="#linear-gradient-2"/>
    <linearGradient id="linear-gradient-13" x1="0.963" y1="0.557" x2="17.578" y2="2.461" gradientUnits="objectBoundingBox">
      <stop offset="0.1" stop-color="#311944"/>
      <stop offset="0.267" stop-color="#361b47"/>
      <stop offset="0.48" stop-color="#462050"/>
      <stop offset="0.719" stop-color="#602a5f"/>
      <stop offset="0.974" stop-color="#843773"/>
      <stop offset="1" stop-color="#893976"/>
    </linearGradient>
    <linearGradient id="linear-gradient-14" x1="0.862" y1="7.196" x2="-0.865" y2="-22.66" gradientUnits="objectBoundingBox">
      <stop offset="0.1" stop-color="#311944"/>
      <stop offset="0.685" stop-color="#6d2e66"/>
      <stop offset="1" stop-color="#893976"/>
    </linearGradient>
    <linearGradient id="linear-gradient-15" x1="0.637" y1="3.156" x2="0.467" y2="-0.19" gradientUnits="objectBoundingBox">
      <stop offset="0" stop-color="#311944"/>
      <stop offset="1" stop-color="#893976"/>
    </linearGradient>
  </defs>
  <g id="Group_40970" data-name="Group 40970" transform="translate(1095.781 -5910.468)">
    <g id="Group_40969" data-name="Group 40969" transform="translate(-1095.781 5910.468)">
      <path id="Path_14194" data-name="Path 14194" d="M678.365,874.9c-18.033,40.654-106.767,36.291-129.607,35.168-12.318-.606-118.869-5.038-133.032-52.332-9.352-31.227,25.347-68.5,5.791-96.271-3.632-5.157-11.29-13.045-11.34-24.845,0,0-.049-11.638,10.027-23.6C450.062,677.584,671.818,672,676.17,709.175c1,8.519-10.662,9.113-19.366,25.781C631.879,782.693,696.07,834.988,678.365,874.9Z" transform="translate(-410.177 -651.645)" fill="#00A443"/>
      <path id="Path_14195" data-name="Path 14195" d="M1667.764,2402.011a11.861,11.861,0,0,1-8.012-8.8l-6.326-28.83-49.967,2.607-5.652,30.238c-.792,4.235,2.728,8.411,6.727,9.9l21.054,7.836a27.2,27.2,0,0,0,12.259,1.57l44.143-4.517a2.743,2.743,0,0,0,2.439-2.471c.129-1.306,1.01-2.784-.229-3.172Z" transform="translate(-1485.883 -2174.032)" fill="#97a6b7"/>
      <path id="Path_14196" data-name="Path 14196" d="M1684.246,2387.815a11.758,11.758,0,0,1-8-8.686l-6.314-28.466-48.749,2.566-5.652,29.859a8.708,8.708,0,0,0,5.55,9.792l21.031,7.733a27.459,27.459,0,0,0,12.246,1.548l44.1-4.469a2.725,2.725,0,0,0,.531-5.314Z" transform="translate(-1501.9 -2161.604)" fill="#D8CFC7"/>
      <path id="Path_14197" data-name="Path 14197" d="M912.486,788.136l-2.158-129.707a5.114,5.114,0,0,0-4.962-4.951l-222.988-5.25c-3.393-.08-6.137,2.309-6.087,5.31l2.385,143.346Z" transform="translate(-651.234 -619.463)" fill="#232323"/>
      <path id="Path_14198" data-name="Path 14198" d="M753.025,915.3l1.863,111.974c.047,2.795,2.667,4.965,5.814,4.823l211.388-9.533a4.731,4.731,0,0,0,4.506-4.739l-1.662-99.867Z" transform="translate(-720.744 -861.392)" fill="#D8CFC7"/>
      <path id="Path_14199" data-name="Path 14199" d="M972.872,747.548l-.191-11.461a4.685,4.685,0,0,0-4.567-4.532l-211.831-4.376c-3.086-.064-5.581,2.124-5.536,4.862l.214,12.85Z" transform="translate(-718.681 -690.98)" fill="#3c7326"/>
      <g id="Group_39766" data-name="Group 39766" transform="translate(43.683 43.158)">
        <path id="Path_14200" data-name="Path 14200" d="M878.049,802.885a1.792,1.792,0,0,1-1.932,1.713,1.939,1.939,0,0,1-2-1.776,1.792,1.792,0,0,1,1.937-1.713A1.939,1.939,0,0,1,878.049,802.885Z" transform="translate(-874.121 -801.108)" fill="#00A443"/>
        <path id="Path_14201" data-name="Path 14201" d="M968.273,804.441a1.775,1.775,0,0,1-1.909,1.7,1.921,1.921,0,0,1-1.973-1.766,1.775,1.775,0,0,1,1.915-1.7A1.921,1.921,0,0,1,968.273,804.441Z" transform="translate(-955.891 -802.528)" fill="#00A443"/>
        <path id="Path_14202" data-name="Path 14202" d="M1057.446,805.979a1.758,1.758,0,0,1-1.887,1.693,1.9,1.9,0,0,1-1.95-1.755,1.759,1.759,0,0,1,1.892-1.693A1.9,1.9,0,0,1,1057.446,805.979Z" transform="translate(-1036.709 -803.93)" fill="#00A443"/>
      </g>
      <path id="Path_14203" data-name="Path 14203" d="M701.628,2134.9l.476,28.628c.05,3,2.872,5.292,6.26,5.092L931.047,2155.5a5.128,5.128,0,0,0,4.794-5.123l-.417-25.048Z" transform="translate(-674.186 -1957.482)" fill="#D8CFC7"/>
      <path id="Path_14204" data-name="Path 14204" d="M933.572,362.287c8.726,14.055,16.537,29.224,8.809,71.337-7.569,41.247-7.2,61.11-.018,78.243l159.08-7.174c-4.7-8.764-5.506-14.485-6.143-23.984-2.347-35.027,18.6-69.327,6.063-105.945a66.088,66.088,0,0,0-21.963-30.949l-164.463-1.077A65.759,65.759,0,0,1,933.572,362.287Z" transform="translate(-867.411 -342.738)" fill="url(#linear-gradient)"/>
      <g id="Group_39767" data-name="Group 39767" transform="translate(73.643 10.544)">
        <path id="Path_14205" data-name="Path 14205" d="M1416.42,1760.35q.009.528.024,1.056a.675.675,0,0,1-.716.62l-132.7,4.1a.685.685,0,0,1-.781-.654q.05-.528.1-1.065a.7.7,0,0,1,.716-.563l132.572-4.1A.7.7,0,0,1,1416.42,1760.35Z" transform="translate(-1273.781 -1636.87)" fill="#D8CFC7"/>
        <path id="Path_14206" data-name="Path 14206" d="M1422.888,1640.882q-.046.53-.087,1.06a.692.692,0,0,1-.718.567l-132.365,3.744a.687.687,0,0,1-.778-.646q.041-.528.081-1.064a.694.694,0,0,1,.719-.571l132.371-3.744A.686.686,0,0,1,1422.888,1640.882Z" transform="translate(-1279.841 -1528.605)" fill="#D8CFC7"/>
        <path id="Path_14207" data-name="Path 14207" d="M1431.352,1879.538q.079.526.164,1.05c.058.354-.268.67-.708.685l-132.3,4.47a.687.687,0,0,1-.783-.658q.051-.527.1-1.065a.7.7,0,0,1,.714-.559L1430.575,1879A.722.722,0,0,1,1431.352,1879.538Z" transform="translate(-1287.796 -1744.894)" fill="#D8CFC7"/>
        <path id="Path_14208" data-name="Path 14208" d="M1431.932,1521.346q-.085.533-.167,1.066a.7.7,0,0,1-.715.53l-132.9,3.405a.689.689,0,0,1-.776-.638q.031-.528.062-1.062a.692.692,0,0,1,.722-.579l133.01-3.408C1431.626,1520.647,1431.991,1520.974,1431.932,1521.346Z" transform="translate(-1287.476 -1420.293)" fill="#D8CFC7"/>
        <path id="Path_14209" data-name="Path 14209" d="M1456.557,1998.238q.158.523.323,1.043c.119.374-.212.74-.688.758l-132.6,4.88a.693.693,0,0,1-.787-.636q.029-.528.064-1.07a.69.69,0,0,1,.713-.575l132.214-4.865A.746.746,0,0,1,1456.557,1998.238Z" transform="translate(-1310.515 -1852.483)" fill="#D8CFC7"/>
        <path id="Path_14210" data-name="Path 14210" d="M1453.812,1401.932q-.106.533-.212,1.067a.712.712,0,0,1-.716.51l-132.847,3.049a.692.692,0,0,1-.774-.63q.022-.528.043-1.061a.689.689,0,0,1,.725-.588l133.016-3.053C1453.52,1401.215,1453.888,1401.555,1453.812,1401.932Z" transform="translate(-1307.31 -1312.106)" fill="#D8CFC7"/>
        <path id="Path_14211" data-name="Path 14211" d="M1444.574,692.875a.753.753,0,0,1,.727.437q.194.532.38,1.069l0,.008c.131.384-.228.761-.718.763l-136.718.581a.734.734,0,0,1-.74-.489q-.135-.531-.276-1.053c-.1-.378.248-.733.725-.735Z" transform="translate(-1296.394 -670.451)" fill="#D8CFC7"/>
        <path id="Path_14212" data-name="Path 14212" d="M1470.835,810.476q.092.534.175,1.068c.056.36-.289.678-.737.682l-137.208,1.047a.718.718,0,0,1-.755-.544q-.075-.532-.153-1.055c-.054-.359.288-.674.734-.677l137.187-1.047A.726.726,0,0,1,1470.835,810.476Z" transform="translate(-1318.986 -776.501)" fill="#D8CFC7"/>
        <path id="Path_14213" data-name="Path 14213" d="M1335.435,467.8l-135.251.559a.761.761,0,0,1-.711-.406,67.413,67.413,0,0,0-4.425-8.369q-1.255-2.021-2.629-3.947c-.291-.408.066-.916.646-.915l133.018.377a.843.843,0,0,1,.573.214,56.44,56.44,0,0,1,9.447,11.613C1336.349,467.322,1335.987,467.793,1335.435,467.8Z" transform="translate(-1192.315 -454.717)" fill="#D8CFC7"/>
        <path id="Path_14214" data-name="Path 14214" d="M1474.014,1282.792q-.108.533-.218,1.067a.716.716,0,0,1-.719.508L1339.8,1287.05a.7.7,0,0,1-.772-.625q.013-.533.025-1.061a.686.686,0,0,1,.729-.593l133.464-2.688C1473.723,1282.073,1474.091,1282.415,1474.014,1282.792Z" transform="translate(-1325.218 -1204.181)" fill="#D8CFC7"/>
        <path id="Path_14215" data-name="Path 14215" d="M1488.551,1164.046q-.09.532-.183,1.065a.714.714,0,0,1-.727.523l-134.133,2.3a.7.7,0,0,1-.769-.615q0-.533,0-1.061a.683.683,0,0,1,.731-.6l134.312-2.306C1488.249,1163.344,1488.614,1163.674,1488.551,1164.046Z" transform="translate(-1337.634 -1096.629)" fill="#D8CFC7"/>
        <path id="Path_14216" data-name="Path 14216" d="M1488.867,1045.745q-.051.534-.107,1.068a.7.7,0,0,1-.733.555l-135.818,1.913a.7.7,0,0,1-.766-.6q-.013-.533-.027-1.059a.679.679,0,0,1,.734-.618l135.951-1.915A.684.684,0,0,1,1488.867,1045.745Z" transform="translate(-1336.436 -989.501)" fill="#D8CFC7"/>
        <path id="Path_14217" data-name="Path 14217" d="M1483.884,927.911q.01.534.013,1.068a.686.686,0,0,1-.739.609l-136.908,1.493a.708.708,0,0,1-.762-.579q-.037-.532-.076-1.057a.672.672,0,0,1,.735-.641l136.971-1.494A.7.7,0,0,1,1483.884,927.911Z" transform="translate(-1330.995 -882.812)" fill="#D8CFC7"/>
      </g>
      <path id="Path_14218" data-name="Path 14218" d="M1426.715,681.228a32.561,32.561,0,0,1-29.957,32.089,27.913,27.913,0,0,1-30.143-28.258,32.546,32.546,0,0,1,30.143-32.1A27.917,27.917,0,0,1,1426.715,681.228Z" transform="translate(-1276.561 -623.698)" fill="#b72210"/>
      <path id="Path_14219" data-name="Path 14219" d="M1464.485,692.533a32.561,32.561,0,0,1-29.957,32.089,27.913,27.913,0,0,1-30.143-28.258,32.546,32.546,0,0,1,30.143-32.1A27.917,27.917,0,0,1,1464.485,692.533Z" transform="translate(-1310.775 -633.939)" fill="#D60E00"/>
      <path id="Path_14221" data-name="Path 14221" d="M1832.958,1176.89a6.541,6.541,0,0,1,0-5.04c1.12-2.8,1.12-7.28,1.68-8.959.135-.405.107-.648-.021-.743-.264-.2-1.473,1.413-2.219,2.983-1.323,2.783-.957,4.9-1.68,5.04-.808.155-1.714-2.408-2.24-2.24-.407.13,0,1.782,0,3.359,0,1.12,2.8,6.72,2.8,6.72Z" transform="translate(-1694.772 -1084.981)" fill="url(#linear-gradient-2)"/>
      <path id="Path_14222" data-name="Path 14222" d="M1908.142,1312.2c.134-2.742.428-8.736-2.887-10.825-4.378-2.76-10.823,3.955-18.043,5.773-7.59,1.912-19.839-.629-39.694-22.373l-3.609,3.609c2.05,7.214,7.313,21.405,20.93,31.755,3.179,2.416,22.492,17.1,34.642,9.382C1905.438,1325.738,1907.871,1317.718,1908.142,1312.2Z" transform="translate(-1708.914 -1196.075)" fill="#FF9C1A"/>
      <path id="Path_14223" data-name="Path 14223" d="M2472.262,3204.4c.559.455.662,1.59.729,2.332a1.834,1.834,0,0,1,.008.614c-.27.854-1.926.944-4.523,1.209-4.1.419-5.325.742-5.646.131-.3-.572.427-1.509.51-1.612a3.764,3.764,0,0,1,2.029-1.1c1.936-.637,3.244-.985,3.64-1.091C2471.482,3204.217,2471.9,3204.1,2472.262,3204.4Z" transform="translate(-2269.494 -2934.814)" fill="url(#linear-gradient-3)"/>
      <path id="Path_14224" data-name="Path 14224" d="M2533.832,3166.071l-.411,4.676a2.539,2.539,0,0,0,2.611.323l1.056-4.6Z" transform="translate(-2333.504 -2900.236)" fill="url(#linear-gradient-4)"/>
      <path id="Path_14225" data-name="Path 14225" d="M2079.986,3177.315a2.31,2.31,0,0,1,.24,2.774c-.573.66-1.434.165-3.877.238-2.617.078-3.3.7-5.078.206-.719-.2-1.987-.68-1.963-1.193.017-.361.663-.547,2.82-1.27a28.031,28.031,0,0,1,3.7-1.19C2077.46,3176.609,2079.1,3176.337,2079.986,3177.315Z" transform="translate(-1913.09 -2909.799)" fill="url(#linear-gradient-5)"/>
      <path id="Path_14226" data-name="Path 14226" d="M2152.285,3138.6l-1.312,4.365a2.539,2.539,0,0,0,2.578.521l1.949-4.238Z" transform="translate(-1987.066 -2875.353)" fill="url(#linear-gradient-6)"/>
      <path id="Path_14227" data-name="Path 14227" d="M2164.436,2123.122a408.95,408.95,0,0,1-12.923,96.885l5.023,1.351a42.6,42.6,0,0,0,12.193-19.009c1.605-5.469,1.07-8.28,2.088-15.007,1.621-10.711,4.9-16.323,8.3-24.96a142.136,142.136,0,0,0,8.587-34.378Z" transform="translate(-1987.556 -1955.488)" fill="#20a8f9"/>
      <path id="Path_14228" data-name="Path 14228" d="M2164.436,2123.122c4.573,3.487,10.258,8.984,10.078,15.609-.133,4.916-3.37,5.82-5.774,12.991-2.948,8.792.644,11.236-1.443,22.373-1.554,8.289-3.462,6.5-5.774,16.6-2.059,8.992-1.145,13.022-4.33,20.208a38.8,38.8,0,0,1-5.679,9.1l5.023,1.351a42.6,42.6,0,0,0,12.193-19.009c1.6-5.469,1.07-8.28,2.088-15.007,1.621-10.711,4.9-16.323,8.3-24.96a142.125,142.125,0,0,0,8.587-34.378Z" transform="translate(-1987.556 -1955.488)" opacity="0.3" fill="url(#linear-gradient-7)" style="mix-blend-mode: multiply;isolation: isolate"/>
      <path id="Path_14229" data-name="Path 14229" d="M2484.684,2123.183q1.536,27.99,2.5,57.011.718,21.773,1.063,42.99l5.132.634a59.78,59.78,0,0,0,5.353-13.811c1.826-7.323,1.4-11.673,2.205-19.263.9-8.513,2.2-10.367,4.518-21.106,4.695-21.794,7.042-32.691,1.807-39.47C2505.565,2127.968,2500.237,2122.448,2484.684,2123.183Z" transform="translate(-2289.356 -1955.483)" fill="#20a8f9"/>
      <path id="Path_14230" data-name="Path 14230" d="M2397.05,1250.1c-1.92-1.245-.171-4.866-.067-12.643.126-9.531-2.405-11.307-.372-15.047,2.486-4.572,8.745-6.465,12.891-6.554.915-.019,1.128-.519,8.79,1.465,13.8,3.575,17.259-.257,23.44,3.57,5.972,3.7,3.357,7.749,9.156,12.086,9.4,7.031,19.285-.57,26,5.311,6.355,5.562,6.5,19.734-.183,27.469-7.577,8.767-21.24,6.133-30.4,4.395a55.967,55.967,0,0,1-21.792-9.888,58.027,58.027,0,0,1-11.9-11.812,4.3,4.3,0,0,0-2.655-1.557,4.642,4.642,0,0,0-3.113,1.1C2403.958,1250,2398.936,1251.325,2397.05,1250.1Z" transform="translate(-2208.857 -1133.585)" fill="url(#linear-gradient-8)"/>
      <g id="Group_39769" data-name="Group 39769" transform="translate(171.045 104.858)">
        <g id="Group_39768" data-name="Group 39768" transform="translate(0 0)">
          <path id="Path_14231" data-name="Path 14231" d="M2250.907,1457.753s16.034-4.676,23.1,3.318c1.1,1.245,2.213,3.077,3.067,7.123,3,14.194-4.979,19.25-3.89,32.128.125,1.475,1.517,15.637,11.8,24.341,4.891,4.139,10.464,5.919,10.326,9.589-.1,2.642-3.112,5.049-5.9,5.9-5.337,1.629-8.451-2.869-15.49-4.426-7.356-1.627-9.061,2.157-20.653,3.688-3.858.51-21.471,2.836-25.816-4.426-1.849-3.09.431-5.032,3.688-17.7.33-1.281,5.968-23.548,4.262-33.252a46.307,46.307,0,0,1-.5-8.775,21.423,21.423,0,0,1,.5-3.861,28.411,28.411,0,0,1,6.279-11.749C2242.383,1458.872,2243.224,1458.061,2250.907,1457.753Z" transform="translate(-2226.786 -1456.394)" fill="#FF9C1A"/>
        </g>
      </g>
      <g id="Group_39771" data-name="Group 39771" transform="translate(171.126 109.535)" opacity="0.3" style="mix-blend-mode: multiply;isolation: isolate">
        <g id="Group_39770" data-name="Group 39770" transform="translate(0 0)">
          <path id="Path_14232" data-name="Path 14232" d="M2274.783,1506.067c1.616-.018,2.877,6.221,3.067,7.123,3,14.194-4.979,19.25-3.89,32.128.125,1.475,1.517,15.637,11.8,24.341,4.891,4.139,10.464,5.919,10.327,9.589-.1,2.642-3.111,5.049-5.9,5.9-5.337,1.629-8.451-2.869-15.49-4.426-7.356-1.627-9.061,2.157-20.653,3.688-3.858.51-21.47,2.836-25.816-4.426-.449-.75-.618-1.078-.574-1.4.485-3.529,16.791-.319,20.877-6.751,3.993-6.283-6.352-17.56-2.886-20.93,2.706-2.631,9.607,3.672,15.156.722,3.48-1.85,4.054-6.078,5.773-15.156C2269.595,1520.533,2272.33,1506.094,2274.783,1506.067Z" transform="translate(-2227.648 -1506.067)" fill="url(#linear-gradient-9)"/>
        </g>
      </g>
      <g id="Group_39772" data-name="Group 39772" transform="translate(187.211 91.913)">
        <path id="Path_14233" data-name="Path 14233" d="M2411.579,1360.376c-.217,1.015-1.323,6.458.9,7.859a11.8,11.8,0,0,0,3.266.826c1.215.228,2.234.367,2.953.453a7.449,7.449,0,0,1-1.465,3.75c-2.953,3.789-8.875,2.808-9.719,2.655-2.978-.542-5.909-1.463-6.617-2.025a15.042,15.042,0,0,1-2.427-2.152,42.136,42.136,0,0,1,5.042-2.506,28.88,28.88,0,0,1,3.259-.8q.245-1.578.492-3.155Z" transform="translate(-2398.476 -1356.472)" fill="url(#linear-gradient-10)"/>
        <path id="Path_14234" data-name="Path 14234" d="M2450.6,1325.532s-.4,3.989-4.281,4.692c-3.472.629-6.086-7.761-4.309-9.932a4.651,4.651,0,0,1,3.325-1.376,5.159,5.159,0,0,1,4.326,4.189c.6-.633,1.348-.814,1.717-.549.468.336.218,1.313.16,1.533A2.812,2.812,0,0,1,2450.6,1325.532Z" transform="translate(-2437.393 -1318.915)" fill="url(#linear-gradient-11)"/>
      </g>
      <g id="Group_39773" data-name="Group 39773" transform="translate(183.186 125.152)">
        <path id="Path_14235" data-name="Path 14235" d="M2366.786,1710.061l-10.813-26.777a3.358,3.358,0,0,1,2.092-4.456l21.4-6.835a2.567,2.567,0,0,1,2.96,1.567l11.057,28.229a2.567,2.567,0,0,1-1.675,3.4l-21.929,6.363A2.567,2.567,0,0,1,2366.786,1710.061Z" transform="translate(-2355.727 -1671.928)" fill="#26264f"/>
      </g>
      <path id="Path_14236" data-name="Path 14236" d="M2381.778,1850.82s-2.166-1.443-2.166-2.887-1.443-3.609-2.165-3.609-.722.722,0,2.165-2.887.722-4.33-.722-2.887-1.444-2.165-.722a5.744,5.744,0,0,1,1.444,2.165,7.416,7.416,0,0,0,7.758,5.413Z" transform="translate(-2186.159 -1702.941)" fill="url(#linear-gradient-12)"/>
      <path id="Path_14237" data-name="Path 14237" d="M2482.1,1473.32c4.617-2.06,12.341,6.432,13.712,7.939,7.275,8,17.6,26.128,9.382,36.807-6.854,8.91-25.255,10.873-40.416-.722l2.165-4.33c1.575.571,11.926,4.154,19.486-1.443,1.6-1.188,4.07-3.013,4.33-5.774.485-5.144-7.331-6.728-10.825-14.434C2476.842,1484.541,2478.119,1475.1,2482.1,1473.32Z" transform="translate(-2271.325 -1366.578)" fill="#FF9C1A"/>
      <path id="Path_14240" data-name="Path 14240" d="M1074.566,1909.613c.012-.88.079-1.979.38-2.1.283-.117.663.685.826,1.13a7.283,7.283,0,0,1,.312,2.055,10.769,10.769,0,0,1-.149,3.281c-.078.332-.2.836-.379.846-.145.008-.271-.312-.459-.932A13.951,13.951,0,0,1,1074.566,1909.613Z" transform="translate(-1012.008 -1760.166)" fill="url(#linear-gradient-13)"/>
      <path id="Path_14242" data-name="Path 14242" d="M619.246,2069.788s.212-4.545,7.414-4.464c1.131.839,1.188,4.549,1.188,4.549Z" transform="translate(-599.561 -1903.132)" fill="url(#linear-gradient-14)"/>
      <path id="Path_14249" data-name="Path 14249" d="M765.371,2112.766l-5.838-42.694a4.511,4.511,0,0,0-4.155-3.971l-100.887-1.139a14.923,14.923,0,0,0-4.271.219,4.427,4.427,0,0,0-1.437.576s3.416-.781,4.707,2.092a7.446,7.446,0,0,1,.343.976c9.843.491,19.631.309,29.363,1.043,19.079,1.406,38.159,1.589,55.776,9.453,5.6,2.5,9.423,11.343,7.91,15.413-1.092,2.937-4.823,2.7-6.127,6.558-1.373,4.064,1.917,6.822.538,9.675-1.446,2.993-5.847,1.579-12.995,3.738a34.171,34.171,0,0,0-8.887,4.2l42.446-1.117a3.344,3.344,0,0,0,2.013-.725A4.518,4.518,0,0,0,765.371,2112.766Z" transform="translate(-626.317 -1902.757)" opacity="0.1" fill="url(#linear-gradient-15)" style="mix-blend-mode: multiply;isolation: isolate"/>
    </g>
    <path id="Path_14578" data-name="Path 14578" d="M4.293,0C6.664,0,9.669.254,9.631,4.586L8.585,27.707a4.293,4.293,0,1,1-8.585,0V4.293A4.293,4.293,0,0,1,4.293,0Z" transform="matrix(0.998, 0.07, -0.07, 0.998, -976.192, 5948.921)" fill="#fff"/>
    <circle id="Ellipse_4" data-name="Ellipse 4" cx="4.293" cy="4.293" r="4.293" transform="translate(-978.878 5985.03)" fill="#fff"/>
  </g>
</svg>
