<svg id="ic-sunglasses" xmlns="http://www.w3.org/2000/svg" width="32" height="32" viewBox="0 0 32 32">
    <rect id="Retângulo_634" data-name="Retângulo 634" width="32" height="32" fill="none"/>
    <g id="icon-sunglasses" transform="translate(2.655 7.964)">
        <g id="Grupo_1" data-name="Grupo 1">
            <path id="Caminho_1058" data-name="Caminho 1058"
                  d="M17.912,104.648a1.817,1.817,0,0,0-2.844,1.505v.944h1.549v-.944a.268.268,0,0,1,.42-.222l6.559,4.513-8.527.891v.633a3.346,3.346,0,0,0-3.59,0v-.629l-8.527-.891,6.559-4.513a.268.268,0,0,1,.42.222v.944h1.549v-.944a1.817,1.817,0,0,0-2.844-1.505L0,110.589v3.7a5.751,5.751,0,0,0,5.738,5.763h.044a5.792,5.792,0,0,0,5.68-5.39,1.817,1.817,0,0,1,3.622,0,5.792,5.792,0,0,0,5.679,5.388h.044a5.751,5.751,0,0,0,5.739-5.763v-3.7ZM9.929,114.23a4.242,4.242,0,0,1-4.158,4.27H5.739a4.2,4.2,0,0,1-4.19-4.207v-2.431l8.38.875v1.493ZM25,114.293a4.2,4.2,0,0,1-4.19,4.207h-.032a4.242,4.242,0,0,1-4.158-4.27v-1.493l8.38-.875Z"
                  transform="translate(0 -104.328)" fill="#00A443"/>
        </g>
    </g>
</svg>
