<svg xmlns="http://www.w3.org/2000/svg" xmlns:xlink="http://www.w3.org/1999/xlink" width="477.181" height="376.032" viewBox="0 0 477.181 376.032">
  <defs>
    <linearGradient id="linear-gradient" y1="0.5" x2="1" y2="0.5" gradientUnits="objectBoundingBox">
      <stop offset="0" stop-color="#fcb9b9"/>
      <stop offset="1" stop-color="#fd908c"/>
    </linearGradient>
    <linearGradient id="linear-gradient-3" y1="0.5" x2="1" y2="0.5" gradientUnits="objectBoundingBox">
      <stop offset="0" stop-color="#09005d"/>
      <stop offset="1" stop-color="#1a108f"/>
    </linearGradient>
  </defs>
  <g id="Grupo_40321" data-name="Grupo 40321" transform="translate(-85 -680.554)">
    <path id="Caminho_14270" data-name="Caminho 14270" d="M541.591,1055.635c-30.1,0-437.043-1-437.043-1.052-.168-.448-51.66-72.093,13.179-147,32.127-37.115-29.5-85.2,0-126.485,50.537-70.721,100.541-30.892,142.2-50.782,7.36-3.511,14.746-9.162,22.139-17.834a85.7,85.7,0,0,1,13.606-12.823q1.123-.85,2.269-1.658a87.857,87.857,0,0,1,9.078-5.593q3.146-1.684,6.411-3.116h0a96.353,96.353,0,0,1,10.625-3.928,107.643,107.643,0,0,1,15.847-3.529q3.535-.522,7.126-.825c46.546-3.972,98.928,18.372,125.96,51.029,5.442,6.576,30.19,40.6,10.682,87.372-12.317,29.529,39.282,57.731,57.618,91.45C587.905,996.591,542.014,1054.518,541.591,1055.635Z" transform="translate(0)" fill="#00A443"/>
    <g id="Grupo_40320" data-name="Grupo 40320" transform="translate(104.534 739.35)">
      <path id="Caminho_14271" data-name="Caminho 14271" d="M1640.165,1394.806c-.459,1.888-1.288,4.871-1.288,4.871.066.82.308,4.234.6,8.417l-6.15-2.461s.073-6.817-.2-7.234c-.232-.353-.622.088-2.507-2.61a5.266,5.266,0,0,1-.646-2.17s-.112-1.712.272-1.872a.8.8,0,0,1,.965.392c.139.3.1.985.243,1.281a2.129,2.129,0,0,0,1.4.634c.374-.018-.047-5.065-.047-5.065s-.209-1.431-.315-1.9c-.09-.4-.454-1.57-.454-1.57s-.427-1.7.1-1.828c.311-.076,1.1,1.3,1.646,2.768a29.506,29.506,0,0,0,1.083,3.227c.393-.052.185-2.819.185-2.819a8.862,8.862,0,0,1-.382-1.865c-.369-.733-.615-2.092.036-2.2a11.269,11.269,0,0,1,.978,1.706s.337,1.216.534,1.784a33.325,33.325,0,0,1,.579,3.283c.151.581.286.342.348.366a14.557,14.557,0,0,0-.132-1.883,11.11,11.11,0,0,0-.14-1.826,13.329,13.329,0,0,1-.263-1.927c-.105-1.431.8-1.285,1.107.024.119.5.244,1.042.368,1.594.484,2.145.47,4.212.7,4.229.3.022.1-3.741.1-3.741s.461-2.083.918-.15a16.855,16.855,0,0,1,.469,4.153A16.268,16.268,0,0,1,1640.165,1394.806Z" transform="translate(-1257.557 -1263.446)" fill="url(#linear-gradient)"/>
      <path id="Caminho_14272" data-name="Caminho 14272" d="M1638.572,1231.266a2.832,2.832,0,1,0,2.7-2.954A2.832,2.832,0,0,0,1638.572,1231.266Z" transform="translate(-1263.986 -1148.148)" fill="#3c7326"/>
      <g id="Grupo_40319" data-name="Grupo 40319">
        <g id="Grupo_40318" data-name="Grupo 40318" transform="translate(91.516 208.715)">
          <path id="Caminho_14273" data-name="Caminho 14273" d="M534.111,1735.058c-.211.088,2.794,3.961,5.722,6.7,2.361,2.962,4.575,6.469,5.337,10.293,1.159,5.814.195,34.536,1.2,36.581,8.663,8.469,14.936,29.725,16.7,36.21a6.94,6.94,0,0,0,2,3.289h0l-.386,7.328-4.3,3.965s.957-5.972-.956-10.4c0,0-21.812-33.032-23.106-35.557-2.474-7.19-11.482-44.031-11.482-44.031l-2.091-8.468S534.093,1735.065,534.111,1735.058Z" transform="translate(-522.748 -1735.058)" fill="url(#linear-gradient)"/>
          <path id="Caminho_14274" data-name="Caminho 14274" d="M670.5,2103.947s-2.724,4.2-2.957,5.834-1.684,5.348-3.289,5.582c-.365.053-6.606.512-6.561-.268.035-.6,2.294-1.447,3.343-2.172,1.814-1.252,4.628-11.453,4.628-11.453S670.381,2102.639,670.5,2103.947Z" transform="translate(-623.459 -2008.516)" fill="url(#linear-gradient-3)"/>
        </g>
        <path id="Caminho_14275" data-name="Caminho 14275" d="M435.409,1768.338s-14.049,30.038-14.138,35.32c-.077,4.527,2.455,29.926,1.749,51.078-.025.764-.993,1.779-2.4,2.424-.792.363-4.618,2.072-4.618,2.072l-.526,1.368,13.176-.938.188-3.6s5.244-31.642,4.709-40.591c-.084-1.406-.767-9.822-.767-9.822l15.844-30.591-9.965-13.094Z" transform="translate(-351.172 -1546.426)" fill="url(#linear-gradient)"/>
        <path id="Caminho_14276" data-name="Caminho 14276" d="M458.218,1502.775c6.671,9.691,14.544,3.389,14.188,3.458a27.18,27.18,0,0,1,3.12.359c4.679.583,9.385-2.151,11.854-6.4,7.092.215,12.549-5.667,11.291-11.748,3.615-3.441,3.524-9.907,1.162-14.43.222-6.733-8.014-9.244-14.1-7.882a12.2,12.2,0,0,0-7.627,5.688c-5.547-1.061-10.873,2.372-12.912,8.044C456.194,1480.915,451.41,1492.886,458.218,1502.775Z" transform="translate(-380.67 -1325.37)" fill="url(#linear-gradient-3)"/>
        <path id="Caminho_14277" data-name="Caminho 14277" d="M486.039,1368.239a13.152,13.152,0,0,0-1.265-2.317l-.548-.8a3.6,3.6,0,0,1-.148-.342,12.784,12.784,0,0,1-.056-2.99l4.806,1.163,1.054,2.773c1.07-.494,2.9-4.214,3.564-3.32.788,1.055-2.181,5.627-2.415,6.865s2.553,20.457,3.358,24.274,6.244,14.473,6.244,14.473l-4.974,6.311s-7.974-16.245-8.5-21.2c-.055-.522-.117-1.3-.184-2.27Z" transform="translate(-402.279 -1247.767)" fill="url(#linear-gradient)"/>
        <path id="Caminho_14278" data-name="Caminho 14278" d="M622.762,1607.233l5.907-5.007s4.782,7.973,8.613,14.475c3.8-1.373,13.62-7.775,14.1-8.069s1.562-7.53,2.394-7.146-.639,3.818.37,4.075,8.57-4.8,8.725-4.12c.29,1.263-4.514,3.275-4.271,3.838s4.829-2.579,5.56-1.794-4.608,2.556-4.636,3.068,5.233-.973,5.095.13c-.075.6-4.708,1.2-4.417,1.84s3.9.742,3.751,1.424-3.012-.508-4.759.257-3.387.389-5.825,2.444-14.415,13.781-18.148,12.775C631.964,1624.543,622.762,1607.233,622.762,1607.233Z" transform="translate(-505.874 -1426.576)" fill="url(#linear-gradient)"/>
        <path id="Caminho_14279" data-name="Caminho 14279" d="M620.975,1929.315c0,.005,0,0-.005,0Z" transform="translate(-504.536 -1671.319)" fill="#f9c38a"/>
        <path id="Caminho_14280" data-name="Caminho 14280" d="M528.491,1552.741c-.378-2.31-3.952-8.089-4.516-9.506,0,0,4.143-5.266,7.507-4.867,0,0,4.52,7.494,7.09,7.745s11.609.644,13.194,1.605S560.075,1559,560.075,1559s-6.042,6.17-8.473,6.157a25.519,25.519,0,0,0-1.807-3.1c-.366,1.182-6,19.421-5.987,23.552l-.043.035a11.822,11.822,0,0,1-17-2.185h0a93.888,93.888,0,0,0,.207-10.929C526.548,1564.32,524.885,1559.954,528.491,1552.741Z" transform="translate(-432.147 -1379.534)" fill="#3c7326"/>
        <path id="Caminho_14281" data-name="Caminho 14281" d="M426.278,1756.028l27.574-39.837a27.06,27.06,0,0,0,5.126,1.639,53.145,53.145,0,0,0,11.916.51,2.87,2.87,0,0,0,.024.391c.46,3.284,4.816,8.369,5.714,18.335,1.019,11.313.4,30.963.058,32.253C458.358,1767.091,431.48,1761.486,426.278,1756.028Z" transform="translate(-359.235 -1512.262)" fill="#1f6022"/>
        <path id="Caminho_14282" data-name="Caminho 14282" d="M580.99,1487.893a7.172,7.172,0,0,0-2.955-3.96c-5.949-2.639-8.453,2.842-9.6,7.17-.7,2.623-.081,5.687,1.756,7.321a25.365,25.365,0,0,1-.483,3.681c-.437,1.588-4,8.285.177,8.178s5.253-5.323,5.1-6.931a17.6,17.6,0,0,1,.557-4.156C580.9,1497.378,581.769,1490.561,580.99,1487.893Z" transform="translate(-464.907 -1338.41)" fill="url(#linear-gradient)"/>
        <path id="Caminho_14283" data-name="Caminho 14283" d="M510.563,1360.4l1.708,2.111,1.126-.84a.559.559,0,0,0-.038-.469C513.228,1360.912,510.6,1359.621,510.563,1360.4Z" transform="translate(-422.138 -1246.547)" fill="#f9c38a"/>
        <path id="Caminho_14284" data-name="Caminho 14284" d="M416.727,2139.152H400.082c-.616-.055-.766-.552-.552-.858.439-.631,2.381-1.093,4.564-2.1,3.829.4,12.165-2.218,12.769-3.095C417.211,2134.858,417.069,2139.077,416.727,2139.152Z" transform="translate(-339.204 -1823.409)" fill="url(#linear-gradient-3)"/>
        <path id="Caminho_14285" data-name="Caminho 14285" d="M406.746,1091.1l5.192-39.335a17.63,17.63,0,0,1-2.394-.473,8.284,8.284,0,0,1-4.078-3.705,48.489,48.489,0,0,1-5.382-12.5c-.621-2-11.391-20.928-11.735-26.116-.182-2.739-.155-5.492-.171-8.24-.007-1.236.11-2.474.172-3.71.042-.826-.387-1.307-1.337-1.554a9.31,9.31,0,0,0-6.2.692c-3.425,1.485-5.274,4.279-6.31,7.711a22.747,22.747,0,0,0,.617,14.636c1.121,3.126,1.986,6.349,2.836,9.563a7.042,7.042,0,0,1-.185,4.472c-.224.561-.527.69-1.162.6-4.966-.716-9.933-1.446-14.916-2.017-2.933-.336-5.9-.407-8.851-.561a5.451,5.451,0,0,0-3.6,1.2,15.633,15.633,0,0,0-5.236,6.278,3.319,3.319,0,0,0,.126,3.2c.558.934,1.064,1.9,1.585,2.855a2.456,2.456,0,0,1-.138,2.78c-.826,1.146-1.7,2.258-2.566,3.375-1.4,1.806-1.427,2.7-.177,4.575.631.948,1.238,1.913,1.841,2.879a2.848,2.848,0,0,1,.124,3.019c-.6,1.136-1.147,2.31-1.838,3.39a4.248,4.248,0,0,0,.373,5.323c.753.988,1.5,1.981,2.269,2.956a4.185,4.185,0,0,1,.96,3.6c-.149.718-.155,1.468-.321,2.181a4.57,4.57,0,0,0,.711,3.542,20.012,20.012,0,0,0,4.6,5.213,11.146,11.146,0,0,0,4.776,2c2.57.562,5.156,1.085,7.759,1.455,2.883.41,5.791.65,8.692.926,2.293.218,4.59.385,6.887.564a78.8,78.8,0,0,0,11.571.087c4.574-.315,9.159-.5,13.738-.737C405.566,1091.18,406.141,1091.135,406.746,1091.1Z" transform="translate(-296.29 -974.175)" fill="#fff"/>
        <path id="Caminho_14286" data-name="Caminho 14286" d="M590.479,1229.281q1.148-8.7,2.3-17.405a12.437,12.437,0,0,0,.123-3.048c-.108-.847-.318-1.3-.631-1.344-1.036-.145-4.438,1-4.766,3.4-.138,1.011-.268,2.024-.4,3.036q-2.121,16.072-4.24,32.144c-.08.607-.142,1.24-.167,1.824-.068,1.54,2.694,2.847,3.691,3.069.641.143,1.4-1.146,1.794-4.2C588.931,1240.932,589.71,1235.107,590.479,1229.281Z" transform="translate(-475.968 -1132.597)" fill="#3c7326"/>
        <path id="Caminho_14287" data-name="Caminho 14287" d="M616.291,1226.858q1.251-9.478,2.5-18.956a4.762,4.762,0,0,0-.559-3.411,3.726,3.726,0,0,0-2.693-1.728q-5.615-.754-11.233-1.486c-2.436-.32-4.278,1.169-4.662,3.781-.162,1.1-.294,2.2-.439,3.307q-2.311,17.5-4.61,35.009a7.28,7.28,0,0,0,0,2.01,3.769,3.769,0,0,0,3.247,3.212c3.643.488,7.3.893,10.927,1.471,2.334.372,4.615-.84,5.025-4.171C614.577,1239.544,615.454,1233.2,616.291,1226.858Z" transform="translate(-484.8 -1127.942)" fill="#3d6042"/>
        <path id="Caminho_14288" data-name="Caminho 14288" d="M627.831,1221.715a2.373,2.373,0,1,0,2.663-2.042A2.373,2.373,0,0,0,627.831,1221.715Z" transform="translate(-509.641 -1141.688)" fill="#3c7326"/>
        <path id="Caminho_14289" data-name="Caminho 14289" d="M505.544,1364.345a1.653,1.653,0,0,0-.84.589c-.557.6-1.045,1.81-1.133,1.721a48.79,48.79,0,0,1-5.32,2.684,4.953,4.953,0,0,1-.268.605l3.112,1.807.264-.4a8.12,8.12,0,0,1,1.508-1.668,6.59,6.59,0,0,0,1.482-1.595c.115-.286.454-1.045.635-1.451s.41-.874.481-1.1a2.29,2.29,0,0,1,.4-.56A.38.38,0,0,0,505.544,1364.345Z" transform="translate(-412.749 -1249.672)" fill="url(#linear-gradient)"/>
        <path id="Caminho_14290" data-name="Caminho 14290" d="M1623.7,2084.583s2.005,1.957,2.051,2.675.177,8.411-.641,9.128-3.223,1.227-2.45,2.035c.584.61,5.079.48,8.058.316.87-.048,1.96-6.986,2.3-8.006.5-1.481,1.717-4.817,1.262-5.849a8.672,8.672,0,0,0-2.776-2.5,13.649,13.649,0,0,1-3.074-3.274Z" transform="translate(-1251.997 -1783.112)" fill="url(#linear-gradient)"/>
        <path id="Caminho_14291" data-name="Caminho 14291" d="M1504.3,2118.337s1.795,5.069,1.8,5.082c.133.8.659,2.787.659,3.517,0,2.743-12.37-2.328-9.6-3.544a2.93,2.93,0,0,0,1.121-1.922,6.421,6.421,0,0,0-1.042-3.242Z" transform="translate(-1158.146 -1812.309)" fill="url(#linear-gradient)"/>
        <path id="Caminho_14292" data-name="Caminho 14292" d="M1440.208,1746.56s-.9,9.087-.9,9.223c0,14.7-2.914,43.415-2.36,46.179,1.352,6.741,15.9,41.129,15.9,41.129l7.864-.94-10.248-41.173,3.771-16.572,5.336-32.758Z" transform="translate(-1113.459 -1534.927)" fill="#00a7f8"/>
        <path id="Caminho_14293" data-name="Caminho 14293" d="M1501.909,1758.413l1.492,8.613,4.037,35.448,15.375,34.645s-2.163,5.041-5.353,5.749l-24.471-35.57-15.2-45.515.534-10.112Z" transform="translate(-1143.993 -1538.742)" fill="#2991f9"/>
        <path id="Caminho_14294" data-name="Caminho 14294" d="M1629.036,2091.822s-4.622,13.012-6.431,13.641c-.48.167-2.785.59-3.22,1.609a4.411,4.411,0,0,0,0,1.333h9.633s1.218-5.733,1.7-8.253c0,0,2.55-6.155,2.267-6.714S1629.036,2091.822,1629.036,2091.822Z" transform="translate(-1249.626 -1792.601)" fill="url(#linear-gradient-3)"/>
        <path id="Caminho_14295" data-name="Caminho 14295" d="M1484.6,2142.958l-1.417-4.475s-2.975,1.259-4.462,1.049a45.067,45.067,0,0,1-4.391-1.049c-5.937,1.954-10.8,2.9-9.916,4.475H1484.6Z" transform="translate(-1133.933 -1827.425)" fill="url(#linear-gradient-3)"/>
        <path id="Caminho_14296" data-name="Caminho 14296" d="M1412.256,1414.41c.46,1.888,1.288,4.872,1.288,4.872-.066.82-.308,4.234-.6,8.417l6.149-2.461s-.073-6.817.2-7.234c.232-.353.622.088,2.507-2.61a5.267,5.267,0,0,0,.646-2.17s.112-1.712-.272-1.871a.8.8,0,0,0-.965.392c-.139.3-.1.985-.242,1.281a2.13,2.13,0,0,1-1.4.634c-.374-.018.047-5.065.047-5.065s.209-1.431.315-1.9c.09-.4.454-1.57.454-1.57s.427-1.7-.1-1.828c-.311-.076-1.1,1.3-1.646,2.768a29.7,29.7,0,0,1-1.083,3.227c-.393-.053-.185-2.82-.185-2.82a8.864,8.864,0,0,0,.382-1.865c.369-.733.615-2.092-.036-2.205a11.274,11.274,0,0,0-.978,1.706s-.337,1.216-.533,1.784c-.347,1-.4,2.585-.58,3.283-.15.581-.286.342-.348.366a14.7,14.7,0,0,1,.132-1.883,11.058,11.058,0,0,1,.14-1.826,13.356,13.356,0,0,0,.263-1.927c.105-1.431-.8-1.285-1.107.024-.119.5-.244,1.042-.368,1.594-.484,2.145-.47,4.212-.7,4.229-.3.022-.1-3.741-.1-3.741s-.461-2.083-.918-.15a16.862,16.862,0,0,0-.468,4.153A16.261,16.261,0,0,0,1412.256,1414.41Z" transform="translate(-1094.917 -1278.077)" fill="url(#linear-gradient)"/>
        <path id="Caminho_14297" data-name="Caminho 14297" d="M1495.136,1513.716s3.13-3.3,5.647.714a2.5,2.5,0,0,1,3.3.851s3.5-1.055,4.355,4.185c0,0,1.8-.34,2.041,1.8a5.3,5.3,0,0,1-.851,3.572s1.013.76.553,2.73a2.437,2.437,0,0,1-1.778,1.931s-.374,2.824-1.6,3.674a3.994,3.994,0,0,1-2.891.442,1.887,1.887,0,0,1-1.871,1.395c-1.429-.136-3.2-1.5-4.8-.884s-5.749-.034-5.749-.034-4.661-2.075-3.266-6.838a3.483,3.483,0,0,1-.306-4.865s-1.565-4.15,1.531-6.6S1495.136,1513.716,1495.136,1513.716Z" transform="translate(-1150.901 -1360.2)" fill="url(#linear-gradient-3)"/>
        <path id="Caminho_14298" data-name="Caminho 14298" d="M1455.421,1616.757l7.983,1.1s6.4.156,7.191.156,5.805,29.119,7.257,40.077.327,12.9.327,12.9-10.121,2.276-17.609,1.613c-7.786-.69-16.546-4.894-16.546-4.894s6.656-21.059,7.975-27.634S1455.421,1616.757,1455.421,1616.757Z" transform="translate(-1118.793 -1438.053)" fill="#3c7326"/>
        <path id="Caminho_14299" data-name="Caminho 14299" d="M1412.189,1474.329s-.512,21.711.306,23.371c1.191,2.415,14.595,19.544,14.595,19.544s-6.4,26.8-9.1,36.049c-.271.932-1.471,6.951-1.471,7.538,0,1.3,5.665,2.953,6.337,2.855.6-.088,5.544-25.576,8.7-38.049a35.679,35.679,0,0,1,5.412-11.785l2.194-3.118-16.84-16.878s-2.075-18.787-2.075-20.344C1420.252,1473.1,1413.006,1472.8,1412.189,1474.329Z" transform="translate(-1094.917 -1330.9)" fill="#1f6022"/>
        <path id="Caminho_14300" data-name="Caminho 14300" d="M1529.693,1492.833l21-21.4s2.926-20.233,3.134-20.995,5.419-1.153,7.521-1.358c.675-.066-.353,21.55-1.358,25.173-1.187,4.281-17.06,23.783-17.06,23.783s-2.845,10.563-2.16,18.312c1.139,12.869,4.206,30.572,3.656,31.127-3.412,2.149-16.51,2.38-17.339,1.044C1517.931,1533.781,1529.693,1492.833,1529.693,1492.833Z" transform="translate(-1178.181 -1312.917)" fill="#1f6022"/>
        <path id="Caminho_14301" data-name="Caminho 14301" d="M1567.516,1542.51c0,1.622-.923,2.937-2.061,2.937s-2.06-1.315-2.06-2.937.922-2.937,2.06-2.937S1567.516,1540.888,1567.516,1542.51Z" transform="translate(-1207.883 -1380.45)" fill="url(#linear-gradient-3)"/>
        <path id="Caminho_14302" data-name="Caminho 14302" d="M1540.522,1521.3c0,.932-1.122,1.688-2.507,1.688s-2.507-.756-2.507-1.688,1.122-1.688,2.507-1.688S1540.522,1520.367,1540.522,1521.3Z" transform="translate(-1187.07 -1365.552)" fill="url(#linear-gradient-3)"/>
        <path id="Caminho_14303" data-name="Caminho 14303" d="M1507.536,1534.684a5.617,5.617,0,0,0-7.351,4.477,42.456,42.456,0,0,0-.456,5.392c-.089,4.91,2.452,9.688,4.682,9.688a3.239,3.239,0,0,0,.489-.042l-.337,2.5s-1.269,6.055.364,7.223,6.944-7.4,6.944-7.4l-.378-7.182a10.619,10.619,0,0,0,1.532-5.25C1513.162,1539.79,1511.013,1535.881,1507.536,1534.684Z" transform="translate(-1160.366 -1376.574)" fill="url(#linear-gradient)"/>
        <path id="Caminho_14304" data-name="Caminho 14304" d="M1485.3,1521.537c-2.3,1.824-3.11,4.6-1.8,6.191s4.234,1.409,6.536-.415,3.109-4.6,1.8-6.191S1487.6,1519.713,1485.3,1521.537Z" transform="translate(-1147.784 -1365.87)" fill="url(#linear-gradient-3)"/>
        <path id="Caminho_14305" data-name="Caminho 14305" d="M1516.172,1527.622c0,.793.957,1.435,2.138,1.435s2.137-.643,2.137-1.435-.957-1.436-2.137-1.436S1516.172,1526.829,1516.172,1527.622Z" transform="translate(-1172.639 -1370.459)" fill="url(#linear-gradient-3)"/>
        <path id="Caminho_14306" data-name="Caminho 14306" d="M1491.094,1550.463a1.825,1.825,0,1,0,1.825-1.846A1.836,1.836,0,0,0,1491.094,1550.463Z" transform="translate(-1153.923 -1387.199)" fill="url(#linear-gradient-3)"/>
        <path id="Caminho_14307" data-name="Caminho 14307" d="M1383.206,1098.6c-.7-15.831-1.4-31.543-2.094-47.307a21.044,21.044,0,0,1-2.911-.057c-2.336-.363-4.018-1.866-5.564-3.5-3.771-4-6.434-8.733-8.929-13.57-1.146-2.221-17.746-22.221-19.232-28.246-.784-3.18-1.327-6.422-1.918-9.647-.266-1.452-.385-2.93-.57-4.4-.123-.979-.727-1.455-1.9-1.547a11.109,11.109,0,0,0-7.141,2.1c-3.716,2.459-5.307,6.128-5.808,10.376a27.148,27.148,0,0,0,3.775,17.071c1.968,3.44,3.657,7.048,5.325,10.648a8.4,8.4,0,0,1,.714,5.294c-.147.706-.475.921-1.241.946-5.985.194-11.974.37-17.949.737-3.517.216-7.016.75-10.518,1.184a6.508,6.508,0,0,0-3.978,2.154,18.66,18.66,0,0,0-4.845,8.469,3.961,3.961,0,0,0,.815,3.731c.85.982,1.646,2.01,2.458,3.025a2.932,2.932,0,0,1,.417,3.3c-.732,1.519-1.529,3.007-2.312,4.5-1.265,2.412-1.116,3.466.745,5.413.939.982,1.853,1.99,2.764,3a3.4,3.4,0,0,1,.775,3.522c-.471,1.46-.866,2.953-1.454,4.366-1.033,2.485-.319,4.458,1.547,6.177,1.091,1,2.175,2.016,3.282,3a4.994,4.994,0,0,1,1.88,4.035c-.026.875.124,1.757.077,2.63a5.453,5.453,0,0,0,1.574,4.014,23.874,23.874,0,0,0,6.5,5.167,13.3,13.3,0,0,0,6.028,1.353c3.138.125,6.285.2,9.421.093,3.473-.119,6.941-.443,10.407-.723,2.74-.221,5.475-.5,8.211-.771a94.03,94.03,0,0,0,13.616-2.309c5.31-1.324,10.659-2.49,15.991-3.728C1381.836,1098.942,1382.5,1098.77,1383.206,1098.6Z" transform="translate(-1010.022 -970.512)" fill="#fff"/>
        <path id="Caminho_14308" data-name="Caminho 14308" d="M1613.64,1243.692q-.463-10.466-.928-20.932a14.836,14.836,0,0,0-.49-3.608c-.3-.973-.644-1.461-1.022-1.448-1.247.046-5.007,2.1-4.892,4.994.049,1.217.107,2.434.161,3.652q.855,19.329,1.715,38.657c.032.729.092,1.487.183,2.178.241,1.824,3.759,2.784,4.976,2.838.783.035,1.4-1.638,1.232-5.311C1614.247,1257.707,1613.95,1250.7,1613.64,1243.692Z" transform="translate(-1239.907 -1140.234)" fill="#3c7326"/>
        <path id="Caminho_14309" data-name="Caminho 14309" d="M1644.786,1233.688q-.5-11.4-1.012-22.8a5.684,5.684,0,0,0-1.367-3.892,4.446,4.446,0,0,0-3.524-1.47q-6.756.283-13.51.594c-2.929.131-4.783,2.265-4.691,5.414.039,1.326.114,2.651.173,3.978q.931,21.051,1.877,42.1a8.681,8.681,0,0,0,.418,2.363,4.5,4.5,0,0,0,4.485,3.1c4.383-.185,8.763-.471,13.148-.548,2.819-.049,5.248-1.949,5.036-5.948C1645.416,1248.953,1645.125,1241.319,1644.786,1233.688Z" transform="translate(-1250.634 -1131.143)" fill="#3d6042"/>
        <path id="Caminho_14310" data-name="Caminho 14310" d="M1432.673,1431.438a1.655,1.655,0,0,0-.841.589c-.557.6-1.045,1.81-1.132,1.721,0,0-1.107.642-2.417,1.326a13.366,13.366,0,0,1-5.051,1.494,2.637,2.637,0,0,0-.665.151l5.657,2.126.263-.4a8.112,8.112,0,0,1,1.509-1.668,6.591,6.591,0,0,0,1.482-1.6c.115-.286.454-1.045.635-1.451s.411-.874.481-1.1a2.263,2.263,0,0,1,.4-.56A.38.38,0,0,0,1432.673,1431.438Z" transform="translate(-1102.781 -1299.745)" fill="url(#linear-gradient)"/>
        <path id="Caminho_14311" data-name="Caminho 14311" d="M1616.76,1408.86a1.653,1.653,0,0,1,.841.589c.557.6,1.045,1.809,1.132,1.721,0,0,7.749,3.508,7.86,3.725l-5.385,1.372c-.106-.162-.2-.3-.263-.4a8.113,8.113,0,0,0-1.508-1.669,6.582,6.582,0,0,1-1.482-1.595c-.115-.286-.454-1.046-.635-1.451s-.411-.874-.48-1.1a2.279,2.279,0,0,0-.4-.56A.38.38,0,0,1,1616.76,1408.86Z" transform="translate(-1247.397 -1282.895)" fill="url(#linear-gradient)"/>
        <path id="Caminho_14312" data-name="Caminho 14312" d="M1106.406,1460.579c-.56,2.064-1.558,5.322-1.558,5.322.048.9.216,4.667.413,9.278l-6.694-2.885s.331-7.3.041-7.763a9.958,9.958,0,0,1-2.736-3.146,5.8,5.8,0,0,1-.648-2.406s-.074-1.887.354-2.051a.879.879,0,0,1,1.05.459c.145.329.085,1.086.23,1.416a2.342,2.342,0,0,0,1.525.738c.412-.009.095-5.573.095-5.573s-.189-1.58-.292-2.1c-.088-.442-.454-1.74-.454-1.74s-.42-1.88.164-2.008c.344-.075,1.176,1.466,1.731,3.092.6,1.752.914,3.6,1.1,3.582.434-.047.284-3.1.284-3.1a9.752,9.752,0,0,1-.366-2.063c-.385-.817-.616-2.32.1-2.425a12.423,12.423,0,0,1,1.026,1.905s.336,1.347.535,1.978c.352,1.113.364,2.855.543,3.628.149.643.305.385.372.413a15.969,15.969,0,0,0-.091-2.075,12.206,12.206,0,0,0-.1-2.012,14.676,14.676,0,0,1-.234-2.128c-.075-1.578.912-1.39,1.217.058.116.552.238,1.154.359,1.764.471,2.374.4,4.647.65,4.673.33.033.221-4.113.221-4.113s.568-2.278,1.015-.138a18.559,18.559,0,0,1,.4,4.582A17.913,17.913,0,0,1,1106.406,1460.579Z" transform="translate(-858.475 -1311.519)" fill="url(#linear-gradient)"/>
        <path id="Caminho_14313" data-name="Caminho 14313" d="M1041.584,1531.12s-7.575-2.024-7.664-1.414c-1.953,13.368-2.8,18.2-3.074,18.331-.937.451-12.889-11.068-15.053-11.885a9.1,9.1,0,0,0-3.263-.356c-2.6.008-3.112,0-3.112,0l-.1,0-.05,2.443c2.857,2.71,5.664,55.039,6.229,55.027.631-.013,12.507-.077,11.942-1.067,0,0-2.87-16.115-5.129-26.739-.759-3.567-2.876-11.022-2.876-11.022,2.9,1.552,14.246,7.509,16.087,6.81C1041.25,1559.081,1041.584,1531.12,1041.584,1531.12Z" transform="translate(-794.331 -1373)" fill="#1f6022"/>
        <path id="Caminho_14314" data-name="Caminho 14314" d="M1069.222,2105.444s-.377,6.79-.379,6.8c-.139.862-.685,2.992-.685,3.776,0,2.944,12.86-2.5,9.977-3.8-.261-.118-1.628-1.011-1.713-2.013-.132-1.544-.467-4.667-.467-4.667Z" transform="translate(-838.28 -1802.768)" fill="url(#linear-gradient)"/>
        <path id="Caminho_14315" data-name="Caminho 14315" d="M1076.973,2131.686a45.5,45.5,0,0,1-4.565,1.125c-1.546.225-3.585-1.67-4.678-1.158-1.2.564-1.083,6.114-1.083,6.114s16.116.967,20.668-.527C1089.119,2136.648,1083.145,2133.783,1076.973,2131.686Z" transform="translate(-837.149 -1822.262)" fill="url(#linear-gradient-3)"/>
        <path id="Caminho_14316" data-name="Caminho 14316" d="M957.545,2108.013s-.377,6.789-.38,6.8c-.139.862-.685,2.992-.685,3.775,0,2.944,12.859-2.5,9.977-3.8-.261-.118-2.032-1.678-2.118-2.68-.132-1.544-.062-4-.062-4Z" transform="translate(-754.933 -1804.685)" fill="url(#linear-gradient)"/>
        <path id="Caminho_14317" data-name="Caminho 14317" d="M964.807,2134.253a45.7,45.7,0,0,1-4.565,1.126c-1.546.225-3.585-1.671-4.679-1.159-1.2.564-1.252,5.637-1.252,5.637s17.229,1.272,21.28.078C977.411,2139.4,970.979,2136.351,964.807,2134.253Z" transform="translate(-753.314 -1824.178)" fill="url(#linear-gradient-3)"/>
        <path id="Caminho_14318" data-name="Caminho 14318" d="M991.661,1721.665l5.436,2.389,11.436,55.629-.464,41.7-9.167.217s-4.264-36.48-4.264-39.307-19.75-49.474-19.75-49.474Z" transform="translate(-768.671 -1516.348)" fill="#2991f9"/>
        <path id="Caminho_14319" data-name="Caminho 14319" d="M961.646,1728.248s-4.005,42.861-4.005,50.086-3.247,47.661-3.247,47.661l-9.19-.054s-.663-12.325-1.648-30.457c-.154-2.84.2-8.57,0-11.51-1.429-21.145-4.257-41.051-2.906-48.941.217-1.27.626-4.591,1.421-5.429C948.089,1723.261,961.646,1728.248,961.646,1728.248Z" transform="translate(-742.852 -1519.87)" fill="#00a7f8"/>
        <path id="Caminho_14320" data-name="Caminho 14320" d="M853.945,1342.319c.451,2.09,1.277,5.4,1.277,5.4-.1.9-.461,4.649-.9,9.243l6.836-2.53s.116-7.5.43-7.953c.265-.381.682.115,2.833-2.8a5.794,5.794,0,0,0,.773-2.368s.173-1.881-.246-2.067a.879.879,0,0,0-1.073.4c-.162.322-.142,1.081-.3,1.4a2.345,2.345,0,0,1-1.562.657c-.411-.031.2-5.571.2-5.571s.271-1.568.4-2.08c.111-.437.544-1.714.544-1.714s.518-1.856-.058-2.014c-.34-.093-1.251,1.4-1.891,3-.689,1.719-1.1,3.549-1.285,3.519-.431-.069-.122-3.107-.122-3.107a9.76,9.76,0,0,0,.473-2.041c.428-.8.737-2.284.024-2.427a12.4,12.4,0,0,0-1.125,1.849s-.406,1.328-.638,1.947c-.41,1.093-.513,2.833-.732,3.6-.182.634-.325.368-.394.393a16.053,16.053,0,0,1,.2-2.068,12.224,12.224,0,0,1,.207-2,14.7,14.7,0,0,0,.345-2.112c.157-1.572-.838-1.436-1.219-.006-.145.545-.3,1.14-.451,1.743-.594,2.346-.639,4.62-.894,4.633-.331.016,0-4.119,0-4.119s-.447-2.305-1.006-.191a18.54,18.54,0,0,0-.635,4.555A17.873,17.873,0,0,0,853.945,1342.319Z" transform="translate(-678.266 -1223.494)" fill="url(#linear-gradient)"/>
        <path id="Caminho_14321" data-name="Caminho 14321" d="M990.877,1581.294a163.2,163.2,0,0,0-5.611-19.314,33.645,33.645,0,0,0-4.126-7.8l-8.87.262s-.205.057-.267.067c-.725.114-.747,25.943-.356,35.6a211.843,211.843,0,0,0,2.534,22.225l2.531-.24c.042,1.3.07,2.161.07,2.161,12.833,2.263,20-4.063,20-4.063S992.566,1589.6,990.877,1581.294Z" transform="translate(-766.063 -1391.351)" fill="#3c7326"/>
        <path id="Caminho_14322" data-name="Caminho 14322" d="M874.009,1446.6s-8.771-.64-11.009-1.724c-1.357-.658-12.4-10.045-12.4-10.045l.765-24.34-7.919-.812s-4.821,26.8-3.473,29.782c1.392,3.08,17.58,16.035,20.74,21.555,1.821,3.18.093,46.356.684,46.755,4.216,2.336,21.933,4.4,21.658,3.047C875.439,1473.3,874.009,1446.6,874.009,1446.6Z" transform="translate(-667.802 -1283.505)" fill="#1f6022"/>
        <path id="Caminho_14323" data-name="Caminho 14323" d="M840.381,1049.207l26.12-48.868a24.608,24.608,0,0,1-2.9-1.8c-2.135-1.759-2.931-4.276-3.509-6.847-1.411-6.272-1.266-12.63-.892-18.987.172-2.919-4.6-32.957-2.5-39.908,1.108-3.669,2.5-7.256,3.826-10.855.6-1.62,1.36-3.179,2.049-4.766.46-1.059.136-1.9-.984-2.689a13,13,0,0,0-8.443-2.142c-5.207.258-9,3-12.038,6.979a31.768,31.768,0,0,0-6.386,19.436c-.071,4.637-.524,9.276-.993,13.9a9.834,9.834,0,0,1-2.439,5.755c-.569.623-1.028.643-1.813.211-6.14-3.377-12.273-6.772-18.508-9.968-3.669-1.881-7.51-3.432-11.294-5.084a7.615,7.615,0,0,0-5.289-.205,21.83,21.83,0,0,0-9.93,5.634,4.636,4.636,0,0,0-1.406,4.242c.27,1.5.457,3.006.669,4.511a3.431,3.431,0,0,1-1.546,3.566c-1.643,1.093-3.334,2.115-5.014,3.152-2.713,1.673-3.191,2.823-2.479,5.893.359,1.55.678,3.109.992,4.669a3.978,3.978,0,0,1-1.322,4.008c-1.346,1.189-2.635,2.456-4.069,3.528-2.523,1.885-2.981,4.3-2.129,7.141.5,1.662.986,3.327,1.513,4.98a5.844,5.844,0,0,1-.516,5.183c-.548.866-.924,1.843-1.492,2.693a6.381,6.381,0,0,0-.811,4.979,27.939,27.939,0,0,0,3.457,9.078,15.566,15.566,0,0,0,5.261,4.958c3.084,2,6.207,3.952,9.428,5.716,3.567,1.953,7.251,3.7,10.907,5.482,2.89,1.412,5.811,2.76,8.725,4.123a109.991,109.991,0,0,0,15.083,5.8c6.135,1.836,12.215,3.853,18.321,5.789C838.8,1048.737,839.57,1048.961,840.381,1049.207Z" transform="translate(-613.28 -912.324)" fill="#fff"/>
        <path id="Caminho_14324" data-name="Caminho 14324" d="M1060.016,1272.976q5.779-10.812,11.556-21.624a17.384,17.384,0,0,0,1.659-3.924c.275-1.161.223-1.856-.165-2.067-1.283-.7-6.3-.87-7.9,2.108-.677,1.254-1.345,2.514-2.017,3.772q-10.672,19.967-21.341,39.936c-.4.754-.795,1.552-1.115,2.3-.845,1.98,2.123,5.046,3.316,5.826.767.5,2.391-.811,4.41-4.611Q1054.19,1283.822,1060.016,1272.976Z" transform="translate(-817.668 -1160.556)" fill="#3c7326"/>
        <path id="Caminho_14325" data-name="Caminho 14325" d="M1089.9,1281.958q6.294-11.775,12.584-23.552a6.649,6.649,0,0,0,.946-4.734,5.2,5.2,0,0,0-2.67-3.583q-6.969-3.745-13.954-7.463c-3.027-1.616-6.167-.574-7.952,2.651-.752,1.359-1.468,2.737-2.2,4.107q-11.623,21.746-23.233,43.5a10.167,10.167,0,0,0-.989,2.628,5.263,5.263,0,0,0,2.666,5.795c4.522,2.429,9.1,4.755,13.562,7.293,2.868,1.633,6.445,1.17,8.619-2.982C1081.426,1297.7,1085.688,1289.842,1089.9,1281.958Z" transform="translate(-826.454 -1158.274)" fill="#3d6042"/>
        <path id="Caminho_14326" data-name="Caminho 14326" d="M1167.384,1271.615a3.314,3.314,0,1,0,4.485-1.361A3.314,3.314,0,0,0,1167.384,1271.615Z" transform="translate(-912.041 -1179.16)" fill="#3c7326"/>
        <path id="Caminho_14327" data-name="Caminho 14327" d="M985.236,1454.811s2.806,4.481,2.927,8.193a19.229,19.229,0,0,1-.731,6.221l-9.082-11.453Z" transform="translate(-771.255 -1317.19)" fill="url(#linear-gradient-3)"/>
        <path id="Caminho_14328" data-name="Caminho 14328" d="M974.472,1459.828c-4.588-2.537-8.61,2.9-8.61,2.9-.214-.051-.476,10.739,2.585,13.36l.04.032-.433,7.4s5.474,10.03,8.454,8.73c2.5-1.09.5-8.663.5-8.663s-.382-1.734-.924-3.729c-.15-.555-.288-1.127-.4-1.685a4.112,4.112,0,0,0,2.91-1.615C980.434,1473.777,979.06,1462.364,974.472,1459.828Z" transform="translate(-761.847 -1320.431)" fill="url(#linear-gradient)"/>
        <path id="Caminho_14329" data-name="Caminho 14329" d="M946.25,1440.024a17.334,17.334,0,0,0-5.351,7.209c-2.107,4.524,1.71,9.368,4.965,11.339s3.47,4.256,3.47,4.256l.173-1.4a3.5,3.5,0,0,0-.008-1.293,6.049,6.049,0,0,0-.44-1.152c-.265-.608-1.115-2.692-1.453-3.245-.892-1.458-1.068-1.774-.573-3.124.381-1.04.032-3.364.624-5.078l4.473-.843a9.315,9.315,0,0,0,4.249-2.181C960.537,1439.96,952.694,1434.559,946.25,1440.024Z" transform="translate(-742.853 -1304.437)" fill="url(#linear-gradient-3)"/>
        <path id="Caminho_14330" data-name="Caminho 14330" d="M882.789,1379.776a1.37,1.37,0,0,0-.805.279c-.581.353-1.246,1.208-1.3,1.117a40.469,40.469,0,0,1-4.86.934,4.065,4.065,0,0,1-.351.422l2.075,2.152.3-.261a6.736,6.736,0,0,1,1.585-.99,5.464,5.464,0,0,0,1.547-.937c.157-.2.6-.732.837-1.015s.527-.6.634-.769a1.9,1.9,0,0,1,.448-.356A.315.315,0,0,0,882.789,1379.776Z" transform="translate(-694.478 -1261.185)" fill="url(#linear-gradient)"/>
        <path id="Caminho_14331" data-name="Caminho 14331" d="M1087.263,1483.223a2.046,2.046,0,0,1,1.067.688c.717.716,1.378,2.188,1.482,2.074a37.66,37.66,0,0,0,6.569,3.611c.089.226.348-.072.5.19l-3.763,2.383a18.67,18.67,0,0,1-4.2-4.378c-.156-.348-.611-1.271-.854-1.764s-.549-1.061-.647-1.337a2.818,2.818,0,0,0-.523-.673A.47.47,0,0,1,1087.263,1483.223Z" transform="translate(-852.164 -1338.394)" fill="url(#linear-gradient)"/>
        <rect id="Retângulo_18859" data-name="Retângulo 18859" width="437.86" height="1.988" transform="translate(0 315.248)" fill="#232323"/>
      </g>
    </g>
  </g>
</svg>
