<svg id="pix-banco-central-seeklogo.com" xmlns="http://www.w3.org/2000/svg" width="105.201" height="105.201" viewBox="0 0 105.201 105.201">
  <path id="Path_14239" data-name="Path 14239" d="M213.764,473.249a15.36,15.36,0,0,1-10.927-4.524l-15.78-15.778a3,3,0,0,0-4.145,0l-15.836,15.836a15.36,15.36,0,0,1-10.927,4.524H153.04l19.983,19.986a15.981,15.981,0,0,0,22.6,0l20.042-20.042h-1.9Z" transform="translate(-131.722 -392.773)" fill="#32bcad"/>
  <path id="Path_14240" data-name="Path 14240" d="M156.147,202.477A15.353,15.353,0,0,1,167.074,207l15.836,15.838a2.936,2.936,0,0,0,4.147,0l15.78-15.78a15.36,15.36,0,0,1,10.927-4.524h1.9l-20.042-20.042a15.981,15.981,0,0,0-22.6,0L153.04,202.477Z" transform="translate(-131.722 -177.813)" fill="#32bcad"/>
  <path id="Path_14241" data-name="Path 14241" d="M155.022,324.66,142.911,312.55a2.322,2.322,0,0,1-.859.173h-5.506a10.888,10.888,0,0,0-7.645,3.167l-15.78,15.78a7.578,7.578,0,0,1-10.709,0L86.574,315.832a10.888,10.888,0,0,0-7.645-3.167H72.157a2.32,2.32,0,0,1-.813-.164l-12.16,12.158a15.981,15.981,0,0,0,0,22.6l12.158,12.158a2.32,2.32,0,0,1,.813-.164h6.771a10.888,10.888,0,0,0,7.645-3.167l15.836-15.836a7.754,7.754,0,0,1,10.711,0L128.9,356.03a10.879,10.879,0,0,0,7.645,3.167h5.506a2.333,2.333,0,0,1,.861.173l12.111-12.111a15.978,15.978,0,0,0,0-22.6Z" transform="translate(-54.503 -283.362)" fill="#32bcad"/>
</svg>
