<svg id="Layer_1" data-name="Layer 1" xmlns="http://www.w3.org/2000/svg" viewBox="0 0 197 380"><defs><style>.cls-1{fill:#FFFAF6;}.cls-2{isolation:isolate;}.cls-3{fill:#707071;}.cls-4{fill:#C66D00;}.cls-5{fill:#fff;}.cls-6{fill:#eae8e5;}.cls-7{fill:#FFCD52;}.cls-8{fill:#33385c;}.cls-9{fill:#454b6d;}.cls-10{fill:#4cc3ed;}.cls-11{fill:#26BF64;}.cls-12{fill:#26BF64;}</style></defs><g id="resI"><g id="Group_14514" data-name="Group 14514"><path id="Rectangle_17486" data-name="Rectangle 17486" class="cls-1" d="M27.18,23.26h177a10,10,0,0,1,10,10v360a10,10,0,0,1-10,10h-177a10,10,0,0,1-10-10v-360A10,10,0,0,1,27.18,23.26Z" transform="translate(-17.18 -23.26)"/></g><g id="Group_14398" data-name="Group 14398"><g class="cls-2"><path class="cls-3" d="M43.12,117.26H41.85v-8.43l-2.55.94v-1.15l3.63-1.36h.19Z" transform="translate(-17.18 -23.26)"/><path class="cls-3" d="M55,117.26a3,3,0,0,1-.18-.78,2.8,2.8,0,0,1-2.1.91,2.64,2.64,0,0,1-1.8-.61,2,2,0,0,1-.7-1.57,2.12,2.12,0,0,1,.88-1.8,4.19,4.19,0,0,1,2.47-.64h1.23v-.58a1.42,1.42,0,0,0-.39-1,1.58,1.58,0,0,0-1.17-.4,1.92,1.92,0,0,0-1.14.34,1,1,0,0,0-.46.83H50.36a1.72,1.72,0,0,1,.4-1.07,2.66,2.66,0,0,1,1.06-.81,3.6,3.6,0,0,1,1.48-.31,3,3,0,0,1,2,.64,2.34,2.34,0,0,1,.75,1.76v3.41a4,4,0,0,0,.26,1.62v.11Zm-2.1-1A2.28,2.28,0,0,0,54,116a1.9,1.9,0,0,0,.77-.8v-1.52h-1c-1.55,0-2.32.45-2.32,1.36a1.15,1.15,0,0,0,.39.93A1.56,1.56,0,0,0,52.89,116.29Z" transform="translate(-17.18 -23.26)"/><path class="cls-3" d="M63.21,111.67h.95a2.07,2.07,0,0,0,1.41-.48,1.74,1.74,0,0,0-1.23-3,1.8,1.8,0,0,0-1.31.47,1.65,1.65,0,0,0-.49,1.24H61.28a2.56,2.56,0,0,1,.86-2,3.58,3.58,0,0,1,4.41,0,2.71,2.71,0,0,1,.8,2.07,2.16,2.16,0,0,1-.42,1.26,2.48,2.48,0,0,1-1.15.91,2.43,2.43,0,0,1,1.27.86,2.38,2.38,0,0,1,.45,1.47,2.73,2.73,0,0,1-.87,2.13,3.32,3.32,0,0,1-2.28.78,3.39,3.39,0,0,1-2.28-.75,2.52,2.52,0,0,1-.88-2h1.27a1.59,1.59,0,0,0,.52,1.26,2.26,2.26,0,0,0,2.77,0,1.85,1.85,0,0,0,.49-1.37,1.65,1.65,0,0,0-.54-1.33,2.32,2.32,0,0,0-1.54-.48h-.95Z" transform="translate(-17.18 -23.26)"/><path class="cls-3" d="M79.63,108.38H76.44v8.88H75.13v-8.88H71.94V107.3h7.69Z" transform="translate(-17.18 -23.26)"/><path class="cls-3" d="M84.52,115.51l2.84-8.21h1.43l-3.69,10H83.94l-3.68-10h1.43Z" transform="translate(-17.18 -23.26)"/><path class="cls-3" d="M89.88,113.22a10.81,10.81,0,0,1,.41-3,8.56,8.56,0,0,1,1.24-2.58,5.21,5.21,0,0,1,1.7-1.64l.26.83a5.52,5.52,0,0,0-1.64,2.34,10.25,10.25,0,0,0-.7,3.52v.58a10.21,10.21,0,0,0,1,4.58,5.63,5.63,0,0,0,1.38,1.82l-.26.77a5.62,5.62,0,0,1-1.74-1.69A9.56,9.56,0,0,1,89.88,113.22Z" transform="translate(-17.18 -23.26)"/><path class="cls-3" d="M97.85,112.82a6.11,6.11,0,0,1-2.46-1.19,2.3,2.3,0,0,1-.77-1.75,2.39,2.39,0,0,1,.94-1.94,3.7,3.7,0,0,1,2.44-.77,4.1,4.1,0,0,1,1.83.39,3.05,3.05,0,0,1,1.25,1.1,2.81,2.81,0,0,1,.44,1.52H100.2a1.79,1.79,0,0,0-.58-1.42,2.3,2.3,0,0,0-1.62-.52,2.36,2.36,0,0,0-1.51.43,1.44,1.44,0,0,0-.55,1.19,1.31,1.31,0,0,0,.52,1,5.07,5.07,0,0,0,1.76.77,8.2,8.2,0,0,1,1.94.77,3,3,0,0,1,1,1,2.54,2.54,0,0,1,.34,1.32,2.33,2.33,0,0,1-1,1.94,4.05,4.05,0,0,1-2.52.72,4.69,4.69,0,0,1-1.91-.39,3.13,3.13,0,0,1-1.37-1.08,2.56,2.56,0,0,1-.49-1.55h1.32a1.74,1.74,0,0,0,.67,1.43,2.79,2.79,0,0,0,1.78.52,2.6,2.6,0,0,0,1.59-.42,1.38,1.38,0,0,0,.56-1.16,1.33,1.33,0,0,0-.52-1.13A5.83,5.83,0,0,0,97.85,112.82Z" transform="translate(-17.18 -23.26)"/><path class="cls-3" d="M105.94,113.29a10.45,10.45,0,0,1-.4,2.92,9,9,0,0,1-1.22,2.58,5.34,5.34,0,0,1-1.73,1.68l-.27-.77a5.45,5.45,0,0,0,1.69-2.51,10.76,10.76,0,0,0,.66-3.77v-.22a11.23,11.23,0,0,0-.3-2.66,8.83,8.83,0,0,0-.84-2.22,5,5,0,0,0-1.21-1.52l.27-.77a5.45,5.45,0,0,1,1.72,1.66,8.75,8.75,0,0,1,1.22,2.58A10.86,10.86,0,0,1,105.94,113.29Z" transform="translate(-17.18 -23.26)"/></g><g class="cls-2"><path class="cls-3" d="M43.12,137.26H41.85v-8.43l-2.55.94v-1.15l3.63-1.36h.19Z" transform="translate(-17.18 -23.26)"/><path class="cls-3" d="M58,136A3,3,0,0,1,56.56,137a5.69,5.69,0,0,1-2.11.35,4.1,4.1,0,0,1-2.16-.57,3.83,3.83,0,0,1-1.46-1.62,5.69,5.69,0,0,1-.53-2.44v-.87a5.2,5.2,0,0,1,1.05-3.48,3.64,3.64,0,0,1,2.95-1.24,3.77,3.77,0,0,1,2.51.79A3.51,3.51,0,0,1,58,130.22H56.66a2.17,2.17,0,0,0-2.35-2,2.32,2.32,0,0,0-2,.93,4.51,4.51,0,0,0-.69,2.68v.82a4.23,4.23,0,0,0,.77,2.66,2.48,2.48,0,0,0,2.07,1,4.55,4.55,0,0,0,1.29-.16,2.14,2.14,0,0,0,.92-.55v-2.23H54.36V132.3H58Z" transform="translate(-17.18 -23.26)"/><path class="cls-3" d="M65.78,132.66H61.47v3.52h5v1.08H60.16v-10h6.25v1.08H61.47v3.2h4.31Z" transform="translate(-17.18 -23.26)"/><path class="cls-3" d="M69.44,136.18h4.71v1.08h-6v-10h1.32Z" transform="translate(-17.18 -23.26)"/><path class="cls-3" d="M81.27,134.65H77.1l-.93,2.61H74.81l3.81-10h1.14l3.81,10H82.23Zm-3.77-1.07h3.39l-1.7-4.66Z" transform="translate(-17.18 -23.26)"/><path class="cls-3" d="M84.91,137.26v-10h2.81a4.57,4.57,0,0,1,2.3.58,3.91,3.91,0,0,1,1.54,1.63,5.32,5.32,0,0,1,.55,2.44v.63a5.38,5.38,0,0,1-.54,2.47A3.84,3.84,0,0,1,90,136.68a4.88,4.88,0,0,1-2.34.58Zm1.31-8.88v7.8H87.6a3,3,0,0,0,2.37-.94,3.92,3.92,0,0,0,.84-2.69V132a3.93,3.93,0,0,0-.8-2.64,2.84,2.84,0,0,0-2.25-1Z" transform="translate(-17.18 -23.26)"/><path class="cls-3" d="M99.72,132.66H95.4v3.52h5v1.08H94.09v-10h6.26v1.08H95.4v3.2h4.32Z" transform="translate(-17.18 -23.26)"/><path class="cls-3" d="M103.46,137.26h-1.31v-10h1.31Z" transform="translate(-17.18 -23.26)"/><path class="cls-3" d="M109.51,133.23h-2.34v4h-1.32v-10h3.3a3.88,3.88,0,0,1,2.58.77,3.05,3.05,0,0,1,.41,3.85,3.08,3.08,0,0,1-1.4,1l2.34,4.23v.08h-1.41Zm-2.34-1.07h2a2.25,2.25,0,0,0,1.55-.51,1.71,1.71,0,0,0,.58-1.36,1.79,1.79,0,0,0-.55-1.41,2.31,2.31,0,0,0-1.59-.5h-2Z" transform="translate(-17.18 -23.26)"/><path class="cls-3" d="M120,134.65H115.8l-.93,2.61h-1.36l3.8-10h1.15l3.81,10h-1.35Zm-3.77-1.07h3.38l-1.69-4.66Z" transform="translate(-17.18 -23.26)"/></g><g class="cls-2"><path class="cls-3" d="M43.12,157.26H41.85v-8.43l-2.55.94v-1.15l3.63-1.36h.19Z" transform="translate(-17.18 -23.26)"/><path class="cls-3" d="M52.32,147.3l3.25,8.13,3.26-8.13h1.7v10H59.22v-3.88l.12-4.18-3.27,8.06h-1l-3.26-8,.13,4.16v3.88H50.62v-10Z" transform="translate(-17.18 -23.26)"/><path class="cls-3" d="M64.25,157.26H62.94v-10h1.31Z" transform="translate(-17.18 -23.26)"/><path class="cls-3" d="M74,154.1a3.69,3.69,0,0,1-1.16,2.44,3.83,3.83,0,0,1-2.61.85,3.52,3.52,0,0,1-2.83-1.26,5.12,5.12,0,0,1-1.06-3.38v-1a5.65,5.65,0,0,1,.5-2.44,3.77,3.77,0,0,1,1.4-1.62,4,4,0,0,1,2.11-.56,3.6,3.6,0,0,1,2.54.88A3.68,3.68,0,0,1,74,150.5H72.65a2.81,2.81,0,0,0-.74-1.72,2.22,2.22,0,0,0-1.59-.54,2.37,2.37,0,0,0-2,.93,4.31,4.31,0,0,0-.71,2.65v1a4.39,4.39,0,0,0,.68,2.58,2.18,2.18,0,0,0,1.89,1,2.53,2.53,0,0,0,1.68-.49,2.72,2.72,0,0,0,.77-1.73Z" transform="translate(-17.18 -23.26)"/><path class="cls-3" d="M79.42,153.23H77.08v4H75.76v-10h3.29a3.91,3.91,0,0,1,2.59.77,2.77,2.77,0,0,1,.91,2.23,2.65,2.65,0,0,1-.51,1.62,3,3,0,0,1-1.39,1L83,157.18v.08h-1.4Zm-2.34-1.07h2a2.27,2.27,0,0,0,1.56-.51,1.74,1.74,0,0,0,.58-1.36,1.82,1.82,0,0,0-.55-1.41,2.31,2.31,0,0,0-1.59-.5h-2Z" transform="translate(-17.18 -23.26)"/><path class="cls-3" d="M92,152.6a6.16,6.16,0,0,1-.49,2.56,3.71,3.71,0,0,1-1.4,1.66,4.14,4.14,0,0,1-4.19,0,4,4,0,0,1-1.41-1.65,6,6,0,0,1-.51-2.48V152a6,6,0,0,1,.5-2.53,3.91,3.91,0,0,1,5.6-1.69,3.7,3.7,0,0,1,1.41,1.67A6.14,6.14,0,0,1,92,152Zm-1.3-.64a4.43,4.43,0,0,0-.72-2.72,2.53,2.53,0,0,0-3.94,0,4.39,4.39,0,0,0-.74,2.63v.73a4.46,4.46,0,0,0,.72,2.7,2.35,2.35,0,0,0,2,1,2.32,2.32,0,0,0,2-.93,4.49,4.49,0,0,0,.72-2.65Z" transform="translate(-17.18 -23.26)"/><path class="cls-3" d="M96.44,153.55H93.11v-1h3.33Z" transform="translate(-17.18 -23.26)"/><path class="cls-3" d="M105.53,152.6a6.32,6.32,0,0,1-.49,2.56,3.77,3.77,0,0,1-1.4,1.66,4.14,4.14,0,0,1-4.19,0A4,4,0,0,1,98,155.17a6,6,0,0,1-.52-2.48V152a6.11,6.11,0,0,1,.5-2.53,3.88,3.88,0,0,1,1.41-1.69,4.09,4.09,0,0,1,4.2,0,3.7,3.7,0,0,1,1.41,1.67,6.3,6.3,0,0,1,.49,2.55Zm-1.31-.64a4.43,4.43,0,0,0-.71-2.72,2.54,2.54,0,0,0-4,0,4.39,4.39,0,0,0-.73,2.63v.73a4.46,4.46,0,0,0,.72,2.7,2.53,2.53,0,0,0,4,0,4.42,4.42,0,0,0,.71-2.65Z" transform="translate(-17.18 -23.26)"/><path class="cls-3" d="M115.15,157.26h-1.32l-5-7.67v7.67H107.5v-10h1.32l5,7.71V147.3h1.31Z" transform="translate(-17.18 -23.26)"/><path class="cls-3" d="M117.48,157.26v-10h2.81a4.53,4.53,0,0,1,2.29.58,3.93,3.93,0,0,1,1.55,1.63,5.45,5.45,0,0,1,.55,2.44v.63a5.26,5.26,0,0,1-.55,2.47,3.82,3.82,0,0,1-1.55,1.63,4.89,4.89,0,0,1-2.35.58Zm1.31-8.88v7.8h1.38a3,3,0,0,0,2.36-.94,3.88,3.88,0,0,0,.85-2.69V152a4,4,0,0,0-.8-2.64,2.85,2.85,0,0,0-2.26-1Z" transform="translate(-17.18 -23.26)"/><path class="cls-3" d="M132,154.65h-4.17l-.94,2.61h-1.35l3.8-10h1.15l3.81,10H133Zm-3.77-1.07h3.38l-1.69-4.66Z" transform="translate(-17.18 -23.26)"/><path class="cls-3" d="M138.58,152.82a6.25,6.25,0,0,1-2.46-1.19,2.3,2.3,0,0,1-.77-1.75,2.42,2.42,0,0,1,.94-1.94,3.72,3.72,0,0,1,2.45-.77,4.17,4.17,0,0,1,1.83.39,3,3,0,0,1,1.24,1.1,2.81,2.81,0,0,1,.44,1.52h-1.32a1.82,1.82,0,0,0-.57-1.42,2.34,2.34,0,0,0-1.62-.52,2.39,2.39,0,0,0-1.52.43,1.44,1.44,0,0,0-.54,1.19,1.28,1.28,0,0,0,.52,1,5,5,0,0,0,1.75.77,7.86,7.86,0,0,1,1.94.77,2.91,2.91,0,0,1,1,1,2.45,2.45,0,0,1,.34,1.32,2.33,2.33,0,0,1-.94,1.94,4.05,4.05,0,0,1-2.52.72,4.71,4.71,0,0,1-1.92-.39,3.19,3.19,0,0,1-1.37-1.08,2.61,2.61,0,0,1-.48-1.55h1.32a1.71,1.71,0,0,0,.67,1.43,2.77,2.77,0,0,0,1.78.52,2.6,2.6,0,0,0,1.59-.42,1.37,1.37,0,0,0,.55-1.16,1.35,1.35,0,0,0-.51-1.13A5.8,5.8,0,0,0,138.58,152.82Z" transform="translate(-17.18 -23.26)"/></g><g class="cls-2"><path class="cls-3" d="M43.12,177.26H41.85v-8.43l-2.55.94v-1.15l3.63-1.36h.19Z" transform="translate(-17.18 -23.26)"/><path class="cls-3" d="M56.11,172.86H51.94v4.4H50.62v-10h6.17v1.08H51.94v3.41h4.17Z" transform="translate(-17.18 -23.26)"/><path class="cls-3" d="M64,172.66H59.67v3.52h5v1.08H58.36v-10h6.26v1.08h-5v3.2H64Z" transform="translate(-17.18 -23.26)"/><path class="cls-3" d="M70,173.23H67.63v4H66.31v-10h3.3a3.88,3.88,0,0,1,2.58.77,3.05,3.05,0,0,1,.41,3.85,3,3,0,0,1-1.4,1l2.34,4.23v.08H72.13Zm-2.34-1.07h2a2.25,2.25,0,0,0,1.55-.51,1.71,1.71,0,0,0,.58-1.36,1.79,1.79,0,0,0-.55-1.41,2.31,2.31,0,0,0-1.59-.5h-2Z" transform="translate(-17.18 -23.26)"/><path class="cls-3" d="M78.59,173.23H76.25v4H74.93v-10h3.3a3.88,3.88,0,0,1,2.58.77,3.05,3.05,0,0,1,.41,3.85,3,3,0,0,1-1.4,1l2.34,4.23v.08H80.75Zm-2.34-1.07h2a2.25,2.25,0,0,0,1.55-.51,1.71,1.71,0,0,0,.58-1.36,1.79,1.79,0,0,0-.55-1.41,2.31,2.31,0,0,0-1.59-.5h-2Z" transform="translate(-17.18 -23.26)"/><path class="cls-3" d="M91.21,172.6a6.16,6.16,0,0,1-.49,2.56,3.75,3.75,0,0,1-1.39,1.66,3.88,3.88,0,0,1-2.11.57,3.68,3.68,0,0,1-3.49-2.22,5.84,5.84,0,0,1-.52-2.48V172a6.11,6.11,0,0,1,.5-2.53,3.67,3.67,0,0,1,3.5-2.27,3.82,3.82,0,0,1,2.11.58,3.68,3.68,0,0,1,1.4,1.67,6.14,6.14,0,0,1,.49,2.55Zm-1.3-.64a4.5,4.5,0,0,0-.71-2.72,2.35,2.35,0,0,0-2-.94,2.32,2.32,0,0,0-2,.94,4.33,4.33,0,0,0-.73,2.63v.73a4.46,4.46,0,0,0,.72,2.7,2.52,2.52,0,0,0,4,0,4.35,4.35,0,0,0,.72-2.65Z" transform="translate(-17.18 -23.26)"/><path class="cls-3" d="M96.65,177.26v-10h2.81a4.59,4.59,0,0,1,2.3.58,4,4,0,0,1,1.54,1.63,5.45,5.45,0,0,1,.55,2.44v.63a5.26,5.26,0,0,1-.55,2.47,3.82,3.82,0,0,1-1.55,1.63,4.89,4.89,0,0,1-2.35.58ZM98,168.38v7.8h1.38a3,3,0,0,0,2.36-.94,3.88,3.88,0,0,0,.85-2.69V172a4,4,0,0,0-.8-2.64,2.85,2.85,0,0,0-2.26-1Z" transform="translate(-17.18 -23.26)"/><path class="cls-3" d="M111.46,172.66h-4.32v3.52h5v1.08h-6.32v-10h6.25v1.08h-4.94v3.2h4.32Z" transform="translate(-17.18 -23.26)"/><path class="cls-3" d="M118.56,173.36v3.9h-1.31v-10h3.67a3.66,3.66,0,0,1,2.56.84,2.81,2.81,0,0,1,.93,2.21,2.77,2.77,0,0,1-.91,2.23,3.84,3.84,0,0,1-2.59.78Zm0-1.07h2.36a2.38,2.38,0,0,0,1.62-.5,1.82,1.82,0,0,0,.56-1.43,1.9,1.9,0,0,0-.56-1.43,2.24,2.24,0,0,0-1.54-.55h-2.44Z" transform="translate(-17.18 -23.26)"/><path class="cls-3" d="M130.64,174.65h-4.17l-.94,2.61h-1.35l3.8-10h1.15l3.8,10h-1.34Zm-3.78-1.07h3.39l-1.7-4.66Z" transform="translate(-17.18 -23.26)"/><path class="cls-3" d="M137.21,172.82a6.11,6.11,0,0,1-2.46-1.19,2.3,2.3,0,0,1-.77-1.75,2.39,2.39,0,0,1,.94-1.94,3.7,3.7,0,0,1,2.44-.77,4.1,4.1,0,0,1,1.83.39,3.05,3.05,0,0,1,1.25,1.1,2.81,2.81,0,0,1,.44,1.52h-1.32a1.79,1.79,0,0,0-.58-1.42,2.3,2.3,0,0,0-1.62-.52,2.36,2.36,0,0,0-1.51.43,1.44,1.44,0,0,0-.54,1.19,1.3,1.3,0,0,0,.51,1,5.07,5.07,0,0,0,1.76.77,8,8,0,0,1,1.94.77,3,3,0,0,1,1,1,2.45,2.45,0,0,1,.34,1.32,2.33,2.33,0,0,1-1,1.94,4,4,0,0,1-2.52.72,4.69,4.69,0,0,1-1.91-.39,3.19,3.19,0,0,1-1.37-1.08,2.61,2.61,0,0,1-.48-1.55H135a1.74,1.74,0,0,0,.67,1.43,2.81,2.81,0,0,0,1.78.52,2.56,2.56,0,0,0,1.59-.42,1.38,1.38,0,0,0,.56-1.16,1.35,1.35,0,0,0-.51-1.13A6,6,0,0,0,137.21,172.82Z" transform="translate(-17.18 -23.26)"/><path class="cls-3" d="M145.51,172.82a6.25,6.25,0,0,1-2.46-1.19,2.29,2.29,0,0,1-.76-1.75,2.39,2.39,0,0,1,.94-1.94,3.68,3.68,0,0,1,2.44-.77,4.17,4.17,0,0,1,1.83.39,3,3,0,0,1,1.24,1.1,2.72,2.72,0,0,1,.44,1.52h-1.32a1.82,1.82,0,0,0-.57-1.42,2.3,2.3,0,0,0-1.62-.52,2.34,2.34,0,0,0-1.51.43,1.42,1.42,0,0,0-.55,1.19,1.28,1.28,0,0,0,.52,1,5,5,0,0,0,1.75.77,8.13,8.13,0,0,1,2,.77,3.08,3.08,0,0,1,1,1,2.54,2.54,0,0,1,.33,1.32,2.33,2.33,0,0,1-.94,1.94,4.05,4.05,0,0,1-2.52.72,4.74,4.74,0,0,1-1.92-.39,3.19,3.19,0,0,1-1.37-1.08,2.61,2.61,0,0,1-.48-1.55h1.32a1.71,1.71,0,0,0,.67,1.43,2.79,2.79,0,0,0,1.78.52,2.6,2.6,0,0,0,1.59-.42,1.37,1.37,0,0,0,.55-1.16,1.35,1.35,0,0,0-.51-1.13A5.8,5.8,0,0,0,145.51,172.82Z" transform="translate(-17.18 -23.26)"/><path class="cls-3" d="M156.38,174.65h-4.17l-.94,2.61h-1.35l3.8-10h1.15l3.81,10h-1.35Zm-3.77-1.07H156l-1.69-4.66Z" transform="translate(-17.18 -23.26)"/><path class="cls-3" d="M163.67,173.23h-2.34v4H160v-10h3.3a3.88,3.88,0,0,1,2.58.77,3.05,3.05,0,0,1,.41,3.85,3,3,0,0,1-1.4,1l2.34,4.23v.08h-1.41Zm-2.34-1.07h2a2.25,2.25,0,0,0,1.55-.51,1.71,1.71,0,0,0,.58-1.36,1.79,1.79,0,0,0-.55-1.41,2.31,2.31,0,0,0-1.59-.5h-2Z" transform="translate(-17.18 -23.26)"/></g><g class="cls-2"><path class="cls-3" d="M43.12,197.26H41.85v-8.43l-2.55.94v-1.15l3.63-1.36h.19Z" transform="translate(-17.18 -23.26)"/><path class="cls-3" d="M52.32,187.3l3.25,8.13,3.26-8.13h1.7v10H59.22v-3.88l.12-4.18-3.27,8.06h-1l-3.26-8,.13,4.16v3.88H50.62v-10Z" transform="translate(-17.18 -23.26)"/><path class="cls-3" d="M68.46,194.65H64.29l-.93,2.61H62l3.81-10H67l3.81,10H69.41Zm-3.77-1.07h3.38l-1.69-4.66ZM67,184.64h1.53l-1.83,2h-1Z" transform="translate(-17.18 -23.26)"/><path class="cls-3" d="M79.63,192.6a6.29,6.29,0,0,1-.46,2.49,3.84,3.84,0,0,1-1.29,1.63l1.78,1.39-.89.83-2.1-1.67a4.42,4.42,0,0,1-1,.12,3.85,3.85,0,0,1-2.09-.57,4,4,0,0,1-1.41-1.65,6,6,0,0,1-.51-2.48V192a6.11,6.11,0,0,1,.49-2.53,3.84,3.84,0,0,1,1.42-1.69,3.74,3.74,0,0,1,2.08-.58,3.83,3.83,0,0,1,2.12.58,3.75,3.75,0,0,1,1.41,1.67,6.3,6.3,0,0,1,.49,2.55ZM78.31,192a4.49,4.49,0,0,0-.7-2.71,2.54,2.54,0,0,0-4,0,4.39,4.39,0,0,0-.73,2.63v.73a4.58,4.58,0,0,0,.71,2.7,2.53,2.53,0,0,0,4,0,4.42,4.42,0,0,0,.71-2.65Z" transform="translate(-17.18 -23.26)"/><path class="cls-3" d="M88.66,187.3v6.77a3.2,3.2,0,0,1-.89,2.31,3.57,3.57,0,0,1-2.38,1H85a3.69,3.69,0,0,1-2.6-.88,3.14,3.14,0,0,1-1-2.42V187.3h1.3V194A2.08,2.08,0,0,0,85,196.32a2.35,2.35,0,0,0,1.71-.59,2.31,2.31,0,0,0,.59-1.68V187.3Z" transform="translate(-17.18 -23.26)"/><path class="cls-3" d="M92.14,197.26H90.82v-10h1.32Z" transform="translate(-17.18 -23.26)"/><path class="cls-3" d="M102.19,197.26h-1.32l-5-7.67v7.67H94.54v-10h1.32l5,7.71V187.3h1.31Z" transform="translate(-17.18 -23.26)"/><path class="cls-3" d="M110.14,194.65H106l-.94,2.61h-1.35l3.8-10h1.15l3.8,10h-1.34Zm-3.78-1.07h3.39l-1.7-4.66Z" transform="translate(-17.18 -23.26)"/><path class="cls-3" d="M117.24,197.26v-10h2.81a4.53,4.53,0,0,1,2.29.58,3.93,3.93,0,0,1,1.55,1.63,5.45,5.45,0,0,1,.55,2.44v.63a5.26,5.26,0,0,1-.55,2.47,3.82,3.82,0,0,1-1.55,1.63,4.89,4.89,0,0,1-2.35.58Zm1.31-8.88v7.8h1.38a3,3,0,0,0,2.36-.94,3.88,3.88,0,0,0,.85-2.69V192a4,4,0,0,0-.8-2.64,2.85,2.85,0,0,0-2.26-1Z" transform="translate(-17.18 -23.26)"/><path class="cls-3" d="M132,192.66h-4.31v3.52h5v1.08h-6.32v-10h6.25v1.08h-4.94v3.2H132Z" transform="translate(-17.18 -23.26)"/><path class="cls-3" d="M139.16,196.18h4.72v1.08h-6v-10h1.32Z" transform="translate(-17.18 -23.26)"/><path class="cls-3" d="M151,194.65h-4.17l-.94,2.61h-1.35l3.8-10h1.15l3.81,10H152Zm-3.77-1.07h3.38l-1.69-4.66Z" transform="translate(-17.18 -23.26)"/><path class="cls-3" d="M157.34,195.51l2.84-8.21h1.44l-3.69,10h-1.17l-3.68-10h1.43Z" transform="translate(-17.18 -23.26)"/><path class="cls-3" d="M167.93,194.65h-4.17l-.93,2.61h-1.36l3.8-10h1.15l3.81,10h-1.35Zm-3.77-1.07h3.38l-1.69-4.66Z" transform="translate(-17.18 -23.26)"/><path class="cls-3" d="M175.22,193.23h-2.34v4h-1.32v-10h3.3a3.92,3.92,0,0,1,2.59.77,2.76,2.76,0,0,1,.9,2.23,2.71,2.71,0,0,1-.5,1.62,3,3,0,0,1-1.4,1l2.34,4.23v.08h-1.41Zm-2.34-1.07h2a2.29,2.29,0,0,0,1.56-.51,1.73,1.73,0,0,0,.57-1.36,1.79,1.79,0,0,0-.55-1.41,2.28,2.28,0,0,0-1.59-.5h-2Z" transform="translate(-17.18 -23.26)"/></g><g class="cls-2"><path class="cls-3" d="M43.12,217.26H41.85v-8.43l-2.55.94v-1.15l3.63-1.36h.19Z" transform="translate(-17.18 -23.26)"/><path class="cls-3" d="M51.52,217.26a2.7,2.7,0,0,1-.17-.78,2.82,2.82,0,0,1-2.11.91,2.59,2.59,0,0,1-1.79-.61,2,2,0,0,1-.7-1.57,2.1,2.1,0,0,1,.88-1.8,4.15,4.15,0,0,1,2.47-.64h1.23v-.58a1.42,1.42,0,0,0-.4-1.05,1.55,1.55,0,0,0-1.17-.4,1.87,1.87,0,0,0-1.13.34,1,1,0,0,0-.46.83H46.9a1.77,1.77,0,0,1,.39-1.07,2.69,2.69,0,0,1,1.07-.81,3.6,3.6,0,0,1,1.48-.31,3,3,0,0,1,2,.64,2.34,2.34,0,0,1,.75,1.76v3.41a4.21,4.21,0,0,0,.26,1.62v.11Zm-2.09-1a2.24,2.24,0,0,0,1.12-.3,1.93,1.93,0,0,0,.78-.8v-1.52h-1c-1.55,0-2.33.45-2.33,1.36a1.13,1.13,0,0,0,.4.93A1.53,1.53,0,0,0,49.43,216.29Z" transform="translate(-17.18 -23.26)"/><path class="cls-3" d="M59.75,211.67h1a2.07,2.07,0,0,0,1.41-.48,1.75,1.75,0,0,0-1.23-3,1.77,1.77,0,0,0-1.31.47,1.61,1.61,0,0,0-.49,1.24H57.81a2.54,2.54,0,0,1,.87-2,3.17,3.17,0,0,1,2.2-.78,3.11,3.11,0,0,1,2.2.74,2.68,2.68,0,0,1,.8,2.07,2.16,2.16,0,0,1-.42,1.26,2.51,2.51,0,0,1-1.14.91,2.43,2.43,0,0,1,1.27.86,2.37,2.37,0,0,1,.44,1.47,2.73,2.73,0,0,1-.87,2.13,3.29,3.29,0,0,1-2.28.78,3.4,3.4,0,0,1-2.28-.75,2.55,2.55,0,0,1-.87-2H59a1.62,1.62,0,0,0,.51,1.26,2.26,2.26,0,0,0,2.77,0,1.81,1.81,0,0,0,.49-1.37,1.68,1.68,0,0,0-.53-1.33,2.34,2.34,0,0,0-1.54-.48h-1Z" transform="translate(-17.18 -23.26)"/><path class="cls-3" d="M72.86,215.51l2.84-8.21h1.44l-3.69,10H72.29l-3.69-10H70Z" transform="translate(-17.18 -23.26)"/><path class="cls-3" d="M84.1,212.66H79.78v3.52h5v1.08H78.47v-10h6.26v1.08h-5v3.2H84.1Z" transform="translate(-17.18 -23.26)"/><path class="cls-3" d="M94.08,217.26H92.76l-5-7.67v7.67H86.43v-10h1.32l5,7.71V207.3h1.31Z" transform="translate(-17.18 -23.26)"/><path class="cls-3" d="M103.09,208.38h-3.2v8.88H98.58v-8.88H95.39V207.3h7.7Z" transform="translate(-17.18 -23.26)"/><path class="cls-3" d="M106,217.26h-1.31v-10H106Z" transform="translate(-17.18 -23.26)"/><path class="cls-3" d="M109.69,216.18h4.72v1.08h-6v-10h1.32Z" transform="translate(-17.18 -23.26)"/><path class="cls-3" d="M121.53,214.65h-4.17l-.93,2.61h-1.36l3.8-10H120l3.81,10h-1.35Zm-3.77-1.07h3.38l-1.69-4.66Z" transform="translate(-17.18 -23.26)"/><path class="cls-3" d="M125.17,217.26v-10H128a4.53,4.53,0,0,1,2.29.58,3.93,3.93,0,0,1,1.55,1.63,5.45,5.45,0,0,1,.55,2.44v.63a5.26,5.26,0,0,1-.55,2.47,3.82,3.82,0,0,1-1.55,1.63,4.89,4.89,0,0,1-2.35.58Zm1.31-8.88v7.8h1.38a3,3,0,0,0,2.36-.94,3.88,3.88,0,0,0,.85-2.69V212a4,4,0,0,0-.8-2.64,2.85,2.85,0,0,0-2.26-1Z" transform="translate(-17.18 -23.26)"/><path class="cls-3" d="M142,212.6a6.16,6.16,0,0,1-.49,2.56,3.75,3.75,0,0,1-1.39,1.66,4.13,4.13,0,0,1-4.19,0,3.81,3.81,0,0,1-1.41-1.65,5.84,5.84,0,0,1-.52-2.48V212a6.11,6.11,0,0,1,.5-2.53,3.76,3.76,0,0,1,1.41-1.69,4.09,4.09,0,0,1,4.2,0,3.68,3.68,0,0,1,1.4,1.67A6.14,6.14,0,0,1,142,212Zm-1.3-.64a4.5,4.5,0,0,0-.71-2.72,2.35,2.35,0,0,0-2-.94,2.32,2.32,0,0,0-2,.94,4.33,4.33,0,0,0-.73,2.63v.73a4.46,4.46,0,0,0,.72,2.7,2.52,2.52,0,0,0,3.95,0,4.35,4.35,0,0,0,.72-2.65Z" transform="translate(-17.18 -23.26)"/><path class="cls-3" d="M147.62,213.23h-2.33v4H144v-10h3.29a3.91,3.91,0,0,1,2.59.77,2.76,2.76,0,0,1,.9,2.23,2.64,2.64,0,0,1-.5,1.62,3,3,0,0,1-1.4,1l2.34,4.23v.08h-1.41Zm-2.33-1.07h2a2.27,2.27,0,0,0,1.56-.51,1.74,1.74,0,0,0,.58-1.36,1.82,1.82,0,0,0-.55-1.41,2.31,2.31,0,0,0-1.59-.5h-2Z" transform="translate(-17.18 -23.26)"/><path class="cls-3" d="M152.35,213.22a10.81,10.81,0,0,1,.41-3,8.56,8.56,0,0,1,1.24-2.58,5.11,5.11,0,0,1,1.7-1.64l.26.83a5.44,5.44,0,0,0-1.64,2.34,10,10,0,0,0-.7,3.52v.58a10.07,10.07,0,0,0,1,4.58A5.37,5.37,0,0,0,156,219.7l-.26.77a5.41,5.41,0,0,1-1.74-1.69A9.56,9.56,0,0,1,152.35,213.22Z" transform="translate(-17.18 -23.26)"/><path class="cls-3" d="M163,212.66h-4.31v3.52h5v1.08h-6.32v-10h6.25v1.08h-4.94v3.2H163Z" transform="translate(-17.18 -23.26)"/><path class="cls-3" d="M168.27,212.82a6.11,6.11,0,0,1-2.46-1.19,2.3,2.3,0,0,1-.77-1.75,2.42,2.42,0,0,1,.94-1.94,3.71,3.71,0,0,1,2.45-.77,4.09,4.09,0,0,1,1.82.39,3,3,0,0,1,1.25,1.1,2.81,2.81,0,0,1,.44,1.52h-1.32a1.82,1.82,0,0,0-.57-1.42,2.34,2.34,0,0,0-1.62-.52,2.37,2.37,0,0,0-1.52.43,1.44,1.44,0,0,0-.54,1.19,1.3,1.3,0,0,0,.51,1,5.07,5.07,0,0,0,1.76.77,7.86,7.86,0,0,1,1.94.77,2.91,2.91,0,0,1,1,1,2.45,2.45,0,0,1,.34,1.32,2.33,2.33,0,0,1-.94,1.94,4.07,4.07,0,0,1-2.53.72,4.69,4.69,0,0,1-1.91-.39,3.19,3.19,0,0,1-1.37-1.08,2.61,2.61,0,0,1-.48-1.55h1.32a1.73,1.73,0,0,0,.66,1.43,2.81,2.81,0,0,0,1.78.52,2.61,2.61,0,0,0,1.6-.42,1.37,1.37,0,0,0,.55-1.16,1.35,1.35,0,0,0-.51-1.13A5.8,5.8,0,0,0,168.27,212.82Z" transform="translate(-17.18 -23.26)"/><path class="cls-3" d="M176.36,213.29a10.45,10.45,0,0,1-.4,2.92,8.49,8.49,0,0,1-1.22,2.58,5.34,5.34,0,0,1-1.73,1.68l-.26-.77a5.53,5.53,0,0,0,1.69-2.51,11,11,0,0,0,.65-3.77v-.22a11.23,11.23,0,0,0-.3-2.66,8.83,8.83,0,0,0-.84-2.22,5.18,5.18,0,0,0-1.2-1.52L173,206a5.35,5.35,0,0,1,1.72,1.66,8.77,8.77,0,0,1,1.23,2.58A10.86,10.86,0,0,1,176.36,213.29Z" transform="translate(-17.18 -23.26)"/></g><g class="cls-2"><path class="cls-4" d="M43.12,237.26H41.85v-8.43l-2.55.94v-1.15l3.63-1.36h.19Z" transform="translate(-17.18 -23.26)"/><path class="cls-4" d="M57.94,234.1a3.69,3.69,0,0,1-1.16,2.44,3.85,3.85,0,0,1-2.61.85,3.52,3.52,0,0,1-2.83-1.26,5.12,5.12,0,0,1-1.06-3.38v-1a5.65,5.65,0,0,1,.5-2.44,3.77,3.77,0,0,1,1.4-1.62,4,4,0,0,1,2.11-.56,3.6,3.6,0,0,1,2.54.88,3.68,3.68,0,0,1,1.11,2.45H56.62a2.81,2.81,0,0,0-.74-1.72,2.22,2.22,0,0,0-1.59-.54,2.37,2.37,0,0,0-2,.93,4.31,4.31,0,0,0-.71,2.65v1a4.39,4.39,0,0,0,.68,2.58,2.18,2.18,0,0,0,1.89,1,2.53,2.53,0,0,0,1.68-.49,2.72,2.72,0,0,0,.77-1.73Z" transform="translate(-17.18 -23.26)"/><path class="cls-4" d="M67.38,237.26H66.06v-4.6h-5v4.6H59.73v-10h1.32v4.28h5V227.3h1.32Z" transform="translate(-17.18 -23.26)"/><path class="cls-4" d="M76.72,227.3v6.77a3.19,3.19,0,0,1-.88,2.31,3.6,3.6,0,0,1-2.39,1h-.34a3.73,3.73,0,0,1-2.61-.88,3.13,3.13,0,0,1-1-2.42V227.3h1.3V234a2.07,2.07,0,0,0,2.29,2.28,2.31,2.31,0,0,0,1.7-.59,2.27,2.27,0,0,0,.59-1.68V227.3Z" transform="translate(-17.18 -23.26)"/><path class="cls-4" d="M82.09,235.51l2.84-8.21h1.44l-3.69,10H81.51l-3.68-10h1.43Z" transform="translate(-17.18 -23.26)"/><path class="cls-4" d="M93.33,232.66H89v3.52h5v1.08H87.7v-10H94v1.08H89v3.2h4.32Z" transform="translate(-17.18 -23.26)"/><path class="cls-4" d="M97.07,237.26H95.75v-10h1.32Z" transform="translate(-17.18 -23.26)"/><path class="cls-4" d="M103.12,233.23h-2.34v4H99.46v-10h3.29a3.91,3.91,0,0,1,2.59.77,2.77,2.77,0,0,1,.91,2.23,2.65,2.65,0,0,1-.51,1.62,3,3,0,0,1-1.39,1l2.33,4.23v.08h-1.4Zm-2.34-1.07h2a2.27,2.27,0,0,0,1.56-.51,1.74,1.74,0,0,0,.58-1.36,1.82,1.82,0,0,0-.55-1.41,2.31,2.31,0,0,0-1.59-.5h-2Z" transform="translate(-17.18 -23.26)"/><path class="cls-4" d="M115.74,232.6a6.16,6.16,0,0,1-.49,2.56,3.71,3.71,0,0,1-1.4,1.66,4.14,4.14,0,0,1-4.19,0,4,4,0,0,1-1.41-1.65,6,6,0,0,1-.51-2.48V232a6,6,0,0,1,.5-2.53,3.91,3.91,0,0,1,5.6-1.69,3.7,3.7,0,0,1,1.41,1.67,6.14,6.14,0,0,1,.49,2.55Zm-1.3-.64a4.5,4.5,0,0,0-.71-2.72,2.35,2.35,0,0,0-2-.94,2.31,2.31,0,0,0-2,.94,4.39,4.39,0,0,0-.74,2.63v.73a4.46,4.46,0,0,0,.72,2.7,2.35,2.35,0,0,0,2,1,2.32,2.32,0,0,0,2-.93,4.49,4.49,0,0,0,.72-2.65Z" transform="translate(-17.18 -23.26)"/><path class="cls-4" d="M126.8,232.66h-4.31v3.52h5v1.08h-6.32v-10h6.25v1.08h-4.94v3.2h4.31Z" transform="translate(-17.18 -23.26)"/><path class="cls-4" d="M130.45,236.18h4.72v1.08h-6v-10h1.32Z" transform="translate(-17.18 -23.26)"/><path class="cls-4" d="M142.29,232.66H138v3.52h5v1.08h-6.32v-10h6.25v1.08H138v3.2h4.31Zm-1.93-8.1h1.54l-1.84,2h-1Z" transform="translate(-17.18 -23.26)"/><path class="cls-4" d="M151.64,228.38h-3.2v8.88h-1.31v-8.88h-3.19V227.3h7.7Z" transform="translate(-17.18 -23.26)"/><path class="cls-4" d="M156.76,233.23h-2.33v4h-1.32v-10h3.29a3.92,3.92,0,0,1,2.59.77,2.76,2.76,0,0,1,.9,2.23,2.64,2.64,0,0,1-.5,1.62,3,3,0,0,1-1.4,1l2.34,4.23v.08h-1.41Zm-2.33-1.07h2a2.29,2.29,0,0,0,1.56-.51,1.74,1.74,0,0,0,.58-1.36,1.82,1.82,0,0,0-.55-1.41,2.31,2.31,0,0,0-1.59-.5h-2Z" transform="translate(-17.18 -23.26)"/><path class="cls-4" d="M163.14,237.26h-1.31v-10h1.31Z" transform="translate(-17.18 -23.26)"/><path class="cls-4" d="M172.86,234.1a3.69,3.69,0,0,1-1.16,2.44,3.85,3.85,0,0,1-2.61.85,3.52,3.52,0,0,1-2.83-1.26,5.07,5.07,0,0,1-1.06-3.38v-1a5.51,5.51,0,0,1,.5-2.44,3.71,3.71,0,0,1,1.4-1.62,4,4,0,0,1,2.11-.56,3.6,3.6,0,0,1,2.54.88,3.68,3.68,0,0,1,1.11,2.45h-1.32a2.81,2.81,0,0,0-.74-1.72,2.22,2.22,0,0,0-1.59-.54,2.37,2.37,0,0,0-2,.93,4.31,4.31,0,0,0-.71,2.65v1a4.31,4.31,0,0,0,.68,2.58,2.18,2.18,0,0,0,1.89,1,2.53,2.53,0,0,0,1.68-.49,2.72,2.72,0,0,0,.77-1.73Z" transform="translate(-17.18 -23.26)"/><path class="cls-4" d="M182.31,232.6a6.16,6.16,0,0,1-.49,2.56,3.77,3.77,0,0,1-1.4,1.66,4.14,4.14,0,0,1-4.19,0,4,4,0,0,1-1.41-1.65,6,6,0,0,1-.52-2.48V232a6.11,6.11,0,0,1,.5-2.53,3.84,3.84,0,0,1,1.42-1.69,3.74,3.74,0,0,1,2.08-.58,3.82,3.82,0,0,1,2.11.58,3.7,3.7,0,0,1,1.41,1.67,6.14,6.14,0,0,1,.49,2.55ZM181,232a4.43,4.43,0,0,0-.71-2.72,2.33,2.33,0,0,0-2-.94,2.29,2.29,0,0,0-2,.94,4.33,4.33,0,0,0-.74,2.63v.73a4.46,4.46,0,0,0,.72,2.7,2.53,2.53,0,0,0,4,0,4.42,4.42,0,0,0,.71-2.65Z" transform="translate(-17.18 -23.26)"/></g></g><g id="Group_14518" data-name="Group 14518"><g id="Group_14444" data-name="Group 14444"><g id="home"><g id="Group_14479" data-name="Group 14479"><path id="Path_13312" data-name="Path 13312" class="cls-5" d="M69.58,60.13l-11-10.64a.83.83,0,0,0-1.15,0l-11,10.64A.83.83,0,0,0,47,61.56h1.46V73.19a.83.83,0,0,0,.83.83h5.82a.83.83,0,0,0,.83-.83V66.54h4.15v6.65a.83.83,0,0,0,.83.83H66.7a.83.83,0,0,0,.83-.83V61.56H69a.83.83,0,0,0,.83-.83.73.73,0,0,0-.24-.6Zm-2,.6a.83.83,0,0,0-.83.83V73.19H60.9V66.54a.83.83,0,0,0-.83-.83H55.92a.83.83,0,0,0-.83.83v6.65H49.27V61.56a.83.83,0,0,0-.83-.83H47L58,50.09,69,60.73Z" transform="translate(-17.18 -23.26)"/></g></g><g id="Group_14517" data-name="Group 14517"><g id="home-2" data-name="home"><path id="Path_13316" data-name="Path 13316" class="cls-6" d="M58,41.59,42.1,52.36V77H73.83V52.36Z" transform="translate(-17.18 -23.26)"/><path id="Path_13317" data-name="Path 13317" class="cls-7" d="M48.06,63.8h7.27V77H48.06Z" transform="translate(-17.18 -23.26)"/><path id="Path_13318" data-name="Path 13318" class="cls-8" d="M62.6,69.75h9.26v2.64H62.6Z" transform="translate(-17.18 -23.26)"/><g id="Group_14517-2" data-name="Group 14517-2"><path id="Path_13319" data-name="Path 13319" class="cls-9" d="M60.62,77V67.76l1.32-2,1.32,2V77Z" transform="translate(-17.18 -23.26)"/><path id="Path_13320" data-name="Path 13320" class="cls-9" d="M65.91,77V67.76l1.32-2,1.32,2V77Z" transform="translate(-17.18 -23.26)"/><path id="Path_13321" data-name="Path 13321" class="cls-9" d="M71.2,77V67.76l1.32-2,1.32,2V77Z" transform="translate(-17.18 -23.26)"/></g><path id="Path_13322" data-name="Path 13322" class="cls-10" d="M60,57.85H56a2,2,0,0,1-2-2v-4a2,2,0,0,1,2-2h4a2,2,0,0,1,2,2h0v4a2,2,0,0,1-2,2Z" transform="translate(-17.18 -23.26)"/><path id="Path_13323" data-name="Path 13323" class="cls-9" d="M61.94,53.22h-3.3V49.91H57.32v3.31H54v1.32h3.31v3.31h1.32V54.54H62Z" transform="translate(-17.18 -23.26)"/><path id="Path_13324" data-name="Path 13324" class="cls-9" d="M52,69.75h1.32v1.32H52Z" transform="translate(-17.18 -23.26)"/><path id="Path_13325" data-name="Path 13325" class="cls-9" d="M41.45,71.73h1.32V77H41.45Z" transform="translate(-17.18 -23.26)"/><path id="Path_13326" data-name="Path 13326" class="cls-11" d="M45.41,69.08c0,2.37-1.48,4-3.31,4s-3.31-1.59-3.31-4c0-1.55,1.41-5.3,2.39-7.72a1,1,0,0,1,1.84,0C44,63.78,45.41,67.54,45.41,69.08Z" transform="translate(-17.18 -23.26)"/><path id="Path_13327" data-name="Path 13327" class="cls-9" d="M38.14,76.36H77.81v1.32H38.14Z" transform="translate(-17.18 -23.26)"/><path id="Path_13328" data-name="Path 13328" class="cls-7" d="M75.74,53.65,58,41.59,40.2,53.65l-1.49-2.19L58,38.39,77.21,51.46Z" transform="translate(-17.18 -23.26)"/></g></g></g></g><g class="cls-2"><path class="cls-12" d="M102.61,62.88h-1.52v3.38h-1.9V57h3.43a3.87,3.87,0,0,1,2.53.73,2.51,2.51,0,0,1,.89,2.06,2.9,2.9,0,0,1-.41,1.58,2.8,2.8,0,0,1-1.24,1l2,3.78v.09h-2Zm-1.52-1.55h1.54a1.58,1.58,0,0,0,1.11-.36,1.33,1.33,0,0,0,.39-1,1.4,1.4,0,0,0-.37-1,1.55,1.55,0,0,0-1.14-.37h-1.53Z" transform="translate(-17.18 -23.26)"/><path class="cls-12" d="M113.05,62.25h-3.66v2.48h4.29v1.53h-6.2V57h6.19v1.54h-4.28v2.2h3.66Z" transform="translate(-17.18 -23.26)"/><path class="cls-12" d="M119.59,63.83a1,1,0,0,0-.38-.83,4.94,4.94,0,0,0-1.37-.6,10.23,10.23,0,0,1-1.57-.64,2.55,2.55,0,0,1-1.57-2.29,2.22,2.22,0,0,1,.42-1.33,2.66,2.66,0,0,1,1.21-.92,4.58,4.58,0,0,1,1.77-.33,4.18,4.18,0,0,1,1.77.36,2.78,2.78,0,0,1,1.2,1,2.63,2.63,0,0,1,.43,1.49h-1.9a1.26,1.26,0,0,0-.4-1,1.63,1.63,0,0,0-1.13-.35,1.73,1.73,0,0,0-1.08.29.94.94,0,0,0-.39.78.88.88,0,0,0,.45.75,4.78,4.78,0,0,0,1.34.57A5.92,5.92,0,0,1,120.76,62a2.42,2.42,0,0,1,.74,1.8,2.2,2.2,0,0,1-.91,1.88,3.93,3.93,0,0,1-2.44.68,4.7,4.7,0,0,1-1.94-.39,3,3,0,0,1-1.34-1.07,2.69,2.69,0,0,1-.46-1.57h1.91q0,1.53,1.83,1.53a1.73,1.73,0,0,0,1.06-.28A.9.9,0,0,0,119.59,63.83Z" transform="translate(-17.18 -23.26)"/><path class="cls-12" d="M124.81,66.26h-1.9V57h1.9Z" transform="translate(-17.18 -23.26)"/><path class="cls-12" d="M126.58,66.26V57h2.84a4.38,4.38,0,0,1,2.18.54,3.85,3.85,0,0,1,1.5,1.57,4.79,4.79,0,0,1,.54,2.3v.42a4.72,4.72,0,0,1-.53,2.29,3.8,3.8,0,0,1-1.49,1.56,4.39,4.39,0,0,1-2.18.56Zm1.9-7.7v6.17h.92a2.08,2.08,0,0,0,1.71-.73,3.27,3.27,0,0,0,.6-2.09v-.49a3.32,3.32,0,0,0-.58-2.13,2.05,2.05,0,0,0-1.71-.73Z" transform="translate(-17.18 -23.26)"/><path class="cls-12" d="M140.59,62.25h-3.66v2.48h4.29v1.53H135V57h6.18v1.54h-4.28v2.2h3.66Z" transform="translate(-17.18 -23.26)"/><path class="cls-12" d="M149.86,66.26H148l-3.71-6.08v6.08h-1.9V57h1.9L148,63.11V57h1.9Z" transform="translate(-17.18 -23.26)"/><path class="cls-12" d="M158.77,63.18a3.28,3.28,0,0,1-1.1,2.35,3.86,3.86,0,0,1-2.62.85,3.46,3.46,0,0,1-2.79-1.19,4.91,4.91,0,0,1-1-3.29v-.56a5.6,5.6,0,0,1,.47-2.35,3.49,3.49,0,0,1,1.34-1.56,4.2,4.2,0,0,1,4.61.32,3.55,3.55,0,0,1,1.13,2.4h-1.91a1.88,1.88,0,0,0-.5-1.3,1.82,1.82,0,0,0-1.3-.4,1.64,1.64,0,0,0-1.43.68,3.9,3.9,0,0,0-.48,2.12V62a4.12,4.12,0,0,0,.45,2.19,1.59,1.59,0,0,0,1.43.69,1.88,1.88,0,0,0,1.32-.4,1.83,1.83,0,0,0,.5-1.25Z" transform="translate(-17.18 -23.26)"/><path class="cls-12" d="M162.05,66.26h-1.91V57h1.91Z" transform="translate(-17.18 -23.26)"/><path class="cls-12" d="M169.15,64.35h-3.34l-.64,1.91h-2L166.59,57h1.76l3.46,9.24h-2Zm-2.83-1.54h2.31l-1.16-3.46Z" transform="translate(-17.18 -23.26)"/><path class="cls-12" d="M174.58,64.73h4v1.53h-6V57h1.91Z" transform="translate(-17.18 -23.26)"/><path class="cls-12" d="M185,66.26h-1.91V57H185Z" transform="translate(-17.18 -23.26)"/></g><g class="cls-2"><path class="cls-12" d="M109.61,77.39l0,.76a2.53,2.53,0,0,1,2-.89,2,2,0,0,1,2,1.11,2.46,2.46,0,0,1,.89-.8,2.55,2.55,0,0,1,1.3-.31c1.5,0,2.27.8,2.29,2.4v4.6H117V79.73a1.57,1.57,0,0,0-.34-1.11,1.49,1.49,0,0,0-1.13-.36,1.56,1.56,0,0,0-1.08.39,1.54,1.54,0,0,0-.5,1v4.56h-1.18v-4.5a1.31,1.31,0,0,0-1.47-1.5,1.57,1.57,0,0,0-1.58,1v5h-1.18V77.39Z" transform="translate(-17.18 -23.26)"/><path class="cls-12" d="M119.58,80.76A4.08,4.08,0,0,1,120,79a3,3,0,0,1,1.1-1.25,3.07,3.07,0,0,1,1.62-.44,2.92,2.92,0,0,1,2.27,1,3.74,3.74,0,0,1,.87,2.59v.08a4,4,0,0,1-.39,1.8,2.88,2.88,0,0,1-1.1,1.24,3,3,0,0,1-1.64.44,2.88,2.88,0,0,1-2.26-1,3.69,3.69,0,0,1-.87-2.57Zm1.18.14a3,3,0,0,0,.53,1.83,1.78,1.78,0,0,0,2.84,0,3.13,3.13,0,0,0,.53-2,3,3,0,0,0-.53-1.83,1.71,1.71,0,0,0-1.43-.7,1.68,1.68,0,0,0-1.4.69A3.15,3.15,0,0,0,120.76,80.9Z" transform="translate(-17.18 -23.26)"/><path class="cls-12" d="M128.42,77.39l0,.86a2.49,2.49,0,0,1,2-1c1.46,0,2.19.82,2.2,2.46v4.54h-1.17V79.71a1.59,1.59,0,0,0-.34-1.09,1.37,1.37,0,0,0-1-.36,1.69,1.69,0,0,0-1,.3,2.11,2.11,0,0,0-.68.8v4.9h-1.17V77.39Z" transform="translate(-17.18 -23.26)"/><path class="cls-12" d="M134.17,80.76a4,4,0,0,1,.4-1.81,2.92,2.92,0,0,1,1.1-1.25,3,3,0,0,1,1.62-.44,2.93,2.93,0,0,1,2.27,1,3.78,3.78,0,0,1,.86,2.59v.08a4.17,4.17,0,0,1-.38,1.8,3,3,0,0,1-1.1,1.24,3,3,0,0,1-1.64.44,2.86,2.86,0,0,1-2.26-1,3.69,3.69,0,0,1-.87-2.57Zm1.18.14a3,3,0,0,0,.53,1.83,1.78,1.78,0,0,0,2.84,0,3.2,3.2,0,0,0,.53-2,2.93,2.93,0,0,0-.54-1.83,1.79,1.79,0,0,0-2.83,0A3.22,3.22,0,0,0,135.35,80.9Z" transform="translate(-17.18 -23.26)"/><path class="cls-12" d="M142.47,84.26v-6h-1.08v-.91h1.08v-.7a2.35,2.35,0,0,1,.59-1.71,2.25,2.25,0,0,1,1.67-.6,3.21,3.21,0,0,1,.81.1l-.06,1a3.24,3.24,0,0,0-.64-.06,1.12,1.12,0,0,0-.88.34,1.33,1.33,0,0,0-.31,1v.73h1.46v.91h-1.46v6Z" transform="translate(-17.18 -23.26)"/><path class="cls-12" d="M150.65,84.26a2.69,2.69,0,0,1-.17-.73,2.59,2.59,0,0,1-1.95.85,2.45,2.45,0,0,1-1.67-.57,1.87,1.87,0,0,1-.65-1.46,1.92,1.92,0,0,1,.82-1.66,3.8,3.8,0,0,1,2.29-.6h1.14v-.54a1.35,1.35,0,0,0-.36-1,1.51,1.51,0,0,0-1.09-.36,1.64,1.64,0,0,0-1,.32.91.91,0,0,0-.43.76h-1.18a1.59,1.59,0,0,1,.37-1,2.48,2.48,0,0,1,1-.76,3.39,3.39,0,0,1,1.37-.28,2.7,2.7,0,0,1,1.86.6,2.14,2.14,0,0,1,.7,1.63v3.16a3.94,3.94,0,0,0,.24,1.51v.1Zm-2-.9a2.07,2.07,0,0,0,1.05-.28,1.65,1.65,0,0,0,.71-.75v-1.4h-.92c-1.43,0-2.15.42-2.15,1.26a1.07,1.07,0,0,0,.36.86A1.43,1.43,0,0,0,148.7,83.36Zm1.09-8.85h1.42l-1.7,1.86h-.95Z" transform="translate(-17.18 -23.26)"/><path class="cls-12" d="M157.48,82.44a.85.85,0,0,0-.36-.74,3.45,3.45,0,0,0-1.25-.46,5.85,5.85,0,0,1-1.41-.45,2,2,0,0,1-.78-.64,1.48,1.48,0,0,1-.25-.87,1.79,1.79,0,0,1,.71-1.43,3.18,3.18,0,0,1,3.72,0,1.89,1.89,0,0,1,.73,1.54h-1.18a1.07,1.07,0,0,0-.41-.83,1.5,1.5,0,0,0-1-.35,1.57,1.57,0,0,0-1,.28.86.86,0,0,0-.37.73.73.73,0,0,0,.34.64,4.18,4.18,0,0,0,1.22.41,6.36,6.36,0,0,1,1.42.47,2.1,2.1,0,0,1,.81.66,1.57,1.57,0,0,1,.26.93,1.75,1.75,0,0,1-.73,1.48,3.09,3.09,0,0,1-1.91.55,3.37,3.37,0,0,1-1.46-.29,2.31,2.31,0,0,1-1-.81,2,2,0,0,1-.36-1.14h1.18a1.22,1.22,0,0,0,.47.94,1.85,1.85,0,0,0,1.17.35,1.91,1.91,0,0,0,1.07-.27A.85.85,0,0,0,157.48,82.44Z" transform="translate(-17.18 -23.26)"/><path class="cls-12" d="M160.19,75.57a.72.72,0,0,1,.17-.48.78.78,0,0,1,1,0,.68.68,0,0,1,.18.48.64.64,0,0,1-.18.47.81.81,0,0,1-1,0A.68.68,0,0,1,160.19,75.57Zm1.27,8.69h-1.17V77.39h1.17Z" transform="translate(-17.18 -23.26)"/><path class="cls-12" d="M166.09,83.43a1.66,1.66,0,0,0,1.1-.39,1.33,1.33,0,0,0,.52-1h1.11a2.12,2.12,0,0,1-.4,1.13,2.77,2.77,0,0,1-1,.85,2.92,2.92,0,0,1-1.33.31,2.84,2.84,0,0,1-2.23-.93,3.75,3.75,0,0,1-.83-2.56v-.2a4.19,4.19,0,0,1,.37-1.78,2.87,2.87,0,0,1,1.06-1.22,3.07,3.07,0,0,1,1.63-.43A2.72,2.72,0,0,1,168,78a2.43,2.43,0,0,1,.81,1.79h-1.11a1.59,1.59,0,0,0-.5-1.09,1.57,1.57,0,0,0-1.12-.43,1.64,1.64,0,0,0-1.39.64,3,3,0,0,0-.49,1.86V81a3,3,0,0,0,.49,1.83A1.66,1.66,0,0,0,166.09,83.43Z" transform="translate(-17.18 -23.26)"/><path class="cls-12" d="M169.83,80.76a4,4,0,0,1,.4-1.81,2.92,2.92,0,0,1,1.1-1.25,3,3,0,0,1,1.62-.44,2.93,2.93,0,0,1,2.27,1,3.78,3.78,0,0,1,.86,2.59v.08a4,4,0,0,1-.38,1.8,3,3,0,0,1-1.1,1.24,3,3,0,0,1-1.64.44,2.88,2.88,0,0,1-2.26-1,3.69,3.69,0,0,1-.87-2.57Zm1.18.14a3,3,0,0,0,.53,1.83,1.78,1.78,0,0,0,2.84,0,3.2,3.2,0,0,0,.53-2,2.93,2.93,0,0,0-.54-1.83,1.78,1.78,0,0,0-2.82,0A3.15,3.15,0,0,0,171,80.9Z" transform="translate(-17.18 -23.26)"/></g><g id="Group_14486" data-name="Group 14486"><g class="cls-2"><path class="cls-12" d="M55.35,376.1a3.75,3.75,0,0,1-1.17,2.44,3.82,3.82,0,0,1-2.61.85,3.5,3.5,0,0,1-2.82-1.26,5.07,5.07,0,0,1-1.07-3.38v-1a5.65,5.65,0,0,1,.5-2.44,3.77,3.77,0,0,1,1.4-1.62,4,4,0,0,1,2.11-.56,3.59,3.59,0,0,1,2.54.88,3.73,3.73,0,0,1,1.12,2.45H54a2.82,2.82,0,0,0-.75-1.72,2.22,2.22,0,0,0-1.59-.54,2.33,2.33,0,0,0-2,.93,4.24,4.24,0,0,0-.72,2.65v1a4.39,4.39,0,0,0,.68,2.58,2.18,2.18,0,0,0,1.89,1,2.53,2.53,0,0,0,1.68-.49A2.77,2.77,0,0,0,54,376.1Z" transform="translate(-17.18 -23.26)"/><path class="cls-12" d="M56.6,375.49a4.43,4.43,0,0,1,.43-1.95A3.17,3.17,0,0,1,60,371.72a3.1,3.1,0,0,1,2.44,1,4,4,0,0,1,.94,2.78v.09a4.35,4.35,0,0,1-.42,1.94,3.14,3.14,0,0,1-1.18,1.34,3.25,3.25,0,0,1-1.77.47,3.08,3.08,0,0,1-2.43-1,4,4,0,0,1-.94-2.77Zm1.28.15a3.19,3.19,0,0,0,.57,2,1.84,1.84,0,0,0,1.52.74,1.8,1.8,0,0,0,1.53-.75,3.47,3.47,0,0,0,.57-2.12,3.12,3.12,0,0,0-.58-2,1.83,1.83,0,0,0-1.53-.76,1.81,1.81,0,0,0-1.51.75A3.46,3.46,0,0,0,57.88,375.64Z" transform="translate(-17.18 -23.26)"/><path class="cls-12" d="M66.12,371.86l0,.93a2.71,2.71,0,0,1,2.22-1.07c1.56,0,2.35.89,2.36,2.65v4.89H69.48v-4.9a1.73,1.73,0,0,0-.37-1.18A1.49,1.49,0,0,0,68,372.8a1.82,1.82,0,0,0-1.08.33,2.1,2.1,0,0,0-.72.86v5.27H64.92v-7.4Z" transform="translate(-17.18 -23.26)"/><path class="cls-12" d="M73.27,379.26v-6.42H72.1v-1h1.17v-.76a2.51,2.51,0,0,1,.64-1.84,2.4,2.4,0,0,1,1.79-.65,3.26,3.26,0,0,1,.87.12l-.07,1a3.66,3.66,0,0,0-.68-.06,1.23,1.23,0,0,0-.95.36,1.47,1.47,0,0,0-.34,1v.78h1.58v1H74.53v6.42Z" transform="translate(-17.18 -23.26)"/><path class="cls-12" d="M77.51,369.9a.77.77,0,0,1,.19-.52.85.85,0,0,1,1.12,0,.73.73,0,0,1,.19.52.7.7,0,0,1-.19.51.85.85,0,0,1-1.12,0A.75.75,0,0,1,77.51,369.9Zm1.37,9.36H77.62v-7.4h1.26Z" transform="translate(-17.18 -23.26)"/><path class="cls-12" d="M84.48,373a3.05,3.05,0,0,0-.62-.05A1.67,1.67,0,0,0,82.17,374v5.25H80.91v-7.4h1.23l0,.86a2,2,0,0,1,1.76-1,1.33,1.33,0,0,1,.56.1Z" transform="translate(-17.18 -23.26)"/><path class="cls-12" d="M89.94,379.26a2.34,2.34,0,0,1-.18-.78,2.82,2.82,0,0,1-2.11.91,2.61,2.61,0,0,1-1.79-.61,2,2,0,0,1-.7-1.57,2.1,2.1,0,0,1,.88-1.8,4.15,4.15,0,0,1,2.47-.64h1.23v-.58a1.42,1.42,0,0,0-.4-1.05,1.55,1.55,0,0,0-1.17-.4,1.87,1.87,0,0,0-1.13.34,1,1,0,0,0-.46.83H85.31a1.77,1.77,0,0,1,.39-1.07,2.69,2.69,0,0,1,1.07-.81,3.6,3.6,0,0,1,1.48-.31,3,3,0,0,1,2,.64,2.34,2.34,0,0,1,.75,1.76v3.41a4.21,4.21,0,0,0,.26,1.62v.11Zm-2.1-1A2.24,2.24,0,0,0,89,378a1.93,1.93,0,0,0,.78-.8v-1.52h-1c-1.55,0-2.33.45-2.33,1.36a1.13,1.13,0,0,0,.4.93A1.53,1.53,0,0,0,87.84,378.29Z" transform="translate(-17.18 -23.26)"/><path class="cls-12" d="M102.7,375.64a4.45,4.45,0,0,1-.77,2.72,2.49,2.49,0,0,1-2.1,1,2.73,2.73,0,0,1-2.12-.85v3.56H96.45V371.86h1.16l.06.82a2.59,2.59,0,0,1,2.14-1,2.52,2.52,0,0,1,2.11,1,4.46,4.46,0,0,1,.78,2.8Zm-1.27-.14a3.25,3.25,0,0,0-.53-2,1.72,1.72,0,0,0-1.46-.72,1.87,1.87,0,0,0-1.73,1v3.53a1.86,1.86,0,0,0,1.74,1,1.72,1.72,0,0,0,1.45-.72A3.61,3.61,0,0,0,101.43,375.5Z" transform="translate(-17.18 -23.26)"/><path class="cls-12" d="M107.88,373a3.05,3.05,0,0,0-.62-.05,1.67,1.67,0,0,0-1.69,1.06v5.25H104.3v-7.4h1.24l0,.86a2,2,0,0,1,1.76-1,1.33,1.33,0,0,1,.56.1Z" transform="translate(-17.18 -23.26)"/><path class="cls-12" d="M112,379.39a3.23,3.23,0,0,1-2.45-1,3.71,3.71,0,0,1-.94-2.65v-.23a4.41,4.41,0,0,1,.42-2,3.26,3.26,0,0,1,1.18-1.36,3,3,0,0,1,1.63-.49,2.79,2.79,0,0,1,2.25.95,4.15,4.15,0,0,1,.8,2.73v.52h-5a2.63,2.63,0,0,0,.63,1.77,2,2,0,0,0,1.56.67,2.2,2.2,0,0,0,1.13-.27,2.7,2.7,0,0,0,.82-.73l.77.61A3.11,3.11,0,0,1,112,379.39Zm-.16-6.63a1.69,1.69,0,0,0-1.28.56,2.66,2.66,0,0,0-.64,1.56h3.7v-.09a2.45,2.45,0,0,0-.52-1.5A1.6,1.6,0,0,0,111.82,372.76Z" transform="translate(-17.18 -23.26)"/><path class="cls-12" d="M122.58,375.64a4.39,4.39,0,0,1-.78,2.72,2.46,2.46,0,0,1-2.09,1,2.71,2.71,0,0,1-2.12-.85v3.56h-1.26V371.86h1.15l.07.82a2.59,2.59,0,0,1,2.14-1,2.53,2.53,0,0,1,2.11,1,4.46,4.46,0,0,1,.78,2.8Zm-1.27-.14a3.32,3.32,0,0,0-.53-2,1.72,1.72,0,0,0-1.46-.72,1.87,1.87,0,0,0-1.73,1v3.53a1.86,1.86,0,0,0,1.74,1,1.72,1.72,0,0,0,1.45-.72A3.61,3.61,0,0,0,121.31,375.5Z" transform="translate(-17.18 -23.26)"/><path class="cls-12" d="M128.75,379.26a3,3,0,0,1-.18-.78,2.82,2.82,0,0,1-2.1.91,2.64,2.64,0,0,1-1.8-.61,2,2,0,0,1-.7-1.57,2.1,2.1,0,0,1,.88-1.8,4.19,4.19,0,0,1,2.47-.64h1.23v-.58a1.42,1.42,0,0,0-.39-1.05,1.58,1.58,0,0,0-1.17-.4,1.92,1.92,0,0,0-1.14.34,1,1,0,0,0-.46.83h-1.27a1.77,1.77,0,0,1,.39-1.07,2.76,2.76,0,0,1,1.07-.81,3.6,3.6,0,0,1,1.48-.31,3,3,0,0,1,2,.64,2.31,2.31,0,0,1,.76,1.76v3.41a4,4,0,0,0,.26,1.62v.11Zm-2.1-1a2.28,2.28,0,0,0,1.13-.3,2,2,0,0,0,.77-.8v-1.52h-1c-1.55,0-2.32.45-2.32,1.36a1.15,1.15,0,0,0,.39.93A1.56,1.56,0,0,0,126.65,378.29Z" transform="translate(-17.18 -23.26)"/><path class="cls-12" d="M135.37,373a3.05,3.05,0,0,0-.62-.05,1.67,1.67,0,0,0-1.69,1.06v5.25H131.8v-7.4H133l0,.86a2,2,0,0,1,1.76-1,1.3,1.3,0,0,1,.56.1Z" transform="translate(-17.18 -23.26)"/><path class="cls-12" d="M136.06,375.49a4.43,4.43,0,0,1,.43-1.95,3.17,3.17,0,0,1,2.93-1.82,3.1,3.1,0,0,1,2.44,1,4,4,0,0,1,.94,2.78v.09a4.35,4.35,0,0,1-.42,1.94,3.14,3.14,0,0,1-1.18,1.34,3.25,3.25,0,0,1-1.77.47,3.08,3.08,0,0,1-2.43-1,4,4,0,0,1-.94-2.77Zm1.28.15a3.19,3.19,0,0,0,.57,2,1.94,1.94,0,0,0,3.06,0,3.54,3.54,0,0,0,.56-2.12,3.18,3.18,0,0,0-.57-2,1.86,1.86,0,0,0-1.54-.76,1.81,1.81,0,0,0-1.51.75A3.46,3.46,0,0,0,137.34,375.64Z" transform="translate(-17.18 -23.26)"/><path class="cls-12" d="M149.57,370.07v1.79H151v1h-1.38v4.59a1.05,1.05,0,0,0,.18.67.76.76,0,0,0,.63.22,3.54,3.54,0,0,0,.6-.08v1a3.7,3.7,0,0,1-1,.13,1.58,1.58,0,0,1-1.28-.51,2.18,2.18,0,0,1-.43-1.45v-4.59H147v-1h1.35v-1.79Z" transform="translate(-17.18 -23.26)"/><path class="cls-12" d="M155.49,379.39a3.23,3.23,0,0,1-2.45-1,3.71,3.71,0,0,1-.94-2.65v-.23a4.41,4.41,0,0,1,.42-2,3.26,3.26,0,0,1,1.18-1.36,3,3,0,0,1,1.63-.49,2.79,2.79,0,0,1,2.25.95,4.15,4.15,0,0,1,.8,2.73v.52h-5a2.63,2.63,0,0,0,.63,1.77,2,2,0,0,0,1.56.67,2.26,2.26,0,0,0,1.14-.27,2.79,2.79,0,0,0,.81-.73l.77.61A3.11,3.11,0,0,1,155.49,379.39Zm-.16-6.63a1.69,1.69,0,0,0-1.28.56,2.66,2.66,0,0,0-.64,1.56h3.7v-.09a2.39,2.39,0,0,0-.52-1.5A1.6,1.6,0,0,0,155.33,372.76Zm.62-4h1.53l-1.83,2h-1Z" transform="translate(-17.18 -23.26)"/><path class="cls-12" d="M162.81,378.36A1.79,1.79,0,0,0,164,378a1.43,1.43,0,0,0,.56-1h1.2a2.39,2.39,0,0,1-.44,1.21,2.83,2.83,0,0,1-1.08.91,3.31,3.31,0,0,1-3.83-.66,4.07,4.07,0,0,1-.89-2.76v-.21a4.37,4.37,0,0,1,.4-1.92,2.92,2.92,0,0,1,1.14-1.31,3.22,3.22,0,0,1,1.75-.47,3,3,0,0,1,2.07.75,2.68,2.68,0,0,1,.88,1.93h-1.2a1.81,1.81,0,0,0-.54-1.18,1.74,1.74,0,0,0-1.21-.46,1.77,1.77,0,0,0-1.49.7,3.2,3.2,0,0,0-.53,2v.24a3.19,3.19,0,0,0,.52,2A1.78,1.78,0,0,0,162.81,378.36Z" transform="translate(-17.18 -23.26)"/><path class="cls-12" d="M168.36,371.86l0,.93a2.69,2.69,0,0,1,2.21-1.07c1.56,0,2.35.89,2.37,2.65v4.89h-1.27v-4.9a1.68,1.68,0,0,0-.37-1.18,1.46,1.46,0,0,0-1.11-.38,1.82,1.82,0,0,0-1.08.33,2.2,2.2,0,0,0-.73.86v5.27h-1.26v-7.4Z" transform="translate(-17.18 -23.26)"/><path class="cls-12" d="M174.9,369.9a.73.73,0,0,1,.19-.52.69.69,0,0,1,.55-.21.74.74,0,0,1,.57.21.77.77,0,0,1,.19.52.69.69,0,0,1-.76.72.69.69,0,0,1-.55-.21A.7.7,0,0,1,174.9,369.9Zm1.37,9.36H175v-7.4h1.27Z" transform="translate(-17.18 -23.26)"/><path class="cls-12" d="M181.26,378.36a1.79,1.79,0,0,0,1.18-.41,1.43,1.43,0,0,0,.56-1h1.2a2.39,2.39,0,0,1-.44,1.21,2.83,2.83,0,0,1-1.08.91,3.31,3.31,0,0,1-3.83-.66,4.07,4.07,0,0,1-.89-2.76v-.21a4.37,4.37,0,0,1,.4-1.92,2.92,2.92,0,0,1,1.14-1.31,3.22,3.22,0,0,1,1.75-.47,3,3,0,0,1,2.07.75,2.68,2.68,0,0,1,.88,1.93H183a1.81,1.81,0,0,0-.54-1.18,1.74,1.74,0,0,0-1.21-.46,1.77,1.77,0,0,0-1.49.7,3.2,3.2,0,0,0-.53,2v.24a3.19,3.19,0,0,0,.52,2A1.78,1.78,0,0,0,181.26,378.36Z" transform="translate(-17.18 -23.26)"/><path class="cls-12" d="M185.28,375.49a4.43,4.43,0,0,1,.43-1.95,3.17,3.17,0,0,1,2.93-1.82,3.1,3.1,0,0,1,2.44,1,4,4,0,0,1,.94,2.78v.09a4.35,4.35,0,0,1-.42,1.94,3.14,3.14,0,0,1-1.18,1.34,3.25,3.25,0,0,1-1.77.47,3.08,3.08,0,0,1-2.43-1,4,4,0,0,1-.94-2.77Zm1.27.15a3.19,3.19,0,0,0,.58,2,1.82,1.82,0,0,0,1.52.74,1.8,1.8,0,0,0,1.53-.75,3.47,3.47,0,0,0,.57-2.12,3.12,3.12,0,0,0-.58-2,1.83,1.83,0,0,0-1.53-.76,1.8,1.8,0,0,0-1.51.75A3.46,3.46,0,0,0,186.55,375.64Z" transform="translate(-17.18 -23.26)"/></g><g class="cls-2"><path class="cls-12" d="M70.42,392.22a10.81,10.81,0,0,1,.41-3,8.56,8.56,0,0,1,1.24-2.58,5.11,5.11,0,0,1,1.7-1.64l.26.83a5.44,5.44,0,0,0-1.64,2.34,10.25,10.25,0,0,0-.7,3.52v.58a10.21,10.21,0,0,0,1,4.58A5.63,5.63,0,0,0,74,398.7l-.26.77A5.41,5.41,0,0,1,72,397.78,9.56,9.56,0,0,1,70.42,392.22Z" transform="translate(-17.18 -23.26)"/><path class="cls-12" d="M81.5,392.64a4.45,4.45,0,0,1-.77,2.72,2.47,2.47,0,0,1-2.09,1,2.7,2.7,0,0,1-2.12-.85v3.56H75.25V388.86h1.16l.06.82a2.6,2.6,0,0,1,2.15-1,2.51,2.51,0,0,1,2.1,1,4.46,4.46,0,0,1,.78,2.8Zm-1.26-.14a3.25,3.25,0,0,0-.54-2,1.71,1.71,0,0,0-1.46-.72,1.85,1.85,0,0,0-1.72,1v3.53a1.84,1.84,0,0,0,1.73,1,1.72,1.72,0,0,0,1.45-.72A3.53,3.53,0,0,0,80.24,392.5Z" transform="translate(-17.18 -23.26)"/><path class="cls-12" d="M87.67,396.26a2.7,2.7,0,0,1-.17-.78,2.82,2.82,0,0,1-2.11.91,2.59,2.59,0,0,1-1.79-.61,2,2,0,0,1-.7-1.57,2.11,2.11,0,0,1,.87-1.8,4.19,4.19,0,0,1,2.47-.64h1.24v-.58a1.42,1.42,0,0,0-.4-1.05,1.58,1.58,0,0,0-1.17-.4,1.92,1.92,0,0,0-1.14.34,1,1,0,0,0-.45.83H83.05a1.77,1.77,0,0,1,.39-1.07A2.73,2.73,0,0,1,84.5,389a3.63,3.63,0,0,1,1.48-.31,3,3,0,0,1,2,.64,2.34,2.34,0,0,1,.75,1.76v3.41a4.21,4.21,0,0,0,.26,1.62v.11Zm-2.1-1a2.25,2.25,0,0,0,1.13-.3,1.93,1.93,0,0,0,.78-.8v-1.52h-1c-1.55,0-2.32.45-2.32,1.36a1.13,1.13,0,0,0,.4.93A1.52,1.52,0,0,0,85.57,395.29Z" transform="translate(-17.18 -23.26)"/><path class="cls-12" d="M90.41,392.5a4.32,4.32,0,0,1,.81-2.74,2.74,2.74,0,0,1,4.17-.15v-3.85h1.27v10.5H95.49l-.06-.8a2.57,2.57,0,0,1-2.11.93,2.53,2.53,0,0,1-2.1-1.05,4.39,4.39,0,0,1-.81-2.75Zm1.27.14a3.25,3.25,0,0,0,.52,2,1.67,1.67,0,0,0,1.43.71,1.84,1.84,0,0,0,1.76-1.08v-3.4a1.87,1.87,0,0,0-1.74-1,1.68,1.68,0,0,0-1.45.72A3.54,3.54,0,0,0,91.68,392.64Z" transform="translate(-17.18 -23.26)"/><path class="cls-12" d="M102.19,390a3.05,3.05,0,0,0-.62-.05A1.67,1.67,0,0,0,99.88,391v5.25H98.62v-7.4h1.23l0,.86a2,2,0,0,1,1.76-1,1.3,1.3,0,0,1,.56.1Z" transform="translate(-17.18 -23.26)"/><path class="cls-12" d="M107.65,396.26a3,3,0,0,1-.18-.78,2.82,2.82,0,0,1-2.11.91,2.63,2.63,0,0,1-1.79-.61,2,2,0,0,1-.7-1.57,2.1,2.1,0,0,1,.88-1.8,4.17,4.17,0,0,1,2.47-.64h1.23v-.58a1.39,1.39,0,0,0-.4-1.05,1.55,1.55,0,0,0-1.17-.4,1.87,1.87,0,0,0-1.13.34,1,1,0,0,0-.46.83H103a1.77,1.77,0,0,1,.39-1.07,2.76,2.76,0,0,1,1.07-.81,3.6,3.6,0,0,1,1.48-.31,3,3,0,0,1,2,.64,2.27,2.27,0,0,1,.75,1.76v3.41a4.21,4.21,0,0,0,.26,1.62v.11Zm.87-10.28a1.68,1.68,0,0,1-.42,1.19,1.35,1.35,0,0,1-1,.46,1.39,1.39,0,0,1-.48-.07,2.33,2.33,0,0,1-.54-.28,2.22,2.22,0,0,0-.48-.25,1.16,1.16,0,0,0-.34,0,.6.6,0,0,0-.47.22.73.73,0,0,0-.2.55l-.85-.05a1.81,1.81,0,0,1,.41-1.21,1.34,1.34,0,0,1,1.05-.48,1.14,1.14,0,0,1,.43.07,2.92,2.92,0,0,1,.52.27,4.12,4.12,0,0,0,.51.26,1.12,1.12,0,0,0,.38.06.6.6,0,0,0,.49-.24.8.8,0,0,0,.2-.54Zm-3,9.31a2.28,2.28,0,0,0,1.13-.3,2,2,0,0,0,.77-.8v-1.52h-1c-1.55,0-2.33.45-2.33,1.36a1.16,1.16,0,0,0,.4.93A1.53,1.53,0,0,0,105.55,395.29Z" transform="translate(-17.18 -23.26)"/><path class="cls-12" d="M110.36,392.49a4.3,4.3,0,0,1,.43-1.95A3.11,3.11,0,0,1,112,389.2a3.2,3.2,0,0,1,1.74-.48,3.1,3.1,0,0,1,2.44,1,4,4,0,0,1,.94,2.78v.09a4.35,4.35,0,0,1-.42,1.94,3.14,3.14,0,0,1-1.18,1.34,3.25,3.25,0,0,1-1.77.47,3.12,3.12,0,0,1-2.44-1,4,4,0,0,1-.93-2.77Zm1.27.15a3.19,3.19,0,0,0,.57,2,1.94,1.94,0,0,0,3.06,0,3.47,3.47,0,0,0,.57-2.12,3.12,3.12,0,0,0-.58-2,1.83,1.83,0,0,0-1.53-.76,1.8,1.8,0,0,0-1.51.75A3.4,3.4,0,0,0,111.63,392.64Z" transform="translate(-17.18 -23.26)"/><path class="cls-12" d="M121.84,392.5a4.32,4.32,0,0,1,.81-2.74,2.54,2.54,0,0,1,2.11-1,2.59,2.59,0,0,1,2.06.89v-3.85h1.26v10.5h-1.16l-.06-.8a2.59,2.59,0,0,1-2.12.93,2.53,2.53,0,0,1-2.09-1.05,4.39,4.39,0,0,1-.81-2.75Zm1.26.14a3.32,3.32,0,0,0,.52,2,1.7,1.7,0,0,0,1.44.71,1.85,1.85,0,0,0,1.76-1.08v-3.4a1.87,1.87,0,0,0-1.75-1,1.69,1.69,0,0,0-1.45.72A3.62,3.62,0,0,0,123.1,392.64Z" transform="translate(-17.18 -23.26)"/><path class="cls-12" d="M133.11,396.39a3.23,3.23,0,0,1-2.45-1,3.71,3.71,0,0,1-.94-2.65v-.23a4.41,4.41,0,0,1,.42-2,3.26,3.26,0,0,1,1.18-1.36,3,3,0,0,1,1.63-.49,2.79,2.79,0,0,1,2.25.95,4.15,4.15,0,0,1,.8,2.73v.52h-5a2.59,2.59,0,0,0,.64,1.77,2,2,0,0,0,1.55.67,2.2,2.2,0,0,0,1.13-.27,2.59,2.59,0,0,0,.82-.73l.77.61A3.11,3.11,0,0,1,133.11,396.39Zm-.16-6.63a1.69,1.69,0,0,0-1.28.56,2.66,2.66,0,0,0-.64,1.56h3.7v-.09a2.39,2.39,0,0,0-.52-1.5A1.6,1.6,0,0,0,133,389.76Z" transform="translate(-17.18 -23.26)"/><path class="cls-12" d="M144,396.39a3.21,3.21,0,0,1-2.44-1,3.68,3.68,0,0,1-1-2.65v-.23a4.41,4.41,0,0,1,.42-2,3.34,3.34,0,0,1,1.18-1.36,3,3,0,0,1,1.64-.49,2.77,2.77,0,0,1,2.24.95,4.15,4.15,0,0,1,.8,2.73v.52h-5a2.64,2.64,0,0,0,.64,1.77,2,2,0,0,0,1.55.67,2.24,2.24,0,0,0,1.14-.27,2.67,2.67,0,0,0,.81-.73l.77.61A3.11,3.11,0,0,1,144,396.39Zm-.15-6.63a1.71,1.71,0,0,0-1.29.56,2.72,2.72,0,0,0-.64,1.56h3.7v-.09a2.33,2.33,0,0,0-.52-1.5A1.57,1.57,0,0,0,143.84,389.76Z" transform="translate(-17.18 -23.26)"/><path class="cls-12" d="M149.54,388.86l0,.93a2.69,2.69,0,0,1,2.21-1.07c1.57,0,2.36.89,2.37,2.65v4.89h-1.27v-4.9a1.68,1.68,0,0,0-.36-1.18,1.49,1.49,0,0,0-1.12-.38,1.82,1.82,0,0,0-1.08.33,2.1,2.1,0,0,0-.72.86v5.27h-1.27v-7.4Z" transform="translate(-17.18 -23.26)"/><path class="cls-12" d="M157.78,387.07v1.79h1.38v1h-1.38v4.59a1,1,0,0,0,.19.67.76.76,0,0,0,.63.22,3.54,3.54,0,0,0,.6-.08v1a3.7,3.7,0,0,1-1,.13,1.58,1.58,0,0,1-1.28-.51,2.18,2.18,0,0,1-.43-1.45v-4.59h-1.35v-1h1.35v-1.79Z" transform="translate(-17.18 -23.26)"/><path class="cls-12" d="M164.21,390a3,3,0,0,0-.62-.05A1.67,1.67,0,0,0,161.9,391v5.25h-1.26v-7.4h1.23l0,.86a2,2,0,0,1,1.76-1,1.3,1.3,0,0,1,.56.1Z" transform="translate(-17.18 -23.26)"/><path class="cls-12" d="M169.67,396.26a3,3,0,0,1-.18-.78,2.82,2.82,0,0,1-2.1.91,2.64,2.64,0,0,1-1.8-.61,2,2,0,0,1-.7-1.57,2.1,2.1,0,0,1,.88-1.8,4.19,4.19,0,0,1,2.47-.64h1.23v-.58a1.42,1.42,0,0,0-.39-1.05,1.58,1.58,0,0,0-1.17-.4,1.92,1.92,0,0,0-1.14.34,1,1,0,0,0-.46.83H165a1.72,1.72,0,0,1,.4-1.07,2.66,2.66,0,0,1,1.06-.81,3.6,3.6,0,0,1,1.48-.31,3,3,0,0,1,2,.64,2.31,2.31,0,0,1,.76,1.76v3.41a4,4,0,0,0,.26,1.62v.11Zm-2.1-1a2.28,2.28,0,0,0,1.13-.3,2,2,0,0,0,.77-.8v-1.52h-1c-1.55,0-2.32.45-2.32,1.36a1.15,1.15,0,0,0,.39.93A1.56,1.56,0,0,0,167.57,395.29Z" transform="translate(-17.18 -23.26)"/><path class="cls-12" d="M172.41,392.5a4.32,4.32,0,0,1,.81-2.74,2.74,2.74,0,0,1,4.17-.15v-3.85h1.26v10.5h-1.16l-.06-.8a2.58,2.58,0,0,1-2.11.93,2.53,2.53,0,0,1-2.1-1.05,4.39,4.39,0,0,1-.81-2.75Zm1.27.14a3.25,3.25,0,0,0,.52,2,1.67,1.67,0,0,0,1.43.71,1.85,1.85,0,0,0,1.76-1.08v-3.4a1.87,1.87,0,0,0-1.75-1,1.67,1.67,0,0,0-1.44.72A3.54,3.54,0,0,0,173.68,392.64Z" transform="translate(-17.18 -23.26)"/><path class="cls-12" d="M185.18,396.26a3,3,0,0,1-.18-.78,2.8,2.8,0,0,1-2.1.91,2.64,2.64,0,0,1-1.8-.61,2,2,0,0,1-.7-1.57,2.12,2.12,0,0,1,.88-1.8,4.19,4.19,0,0,1,2.47-.64H185v-.58a1.42,1.42,0,0,0-.39-1.05,1.58,1.58,0,0,0-1.17-.4,1.92,1.92,0,0,0-1.14.34,1,1,0,0,0-.46.83h-1.27a1.72,1.72,0,0,1,.4-1.07A2.66,2.66,0,0,1,182,389a3.63,3.63,0,0,1,1.48-.31,3,3,0,0,1,2,.64,2.34,2.34,0,0,1,.75,1.76v3.41a4,4,0,0,0,.26,1.62v.11Zm-2.1-1a2.28,2.28,0,0,0,1.13-.3,1.9,1.9,0,0,0,.77-.8v-1.52h-1c-1.55,0-2.32.45-2.32,1.36a1.15,1.15,0,0,0,.39.93A1.56,1.56,0,0,0,183.08,395.29Z" transform="translate(-17.18 -23.26)"/><path class="cls-12" d="M191.15,392.29a10.45,10.45,0,0,1-.4,2.92,9,9,0,0,1-1.22,2.58,5.34,5.34,0,0,1-1.73,1.68l-.27-.77a5.45,5.45,0,0,0,1.69-2.51,10.76,10.76,0,0,0,.66-3.77v-.22a11.23,11.23,0,0,0-.3-2.66,8.83,8.83,0,0,0-.84-2.22,5,5,0,0,0-1.21-1.52l.27-.77a5.45,5.45,0,0,1,1.72,1.66,8.75,8.75,0,0,1,1.22,2.58A10.86,10.86,0,0,1,191.15,392.29Z" transform="translate(-17.18 -23.26)"/></g></g></g></svg>
