<svg id="Layer_1" data-name="Layer 1" xmlns="http://www.w3.org/2000/svg" viewBox="0 0 197 380"><defs><style>.cls-1{fill:#FFFAF6;}.cls-2{fill:#fff;}.cls-3{fill:#eae8e5;}.cls-4{fill:#FFCD52;}.cls-5{fill:#33385c;}.cls-6{fill:#454b6d;}.cls-7{fill:#4cc3ed;}.cls-8{fill:#26BF64;}.cls-9{isolation:isolate;}.cls-10{fill:#26BF64;}.cls-11{fill:#707071;}.cls-12{fill:#C66D00;}</style></defs><g id="resI"><g id="Group_14514" data-name="Group 14514"><path id="Rectangle_17486" data-name="Rectangle 17486" class="cls-1" d="M27.13,23.26h177a10,10,0,0,1,10,10v360a10,10,0,0,1-10,10h-177a10,10,0,0,1-10-10v-360A10,10,0,0,1,27.13,23.26Z" transform="translate(-17.13 -23.26)"/></g><g id="Group_14518" data-name="Group 14518"><g id="Group_14444" data-name="Group 14444"><g id="home"><g id="Group_14479" data-name="Group 14479"><path id="Path_13312" data-name="Path 13312" class="cls-2" d="M69.58,60.13l-11-10.64a.83.83,0,0,0-1.15,0l-11,10.64A.83.83,0,0,0,47,61.56h1.46V73.19a.83.83,0,0,0,.83.83h5.82a.83.83,0,0,0,.83-.83V66.54h4.15v6.65a.83.83,0,0,0,.83.83H66.7a.83.83,0,0,0,.83-.83V61.56H69a.83.83,0,0,0,.83-.83.73.73,0,0,0-.24-.6Zm-2,.6a.83.83,0,0,0-.83.83V73.19H60.9V66.54a.83.83,0,0,0-.83-.83H55.92a.83.83,0,0,0-.83.83v6.65H49.27V61.56a.83.83,0,0,0-.83-.83H47L58,50.09,69,60.73Z" transform="translate(-17.13 -23.26)"/></g></g><g id="Group_14517" data-name="Group 14517"><g id="home-2" data-name="home"><path id="Path_13316" data-name="Path 13316" class="cls-3" d="M58,41.59,42.1,52.36V77H73.83V52.36Z" transform="translate(-17.13 -23.26)"/><path id="Path_13317" data-name="Path 13317" class="cls-4" d="M48.06,63.8h7.27V77H48.06Z" transform="translate(-17.13 -23.26)"/><path id="Path_13318" data-name="Path 13318" class="cls-5" d="M62.6,69.75h9.26v2.64H62.6Z" transform="translate(-17.13 -23.26)"/><g id="Group_14517-2" data-name="Group 14517-2"><path id="Path_13319" data-name="Path 13319" class="cls-6" d="M60.62,77V67.76l1.32-2,1.32,2V77Z" transform="translate(-17.13 -23.26)"/><path id="Path_13320" data-name="Path 13320" class="cls-6" d="M65.91,77V67.76l1.32-2,1.32,2V77Z" transform="translate(-17.13 -23.26)"/><path id="Path_13321" data-name="Path 13321" class="cls-6" d="M71.2,77V67.76l1.32-2,1.32,2V77Z" transform="translate(-17.13 -23.26)"/></g><path id="Path_13322" data-name="Path 13322" class="cls-7" d="M60,57.85H56a2,2,0,0,1-2-2v-4a2,2,0,0,1,2-2h4a2,2,0,0,1,2,2h0v4a2,2,0,0,1-2,2Z" transform="translate(-17.13 -23.26)"/><path id="Path_13323" data-name="Path 13323" class="cls-6" d="M61.94,53.22h-3.3V49.91H57.32v3.31H54v1.32h3.31v3.31h1.32V54.54H62Z" transform="translate(-17.13 -23.26)"/><path id="Path_13324" data-name="Path 13324" class="cls-6" d="M52,69.75h1.32v1.32H52Z" transform="translate(-17.13 -23.26)"/><path id="Path_13325" data-name="Path 13325" class="cls-6" d="M41.45,71.73h1.32V77H41.45Z" transform="translate(-17.13 -23.26)"/><path id="Path_13326" data-name="Path 13326" class="cls-8" d="M45.41,69.08c0,2.37-1.48,4-3.31,4s-3.31-1.59-3.31-4c0-1.55,1.41-5.3,2.39-7.72a1,1,0,0,1,1.84,0C44,63.78,45.41,67.54,45.41,69.08Z" transform="translate(-17.13 -23.26)"/><path id="Path_13327" data-name="Path 13327" class="cls-6" d="M38.14,76.36H77.81v1.32H38.14Z" transform="translate(-17.13 -23.26)"/><path id="Path_13328" data-name="Path 13328" class="cls-4" d="M75.74,53.65,58,41.59,40.2,53.65l-1.49-2.19L58,38.39,77.21,51.46Z" transform="translate(-17.13 -23.26)"/></g></g></g></g><g class="cls-9"><path class="cls-10" d="M102.43,62.88h-1.52v3.38H99V57h3.44a3.84,3.84,0,0,1,2.52.73,2.48,2.48,0,0,1,.89,2.06,2.82,2.82,0,0,1-.41,1.58,2.74,2.74,0,0,1-1.24,1l2,3.78v.09h-2Zm-1.52-1.55h1.53a1.62,1.62,0,0,0,1.12-.36,1.33,1.33,0,0,0,.39-1,1.4,1.4,0,0,0-.37-1,1.55,1.55,0,0,0-1.14-.37h-1.53Z" transform="translate(-17.13 -23.26)"/><path class="cls-10" d="M112.86,62.25h-3.65v2.48h4.29v1.53h-6.2V57h6.18v1.54h-4.27v2.2h3.65Z" transform="translate(-17.13 -23.26)"/><path class="cls-10" d="M119.41,63.83A1,1,0,0,0,119,63a4.94,4.94,0,0,0-1.37-.6,9.65,9.65,0,0,1-1.56-.64,2.56,2.56,0,0,1-1.58-2.29,2.22,2.22,0,0,1,.42-1.33,2.75,2.75,0,0,1,1.22-.92,4.5,4.5,0,0,1,1.77-.33,4.18,4.18,0,0,1,1.77.36,2.84,2.84,0,0,1,1.2,1,2.71,2.71,0,0,1,.43,1.49h-1.91a1.23,1.23,0,0,0-.4-1,1.6,1.6,0,0,0-1.12-.35,1.74,1.74,0,0,0-1.09.29.93.93,0,0,0-.38.78.88.88,0,0,0,.45.75,4.65,4.65,0,0,0,1.34.57A5.8,5.8,0,0,1,120.57,62a2.39,2.39,0,0,1,.75,1.8,2.23,2.23,0,0,1-.91,1.88,4,4,0,0,1-2.45.68A4.74,4.74,0,0,1,116,66a3,3,0,0,1-1.33-1.07,2.69,2.69,0,0,1-.46-1.57h1.91c0,1,.61,1.53,1.82,1.53A1.71,1.71,0,0,0,119,64.6.88.88,0,0,0,119.41,63.83Z" transform="translate(-17.13 -23.26)"/><path class="cls-10" d="M124.63,66.26h-1.9V57h1.9Z" transform="translate(-17.13 -23.26)"/><path class="cls-10" d="M126.39,66.26V57h2.85a4.38,4.38,0,0,1,2.18.54,3.85,3.85,0,0,1,1.5,1.57,4.79,4.79,0,0,1,.54,2.3v.42a4.84,4.84,0,0,1-.53,2.29,3.76,3.76,0,0,1-1.5,1.56,4.35,4.35,0,0,1-2.17.56Zm1.91-7.7v6.17h.92a2.11,2.11,0,0,0,1.71-.73,3.33,3.33,0,0,0,.6-2.09v-.49a3.38,3.38,0,0,0-.58-2.13,2.05,2.05,0,0,0-1.71-.73Z" transform="translate(-17.13 -23.26)"/><path class="cls-10" d="M140.4,62.25h-3.65v2.48H141v1.53h-6.2V57H141v1.54h-4.28v2.2h3.65Z" transform="translate(-17.13 -23.26)"/><path class="cls-10" d="M149.67,66.26h-1.9l-3.71-6.08v6.08h-1.9V57h1.9l3.71,6.09V57h1.9Z" transform="translate(-17.13 -23.26)"/><path class="cls-10" d="M158.59,63.18a3.28,3.28,0,0,1-1.1,2.35,3.88,3.88,0,0,1-2.62.85,3.48,3.48,0,0,1-2.8-1.19,4.91,4.91,0,0,1-1-3.29v-.56a5.45,5.45,0,0,1,.48-2.35,3.49,3.49,0,0,1,1.34-1.56,3.78,3.78,0,0,1,2-.54,3.72,3.72,0,0,1,2.57.86,3.46,3.46,0,0,1,1.13,2.4h-1.9a1.93,1.93,0,0,0-.5-1.3,1.84,1.84,0,0,0-1.3-.4,1.64,1.64,0,0,0-1.43.68,3.9,3.9,0,0,0-.49,2.12V62a4.1,4.1,0,0,0,.46,2.19,1.59,1.59,0,0,0,1.43.69,1.57,1.57,0,0,0,1.82-1.65Z" transform="translate(-17.13 -23.26)"/><path class="cls-10" d="M161.87,66.26H160V57h1.91Z" transform="translate(-17.13 -23.26)"/><path class="cls-10" d="M169,64.35h-3.34L165,66.26h-2L166.4,57h1.77l3.46,9.24h-2Zm-2.82-1.54h2.31l-1.16-3.46Z" transform="translate(-17.13 -23.26)"/><path class="cls-10" d="M174.4,64.73h4v1.53h-5.95V57h1.91Z" transform="translate(-17.13 -23.26)"/><path class="cls-10" d="M184.79,66.26h-1.9V57h1.9Z" transform="translate(-17.13 -23.26)"/><path class="cls-10" d="M188.58,66.26h-1.9V57h1.9Z" transform="translate(-17.13 -23.26)"/></g><g class="cls-9"><path class="cls-10" d="M127.5,80.9a4.11,4.11,0,0,1-.72,2.53,2.31,2.31,0,0,1-2,.95,2.38,2.38,0,0,1-2-.92l-.06.8h-1.08V74.51h1.18v3.63a2.4,2.4,0,0,1,2-.88,2.35,2.35,0,0,1,2,.95,4.24,4.24,0,0,1,.71,2.59Zm-1.17-.13a3.19,3.19,0,0,0-.47-1.86,1.54,1.54,0,0,0-1.33-.65,1.72,1.72,0,0,0-1.67,1.08v3a1.77,1.77,0,0,0,1.68,1.08,1.54,1.54,0,0,0,1.32-.66A3.37,3.37,0,0,0,126.33,80.77Z" transform="translate(-17.13 -23.26)"/><path class="cls-10" d="M129,75.57a.68.68,0,0,1,.18-.48.78.78,0,0,1,1,0,.68.68,0,0,1,.18.48.64.64,0,0,1-.18.47.81.81,0,0,1-1,0A.64.64,0,0,1,129,75.57Zm1.27,8.69h-1.17V77.39h1.17Z" transform="translate(-17.13 -23.26)"/><path class="cls-10" d="M132.71,84.26v-6h-1.08v-.91h1.08v-.7A2.35,2.35,0,0,1,133.3,75a2.23,2.23,0,0,1,1.67-.6,3.21,3.21,0,0,1,.81.1l-.07,1a3.21,3.21,0,0,0-.63-.06,1.11,1.11,0,0,0-.88.34,1.33,1.33,0,0,0-.32,1v.73h1.47v.91h-1.47v6Z" transform="translate(-17.13 -23.26)"/><path class="cls-10" d="M140.89,84.26a2.36,2.36,0,0,1-.17-.73,2.6,2.6,0,0,1-1.95.85,2.43,2.43,0,0,1-1.67-.57,1.87,1.87,0,0,1-.65-1.46,1.92,1.92,0,0,1,.82-1.66,3.78,3.78,0,0,1,2.29-.6h1.14v-.54a1.31,1.31,0,0,0-.37-1,1.47,1.47,0,0,0-1.08-.36,1.64,1.64,0,0,0-1.05.32.91.91,0,0,0-.43.76h-1.18a1.63,1.63,0,0,1,.36-1,2.62,2.62,0,0,1,1-.76,3.47,3.47,0,0,1,1.38-.28,2.7,2.7,0,0,1,1.86.6,2.14,2.14,0,0,1,.7,1.63v3.16a3.94,3.94,0,0,0,.24,1.51v.1Zm-1.95-.9a2.07,2.07,0,0,0,1.05-.28,1.71,1.71,0,0,0,.71-.75v-1.4h-.92q-2.16,0-2.16,1.26a1.08,1.08,0,0,0,.37.86A1.41,1.41,0,0,0,138.94,83.36ZM140,74.51h1.43l-1.71,1.86h-.94Z" transform="translate(-17.13 -23.26)"/><path class="cls-10" d="M147.72,82.44a.85.85,0,0,0-.36-.74,3.45,3.45,0,0,0-1.25-.46,6,6,0,0,1-1.42-.45,1.93,1.93,0,0,1-.77-.64,1.48,1.48,0,0,1-.25-.87,1.79,1.79,0,0,1,.71-1.43,2.79,2.79,0,0,1,1.83-.59,2.82,2.82,0,0,1,1.89.61,1.92,1.92,0,0,1,.73,1.54h-1.18a1.07,1.07,0,0,0-.41-.83,1.52,1.52,0,0,0-1-.35,1.6,1.6,0,0,0-1,.28.87.87,0,0,0-.36.73.71.71,0,0,0,.34.64,4.21,4.21,0,0,0,1.21.41,6.46,6.46,0,0,1,1.43.47,2.1,2.1,0,0,1,.81.66,1.64,1.64,0,0,1,.26.93,1.74,1.74,0,0,1-.74,1.48,3.07,3.07,0,0,1-1.91.55,3.4,3.4,0,0,1-1.46-.29,2.34,2.34,0,0,1-1-.81,2,2,0,0,1-.36-1.14h1.18a1.22,1.22,0,0,0,.47.94,1.82,1.82,0,0,0,1.16.35,1.88,1.88,0,0,0,1.07-.27A.83.83,0,0,0,147.72,82.44Z" transform="translate(-17.13 -23.26)"/><path class="cls-10" d="M150.43,75.57a.72.72,0,0,1,.17-.48.78.78,0,0,1,1,0,.68.68,0,0,1,.18.48.64.64,0,0,1-.18.47.81.81,0,0,1-1,0A.68.68,0,0,1,150.43,75.57Zm1.27,8.69h-1.18V77.39h1.18Z" transform="translate(-17.13 -23.26)"/><path class="cls-10" d="M156.33,83.43a1.66,1.66,0,0,0,1.1-.39,1.33,1.33,0,0,0,.52-1h1.11a2.14,2.14,0,0,1-.41,1.13,2.69,2.69,0,0,1-1,.85,3.08,3.08,0,0,1-3.55-.62,3.75,3.75,0,0,1-.83-2.56v-.2a4,4,0,0,1,.37-1.78,2.81,2.81,0,0,1,1.06-1.22,3.06,3.06,0,0,1,1.62-.43,2.72,2.72,0,0,1,1.92.7,2.44,2.44,0,0,1,.82,1.79H158a1.56,1.56,0,0,0-.51-1.09,1.54,1.54,0,0,0-1.12-.43,1.62,1.62,0,0,0-1.38.64,3,3,0,0,0-.49,1.86V81a3,3,0,0,0,.48,1.83A1.69,1.69,0,0,0,156.33,83.43Z" transform="translate(-17.13 -23.26)"/><path class="cls-10" d="M160.07,80.76a4,4,0,0,1,.4-1.81,2.92,2.92,0,0,1,1.1-1.25,3,3,0,0,1,1.62-.44,2.93,2.93,0,0,1,2.27,1,3.78,3.78,0,0,1,.86,2.59v.08a4.17,4.17,0,0,1-.38,1.8,3,3,0,0,1-1.1,1.24,3,3,0,0,1-1.64.44,2.86,2.86,0,0,1-2.26-1,3.69,3.69,0,0,1-.87-2.57Zm1.18.14a3,3,0,0,0,.53,1.83,1.78,1.78,0,0,0,2.84,0,3.2,3.2,0,0,0,.53-2,2.93,2.93,0,0,0-.54-1.83,1.79,1.79,0,0,0-2.83,0A3.22,3.22,0,0,0,161.25,80.9Z" transform="translate(-17.13 -23.26)"/></g><g id="Group_14486" data-name="Group 14486"><g class="cls-9"><path class="cls-10" d="M55.35,376.1a3.75,3.75,0,0,1-1.17,2.44,3.82,3.82,0,0,1-2.61.85,3.5,3.5,0,0,1-2.82-1.26,5.07,5.07,0,0,1-1.07-3.38v-1a5.65,5.65,0,0,1,.5-2.44,3.77,3.77,0,0,1,1.4-1.62,4,4,0,0,1,2.11-.56,3.59,3.59,0,0,1,2.54.88,3.73,3.73,0,0,1,1.12,2.45H54a2.82,2.82,0,0,0-.75-1.72,2.22,2.22,0,0,0-1.59-.54,2.33,2.33,0,0,0-2,.93,4.24,4.24,0,0,0-.72,2.65v1a4.39,4.39,0,0,0,.68,2.58,2.18,2.18,0,0,0,1.89,1,2.53,2.53,0,0,0,1.68-.49A2.77,2.77,0,0,0,54,376.1Z" transform="translate(-17.13 -23.26)"/><path class="cls-10" d="M56.6,375.49a4.43,4.43,0,0,1,.43-1.95A3.17,3.17,0,0,1,60,371.72a3.1,3.1,0,0,1,2.44,1,4,4,0,0,1,.94,2.78v.09a4.35,4.35,0,0,1-.42,1.94,3.14,3.14,0,0,1-1.18,1.34,3.25,3.25,0,0,1-1.77.47,3.08,3.08,0,0,1-2.43-1,4,4,0,0,1-.94-2.77Zm1.28.15a3.19,3.19,0,0,0,.57,2,1.84,1.84,0,0,0,1.52.74,1.8,1.8,0,0,0,1.53-.75,3.47,3.47,0,0,0,.57-2.12,3.12,3.12,0,0,0-.58-2,1.83,1.83,0,0,0-1.53-.76,1.81,1.81,0,0,0-1.51.75A3.46,3.46,0,0,0,57.88,375.64Z" transform="translate(-17.13 -23.26)"/><path class="cls-10" d="M66.12,371.86l0,.93a2.71,2.71,0,0,1,2.22-1.07c1.56,0,2.35.89,2.36,2.65v4.89H69.48v-4.9a1.73,1.73,0,0,0-.37-1.18A1.49,1.49,0,0,0,68,372.8a1.82,1.82,0,0,0-1.08.33,2.1,2.1,0,0,0-.72.86v5.27H64.92v-7.4Z" transform="translate(-17.13 -23.26)"/><path class="cls-10" d="M73.27,379.26v-6.42H72.1v-1h1.17v-.76a2.51,2.51,0,0,1,.64-1.84,2.4,2.4,0,0,1,1.79-.65,3.26,3.26,0,0,1,.87.12l-.07,1a3.66,3.66,0,0,0-.68-.06,1.23,1.23,0,0,0-.95.36,1.47,1.47,0,0,0-.34,1v.78h1.58v1H74.53v6.42Z" transform="translate(-17.13 -23.26)"/><path class="cls-10" d="M77.51,369.9a.77.77,0,0,1,.19-.52.85.85,0,0,1,1.12,0,.73.73,0,0,1,.19.52.7.7,0,0,1-.19.51.85.85,0,0,1-1.12,0A.75.75,0,0,1,77.51,369.9Zm1.37,9.36H77.62v-7.4h1.26Z" transform="translate(-17.13 -23.26)"/><path class="cls-10" d="M84.48,373a3.05,3.05,0,0,0-.62-.05A1.67,1.67,0,0,0,82.17,374v5.25H80.91v-7.4h1.23l0,.86a2,2,0,0,1,1.76-1,1.33,1.33,0,0,1,.56.1Z" transform="translate(-17.13 -23.26)"/><path class="cls-10" d="M89.94,379.26a2.34,2.34,0,0,1-.18-.78,2.82,2.82,0,0,1-2.11.91,2.61,2.61,0,0,1-1.79-.61,2,2,0,0,1-.7-1.57,2.1,2.1,0,0,1,.88-1.8,4.15,4.15,0,0,1,2.47-.64h1.23v-.58a1.42,1.42,0,0,0-.4-1.05,1.55,1.55,0,0,0-1.17-.4,1.87,1.87,0,0,0-1.13.34,1,1,0,0,0-.46.83H85.31a1.77,1.77,0,0,1,.39-1.07,2.69,2.69,0,0,1,1.07-.81,3.6,3.6,0,0,1,1.48-.31,3,3,0,0,1,2,.64,2.34,2.34,0,0,1,.75,1.76v3.41a4.21,4.21,0,0,0,.26,1.62v.11Zm-2.1-1A2.24,2.24,0,0,0,89,378a1.93,1.93,0,0,0,.78-.8v-1.52h-1c-1.55,0-2.33.45-2.33,1.36a1.13,1.13,0,0,0,.4.93A1.53,1.53,0,0,0,87.84,378.29Z" transform="translate(-17.13 -23.26)"/><path class="cls-10" d="M102.7,375.64a4.45,4.45,0,0,1-.77,2.72,2.49,2.49,0,0,1-2.1,1,2.73,2.73,0,0,1-2.12-.85v3.56H96.45V371.86h1.16l.06.82a2.59,2.59,0,0,1,2.14-1,2.52,2.52,0,0,1,2.11,1,4.46,4.46,0,0,1,.78,2.8Zm-1.27-.14a3.25,3.25,0,0,0-.53-2,1.72,1.72,0,0,0-1.46-.72,1.87,1.87,0,0,0-1.73,1v3.53a1.86,1.86,0,0,0,1.74,1,1.72,1.72,0,0,0,1.45-.72A3.61,3.61,0,0,0,101.43,375.5Z" transform="translate(-17.13 -23.26)"/><path class="cls-10" d="M107.88,373a3.05,3.05,0,0,0-.62-.05,1.67,1.67,0,0,0-1.69,1.06v5.25H104.3v-7.4h1.24l0,.86a2,2,0,0,1,1.76-1,1.33,1.33,0,0,1,.56.1Z" transform="translate(-17.13 -23.26)"/><path class="cls-10" d="M112,379.39a3.23,3.23,0,0,1-2.45-1,3.71,3.71,0,0,1-.94-2.65v-.23a4.41,4.41,0,0,1,.42-2,3.26,3.26,0,0,1,1.18-1.36,3,3,0,0,1,1.63-.49,2.79,2.79,0,0,1,2.25.95,4.15,4.15,0,0,1,.8,2.73v.52h-5a2.63,2.63,0,0,0,.63,1.77,2,2,0,0,0,1.56.67,2.2,2.2,0,0,0,1.13-.27,2.7,2.7,0,0,0,.82-.73l.77.61A3.11,3.11,0,0,1,112,379.39Zm-.16-6.63a1.69,1.69,0,0,0-1.28.56,2.66,2.66,0,0,0-.64,1.56h3.7v-.09a2.45,2.45,0,0,0-.52-1.5A1.6,1.6,0,0,0,111.82,372.76Z" transform="translate(-17.13 -23.26)"/><path class="cls-10" d="M122.58,375.64a4.39,4.39,0,0,1-.78,2.72,2.46,2.46,0,0,1-2.09,1,2.71,2.71,0,0,1-2.12-.85v3.56h-1.26V371.86h1.15l.07.82a2.59,2.59,0,0,1,2.14-1,2.53,2.53,0,0,1,2.11,1,4.46,4.46,0,0,1,.78,2.8Zm-1.27-.14a3.32,3.32,0,0,0-.53-2,1.72,1.72,0,0,0-1.46-.72,1.87,1.87,0,0,0-1.73,1v3.53a1.86,1.86,0,0,0,1.74,1,1.72,1.72,0,0,0,1.45-.72A3.61,3.61,0,0,0,121.31,375.5Z" transform="translate(-17.13 -23.26)"/><path class="cls-10" d="M128.75,379.26a3,3,0,0,1-.18-.78,2.82,2.82,0,0,1-2.1.91,2.64,2.64,0,0,1-1.8-.61,2,2,0,0,1-.7-1.57,2.1,2.1,0,0,1,.88-1.8,4.19,4.19,0,0,1,2.47-.64h1.23v-.58a1.42,1.42,0,0,0-.39-1.05,1.58,1.58,0,0,0-1.17-.4,1.92,1.92,0,0,0-1.14.34,1,1,0,0,0-.46.83h-1.27a1.77,1.77,0,0,1,.39-1.07,2.76,2.76,0,0,1,1.07-.81,3.6,3.6,0,0,1,1.48-.31,3,3,0,0,1,2,.64,2.31,2.31,0,0,1,.76,1.76v3.41a4,4,0,0,0,.26,1.62v.11Zm-2.1-1a2.28,2.28,0,0,0,1.13-.3,2,2,0,0,0,.77-.8v-1.52h-1c-1.55,0-2.32.45-2.32,1.36a1.15,1.15,0,0,0,.39.93A1.56,1.56,0,0,0,126.65,378.29Z" transform="translate(-17.13 -23.26)"/><path class="cls-10" d="M135.37,373a3.05,3.05,0,0,0-.62-.05,1.67,1.67,0,0,0-1.69,1.06v5.25H131.8v-7.4H133l0,.86a2,2,0,0,1,1.76-1,1.3,1.3,0,0,1,.56.1Z" transform="translate(-17.13 -23.26)"/><path class="cls-10" d="M136.06,375.49a4.43,4.43,0,0,1,.43-1.95,3.17,3.17,0,0,1,2.93-1.82,3.1,3.1,0,0,1,2.44,1,4,4,0,0,1,.94,2.78v.09a4.35,4.35,0,0,1-.42,1.94,3.14,3.14,0,0,1-1.18,1.34,3.25,3.25,0,0,1-1.77.47,3.08,3.08,0,0,1-2.43-1,4,4,0,0,1-.94-2.77Zm1.28.15a3.19,3.19,0,0,0,.57,2,1.94,1.94,0,0,0,3.06,0,3.54,3.54,0,0,0,.56-2.12,3.18,3.18,0,0,0-.57-2,1.86,1.86,0,0,0-1.54-.76,1.81,1.81,0,0,0-1.51.75A3.46,3.46,0,0,0,137.34,375.64Z" transform="translate(-17.13 -23.26)"/><path class="cls-10" d="M149.57,370.07v1.79H151v1h-1.38v4.59a1.05,1.05,0,0,0,.18.67.76.76,0,0,0,.63.22,3.54,3.54,0,0,0,.6-.08v1a3.7,3.7,0,0,1-1,.13,1.58,1.58,0,0,1-1.28-.51,2.18,2.18,0,0,1-.43-1.45v-4.59H147v-1h1.35v-1.79Z" transform="translate(-17.13 -23.26)"/><path class="cls-10" d="M155.49,379.39a3.23,3.23,0,0,1-2.45-1,3.71,3.71,0,0,1-.94-2.65v-.23a4.41,4.41,0,0,1,.42-2,3.26,3.26,0,0,1,1.18-1.36,3,3,0,0,1,1.63-.49,2.79,2.79,0,0,1,2.25.95,4.15,4.15,0,0,1,.8,2.73v.52h-5a2.63,2.63,0,0,0,.63,1.77,2,2,0,0,0,1.56.67,2.26,2.26,0,0,0,1.14-.27,2.79,2.79,0,0,0,.81-.73l.77.61A3.11,3.11,0,0,1,155.49,379.39Zm-.16-6.63a1.69,1.69,0,0,0-1.28.56,2.66,2.66,0,0,0-.64,1.56h3.7v-.09a2.39,2.39,0,0,0-.52-1.5A1.6,1.6,0,0,0,155.33,372.76Zm.62-4h1.53l-1.83,2h-1Z" transform="translate(-17.13 -23.26)"/><path class="cls-10" d="M162.81,378.36A1.79,1.79,0,0,0,164,378a1.43,1.43,0,0,0,.56-1h1.2a2.39,2.39,0,0,1-.44,1.21,2.83,2.83,0,0,1-1.08.91,3.31,3.31,0,0,1-3.83-.66,4.07,4.07,0,0,1-.89-2.76v-.21a4.37,4.37,0,0,1,.4-1.92,2.92,2.92,0,0,1,1.14-1.31,3.22,3.22,0,0,1,1.75-.47,3,3,0,0,1,2.07.75,2.68,2.68,0,0,1,.88,1.93h-1.2a1.81,1.81,0,0,0-.54-1.18,1.74,1.74,0,0,0-1.21-.46,1.77,1.77,0,0,0-1.49.7,3.2,3.2,0,0,0-.53,2v.24a3.19,3.19,0,0,0,.52,2A1.78,1.78,0,0,0,162.81,378.36Z" transform="translate(-17.13 -23.26)"/><path class="cls-10" d="M168.36,371.86l0,.93a2.69,2.69,0,0,1,2.21-1.07c1.56,0,2.35.89,2.37,2.65v4.89h-1.27v-4.9a1.68,1.68,0,0,0-.37-1.18,1.46,1.46,0,0,0-1.11-.38,1.82,1.82,0,0,0-1.08.33,2.2,2.2,0,0,0-.73.86v5.27h-1.26v-7.4Z" transform="translate(-17.13 -23.26)"/><path class="cls-10" d="M174.9,369.9a.73.73,0,0,1,.19-.52.69.69,0,0,1,.55-.21.74.74,0,0,1,.57.21.77.77,0,0,1,.19.52.69.69,0,0,1-.76.72.69.69,0,0,1-.55-.21A.7.7,0,0,1,174.9,369.9Zm1.37,9.36H175v-7.4h1.27Z" transform="translate(-17.13 -23.26)"/><path class="cls-10" d="M181.26,378.36a1.79,1.79,0,0,0,1.18-.41,1.43,1.43,0,0,0,.56-1h1.2a2.39,2.39,0,0,1-.44,1.21,2.83,2.83,0,0,1-1.08.91,3.31,3.31,0,0,1-3.83-.66,4.07,4.07,0,0,1-.89-2.76v-.21a4.37,4.37,0,0,1,.4-1.92,2.92,2.92,0,0,1,1.14-1.31,3.22,3.22,0,0,1,1.75-.47,3,3,0,0,1,2.07.75,2.68,2.68,0,0,1,.88,1.93H183a1.81,1.81,0,0,0-.54-1.18,1.74,1.74,0,0,0-1.21-.46,1.77,1.77,0,0,0-1.49.7,3.2,3.2,0,0,0-.53,2v.24a3.19,3.19,0,0,0,.52,2A1.78,1.78,0,0,0,181.26,378.36Z" transform="translate(-17.13 -23.26)"/><path class="cls-10" d="M185.28,375.49a4.43,4.43,0,0,1,.43-1.95,3.17,3.17,0,0,1,2.93-1.82,3.1,3.1,0,0,1,2.44,1,4,4,0,0,1,.94,2.78v.09a4.35,4.35,0,0,1-.42,1.94,3.14,3.14,0,0,1-1.18,1.34,3.25,3.25,0,0,1-1.77.47,3.08,3.08,0,0,1-2.43-1,4,4,0,0,1-.94-2.77Zm1.27.15a3.19,3.19,0,0,0,.58,2,1.82,1.82,0,0,0,1.52.74,1.8,1.8,0,0,0,1.53-.75,3.47,3.47,0,0,0,.57-2.12,3.12,3.12,0,0,0-.58-2,1.83,1.83,0,0,0-1.53-.76,1.8,1.8,0,0,0-1.51.75A3.46,3.46,0,0,0,186.55,375.64Z" transform="translate(-17.13 -23.26)"/></g><g class="cls-9"><path class="cls-10" d="M70.42,392.22a10.81,10.81,0,0,1,.41-3,8.56,8.56,0,0,1,1.24-2.58,5.11,5.11,0,0,1,1.7-1.64l.26.83a5.44,5.44,0,0,0-1.64,2.34,10.25,10.25,0,0,0-.7,3.52v.58a10.21,10.21,0,0,0,1,4.58A5.63,5.63,0,0,0,74,398.7l-.26.77A5.41,5.41,0,0,1,72,397.78,9.56,9.56,0,0,1,70.42,392.22Z" transform="translate(-17.13 -23.26)"/><path class="cls-10" d="M81.5,392.64a4.45,4.45,0,0,1-.77,2.72,2.47,2.47,0,0,1-2.09,1,2.7,2.7,0,0,1-2.12-.85v3.56H75.25V388.86h1.16l.06.82a2.6,2.6,0,0,1,2.15-1,2.51,2.51,0,0,1,2.1,1,4.46,4.46,0,0,1,.78,2.8Zm-1.26-.14a3.25,3.25,0,0,0-.54-2,1.71,1.71,0,0,0-1.46-.72,1.85,1.85,0,0,0-1.72,1v3.53a1.84,1.84,0,0,0,1.73,1,1.72,1.72,0,0,0,1.45-.72A3.53,3.53,0,0,0,80.24,392.5Z" transform="translate(-17.13 -23.26)"/><path class="cls-10" d="M87.67,396.26a2.7,2.7,0,0,1-.17-.78,2.82,2.82,0,0,1-2.11.91,2.59,2.59,0,0,1-1.79-.61,2,2,0,0,1-.7-1.57,2.11,2.11,0,0,1,.87-1.8,4.19,4.19,0,0,1,2.47-.64h1.24v-.58a1.42,1.42,0,0,0-.4-1.05,1.58,1.58,0,0,0-1.17-.4,1.92,1.92,0,0,0-1.14.34,1,1,0,0,0-.45.83H83.05a1.77,1.77,0,0,1,.39-1.07A2.73,2.73,0,0,1,84.5,389a3.63,3.63,0,0,1,1.48-.31,3,3,0,0,1,2,.64,2.34,2.34,0,0,1,.75,1.76v3.41a4.21,4.21,0,0,0,.26,1.62v.11Zm-2.1-1a2.25,2.25,0,0,0,1.13-.3,1.93,1.93,0,0,0,.78-.8v-1.52h-1c-1.55,0-2.32.45-2.32,1.36a1.13,1.13,0,0,0,.4.93A1.52,1.52,0,0,0,85.57,395.29Z" transform="translate(-17.13 -23.26)"/><path class="cls-10" d="M90.41,392.5a4.32,4.32,0,0,1,.81-2.74,2.74,2.74,0,0,1,4.17-.15v-3.85h1.27v10.5H95.49l-.06-.8a2.57,2.57,0,0,1-2.11.93,2.53,2.53,0,0,1-2.1-1.05,4.39,4.39,0,0,1-.81-2.75Zm1.27.14a3.25,3.25,0,0,0,.52,2,1.67,1.67,0,0,0,1.43.71,1.84,1.84,0,0,0,1.76-1.08v-3.4a1.87,1.87,0,0,0-1.74-1,1.68,1.68,0,0,0-1.45.72A3.54,3.54,0,0,0,91.68,392.64Z" transform="translate(-17.13 -23.26)"/><path class="cls-10" d="M102.19,390a3.05,3.05,0,0,0-.62-.05A1.67,1.67,0,0,0,99.88,391v5.25H98.62v-7.4h1.23l0,.86a2,2,0,0,1,1.76-1,1.3,1.3,0,0,1,.56.1Z" transform="translate(-17.13 -23.26)"/><path class="cls-10" d="M107.65,396.26a3,3,0,0,1-.18-.78,2.82,2.82,0,0,1-2.11.91,2.63,2.63,0,0,1-1.79-.61,2,2,0,0,1-.7-1.57,2.1,2.1,0,0,1,.88-1.8,4.17,4.17,0,0,1,2.47-.64h1.23v-.58a1.39,1.39,0,0,0-.4-1.05,1.55,1.55,0,0,0-1.17-.4,1.87,1.87,0,0,0-1.13.34,1,1,0,0,0-.46.83H103a1.77,1.77,0,0,1,.39-1.07,2.76,2.76,0,0,1,1.07-.81,3.6,3.6,0,0,1,1.48-.31,3,3,0,0,1,2,.64,2.27,2.27,0,0,1,.75,1.76v3.41a4.21,4.21,0,0,0,.26,1.62v.11Zm.87-10.28a1.68,1.68,0,0,1-.42,1.19,1.35,1.35,0,0,1-1,.46,1.39,1.39,0,0,1-.48-.07,2.33,2.33,0,0,1-.54-.28,2.22,2.22,0,0,0-.48-.25,1.16,1.16,0,0,0-.34,0,.6.6,0,0,0-.47.22.73.73,0,0,0-.2.55l-.85-.05a1.81,1.81,0,0,1,.41-1.21,1.34,1.34,0,0,1,1.05-.48,1.14,1.14,0,0,1,.43.07,2.92,2.92,0,0,1,.52.27,4.12,4.12,0,0,0,.51.26,1.12,1.12,0,0,0,.38.06.6.6,0,0,0,.49-.24.8.8,0,0,0,.2-.54Zm-3,9.31a2.28,2.28,0,0,0,1.13-.3,2,2,0,0,0,.77-.8v-1.52h-1c-1.55,0-2.33.45-2.33,1.36a1.16,1.16,0,0,0,.4.93A1.53,1.53,0,0,0,105.55,395.29Z" transform="translate(-17.13 -23.26)"/><path class="cls-10" d="M110.36,392.49a4.3,4.3,0,0,1,.43-1.95A3.11,3.11,0,0,1,112,389.2a3.2,3.2,0,0,1,1.74-.48,3.1,3.1,0,0,1,2.44,1,4,4,0,0,1,.94,2.78v.09a4.35,4.35,0,0,1-.42,1.94,3.14,3.14,0,0,1-1.18,1.34,3.25,3.25,0,0,1-1.77.47,3.12,3.12,0,0,1-2.44-1,4,4,0,0,1-.93-2.77Zm1.27.15a3.19,3.19,0,0,0,.57,2,1.94,1.94,0,0,0,3.06,0,3.47,3.47,0,0,0,.57-2.12,3.12,3.12,0,0,0-.58-2,1.83,1.83,0,0,0-1.53-.76,1.8,1.8,0,0,0-1.51.75A3.4,3.4,0,0,0,111.63,392.64Z" transform="translate(-17.13 -23.26)"/><path class="cls-10" d="M121.84,392.5a4.32,4.32,0,0,1,.81-2.74,2.54,2.54,0,0,1,2.11-1,2.59,2.59,0,0,1,2.06.89v-3.85h1.26v10.5h-1.16l-.06-.8a2.59,2.59,0,0,1-2.12.93,2.53,2.53,0,0,1-2.09-1.05,4.39,4.39,0,0,1-.81-2.75Zm1.26.14a3.32,3.32,0,0,0,.52,2,1.7,1.7,0,0,0,1.44.71,1.85,1.85,0,0,0,1.76-1.08v-3.4a1.87,1.87,0,0,0-1.75-1,1.69,1.69,0,0,0-1.45.72A3.62,3.62,0,0,0,123.1,392.64Z" transform="translate(-17.13 -23.26)"/><path class="cls-10" d="M133.11,396.39a3.23,3.23,0,0,1-2.45-1,3.71,3.71,0,0,1-.94-2.65v-.23a4.41,4.41,0,0,1,.42-2,3.26,3.26,0,0,1,1.18-1.36,3,3,0,0,1,1.63-.49,2.79,2.79,0,0,1,2.25.95,4.15,4.15,0,0,1,.8,2.73v.52h-5a2.59,2.59,0,0,0,.64,1.77,2,2,0,0,0,1.55.67,2.2,2.2,0,0,0,1.13-.27,2.59,2.59,0,0,0,.82-.73l.77.61A3.11,3.11,0,0,1,133.11,396.39Zm-.16-6.63a1.69,1.69,0,0,0-1.28.56,2.66,2.66,0,0,0-.64,1.56h3.7v-.09a2.39,2.39,0,0,0-.52-1.5A1.6,1.6,0,0,0,133,389.76Z" transform="translate(-17.13 -23.26)"/><path class="cls-10" d="M144,396.39a3.21,3.21,0,0,1-2.44-1,3.68,3.68,0,0,1-1-2.65v-.23a4.41,4.41,0,0,1,.42-2,3.34,3.34,0,0,1,1.18-1.36,3,3,0,0,1,1.64-.49,2.77,2.77,0,0,1,2.24.95,4.15,4.15,0,0,1,.8,2.73v.52h-5a2.64,2.64,0,0,0,.64,1.77,2,2,0,0,0,1.55.67,2.24,2.24,0,0,0,1.14-.27,2.67,2.67,0,0,0,.81-.73l.77.61A3.11,3.11,0,0,1,144,396.39Zm-.15-6.63a1.71,1.71,0,0,0-1.29.56,2.72,2.72,0,0,0-.64,1.56h3.7v-.09a2.33,2.33,0,0,0-.52-1.5A1.57,1.57,0,0,0,143.84,389.76Z" transform="translate(-17.13 -23.26)"/><path class="cls-10" d="M149.54,388.86l0,.93a2.69,2.69,0,0,1,2.21-1.07c1.57,0,2.36.89,2.37,2.65v4.89h-1.27v-4.9a1.68,1.68,0,0,0-.36-1.18,1.49,1.49,0,0,0-1.12-.38,1.82,1.82,0,0,0-1.08.33,2.1,2.1,0,0,0-.72.86v5.27h-1.27v-7.4Z" transform="translate(-17.13 -23.26)"/><path class="cls-10" d="M157.78,387.07v1.79h1.38v1h-1.38v4.59a1,1,0,0,0,.19.67.76.76,0,0,0,.63.22,3.54,3.54,0,0,0,.6-.08v1a3.7,3.7,0,0,1-1,.13,1.58,1.58,0,0,1-1.28-.51,2.18,2.18,0,0,1-.43-1.45v-4.59h-1.35v-1h1.35v-1.79Z" transform="translate(-17.13 -23.26)"/><path class="cls-10" d="M164.21,390a3,3,0,0,0-.62-.05A1.67,1.67,0,0,0,161.9,391v5.25h-1.26v-7.4h1.23l0,.86a2,2,0,0,1,1.76-1,1.3,1.3,0,0,1,.56.1Z" transform="translate(-17.13 -23.26)"/><path class="cls-10" d="M169.67,396.26a3,3,0,0,1-.18-.78,2.82,2.82,0,0,1-2.1.91,2.64,2.64,0,0,1-1.8-.61,2,2,0,0,1-.7-1.57,2.1,2.1,0,0,1,.88-1.8,4.19,4.19,0,0,1,2.47-.64h1.23v-.58a1.42,1.42,0,0,0-.39-1.05,1.58,1.58,0,0,0-1.17-.4,1.92,1.92,0,0,0-1.14.34,1,1,0,0,0-.46.83H165a1.72,1.72,0,0,1,.4-1.07,2.66,2.66,0,0,1,1.06-.81,3.6,3.6,0,0,1,1.48-.31,3,3,0,0,1,2,.64,2.31,2.31,0,0,1,.76,1.76v3.41a4,4,0,0,0,.26,1.62v.11Zm-2.1-1a2.28,2.28,0,0,0,1.13-.3,2,2,0,0,0,.77-.8v-1.52h-1c-1.55,0-2.32.45-2.32,1.36a1.15,1.15,0,0,0,.39.93A1.56,1.56,0,0,0,167.57,395.29Z" transform="translate(-17.13 -23.26)"/><path class="cls-10" d="M172.41,392.5a4.32,4.32,0,0,1,.81-2.74,2.74,2.74,0,0,1,4.17-.15v-3.85h1.26v10.5h-1.16l-.06-.8a2.58,2.58,0,0,1-2.11.93,2.53,2.53,0,0,1-2.1-1.05,4.39,4.39,0,0,1-.81-2.75Zm1.27.14a3.25,3.25,0,0,0,.52,2,1.67,1.67,0,0,0,1.43.71,1.85,1.85,0,0,0,1.76-1.08v-3.4a1.87,1.87,0,0,0-1.75-1,1.67,1.67,0,0,0-1.44.72A3.54,3.54,0,0,0,173.68,392.64Z" transform="translate(-17.13 -23.26)"/><path class="cls-10" d="M185.18,396.26a3,3,0,0,1-.18-.78,2.8,2.8,0,0,1-2.1.91,2.64,2.64,0,0,1-1.8-.61,2,2,0,0,1-.7-1.57,2.12,2.12,0,0,1,.88-1.8,4.19,4.19,0,0,1,2.47-.64H185v-.58a1.42,1.42,0,0,0-.39-1.05,1.58,1.58,0,0,0-1.17-.4,1.92,1.92,0,0,0-1.14.34,1,1,0,0,0-.46.83h-1.27a1.72,1.72,0,0,1,.4-1.07A2.66,2.66,0,0,1,182,389a3.63,3.63,0,0,1,1.48-.31,3,3,0,0,1,2,.64,2.34,2.34,0,0,1,.75,1.76v3.41a4,4,0,0,0,.26,1.62v.11Zm-2.1-1a2.28,2.28,0,0,0,1.13-.3,1.9,1.9,0,0,0,.77-.8v-1.52h-1c-1.55,0-2.32.45-2.32,1.36a1.15,1.15,0,0,0,.39.93A1.56,1.56,0,0,0,183.08,395.29Z" transform="translate(-17.13 -23.26)"/><path class="cls-10" d="M191.15,392.29a10.45,10.45,0,0,1-.4,2.92,9,9,0,0,1-1.22,2.58,5.34,5.34,0,0,1-1.73,1.68l-.27-.77a5.45,5.45,0,0,0,1.69-2.51,10.76,10.76,0,0,0,.66-3.77v-.22a11.23,11.23,0,0,0-.3-2.66,8.83,8.83,0,0,0-.84-2.22,5,5,0,0,0-1.21-1.52l.27-.77a5.45,5.45,0,0,1,1.72,1.66,8.75,8.75,0,0,1,1.22,2.58A10.86,10.86,0,0,1,191.15,392.29Z" transform="translate(-17.13 -23.26)"/></g></g></g><g id="resII"><g id="Group_14466" data-name="Group 14466"><g class="cls-9"><path class="cls-11" d="M32.82,117.62H31.54v-8.43l-2.55.94V109l3.63-1.36h.2Z" transform="translate(-17.13 -23.26)"/><path class="cls-11" d="M41.22,117.62a2.34,2.34,0,0,1-.18-.78,2.83,2.83,0,0,1-2.11.92,2.63,2.63,0,0,1-1.79-.62,2,2,0,0,1-.7-1.57,2.1,2.1,0,0,1,.88-1.8,4.18,4.18,0,0,1,2.47-.63H41v-.59a1.39,1.39,0,0,0-.4-1,1.59,1.59,0,0,0-1.17-.39,1.81,1.81,0,0,0-1.13.34,1,1,0,0,0-.46.82H36.59A1.79,1.79,0,0,1,37,111.2a2.69,2.69,0,0,1,1.07-.81,3.59,3.59,0,0,1,1.48-.3,2.9,2.9,0,0,1,2,.64,2.27,2.27,0,0,1,.75,1.76v3.4a4.21,4.21,0,0,0,.26,1.62v.11Zm-2.1-1a2.29,2.29,0,0,0,1.13-.31,1.91,1.91,0,0,0,.77-.8V114H40c-1.55,0-2.33.45-2.33,1.36a1.16,1.16,0,0,0,.4.93A1.53,1.53,0,0,0,39.12,116.66Z" transform="translate(-17.13 -23.26)"/><path class="cls-11" d="M49.44,112h1a2.12,2.12,0,0,0,1.41-.47,1.59,1.59,0,0,0,.51-1.24,1.54,1.54,0,0,0-1.74-1.75,1.83,1.83,0,0,0-1.31.47,1.61,1.61,0,0,0-.49,1.24H47.51a2.53,2.53,0,0,1,.86-2,3.17,3.17,0,0,1,2.2-.78,3.11,3.11,0,0,1,2.21.75,2.68,2.68,0,0,1,.8,2.07,2.16,2.16,0,0,1-.42,1.25,2.54,2.54,0,0,1-1.15.91,2.45,2.45,0,0,1,1.27.87,2.37,2.37,0,0,1,.45,1.46,2.69,2.69,0,0,1-.88,2.13,3.24,3.24,0,0,1-2.27.79A3.37,3.37,0,0,1,48.3,117a2.52,2.52,0,0,1-.88-2h1.27a1.61,1.61,0,0,0,.51,1.25,2.29,2.29,0,0,0,2.78,0,1.87,1.87,0,0,0,.48-1.38,1.68,1.68,0,0,0-.53-1.33,2.34,2.34,0,0,0-1.54-.48h-1Z" transform="translate(-17.13 -23.26)"/><path class="cls-11" d="M65.86,108.74h-3.2v8.88h-1.3v-8.88h-3.2v-1.07h7.7Z" transform="translate(-17.13 -23.26)"/><path class="cls-11" d="M70.74,115.88l2.85-8.21H75l-3.69,10H70.17l-3.69-10h1.43Z" transform="translate(-17.13 -23.26)"/><path class="cls-11" d="M76.11,113.58a10.81,10.81,0,0,1,.41-3A8.68,8.68,0,0,1,77.76,108a5.11,5.11,0,0,1,1.7-1.64l.26.83a5.44,5.44,0,0,0-1.64,2.34,10,10,0,0,0-.7,3.52v.58a10.07,10.07,0,0,0,1,4.58,5.27,5.27,0,0,0,1.38,1.82l-.26.77a5.31,5.31,0,0,1-1.74-1.69A9.54,9.54,0,0,1,76.11,113.58Z" transform="translate(-17.13 -23.26)"/><path class="cls-11" d="M84.07,113.18A6.25,6.25,0,0,1,81.61,112a2.27,2.27,0,0,1-.76-1.75,2.39,2.39,0,0,1,.94-1.94,3.73,3.73,0,0,1,2.44-.77,4,4,0,0,1,1.83.4A3,3,0,0,1,87.3,109a2.75,2.75,0,0,1,.44,1.52H86.42a1.83,1.83,0,0,0-.57-1.42,2.35,2.35,0,0,0-1.62-.52,2.45,2.45,0,0,0-1.52.43,1.44,1.44,0,0,0-.54,1.19,1.26,1.26,0,0,0,.52,1,5,5,0,0,0,1.75.77,8.13,8.13,0,0,1,2,.77,3,3,0,0,1,1,1,2.47,2.47,0,0,1,.34,1.32,2.33,2.33,0,0,1-.94,1.94,4.06,4.06,0,0,1-2.52.73,4.59,4.59,0,0,1-1.92-.4A3.24,3.24,0,0,1,81,116.29a2.66,2.66,0,0,1-.48-1.55h1.32a1.7,1.7,0,0,0,.67,1.42,2.77,2.77,0,0,0,1.78.52,2.6,2.6,0,0,0,1.59-.42,1.5,1.5,0,0,0,0-2.29A6,6,0,0,0,84.07,113.18Z" transform="translate(-17.13 -23.26)"/><path class="cls-11" d="M92.17,113.65a10.78,10.78,0,0,1-.4,2.92,8.76,8.76,0,0,1-1.23,2.58,5.32,5.32,0,0,1-1.72,1.68l-.27-.77a5.54,5.54,0,0,0,1.69-2.5,10.8,10.8,0,0,0,.65-3.77v-.22a11.25,11.25,0,0,0-.3-2.67,9.15,9.15,0,0,0-.83-2.21,5.09,5.09,0,0,0-1.21-1.53l.27-.77a5.38,5.38,0,0,1,1.72,1.67,8.81,8.81,0,0,1,1.22,2.57A10.91,10.91,0,0,1,92.17,113.65Z" transform="translate(-17.13 -23.26)"/></g><g class="cls-9"><path class="cls-11" d="M32.82,137.62H31.54v-8.43l-2.55.94V129l3.63-1.36h.2Z" transform="translate(-17.13 -23.26)"/><path class="cls-11" d="M47.66,136.31a2.94,2.94,0,0,1-1.41,1.09,5.65,5.65,0,0,1-2.11.36,4.1,4.1,0,0,1-2.16-.57,3.86,3.86,0,0,1-1.46-1.63,5.65,5.65,0,0,1-.53-2.44v-.87a5.2,5.2,0,0,1,1-3.48,3.65,3.65,0,0,1,3-1.24,3.78,3.78,0,0,1,2.51.8,3.47,3.47,0,0,1,1.16,2.26H46.35a2.17,2.17,0,0,0-2.35-2,2.32,2.32,0,0,0-2,.93,4.59,4.59,0,0,0-.69,2.69V133a4.26,4.26,0,0,0,.77,2.67,2.5,2.5,0,0,0,2.07,1,4.55,4.55,0,0,0,1.29-.16,2,2,0,0,0,.92-.55v-2.23H44.05v-1.08h3.61Z" transform="translate(-17.13 -23.26)"/><path class="cls-11" d="M55.48,133H51.16v3.53h5v1.07H49.85v-10h6.26v1.07h-5V132h4.32Z" transform="translate(-17.13 -23.26)"/><path class="cls-11" d="M59.13,136.55h4.71v1.07h-6v-10h1.32Z" transform="translate(-17.13 -23.26)"/><path class="cls-11" d="M71,135H66.8l-.94,2.6H64.51l3.8-10h1.15l3.8,10H71.92Zm-3.78-1.08h3.39l-1.7-4.65Z" transform="translate(-17.13 -23.26)"/><path class="cls-11" d="M74.6,137.62v-10h2.81a4.56,4.56,0,0,1,2.3.57,3.82,3.82,0,0,1,1.54,1.64,5.24,5.24,0,0,1,.55,2.43v.63a5.35,5.35,0,0,1-.54,2.47A3.82,3.82,0,0,1,79.71,137a4.84,4.84,0,0,1-2.35.58Zm1.32-8.88v7.81H77.3a3,3,0,0,0,2.36-1,3.91,3.91,0,0,0,.84-2.69v-.58a4,4,0,0,0-.79-2.64,2.86,2.86,0,0,0-2.26-.95Z" transform="translate(-17.13 -23.26)"/><path class="cls-11" d="M89.41,133H85.1v3.53h5v1.07H83.78v-10H90v1.07H85.1V132h4.31Z" transform="translate(-17.13 -23.26)"/><path class="cls-11" d="M93.15,137.62H91.84v-10h1.31Z" transform="translate(-17.13 -23.26)"/><path class="cls-11" d="M99.2,133.59H96.86v4H95.54v-10h3.3a3.87,3.87,0,0,1,2.58.76,2.75,2.75,0,0,1,.91,2.23,2.71,2.71,0,0,1-.5,1.62,3,3,0,0,1-1.4,1l2.34,4.23v.08h-1.41Zm-2.34-1.07h2a2.25,2.25,0,0,0,1.55-.51,1.69,1.69,0,0,0,.58-1.35,1.8,1.8,0,0,0-.55-1.42,2.36,2.36,0,0,0-1.59-.5h-2Z" transform="translate(-17.13 -23.26)"/><path class="cls-11" d="M109.67,135H105.5l-.94,2.6h-1.35l3.8-10h1.14l3.81,10h-1.34Zm-3.78-1.08h3.39l-1.7-4.65Z" transform="translate(-17.13 -23.26)"/></g><g class="cls-9"><path class="cls-11" d="M32.82,157.62H31.54v-8.43l-2.55.94V149l3.63-1.36h.2Z" transform="translate(-17.13 -23.26)"/><path class="cls-11" d="M42,147.67l3.25,8.12,3.26-8.12h1.7v10H48.91v-3.88l.12-4.18-3.27,8.06h-1l-3.26-8,.13,4.16v3.88H40.31v-10Z" transform="translate(-17.13 -23.26)"/><path class="cls-11" d="M54,157.62H52.63v-10H54Z" transform="translate(-17.13 -23.26)"/><path class="cls-11" d="M63.67,154.46a3.72,3.72,0,0,1-1.17,2.44,3.82,3.82,0,0,1-2.61.86,3.5,3.5,0,0,1-2.82-1.27A5.07,5.07,0,0,1,56,153.11v-1a5.69,5.69,0,0,1,.5-2.44,3.77,3.77,0,0,1,1.4-1.62,4,4,0,0,1,2.11-.56,3.59,3.59,0,0,1,2.54.89,3.71,3.71,0,0,1,1.12,2.45H62.35a2.9,2.9,0,0,0-.74-1.73,2.25,2.25,0,0,0-1.6-.54,2.33,2.33,0,0,0-2,.93,4.26,4.26,0,0,0-.72,2.65v1a4.41,4.41,0,0,0,.68,2.58,2.19,2.19,0,0,0,1.89,1,2.53,2.53,0,0,0,1.68-.49,2.77,2.77,0,0,0,.78-1.73Z" transform="translate(-17.13 -23.26)"/><path class="cls-11" d="M69.11,153.59H66.77v4H65.45v-10h3.3a3.87,3.87,0,0,1,2.58.76,2.75,2.75,0,0,1,.91,2.23,2.71,2.71,0,0,1-.5,1.62,3,3,0,0,1-1.4,1l2.34,4.23v.08H71.27Zm-2.34-1.07h2a2.25,2.25,0,0,0,1.55-.51,1.69,1.69,0,0,0,.58-1.35,1.8,1.8,0,0,0-.55-1.42,2.36,2.36,0,0,0-1.59-.5h-2Z" transform="translate(-17.13 -23.26)"/><path class="cls-11" d="M81.73,153a6.16,6.16,0,0,1-.49,2.56,3.7,3.7,0,0,1-1.39,1.66,4.07,4.07,0,0,1-4.19,0,3.75,3.75,0,0,1-1.41-1.65,5.84,5.84,0,0,1-.52-2.48v-.71a6.12,6.12,0,0,1,.5-2.54,3.81,3.81,0,0,1,1.41-1.69,3.86,3.86,0,0,1,2.09-.58,3.82,3.82,0,0,1,2.11.58,3.68,3.68,0,0,1,1.4,1.67,6.19,6.19,0,0,1,.49,2.56Zm-1.3-.64a4.52,4.52,0,0,0-.71-2.72,2.35,2.35,0,0,0-2-.94,2.32,2.32,0,0,0-2,.94,4.42,4.42,0,0,0-.74,2.63V153a4.4,4.4,0,0,0,.73,2.7,2.53,2.53,0,0,0,3.95.06,4.48,4.48,0,0,0,.72-2.66Z" transform="translate(-17.13 -23.26)"/><path class="cls-11" d="M86.14,153.91H82.8v-1h3.34Z" transform="translate(-17.13 -23.26)"/><path class="cls-11" d="M95.22,153a6.16,6.16,0,0,1-.49,2.56,3.65,3.65,0,0,1-1.4,1.66,3.76,3.76,0,0,1-2.1.58,3.71,3.71,0,0,1-3.5-2.23,6,6,0,0,1-.51-2.48v-.71a6,6,0,0,1,.5-2.54,3.81,3.81,0,0,1,1.41-1.69,3.86,3.86,0,0,1,2.09-.58,3.79,3.79,0,0,1,2.1.58,3.7,3.7,0,0,1,1.41,1.67,6.19,6.19,0,0,1,.49,2.56Zm-1.3-.64a4.45,4.45,0,0,0-.72-2.72,2.53,2.53,0,0,0-3.94,0,4.42,4.42,0,0,0-.74,2.63V153a4.46,4.46,0,0,0,.72,2.7,2.54,2.54,0,0,0,4,.06,4.55,4.55,0,0,0,.72-2.66Z" transform="translate(-17.13 -23.26)"/><path class="cls-11" d="M104.84,157.62h-1.32l-5-7.67v7.67H97.19v-10h1.32l5,7.7v-7.7h1.31Z" transform="translate(-17.13 -23.26)"/><path class="cls-11" d="M107.17,157.62v-10H110a4.56,4.56,0,0,1,2.3.57,3.88,3.88,0,0,1,1.54,1.64,5.37,5.37,0,0,1,.55,2.43v.63a5.35,5.35,0,0,1-.54,2.47,3.84,3.84,0,0,1-1.56,1.63,4.77,4.77,0,0,1-2.34.58Zm1.31-8.88v7.81h1.38a3,3,0,0,0,2.37-1,3.91,3.91,0,0,0,.84-2.69v-.58a4,4,0,0,0-.8-2.64,2.85,2.85,0,0,0-2.26-.95Z" transform="translate(-17.13 -23.26)"/><path class="cls-11" d="M121.7,155h-4.17l-.93,2.6h-1.36l3.8-10h1.15l3.81,10h-1.35Zm-3.77-1.08h3.38l-1.69-4.65Z" transform="translate(-17.13 -23.26)"/><path class="cls-11" d="M128.27,153.18a6.13,6.13,0,0,1-2.45-1.19,2.25,2.25,0,0,1-.77-1.75,2.39,2.39,0,0,1,.94-1.94,3.73,3.73,0,0,1,2.44-.77,4,4,0,0,1,1.83.4A3,3,0,0,1,131.5,149a2.75,2.75,0,0,1,.44,1.52h-1.32a1.83,1.83,0,0,0-.57-1.42,2.35,2.35,0,0,0-1.62-.52,2.4,2.4,0,0,0-1.51.43,1.42,1.42,0,0,0-.55,1.19,1.26,1.26,0,0,0,.52,1,5,5,0,0,0,1.76.77,8.2,8.2,0,0,1,1.94.77,3.08,3.08,0,0,1,1,1,2.56,2.56,0,0,1,.33,1.32A2.33,2.33,0,0,1,131,157a4.06,4.06,0,0,1-2.52.73,4.59,4.59,0,0,1-1.92-.4,3.31,3.31,0,0,1-1.37-1.07,2.66,2.66,0,0,1-.48-1.55h1.32a1.7,1.7,0,0,0,.67,1.42,2.79,2.79,0,0,0,1.78.52,2.6,2.6,0,0,0,1.59-.42,1.5,1.5,0,0,0,0-2.29A6,6,0,0,0,128.27,153.18Z" transform="translate(-17.13 -23.26)"/></g><g class="cls-9"><path class="cls-11" d="M32.82,177.62H31.54v-8.43l-2.55.94V169l3.63-1.36h.2Z" transform="translate(-17.13 -23.26)"/><path class="cls-11" d="M45.8,173.22H41.63v4.4H40.31v-10h6.17v1.07H41.63v3.41H45.8Z" transform="translate(-17.13 -23.26)"/><path class="cls-11" d="M53.68,173H49.37v3.53h5v1.07H48.05v-10h6.26v1.07H49.37V172h4.31Z" transform="translate(-17.13 -23.26)"/><path class="cls-11" d="M59.66,173.59H57.32v4H56v-10h3.3a3.92,3.92,0,0,1,2.59.76,2.77,2.77,0,0,1,.9,2.23,2.71,2.71,0,0,1-.5,1.62,3,3,0,0,1-1.4,1l2.34,4.23v.08H61.82Zm-2.34-1.07h2a2.25,2.25,0,0,0,1.55-.51,1.69,1.69,0,0,0,.58-1.35,1.8,1.8,0,0,0-.55-1.42,2.33,2.33,0,0,0-1.59-.5h-2Z" transform="translate(-17.13 -23.26)"/><path class="cls-11" d="M68.28,173.59H65.94v4H64.62v-10h3.3a3.92,3.92,0,0,1,2.59.76,2.77,2.77,0,0,1,.9,2.23,2.71,2.71,0,0,1-.5,1.62,3,3,0,0,1-1.4,1l2.34,4.23v.08H70.44Zm-2.34-1.07h2a2.25,2.25,0,0,0,1.55-.51,1.69,1.69,0,0,0,.58-1.35,1.8,1.8,0,0,0-.55-1.42,2.33,2.33,0,0,0-1.59-.5h-2Z" transform="translate(-17.13 -23.26)"/><path class="cls-11" d="M80.91,173a6.15,6.15,0,0,1-.5,2.56A3.64,3.64,0,0,1,79,177.18a3.77,3.77,0,0,1-2.11.58,3.85,3.85,0,0,1-2.08-.58,3.75,3.75,0,0,1-1.41-1.65,5.84,5.84,0,0,1-.52-2.48v-.71a6.12,6.12,0,0,1,.5-2.54,3.81,3.81,0,0,1,1.41-1.69,3.89,3.89,0,0,1,2.09-.58,3.82,3.82,0,0,1,2.11.58,3.62,3.62,0,0,1,1.4,1.67,6.19,6.19,0,0,1,.5,2.56Zm-1.31-.64a4.52,4.52,0,0,0-.71-2.72,2.54,2.54,0,0,0-4,0,4.42,4.42,0,0,0-.73,2.63V173a4.46,4.46,0,0,0,.72,2.7,2.53,2.53,0,0,0,3.95.06,4.41,4.41,0,0,0,.72-2.66Z" transform="translate(-17.13 -23.26)"/><path class="cls-11" d="M86.34,177.62v-10h2.81a4.56,4.56,0,0,1,2.3.57A3.88,3.88,0,0,1,93,169.88a5.24,5.24,0,0,1,.55,2.43v.63a5.35,5.35,0,0,1-.54,2.47A3.84,3.84,0,0,1,91.44,177a4.77,4.77,0,0,1-2.34.58Zm1.31-8.88v7.81H89a3,3,0,0,0,2.37-1,3.91,3.91,0,0,0,.84-2.69v-.58a3.93,3.93,0,0,0-.8-2.64,2.84,2.84,0,0,0-2.25-.95Z" transform="translate(-17.13 -23.26)"/><path class="cls-11" d="M101.15,173H96.83v3.53h5v1.07H95.52v-10h6.26v1.07h-5V172h4.32Z" transform="translate(-17.13 -23.26)"/><path class="cls-11" d="M108.26,173.72v3.9h-1.32v-10h3.68a3.72,3.72,0,0,1,2.56.83,2.85,2.85,0,0,1,.92,2.21,2.8,2.8,0,0,1-.9,2.23,3.88,3.88,0,0,1-2.6.78Zm0-1.07h2.36a2.3,2.3,0,0,0,1.61-.5,1.82,1.82,0,0,0,.56-1.43,1.91,1.91,0,0,0-.56-1.43,2.22,2.22,0,0,0-1.54-.55h-2.43Z" transform="translate(-17.13 -23.26)"/><path class="cls-11" d="M120.33,175h-4.17l-.94,2.6h-1.35l3.8-10h1.15l3.81,10h-1.35Zm-3.77-1.08h3.38l-1.7-4.65Z" transform="translate(-17.13 -23.26)"/><path class="cls-11" d="M126.9,173.18a6.11,6.11,0,0,1-2.46-1.19,2.28,2.28,0,0,1-.77-1.75,2.42,2.42,0,0,1,.94-1.94,3.76,3.76,0,0,1,2.45-.77,4,4,0,0,1,1.82.4,3,3,0,0,1,1.25,1.09,2.83,2.83,0,0,1,.44,1.52h-1.32a1.83,1.83,0,0,0-.57-1.42,2.39,2.39,0,0,0-1.62-.52,2.43,2.43,0,0,0-1.52.43,1.44,1.44,0,0,0-.54,1.19,1.28,1.28,0,0,0,.51,1,5.07,5.07,0,0,0,1.76.77,7.86,7.86,0,0,1,1.94.77,2.91,2.91,0,0,1,1,1,2.47,2.47,0,0,1,.34,1.32,2.33,2.33,0,0,1-.94,1.94,4.07,4.07,0,0,1-2.53.73,4.54,4.54,0,0,1-1.91-.4,3.24,3.24,0,0,1-1.37-1.07,2.66,2.66,0,0,1-.48-1.55h1.32a1.71,1.71,0,0,0,.66,1.42,2.81,2.81,0,0,0,1.78.52,2.61,2.61,0,0,0,1.6-.42,1.5,1.5,0,0,0,0-2.29A6,6,0,0,0,126.9,173.18Z" transform="translate(-17.13 -23.26)"/><path class="cls-11" d="M135.2,173.18a6.13,6.13,0,0,1-2.45-1.19,2.25,2.25,0,0,1-.77-1.75,2.39,2.39,0,0,1,.94-1.94,3.73,3.73,0,0,1,2.44-.77,4,4,0,0,1,1.83.4,2.94,2.94,0,0,1,1.24,1.09,2.76,2.76,0,0,1,.45,1.52h-1.32a1.84,1.84,0,0,0-.58-1.42,2.35,2.35,0,0,0-1.62-.52,2.4,2.4,0,0,0-1.51.43,1.44,1.44,0,0,0-.55,1.19,1.29,1.29,0,0,0,.52,1,5,5,0,0,0,1.76.77,8.2,8.2,0,0,1,1.94.77,3,3,0,0,1,1,1,2.57,2.57,0,0,1,.34,1.32,2.33,2.33,0,0,1-1,1.94,4.06,4.06,0,0,1-2.52.73,4.54,4.54,0,0,1-1.91-.4,3.18,3.18,0,0,1-1.37-1.07,2.6,2.6,0,0,1-.49-1.55H133a1.72,1.72,0,0,0,.67,1.42,2.79,2.79,0,0,0,1.78.52,2.6,2.6,0,0,0,1.59-.42,1.38,1.38,0,0,0,.56-1.16,1.35,1.35,0,0,0-.52-1.13A6,6,0,0,0,135.2,173.18Z" transform="translate(-17.13 -23.26)"/><path class="cls-11" d="M146.07,175H141.9l-.93,2.6h-1.36l3.8-10h1.15l3.81,10H147Zm-3.77-1.08h3.38L144,169.29Z" transform="translate(-17.13 -23.26)"/><path class="cls-11" d="M153.36,173.59H151v4H149.7v-10H153a3.92,3.92,0,0,1,2.59.76,2.77,2.77,0,0,1,.9,2.23,2.71,2.71,0,0,1-.5,1.62,3,3,0,0,1-1.4,1l2.34,4.23v.08h-1.41ZM151,172.52h2a2.25,2.25,0,0,0,1.55-.51,1.69,1.69,0,0,0,.58-1.35,1.8,1.8,0,0,0-.55-1.42,2.35,2.35,0,0,0-1.59-.5h-2Z" transform="translate(-17.13 -23.26)"/></g><g class="cls-9"><path class="cls-11" d="M32.82,197.62H31.54v-8.43l-2.55.94V189l3.63-1.36h.2Z" transform="translate(-17.13 -23.26)"/><path class="cls-11" d="M42,187.67l3.25,8.12,3.26-8.12h1.7v10H48.91v-3.88l.12-4.18-3.27,8.06h-1l-3.26-8,.13,4.16v3.88H40.31v-10Z" transform="translate(-17.13 -23.26)"/><path class="cls-11" d="M58.16,195H54l-.94,2.6H51.7l3.8-10h1.15l3.8,10H59.11Zm-3.78-1.08h3.39l-1.7-4.65ZM56.72,185h1.53l-1.83,2h-1Z" transform="translate(-17.13 -23.26)"/><path class="cls-11" d="M69.32,193a6.08,6.08,0,0,1-.46,2.49,3.82,3.82,0,0,1-1.28,1.63l1.77,1.39-.89.83-2.1-1.67a3.9,3.9,0,0,1-1,.13,3.74,3.74,0,0,1-3.5-2.23,6,6,0,0,1-.51-2.48v-.71a6,6,0,0,1,.5-2.54,3.81,3.81,0,0,1,1.41-1.69,3.86,3.86,0,0,1,2.09-.58,3.69,3.69,0,0,1,3.52,2.25,6.14,6.14,0,0,1,.49,2.55ZM68,192.32a4.58,4.58,0,0,0-.7-2.71,2.36,2.36,0,0,0-2-1,2.29,2.29,0,0,0-2,.94,4.35,4.35,0,0,0-.74,2.63V193a4.58,4.58,0,0,0,.71,2.7,2.54,2.54,0,0,0,4,.06,4.55,4.55,0,0,0,.72-2.66Z" transform="translate(-17.13 -23.26)"/><path class="cls-11" d="M78.35,187.67v6.76a3.16,3.16,0,0,1-.89,2.31,3.57,3.57,0,0,1-2.38,1l-.35,0a3.75,3.75,0,0,1-2.6-.88,3.12,3.12,0,0,1-1-2.43v-6.78h1.29v6.74a2.23,2.23,0,0,0,.6,1.67,2.73,2.73,0,0,0,3.4,0,2.31,2.31,0,0,0,.59-1.68v-6.74Z" transform="translate(-17.13 -23.26)"/><path class="cls-11" d="M81.83,197.62H80.52v-10h1.31Z" transform="translate(-17.13 -23.26)"/><path class="cls-11" d="M91.88,197.62H90.56l-5-7.67v7.67H84.23v-10h1.32l5,7.7v-7.7h1.31Z" transform="translate(-17.13 -23.26)"/><path class="cls-11" d="M99.83,195H95.66l-.94,2.6H93.37l3.8-10h1.15l3.81,10h-1.35Zm-3.77-1.08h3.38l-1.7-4.65Z" transform="translate(-17.13 -23.26)"/><path class="cls-11" d="M106.93,197.62v-10h2.81a4.56,4.56,0,0,1,2.3.57,3.88,3.88,0,0,1,1.54,1.64,5.24,5.24,0,0,1,.55,2.43v.63a5.35,5.35,0,0,1-.54,2.47A3.84,3.84,0,0,1,112,197a4.77,4.77,0,0,1-2.34.58Zm1.31-8.88v7.81h1.38a3,3,0,0,0,2.37-1,3.91,3.91,0,0,0,.84-2.69v-.58a4,4,0,0,0-.8-2.64,2.85,2.85,0,0,0-2.26-.95Z" transform="translate(-17.13 -23.26)"/><path class="cls-11" d="M121.74,193h-4.32v3.53h5v1.07h-6.32v-10h6.26v1.07h-5V192h4.32Z" transform="translate(-17.13 -23.26)"/><path class="cls-11" d="M128.85,196.55h4.72v1.07h-6v-10h1.32Z" transform="translate(-17.13 -23.26)"/><path class="cls-11" d="M140.69,195h-4.17l-.93,2.6h-1.36l3.8-10h1.15l3.81,10h-1.35Zm-3.77-1.08h3.38l-1.69-4.65Z" transform="translate(-17.13 -23.26)"/><path class="cls-11" d="M147,195.88l2.84-8.21h1.44l-3.69,10h-1.16l-3.69-10h1.43Z" transform="translate(-17.13 -23.26)"/><path class="cls-11" d="M157.63,195h-4.17l-.94,2.6h-1.35l3.8-10h1.15l3.8,10h-1.34Zm-3.78-1.08h3.39l-1.7-4.65Z" transform="translate(-17.13 -23.26)"/><path class="cls-11" d="M164.91,193.59h-2.33v4h-1.32v-10h3.29a3.92,3.92,0,0,1,2.59.76,2.77,2.77,0,0,1,.9,2.23,2.64,2.64,0,0,1-.5,1.62,2.91,2.91,0,0,1-1.4,1l2.34,4.23v.08h-1.41Zm-2.33-1.07h2a2.29,2.29,0,0,0,1.56-.51,1.71,1.71,0,0,0,.57-1.35,1.8,1.8,0,0,0-.55-1.42,2.33,2.33,0,0,0-1.59-.5h-2Z" transform="translate(-17.13 -23.26)"/></g><g class="cls-9"><path class="cls-11" d="M32.82,217.62H31.54v-8.43l-2.55.94V209l3.63-1.36h.2Z" transform="translate(-17.13 -23.26)"/><path class="cls-11" d="M42,207.67l3.25,8.12,3.26-8.12h1.7v10H48.91v-3.88l.12-4.18-3.27,8.06h-1l-3.26-8,.13,4.16v3.88H40.31v-10Z" transform="translate(-17.13 -23.26)"/><path class="cls-11" d="M58.16,215H54l-.94,2.6H51.7l3.8-10h1.15l3.8,10H59.11Zm-3.78-1.08h3.39l-1.7-4.65ZM56.72,205h1.53l-1.83,2h-1Z" transform="translate(-17.13 -23.26)"/><path class="cls-11" d="M69.32,213a6.08,6.08,0,0,1-.46,2.49,3.82,3.82,0,0,1-1.28,1.63l1.77,1.39-.89.83-2.1-1.67a3.9,3.9,0,0,1-1,.13,3.74,3.74,0,0,1-3.5-2.23,6,6,0,0,1-.51-2.48v-.71a6,6,0,0,1,.5-2.54,3.81,3.81,0,0,1,1.41-1.69,3.86,3.86,0,0,1,2.09-.58,3.69,3.69,0,0,1,3.52,2.25,6.14,6.14,0,0,1,.49,2.55ZM68,212.32a4.58,4.58,0,0,0-.7-2.71,2.36,2.36,0,0,0-2-1,2.29,2.29,0,0,0-2,.94,4.35,4.35,0,0,0-.74,2.63V213a4.58,4.58,0,0,0,.71,2.7,2.54,2.54,0,0,0,4,.06,4.55,4.55,0,0,0,.72-2.66Z" transform="translate(-17.13 -23.26)"/><path class="cls-11" d="M78.35,207.67v6.76a3.16,3.16,0,0,1-.89,2.31,3.57,3.57,0,0,1-2.38,1l-.35,0a3.75,3.75,0,0,1-2.6-.88,3.12,3.12,0,0,1-1-2.43v-6.78h1.29v6.74a2.23,2.23,0,0,0,.6,1.67,2.73,2.73,0,0,0,3.4,0,2.31,2.31,0,0,0,.59-1.68v-6.74Z" transform="translate(-17.13 -23.26)"/><path class="cls-11" d="M81.83,217.62H80.52v-10h1.31Z" transform="translate(-17.13 -23.26)"/><path class="cls-11" d="M91.88,217.62H90.56l-5-7.67v7.67H84.23v-10h1.32l5,7.7v-7.7h1.31Z" transform="translate(-17.13 -23.26)"/><path class="cls-11" d="M99.83,215H95.66l-.94,2.6H93.37l3.8-10h1.15l3.81,10h-1.35Zm-3.77-1.08h3.38l-1.7-4.65Z" transform="translate(-17.13 -23.26)"/><path class="cls-11" d="M106.93,217.62v-10h2.81a4.56,4.56,0,0,1,2.3.57,3.88,3.88,0,0,1,1.54,1.64,5.24,5.24,0,0,1,.55,2.43v.63a5.35,5.35,0,0,1-.54,2.47A3.84,3.84,0,0,1,112,217a4.77,4.77,0,0,1-2.34.58Zm1.31-8.88v7.81h1.38a3,3,0,0,0,2.37-1,3.91,3.91,0,0,0,.84-2.69v-.58a4,4,0,0,0-.8-2.64,2.85,2.85,0,0,0-2.26-.95Z" transform="translate(-17.13 -23.26)"/><path class="cls-11" d="M121.74,213h-4.32v3.53h5v1.07h-6.32v-10h6.26v1.07h-5V212h4.32Z" transform="translate(-17.13 -23.26)"/><path class="cls-11" d="M130.47,213.18A6.11,6.11,0,0,1,128,212a2.28,2.28,0,0,1-.77-1.75,2.39,2.39,0,0,1,.94-1.94,3.75,3.75,0,0,1,2.44-.77,4,4,0,0,1,1.83.4A3,3,0,0,1,133.7,209a2.83,2.83,0,0,1,.44,1.52h-1.32a1.8,1.8,0,0,0-.58-1.42,2.35,2.35,0,0,0-1.62-.52,2.42,2.42,0,0,0-1.51.43,1.44,1.44,0,0,0-.54,1.19,1.28,1.28,0,0,0,.51,1,5.07,5.07,0,0,0,1.76.77,8,8,0,0,1,1.94.77,3,3,0,0,1,1,1,2.47,2.47,0,0,1,.34,1.32,2.33,2.33,0,0,1-.95,1.94,4,4,0,0,1-2.52.73,4.54,4.54,0,0,1-1.91-.4,3.24,3.24,0,0,1-1.37-1.07,2.66,2.66,0,0,1-.48-1.55h1.32a1.71,1.71,0,0,0,.66,1.42,2.81,2.81,0,0,0,1.78.52,2.61,2.61,0,0,0,1.6-.42,1.4,1.4,0,0,0,.55-1.16,1.37,1.37,0,0,0-.51-1.13A6.15,6.15,0,0,0,130.47,213.18Z" transform="translate(-17.13 -23.26)"/><path class="cls-11" d="M141.47,213h-4.32v3.53h5v1.07h-6.32v-10h6.25v1.07h-4.94V212h4.32Z" transform="translate(-17.13 -23.26)"/><path class="cls-11" d="M151.12,214.46A3.64,3.64,0,0,1,150,216.9a3.82,3.82,0,0,1-2.61.86,3.52,3.52,0,0,1-2.82-1.27,5.07,5.07,0,0,1-1.06-3.38v-1a5.69,5.69,0,0,1,.49-2.44,3.73,3.73,0,0,1,1.41-1.62,3.92,3.92,0,0,1,2.1-.56,3.57,3.57,0,0,1,2.54.89,3.71,3.71,0,0,1,1.12,2.45H149.8a2.84,2.84,0,0,0-.74-1.73,2.25,2.25,0,0,0-1.6-.54,2.33,2.33,0,0,0-2,.93,4.26,4.26,0,0,0-.72,2.65v1a4.41,4.41,0,0,0,.68,2.58,2.19,2.19,0,0,0,1.89,1,2.53,2.53,0,0,0,1.68-.49,2.77,2.77,0,0,0,.78-1.73Z" transform="translate(-17.13 -23.26)"/><path class="cls-11" d="M158.41,215h-4.17l-.94,2.6H152l3.8-10h1.14l3.81,10h-1.34Zm-3.78-1.08H158l-1.7-4.65Z" transform="translate(-17.13 -23.26)"/><path class="cls-11" d="M165.69,213.59h-2.34v4H162v-10h3.29a3.92,3.92,0,0,1,2.59.76,2.77,2.77,0,0,1,.9,2.23,2.64,2.64,0,0,1-.5,1.62,2.91,2.91,0,0,1-1.4,1l2.34,4.23v.08h-1.41Zm-2.34-1.07h2a2.29,2.29,0,0,0,1.56-.51,1.71,1.71,0,0,0,.57-1.35,1.8,1.8,0,0,0-.55-1.42,2.33,2.33,0,0,0-1.59-.5h-2Z" transform="translate(-17.13 -23.26)"/></g><g class="cls-9"><path class="cls-11" d="M32.82,237.62H31.54v-8.43l-2.55.94V229l3.63-1.36h.2Z" transform="translate(-17.13 -23.26)"/><path class="cls-11" d="M46.92,228.74h-3.2v8.88H42.41v-8.88H39.22v-1.07h7.7Z" transform="translate(-17.13 -23.26)"/><path class="cls-11" d="M55.86,233a6.16,6.16,0,0,1-.49,2.56,3.72,3.72,0,0,1-1.4,1.66,3.76,3.76,0,0,1-2.1.58,3.71,3.71,0,0,1-3.5-2.23,6,6,0,0,1-.52-2.48v-.71a6.12,6.12,0,0,1,.5-2.54,3.89,3.89,0,0,1,1.42-1.69,4.07,4.07,0,0,1,4.19,0,3.7,3.7,0,0,1,1.41,1.67,6.19,6.19,0,0,1,.49,2.56Zm-1.31-.64a4.45,4.45,0,0,0-.71-2.72,2.33,2.33,0,0,0-2-.94,2.29,2.29,0,0,0-2,.94,4.35,4.35,0,0,0-.74,2.63V233a4.46,4.46,0,0,0,.72,2.7,2.31,2.31,0,0,0,2,1,2.34,2.34,0,0,0,2-.92,4.48,4.48,0,0,0,.71-2.66Z" transform="translate(-17.13 -23.26)"/><path class="cls-11" d="M61.48,233.59H59.14v4H57.82v-10h3.3a3.87,3.87,0,0,1,2.58.76,2.75,2.75,0,0,1,.91,2.23,2.71,2.71,0,0,1-.5,1.62,3,3,0,0,1-1.4,1l2.34,4.23v.08H63.64Zm-2.34-1.07h2a2.25,2.25,0,0,0,1.55-.51,1.69,1.69,0,0,0,.58-1.35,1.8,1.8,0,0,0-.55-1.42,2.36,2.36,0,0,0-1.59-.5h-2Z" transform="translate(-17.13 -23.26)"/><path class="cls-11" d="M74.1,237.62H72.78l-5-7.67v7.67H66.45v-10h1.32l5,7.7v-7.7H74.1Z" transform="translate(-17.13 -23.26)"/><path class="cls-11" d="M82.06,233H77.74v3.53h5v1.07H76.43v-10h6.25v1.07H77.74V232h4.32Z" transform="translate(-17.13 -23.26)"/><path class="cls-11" d="M85.79,237.62H84.48v-10h1.31Z" transform="translate(-17.13 -23.26)"/><path class="cls-11" d="M91.84,233.59H89.51v4H88.19v-10h3.29a3.9,3.9,0,0,1,2.59.76,2.78,2.78,0,0,1,.91,2.23,2.65,2.65,0,0,1-.51,1.62,2.91,2.91,0,0,1-1.4,1l2.34,4.23v.08H94Zm-2.33-1.07h2a2.29,2.29,0,0,0,1.56-.51,1.72,1.72,0,0,0,.58-1.35,1.83,1.83,0,0,0-.55-1.42,2.36,2.36,0,0,0-1.59-.5h-2Z" transform="translate(-17.13 -23.26)"/><path class="cls-11" d="M102.31,235H98.14l-.94,2.6H95.85l3.8-10h1.15l3.81,10h-1.35Zm-3.77-1.08h3.38l-1.69-4.65Z" transform="translate(-17.13 -23.26)"/><path class="cls-11" d="M115,233h-4.31v3.53h5v1.07h-6.33v-10h6.26v1.07h-4.94V232H115Z" transform="translate(-17.13 -23.26)"/><path class="cls-11" d="M118.69,236.55h4.72v1.07h-6v-10h1.32Z" transform="translate(-17.13 -23.26)"/><path class="cls-11" d="M130.53,233h-4.32v3.53h5v1.07H124.9v-10h6.26v1.07h-5V232h4.32Zm-1.93-8.1h1.53l-1.83,2h-1Z" transform="translate(-17.13 -23.26)"/><path class="cls-11" d="M139.87,228.74h-3.2v8.88h-1.3v-8.88h-3.19v-1.07h7.69Z" transform="translate(-17.13 -23.26)"/><path class="cls-11" d="M145,233.59h-2.34v4h-1.32v-10h3.3a3.92,3.92,0,0,1,2.59.76,2.77,2.77,0,0,1,.9,2.23,2.71,2.71,0,0,1-.5,1.62,3,3,0,0,1-1.4,1l2.34,4.23v.08h-1.41Zm-2.34-1.07h2a2.25,2.25,0,0,0,1.55-.51,1.69,1.69,0,0,0,.58-1.35,1.8,1.8,0,0,0-.55-1.42,2.35,2.35,0,0,0-1.59-.5h-2Z" transform="translate(-17.13 -23.26)"/><path class="cls-11" d="M151.38,237.62h-1.31v-10h1.31Z" transform="translate(-17.13 -23.26)"/><path class="cls-11" d="M161.1,234.46a3.64,3.64,0,0,1-1.17,2.44,3.81,3.81,0,0,1-2.6.86,3.52,3.52,0,0,1-2.83-1.27,5.07,5.07,0,0,1-1.06-3.38v-1a5.69,5.69,0,0,1,.49-2.44,3.73,3.73,0,0,1,1.41-1.62,3.92,3.92,0,0,1,2.1-.56,3.57,3.57,0,0,1,2.54.89,3.71,3.71,0,0,1,1.12,2.45h-1.32a2.84,2.84,0,0,0-.74-1.73,2.23,2.23,0,0,0-1.6-.54,2.35,2.35,0,0,0-2,.93,4.26,4.26,0,0,0-.72,2.65v1a4.41,4.41,0,0,0,.68,2.58,2.2,2.2,0,0,0,1.9,1,2.52,2.52,0,0,0,1.67-.49,2.77,2.77,0,0,0,.78-1.73Z" transform="translate(-17.13 -23.26)"/><path class="cls-11" d="M168.39,235h-4.17l-.94,2.6h-1.35l3.8-10h1.15l3.8,10h-1.34Zm-3.78-1.08H168l-1.7-4.65Z" transform="translate(-17.13 -23.26)"/></g><g class="cls-9"><path class="cls-11" d="M32.82,257.62H31.54v-8.43l-2.55.94V249l3.63-1.36h.2Z" transform="translate(-17.13 -23.26)"/><path class="cls-11" d="M44.68,257.62a2.7,2.7,0,0,1-.17-.78,2.83,2.83,0,0,1-2.11.92,2.6,2.6,0,0,1-1.79-.62,2,2,0,0,1-.71-1.57,2.12,2.12,0,0,1,.88-1.8,4.2,4.2,0,0,1,2.47-.63h1.23v-.59a1.42,1.42,0,0,0-.39-1.05,1.62,1.62,0,0,0-1.17-.39,1.86,1.86,0,0,0-1.14.34,1,1,0,0,0-.45.82H40.06a1.79,1.79,0,0,1,.39-1.07,2.73,2.73,0,0,1,1.06-.81,3.63,3.63,0,0,1,1.48-.3,2.92,2.92,0,0,1,2,.64,2.31,2.31,0,0,1,.75,1.76v3.4a4.21,4.21,0,0,0,.26,1.62v.11Zm-2.1-1a2.26,2.26,0,0,0,1.13-.31,1.79,1.79,0,0,0,.77-.8V254h-1c-1.55,0-2.32.45-2.32,1.36a1.13,1.13,0,0,0,.4.93A1.52,1.52,0,0,0,42.58,256.66Z" transform="translate(-17.13 -23.26)"/><path class="cls-11" d="M52.91,252h1a2.15,2.15,0,0,0,1.41-.47,1.59,1.59,0,0,0,.51-1.24A1.54,1.54,0,0,0,54,248.57a1.8,1.8,0,0,0-1.3.47,1.61,1.61,0,0,0-.49,1.24H51a2.54,2.54,0,0,1,.87-2,3.14,3.14,0,0,1,2.19-.78,3.1,3.1,0,0,1,2.21.75,2.65,2.65,0,0,1,.8,2.07,2.16,2.16,0,0,1-.42,1.25,2.51,2.51,0,0,1-1.14.91,2.49,2.49,0,0,1,1.27.87,2.43,2.43,0,0,1,.44,1.46,2.72,2.72,0,0,1-.87,2.13,3.26,3.26,0,0,1-2.28.79,3.41,3.41,0,0,1-2.28-.76,2.55,2.55,0,0,1-.88-2h1.27a1.62,1.62,0,0,0,.52,1.25,1.92,1.92,0,0,0,1.37.47,1.9,1.9,0,0,0,1.4-.47,1.83,1.83,0,0,0,.49-1.38,1.68,1.68,0,0,0-.53-1.33,2.34,2.34,0,0,0-1.54-.48h-1Z" transform="translate(-17.13 -23.26)"/><path class="cls-11" d="M66,255.88l2.84-8.21H70.3l-3.69,10H65.44l-3.68-10h1.43Z" transform="translate(-17.13 -23.26)"/><path class="cls-11" d="M77.26,253H72.94v3.53h5v1.07H71.63v-10h6.26v1.07h-5V252h4.32Z" transform="translate(-17.13 -23.26)"/><path class="cls-11" d="M87.24,257.62H85.92l-5-7.67v7.67H79.59v-10h1.32l5,7.7v-7.7h1.31Z" transform="translate(-17.13 -23.26)"/><path class="cls-11" d="M96.25,248.74h-3.2v8.88H91.74v-8.88H88.55v-1.07h7.7Z" transform="translate(-17.13 -23.26)"/><path class="cls-11" d="M99.13,257.62H97.82v-10h1.31Z" transform="translate(-17.13 -23.26)"/><path class="cls-11" d="M102.85,256.55h4.72v1.07h-6v-10h1.32Z" transform="translate(-17.13 -23.26)"/><path class="cls-11" d="M114.69,255h-4.17l-.94,2.6h-1.35l3.8-10h1.15l3.81,10h-1.35Zm-3.77-1.08h3.38l-1.7-4.65Z" transform="translate(-17.13 -23.26)"/><path class="cls-11" d="M118.33,257.62v-10h2.81a4.52,4.52,0,0,1,2.29.57,3.82,3.82,0,0,1,1.54,1.64,5.12,5.12,0,0,1,.55,2.43v.63a5.35,5.35,0,0,1-.54,2.47,3.82,3.82,0,0,1-1.55,1.63,4.81,4.81,0,0,1-2.35.58Zm1.31-8.88v7.81H121a3,3,0,0,0,2.36-1,3.91,3.91,0,0,0,.85-2.69v-.58a4,4,0,0,0-.8-2.64,2.85,2.85,0,0,0-2.26-.95Z" transform="translate(-17.13 -23.26)"/><path class="cls-11" d="M135.16,253a6.16,6.16,0,0,1-.49,2.56,3.7,3.7,0,0,1-1.39,1.66,3.86,3.86,0,0,1-5.61-1.65,6,6,0,0,1-.51-2.48v-.71a6.12,6.12,0,0,1,.5-2.54,3.81,3.81,0,0,1,1.41-1.69,3.86,3.86,0,0,1,2.09-.58,3.82,3.82,0,0,1,2.11.58,3.68,3.68,0,0,1,1.4,1.67,6.19,6.19,0,0,1,.49,2.56Zm-1.3-.64a4.52,4.52,0,0,0-.71-2.72,2.35,2.35,0,0,0-2-.94,2.31,2.31,0,0,0-2,.94,4.42,4.42,0,0,0-.74,2.63V253a4.4,4.4,0,0,0,.73,2.7,2.31,2.31,0,0,0,2,1,2.34,2.34,0,0,0,2-.92,4.55,4.55,0,0,0,.72-2.66Z" transform="translate(-17.13 -23.26)"/><path class="cls-11" d="M140.78,253.59h-2.34v4h-1.31v-10h3.29a3.92,3.92,0,0,1,2.59.76,2.77,2.77,0,0,1,.9,2.23,2.64,2.64,0,0,1-.5,1.62,2.91,2.91,0,0,1-1.4,1l2.34,4.23v.08h-1.41Zm-2.34-1.07h2A2.29,2.29,0,0,0,142,252a1.71,1.71,0,0,0,.57-1.35,1.8,1.8,0,0,0-.55-1.42,2.33,2.33,0,0,0-1.59-.5h-2Z" transform="translate(-17.13 -23.26)"/><path class="cls-11" d="M151.38,253h-4.32v3.53h5v1.07h-6.33v-10H152v1.07h-4.95V252h4.32Z" transform="translate(-17.13 -23.26)"/><path class="cls-11" d="M156.64,253.18a6.25,6.25,0,0,1-2.46-1.19,2.27,2.27,0,0,1-.76-1.75,2.39,2.39,0,0,1,.94-1.94,3.73,3.73,0,0,1,2.44-.77,4,4,0,0,1,1.83.4,3,3,0,0,1,1.24,1.09,2.75,2.75,0,0,1,.44,1.52H159a1.83,1.83,0,0,0-.57-1.42,2.35,2.35,0,0,0-1.62-.52,2.4,2.4,0,0,0-1.51.43,1.42,1.42,0,0,0-.55,1.19,1.26,1.26,0,0,0,.52,1A5,5,0,0,0,157,252a8.13,8.13,0,0,1,2,.77,3.08,3.08,0,0,1,1,1,2.56,2.56,0,0,1,.33,1.32,2.33,2.33,0,0,1-.94,1.94,4.06,4.06,0,0,1-2.52.73,4.59,4.59,0,0,1-1.92-.4,3.24,3.24,0,0,1-1.37-1.07,2.66,2.66,0,0,1-.48-1.55h1.32a1.7,1.7,0,0,0,.67,1.42,2.79,2.79,0,0,0,1.78.52,2.6,2.6,0,0,0,1.59-.42,1.5,1.5,0,0,0,0-2.29A6,6,0,0,0,156.64,253.18Z" transform="translate(-17.13 -23.26)"/></g><g class="cls-9"><path class="cls-11" d="M32.82,277.62H31.54v-8.43l-2.55.94V269l3.63-1.36h.2Z" transform="translate(-17.13 -23.26)"/><path class="cls-11" d="M45.8,273.22H41.63v4.4H40.31v-9.95h6.17v1.07H41.63v3.41H45.8Z" transform="translate(-17.13 -23.26)"/><path class="cls-11" d="M55.71,273a6.16,6.16,0,0,1-.49,2.56,3.72,3.72,0,0,1-1.4,1.66,3.76,3.76,0,0,1-2.1.58,3.71,3.71,0,0,1-3.5-2.23,6,6,0,0,1-.52-2.48v-.71a6.12,6.12,0,0,1,.5-2.54,3.89,3.89,0,0,1,1.42-1.69,4.07,4.07,0,0,1,4.19,0,3.7,3.7,0,0,1,1.41,1.67,6.19,6.19,0,0,1,.49,2.56Zm-1.31-.64a4.45,4.45,0,0,0-.71-2.72,2.33,2.33,0,0,0-2-.94,2.29,2.29,0,0,0-2,.94,4.35,4.35,0,0,0-.74,2.63V273a4.46,4.46,0,0,0,.72,2.7,2.31,2.31,0,0,0,2,1,2.35,2.35,0,0,0,2-.92,4.48,4.48,0,0,0,.71-2.66Z" transform="translate(-17.13 -23.26)"/><path class="cls-11" d="M61.33,273.59H59v4H57.67v-9.95H61a3.87,3.87,0,0,1,2.58.76,2.75,2.75,0,0,1,.91,2.23,2.71,2.71,0,0,1-.5,1.62,3,3,0,0,1-1.4,1l2.34,4.23v.08H63.49ZM59,272.52h2a2.25,2.25,0,0,0,1.55-.51,1.69,1.69,0,0,0,.58-1.35,1.8,1.8,0,0,0-.55-1.42,2.36,2.36,0,0,0-1.59-.5H59Z" transform="translate(-17.13 -23.26)"/><path class="cls-11" d="M74,277.62H72.63l-5-7.67v7.67H66.3v-9.95h1.32l5,7.7v-7.7H74Z" transform="translate(-17.13 -23.26)"/><path class="cls-11" d="M83.94,273a6.15,6.15,0,0,1-.5,2.56,3.7,3.7,0,0,1-1.39,1.66,3.77,3.77,0,0,1-2.11.58,3.83,3.83,0,0,1-2.08-.58,3.75,3.75,0,0,1-1.41-1.65,5.84,5.84,0,0,1-.52-2.48v-.71a6.12,6.12,0,0,1,.5-2.54,3.81,3.81,0,0,1,1.41-1.69,3.89,3.89,0,0,1,2.09-.58,3.82,3.82,0,0,1,2.11.58,3.68,3.68,0,0,1,1.4,1.67,6.19,6.19,0,0,1,.5,2.56Zm-1.31-.64a4.52,4.52,0,0,0-.71-2.72,2.35,2.35,0,0,0-2-.94,2.32,2.32,0,0,0-2,.94,4.35,4.35,0,0,0-.73,2.63V273a4.46,4.46,0,0,0,.72,2.7,2.53,2.53,0,0,0,4,.06,4.41,4.41,0,0,0,.72-2.66Z" transform="translate(-17.13 -23.26)"/><path class="cls-11" d="M95,273H90.68v3.53h5v1.07H89.37v-9.95h6.25v1.07H90.68V272H95Z" transform="translate(-17.13 -23.26)"/><path class="cls-11" d="M98.65,276.55h4.71v1.07h-6v-9.95h1.32Z" transform="translate(-17.13 -23.26)"/><path class="cls-11" d="M110.49,273h-4.32v3.53h5v1.07h-6.32v-9.95h6.25v1.07h-4.94V272h4.32Zm-1.93-8.1h1.53l-1.83,2h-1Z" transform="translate(-17.13 -23.26)"/><path class="cls-11" d="M119.83,268.74h-3.2v8.88h-1.3v-8.88h-3.2v-1.07h7.7Z" transform="translate(-17.13 -23.26)"/><path class="cls-11" d="M125,273.59h-2.34v4H121.3v-9.95h3.29a3.89,3.89,0,0,1,2.59.76,2.75,2.75,0,0,1,.91,2.23,2.71,2.71,0,0,1-.5,1.62,3,3,0,0,1-1.4,1l2.34,4.23v.08h-1.41Zm-2.34-1.07h2a2.25,2.25,0,0,0,1.55-.51,1.69,1.69,0,0,0,.58-1.35,1.83,1.83,0,0,0-.55-1.42,2.36,2.36,0,0,0-1.59-.5h-2Z" transform="translate(-17.13 -23.26)"/><path class="cls-11" d="M131.33,277.62H130v-9.95h1.31Z" transform="translate(-17.13 -23.26)"/><path class="cls-11" d="M141.06,274.46a3.72,3.72,0,0,1-1.17,2.44,3.82,3.82,0,0,1-2.61.86,3.5,3.5,0,0,1-2.82-1.27,5.07,5.07,0,0,1-1.07-3.38v-1a5.69,5.69,0,0,1,.5-2.44,3.77,3.77,0,0,1,1.4-1.62,4,4,0,0,1,2.11-.56,3.59,3.59,0,0,1,2.54.89,3.71,3.71,0,0,1,1.12,2.45h-1.32a2.9,2.9,0,0,0-.74-1.73,2.26,2.26,0,0,0-1.6-.54,2.33,2.33,0,0,0-2,.93,4.26,4.26,0,0,0-.72,2.65v1a4.41,4.41,0,0,0,.68,2.58,2.19,2.19,0,0,0,1.89.95,2.53,2.53,0,0,0,1.68-.49,2.77,2.77,0,0,0,.78-1.73Z" transform="translate(-17.13 -23.26)"/><path class="cls-11" d="M150.5,273a6.16,6.16,0,0,1-.49,2.56,3.7,3.7,0,0,1-1.39,1.66,3.86,3.86,0,0,1-5.61-1.65,6,6,0,0,1-.51-2.48v-.71a6.12,6.12,0,0,1,.5-2.54,3.81,3.81,0,0,1,1.41-1.69,4.09,4.09,0,0,1,4.2,0,3.74,3.74,0,0,1,1.4,1.67,6.19,6.19,0,0,1,.49,2.56Zm-1.3-.64a4.52,4.52,0,0,0-.71-2.72,2.35,2.35,0,0,0-2-.94,2.31,2.31,0,0,0-2,.94,4.42,4.42,0,0,0-.74,2.63V273a4.4,4.4,0,0,0,.73,2.7,2.31,2.31,0,0,0,2,1,2.34,2.34,0,0,0,2-.92,4.55,4.55,0,0,0,.72-2.66Z" transform="translate(-17.13 -23.26)"/></g><g class="cls-9"><path class="cls-12" d="M35.18,297.62H28.66v-.91l3.44-3.83a7.71,7.71,0,0,0,1.06-1.41,2.4,2.4,0,0,0,.29-1.12,1.8,1.8,0,0,0-.47-1.28,1.65,1.65,0,0,0-1.26-.5,1.92,1.92,0,0,0-1.46.54,2,2,0,0,0-.53,1.49H28.47a2.92,2.92,0,0,1,.88-2.22,3.26,3.26,0,0,1,2.37-.85,3.14,3.14,0,0,1,2.2.73,2.5,2.5,0,0,1,.8,1.94c0,1-.62,2.14-1.87,3.5l-2.67,2.89h5Z" transform="translate(-17.13 -23.26)"/><path class="cls-12" d="M47.64,294.46a3.72,3.72,0,0,1-1.17,2.44,3.82,3.82,0,0,1-2.61.86A3.5,3.5,0,0,1,41,296.49,5.07,5.07,0,0,1,40,293.11v-1a5.69,5.69,0,0,1,.5-2.44,3.77,3.77,0,0,1,1.4-1.62,4,4,0,0,1,2.11-.56,3.59,3.59,0,0,1,2.54.89,3.71,3.71,0,0,1,1.12,2.45H46.32a2.9,2.9,0,0,0-.74-1.73,2.26,2.26,0,0,0-1.6-.54,2.33,2.33,0,0,0-2,.93,4.26,4.26,0,0,0-.72,2.65v1a4.41,4.41,0,0,0,.68,2.58,2.19,2.19,0,0,0,1.89.95,2.53,2.53,0,0,0,1.68-.49,2.77,2.77,0,0,0,.78-1.73Z" transform="translate(-17.13 -23.26)"/><path class="cls-12" d="M57.08,297.62H55.76V293h-5v4.6H49.43v-9.95h1.31V292h5v-4.28h1.32Z" transform="translate(-17.13 -23.26)"/><path class="cls-12" d="M66.41,287.67v6.76a3.19,3.19,0,0,1-.88,2.31,3.59,3.59,0,0,1-2.38,1l-.35,0a3.78,3.78,0,0,1-2.61-.88,3.19,3.19,0,0,1-1-2.43v-6.78h1.3v6.74a2.3,2.3,0,1,0,4.59,0v-6.74Z" transform="translate(-17.13 -23.26)"/><path class="cls-12" d="M71.78,295.88l2.84-8.21h1.44l-3.69,9.95H71.21l-3.69-9.95H69Z" transform="translate(-17.13 -23.26)"/><path class="cls-12" d="M83,293H78.71v3.53h5v1.07H77.39v-9.95h6.26v1.07H78.71V292H83Z" transform="translate(-17.13 -23.26)"/><path class="cls-12" d="M86.76,297.62H85.45v-9.95h1.31Z" transform="translate(-17.13 -23.26)"/><path class="cls-12" d="M92.81,293.59H90.47v4H89.15v-9.95h3.3a3.87,3.87,0,0,1,2.58.76,2.75,2.75,0,0,1,.91,2.23,2.71,2.71,0,0,1-.5,1.62,3,3,0,0,1-1.4,1l2.34,4.23v.08H95Zm-2.34-1.07h2A2.25,2.25,0,0,0,94,292a1.69,1.69,0,0,0,.58-1.35,1.8,1.8,0,0,0-.55-1.42,2.36,2.36,0,0,0-1.59-.5h-2Z" transform="translate(-17.13 -23.26)"/><path class="cls-12" d="M105.43,293a6.16,6.16,0,0,1-.49,2.56,3.7,3.7,0,0,1-1.39,1.66,4.07,4.07,0,0,1-4.19,0A3.75,3.75,0,0,1,98,295.53a5.84,5.84,0,0,1-.52-2.48v-.71a6.12,6.12,0,0,1,.5-2.54,3.81,3.81,0,0,1,1.41-1.69,3.86,3.86,0,0,1,2.09-.58,3.82,3.82,0,0,1,2.11.58,3.68,3.68,0,0,1,1.4,1.67,6.19,6.19,0,0,1,.49,2.56Zm-1.3-.64a4.52,4.52,0,0,0-.71-2.72,2.35,2.35,0,0,0-2-.94,2.32,2.32,0,0,0-2,.94,4.42,4.42,0,0,0-.74,2.63V293a4.46,4.46,0,0,0,.73,2.7,2.53,2.53,0,0,0,4,.06,4.48,4.48,0,0,0,.72-2.66Z" transform="translate(-17.13 -23.26)"/><path class="cls-12" d="M110.34,293.18a6.11,6.11,0,0,1-2.46-1.19,2.28,2.28,0,0,1-.77-1.75,2.39,2.39,0,0,1,.94-1.94,3.75,3.75,0,0,1,2.44-.77,4,4,0,0,1,1.83.4,3,3,0,0,1,1.25,1.09,2.83,2.83,0,0,1,.44,1.52h-1.32a1.8,1.8,0,0,0-.58-1.42,2.35,2.35,0,0,0-1.62-.52A2.42,2.42,0,0,0,109,289a1.44,1.44,0,0,0-.54,1.19,1.28,1.28,0,0,0,.51,1,5.07,5.07,0,0,0,1.76.77,8,8,0,0,1,1.94.77,3,3,0,0,1,1,1,2.57,2.57,0,0,1,.34,1.32,2.33,2.33,0,0,1-1,1.94,4.06,4.06,0,0,1-2.52.73,4.54,4.54,0,0,1-1.91-.4,3.18,3.18,0,0,1-1.37-1.07,2.67,2.67,0,0,1-.49-1.55h1.32a1.72,1.72,0,0,0,.67,1.42,2.79,2.79,0,0,0,1.78.52,2.6,2.6,0,0,0,1.59-.42,1.38,1.38,0,0,0,.56-1.16,1.35,1.35,0,0,0-.52-1.13A6.07,6.07,0,0,0,110.34,293.18Z" transform="translate(-17.13 -23.26)"/><path class="cls-12" d="M124.8,293h-4.31v3.53h5v1.07h-6.33v-9.95h6.26v1.07h-4.94V292h4.31Z" transform="translate(-17.13 -23.26)"/><path class="cls-12" d="M128.45,296.55h4.72v1.07h-6v-9.95h1.32Z" transform="translate(-17.13 -23.26)"/><path class="cls-12" d="M140.29,293H136v3.53h5v1.07h-6.33v-9.95h6.26v1.07H136V292h4.31Zm-1.93-8.1h1.53l-1.83,2h-1Z" transform="translate(-17.13 -23.26)"/><path class="cls-12" d="M149.63,288.74h-3.19v8.88h-1.31v-8.88h-3.19v-1.07h7.69Z" transform="translate(-17.13 -23.26)"/><path class="cls-12" d="M154.76,293.59h-2.34v4H151.1v-9.95h3.3a3.92,3.92,0,0,1,2.59.76,2.77,2.77,0,0,1,.9,2.23,2.64,2.64,0,0,1-.5,1.62,2.91,2.91,0,0,1-1.4,1l2.34,4.23v.08h-1.41Zm-2.34-1.07h2A2.29,2.29,0,0,0,156,292a1.71,1.71,0,0,0,.57-1.35,1.8,1.8,0,0,0-.55-1.42,2.33,2.33,0,0,0-1.59-.5h-2Z" transform="translate(-17.13 -23.26)"/><path class="cls-12" d="M161.14,297.62h-1.31v-9.95h1.31Z" transform="translate(-17.13 -23.26)"/><path class="cls-12" d="M170.86,294.46a3.67,3.67,0,0,1-1.16,2.44,3.85,3.85,0,0,1-2.61.86,3.52,3.52,0,0,1-2.83-1.27,5.07,5.07,0,0,1-1.06-3.38v-1a5.69,5.69,0,0,1,.49-2.44,3.73,3.73,0,0,1,1.41-1.62,4,4,0,0,1,2.1-.56,3.62,3.62,0,0,1,2.55.89,3.7,3.7,0,0,1,1.11,2.45h-1.32a2.84,2.84,0,0,0-.74-1.73,2.23,2.23,0,0,0-1.6-.54,2.36,2.36,0,0,0-2,.93,4.26,4.26,0,0,0-.71,2.65v1a4.41,4.41,0,0,0,.67,2.58,2.21,2.21,0,0,0,1.9.95,2.53,2.53,0,0,0,1.68-.49,2.77,2.77,0,0,0,.77-1.73Z" transform="translate(-17.13 -23.26)"/><path class="cls-12" d="M180.31,293a6.32,6.32,0,0,1-.49,2.56,3.72,3.72,0,0,1-1.4,1.66,3.76,3.76,0,0,1-2.1.58,3.86,3.86,0,0,1-2.09-.58,3.82,3.82,0,0,1-1.41-1.65,5.84,5.84,0,0,1-.52-2.48v-.71a6.12,6.12,0,0,1,.5-2.54,3.67,3.67,0,0,1,3.5-2.27,3.82,3.82,0,0,1,2.11.58,3.7,3.7,0,0,1,1.41,1.67,6.35,6.35,0,0,1,.49,2.56Zm-1.31-.64a4.45,4.45,0,0,0-.71-2.72,2.54,2.54,0,0,0-3.95,0,4.42,4.42,0,0,0-.73,2.63V293a4.46,4.46,0,0,0,.72,2.7,2.53,2.53,0,0,0,3.95.06,4.41,4.41,0,0,0,.72-2.66Z" transform="translate(-17.13 -23.26)"/><path class="cls-12" d="M185.21,293.18a6.11,6.11,0,0,1-2.46-1.19,2.28,2.28,0,0,1-.77-1.75,2.42,2.42,0,0,1,.94-1.94,3.76,3.76,0,0,1,2.45-.77,4,4,0,0,1,1.83.4,3,3,0,0,1,1.24,1.09,2.83,2.83,0,0,1,.44,1.52h-1.32a1.83,1.83,0,0,0-.57-1.42,2.39,2.39,0,0,0-1.62-.52,2.43,2.43,0,0,0-1.52.43,1.44,1.44,0,0,0-.54,1.19,1.26,1.26,0,0,0,.52,1,4.92,4.92,0,0,0,1.75.77,7.86,7.86,0,0,1,1.94.77,2.91,2.91,0,0,1,1,1,2.47,2.47,0,0,1,.34,1.32A2.33,2.33,0,0,1,188,297a4.07,4.07,0,0,1-2.53.73,4.54,4.54,0,0,1-1.91-.4,3.24,3.24,0,0,1-1.37-1.07,2.66,2.66,0,0,1-.48-1.55H183a1.71,1.71,0,0,0,.66,1.42,2.81,2.81,0,0,0,1.78.52,2.61,2.61,0,0,0,1.6-.42,1.5,1.5,0,0,0,0-2.29A6,6,0,0,0,185.21,293.18Z" transform="translate(-17.13 -23.26)"/></g><g class="cls-9"><path class="cls-12" d="M32.82,317.62H31.54v-8.43l-2.55.94V309l3.63-1.36h.2Z" transform="translate(-17.13 -23.26)"/><path class="cls-12" d="M44.68,317.62a2.7,2.7,0,0,1-.17-.78,2.83,2.83,0,0,1-2.11.92,2.6,2.6,0,0,1-1.79-.62,2,2,0,0,1-.71-1.57,2.12,2.12,0,0,1,.88-1.8,4.2,4.2,0,0,1,2.47-.63h1.23v-.59a1.42,1.42,0,0,0-.39-1.05,1.62,1.62,0,0,0-1.17-.39,1.86,1.86,0,0,0-1.14.34,1,1,0,0,0-.45.82H40.06a1.79,1.79,0,0,1,.39-1.07,2.73,2.73,0,0,1,1.06-.81,3.63,3.63,0,0,1,1.48-.3,2.92,2.92,0,0,1,2,.64,2.31,2.31,0,0,1,.75,1.76v3.4a4.21,4.21,0,0,0,.26,1.62v.11Zm-2.1-1a2.26,2.26,0,0,0,1.13-.31,1.79,1.79,0,0,0,.77-.8V314h-1c-1.55,0-2.32.45-2.32,1.36a1.13,1.13,0,0,0,.4.93A1.52,1.52,0,0,0,42.58,316.66Z" transform="translate(-17.13 -23.26)"/><path class="cls-12" d="M57.59,317.62H51.07v-.91l3.44-3.83a8.21,8.21,0,0,0,1.06-1.41,2.4,2.4,0,0,0,.29-1.12,1.8,1.8,0,0,0-.47-1.28,1.68,1.68,0,0,0-1.26-.5,2,2,0,0,0-1.47.54,2.06,2.06,0,0,0-.52,1.49H50.88a2.92,2.92,0,0,1,.88-2.22,3.26,3.26,0,0,1,2.37-.85,3.1,3.1,0,0,1,2.19.73,2.47,2.47,0,0,1,.81,1.94c0,1-.62,2.14-1.87,3.5l-2.67,2.89h5Z" transform="translate(-17.13 -23.26)"/><path class="cls-12" d="M68.22,315H64.05l-.94,2.6H61.76l3.8-9.95h1.15l3.81,9.95H69.17Zm-3.77-1.08h3.38l-1.7-4.65Z" transform="translate(-17.13 -23.26)"/><path class="cls-12" d="M75.51,313.59H73.17v4H71.85v-9.95h3.29a3.89,3.89,0,0,1,2.59.76,2.75,2.75,0,0,1,.91,2.23,2.65,2.65,0,0,1-.51,1.62,2.93,2.93,0,0,1-1.39,1l2.33,4.23v.08h-1.4Zm-2.34-1.07h2a2.26,2.26,0,0,0,1.55-.51,1.69,1.69,0,0,0,.58-1.35,1.83,1.83,0,0,0-.55-1.42,2.36,2.36,0,0,0-1.59-.5h-2Z" transform="translate(-17.13 -23.26)"/><path class="cls-12" d="M82.91,313.91H79.57v-1h3.34Z" transform="translate(-17.13 -23.26)"/><path class="cls-12" d="M91.66,314.46a3.64,3.64,0,0,1-1.17,2.44,3.81,3.81,0,0,1-2.6.86,3.52,3.52,0,0,1-2.83-1.27A5.07,5.07,0,0,1,84,313.11v-1a5.69,5.69,0,0,1,.49-2.44,3.73,3.73,0,0,1,1.41-1.62,4,4,0,0,1,2.1-.56,3.62,3.62,0,0,1,2.55.89,3.75,3.75,0,0,1,1.11,2.45H90.34a2.84,2.84,0,0,0-.74-1.73,2.23,2.23,0,0,0-1.6-.54,2.35,2.35,0,0,0-2,.93,4.26,4.26,0,0,0-.71,2.65v1a4.41,4.41,0,0,0,.67,2.58,2.21,2.21,0,0,0,1.9.95,2.5,2.5,0,0,0,1.67-.49,2.77,2.77,0,0,0,.78-1.73Z" transform="translate(-17.13 -23.26)"/><path class="cls-12" d="M101.11,313a6.15,6.15,0,0,1-.5,2.56,3.64,3.64,0,0,1-1.39,1.66,3.77,3.77,0,0,1-2.11.58,3.85,3.85,0,0,1-2.08-.58,3.75,3.75,0,0,1-1.41-1.65,5.84,5.84,0,0,1-.52-2.48v-.71a6.12,6.12,0,0,1,.5-2.54A3.81,3.81,0,0,1,95,308.11a3.89,3.89,0,0,1,2.09-.58,3.82,3.82,0,0,1,2.11.58,3.62,3.62,0,0,1,1.4,1.67,6.19,6.19,0,0,1,.5,2.56Zm-1.31-.64a4.52,4.52,0,0,0-.71-2.72,2.54,2.54,0,0,0-4,0,4.42,4.42,0,0,0-.73,2.63V313a4.46,4.46,0,0,0,.72,2.7,2.53,2.53,0,0,0,4,.06,4.41,4.41,0,0,0,.72-2.66Z" transform="translate(-17.13 -23.26)"/><path class="cls-12" d="M110.73,317.62h-1.32l-5-7.67v7.67h-1.32v-9.95h1.32l5,7.7v-7.7h1.31Z" transform="translate(-17.13 -23.26)"/><path class="cls-12" d="M113.06,317.62v-9.95h2.81a4.52,4.52,0,0,1,2.29.57,3.82,3.82,0,0,1,1.54,1.64,5.12,5.12,0,0,1,.55,2.43v.63a5.35,5.35,0,0,1-.54,2.47,3.82,3.82,0,0,1-1.55,1.63,4.81,4.81,0,0,1-2.35.58Zm1.31-8.88v7.81h1.38a3,3,0,0,0,2.36-.95,3.91,3.91,0,0,0,.85-2.69v-.58a4,4,0,0,0-.8-2.64,2.85,2.85,0,0,0-2.26-.95Z" transform="translate(-17.13 -23.26)"/><path class="cls-12" d="M123.64,317.62h-1.31v-9.95h1.31Z" transform="translate(-17.13 -23.26)"/><path class="cls-12" d="M133.37,314.46a3.72,3.72,0,0,1-1.17,2.44,3.82,3.82,0,0,1-2.61.86,3.5,3.5,0,0,1-2.82-1.27,5.07,5.07,0,0,1-1.07-3.38v-1a5.69,5.69,0,0,1,.5-2.44,3.77,3.77,0,0,1,1.4-1.62,4,4,0,0,1,2.11-.56,3.59,3.59,0,0,1,2.54.89,3.71,3.71,0,0,1,1.12,2.45h-1.32a2.9,2.9,0,0,0-.75-1.73,2.22,2.22,0,0,0-1.59-.54,2.33,2.33,0,0,0-2,.93,4.26,4.26,0,0,0-.72,2.65v1a4.41,4.41,0,0,0,.68,2.58,2.19,2.19,0,0,0,1.89.95,2.53,2.53,0,0,0,1.68-.49,2.77,2.77,0,0,0,.78-1.73Z" transform="translate(-17.13 -23.26)"/><path class="cls-12" d="M136.56,317.62h-1.31v-9.95h1.31Z" transform="translate(-17.13 -23.26)"/><path class="cls-12" d="M146.62,313a6.16,6.16,0,0,1-.49,2.56,3.72,3.72,0,0,1-1.4,1.66,3.76,3.76,0,0,1-2.1.58,3.71,3.71,0,0,1-3.5-2.23,6,6,0,0,1-.51-2.48v-.71a6.12,6.12,0,0,1,.49-2.54,3.89,3.89,0,0,1,1.42-1.69,4.07,4.07,0,0,1,4.19,0,3.7,3.7,0,0,1,1.41,1.67,6.19,6.19,0,0,1,.49,2.56Zm-1.31-.64a4.45,4.45,0,0,0-.71-2.72,2.33,2.33,0,0,0-2-.94,2.31,2.31,0,0,0-2,.94,4.35,4.35,0,0,0-.74,2.63V313a4.46,4.46,0,0,0,.72,2.7,2.54,2.54,0,0,0,4,.06,4.48,4.48,0,0,0,.71-2.66Z" transform="translate(-17.13 -23.26)"/><path class="cls-12" d="M156.24,317.62h-1.32l-5-7.67v7.67h-1.32v-9.95h1.32l5,7.7v-7.7h1.31Z" transform="translate(-17.13 -23.26)"/><path class="cls-12" d="M164.19,315H160l-.94,2.6h-1.35l3.8-9.95h1.15l3.81,9.95h-1.35Zm-3.77-1.08h3.38l-1.7-4.65Z" transform="translate(-17.13 -23.26)"/><path class="cls-12" d="M167.83,317.62v-9.95h2.8a4.54,4.54,0,0,1,2.3.57,3.82,3.82,0,0,1,1.54,1.64,5.12,5.12,0,0,1,.55,2.43v.63a5.35,5.35,0,0,1-.54,2.47,3.82,3.82,0,0,1-1.55,1.63,4.81,4.81,0,0,1-2.35.58Zm1.31-8.88v7.81h1.38a3,3,0,0,0,2.36-.95,3.91,3.91,0,0,0,.84-2.69v-.58a4,4,0,0,0-.79-2.64,2.86,2.86,0,0,0-2.26-.95Z" transform="translate(-17.13 -23.26)"/><path class="cls-12" d="M184.66,313a6.16,6.16,0,0,1-.49,2.56,3.7,3.7,0,0,1-1.39,1.66,3.82,3.82,0,0,1-2.11.58,3.71,3.71,0,0,1-3.5-2.23,6,6,0,0,1-.51-2.48v-.71a6,6,0,0,1,.5-2.54,3.81,3.81,0,0,1,1.41-1.69,4.09,4.09,0,0,1,4.2,0,3.74,3.74,0,0,1,1.4,1.67,6.19,6.19,0,0,1,.49,2.56Zm-1.3-.64a4.52,4.52,0,0,0-.71-2.72,2.35,2.35,0,0,0-2-.94,2.31,2.31,0,0,0-2,.94,4.42,4.42,0,0,0-.74,2.63V313a4.46,4.46,0,0,0,.72,2.7,2.54,2.54,0,0,0,4,.06,4.55,4.55,0,0,0,.72-2.66Z" transform="translate(-17.13 -23.26)"/><path class="cls-12" d="M186.38,313.58a10.45,10.45,0,0,1,.42-3A8.65,8.65,0,0,1,188,308a5.31,5.31,0,0,1,1.7-1.64l.26.83a5.42,5.42,0,0,0-1.63,2.34,10,10,0,0,0-.7,3.52v.58a10.21,10.21,0,0,0,1,4.58,5.53,5.53,0,0,0,1.38,1.82l-.26.77a5.38,5.38,0,0,1-1.73-1.69A9.47,9.47,0,0,1,186.38,313.58Z" transform="translate(-17.13 -23.26)"/><path class="cls-12" d="M194.35,313.18a6.11,6.11,0,0,1-2.46-1.19,2.28,2.28,0,0,1-.77-1.75,2.42,2.42,0,0,1,.94-1.94,3.76,3.76,0,0,1,2.45-.77,4,4,0,0,1,1.82.4,3,3,0,0,1,1.25,1.09,2.83,2.83,0,0,1,.44,1.52H196.7a1.83,1.83,0,0,0-.57-1.42,2.39,2.39,0,0,0-1.62-.52A2.43,2.43,0,0,0,193,309a1.44,1.44,0,0,0-.54,1.19,1.28,1.28,0,0,0,.51,1,5.07,5.07,0,0,0,1.76.77,7.86,7.86,0,0,1,1.94.77,2.91,2.91,0,0,1,1,1,2.47,2.47,0,0,1,.34,1.32,2.33,2.33,0,0,1-.94,1.94,4.07,4.07,0,0,1-2.53.73,4.54,4.54,0,0,1-1.91-.4,3.24,3.24,0,0,1-1.37-1.07,2.66,2.66,0,0,1-.48-1.55h1.32a1.71,1.71,0,0,0,.66,1.42,2.81,2.81,0,0,0,1.78.52,2.61,2.61,0,0,0,1.6-.42,1.5,1.5,0,0,0,0-2.29A6,6,0,0,0,194.35,313.18Z" transform="translate(-17.13 -23.26)"/><path class="cls-12" d="M202.44,313.65a10.4,10.4,0,0,1-.4,2.92,8.49,8.49,0,0,1-1.22,2.58,5.34,5.34,0,0,1-1.73,1.68l-.26-.77a5.54,5.54,0,0,0,1.69-2.5,11,11,0,0,0,.65-3.77v-.22a11.25,11.25,0,0,0-.3-2.67,8.76,8.76,0,0,0-.84-2.21,5.23,5.23,0,0,0-1.2-1.53l.26-.77a5.29,5.29,0,0,1,1.72,1.67,8.83,8.83,0,0,1,1.23,2.57A10.91,10.91,0,0,1,202.44,313.65Z" transform="translate(-17.13 -23.26)"/></g></g></g></svg>
