<svg id="Layer_1" data-name="Layer 1" xmlns="http://www.w3.org/2000/svg" viewBox="0 0 197 380"><defs><style>.cls-1{fill:#FFFAF6;}.cls-2{fill:#fff;}.cls-3{fill:#eae8e5;}.cls-4{fill:#FFCD52;}.cls-5{fill:#33385c;}.cls-6{fill:#454b6d;}.cls-7{fill:#4cc3ed;}.cls-8{fill:#26BF64;}.cls-9{isolation:isolate;}.cls-10{fill:#26BF64;}.cls-11{fill:#707071;}.cls-12{fill:#C66D00;}</style></defs><g id="resI"><g id="Group_14514" data-name="Group 14514"><path id="Rectangle_17486" data-name="Rectangle 17486" class="cls-1" d="M26.74,23.26h177a10,10,0,0,1,10,10v360a10,10,0,0,1-10,10h-177a10,10,0,0,1-10-10v-360A10,10,0,0,1,26.74,23.26Z" transform="translate(-16.74 -23.26)"/></g><g id="Group_14518" data-name="Group 14518"><g id="Group_14444" data-name="Group 14444"><g id="home"><g id="Group_14479" data-name="Group 14479"><path id="Path_13312" data-name="Path 13312" class="cls-2" d="M69.58,60.13l-11-10.64a.83.83,0,0,0-1.15,0l-11,10.64A.83.83,0,0,0,47,61.56h1.46V73.19a.83.83,0,0,0,.83.83h5.82a.83.83,0,0,0,.83-.83V66.54h4.15v6.65a.83.83,0,0,0,.83.83H66.7a.83.83,0,0,0,.83-.83V61.56H69a.83.83,0,0,0,.83-.83.73.73,0,0,0-.24-.6Zm-2,.6a.83.83,0,0,0-.83.83V73.19H60.9V66.54a.83.83,0,0,0-.83-.83H55.92a.83.83,0,0,0-.83.83v6.65H49.27V61.56a.83.83,0,0,0-.83-.83H47L58,50.09,69,60.73Z" transform="translate(-16.74 -23.26)"/></g></g><g id="Group_14517" data-name="Group 14517"><g id="home-2" data-name="home"><path id="Path_13316" data-name="Path 13316" class="cls-3" d="M58,41.59,42.1,52.36V77H73.83V52.36Z" transform="translate(-16.74 -23.26)"/><path id="Path_13317" data-name="Path 13317" class="cls-4" d="M48.06,63.8h7.27V77H48.06Z" transform="translate(-16.74 -23.26)"/><path id="Path_13318" data-name="Path 13318" class="cls-5" d="M62.6,69.75h9.26v2.64H62.6Z" transform="translate(-16.74 -23.26)"/><g id="Group_14517-2" data-name="Group 14517-2"><path id="Path_13319" data-name="Path 13319" class="cls-6" d="M60.62,77V67.76l1.32-2,1.32,2V77Z" transform="translate(-16.74 -23.26)"/><path id="Path_13320" data-name="Path 13320" class="cls-6" d="M65.91,77V67.76l1.32-2,1.32,2V77Z" transform="translate(-16.74 -23.26)"/><path id="Path_13321" data-name="Path 13321" class="cls-6" d="M71.2,77V67.76l1.32-2,1.32,2V77Z" transform="translate(-16.74 -23.26)"/></g><path id="Path_13322" data-name="Path 13322" class="cls-7" d="M60,57.85H56a2,2,0,0,1-2-2v-4a2,2,0,0,1,2-2h4a2,2,0,0,1,2,2h0v4a2,2,0,0,1-2,2Z" transform="translate(-16.74 -23.26)"/><path id="Path_13323" data-name="Path 13323" class="cls-6" d="M61.94,53.22h-3.3V49.91H57.32v3.31H54v1.32h3.31v3.31h1.32V54.54H62Z" transform="translate(-16.74 -23.26)"/><path id="Path_13324" data-name="Path 13324" class="cls-6" d="M52,69.75h1.32v1.32H52Z" transform="translate(-16.74 -23.26)"/><path id="Path_13325" data-name="Path 13325" class="cls-6" d="M41.45,71.73h1.32V77H41.45Z" transform="translate(-16.74 -23.26)"/><path id="Path_13326" data-name="Path 13326" class="cls-8" d="M45.41,69.08c0,2.37-1.48,4-3.31,4s-3.31-1.59-3.31-4c0-1.55,1.41-5.3,2.39-7.72a1,1,0,0,1,1.84,0C44,63.78,45.41,67.54,45.41,69.08Z" transform="translate(-16.74 -23.26)"/><path id="Path_13327" data-name="Path 13327" class="cls-6" d="M38.14,76.36H77.81v1.32H38.14Z" transform="translate(-16.74 -23.26)"/><path id="Path_13328" data-name="Path 13328" class="cls-4" d="M75.74,53.65,58,41.59,40.2,53.65l-1.49-2.19L58,38.39,77.21,51.46Z" transform="translate(-16.74 -23.26)"/></g></g></g></g><g class="cls-9"><path class="cls-10" d="M102.32,62.88H100.8v3.38H98.9V57h3.43a3.89,3.89,0,0,1,2.53.73,2.5,2.5,0,0,1,.88,2.06,2.82,2.82,0,0,1-.41,1.58,2.74,2.74,0,0,1-1.24,1l2,3.78v.09h-2Zm-1.52-1.55h1.54a1.61,1.61,0,0,0,1.11-.36,1.33,1.33,0,0,0,.39-1,1.4,1.4,0,0,0-.37-1,1.55,1.55,0,0,0-1.14-.37H100.8Z" transform="translate(-16.74 -23.26)"/><path class="cls-10" d="M112.75,62.25H109.1v2.48h4.29v1.53h-6.2V57h6.18v1.54H109.1v2.2h3.65Z" transform="translate(-16.74 -23.26)"/><path class="cls-10" d="M119.3,63.83a1,1,0,0,0-.38-.83,5.19,5.19,0,0,0-1.38-.6,9.65,9.65,0,0,1-1.56-.64,2.56,2.56,0,0,1-1.58-2.29,2.22,2.22,0,0,1,.42-1.33,2.75,2.75,0,0,1,1.22-.92,4.54,4.54,0,0,1,1.77-.33,4.18,4.18,0,0,1,1.77.36,2.84,2.84,0,0,1,1.2,1,2.71,2.71,0,0,1,.43,1.49H119.3a1.23,1.23,0,0,0-.4-1,1.6,1.6,0,0,0-1.12-.35,1.74,1.74,0,0,0-1.09.29,1,1,0,0,0-.38.78.88.88,0,0,0,.45.75,4.65,4.65,0,0,0,1.34.57A5.8,5.8,0,0,1,120.46,62a2.39,2.39,0,0,1,.75,1.8,2.23,2.23,0,0,1-.91,1.88,4,4,0,0,1-2.44.68,4.75,4.75,0,0,1-2-.39,3,3,0,0,1-1.33-1.07,2.69,2.69,0,0,1-.46-1.57H116q0,1.53,1.83,1.53a1.75,1.75,0,0,0,1.06-.28A.9.9,0,0,0,119.3,63.83Z" transform="translate(-16.74 -23.26)"/><path class="cls-10" d="M124.52,66.26h-1.9V57h1.9Z" transform="translate(-16.74 -23.26)"/><path class="cls-10" d="M126.29,66.26V57h2.84a4.38,4.38,0,0,1,2.18.54,3.85,3.85,0,0,1,1.5,1.57,4.79,4.79,0,0,1,.54,2.3v.42a4.84,4.84,0,0,1-.53,2.29,3.8,3.8,0,0,1-1.49,1.56,4.42,4.42,0,0,1-2.18.56Zm1.9-7.7v6.17h.92a2.11,2.11,0,0,0,1.71-.73,3.33,3.33,0,0,0,.6-2.09v-.49a3.32,3.32,0,0,0-.58-2.13,2.05,2.05,0,0,0-1.71-.73Z" transform="translate(-16.74 -23.26)"/><path class="cls-10" d="M140.29,62.25h-3.65v2.48h4.29v1.53h-6.2V57h6.19v1.54h-4.28v2.2h3.65Z" transform="translate(-16.74 -23.26)"/><path class="cls-10" d="M149.56,66.26h-1.9L144,60.18v6.08h-1.9V57H144l3.71,6.09V57h1.9Z" transform="translate(-16.74 -23.26)"/><path class="cls-10" d="M158.48,63.18a3.28,3.28,0,0,1-1.1,2.35,3.88,3.88,0,0,1-2.62.85,3.48,3.48,0,0,1-2.8-1.19,5,5,0,0,1-1-3.29v-.56a5.45,5.45,0,0,1,.47-2.35,3.49,3.49,0,0,1,1.34-1.56,3.78,3.78,0,0,1,2-.54,3.72,3.72,0,0,1,2.57.86,3.46,3.46,0,0,1,1.13,2.4h-1.9a1.93,1.93,0,0,0-.5-1.3,1.82,1.82,0,0,0-1.3-.4,1.64,1.64,0,0,0-1.43.68,3.82,3.82,0,0,0-.48,2.12V62a4.12,4.12,0,0,0,.45,2.19,1.59,1.59,0,0,0,1.43.69,1.57,1.57,0,0,0,1.82-1.65Z" transform="translate(-16.74 -23.26)"/><path class="cls-10" d="M161.76,66.26h-1.91V57h1.91Z" transform="translate(-16.74 -23.26)"/><path class="cls-10" d="M168.85,64.35h-3.34l-.63,1.91h-2L166.29,57h1.77l3.46,9.24h-2ZM166,62.81h2.31l-1.16-3.46Z" transform="translate(-16.74 -23.26)"/><path class="cls-10" d="M174.29,64.73h4v1.53h-6V57h1.91Z" transform="translate(-16.74 -23.26)"/><path class="cls-10" d="M184.68,66.26h-1.9V57h1.9Z" transform="translate(-16.74 -23.26)"/><path class="cls-10" d="M189.86,64,192,57h2.12l-3.22,9.24h-2L185.67,57h2.11Z" transform="translate(-16.74 -23.26)"/></g><g class="cls-9"><path class="cls-10" d="M124.39,75.73v1.66h1.28v.91h-1.28v4.26a.92.92,0,0,0,.17.62.71.71,0,0,0,.58.21,3,3,0,0,0,.56-.08v1a3.6,3.6,0,0,1-.9.12,1.46,1.46,0,0,1-1.19-.47,2.09,2.09,0,0,1-.4-1.35V78.3H122v-.91h1.25V75.73Z" transform="translate(-16.74 -23.26)"/><path class="cls-10" d="M130.36,78.44a3.52,3.52,0,0,0-.58,0,1.56,1.56,0,0,0-1.57,1v4.88H127V77.39h1.14l0,.79a1.84,1.84,0,0,1,1.64-.92,1.18,1.18,0,0,1,.52.09Z" transform="translate(-16.74 -23.26)"/><path class="cls-10" d="M131.45,75.57a.67.67,0,0,1,.17-.48.78.78,0,0,1,1,0,.68.68,0,0,1,.18.48.64.64,0,0,1-.18.47.81.81,0,0,1-1,0A.63.63,0,0,1,131.45,75.57Zm1.26,8.69h-1.17V77.39h1.17Z" transform="translate(-16.74 -23.26)"/><path class="cls-10" d="M135.17,84.26v-6h-1.08v-.91h1.08v-.7a2.35,2.35,0,0,1,.59-1.71,2.25,2.25,0,0,1,1.67-.6,3.21,3.21,0,0,1,.81.1l-.07,1a3.13,3.13,0,0,0-.63-.06,1.11,1.11,0,0,0-.88.34,1.33,1.33,0,0,0-.31,1v.73h1.46v.91h-1.46v6Z" transform="translate(-16.74 -23.26)"/><path class="cls-10" d="M143.35,84.26a2.36,2.36,0,0,1-.17-.73,2.6,2.6,0,0,1-2,.85,2.45,2.45,0,0,1-1.67-.57,1.87,1.87,0,0,1-.65-1.46,1.92,1.92,0,0,1,.82-1.66,3.8,3.8,0,0,1,2.29-.6h1.14v-.54a1.31,1.31,0,0,0-.37-1,1.47,1.47,0,0,0-1.08-.36,1.64,1.64,0,0,0-1.05.32.91.91,0,0,0-.43.76h-1.18a1.59,1.59,0,0,1,.37-1,2.48,2.48,0,0,1,1-.76,3.39,3.39,0,0,1,1.37-.28,2.7,2.7,0,0,1,1.86.6,2.14,2.14,0,0,1,.7,1.63v3.16a3.94,3.94,0,0,0,.24,1.51v.1Zm-1.95-.9a2.07,2.07,0,0,0,1-.28,1.65,1.65,0,0,0,.71-.75v-1.4h-.92q-2.16,0-2.16,1.26a1.08,1.08,0,0,0,.37.86A1.41,1.41,0,0,0,141.4,83.36Zm1.08-8.85h1.43l-1.7,1.86h-1Z" transform="translate(-16.74 -23.26)"/><path class="cls-10" d="M150.18,82.44a.85.85,0,0,0-.36-.74,3.45,3.45,0,0,0-1.25-.46,6,6,0,0,1-1.42-.45,2,2,0,0,1-.77-.64,1.48,1.48,0,0,1-.25-.87,1.79,1.79,0,0,1,.71-1.43,3.18,3.18,0,0,1,3.72,0,1.89,1.89,0,0,1,.73,1.54h-1.18a1.07,1.07,0,0,0-.41-.83,1.5,1.5,0,0,0-1-.35,1.62,1.62,0,0,0-1,.28.87.87,0,0,0-.36.73.71.71,0,0,0,.34.64,4.21,4.21,0,0,0,1.21.41,6.29,6.29,0,0,1,1.43.47,2.1,2.1,0,0,1,.81.66,1.64,1.64,0,0,1,.26.93,1.75,1.75,0,0,1-.73,1.48,3.09,3.09,0,0,1-1.91.55,3.34,3.34,0,0,1-1.46-.29,2.31,2.31,0,0,1-1-.81,2,2,0,0,1-.36-1.14h1.18a1.22,1.22,0,0,0,.47.94,2.17,2.17,0,0,0,2.23.08A.83.83,0,0,0,150.18,82.44Z" transform="translate(-16.74 -23.26)"/><path class="cls-10" d="M152.89,75.57a.72.72,0,0,1,.17-.48.78.78,0,0,1,1,0,.68.68,0,0,1,.18.48.64.64,0,0,1-.18.47.81.81,0,0,1-1,0A.68.68,0,0,1,152.89,75.57Zm1.27,8.69H153V77.39h1.18Z" transform="translate(-16.74 -23.26)"/><path class="cls-10" d="M158.79,83.43a1.66,1.66,0,0,0,1.1-.39,1.33,1.33,0,0,0,.52-1h1.11a2.14,2.14,0,0,1-.41,1.13,2.61,2.61,0,0,1-1,.85,3.08,3.08,0,0,1-3.55-.62,3.75,3.75,0,0,1-.83-2.56v-.2a4,4,0,0,1,.37-1.78,2.87,2.87,0,0,1,1.06-1.22,3.07,3.07,0,0,1,1.63-.43,2.74,2.74,0,0,1,1.92.7,2.47,2.47,0,0,1,.81,1.79h-1.11a1.59,1.59,0,0,0-.5-1.09,1.57,1.57,0,0,0-1.12-.43,1.64,1.64,0,0,0-1.39.64,3,3,0,0,0-.49,1.86V81a3,3,0,0,0,.48,1.83A1.69,1.69,0,0,0,158.79,83.43Z" transform="translate(-16.74 -23.26)"/><path class="cls-10" d="M162.53,80.76a4,4,0,0,1,.4-1.81A2.92,2.92,0,0,1,164,77.7a3,3,0,0,1,1.62-.44,2.93,2.93,0,0,1,2.27,1,3.78,3.78,0,0,1,.86,2.59v.08a4.17,4.17,0,0,1-.38,1.8,3,3,0,0,1-1.1,1.24,3,3,0,0,1-1.64.44,2.86,2.86,0,0,1-2.26-1,3.69,3.69,0,0,1-.87-2.57Zm1.18.14a3,3,0,0,0,.53,1.83,1.78,1.78,0,0,0,2.84,0,3.2,3.2,0,0,0,.53-2,2.93,2.93,0,0,0-.54-1.83,1.79,1.79,0,0,0-2.83,0A3.22,3.22,0,0,0,163.71,80.9Z" transform="translate(-16.74 -23.26)"/></g><g id="Group_14486" data-name="Group 14486"><g class="cls-9"><path class="cls-10" d="M55.35,376.1a3.75,3.75,0,0,1-1.17,2.44,3.82,3.82,0,0,1-2.61.85,3.5,3.5,0,0,1-2.82-1.26,5.07,5.07,0,0,1-1.07-3.38v-1a5.65,5.65,0,0,1,.5-2.44,3.77,3.77,0,0,1,1.4-1.62,4,4,0,0,1,2.11-.56,3.59,3.59,0,0,1,2.54.88,3.73,3.73,0,0,1,1.12,2.45H54a2.82,2.82,0,0,0-.75-1.72,2.22,2.22,0,0,0-1.59-.54,2.33,2.33,0,0,0-2,.93,4.24,4.24,0,0,0-.72,2.65v1a4.39,4.39,0,0,0,.68,2.58,2.18,2.18,0,0,0,1.89,1,2.53,2.53,0,0,0,1.68-.49A2.77,2.77,0,0,0,54,376.1Z" transform="translate(-16.74 -23.26)"/><path class="cls-10" d="M56.6,375.49a4.43,4.43,0,0,1,.43-1.95A3.17,3.17,0,0,1,60,371.72a3.1,3.1,0,0,1,2.44,1,4,4,0,0,1,.94,2.78v.09a4.35,4.35,0,0,1-.42,1.94,3.14,3.14,0,0,1-1.18,1.34,3.25,3.25,0,0,1-1.77.47,3.08,3.08,0,0,1-2.43-1,4,4,0,0,1-.94-2.77Zm1.28.15a3.19,3.19,0,0,0,.57,2,1.84,1.84,0,0,0,1.52.74,1.8,1.8,0,0,0,1.53-.75,3.47,3.47,0,0,0,.57-2.12,3.12,3.12,0,0,0-.58-2,1.83,1.83,0,0,0-1.53-.76,1.81,1.81,0,0,0-1.51.75A3.46,3.46,0,0,0,57.88,375.64Z" transform="translate(-16.74 -23.26)"/><path class="cls-10" d="M66.12,371.86l0,.93a2.71,2.71,0,0,1,2.22-1.07c1.56,0,2.35.89,2.36,2.65v4.89H69.48v-4.9a1.73,1.73,0,0,0-.37-1.18A1.49,1.49,0,0,0,68,372.8a1.82,1.82,0,0,0-1.08.33,2.1,2.1,0,0,0-.72.86v5.27H64.92v-7.4Z" transform="translate(-16.74 -23.26)"/><path class="cls-10" d="M73.27,379.26v-6.42H72.1v-1h1.17v-.76a2.51,2.51,0,0,1,.64-1.84,2.4,2.4,0,0,1,1.79-.65,3.26,3.26,0,0,1,.87.12l-.07,1a3.66,3.66,0,0,0-.68-.06,1.23,1.23,0,0,0-.95.36,1.47,1.47,0,0,0-.34,1v.78h1.58v1H74.53v6.42Z" transform="translate(-16.74 -23.26)"/><path class="cls-10" d="M77.51,369.9a.77.77,0,0,1,.19-.52.85.85,0,0,1,1.12,0,.73.73,0,0,1,.19.52.7.7,0,0,1-.19.51.85.85,0,0,1-1.12,0A.75.75,0,0,1,77.51,369.9Zm1.37,9.36H77.62v-7.4h1.26Z" transform="translate(-16.74 -23.26)"/><path class="cls-10" d="M84.48,373a3.05,3.05,0,0,0-.62-.05A1.67,1.67,0,0,0,82.17,374v5.25H80.91v-7.4h1.23l0,.86a2,2,0,0,1,1.76-1,1.33,1.33,0,0,1,.56.1Z" transform="translate(-16.74 -23.26)"/><path class="cls-10" d="M89.94,379.26a2.34,2.34,0,0,1-.18-.78,2.82,2.82,0,0,1-2.11.91,2.61,2.61,0,0,1-1.79-.61,2,2,0,0,1-.7-1.57,2.1,2.1,0,0,1,.88-1.8,4.15,4.15,0,0,1,2.47-.64h1.23v-.58a1.42,1.42,0,0,0-.4-1.05,1.55,1.55,0,0,0-1.17-.4,1.87,1.87,0,0,0-1.13.34,1,1,0,0,0-.46.83H85.31a1.77,1.77,0,0,1,.39-1.07,2.69,2.69,0,0,1,1.07-.81,3.6,3.6,0,0,1,1.48-.31,3,3,0,0,1,2,.64,2.34,2.34,0,0,1,.75,1.76v3.41a4.21,4.21,0,0,0,.26,1.62v.11Zm-2.1-1A2.24,2.24,0,0,0,89,378a1.93,1.93,0,0,0,.78-.8v-1.52h-1c-1.55,0-2.33.45-2.33,1.36a1.13,1.13,0,0,0,.4.93A1.53,1.53,0,0,0,87.84,378.29Z" transform="translate(-16.74 -23.26)"/><path class="cls-10" d="M102.7,375.64a4.45,4.45,0,0,1-.77,2.72,2.49,2.49,0,0,1-2.1,1,2.73,2.73,0,0,1-2.12-.85v3.56H96.45V371.86h1.16l.06.82a2.59,2.59,0,0,1,2.14-1,2.52,2.52,0,0,1,2.11,1,4.46,4.46,0,0,1,.78,2.8Zm-1.27-.14a3.25,3.25,0,0,0-.53-2,1.72,1.72,0,0,0-1.46-.72,1.87,1.87,0,0,0-1.73,1v3.53a1.86,1.86,0,0,0,1.74,1,1.72,1.72,0,0,0,1.45-.72A3.61,3.61,0,0,0,101.43,375.5Z" transform="translate(-16.74 -23.26)"/><path class="cls-10" d="M107.88,373a3.05,3.05,0,0,0-.62-.05,1.67,1.67,0,0,0-1.69,1.06v5.25H104.3v-7.4h1.24l0,.86a2,2,0,0,1,1.76-1,1.33,1.33,0,0,1,.56.1Z" transform="translate(-16.74 -23.26)"/><path class="cls-10" d="M112,379.39a3.23,3.23,0,0,1-2.45-1,3.71,3.71,0,0,1-.94-2.65v-.23a4.41,4.41,0,0,1,.42-2,3.26,3.26,0,0,1,1.18-1.36,3,3,0,0,1,1.63-.49,2.79,2.79,0,0,1,2.25.95,4.15,4.15,0,0,1,.8,2.73v.52h-5a2.63,2.63,0,0,0,.63,1.77,2,2,0,0,0,1.56.67,2.2,2.2,0,0,0,1.13-.27,2.7,2.7,0,0,0,.82-.73l.77.61A3.11,3.11,0,0,1,112,379.39Zm-.16-6.63a1.69,1.69,0,0,0-1.28.56,2.66,2.66,0,0,0-.64,1.56h3.7v-.09a2.45,2.45,0,0,0-.52-1.5A1.6,1.6,0,0,0,111.82,372.76Z" transform="translate(-16.74 -23.26)"/><path class="cls-10" d="M122.58,375.64a4.39,4.39,0,0,1-.78,2.72,2.46,2.46,0,0,1-2.09,1,2.71,2.71,0,0,1-2.12-.85v3.56h-1.26V371.86h1.15l.07.82a2.59,2.59,0,0,1,2.14-1,2.53,2.53,0,0,1,2.11,1,4.46,4.46,0,0,1,.78,2.8Zm-1.27-.14a3.32,3.32,0,0,0-.53-2,1.72,1.72,0,0,0-1.46-.72,1.87,1.87,0,0,0-1.73,1v3.53a1.86,1.86,0,0,0,1.74,1,1.72,1.72,0,0,0,1.45-.72A3.61,3.61,0,0,0,121.31,375.5Z" transform="translate(-16.74 -23.26)"/><path class="cls-10" d="M128.75,379.26a3,3,0,0,1-.18-.78,2.82,2.82,0,0,1-2.1.91,2.64,2.64,0,0,1-1.8-.61,2,2,0,0,1-.7-1.57,2.1,2.1,0,0,1,.88-1.8,4.19,4.19,0,0,1,2.47-.64h1.23v-.58a1.42,1.42,0,0,0-.39-1.05,1.58,1.58,0,0,0-1.17-.4,1.92,1.92,0,0,0-1.14.34,1,1,0,0,0-.46.83h-1.27a1.77,1.77,0,0,1,.39-1.07,2.76,2.76,0,0,1,1.07-.81,3.6,3.6,0,0,1,1.48-.31,3,3,0,0,1,2,.64,2.31,2.31,0,0,1,.76,1.76v3.41a4,4,0,0,0,.26,1.62v.11Zm-2.1-1a2.28,2.28,0,0,0,1.13-.3,2,2,0,0,0,.77-.8v-1.52h-1c-1.55,0-2.32.45-2.32,1.36a1.15,1.15,0,0,0,.39.93A1.56,1.56,0,0,0,126.65,378.29Z" transform="translate(-16.74 -23.26)"/><path class="cls-10" d="M135.37,373a3.05,3.05,0,0,0-.62-.05,1.67,1.67,0,0,0-1.69,1.06v5.25H131.8v-7.4H133l0,.86a2,2,0,0,1,1.76-1,1.3,1.3,0,0,1,.56.1Z" transform="translate(-16.74 -23.26)"/><path class="cls-10" d="M136.06,375.49a4.43,4.43,0,0,1,.43-1.95,3.17,3.17,0,0,1,2.93-1.82,3.1,3.1,0,0,1,2.44,1,4,4,0,0,1,.94,2.78v.09a4.35,4.35,0,0,1-.42,1.94,3.14,3.14,0,0,1-1.18,1.34,3.25,3.25,0,0,1-1.77.47,3.08,3.08,0,0,1-2.43-1,4,4,0,0,1-.94-2.77Zm1.28.15a3.19,3.19,0,0,0,.57,2,1.94,1.94,0,0,0,3.06,0,3.54,3.54,0,0,0,.56-2.12,3.18,3.18,0,0,0-.57-2,1.86,1.86,0,0,0-1.54-.76,1.81,1.81,0,0,0-1.51.75A3.46,3.46,0,0,0,137.34,375.64Z" transform="translate(-16.74 -23.26)"/><path class="cls-10" d="M149.57,370.07v1.79H151v1h-1.38v4.59a1.05,1.05,0,0,0,.18.67.76.76,0,0,0,.63.22,3.54,3.54,0,0,0,.6-.08v1a3.7,3.7,0,0,1-1,.13,1.58,1.58,0,0,1-1.28-.51,2.18,2.18,0,0,1-.43-1.45v-4.59H147v-1h1.35v-1.79Z" transform="translate(-16.74 -23.26)"/><path class="cls-10" d="M155.49,379.39a3.23,3.23,0,0,1-2.45-1,3.71,3.71,0,0,1-.94-2.65v-.23a4.41,4.41,0,0,1,.42-2,3.26,3.26,0,0,1,1.18-1.36,3,3,0,0,1,1.63-.49,2.79,2.79,0,0,1,2.25.95,4.15,4.15,0,0,1,.8,2.73v.52h-5a2.63,2.63,0,0,0,.63,1.77,2,2,0,0,0,1.56.67,2.26,2.26,0,0,0,1.14-.27,2.79,2.79,0,0,0,.81-.73l.77.61A3.11,3.11,0,0,1,155.49,379.39Zm-.16-6.63a1.69,1.69,0,0,0-1.28.56,2.66,2.66,0,0,0-.64,1.56h3.7v-.09a2.39,2.39,0,0,0-.52-1.5A1.6,1.6,0,0,0,155.33,372.76Zm.62-4h1.53l-1.83,2h-1Z" transform="translate(-16.74 -23.26)"/><path class="cls-10" d="M162.81,378.36A1.79,1.79,0,0,0,164,378a1.43,1.43,0,0,0,.56-1h1.2a2.39,2.39,0,0,1-.44,1.21,2.83,2.83,0,0,1-1.08.91,3.31,3.31,0,0,1-3.83-.66,4.07,4.07,0,0,1-.89-2.76v-.21a4.37,4.37,0,0,1,.4-1.92,2.92,2.92,0,0,1,1.14-1.31,3.22,3.22,0,0,1,1.75-.47,3,3,0,0,1,2.07.75,2.68,2.68,0,0,1,.88,1.93h-1.2a1.81,1.81,0,0,0-.54-1.18,1.74,1.74,0,0,0-1.21-.46,1.77,1.77,0,0,0-1.49.7,3.2,3.2,0,0,0-.53,2v.24a3.19,3.19,0,0,0,.52,2A1.78,1.78,0,0,0,162.81,378.36Z" transform="translate(-16.74 -23.26)"/><path class="cls-10" d="M168.36,371.86l0,.93a2.69,2.69,0,0,1,2.21-1.07c1.56,0,2.35.89,2.37,2.65v4.89h-1.27v-4.9a1.68,1.68,0,0,0-.37-1.18,1.46,1.46,0,0,0-1.11-.38,1.82,1.82,0,0,0-1.08.33,2.2,2.2,0,0,0-.73.86v5.27h-1.26v-7.4Z" transform="translate(-16.74 -23.26)"/><path class="cls-10" d="M174.9,369.9a.73.73,0,0,1,.19-.52.69.69,0,0,1,.55-.21.74.74,0,0,1,.57.21.77.77,0,0,1,.19.52.69.69,0,0,1-.76.72.69.69,0,0,1-.55-.21A.7.7,0,0,1,174.9,369.9Zm1.37,9.36H175v-7.4h1.27Z" transform="translate(-16.74 -23.26)"/><path class="cls-10" d="M181.26,378.36a1.79,1.79,0,0,0,1.18-.41,1.43,1.43,0,0,0,.56-1h1.2a2.39,2.39,0,0,1-.44,1.21,2.83,2.83,0,0,1-1.08.91,3.31,3.31,0,0,1-3.83-.66,4.07,4.07,0,0,1-.89-2.76v-.21a4.37,4.37,0,0,1,.4-1.92,2.92,2.92,0,0,1,1.14-1.31,3.22,3.22,0,0,1,1.75-.47,3,3,0,0,1,2.07.75,2.68,2.68,0,0,1,.88,1.93H183a1.81,1.81,0,0,0-.54-1.18,1.74,1.74,0,0,0-1.21-.46,1.77,1.77,0,0,0-1.49.7,3.2,3.2,0,0,0-.53,2v.24a3.19,3.19,0,0,0,.52,2A1.78,1.78,0,0,0,181.26,378.36Z" transform="translate(-16.74 -23.26)"/><path class="cls-10" d="M185.28,375.49a4.43,4.43,0,0,1,.43-1.95,3.17,3.17,0,0,1,2.93-1.82,3.1,3.1,0,0,1,2.44,1,4,4,0,0,1,.94,2.78v.09a4.35,4.35,0,0,1-.42,1.94,3.14,3.14,0,0,1-1.18,1.34,3.25,3.25,0,0,1-1.77.47,3.08,3.08,0,0,1-2.43-1,4,4,0,0,1-.94-2.77Zm1.27.15a3.19,3.19,0,0,0,.58,2,1.82,1.82,0,0,0,1.52.74,1.8,1.8,0,0,0,1.53-.75,3.47,3.47,0,0,0,.57-2.12,3.12,3.12,0,0,0-.58-2,1.83,1.83,0,0,0-1.53-.76,1.8,1.8,0,0,0-1.51.75A3.46,3.46,0,0,0,186.55,375.64Z" transform="translate(-16.74 -23.26)"/></g><g class="cls-9"><path class="cls-10" d="M70.42,392.22a10.81,10.81,0,0,1,.41-3,8.56,8.56,0,0,1,1.24-2.58,5.11,5.11,0,0,1,1.7-1.64l.26.83a5.44,5.44,0,0,0-1.64,2.34,10.25,10.25,0,0,0-.7,3.52v.58a10.21,10.21,0,0,0,1,4.58A5.63,5.63,0,0,0,74,398.7l-.26.77A5.41,5.41,0,0,1,72,397.78,9.56,9.56,0,0,1,70.42,392.22Z" transform="translate(-16.74 -23.26)"/><path class="cls-10" d="M81.5,392.64a4.45,4.45,0,0,1-.77,2.72,2.47,2.47,0,0,1-2.09,1,2.7,2.7,0,0,1-2.12-.85v3.56H75.25V388.86h1.16l.06.82a2.6,2.6,0,0,1,2.15-1,2.51,2.51,0,0,1,2.1,1,4.46,4.46,0,0,1,.78,2.8Zm-1.26-.14a3.25,3.25,0,0,0-.54-2,1.71,1.71,0,0,0-1.46-.72,1.85,1.85,0,0,0-1.72,1v3.53a1.84,1.84,0,0,0,1.73,1,1.72,1.72,0,0,0,1.45-.72A3.53,3.53,0,0,0,80.24,392.5Z" transform="translate(-16.74 -23.26)"/><path class="cls-10" d="M87.67,396.26a2.7,2.7,0,0,1-.17-.78,2.82,2.82,0,0,1-2.11.91,2.59,2.59,0,0,1-1.79-.61,2,2,0,0,1-.7-1.57,2.11,2.11,0,0,1,.87-1.8,4.19,4.19,0,0,1,2.47-.64h1.24v-.58a1.42,1.42,0,0,0-.4-1.05,1.58,1.58,0,0,0-1.17-.4,1.92,1.92,0,0,0-1.14.34,1,1,0,0,0-.45.83H83.05a1.77,1.77,0,0,1,.39-1.07A2.73,2.73,0,0,1,84.5,389a3.63,3.63,0,0,1,1.48-.31,3,3,0,0,1,2,.64,2.34,2.34,0,0,1,.75,1.76v3.41a4.21,4.21,0,0,0,.26,1.62v.11Zm-2.1-1a2.25,2.25,0,0,0,1.13-.3,1.93,1.93,0,0,0,.78-.8v-1.52h-1c-1.55,0-2.32.45-2.32,1.36a1.13,1.13,0,0,0,.4.93A1.52,1.52,0,0,0,85.57,395.29Z" transform="translate(-16.74 -23.26)"/><path class="cls-10" d="M90.41,392.5a4.32,4.32,0,0,1,.81-2.74,2.74,2.74,0,0,1,4.17-.15v-3.85h1.27v10.5H95.49l-.06-.8a2.57,2.57,0,0,1-2.11.93,2.53,2.53,0,0,1-2.1-1.05,4.39,4.39,0,0,1-.81-2.75Zm1.27.14a3.25,3.25,0,0,0,.52,2,1.67,1.67,0,0,0,1.43.71,1.84,1.84,0,0,0,1.76-1.08v-3.4a1.87,1.87,0,0,0-1.74-1,1.68,1.68,0,0,0-1.45.72A3.54,3.54,0,0,0,91.68,392.64Z" transform="translate(-16.74 -23.26)"/><path class="cls-10" d="M102.19,390a3.05,3.05,0,0,0-.62-.05A1.67,1.67,0,0,0,99.88,391v5.25H98.62v-7.4h1.23l0,.86a2,2,0,0,1,1.76-1,1.3,1.3,0,0,1,.56.1Z" transform="translate(-16.74 -23.26)"/><path class="cls-10" d="M107.65,396.26a3,3,0,0,1-.18-.78,2.82,2.82,0,0,1-2.11.91,2.63,2.63,0,0,1-1.79-.61,2,2,0,0,1-.7-1.57,2.1,2.1,0,0,1,.88-1.8,4.17,4.17,0,0,1,2.47-.64h1.23v-.58a1.39,1.39,0,0,0-.4-1.05,1.55,1.55,0,0,0-1.17-.4,1.87,1.87,0,0,0-1.13.34,1,1,0,0,0-.46.83H103a1.77,1.77,0,0,1,.39-1.07,2.76,2.76,0,0,1,1.07-.81,3.6,3.6,0,0,1,1.48-.31,3,3,0,0,1,2,.64,2.27,2.27,0,0,1,.75,1.76v3.41a4.21,4.21,0,0,0,.26,1.62v.11Zm.87-10.28a1.68,1.68,0,0,1-.42,1.19,1.35,1.35,0,0,1-1,.46,1.39,1.39,0,0,1-.48-.07,2.33,2.33,0,0,1-.54-.28,2.22,2.22,0,0,0-.48-.25,1.16,1.16,0,0,0-.34,0,.6.6,0,0,0-.47.22.73.73,0,0,0-.2.55l-.85-.05a1.81,1.81,0,0,1,.41-1.21,1.34,1.34,0,0,1,1.05-.48,1.14,1.14,0,0,1,.43.07,2.92,2.92,0,0,1,.52.27,4.12,4.12,0,0,0,.51.26,1.12,1.12,0,0,0,.38.06.6.6,0,0,0,.49-.24.8.8,0,0,0,.2-.54Zm-3,9.31a2.28,2.28,0,0,0,1.13-.3,2,2,0,0,0,.77-.8v-1.52h-1c-1.55,0-2.33.45-2.33,1.36a1.16,1.16,0,0,0,.4.93A1.53,1.53,0,0,0,105.55,395.29Z" transform="translate(-16.74 -23.26)"/><path class="cls-10" d="M110.36,392.49a4.3,4.3,0,0,1,.43-1.95A3.11,3.11,0,0,1,112,389.2a3.2,3.2,0,0,1,1.74-.48,3.1,3.1,0,0,1,2.44,1,4,4,0,0,1,.94,2.78v.09a4.35,4.35,0,0,1-.42,1.94,3.14,3.14,0,0,1-1.18,1.34,3.25,3.25,0,0,1-1.77.47,3.12,3.12,0,0,1-2.44-1,4,4,0,0,1-.93-2.77Zm1.27.15a3.19,3.19,0,0,0,.57,2,1.94,1.94,0,0,0,3.06,0,3.47,3.47,0,0,0,.57-2.12,3.12,3.12,0,0,0-.58-2,1.83,1.83,0,0,0-1.53-.76,1.8,1.8,0,0,0-1.51.75A3.4,3.4,0,0,0,111.63,392.64Z" transform="translate(-16.74 -23.26)"/><path class="cls-10" d="M121.84,392.5a4.32,4.32,0,0,1,.81-2.74,2.54,2.54,0,0,1,2.11-1,2.59,2.59,0,0,1,2.06.89v-3.85h1.26v10.5h-1.16l-.06-.8a2.59,2.59,0,0,1-2.12.93,2.53,2.53,0,0,1-2.09-1.05,4.39,4.39,0,0,1-.81-2.75Zm1.26.14a3.32,3.32,0,0,0,.52,2,1.7,1.7,0,0,0,1.44.71,1.85,1.85,0,0,0,1.76-1.08v-3.4a1.87,1.87,0,0,0-1.75-1,1.69,1.69,0,0,0-1.45.72A3.62,3.62,0,0,0,123.1,392.64Z" transform="translate(-16.74 -23.26)"/><path class="cls-10" d="M133.11,396.39a3.23,3.23,0,0,1-2.45-1,3.71,3.71,0,0,1-.94-2.65v-.23a4.41,4.41,0,0,1,.42-2,3.26,3.26,0,0,1,1.18-1.36,3,3,0,0,1,1.63-.49,2.79,2.79,0,0,1,2.25.95,4.15,4.15,0,0,1,.8,2.73v.52h-5a2.59,2.59,0,0,0,.64,1.77,2,2,0,0,0,1.55.67,2.2,2.2,0,0,0,1.13-.27,2.59,2.59,0,0,0,.82-.73l.77.61A3.11,3.11,0,0,1,133.11,396.39Zm-.16-6.63a1.69,1.69,0,0,0-1.28.56,2.66,2.66,0,0,0-.64,1.56h3.7v-.09a2.39,2.39,0,0,0-.52-1.5A1.6,1.6,0,0,0,133,389.76Z" transform="translate(-16.74 -23.26)"/><path class="cls-10" d="M144,396.39a3.21,3.21,0,0,1-2.44-1,3.68,3.68,0,0,1-1-2.65v-.23a4.41,4.41,0,0,1,.42-2,3.34,3.34,0,0,1,1.18-1.36,3,3,0,0,1,1.64-.49,2.77,2.77,0,0,1,2.24.95,4.15,4.15,0,0,1,.8,2.73v.52h-5a2.64,2.64,0,0,0,.64,1.77,2,2,0,0,0,1.55.67,2.24,2.24,0,0,0,1.14-.27,2.67,2.67,0,0,0,.81-.73l.77.61A3.11,3.11,0,0,1,144,396.39Zm-.15-6.63a1.71,1.71,0,0,0-1.29.56,2.72,2.72,0,0,0-.64,1.56h3.7v-.09a2.33,2.33,0,0,0-.52-1.5A1.57,1.57,0,0,0,143.84,389.76Z" transform="translate(-16.74 -23.26)"/><path class="cls-10" d="M149.54,388.86l0,.93a2.69,2.69,0,0,1,2.21-1.07c1.57,0,2.36.89,2.37,2.65v4.89h-1.27v-4.9a1.68,1.68,0,0,0-.36-1.18,1.49,1.49,0,0,0-1.12-.38,1.82,1.82,0,0,0-1.08.33,2.1,2.1,0,0,0-.72.86v5.27h-1.27v-7.4Z" transform="translate(-16.74 -23.26)"/><path class="cls-10" d="M157.78,387.07v1.79h1.38v1h-1.38v4.59a1,1,0,0,0,.19.67.76.76,0,0,0,.63.22,3.54,3.54,0,0,0,.6-.08v1a3.7,3.7,0,0,1-1,.13,1.58,1.58,0,0,1-1.28-.51,2.18,2.18,0,0,1-.43-1.45v-4.59h-1.35v-1h1.35v-1.79Z" transform="translate(-16.74 -23.26)"/><path class="cls-10" d="M164.21,390a3,3,0,0,0-.62-.05A1.67,1.67,0,0,0,161.9,391v5.25h-1.26v-7.4h1.23l0,.86a2,2,0,0,1,1.76-1,1.3,1.3,0,0,1,.56.1Z" transform="translate(-16.74 -23.26)"/><path class="cls-10" d="M169.67,396.26a3,3,0,0,1-.18-.78,2.82,2.82,0,0,1-2.1.91,2.64,2.64,0,0,1-1.8-.61,2,2,0,0,1-.7-1.57,2.1,2.1,0,0,1,.88-1.8,4.19,4.19,0,0,1,2.47-.64h1.23v-.58a1.42,1.42,0,0,0-.39-1.05,1.58,1.58,0,0,0-1.17-.4,1.92,1.92,0,0,0-1.14.34,1,1,0,0,0-.46.83H165a1.72,1.72,0,0,1,.4-1.07,2.66,2.66,0,0,1,1.06-.81,3.6,3.6,0,0,1,1.48-.31,3,3,0,0,1,2,.64,2.31,2.31,0,0,1,.76,1.76v3.41a4,4,0,0,0,.26,1.62v.11Zm-2.1-1a2.28,2.28,0,0,0,1.13-.3,2,2,0,0,0,.77-.8v-1.52h-1c-1.55,0-2.32.45-2.32,1.36a1.15,1.15,0,0,0,.39.93A1.56,1.56,0,0,0,167.57,395.29Z" transform="translate(-16.74 -23.26)"/><path class="cls-10" d="M172.41,392.5a4.32,4.32,0,0,1,.81-2.74,2.74,2.74,0,0,1,4.17-.15v-3.85h1.26v10.5h-1.16l-.06-.8a2.58,2.58,0,0,1-2.11.93,2.53,2.53,0,0,1-2.1-1.05,4.39,4.39,0,0,1-.81-2.75Zm1.27.14a3.25,3.25,0,0,0,.52,2,1.67,1.67,0,0,0,1.43.71,1.85,1.85,0,0,0,1.76-1.08v-3.4a1.87,1.87,0,0,0-1.75-1,1.67,1.67,0,0,0-1.44.72A3.54,3.54,0,0,0,173.68,392.64Z" transform="translate(-16.74 -23.26)"/><path class="cls-10" d="M185.18,396.26a3,3,0,0,1-.18-.78,2.8,2.8,0,0,1-2.1.91,2.64,2.64,0,0,1-1.8-.61,2,2,0,0,1-.7-1.57,2.12,2.12,0,0,1,.88-1.8,4.19,4.19,0,0,1,2.47-.64H185v-.58a1.42,1.42,0,0,0-.39-1.05,1.58,1.58,0,0,0-1.17-.4,1.92,1.92,0,0,0-1.14.34,1,1,0,0,0-.46.83h-1.27a1.72,1.72,0,0,1,.4-1.07A2.66,2.66,0,0,1,182,389a3.63,3.63,0,0,1,1.48-.31,3,3,0,0,1,2,.64,2.34,2.34,0,0,1,.75,1.76v3.41a4,4,0,0,0,.26,1.62v.11Zm-2.1-1a2.28,2.28,0,0,0,1.13-.3,1.9,1.9,0,0,0,.77-.8v-1.52h-1c-1.55,0-2.32.45-2.32,1.36a1.15,1.15,0,0,0,.39.93A1.56,1.56,0,0,0,183.08,395.29Z" transform="translate(-16.74 -23.26)"/><path class="cls-10" d="M191.15,392.29a10.45,10.45,0,0,1-.4,2.92,9,9,0,0,1-1.22,2.58,5.34,5.34,0,0,1-1.73,1.68l-.27-.77a5.45,5.45,0,0,0,1.69-2.51,10.76,10.76,0,0,0,.66-3.77v-.22a11.23,11.23,0,0,0-.3-2.66,8.83,8.83,0,0,0-.84-2.22,5,5,0,0,0-1.21-1.52l.27-.77a5.45,5.45,0,0,1,1.72,1.66,8.75,8.75,0,0,1,1.22,2.58A10.86,10.86,0,0,1,191.15,392.29Z" transform="translate(-16.74 -23.26)"/></g></g></g><g id="resIV"><g id="Group_14474" data-name="Group 14474"><g class="cls-9"><path class="cls-11" d="M32.42,117.3H31.15v-8.43l-2.55.94v-1.15l3.62-1.36h.2Z" transform="translate(-16.74 -23.26)"/><path class="cls-11" d="M44.29,117.3a2.47,2.47,0,0,1-.18-.78,2.83,2.83,0,0,1-2.11.92,2.63,2.63,0,0,1-1.79-.62,2,2,0,0,1-.7-1.57,2.07,2.07,0,0,1,.88-1.79,4.1,4.1,0,0,1,2.47-.64h1.23v-.58a1.39,1.39,0,0,0-.4-1.06,1.59,1.59,0,0,0-1.17-.39,1.81,1.81,0,0,0-1.13.34,1,1,0,0,0-.46.83H39.66a1.74,1.74,0,0,1,.39-1.07,2.62,2.62,0,0,1,1.07-.82,3.59,3.59,0,0,1,1.48-.3,2.9,2.9,0,0,1,2,.64,2.27,2.27,0,0,1,.75,1.76v3.4a4.21,4.21,0,0,0,.26,1.62v.11Zm-2.1-1a2.19,2.19,0,0,0,1.13-.31,1.85,1.85,0,0,0,.77-.8v-1.52h-1c-1.55,0-2.33.46-2.33,1.36a1.16,1.16,0,0,0,.4.93A1.48,1.48,0,0,0,42.19,116.34Z" transform="translate(-16.74 -23.26)"/><path class="cls-11" d="M52.51,111.71h1a2.12,2.12,0,0,0,1.41-.47,1.59,1.59,0,0,0,.51-1.24,1.54,1.54,0,0,0-1.74-1.75,1.83,1.83,0,0,0-1.31.47,1.63,1.63,0,0,0-.49,1.24H50.58a2.51,2.51,0,0,1,.86-2,3.54,3.54,0,0,1,4.41,0,2.68,2.68,0,0,1,.8,2.07,2.21,2.21,0,0,1-.42,1.26,2.6,2.6,0,0,1-1.15.91,2.43,2.43,0,0,1,1.27.86,2.38,2.38,0,0,1,.45,1.47,2.68,2.68,0,0,1-.88,2.12,3.24,3.24,0,0,1-2.27.79,3.32,3.32,0,0,1-2.28-.76,2.5,2.5,0,0,1-.88-2h1.27a1.61,1.61,0,0,0,.51,1.25,2.25,2.25,0,0,0,2.78,0,1.87,1.87,0,0,0,.48-1.38,1.68,1.68,0,0,0-.53-1.33,2.34,2.34,0,0,0-1.54-.48h-1Z" transform="translate(-16.74 -23.26)"/><path class="cls-11" d="M68.93,108.42h-3.2v8.88h-1.3v-8.88h-3.2v-1.07h7.7Z" transform="translate(-16.74 -23.26)"/><path class="cls-11" d="M73.81,115.56l2.85-8.21h1.43l-3.69,10H73.24l-3.69-10H71Z" transform="translate(-16.74 -23.26)"/><path class="cls-11" d="M79.18,113.26a10.81,10.81,0,0,1,.41-3,8.79,8.79,0,0,1,1.24-2.58,5.22,5.22,0,0,1,1.7-1.64l.26.83a5.5,5.5,0,0,0-1.64,2.34,10,10,0,0,0-.7,3.52v.58a10.07,10.07,0,0,0,1,4.58,5.27,5.27,0,0,0,1.38,1.82l-.26.77a5.31,5.31,0,0,1-1.74-1.69A9.54,9.54,0,0,1,79.18,113.26Z" transform="translate(-16.74 -23.26)"/><path class="cls-11" d="M87.14,112.87a6.39,6.39,0,0,1-2.46-1.2,2.27,2.27,0,0,1-.76-1.74,2.4,2.4,0,0,1,.94-2,3.73,3.73,0,0,1,2.44-.77,4,4,0,0,1,1.83.4,3,3,0,0,1,1.24,1.09,2.76,2.76,0,0,1,.44,1.53H89.49a1.84,1.84,0,0,0-.57-1.43,2.35,2.35,0,0,0-1.62-.51,2.4,2.4,0,0,0-1.51.42,1.42,1.42,0,0,0-.55,1.19,1.26,1.26,0,0,0,.52,1,5,5,0,0,0,1.75.77,8.57,8.57,0,0,1,1.95.77,3.08,3.08,0,0,1,1,1,2.59,2.59,0,0,1,.33,1.32,2.31,2.31,0,0,1-.94,1.94,4,4,0,0,1-2.52.73,4.74,4.74,0,0,1-1.92-.39A3.34,3.34,0,0,1,84.08,116a2.64,2.64,0,0,1-.48-1.55h1.32a1.7,1.7,0,0,0,.67,1.42,2.79,2.79,0,0,0,1.78.53,2.59,2.59,0,0,0,1.59-.43,1.37,1.37,0,0,0,.55-1.15,1.34,1.34,0,0,0-.51-1.13A5.8,5.8,0,0,0,87.14,112.87Z" transform="translate(-16.74 -23.26)"/><path class="cls-11" d="M95.24,113.33a10.78,10.78,0,0,1-.4,2.92,8.76,8.76,0,0,1-1.23,2.58,5.32,5.32,0,0,1-1.72,1.68l-.27-.77a5.47,5.47,0,0,0,1.69-2.5,10.58,10.58,0,0,0,.65-3.77v-.22a11.25,11.25,0,0,0-.3-2.67,9.31,9.31,0,0,0-.83-2.21,5.22,5.22,0,0,0-1.21-1.53l.27-.77a5.38,5.38,0,0,1,1.72,1.67,8.75,8.75,0,0,1,1.22,2.58A10.79,10.79,0,0,1,95.24,113.33Z" transform="translate(-16.74 -23.26)"/></g><g class="cls-9"><path class="cls-11" d="M32.42,137.3H31.15v-8.43l-2.55.94v-1.15l3.62-1.36h.2Z" transform="translate(-16.74 -23.26)"/><path class="cls-11" d="M47.27,136a3.08,3.08,0,0,1-1.41,1.08,5.72,5.72,0,0,1-2.11.36,4.1,4.1,0,0,1-2.16-.57,3.74,3.74,0,0,1-1.46-1.63,5.51,5.51,0,0,1-.53-2.44v-.86a5.23,5.23,0,0,1,1-3.49,3.64,3.64,0,0,1,3-1.24,3.8,3.8,0,0,1,2.51.8,3.47,3.47,0,0,1,1.16,2.26H46a2.17,2.17,0,0,0-2.36-2,2.32,2.32,0,0,0-2,.92,4.54,4.54,0,0,0-.68,2.69v.81a4.26,4.26,0,0,0,.76,2.67,2.48,2.48,0,0,0,2.07,1,4.55,4.55,0,0,0,1.3-.17,2,2,0,0,0,.91-.55v-2.23h-2.3v-1.07h3.61Z" transform="translate(-16.74 -23.26)"/><path class="cls-11" d="M55.08,132.7H50.77v3.53h5v1.07H49.46v-10h6.25v1.07H50.77v3.21h4.31Z" transform="translate(-16.74 -23.26)"/><path class="cls-11" d="M58.73,136.23h4.72v1.07h-6v-10h1.32Z" transform="translate(-16.74 -23.26)"/><path class="cls-11" d="M70.57,134.7H66.4l-.93,2.6H64.11l3.8-10h1.15l3.81,10H71.52Zm-3.77-1.08h3.38L68.49,129Z" transform="translate(-16.74 -23.26)"/><path class="cls-11" d="M74.21,137.3v-10H77a4.52,4.52,0,0,1,2.29.57,4,4,0,0,1,1.55,1.64,5.37,5.37,0,0,1,.55,2.43v.64a5.22,5.22,0,0,1-.55,2.46,3.82,3.82,0,0,1-1.55,1.63,4.78,4.78,0,0,1-2.35.58Zm1.31-8.88v7.81H76.9a3,3,0,0,0,2.36-.95,3.83,3.83,0,0,0,.85-2.68V132a3.94,3.94,0,0,0-.8-2.63,2.83,2.83,0,0,0-2.26-1Z" transform="translate(-16.74 -23.26)"/><path class="cls-11" d="M89,132.7H84.7v3.53h5v1.07H83.39v-10h6.25v1.07H84.7v3.21H89Z" transform="translate(-16.74 -23.26)"/><path class="cls-11" d="M92.75,137.3H91.44v-10h1.31Z" transform="translate(-16.74 -23.26)"/><path class="cls-11" d="M98.8,133.28H96.47v4H95.15v-10h3.29a3.9,3.9,0,0,1,2.59.76,2.79,2.79,0,0,1,.91,2.23,2.65,2.65,0,0,1-.51,1.62,3,3,0,0,1-1.4,1l2.34,4.22v.08H101Zm-2.33-1.08h2a2.34,2.34,0,0,0,1.56-.5,1.74,1.74,0,0,0,.58-1.36,1.83,1.83,0,0,0-.55-1.42,2.36,2.36,0,0,0-1.59-.5h-2Z" transform="translate(-16.74 -23.26)"/><path class="cls-11" d="M109.27,134.7H105.1l-.94,2.6h-1.35l3.8-10h1.15l3.81,10h-1.35Zm-3.77-1.08h3.38L107.19,129Z" transform="translate(-16.74 -23.26)"/></g><g class="cls-9"><path class="cls-11" d="M32.42,157.3H31.15v-8.43l-2.55.94v-1.15l3.62-1.36h.2Z" transform="translate(-16.74 -23.26)"/><path class="cls-11" d="M41.61,147.35l3.26,8.12,3.25-8.12h1.7v10H48.51v-3.87l.13-4.19-3.27,8.06h-1l-3.26-8,.13,4.17v3.87H39.92v-10Z" transform="translate(-16.74 -23.26)"/><path class="cls-11" d="M53.55,157.3H52.24v-10h1.31Z" transform="translate(-16.74 -23.26)"/><path class="cls-11" d="M63.27,154.14a3.65,3.65,0,0,1-1.16,2.44,3.85,3.85,0,0,1-2.61.86,3.49,3.49,0,0,1-2.83-1.27,5.07,5.07,0,0,1-1.06-3.38v-1a5.69,5.69,0,0,1,.49-2.44,3.65,3.65,0,0,1,1.41-1.61,3.86,3.86,0,0,1,2.1-.57,3.62,3.62,0,0,1,2.55.89,3.7,3.7,0,0,1,1.11,2.45H62a2.84,2.84,0,0,0-.74-1.73,2.23,2.23,0,0,0-1.6-.53,2.36,2.36,0,0,0-2,.93,4.3,4.3,0,0,0-.71,2.64v1a4.41,4.41,0,0,0,.67,2.58,2.21,2.21,0,0,0,1.9,1,2.53,2.53,0,0,0,1.68-.5,2.77,2.77,0,0,0,.77-1.73Z" transform="translate(-16.74 -23.26)"/><path class="cls-11" d="M68.71,153.28H66.37v4H65.06v-10h3.29a3.92,3.92,0,0,1,2.59.76,2.79,2.79,0,0,1,.9,2.23,2.64,2.64,0,0,1-.5,1.62,3,3,0,0,1-1.4,1l2.34,4.22v.08H70.87Zm-2.34-1.08h2a2.34,2.34,0,0,0,1.56-.5,1.73,1.73,0,0,0,.57-1.36,1.8,1.8,0,0,0-.55-1.42,2.33,2.33,0,0,0-1.59-.5h-2Z" transform="translate(-16.74 -23.26)"/><path class="cls-11" d="M81.34,152.65a6.3,6.3,0,0,1-.49,2.55,3.72,3.72,0,0,1-1.4,1.66,3.84,3.84,0,0,1-5.6-1.65,5.83,5.83,0,0,1-.52-2.47V152a6.12,6.12,0,0,1,.5-2.54,3.91,3.91,0,0,1,1.41-1.68,4.06,4.06,0,0,1,4.2,0,3.7,3.7,0,0,1,1.41,1.67,6.39,6.39,0,0,1,.49,2.56ZM80,152a4.4,4.4,0,0,0-.71-2.71,2.53,2.53,0,0,0-3.95,0,4.37,4.37,0,0,0-.73,2.63v.73a4.45,4.45,0,0,0,.72,2.69,2.53,2.53,0,0,0,4,.06,4.39,4.39,0,0,0,.72-2.66Z" transform="translate(-16.74 -23.26)"/><path class="cls-11" d="M85.74,153.59H82.4v-1h3.34Z" transform="translate(-16.74 -23.26)"/><path class="cls-11" d="M94.83,152.65a6.14,6.14,0,0,1-.5,2.55,3.64,3.64,0,0,1-1.39,1.66,4.07,4.07,0,0,1-4.19,0,3.7,3.7,0,0,1-1.41-1.65,5.83,5.83,0,0,1-.52-2.47V152a6.12,6.12,0,0,1,.5-2.54,3.71,3.71,0,0,1,3.5-2.27,3.82,3.82,0,0,1,2.11.58,3.62,3.62,0,0,1,1.4,1.67,6.22,6.22,0,0,1,.5,2.56ZM93.52,152a4.46,4.46,0,0,0-.71-2.71,2.36,2.36,0,0,0-2-.95,2.33,2.33,0,0,0-2,.95,4.37,4.37,0,0,0-.73,2.63v.73a4.45,4.45,0,0,0,.72,2.69,2.53,2.53,0,0,0,4,.06,4.39,4.39,0,0,0,.72-2.66Z" transform="translate(-16.74 -23.26)"/><path class="cls-11" d="M104.44,157.3h-1.32l-5-7.67v7.67H96.79v-10h1.32l5,7.7v-7.7h1.3Z" transform="translate(-16.74 -23.26)"/><path class="cls-11" d="M106.77,157.3v-10h2.81a4.54,4.54,0,0,1,2.3.57,3.87,3.87,0,0,1,1.54,1.64A5.12,5.12,0,0,1,114,152v.64a5.34,5.34,0,0,1-.54,2.46,3.82,3.82,0,0,1-1.55,1.63,4.81,4.81,0,0,1-2.35.58Zm1.32-8.88v7.81h1.38a3,3,0,0,0,2.36-.95,3.88,3.88,0,0,0,.84-2.68V152a3.93,3.93,0,0,0-.79-2.63,2.84,2.84,0,0,0-2.26-1Z" transform="translate(-16.74 -23.26)"/><path class="cls-11" d="M121.31,154.7h-4.17l-.94,2.6h-1.35l3.8-10h1.15l3.81,10h-1.35Zm-3.78-1.08h3.39l-1.7-4.65Z" transform="translate(-16.74 -23.26)"/><path class="cls-11" d="M127.88,152.87a6.24,6.24,0,0,1-2.46-1.2,2.28,2.28,0,0,1-.77-1.74,2.4,2.4,0,0,1,.94-2,3.76,3.76,0,0,1,2.45-.77,4,4,0,0,1,1.82.4,3,3,0,0,1,1.25,1.09,2.84,2.84,0,0,1,.44,1.53h-1.32a1.84,1.84,0,0,0-.57-1.43,2.38,2.38,0,0,0-1.62-.51,2.43,2.43,0,0,0-1.52.42,1.44,1.44,0,0,0-.54,1.19,1.28,1.28,0,0,0,.51,1,5.07,5.07,0,0,0,1.76.77,8.46,8.46,0,0,1,1.94.77,3,3,0,0,1,1,1,2.5,2.5,0,0,1,.34,1.32,2.34,2.34,0,0,1-.94,1.94,4,4,0,0,1-2.53.73,4.69,4.69,0,0,1-1.91-.39,3.34,3.34,0,0,1-1.37-1.08,2.64,2.64,0,0,1-.48-1.55h1.32a1.71,1.71,0,0,0,.66,1.42,2.81,2.81,0,0,0,1.78.53,2.61,2.61,0,0,0,1.6-.43,1.37,1.37,0,0,0,.55-1.15,1.34,1.34,0,0,0-.51-1.13A5.8,5.8,0,0,0,127.88,152.87Z" transform="translate(-16.74 -23.26)"/></g><g class="cls-9"><path class="cls-11" d="M32.42,177.3H31.15v-8.43l-2.55.94v-1.15l3.62-1.36h.2Z" transform="translate(-16.74 -23.26)"/><path class="cls-11" d="M45.41,172.91H41.23v4.39H39.92v-10h6.17v1.07H41.23v3.41h4.18Z" transform="translate(-16.74 -23.26)"/><path class="cls-11" d="M53.28,172.7H49v3.53h5v1.07H47.66v-10h6.25v1.07H49v3.21h4.31Z" transform="translate(-16.74 -23.26)"/><path class="cls-11" d="M59.27,173.28H56.93v4H55.61v-10H58.9a3.9,3.9,0,0,1,2.59.76,2.79,2.79,0,0,1,.91,2.23,2.65,2.65,0,0,1-.51,1.62,3,3,0,0,1-1.39,1l2.33,4.22v.08h-1.4Zm-2.34-1.08h2a2.32,2.32,0,0,0,1.56-.5,1.74,1.74,0,0,0,.58-1.36,1.83,1.83,0,0,0-.55-1.42,2.36,2.36,0,0,0-1.59-.5h-2Z" transform="translate(-16.74 -23.26)"/><path class="cls-11" d="M67.89,173.28H65.55v4H64.23v-10h3.29a3.9,3.9,0,0,1,2.59.76,2.79,2.79,0,0,1,.91,2.23,2.65,2.65,0,0,1-.51,1.62,3,3,0,0,1-1.39,1l2.33,4.22v.08h-1.4Zm-2.34-1.08h2a2.32,2.32,0,0,0,1.56-.5,1.74,1.74,0,0,0,.58-1.36,1.83,1.83,0,0,0-.55-1.42,2.36,2.36,0,0,0-1.59-.5h-2Z" transform="translate(-16.74 -23.26)"/><path class="cls-11" d="M80.51,172.65A6.14,6.14,0,0,1,80,175.2a3.65,3.65,0,0,1-1.4,1.66,4.07,4.07,0,0,1-4.19,0A3.83,3.83,0,0,1,73,175.21a6,6,0,0,1-.51-2.47V172a6,6,0,0,1,.5-2.54,3.91,3.91,0,0,1,5.6-1.69A3.7,3.7,0,0,1,80,169.46a6.22,6.22,0,0,1,.49,2.56Zm-1.3-.65a4.4,4.4,0,0,0-.72-2.71,2.52,2.52,0,0,0-3.94,0,4.37,4.37,0,0,0-.74,2.63v.73a4.45,4.45,0,0,0,.72,2.69,2.54,2.54,0,0,0,4,.06,4.53,4.53,0,0,0,.72-2.66Z" transform="translate(-16.74 -23.26)"/><path class="cls-11" d="M86,177.3v-10h2.81a4.52,4.52,0,0,1,2.29.57,3.87,3.87,0,0,1,1.54,1.64,5.12,5.12,0,0,1,.55,2.43v.64a5.34,5.34,0,0,1-.54,2.46,3.82,3.82,0,0,1-1.55,1.63,4.81,4.81,0,0,1-2.35.58Zm1.31-8.88v7.81h1.38a3,3,0,0,0,2.36-.95,3.88,3.88,0,0,0,.85-2.68V172a3.94,3.94,0,0,0-.8-2.63,2.84,2.84,0,0,0-2.26-1Z" transform="translate(-16.74 -23.26)"/><path class="cls-11" d="M100.75,172.7H96.44v3.53h5v1.07H95.13v-10h6.25v1.07H96.44v3.21h4.31Z" transform="translate(-16.74 -23.26)"/><path class="cls-11" d="M107.86,173.41v3.89h-1.31v-10h3.67a3.72,3.72,0,0,1,2.56.83,2.83,2.83,0,0,1,.93,2.21,2.79,2.79,0,0,1-.91,2.23,3.85,3.85,0,0,1-2.59.79Zm0-1.08h2.36a2.35,2.35,0,0,0,1.61-.49,1.81,1.81,0,0,0,.56-1.44,1.84,1.84,0,0,0-.56-1.42,2.2,2.2,0,0,0-1.53-.56h-2.44Z" transform="translate(-16.74 -23.26)"/><path class="cls-11" d="M119.93,174.7h-4.17l-.93,2.6h-1.36l3.8-10h1.15l3.81,10h-1.35Zm-3.77-1.08h3.38L117.85,169Z" transform="translate(-16.74 -23.26)"/><path class="cls-11" d="M126.5,172.87a6.26,6.26,0,0,1-2.45-1.2,2.24,2.24,0,0,1-.77-1.74,2.4,2.4,0,0,1,.94-2,3.73,3.73,0,0,1,2.44-.77,4,4,0,0,1,1.83.4,2.94,2.94,0,0,1,1.24,1.09,2.76,2.76,0,0,1,.44,1.53h-1.31a1.85,1.85,0,0,0-.58-1.43,2.35,2.35,0,0,0-1.62-.51,2.4,2.4,0,0,0-1.51.42,1.42,1.42,0,0,0-.55,1.19,1.29,1.29,0,0,0,.52,1,5,5,0,0,0,1.76.77,8.66,8.66,0,0,1,1.94.77,3,3,0,0,1,1,1,2.59,2.59,0,0,1,.34,1.32,2.32,2.32,0,0,1-.95,1.94,4,4,0,0,1-2.52.73,4.69,4.69,0,0,1-1.91-.39,3.37,3.37,0,0,1-1.38-1.08,2.64,2.64,0,0,1-.48-1.55h1.32a1.7,1.7,0,0,0,.67,1.42,2.79,2.79,0,0,0,1.78.53,2.59,2.59,0,0,0,1.59-.43,1.38,1.38,0,0,0,.56-1.15,1.32,1.32,0,0,0-.52-1.13A5.8,5.8,0,0,0,126.5,172.87Z" transform="translate(-16.74 -23.26)"/><path class="cls-11" d="M134.81,172.87a6.24,6.24,0,0,1-2.46-1.2,2.28,2.28,0,0,1-.77-1.74,2.42,2.42,0,0,1,.94-2,3.76,3.76,0,0,1,2.45-.77,4,4,0,0,1,1.82.4A3,3,0,0,1,138,168.7a2.84,2.84,0,0,1,.44,1.53h-1.32a1.84,1.84,0,0,0-.57-1.43,2.38,2.38,0,0,0-1.62-.51,2.43,2.43,0,0,0-1.52.42,1.44,1.44,0,0,0-.54,1.19,1.28,1.28,0,0,0,.51,1,5.07,5.07,0,0,0,1.76.77,8.28,8.28,0,0,1,1.94.77,2.91,2.91,0,0,1,1,1,2.5,2.5,0,0,1,.34,1.32,2.31,2.31,0,0,1-.94,1.94,4,4,0,0,1-2.52.73,4.71,4.71,0,0,1-1.92-.39,3.34,3.34,0,0,1-1.37-1.08,2.64,2.64,0,0,1-.48-1.55h1.32a1.71,1.71,0,0,0,.66,1.42,2.82,2.82,0,0,0,1.79.53,2.59,2.59,0,0,0,1.59-.43,1.37,1.37,0,0,0,.55-1.15,1.34,1.34,0,0,0-.51-1.13A5.8,5.8,0,0,0,134.81,172.87Z" transform="translate(-16.74 -23.26)"/><path class="cls-11" d="M145.68,174.7h-4.17l-.94,2.6h-1.35l3.8-10h1.15l3.81,10h-1.35Zm-3.77-1.08h3.38l-1.7-4.65Z" transform="translate(-16.74 -23.26)"/><path class="cls-11" d="M153,173.28h-2.34v4h-1.32v-10h3.29a3.9,3.9,0,0,1,2.59.76,2.79,2.79,0,0,1,.91,2.23,2.65,2.65,0,0,1-.51,1.62,3,3,0,0,1-1.39,1l2.33,4.22v.08h-1.4Zm-2.34-1.08h2a2.32,2.32,0,0,0,1.56-.5,1.74,1.74,0,0,0,.58-1.36,1.83,1.83,0,0,0-.55-1.42,2.36,2.36,0,0,0-1.59-.5h-2Z" transform="translate(-16.74 -23.26)"/></g><g class="cls-9"><path class="cls-11" d="M32.42,197.3H31.15v-8.43l-2.55.94v-1.15l3.62-1.36h.2Z" transform="translate(-16.74 -23.26)"/><path class="cls-11" d="M41.61,187.35l3.26,8.12,3.25-8.12h1.7v10H48.51v-3.87l.13-4.19-3.27,8.06h-1l-3.26-8,.13,4.17v3.87H39.92v-10Z" transform="translate(-16.74 -23.26)"/><path class="cls-11" d="M57.76,194.7H53.59l-.94,2.6H51.3l3.8-10h1.15l3.81,10H58.71ZM54,193.62h3.38L55.68,189Zm2.34-8.94h1.53l-1.84,2H55Z" transform="translate(-16.74 -23.26)"/><path class="cls-11" d="M68.92,192.65a6.21,6.21,0,0,1-.45,2.48,3.85,3.85,0,0,1-1.29,1.63l1.78,1.4-.9.82L66,197.32a4.28,4.28,0,0,1-1,.12,3.78,3.78,0,0,1-2.09-.58,3.7,3.7,0,0,1-1.41-1.65,5.83,5.83,0,0,1-.52-2.47V192a6.12,6.12,0,0,1,.5-2.54,3.71,3.71,0,0,1,3.5-2.27,3.94,3.94,0,0,1,2.12.58,3.79,3.79,0,0,1,1.4,1.67,6.14,6.14,0,0,1,.49,2.55ZM67.61,192a4.51,4.51,0,0,0-.7-2.71,2.53,2.53,0,0,0-3.95,0,4.3,4.3,0,0,0-.73,2.63v.73a4.47,4.47,0,0,0,.71,2.69,2.53,2.53,0,0,0,4,.06,4.39,4.39,0,0,0,.72-2.66Z" transform="translate(-16.74 -23.26)"/><path class="cls-11" d="M78,187.35v6.77a3.19,3.19,0,0,1-.88,2.3,3.54,3.54,0,0,1-2.38,1l-.35,0a3.78,3.78,0,0,1-2.61-.88,3.19,3.19,0,0,1-1-2.43v-6.78h1.3v6.74a2.07,2.07,0,0,0,2.29,2.28,2.27,2.27,0,0,0,1.7-.6,2.25,2.25,0,0,0,.6-1.67v-6.75Z" transform="translate(-16.74 -23.26)"/><path class="cls-11" d="M81.43,197.3H80.12v-10h1.31Z" transform="translate(-16.74 -23.26)"/><path class="cls-11" d="M91.48,197.3H90.16l-5-7.67v7.67H83.83v-10h1.32l5,7.7v-7.7h1.3Z" transform="translate(-16.74 -23.26)"/><path class="cls-11" d="M99.43,194.7H95.26l-.93,2.6H93l3.8-10h1.15l3.81,10h-1.35Zm-3.77-1.08H99L97.35,189Z" transform="translate(-16.74 -23.26)"/><path class="cls-11" d="M106.54,197.3v-10h2.81a4.52,4.52,0,0,1,2.29.57,3.87,3.87,0,0,1,1.54,1.64,5.12,5.12,0,0,1,.55,2.43v.64a5.34,5.34,0,0,1-.54,2.46,3.82,3.82,0,0,1-1.55,1.63,4.81,4.81,0,0,1-2.35.58Zm1.31-8.88v7.81h1.38a3,3,0,0,0,2.36-.95,3.88,3.88,0,0,0,.85-2.68V192a3.94,3.94,0,0,0-.8-2.63,2.84,2.84,0,0,0-2.26-1Z" transform="translate(-16.74 -23.26)"/><path class="cls-11" d="M121.34,192.7H117v3.53h5v1.07h-6.32v-10H122v1.07H117v3.21h4.31Z" transform="translate(-16.74 -23.26)"/><path class="cls-11" d="M128.46,196.23h4.72v1.07h-6v-10h1.32Z" transform="translate(-16.74 -23.26)"/><path class="cls-11" d="M140.3,194.7h-4.17l-.94,2.6h-1.35l3.8-10h1.15l3.81,10h-1.35Zm-3.77-1.08h3.38l-1.7-4.65Z" transform="translate(-16.74 -23.26)"/><path class="cls-11" d="M146.64,195.56l2.84-8.21h1.44l-3.7,10h-1.16l-3.68-10h1.43Z" transform="translate(-16.74 -23.26)"/><path class="cls-11" d="M157.23,194.7h-4.17l-.93,2.6h-1.36l3.8-10h1.15l3.81,10h-1.35Zm-3.77-1.08h3.38L155.15,189Z" transform="translate(-16.74 -23.26)"/><path class="cls-11" d="M164.52,193.28h-2.34v4h-1.32v-10h3.3a3.87,3.87,0,0,1,2.58.76,2.76,2.76,0,0,1,.91,2.23,2.71,2.71,0,0,1-.5,1.62,3,3,0,0,1-1.4,1l2.34,4.22v.08h-1.41Zm-2.34-1.08h2a2.29,2.29,0,0,0,1.55-.5,1.71,1.71,0,0,0,.58-1.36,1.8,1.8,0,0,0-.55-1.42,2.36,2.36,0,0,0-1.59-.5h-2Z" transform="translate(-16.74 -23.26)"/></g><g class="cls-9"><path class="cls-11" d="M32.42,217.3H31.15v-8.43l-2.55.94v-1.15l3.62-1.36h.2Z" transform="translate(-16.74 -23.26)"/><path class="cls-11" d="M41.61,207.35l3.26,8.12,3.25-8.12h1.7v10H48.51v-3.87l.13-4.19-3.27,8.06h-1l-3.26-8,.13,4.17v3.87H39.92v-10Z" transform="translate(-16.74 -23.26)"/><path class="cls-11" d="M57.76,214.7H53.59l-.94,2.6H51.3l3.8-10h1.15l3.81,10H58.71ZM54,213.62h3.38L55.68,209Zm2.34-8.94h1.53l-1.84,2H55Z" transform="translate(-16.74 -23.26)"/><path class="cls-11" d="M68.92,212.65a6.21,6.21,0,0,1-.45,2.48,3.85,3.85,0,0,1-1.29,1.63l1.78,1.4-.9.82L66,217.32a4.28,4.28,0,0,1-1,.12,3.78,3.78,0,0,1-2.09-.58,3.7,3.7,0,0,1-1.41-1.65,5.83,5.83,0,0,1-.52-2.47V212a6.12,6.12,0,0,1,.5-2.54,3.71,3.71,0,0,1,3.5-2.27,3.94,3.94,0,0,1,2.12.58,3.79,3.79,0,0,1,1.4,1.67,6.14,6.14,0,0,1,.49,2.55ZM67.61,212a4.51,4.51,0,0,0-.7-2.71,2.53,2.53,0,0,0-3.95,0,4.3,4.3,0,0,0-.73,2.63v.73a4.47,4.47,0,0,0,.71,2.69,2.53,2.53,0,0,0,4,.06,4.39,4.39,0,0,0,.72-2.66Z" transform="translate(-16.74 -23.26)"/><path class="cls-11" d="M78,207.35v6.77a3.19,3.19,0,0,1-.88,2.3,3.54,3.54,0,0,1-2.38,1l-.35,0a3.78,3.78,0,0,1-2.61-.88,3.19,3.19,0,0,1-1-2.43v-6.78h1.3v6.74a2.07,2.07,0,0,0,2.29,2.28,2.27,2.27,0,0,0,1.7-.6,2.25,2.25,0,0,0,.6-1.67v-6.75Z" transform="translate(-16.74 -23.26)"/><path class="cls-11" d="M81.43,217.3H80.12v-10h1.31Z" transform="translate(-16.74 -23.26)"/><path class="cls-11" d="M91.48,217.3H90.16l-5-7.67v7.67H83.83v-10h1.32l5,7.7v-7.7h1.3Z" transform="translate(-16.74 -23.26)"/><path class="cls-11" d="M99.43,214.7H95.26l-.93,2.6H93l3.8-10h1.15l3.81,10h-1.35Zm-3.77-1.08H99L97.35,209Z" transform="translate(-16.74 -23.26)"/><path class="cls-11" d="M106.54,217.3v-10h2.81a4.52,4.52,0,0,1,2.29.57,3.87,3.87,0,0,1,1.54,1.64,5.12,5.12,0,0,1,.55,2.43v.64a5.34,5.34,0,0,1-.54,2.46,3.82,3.82,0,0,1-1.55,1.63,4.81,4.81,0,0,1-2.35.58Zm1.31-8.88v7.81h1.38a3,3,0,0,0,2.36-.95,3.88,3.88,0,0,0,.85-2.68V212a3.94,3.94,0,0,0-.8-2.63,2.84,2.84,0,0,0-2.26-1Z" transform="translate(-16.74 -23.26)"/><path class="cls-11" d="M121.34,212.7H117v3.53h5v1.07h-6.32v-10H122v1.07H117v3.21h4.31Z" transform="translate(-16.74 -23.26)"/><path class="cls-11" d="M130.07,212.87a6.39,6.39,0,0,1-2.46-1.2,2.27,2.27,0,0,1-.76-1.74,2.4,2.4,0,0,1,.94-2,3.73,3.73,0,0,1,2.44-.77,4,4,0,0,1,1.83.4,3,3,0,0,1,1.24,1.09,2.76,2.76,0,0,1,.44,1.53h-1.32a1.84,1.84,0,0,0-.57-1.43,2.35,2.35,0,0,0-1.62-.51,2.45,2.45,0,0,0-1.52.42,1.44,1.44,0,0,0-.54,1.19,1.26,1.26,0,0,0,.52,1,5,5,0,0,0,1.75.77,8.57,8.57,0,0,1,1.95.77,3,3,0,0,1,1,1,2.5,2.5,0,0,1,.34,1.32,2.31,2.31,0,0,1-.94,1.94,4,4,0,0,1-2.52.73,4.74,4.74,0,0,1-1.92-.39A3.34,3.34,0,0,1,127,216a2.64,2.64,0,0,1-.48-1.55h1.32a1.7,1.7,0,0,0,.67,1.42,2.78,2.78,0,0,0,1.78.53,2.59,2.59,0,0,0,1.59-.43,1.37,1.37,0,0,0,.55-1.15,1.34,1.34,0,0,0-.51-1.13A5.8,5.8,0,0,0,130.07,212.87Z" transform="translate(-16.74 -23.26)"/><path class="cls-11" d="M141.07,212.7h-4.31v3.53h5v1.07h-6.32v-10h6.25v1.07h-4.94v3.21h4.31Z" transform="translate(-16.74 -23.26)"/><path class="cls-11" d="M150.72,214.14a3.65,3.65,0,0,1-1.16,2.44,3.85,3.85,0,0,1-2.61.86,3.49,3.49,0,0,1-2.83-1.27,5.12,5.12,0,0,1-1.06-3.38v-1a5.69,5.69,0,0,1,.5-2.44,3.63,3.63,0,0,1,1.4-1.61,3.9,3.9,0,0,1,2.11-.57,3.61,3.61,0,0,1,2.54.89,3.66,3.66,0,0,1,1.11,2.45H149.4a2.84,2.84,0,0,0-.74-1.73,2.22,2.22,0,0,0-1.59-.53,2.37,2.37,0,0,0-2,.93,4.3,4.3,0,0,0-.71,2.64v1a4.41,4.41,0,0,0,.68,2.58,2.18,2.18,0,0,0,1.89,1,2.53,2.53,0,0,0,1.68-.5,2.72,2.72,0,0,0,.77-1.73Z" transform="translate(-16.74 -23.26)"/><path class="cls-11" d="M158,214.7h-4.17l-.94,2.6h-1.35l3.8-10h1.15l3.81,10H159Zm-3.77-1.08h3.38L155.93,209Z" transform="translate(-16.74 -23.26)"/><path class="cls-11" d="M165.3,213.28H163v4h-1.32v-10h3.3a3.87,3.87,0,0,1,2.58.76,2.76,2.76,0,0,1,.91,2.23,2.71,2.71,0,0,1-.5,1.62,3,3,0,0,1-1.4,1l2.34,4.22v.08h-1.41ZM163,212.2h2a2.29,2.29,0,0,0,1.55-.5,1.71,1.71,0,0,0,.58-1.36,1.8,1.8,0,0,0-.55-1.42,2.36,2.36,0,0,0-1.59-.5h-2Z" transform="translate(-16.74 -23.26)"/></g><g class="cls-9"><path class="cls-11" d="M32.42,237.3H31.15v-8.43l-2.55.94v-1.15l3.62-1.36h.2Z" transform="translate(-16.74 -23.26)"/><path class="cls-11" d="M46.52,228.42h-3.2v8.88H42v-8.88H38.83v-1.07h7.69Z" transform="translate(-16.74 -23.26)"/><path class="cls-11" d="M55.46,232.65A6.14,6.14,0,0,1,55,235.2a3.7,3.7,0,0,1-1.39,1.66,3.8,3.8,0,0,1-2.11.58,3.74,3.74,0,0,1-2.08-.58A3.7,3.7,0,0,1,48,235.21a5.83,5.83,0,0,1-.52-2.47V232a6.12,6.12,0,0,1,.5-2.54,3.71,3.71,0,0,1,3.5-2.27,3.82,3.82,0,0,1,2.11.58,3.68,3.68,0,0,1,1.4,1.67,6.22,6.22,0,0,1,.49,2.56Zm-1.3-.65a4.46,4.46,0,0,0-.71-2.71,2.36,2.36,0,0,0-2-.95,2.33,2.33,0,0,0-2,.95,4.3,4.3,0,0,0-.73,2.63v.73a4.45,4.45,0,0,0,.72,2.69,2.53,2.53,0,0,0,3.95.06,4.39,4.39,0,0,0,.72-2.66Z" transform="translate(-16.74 -23.26)"/><path class="cls-11" d="M61.08,233.28H58.75v4H57.43v-10h3.29a3.92,3.92,0,0,1,2.59.76,2.79,2.79,0,0,1,.9,2.23,2.64,2.64,0,0,1-.5,1.62,3,3,0,0,1-1.4,1l2.34,4.22v.08H63.24Zm-2.33-1.08h2a2.34,2.34,0,0,0,1.56-.5,1.74,1.74,0,0,0,.58-1.36,1.8,1.8,0,0,0-.56-1.42,2.32,2.32,0,0,0-1.58-.5h-2Z" transform="translate(-16.74 -23.26)"/><path class="cls-11" d="M73.7,237.3H72.38l-5-7.67v7.67H66.05v-10h1.32l5,7.7v-7.7h1.3Z" transform="translate(-16.74 -23.26)"/><path class="cls-11" d="M81.66,232.7H77.35v3.53h5v1.07H76v-10h6.26v1.07H77.35v3.21h4.31Z" transform="translate(-16.74 -23.26)"/><path class="cls-11" d="M85.4,237.3H84.09v-10H85.4Z" transform="translate(-16.74 -23.26)"/><path class="cls-11" d="M91.45,233.28H89.11v4H87.79v-10h3.3a3.87,3.87,0,0,1,2.58.76,2.76,2.76,0,0,1,.91,2.23,2.71,2.71,0,0,1-.5,1.62,3,3,0,0,1-1.4,1L95,237.22v.08H93.61Zm-2.34-1.08h2a2.29,2.29,0,0,0,1.55-.5,1.71,1.71,0,0,0,.58-1.36,1.8,1.8,0,0,0-.55-1.42,2.36,2.36,0,0,0-1.59-.5h-2Z" transform="translate(-16.74 -23.26)"/><path class="cls-11" d="M101.91,234.7H97.74l-.93,2.6H95.45l3.81-10h1.14l3.81,10h-1.35Zm-3.77-1.08h3.38L99.83,229Z" transform="translate(-16.74 -23.26)"/><path class="cls-11" d="M114.64,232.7h-4.31v3.53h5v1.07H109v-10h6.25v1.07h-4.94v3.21h4.31Z" transform="translate(-16.74 -23.26)"/><path class="cls-11" d="M118.29,236.23H123v1.07h-6v-10h1.32Z" transform="translate(-16.74 -23.26)"/><path class="cls-11" d="M130.13,232.7h-4.31v3.53h5v1.07h-6.32v-10h6.25v1.07h-4.94v3.21h4.31Zm-1.92-8.1h1.53l-1.83,2h-1Z" transform="translate(-16.74 -23.26)"/><path class="cls-11" d="M139.48,228.42h-3.2v8.88H135v-8.88h-3.19v-1.07h7.7Z" transform="translate(-16.74 -23.26)"/><path class="cls-11" d="M144.61,233.28h-2.34v4H141v-10h3.29a3.9,3.9,0,0,1,2.59.76,2.79,2.79,0,0,1,.91,2.23,2.65,2.65,0,0,1-.51,1.62,3,3,0,0,1-1.39,1l2.33,4.22v.08h-1.4Zm-2.34-1.08h2a2.32,2.32,0,0,0,1.56-.5,1.74,1.74,0,0,0,.58-1.36,1.83,1.83,0,0,0-.55-1.42,2.36,2.36,0,0,0-1.59-.5h-2Z" transform="translate(-16.74 -23.26)"/><path class="cls-11" d="M151,237.3h-1.31v-10H151Z" transform="translate(-16.74 -23.26)"/><path class="cls-11" d="M160.7,234.14a3.65,3.65,0,0,1-1.16,2.44,3.85,3.85,0,0,1-2.61.86,3.49,3.49,0,0,1-2.83-1.27,5.12,5.12,0,0,1-1.06-3.38v-1a5.69,5.69,0,0,1,.5-2.44,3.63,3.63,0,0,1,1.4-1.61,3.9,3.9,0,0,1,2.11-.57,3.61,3.61,0,0,1,2.54.89,3.66,3.66,0,0,1,1.11,2.45h-1.32a2.84,2.84,0,0,0-.74-1.73,2.22,2.22,0,0,0-1.59-.53,2.37,2.37,0,0,0-2,.93,4.3,4.3,0,0,0-.71,2.64v1a4.41,4.41,0,0,0,.68,2.58,2.18,2.18,0,0,0,1.89,1,2.53,2.53,0,0,0,1.68-.5,2.72,2.72,0,0,0,.77-1.73Z" transform="translate(-16.74 -23.26)"/><path class="cls-11" d="M168,234.7h-4.17l-.94,2.6h-1.35l3.8-10h1.15l3.81,10h-1.35Zm-3.77-1.08h3.38L165.91,229Z" transform="translate(-16.74 -23.26)"/></g><g class="cls-9"><path class="cls-11" d="M32.42,257.3H31.15v-8.43l-2.55.94v-1.15l3.62-1.36h.2Z" transform="translate(-16.74 -23.26)"/><path class="cls-11" d="M44.29,257.3a2.47,2.47,0,0,1-.18-.78,2.83,2.83,0,0,1-2.11.92,2.63,2.63,0,0,1-1.79-.62,2,2,0,0,1-.7-1.57,2.07,2.07,0,0,1,.88-1.79,4.1,4.1,0,0,1,2.47-.64h1.23v-.58a1.39,1.39,0,0,0-.4-1.06,1.59,1.59,0,0,0-1.17-.39,1.81,1.81,0,0,0-1.13.34,1,1,0,0,0-.46.83H39.66a1.74,1.74,0,0,1,.39-1.07,2.62,2.62,0,0,1,1.07-.82,3.59,3.59,0,0,1,1.48-.3,2.9,2.9,0,0,1,2,.64,2.27,2.27,0,0,1,.75,1.76v3.4a4.21,4.21,0,0,0,.26,1.62v.11Zm-2.1-1a2.19,2.19,0,0,0,1.13-.31,1.85,1.85,0,0,0,.77-.8v-1.52h-1c-1.55,0-2.33.46-2.33,1.36a1.16,1.16,0,0,0,.4.93A1.48,1.48,0,0,0,42.19,256.34Z" transform="translate(-16.74 -23.26)"/><path class="cls-11" d="M52.51,251.71h1a2.12,2.12,0,0,0,1.41-.47,1.59,1.59,0,0,0,.51-1.24,1.54,1.54,0,0,0-1.74-1.75,1.83,1.83,0,0,0-1.31.47,1.63,1.63,0,0,0-.49,1.24H50.58a2.51,2.51,0,0,1,.86-2,3.54,3.54,0,0,1,4.41,0,2.68,2.68,0,0,1,.8,2.07,2.21,2.21,0,0,1-.42,1.26,2.6,2.6,0,0,1-1.15.91,2.43,2.43,0,0,1,1.27.86,2.38,2.38,0,0,1,.45,1.47,2.68,2.68,0,0,1-.88,2.12,3.24,3.24,0,0,1-2.27.79,3.32,3.32,0,0,1-2.28-.76,2.5,2.5,0,0,1-.88-2h1.27a1.61,1.61,0,0,0,.51,1.25,2.25,2.25,0,0,0,2.78,0,1.87,1.87,0,0,0,.48-1.38,1.68,1.68,0,0,0-.53-1.33,2.34,2.34,0,0,0-1.54-.48h-1Z" transform="translate(-16.74 -23.26)"/><path class="cls-11" d="M65.62,255.56l2.85-8.21H69.9l-3.69,10H65.05l-3.69-10h1.43Z" transform="translate(-16.74 -23.26)"/><path class="cls-11" d="M76.86,252.7H72.55v3.53h5v1.07H71.23v-10h6.26v1.07H72.55v3.21h4.31Z" transform="translate(-16.74 -23.26)"/><path class="cls-11" d="M86.84,257.3H85.52l-5-7.67v7.67H79.19v-10h1.32l5,7.7v-7.7h1.3Z" transform="translate(-16.74 -23.26)"/><path class="cls-11" d="M95.85,248.42h-3.2v8.88h-1.3v-8.88h-3.2v-1.07h7.7Z" transform="translate(-16.74 -23.26)"/><path class="cls-11" d="M98.74,257.3H97.42v-10h1.32Z" transform="translate(-16.74 -23.26)"/><path class="cls-11" d="M102.45,256.23h4.72v1.07h-6v-10h1.31Z" transform="translate(-16.74 -23.26)"/><path class="cls-11" d="M114.29,254.7h-4.17l-.93,2.6h-1.36l3.81-10h1.14l3.81,10h-1.35Zm-3.77-1.08h3.38L112.21,249Z" transform="translate(-16.74 -23.26)"/><path class="cls-11" d="M117.93,257.3v-10h2.81a4.56,4.56,0,0,1,2.3.57,3.94,3.94,0,0,1,1.54,1.64,5.24,5.24,0,0,1,.55,2.43v.64a5.34,5.34,0,0,1-.54,2.46,3.84,3.84,0,0,1-1.56,1.63,4.77,4.77,0,0,1-2.34.58Zm1.31-8.88v7.81h1.39a3,3,0,0,0,2.36-1,3.88,3.88,0,0,0,.84-2.68V252a3.88,3.88,0,0,0-.8-2.63,2.82,2.82,0,0,0-2.25-1Z" transform="translate(-16.74 -23.26)"/><path class="cls-11" d="M134.77,252.65a6.3,6.3,0,0,1-.49,2.55,3.72,3.72,0,0,1-1.4,1.66,4.07,4.07,0,0,1-4.19,0,3.7,3.7,0,0,1-1.41-1.65,5.83,5.83,0,0,1-.52-2.47V252a6.12,6.12,0,0,1,.5-2.54,3.85,3.85,0,0,1,1.41-1.68,4.06,4.06,0,0,1,4.2,0,3.7,3.7,0,0,1,1.41,1.67,6.39,6.39,0,0,1,.49,2.56Zm-1.31-.65a4.4,4.4,0,0,0-.71-2.71,2.53,2.53,0,0,0-3.95,0,4.37,4.37,0,0,0-.73,2.63v.73a4.45,4.45,0,0,0,.72,2.69,2.54,2.54,0,0,0,4,.06,4.46,4.46,0,0,0,.71-2.66Z" transform="translate(-16.74 -23.26)"/><path class="cls-11" d="M140.39,253.28h-2.34v4h-1.32v-10H140a3.87,3.87,0,0,1,2.58.76,2.76,2.76,0,0,1,.91,2.23A2.71,2.71,0,0,1,143,252a3.1,3.1,0,0,1-1.4,1l2.34,4.22v.08h-1.41Zm-2.34-1.08h2a2.29,2.29,0,0,0,1.55-.5,1.71,1.71,0,0,0,.58-1.36,1.8,1.8,0,0,0-.55-1.42,2.36,2.36,0,0,0-1.59-.5h-2Z" transform="translate(-16.74 -23.26)"/><path class="cls-11" d="M145.11,253.26a10.81,10.81,0,0,1,.41-3,8.79,8.79,0,0,1,1.24-2.58,5.31,5.31,0,0,1,1.7-1.64l.26.83a5.5,5.5,0,0,0-1.64,2.34,10.25,10.25,0,0,0-.7,3.52v.58a10.21,10.21,0,0,0,1,4.58,5.53,5.53,0,0,0,1.38,1.82l-.26.77a5.4,5.4,0,0,1-1.74-1.69A9.54,9.54,0,0,1,145.11,253.26Z" transform="translate(-16.74 -23.26)"/><path class="cls-11" d="M155.77,252.7h-4.31v3.53h5v1.07h-6.33v-10h6.26v1.07h-4.94v3.21h4.31Z" transform="translate(-16.74 -23.26)"/><path class="cls-11" d="M161,252.87a6.39,6.39,0,0,1-2.46-1.2,2.27,2.27,0,0,1-.76-1.74,2.4,2.4,0,0,1,.94-2,3.73,3.73,0,0,1,2.44-.77,4,4,0,0,1,1.83.4,3,3,0,0,1,1.24,1.09,2.76,2.76,0,0,1,.44,1.53h-1.32a1.84,1.84,0,0,0-.57-1.43,2.35,2.35,0,0,0-1.62-.51,2.45,2.45,0,0,0-1.52.42,1.44,1.44,0,0,0-.54,1.19,1.26,1.26,0,0,0,.52,1,5,5,0,0,0,1.75.77,8.57,8.57,0,0,1,1.95.77,3,3,0,0,1,1,1,2.5,2.5,0,0,1,.34,1.32,2.31,2.31,0,0,1-.94,1.94,4,4,0,0,1-2.52.73,4.74,4.74,0,0,1-1.92-.39A3.34,3.34,0,0,1,158,256a2.64,2.64,0,0,1-.48-1.55h1.32a1.7,1.7,0,0,0,.67,1.42,2.78,2.78,0,0,0,1.78.53,2.59,2.59,0,0,0,1.59-.43,1.37,1.37,0,0,0,.55-1.15,1.34,1.34,0,0,0-.51-1.13A5.8,5.8,0,0,0,161,252.87Z" transform="translate(-16.74 -23.26)"/><path class="cls-11" d="M169.13,253.33a10.78,10.78,0,0,1-.4,2.92,8.76,8.76,0,0,1-1.23,2.58,5.32,5.32,0,0,1-1.72,1.68l-.27-.77a5.47,5.47,0,0,0,1.69-2.5,10.8,10.8,0,0,0,.65-3.77v-.22a11.25,11.25,0,0,0-.3-2.67,9.31,9.31,0,0,0-.83-2.21,5.22,5.22,0,0,0-1.21-1.53l.27-.77a5.38,5.38,0,0,1,1.72,1.67,8.75,8.75,0,0,1,1.22,2.58A10.79,10.79,0,0,1,169.13,253.33Z" transform="translate(-16.74 -23.26)"/></g><g class="cls-9"><path class="cls-11" d="M32.42,277.3H31.15v-8.43l-2.55.94v-1.15l3.62-1.36h.2Z" transform="translate(-16.74 -23.26)"/><path class="cls-11" d="M45.41,272.91H41.23v4.39H39.92v-9.95h6.17v1.07H41.23v3.41h4.18Z" transform="translate(-16.74 -23.26)"/><path class="cls-11" d="M55.31,272.65a6.14,6.14,0,0,1-.49,2.55,3.7,3.7,0,0,1-1.39,1.66,3.8,3.8,0,0,1-2.11.58,3.74,3.74,0,0,1-2.08-.58,3.7,3.7,0,0,1-1.41-1.65,5.83,5.83,0,0,1-.52-2.47V272a6.12,6.12,0,0,1,.5-2.54,3.71,3.71,0,0,1,3.5-2.27,3.82,3.82,0,0,1,2.11.58,3.68,3.68,0,0,1,1.4,1.67,6.22,6.22,0,0,1,.49,2.56ZM54,272a4.46,4.46,0,0,0-.71-2.71,2.36,2.36,0,0,0-2-1,2.33,2.33,0,0,0-2,1,4.37,4.37,0,0,0-.74,2.63v.73a4.38,4.38,0,0,0,.73,2.69,2.53,2.53,0,0,0,3.95.06,4.46,4.46,0,0,0,.72-2.66Z" transform="translate(-16.74 -23.26)"/><path class="cls-11" d="M60.93,273.28H58.6v4H57.28v-9.95h3.29a3.92,3.92,0,0,1,2.59.76,2.79,2.79,0,0,1,.9,2.23,2.64,2.64,0,0,1-.5,1.62,3,3,0,0,1-1.4,1l2.34,4.22v.08H63.09ZM58.6,272.2h2a2.34,2.34,0,0,0,1.56-.5,1.73,1.73,0,0,0,.57-1.36,1.8,1.8,0,0,0-.55-1.42,2.33,2.33,0,0,0-1.59-.5h-2Z" transform="translate(-16.74 -23.26)"/><path class="cls-11" d="M73.55,277.3H72.23l-5-7.67v7.67H65.9v-9.95h1.32l5,7.7v-7.7h1.3Z" transform="translate(-16.74 -23.26)"/><path class="cls-11" d="M83.54,272.65a6.14,6.14,0,0,1-.49,2.55,3.72,3.72,0,0,1-1.4,1.66,4.07,4.07,0,0,1-4.19,0,3.83,3.83,0,0,1-1.41-1.65,6,6,0,0,1-.52-2.47V272a6.12,6.12,0,0,1,.5-2.54,3.87,3.87,0,0,1,1.42-1.68,3.75,3.75,0,0,1,2.08-.59,3.82,3.82,0,0,1,2.11.58,3.7,3.7,0,0,1,1.41,1.67,6.22,6.22,0,0,1,.49,2.56ZM82.23,272a4.4,4.4,0,0,0-.71-2.71,2.34,2.34,0,0,0-2-1,2.3,2.3,0,0,0-2,1,4.3,4.3,0,0,0-.74,2.63v.73a4.45,4.45,0,0,0,.72,2.69,2.54,2.54,0,0,0,4,.06,4.46,4.46,0,0,0,.71-2.66Z" transform="translate(-16.74 -23.26)"/><path class="cls-11" d="M94.6,272.7H90.29v3.53h5v1.07H89v-9.95h6.26v1.07H90.29v3.21H94.6Z" transform="translate(-16.74 -23.26)"/><path class="cls-11" d="M98.25,276.23H103v1.07h-6v-9.95h1.32Z" transform="translate(-16.74 -23.26)"/><path class="cls-11" d="M110.09,272.7h-4.31v3.53h5v1.07h-6.33v-9.95h6.26v1.07h-4.94v3.21h4.31Zm-1.93-8.1h1.53l-1.83,2h-1Z" transform="translate(-16.74 -23.26)"/><path class="cls-11" d="M119.44,268.42h-3.2v8.88h-1.31v-8.88h-3.19v-1.07h7.7Z" transform="translate(-16.74 -23.26)"/><path class="cls-11" d="M124.56,273.28h-2.34v4h-1.31v-9.95h3.29a3.92,3.92,0,0,1,2.59.76,2.79,2.79,0,0,1,.9,2.23,2.64,2.64,0,0,1-.5,1.62,3,3,0,0,1-1.4,1l2.34,4.22v.08h-1.41Zm-2.34-1.08h2a2.34,2.34,0,0,0,1.56-.5,1.73,1.73,0,0,0,.57-1.36,1.8,1.8,0,0,0-.55-1.42,2.33,2.33,0,0,0-1.59-.5h-2Z" transform="translate(-16.74 -23.26)"/><path class="cls-11" d="M130.94,277.3h-1.31v-9.95h1.31Z" transform="translate(-16.74 -23.26)"/><path class="cls-11" d="M140.66,274.14a3.65,3.65,0,0,1-1.16,2.44,3.85,3.85,0,0,1-2.61.86,3.49,3.49,0,0,1-2.83-1.27,5.07,5.07,0,0,1-1.06-3.38v-1a5.69,5.69,0,0,1,.49-2.44,3.65,3.65,0,0,1,1.41-1.61,3.86,3.86,0,0,1,2.1-.57,3.62,3.62,0,0,1,2.55.89,3.7,3.7,0,0,1,1.11,2.45h-1.32a2.84,2.84,0,0,0-.74-1.73,2.23,2.23,0,0,0-1.6-.53,2.36,2.36,0,0,0-2,.93,4.3,4.3,0,0,0-.71,2.64v1a4.41,4.41,0,0,0,.67,2.58,2.21,2.21,0,0,0,1.9,1,2.53,2.53,0,0,0,1.68-.5,2.77,2.77,0,0,0,.77-1.73Z" transform="translate(-16.74 -23.26)"/><path class="cls-11" d="M150.11,272.65a6.3,6.3,0,0,1-.49,2.55,3.72,3.72,0,0,1-1.4,1.66,4.07,4.07,0,0,1-4.19,0,3.7,3.7,0,0,1-1.41-1.65,5.83,5.83,0,0,1-.52-2.47V272a6.12,6.12,0,0,1,.5-2.54A3.85,3.85,0,0,1,144,267.8a4.06,4.06,0,0,1,4.2,0,3.7,3.7,0,0,1,1.41,1.67,6.39,6.39,0,0,1,.49,2.56ZM148.8,272a4.4,4.4,0,0,0-.71-2.71,2.53,2.53,0,0,0-4,0,4.37,4.37,0,0,0-.73,2.63v.73a4.45,4.45,0,0,0,.72,2.69,2.53,2.53,0,0,0,4,.06,4.39,4.39,0,0,0,.72-2.66Z" transform="translate(-16.74 -23.26)"/></g><g class="cls-9"><path class="cls-12" d="M30.1,291.71h.95a2.12,2.12,0,0,0,1.41-.47A1.59,1.59,0,0,0,33,290a1.54,1.54,0,0,0-1.74-1.75,1.83,1.83,0,0,0-1.31.47,1.66,1.66,0,0,0-.49,1.24H28.17a2.54,2.54,0,0,1,.86-2,3.54,3.54,0,0,1,4.41,0,2.68,2.68,0,0,1,.8,2.07,2.21,2.21,0,0,1-.42,1.26,2.55,2.55,0,0,1-1.15.91,2.43,2.43,0,0,1,1.27.86,2.38,2.38,0,0,1,.45,1.47,2.68,2.68,0,0,1-.88,2.12,3.24,3.24,0,0,1-2.27.79,3.32,3.32,0,0,1-2.28-.76,2.5,2.5,0,0,1-.88-2h1.27a1.61,1.61,0,0,0,.51,1.25,2,2,0,0,0,1.38.48,1.9,1.9,0,0,0,1.4-.48,1.87,1.87,0,0,0,.48-1.38,1.65,1.65,0,0,0-.53-1.33,2.32,2.32,0,0,0-1.54-.48H30.1Z" transform="translate(-16.74 -23.26)"/><path class="cls-12" d="M47.24,294.14a3.65,3.65,0,0,1-1.16,2.44,3.85,3.85,0,0,1-2.61.86,3.49,3.49,0,0,1-2.83-1.27,5.07,5.07,0,0,1-1.06-3.38v-1a5.69,5.69,0,0,1,.49-2.44,3.65,3.65,0,0,1,1.41-1.61,3.86,3.86,0,0,1,2.1-.57,3.62,3.62,0,0,1,2.55.89,3.7,3.7,0,0,1,1.11,2.45H45.92a2.84,2.84,0,0,0-.74-1.73,2.23,2.23,0,0,0-1.6-.53,2.36,2.36,0,0,0-2,.93,4.3,4.3,0,0,0-.71,2.64v1a4.41,4.41,0,0,0,.67,2.58,2.2,2.2,0,0,0,1.9,1,2.53,2.53,0,0,0,1.68-.5,2.77,2.77,0,0,0,.77-1.73Z" transform="translate(-16.74 -23.26)"/><path class="cls-12" d="M56.68,297.3H55.36v-4.6h-5v4.6H49v-9.95h1.31v4.28h5v-4.28h1.32Z" transform="translate(-16.74 -23.26)"/><path class="cls-12" d="M66,287.35v6.77a3.19,3.19,0,0,1-.89,2.3,3.52,3.52,0,0,1-2.38,1l-.35,0a3.75,3.75,0,0,1-2.6-.88,3.16,3.16,0,0,1-1-2.43v-6.78h1.3v6.74a2.08,2.08,0,0,0,2.29,2.28,2.07,2.07,0,0,0,2.3-2.27v-6.75Z" transform="translate(-16.74 -23.26)"/><path class="cls-12" d="M71.39,295.56l2.84-8.21h1.43L72,297.3H70.81l-3.68-9.95h1.43Z" transform="translate(-16.74 -23.26)"/><path class="cls-12" d="M82.62,292.7H78.31v3.53h5v1.07H77v-9.95h6.25v1.07H78.31v3.21h4.31Z" transform="translate(-16.74 -23.26)"/><path class="cls-12" d="M86.36,297.3H85.05v-9.95h1.31Z" transform="translate(-16.74 -23.26)"/><path class="cls-12" d="M92.41,293.28H90.07v4H88.76v-9.95h3.29a3.92,3.92,0,0,1,2.59.76,2.79,2.79,0,0,1,.9,2.23A2.64,2.64,0,0,1,95,292a3,3,0,0,1-1.4,1L96,297.22v.08H94.57Zm-2.34-1.08h2a2.34,2.34,0,0,0,1.56-.5,1.73,1.73,0,0,0,.57-1.36,1.8,1.8,0,0,0-.55-1.42,2.33,2.33,0,0,0-1.59-.5h-2Z" transform="translate(-16.74 -23.26)"/><path class="cls-12" d="M105,292.65a6.3,6.3,0,0,1-.49,2.55,3.72,3.72,0,0,1-1.4,1.66,3.84,3.84,0,0,1-5.6-1.65,5.83,5.83,0,0,1-.52-2.47V292a6.12,6.12,0,0,1,.5-2.54,3.91,3.91,0,0,1,1.41-1.68,4.06,4.06,0,0,1,4.2,0,3.7,3.7,0,0,1,1.41,1.67A6.39,6.39,0,0,1,105,292Zm-1.31-.65a4.4,4.4,0,0,0-.71-2.71,2.53,2.53,0,0,0-4,0,4.37,4.37,0,0,0-.73,2.63v.73a4.45,4.45,0,0,0,.72,2.69,2.54,2.54,0,0,0,4,.06,4.46,4.46,0,0,0,.71-2.66Z" transform="translate(-16.74 -23.26)"/><path class="cls-12" d="M109.94,292.87a6.31,6.31,0,0,1-2.46-1.2,2.28,2.28,0,0,1-.77-1.74,2.42,2.42,0,0,1,.94-1.95,3.76,3.76,0,0,1,2.45-.77,4,4,0,0,1,1.83.4,3,3,0,0,1,1.24,1.09,2.84,2.84,0,0,1,.44,1.53h-1.32a1.84,1.84,0,0,0-.57-1.43,2.38,2.38,0,0,0-1.62-.51,2.45,2.45,0,0,0-1.52.42,1.44,1.44,0,0,0-.54,1.19,1.26,1.26,0,0,0,.52,1,5,5,0,0,0,1.75.77,8.28,8.28,0,0,1,1.94.77,2.91,2.91,0,0,1,1,1,2.5,2.5,0,0,1,.34,1.32,2.31,2.31,0,0,1-.94,1.94,4,4,0,0,1-2.52.73,4.71,4.71,0,0,1-1.92-.39,3.34,3.34,0,0,1-1.37-1.08,2.64,2.64,0,0,1-.48-1.55h1.32a1.71,1.71,0,0,0,.66,1.42,2.82,2.82,0,0,0,1.79.53,2.59,2.59,0,0,0,1.59-.43,1.37,1.37,0,0,0,.55-1.15,1.34,1.34,0,0,0-.51-1.13A5.8,5.8,0,0,0,109.94,292.87Z" transform="translate(-16.74 -23.26)"/><path class="cls-12" d="M124.41,292.7h-4.32v3.53h5v1.07h-6.32v-9.95H125v1.07h-4.94v3.21h4.32Z" transform="translate(-16.74 -23.26)"/><path class="cls-12" d="M128.06,296.23h4.71v1.07h-6v-9.95h1.32Z" transform="translate(-16.74 -23.26)"/><path class="cls-12" d="M139.9,292.7h-4.32v3.53h5v1.07h-6.32v-9.95h6.25v1.07h-4.94v3.21h4.32ZM138,284.6h1.53l-1.83,2h-1Z" transform="translate(-16.74 -23.26)"/><path class="cls-12" d="M149.24,288.42H146v8.88h-1.3v-8.88h-3.2v-1.07h7.7Z" transform="translate(-16.74 -23.26)"/><path class="cls-12" d="M154.37,293.28H152v4h-1.32v-9.95H154a3.89,3.89,0,0,1,2.59.76,2.76,2.76,0,0,1,.91,2.23A2.71,2.71,0,0,1,157,292a3.1,3.1,0,0,1-1.4,1l2.34,4.22v.08h-1.41ZM152,292.2h2a2.29,2.29,0,0,0,1.55-.5,1.71,1.71,0,0,0,.58-1.36,1.8,1.8,0,0,0-.55-1.42,2.36,2.36,0,0,0-1.59-.5h-2Z" transform="translate(-16.74 -23.26)"/><path class="cls-12" d="M160.75,297.3h-1.32v-9.95h1.32Z" transform="translate(-16.74 -23.26)"/><path class="cls-12" d="M170.47,294.14a3.7,3.7,0,0,1-1.17,2.44,3.82,3.82,0,0,1-2.61.86,3.47,3.47,0,0,1-2.82-1.27,5.07,5.07,0,0,1-1.07-3.38v-1a5.69,5.69,0,0,1,.5-2.44,3.69,3.69,0,0,1,1.4-1.61,3.9,3.9,0,0,1,2.11-.57,3.59,3.59,0,0,1,2.54.89,3.71,3.71,0,0,1,1.12,2.45h-1.32a2.85,2.85,0,0,0-.75-1.73,2.22,2.22,0,0,0-1.59-.53,2.33,2.33,0,0,0-2,.93,4.23,4.23,0,0,0-.72,2.64v1a4.41,4.41,0,0,0,.68,2.58,2.18,2.18,0,0,0,1.89,1,2.53,2.53,0,0,0,1.68-.5,2.77,2.77,0,0,0,.78-1.73Z" transform="translate(-16.74 -23.26)"/><path class="cls-12" d="M179.91,292.65a6.14,6.14,0,0,1-.49,2.55,3.7,3.7,0,0,1-1.39,1.66,3.82,3.82,0,0,1-2.11.58,3.74,3.74,0,0,1-2.08-.58,3.78,3.78,0,0,1-1.42-1.65,6,6,0,0,1-.51-2.47V292a6,6,0,0,1,.5-2.54,3.71,3.71,0,0,1,3.5-2.27,3.84,3.84,0,0,1,2.11.58,3.74,3.74,0,0,1,1.4,1.67,6.22,6.22,0,0,1,.49,2.56Zm-1.3-.65a4.46,4.46,0,0,0-.71-2.71,2.36,2.36,0,0,0-2-1,2.32,2.32,0,0,0-2,1,4.37,4.37,0,0,0-.74,2.63v.73a4.45,4.45,0,0,0,.72,2.69,2.54,2.54,0,0,0,4,.06,4.53,4.53,0,0,0,.72-2.66Z" transform="translate(-16.74 -23.26)"/><path class="cls-12" d="M184.81,292.87a6.26,6.26,0,0,1-2.45-1.2,2.24,2.24,0,0,1-.77-1.74,2.4,2.4,0,0,1,.94-1.95,3.73,3.73,0,0,1,2.44-.77,4,4,0,0,1,1.83.4A2.94,2.94,0,0,1,188,288.7a2.77,2.77,0,0,1,.45,1.53h-1.32a1.85,1.85,0,0,0-.58-1.43,2.35,2.35,0,0,0-1.62-.51,2.4,2.4,0,0,0-1.51.42,1.42,1.42,0,0,0-.55,1.19,1.29,1.29,0,0,0,.52,1,5,5,0,0,0,1.76.77,8.66,8.66,0,0,1,1.94.77,3,3,0,0,1,1,1,2.59,2.59,0,0,1,.34,1.32,2.32,2.32,0,0,1-.95,1.94,4,4,0,0,1-2.52.73,4.69,4.69,0,0,1-1.91-.39,3.37,3.37,0,0,1-1.38-1.08,2.64,2.64,0,0,1-.48-1.55h1.32a1.7,1.7,0,0,0,.67,1.42,2.79,2.79,0,0,0,1.78.53,2.59,2.59,0,0,0,1.59-.43,1.38,1.38,0,0,0,.56-1.15,1.32,1.32,0,0,0-.52-1.13A5.8,5.8,0,0,0,184.81,292.87Z" transform="translate(-16.74 -23.26)"/></g><g class="cls-9"><path class="cls-12" d="M30.1,311.71h.95a2.12,2.12,0,0,0,1.41-.47A1.59,1.59,0,0,0,33,310a1.54,1.54,0,0,0-1.74-1.75,1.83,1.83,0,0,0-1.31.47,1.66,1.66,0,0,0-.49,1.24H28.17a2.54,2.54,0,0,1,.86-2,3.54,3.54,0,0,1,4.41,0,2.68,2.68,0,0,1,.8,2.07,2.21,2.21,0,0,1-.42,1.26,2.55,2.55,0,0,1-1.15.91,2.43,2.43,0,0,1,1.27.86,2.38,2.38,0,0,1,.45,1.47,2.68,2.68,0,0,1-.88,2.12,3.24,3.24,0,0,1-2.27.79,3.32,3.32,0,0,1-2.28-.76,2.5,2.5,0,0,1-.88-2h1.27a1.61,1.61,0,0,0,.51,1.25,2,2,0,0,0,1.38.48,1.9,1.9,0,0,0,1.4-.48,1.87,1.87,0,0,0,.48-1.38,1.65,1.65,0,0,0-.53-1.33,2.32,2.32,0,0,0-1.54-.48H30.1Z" transform="translate(-16.74 -23.26)"/><path class="cls-12" d="M44.29,317.3a2.47,2.47,0,0,1-.18-.78,2.83,2.83,0,0,1-2.11.92,2.63,2.63,0,0,1-1.79-.62,2,2,0,0,1-.7-1.57,2.07,2.07,0,0,1,.88-1.79,4.1,4.1,0,0,1,2.47-.64h1.23v-.58a1.39,1.39,0,0,0-.4-1.06,1.59,1.59,0,0,0-1.17-.39,1.81,1.81,0,0,0-1.13.34,1,1,0,0,0-.46.83H39.66a1.74,1.74,0,0,1,.39-1.07,2.62,2.62,0,0,1,1.07-.82,3.59,3.59,0,0,1,1.48-.3,2.9,2.9,0,0,1,2,.64,2.27,2.27,0,0,1,.75,1.76v3.4a4.21,4.21,0,0,0,.26,1.62v.11Zm-2.1-1a2.19,2.19,0,0,0,1.13-.31,1.85,1.85,0,0,0,.77-.8v-1.52h-1c-1.55,0-2.33.46-2.33,1.36a1.16,1.16,0,0,0,.4.93A1.48,1.48,0,0,0,42.19,316.34Z" transform="translate(-16.74 -23.26)"/><path class="cls-12" d="M56,314h1.38v1H56v2.31H54.74V315H50.21v-.74l4.45-6.9H56Zm-4.37,0h3.1v-4.88l-.15.27Z" transform="translate(-16.74 -23.26)"/><path class="cls-12" d="M67.82,314.7H63.65l-.93,2.6H61.36l3.8-9.95h1.15l3.81,9.95H68.77Zm-3.77-1.08h3.38L65.74,309Z" transform="translate(-16.74 -23.26)"/><path class="cls-12" d="M75.11,313.28H72.77v4H71.45v-9.95h3.3a3.92,3.92,0,0,1,2.59.76,2.79,2.79,0,0,1,.9,2.23,2.71,2.71,0,0,1-.5,1.62,3,3,0,0,1-1.4,1l2.34,4.22v.08H77.27Zm-2.34-1.08h2a2.29,2.29,0,0,0,1.55-.5,1.71,1.71,0,0,0,.58-1.36,1.8,1.8,0,0,0-.55-1.42,2.33,2.33,0,0,0-1.59-.5h-2Z" transform="translate(-16.74 -23.26)"/><path class="cls-12" d="M82.51,313.59H79.18v-1h3.33Z" transform="translate(-16.74 -23.26)"/><path class="cls-12" d="M91.26,314.14a3.65,3.65,0,0,1-1.16,2.44,3.84,3.84,0,0,1-2.61.86,3.49,3.49,0,0,1-2.83-1.27,5.12,5.12,0,0,1-1.06-3.38v-1a5.69,5.69,0,0,1,.5-2.44,3.69,3.69,0,0,1,1.4-1.61,3.9,3.9,0,0,1,2.11-.57,3.61,3.61,0,0,1,2.54.89,3.66,3.66,0,0,1,1.11,2.45H89.94a2.84,2.84,0,0,0-.74-1.73,2.22,2.22,0,0,0-1.59-.53,2.37,2.37,0,0,0-2,.93,4.3,4.3,0,0,0-.71,2.64v1a4.41,4.41,0,0,0,.68,2.58,2.18,2.18,0,0,0,1.89,1,2.53,2.53,0,0,0,1.68-.5,2.72,2.72,0,0,0,.77-1.73Z" transform="translate(-16.74 -23.26)"/><path class="cls-12" d="M100.71,312.65a6.14,6.14,0,0,1-.49,2.55,3.65,3.65,0,0,1-1.4,1.66,4.07,4.07,0,0,1-4.19,0,3.83,3.83,0,0,1-1.41-1.65,6,6,0,0,1-.51-2.47V312a6,6,0,0,1,.5-2.54,3.91,3.91,0,0,1,5.6-1.69,3.7,3.7,0,0,1,1.41,1.67,6.22,6.22,0,0,1,.49,2.56Zm-1.3-.65a4.4,4.4,0,0,0-.72-2.71,2.52,2.52,0,0,0-3.94,0,4.37,4.37,0,0,0-.74,2.63v.73a4.45,4.45,0,0,0,.72,2.69,2.54,2.54,0,0,0,4,.06,4.53,4.53,0,0,0,.72-2.66Z" transform="translate(-16.74 -23.26)"/><path class="cls-12" d="M110.33,317.3H109l-5-7.67v7.67h-1.32v-9.95H104l5,7.7v-7.7h1.31Z" transform="translate(-16.74 -23.26)"/><path class="cls-12" d="M112.66,317.3v-9.95h2.81a4.56,4.56,0,0,1,2.3.57,3.94,3.94,0,0,1,1.54,1.64,5.37,5.37,0,0,1,.55,2.43v.64a5.34,5.34,0,0,1-.54,2.46,3.84,3.84,0,0,1-1.56,1.63,4.77,4.77,0,0,1-2.34.58Zm1.31-8.88v7.81h1.38a3,3,0,0,0,2.37-1,3.88,3.88,0,0,0,.84-2.68V312a3.94,3.94,0,0,0-.8-2.63,2.83,2.83,0,0,0-2.26-1Z" transform="translate(-16.74 -23.26)"/><path class="cls-12" d="M123.25,317.3h-1.31v-9.95h1.31Z" transform="translate(-16.74 -23.26)"/><path class="cls-12" d="M133,314.14a3.61,3.61,0,0,1-1.17,2.44,3.81,3.81,0,0,1-2.6.86,3.49,3.49,0,0,1-2.83-1.27,5.07,5.07,0,0,1-1.06-3.38v-1a5.69,5.69,0,0,1,.49-2.44,3.65,3.65,0,0,1,1.41-1.61,3.86,3.86,0,0,1,2.1-.57,3.62,3.62,0,0,1,2.55.89,3.7,3.7,0,0,1,1.11,2.45h-1.32a2.84,2.84,0,0,0-.74-1.73,2.23,2.23,0,0,0-1.6-.53,2.35,2.35,0,0,0-2,.93,4.3,4.3,0,0,0-.71,2.64v1a4.41,4.41,0,0,0,.67,2.58,2.2,2.2,0,0,0,1.9,1,2.53,2.53,0,0,0,1.68-.5,2.83,2.83,0,0,0,.77-1.73Z" transform="translate(-16.74 -23.26)"/><path class="cls-12" d="M136.17,317.3h-1.31v-9.95h1.31Z" transform="translate(-16.74 -23.26)"/><path class="cls-12" d="M146.23,312.65a6.14,6.14,0,0,1-.5,2.55,3.64,3.64,0,0,1-1.39,1.66,4.07,4.07,0,0,1-4.19,0,3.7,3.7,0,0,1-1.41-1.65,5.83,5.83,0,0,1-.52-2.47V312a6.12,6.12,0,0,1,.5-2.54,3.71,3.71,0,0,1,3.5-2.27,3.82,3.82,0,0,1,2.11.58,3.62,3.62,0,0,1,1.4,1.67,6.22,6.22,0,0,1,.5,2.56Zm-1.31-.65a4.46,4.46,0,0,0-.71-2.71,2.36,2.36,0,0,0-2-1,2.33,2.33,0,0,0-2,1,4.37,4.37,0,0,0-.73,2.63v.73a4.45,4.45,0,0,0,.72,2.69,2.53,2.53,0,0,0,3.95.06,4.39,4.39,0,0,0,.72-2.66Z" transform="translate(-16.74 -23.26)"/><path class="cls-12" d="M155.84,317.3h-1.32l-5-7.67v7.67h-1.32v-9.95h1.32l5,7.7v-7.7h1.3Z" transform="translate(-16.74 -23.26)"/><path class="cls-12" d="M163.79,314.7h-4.17l-.93,2.6h-1.36l3.8-9.95h1.15l3.81,9.95h-1.35ZM160,313.62h3.38L161.71,309Z" transform="translate(-16.74 -23.26)"/><path class="cls-12" d="M167.43,317.3v-9.95h2.81a4.56,4.56,0,0,1,2.3.57,3.94,3.94,0,0,1,1.54,1.64,5.37,5.37,0,0,1,.55,2.43v.64a5.22,5.22,0,0,1-.55,2.46,3.76,3.76,0,0,1-1.55,1.63,4.77,4.77,0,0,1-2.34.58Zm1.31-8.88v7.81h1.38a3,3,0,0,0,2.37-1,3.88,3.88,0,0,0,.84-2.68V312a3.94,3.94,0,0,0-.8-2.63,2.83,2.83,0,0,0-2.26-1Z" transform="translate(-16.74 -23.26)"/><path class="cls-12" d="M184.27,312.65a6.3,6.3,0,0,1-.49,2.55,3.72,3.72,0,0,1-1.4,1.66,4.07,4.07,0,0,1-4.19,0,3.7,3.7,0,0,1-1.41-1.65,5.83,5.83,0,0,1-.52-2.47V312a6.12,6.12,0,0,1,.5-2.54,3.71,3.71,0,0,1,3.5-2.27,3.82,3.82,0,0,1,2.11.58,3.7,3.7,0,0,1,1.41,1.67,6.39,6.39,0,0,1,.49,2.56ZM183,312a4.46,4.46,0,0,0-.71-2.71,2.53,2.53,0,0,0-3.95,0,4.37,4.37,0,0,0-.73,2.63v.73a4.45,4.45,0,0,0,.72,2.69,2.53,2.53,0,0,0,4,.06,4.39,4.39,0,0,0,.72-2.66Z" transform="translate(-16.74 -23.26)"/><path class="cls-12" d="M186,313.26a10.81,10.81,0,0,1,.41-3,8.79,8.79,0,0,1,1.24-2.58,5.22,5.22,0,0,1,1.7-1.64l.26.83a5.5,5.5,0,0,0-1.64,2.34,10.25,10.25,0,0,0-.7,3.52v.58a10.21,10.21,0,0,0,1,4.58,5.53,5.53,0,0,0,1.38,1.82l-.26.77a5.31,5.31,0,0,1-1.74-1.69A9.54,9.54,0,0,1,186,313.26Z" transform="translate(-16.74 -23.26)"/><path class="cls-12" d="M194,312.87a6.26,6.26,0,0,1-2.45-1.2,2.24,2.24,0,0,1-.77-1.74,2.4,2.4,0,0,1,.94-1.95,3.73,3.73,0,0,1,2.44-.77,4,4,0,0,1,1.83.4,2.94,2.94,0,0,1,1.24,1.09,2.77,2.77,0,0,1,.45,1.53h-1.32a1.85,1.85,0,0,0-.58-1.43,2.35,2.35,0,0,0-1.62-.51,2.4,2.4,0,0,0-1.51.42,1.42,1.42,0,0,0-.55,1.19,1.29,1.29,0,0,0,.52,1,5,5,0,0,0,1.76.77,8.66,8.66,0,0,1,1.94.77,3,3,0,0,1,1,1,2.59,2.59,0,0,1,.34,1.32,2.32,2.32,0,0,1-1,1.94,4,4,0,0,1-2.52.73,4.69,4.69,0,0,1-1.91-.39,3.37,3.37,0,0,1-1.38-1.08,2.64,2.64,0,0,1-.48-1.55h1.32a1.7,1.7,0,0,0,.67,1.42,2.79,2.79,0,0,0,1.78.53,2.59,2.59,0,0,0,1.59-.43,1.38,1.38,0,0,0,.56-1.15,1.32,1.32,0,0,0-.52-1.13A5.8,5.8,0,0,0,194,312.87Z" transform="translate(-16.74 -23.26)"/><path class="cls-12" d="M202.05,313.33a10.78,10.78,0,0,1-.4,2.92,8.76,8.76,0,0,1-1.23,2.58,5.23,5.23,0,0,1-1.72,1.68l-.27-.77a5.47,5.47,0,0,0,1.69-2.5,10.8,10.8,0,0,0,.66-3.77v-.22a11.25,11.25,0,0,0-.3-2.67,9.31,9.31,0,0,0-.84-2.21,5.22,5.22,0,0,0-1.21-1.53l.27-.77a5.38,5.38,0,0,1,1.72,1.67,8.75,8.75,0,0,1,1.22,2.58A10.79,10.79,0,0,1,202.05,313.33Z" transform="translate(-16.74 -23.26)"/></g></g></g></svg>
