<svg xmlns="http://www.w3.org/2000/svg" xmlns:xlink="http://www.w3.org/1999/xlink" width="110.022" height="100.973" viewBox="0 0 110.022 100.973">
  <defs>
    <linearGradient id="linear-gradient" x1="-0.031" y1="0.503" x2="0.968" y2="0.503" gradientUnits="objectBoundingBox">
      <stop offset="0" stop-color="#545770"/>
      <stop offset="0.095" stop-color="#50536a"/>
      <stop offset="0.3" stop-color="#4e5168"/>
      <stop offset="0.377" stop-color="#454860"/>
      <stop offset="0.587" stop-color="#34374f"/>
      <stop offset="0.744" stop-color="#2f324a"/>
      <stop offset="1" stop-color="#20233d"/>
    </linearGradient>
    <clipPath id="clip-path">
      <path id="Caminho_7478" data-name="Caminho 7478" d="M486.971,632.381c-18.75-10.865-38.118-10.9-56.9-.091h0c-9.392,5.4-14.093,10.9-14.1,16.4s4.674,11.016,14.049,16.449c18.75,10.865,38.118,10.9,56.9.091,9.392-5.4,14.093-10.9,14.1-16.4S496.346,637.814,486.971,632.381Z" transform="translate(-415.967 -624.209)" fill="none"/>
    </clipPath>
    <clipPath id="clip-path-2">
      <path id="Caminho_7645" data-name="Caminho 7645" d="M168.511,473.115c-19.595-11.355-39.836-11.388-59.467-.1h0c-9.816,5.646-14.728,11.391-14.737,17.143s4.885,11.513,14.683,17.19c19.595,11.355,39.836,11.387,59.467.1,9.816-5.646,14.728-11.391,14.737-17.143S178.308,478.792,168.511,473.115Z" transform="translate(-94.307 -464.575)" fill="none"/>
    </clipPath>
  </defs>
  <g id="Grupo_10618" data-name="Grupo 10618" transform="translate(-1020.475 -3251.506)" style="isolation: isolate">
    <g id="Grupo_9839" data-name="Grupo 9839" transform="translate(1021.861 3285.234)">
      <g id="Grupo_9829" data-name="Grupo 9829" transform="translate(0 8.197)" style="mix-blend-mode: multiply;isolation: isolate">
        <path id="Caminho_7407" data-name="Caminho 7407" d="M535.827,649.336c-18.767-10.835-38.135-10.835-56.9,0h0c-9.384,5.417-14.075,10.922-14.075,16.426s4.692,11.008,14.075,16.426c18.767,10.835,38.136,10.835,56.9,0,9.384-5.418,14.075-10.922,14.075-16.426S545.211,654.753,535.827,649.336Z" transform="translate(-441.268 -641.209)" fill="#fff" opacity="0"/>
        <path id="Caminho_7408" data-name="Caminho 7408" d="M534.345,649.336c-18.767-10.835-38.135-10.835-56.9,0h0c-9.384,5.417-14.075,10.922-14.075,16.426s4.692,11.008,14.075,16.426c18.767,10.835,38.136,10.835,56.9,0,9.384-5.418,14.075-10.922,14.075-16.426S543.729,654.753,534.345,649.336Z" transform="translate(-440.5 -641.209)" fill="#fcfcfc" opacity="0.03"/>
        <path id="Caminho_7409" data-name="Caminho 7409" d="M532.863,649.336c-18.767-10.835-38.135-10.835-56.9,0h0c-9.384,5.417-14.075,10.922-14.075,16.426s4.692,11.008,14.075,16.426c18.767,10.835,38.136,10.835,56.9,0,9.384-5.418,14.075-10.922,14.075-16.426S542.247,654.753,532.863,649.336Z" transform="translate(-439.733 -641.209)" fill="#f9f9f9" opacity="0.061"/>
        <path id="Caminho_7410" data-name="Caminho 7410" d="M531.381,649.336c-18.767-10.835-38.135-10.835-56.9,0h0c-9.384,5.417-14.075,10.922-14.075,16.426s4.692,11.008,14.075,16.426c18.767,10.835,38.136,10.835,56.9,0,9.384-5.418,14.076-10.922,14.076-16.426S540.765,654.753,531.381,649.336Z" transform="translate(-438.965 -641.209)" fill="#f5f5f5" opacity="0.091"/>
        <path id="Caminho_7411" data-name="Caminho 7411" d="M529.9,649.336c-18.767-10.835-38.135-10.835-56.9,0h0c-9.384,5.417-14.075,10.922-14.075,16.426s4.692,11.008,14.075,16.426c18.767,10.835,38.136,10.835,56.9,0,9.384-5.418,14.075-10.922,14.075-16.426S539.283,654.753,529.9,649.336Z" transform="translate(-438.198 -641.209)" fill="#f2f2f2" opacity="0.121"/>
        <path id="Caminho_7412" data-name="Caminho 7412" d="M528.416,649.336c-18.767-10.835-38.135-10.835-56.9,0h0c-9.383,5.417-14.075,10.922-14.075,16.426s4.692,11.008,14.075,16.426c18.768,10.835,38.136,10.835,56.9,0,9.384-5.418,14.075-10.922,14.075-16.426S537.8,654.753,528.416,649.336Z" transform="translate(-437.43 -641.209)" fill="#efefef" opacity="0.152"/>
        <path id="Caminho_7413" data-name="Caminho 7413" d="M526.934,649.336c-18.767-10.835-38.135-10.835-56.9,0h0c-9.383,5.417-14.075,10.922-14.075,16.426s4.692,11.008,14.075,16.426c18.768,10.835,38.136,10.835,56.9,0,9.384-5.418,14.075-10.922,14.075-16.426S536.318,654.753,526.934,649.336Z" transform="translate(-436.662 -641.209)" fill="#ececec" opacity="0.182"/>
        <path id="Caminho_7414" data-name="Caminho 7414" d="M525.452,649.336c-18.768-10.835-38.136-10.835-56.9,0h0c-9.384,5.417-14.075,10.922-14.075,16.426s4.692,11.008,14.075,16.426c18.768,10.835,38.136,10.835,56.9,0,9.384-5.418,14.075-10.922,14.075-16.426S534.836,654.753,525.452,649.336Z" transform="translate(-435.895 -641.209)" fill="#e8e8e8" opacity="0.212"/>
        <path id="Caminho_7415" data-name="Caminho 7415" d="M523.97,649.336c-18.767-10.835-38.135-10.835-56.9,0h0c-9.384,5.417-14.075,10.922-14.075,16.426s4.692,11.008,14.075,16.426c18.768,10.835,38.136,10.835,56.9,0,9.383-5.418,14.075-10.922,14.075-16.426S533.354,654.753,523.97,649.336Z" transform="translate(-435.127 -641.209)" fill="#e5e5e5" opacity="0.242"/>
        <path id="Caminho_7416" data-name="Caminho 7416" d="M522.488,649.336c-18.767-10.835-38.135-10.835-56.9,0h0c-9.384,5.417-14.075,10.922-14.075,16.426s4.692,11.008,14.075,16.426c18.768,10.835,38.136,10.835,56.9,0,9.384-5.418,14.075-10.922,14.075-16.426S531.872,654.753,522.488,649.336Z" transform="translate(-434.36 -641.209)" fill="#e2e2e2" opacity="0.273"/>
        <path id="Caminho_7417" data-name="Caminho 7417" d="M521.006,649.336c-18.767-10.835-38.135-10.835-56.9,0h0c-9.384,5.417-14.075,10.922-14.075,16.426s4.692,11.008,14.075,16.426c18.767,10.835,38.136,10.835,56.9,0,9.384-5.418,14.075-10.922,14.075-16.426S530.39,654.753,521.006,649.336Z" transform="translate(-433.593 -641.209)" fill="#dfdfdf" opacity="0.303"/>
        <path id="Caminho_7418" data-name="Caminho 7418" d="M519.524,649.336c-18.767-10.835-38.135-10.835-56.9,0h0c-9.384,5.417-14.075,10.922-14.075,16.426s4.692,11.008,14.075,16.426c18.767,10.835,38.136,10.835,56.9,0,9.384-5.418,14.075-10.922,14.075-16.426S528.908,654.753,519.524,649.336Z" transform="translate(-432.825 -641.209)" fill="#dbdbdb" opacity="0.333"/>
        <path id="Caminho_7419" data-name="Caminho 7419" d="M518.042,649.336c-18.767-10.835-38.135-10.835-56.9,0h0c-9.384,5.417-14.075,10.922-14.075,16.426s4.692,11.008,14.075,16.426c18.767,10.835,38.136,10.835,56.9,0,9.384-5.418,14.076-10.922,14.076-16.426S527.426,654.753,518.042,649.336Z" transform="translate(-432.058 -641.209)" fill="#d8d8d8" opacity="0.364"/>
        <path id="Caminho_7420" data-name="Caminho 7420" d="M516.56,649.336c-18.767-10.835-38.135-10.835-56.9,0h0c-9.384,5.417-14.075,10.922-14.075,16.426s4.692,11.008,14.075,16.426c18.767,10.835,38.136,10.835,56.9,0,9.384-5.418,14.076-10.922,14.076-16.426S525.944,654.753,516.56,649.336Z" transform="translate(-431.29 -641.209)" fill="#d5d5d5" opacity="0.394"/>
        <path id="Caminho_7421" data-name="Caminho 7421" d="M515.078,649.336c-18.767-10.835-38.135-10.835-56.9,0h0c-9.384,5.417-14.076,10.922-14.076,16.426s4.692,11.008,14.076,16.426c18.767,10.835,38.136,10.835,56.9,0,9.384-5.418,14.075-10.922,14.075-16.426S524.462,654.753,515.078,649.336Z" transform="translate(-430.523 -641.209)" fill="#d2d2d2" opacity="0.424"/>
        <path id="Caminho_7422" data-name="Caminho 7422" d="M513.6,649.336c-18.767-10.835-38.135-10.835-56.9,0h0c-9.384,5.417-14.075,10.922-14.075,16.426s4.692,11.008,14.075,16.426c18.767,10.835,38.136,10.835,56.9,0,9.384-5.418,14.075-10.922,14.075-16.426S522.98,654.753,513.6,649.336Z" transform="translate(-429.755 -641.209)" fill="#cecece" opacity="0.455"/>
        <path id="Caminho_7423" data-name="Caminho 7423" d="M512.113,649.336c-18.768-10.835-38.135-10.835-56.9,0h0c-9.383,5.417-14.075,10.922-14.075,16.426s4.692,11.008,14.075,16.426c18.768,10.835,38.136,10.835,56.9,0,9.384-5.418,14.075-10.922,14.075-16.426S521.5,654.753,512.113,649.336Z" transform="translate(-428.987 -641.209)" fill="#cbcbcb" opacity="0.485"/>
        <path id="Caminho_7424" data-name="Caminho 7424" d="M510.631,649.336c-18.768-10.835-38.135-10.835-56.9,0h0c-9.383,5.417-14.075,10.922-14.075,16.426s4.692,11.008,14.075,16.426c18.768,10.835,38.136,10.835,56.9,0,9.384-5.418,14.075-10.922,14.075-16.426S520.015,654.753,510.631,649.336Z" transform="translate(-428.22 -641.209)" fill="#c8c8c8" opacity="0.515"/>
        <path id="Caminho_7425" data-name="Caminho 7425" d="M509.149,649.336c-18.768-10.835-38.136-10.835-56.9,0h0c-9.384,5.417-14.075,10.922-14.075,16.426s4.692,11.008,14.075,16.426c18.768,10.835,38.136,10.835,56.9,0,9.384-5.418,14.075-10.922,14.075-16.426S518.533,654.753,509.149,649.336Z" transform="translate(-427.452 -641.209)" fill="#c5c5c5" opacity="0.545"/>
        <path id="Caminho_7426" data-name="Caminho 7426" d="M507.667,649.336c-18.768-10.835-38.136-10.835-56.9,0h0c-9.384,5.417-14.075,10.922-14.075,16.426s4.692,11.008,14.075,16.426c18.768,10.835,38.136,10.835,56.9,0,9.384-5.418,14.075-10.922,14.075-16.426S517.051,654.753,507.667,649.336Z" transform="translate(-426.685 -641.209)" fill="#c1c1c1" opacity="0.576"/>
        <path id="Caminho_7427" data-name="Caminho 7427" d="M506.185,649.336c-18.768-10.835-38.136-10.835-56.9,0h0c-9.384,5.417-14.075,10.922-14.075,16.426s4.692,11.008,14.075,16.426c18.768,10.835,38.136,10.835,56.9,0,9.384-5.418,14.076-10.922,14.076-16.426S515.569,654.753,506.185,649.336Z" transform="translate(-425.917 -641.209)" fill="#bebebe" opacity="0.606"/>
        <path id="Caminho_7428" data-name="Caminho 7428" d="M504.7,649.336c-18.768-10.835-38.136-10.835-56.9,0h0c-9.384,5.417-14.075,10.922-14.075,16.426s4.692,11.008,14.075,16.426c18.768,10.835,38.136,10.835,56.9,0,9.384-5.418,14.076-10.922,14.076-16.426S514.087,654.753,504.7,649.336Z" transform="translate(-425.15 -641.209)" fill="#bbb" opacity="0.636"/>
        <path id="Caminho_7429" data-name="Caminho 7429" d="M503.221,649.336c-18.768-10.835-38.136-10.835-56.9,0h0c-9.383,5.417-14.075,10.922-14.075,16.426s4.692,11.008,14.075,16.426c18.768,10.835,38.136,10.835,56.9,0,9.384-5.418,14.075-10.922,14.075-16.426S512.6,654.753,503.221,649.336Z" transform="translate(-424.383 -641.209)" fill="#b8b8b8" opacity="0.667"/>
        <path id="Caminho_7430" data-name="Caminho 7430" d="M501.739,649.336c-18.768-10.835-38.136-10.835-56.9,0h0c-9.384,5.417-14.075,10.922-14.075,16.426s4.692,11.008,14.075,16.426c18.768,10.835,38.136,10.835,56.9,0,9.384-5.418,14.075-10.922,14.075-16.426S511.123,654.753,501.739,649.336Z" transform="translate(-423.615 -641.209)" fill="#b4b4b4" opacity="0.697"/>
        <path id="Caminho_7431" data-name="Caminho 7431" d="M500.257,649.336c-18.767-10.835-38.135-10.835-56.9,0h0c-9.384,5.417-14.075,10.922-14.075,16.426s4.692,11.008,14.075,16.426c18.767,10.835,38.136,10.835,56.9,0,9.384-5.418,14.075-10.922,14.075-16.426S509.641,654.753,500.257,649.336Z" transform="translate(-422.848 -641.209)" fill="#b1b1b1" opacity="0.727"/>
        <path id="Caminho_7432" data-name="Caminho 7432" d="M498.775,649.336c-18.767-10.835-38.135-10.835-56.9,0h0c-9.384,5.417-14.075,10.922-14.075,16.426s4.692,11.008,14.075,16.426c18.767,10.835,38.136,10.835,56.9,0,9.384-5.418,14.075-10.922,14.075-16.426S508.159,654.753,498.775,649.336Z" transform="translate(-422.08 -641.209)" fill="#aeaeae" opacity="0.758"/>
        <path id="Caminho_7433" data-name="Caminho 7433" d="M497.293,649.336c-18.767-10.835-38.135-10.835-56.9,0h0c-9.384,5.417-14.075,10.922-14.075,16.426s4.692,11.008,14.075,16.426c18.767,10.835,38.136,10.835,56.9,0,9.384-5.418,14.075-10.922,14.075-16.426S506.677,654.753,497.293,649.336Z" transform="translate(-421.313 -641.209)" fill="#ababab" opacity="0.788"/>
        <path id="Caminho_7434" data-name="Caminho 7434" d="M495.81,649.336c-18.768-10.835-38.136-10.835-56.9,0h0c-9.384,5.417-14.075,10.922-14.075,16.426s4.692,11.008,14.075,16.426c18.768,10.835,38.136,10.835,56.9,0,9.383-5.418,14.075-10.922,14.075-16.426S505.194,654.753,495.81,649.336Z" transform="translate(-420.545 -641.209)" fill="#a7a7a7" opacity="0.818"/>
        <path id="Caminho_7435" data-name="Caminho 7435" d="M494.328,649.336c-18.768-10.835-38.136-10.835-56.9,0h0c-9.384,5.417-14.075,10.922-14.075,16.426s4.692,11.008,14.075,16.426c18.768,10.835,38.136,10.835,56.9,0,9.383-5.418,14.075-10.922,14.075-16.426S503.712,654.753,494.328,649.336Z" transform="translate(-419.777 -641.209)" fill="#a4a4a4" opacity="0.848"/>
        <path id="Caminho_7436" data-name="Caminho 7436" d="M492.846,649.336c-18.768-10.835-38.136-10.835-56.9,0h0c-9.384,5.417-14.075,10.922-14.075,16.426s4.692,11.008,14.075,16.426c18.768,10.835,38.136,10.835,56.9,0,9.384-5.418,14.075-10.922,14.075-16.426S502.23,654.753,492.846,649.336Z" transform="translate(-419.01 -641.209)" fill="#a1a1a1" opacity="0.879"/>
        <path id="Caminho_7437" data-name="Caminho 7437" d="M491.364,649.336c-18.768-10.835-38.136-10.835-56.9,0h0c-9.384,5.417-14.075,10.922-14.075,16.426s4.692,11.008,14.075,16.426c18.768,10.835,38.136,10.835,56.9,0,9.384-5.418,14.075-10.922,14.075-16.426S500.748,654.753,491.364,649.336Z" transform="translate(-418.242 -641.209)" fill="#9e9e9e" opacity="0.909"/>
        <path id="Caminho_7438" data-name="Caminho 7438" d="M489.882,649.336c-18.768-10.835-38.136-10.835-56.9,0h0c-9.384,5.417-14.075,10.922-14.075,16.426s4.692,11.008,14.075,16.426c18.768,10.835,38.136,10.835,56.9,0,9.383-5.418,14.075-10.922,14.075-16.426S499.266,654.753,489.882,649.336Z" transform="translate(-417.475 -641.209)" fill="#9a9a9a" opacity="0.939"/>
        <path id="Caminho_7439" data-name="Caminho 7439" d="M488.4,649.336c-18.768-10.835-38.136-10.835-56.9,0h0c-9.384,5.417-14.075,10.922-14.075,16.426s4.692,11.008,14.075,16.426c18.768,10.835,38.136,10.835,56.9,0,9.384-5.418,14.075-10.922,14.075-16.426S497.784,654.753,488.4,649.336Z" transform="translate(-416.707 -641.209)" fill="#979797" opacity="0.97"/>
        <path id="Caminho_7440" data-name="Caminho 7440" d="M486.918,649.336c-18.768-10.835-38.136-10.835-56.9,0h0c-9.383,5.417-14.075,10.922-14.075,16.426s4.692,11.008,14.075,16.426c18.768,10.835,38.136,10.835,56.9,0,9.384-5.418,14.076-10.922,14.076-16.426S496.3,654.753,486.918,649.336Z" transform="translate(-415.94 -641.209)" fill="#949494"/>
      </g>
      <g id="Grupo_9830" data-name="Grupo 9830" transform="translate(0 2.727)">
        <path id="Caminho_7441" data-name="Caminho 7441" d="M495.884,650.41c-21.111-12.234-42.918-12.268-64.067-.1h0c-10.575,6.083-15.868,12.272-15.877,18.469s5.263,12.4,15.818,18.519c21.111,12.233,42.917,12.269,64.067.1,10.575-6.083,15.867-12.272,15.877-18.469S506.439,656.527,495.884,650.41Z" transform="translate(-415.94 -631.981)" fill="#ff9b00"/>
        <path id="Caminho_7442" data-name="Caminho 7442" d="M495.839,693.614c-21.15,12.165-42.956,12.13-64.067-.1-10.555-6.117-15.828-12.323-15.818-18.52l-.015,9.229c-.01,6.2,5.263,12.4,15.818,18.519,21.111,12.233,42.917,12.268,64.067.1,10.575-6.083,15.867-12.272,15.877-18.469l.015-9.229C511.707,681.342,506.414,687.531,495.839,693.614Z" transform="translate(-415.94 -647.424)" fill="url(#linear-gradient)"/>
        <path id="Caminho_7443" data-name="Caminho 7443" d="M495.911,633.41c-21.111-12.233-42.917-12.268-64.067-.1h0c-10.575,6.083-15.867,12.272-15.877,18.469s5.263,12.4,15.818,18.52c21.111,12.233,42.917,12.268,64.067.1,10.575-6.083,15.867-12.272,15.877-18.469S506.466,639.527,495.911,633.41Z" transform="translate(-415.952 -624.209)" fill="#37384f"/>
      </g>
    </g>
    <g id="Grupo_10353" data-name="Grupo 10353" transform="translate(1020.475 3251.506)">
      <g id="Grupo_9863" data-name="Grupo 9863" transform="translate(0 34.516)">
        <g id="Grupo_9862" data-name="Grupo 9862" transform="translate(0)" clip-path="url(#clip-path-2)">
          <g id="Grupo_9861" data-name="Grupo 9861" transform="translate(28.543 -17.771)" style="mix-blend-mode: multiply;isolation: isolate">
            <path id="Caminho_7611" data-name="Caminho 7611" d="M229.954,457.518c0,.014,0,.028,0,.041h-.007c-3.436,5.785-5.617,10.437-5.625,14.423,0,.007,0,.014,0,.021,0,5.068,7.116,9.176,15.893,9.176,6.035,0,11.284-1.942,13.975-4.8A6.385,6.385,0,0,0,256.1,472h0c0-.007,0-.014,0-.021-.007-3.986-2.188-8.639-5.624-14.423v-4.633h0c3.436-5.785,5.617-10.437,5.625-14.423,0-.007,0-.014,0-.021,0-5.068-7.115-9.176-15.893-9.176-6.034,0-11.284,1.942-13.975,4.8a6.384,6.384,0,0,0-1.918,4.374h0c0,.007,0,.014,0,.021.007,3.986,2.188,8.639,5.624,14.423h.011Z" transform="translate(-187.351 -429.306)" fill="#fff" opacity="0"/>
            <path id="Caminho_7612" data-name="Caminho 7612" d="M227.731,457.518c0,.014,0,.028,0,.041h-.007c-3.436,5.785-5.617,10.437-5.625,14.423,0,.007,0,.014,0,.021,0,5.068,7.116,9.176,15.893,9.176,6.035,0,11.284-1.942,13.975-4.8A6.385,6.385,0,0,0,253.88,472h0c0-.007,0-.014,0-.021-.007-3.986-2.188-8.639-5.624-14.423v-4.633h0c3.436-5.785,5.617-10.437,5.625-14.423,0-.007,0-.014,0-.021,0-5.068-7.115-9.176-15.893-9.176-6.034,0-11.284,1.942-13.975,4.8a6.383,6.383,0,0,0-1.918,4.374h0c0,.007,0,.014,0,.021.007,3.986,2.188,8.639,5.624,14.423h.011Z" transform="translate(-186.248 -429.306)" fill="#f9f8f7" opacity="0.03"/>
            <path id="Caminho_7613" data-name="Caminho 7613" d="M225.508,457.518c0,.014,0,.028,0,.041H225.5c-3.436,5.785-5.617,10.437-5.625,14.423,0,.007,0,.014,0,.021,0,5.068,7.116,9.176,15.893,9.176,6.035,0,11.284-1.942,13.975-4.8A6.385,6.385,0,0,0,251.657,472h0c0-.007,0-.014,0-.021-.007-3.986-2.188-8.639-5.624-14.423v-4.633h0c3.436-5.785,5.617-10.437,5.625-14.423,0-.007,0-.014,0-.021,0-5.068-7.115-9.176-15.893-9.176-6.034,0-11.284,1.942-13.975,4.8a6.383,6.383,0,0,0-1.918,4.374h0c0,.007,0,.014,0,.021.007,3.986,2.188,8.639,5.624,14.423h.011Z" transform="translate(-185.145 -429.306)" fill="#f3f1f0" opacity="0.061"/>
            <path id="Caminho_7614" data-name="Caminho 7614" d="M223.285,457.518c0,.014,0,.028,0,.041h-.007c-3.436,5.785-5.617,10.437-5.625,14.423,0,.007,0,.014,0,.021,0,5.068,7.115,9.176,15.893,9.176,6.035,0,11.284-1.942,13.975-4.8A6.385,6.385,0,0,0,249.434,472h0c0-.007,0-.014,0-.021-.007-3.986-2.188-8.639-5.624-14.423v-4.633h0c3.436-5.785,5.617-10.437,5.625-14.423,0-.007,0-.014,0-.021,0-5.068-7.116-9.176-15.893-9.176-6.035,0-11.284,1.942-13.975,4.8a6.383,6.383,0,0,0-1.918,4.374h0c0,.007,0,.014,0,.021.008,3.986,2.188,8.639,5.625,14.423h.011Z" transform="translate(-184.042 -429.306)" fill="#edeae8" opacity="0.091"/>
            <path id="Caminho_7615" data-name="Caminho 7615" d="M221.061,457.518a.382.382,0,0,1,0,.041h-.007c-3.435,5.785-5.617,10.437-5.625,14.423,0,.007,0,.014,0,.021,0,5.068,7.116,9.176,15.893,9.176,6.035,0,11.284-1.942,13.975-4.8A6.385,6.385,0,0,0,247.21,472h0c0-.007,0-.014,0-.021-.007-3.986-2.188-8.639-5.624-14.423v-4.633h0c3.436-5.785,5.617-10.437,5.625-14.423,0-.007,0-.014,0-.021,0-5.068-7.115-9.176-15.893-9.176-6.034,0-11.284,1.942-13.975,4.8a6.386,6.386,0,0,0-1.918,4.374h0c0,.007,0,.014,0,.021.007,3.986,2.188,8.639,5.624,14.423h.011Z" transform="translate(-182.939 -429.306)" fill="#e7e3e0" opacity="0.121"/>
            <path id="Caminho_7616" data-name="Caminho 7616" d="M218.838,457.518c0,.014,0,.028,0,.041h-.007c-3.436,5.785-5.617,10.437-5.625,14.423,0,.007,0,.014,0,.021,0,5.068,7.116,9.176,15.893,9.176,6.035,0,11.284-1.942,13.975-4.8A6.385,6.385,0,0,0,244.987,472h0c0-.007,0-.014,0-.021-.007-3.986-2.188-8.639-5.624-14.423v-4.633h0c3.436-5.785,5.617-10.437,5.625-14.423,0-.007,0-.014,0-.021,0-5.068-7.115-9.176-15.893-9.176-6.034,0-11.284,1.942-13.975,4.8a6.383,6.383,0,0,0-1.918,4.374h0c0,.007,0,.014,0,.021.007,3.986,2.188,8.639,5.624,14.423h.011Z" transform="translate(-181.836 -429.306)" fill="#e2dcd8" opacity="0.152"/>
            <path id="Caminho_7617" data-name="Caminho 7617" d="M216.615,457.518c0,.014,0,.028,0,.041H216.6c-3.436,5.785-5.617,10.437-5.625,14.423,0,.007,0,.014,0,.021,0,5.068,7.116,9.176,15.893,9.176,6.035,0,11.284-1.942,13.975-4.8A6.385,6.385,0,0,0,242.764,472h0c0-.007,0-.014,0-.021-.007-3.986-2.188-8.639-5.624-14.423v-4.633h0c3.436-5.785,5.617-10.437,5.625-14.423,0-.007,0-.014,0-.021,0-5.068-7.115-9.176-15.893-9.176-6.034,0-11.284,1.942-13.975,4.8a6.383,6.383,0,0,0-1.918,4.374h0c0,.007,0,.014,0,.021.007,3.986,2.188,8.639,5.624,14.423h.011Z" transform="translate(-180.733 -429.306)" fill="#dcd5d1" opacity="0.182"/>
            <path id="Caminho_7618" data-name="Caminho 7618" d="M214.392,457.518c0,.014,0,.028,0,.041h-.007c-3.436,5.785-5.617,10.437-5.625,14.423,0,.007,0,.014,0,.021,0,5.068,7.116,9.176,15.893,9.176,6.035,0,11.284-1.942,13.975-4.8A6.385,6.385,0,0,0,240.541,472h0c0-.007,0-.014,0-.021-.007-3.986-2.188-8.639-5.624-14.423v-4.633h0c3.436-5.785,5.617-10.437,5.625-14.423,0-.007,0-.014,0-.021,0-5.068-7.115-9.176-15.893-9.176-6.034,0-11.284,1.942-13.975,4.8a6.383,6.383,0,0,0-1.918,4.374h0c0,.007,0,.014,0,.021.007,3.986,2.188,8.639,5.624,14.423h.011Z" transform="translate(-179.63 -429.306)" fill="#d6cec9" opacity="0.212"/>
            <path id="Caminho_7619" data-name="Caminho 7619" d="M212.169,457.518c0,.014,0,.028,0,.041h-.007c-3.436,5.785-5.617,10.437-5.625,14.423,0,.007,0,.014,0,.021,0,5.068,7.116,9.176,15.893,9.176,6.035,0,11.284-1.942,13.975-4.8A6.385,6.385,0,0,0,238.318,472h0c0-.007,0-.014,0-.021-.007-3.986-2.188-8.639-5.624-14.423v-4.633h0c3.436-5.785,5.617-10.437,5.625-14.423,0-.007,0-.014,0-.021,0-5.068-7.115-9.176-15.893-9.176-6.034,0-11.284,1.942-13.975,4.8a6.383,6.383,0,0,0-1.918,4.374h0c0,.007,0,.014,0,.021.007,3.986,2.188,8.639,5.624,14.423h.011Z" transform="translate(-178.527 -429.306)" fill="#d0c7c1" opacity="0.242"/>
            <path id="Caminho_7620" data-name="Caminho 7620" d="M209.946,457.518c0,.014,0,.028,0,.041h-.007c-3.436,5.785-5.617,10.437-5.625,14.423,0,.007,0,.014,0,.021,0,5.068,7.116,9.176,15.893,9.176,6.035,0,11.284-1.942,13.975-4.8A6.385,6.385,0,0,0,236.1,472h0c0-.007,0-.014,0-.021-.007-3.986-2.188-8.639-5.624-14.423v-4.633h0c3.436-5.785,5.617-10.437,5.625-14.423,0-.007,0-.014,0-.021,0-5.068-7.115-9.176-15.893-9.176-6.034,0-11.284,1.942-13.975,4.8a6.384,6.384,0,0,0-1.918,4.374h0c0,.007,0,.014,0,.021.007,3.986,2.188,8.639,5.624,14.423h.011Z" transform="translate(-177.424 -429.306)" fill="#cac1b9" opacity="0.273"/>
            <path id="Caminho_7621" data-name="Caminho 7621" d="M207.723,457.518c0,.014,0,.028,0,.041h-.007c-3.436,5.785-5.617,10.437-5.625,14.423,0,.007,0,.014,0,.021,0,5.068,7.115,9.176,15.893,9.176,6.034,0,11.284-1.942,13.975-4.8A6.385,6.385,0,0,0,233.872,472h0c0-.007,0-.014,0-.021-.007-3.986-2.188-8.639-5.624-14.423v-4.633h0c3.436-5.785,5.617-10.437,5.625-14.423,0-.007,0-.014,0-.021,0-5.068-7.116-9.176-15.893-9.176-6.035,0-11.284,1.942-13.975,4.8a6.384,6.384,0,0,0-1.918,4.374h0c0,.007,0,.014,0,.021.007,3.986,2.188,8.639,5.624,14.423h.011Z" transform="translate(-176.322 -429.306)" fill="#c4bab2" opacity="0.303"/>
            <path id="Caminho_7622" data-name="Caminho 7622" d="M205.5,457.518c0,.014,0,.028,0,.041h-.007c-3.436,5.785-5.617,10.437-5.625,14.423,0,.007,0,.014,0,.021,0,5.068,7.115,9.176,15.893,9.176,6.034,0,11.284-1.942,13.975-4.8A6.385,6.385,0,0,0,231.649,472h0c0-.007,0-.014,0-.021-.007-3.986-2.188-8.639-5.624-14.423v-4.633h0c3.436-5.785,5.617-10.437,5.625-14.423,0-.007,0-.014,0-.021,0-5.068-7.116-9.176-15.893-9.176-6.035,0-11.284,1.942-13.975,4.8a6.383,6.383,0,0,0-1.918,4.374h0c0,.007,0,.014,0,.021.008,3.986,2.188,8.639,5.625,14.423h.011Z" transform="translate(-175.219 -429.306)" fill="#beb3aa" opacity="0.333"/>
            <path id="Caminho_7623" data-name="Caminho 7623" d="M203.276,457.518c0,.014,0,.028,0,.041h-.007c-3.436,5.785-5.617,10.437-5.625,14.423,0,.007,0,.014,0,.021,0,5.068,7.116,9.176,15.893,9.176,6.035,0,11.284-1.942,13.976-4.8A6.387,6.387,0,0,0,229.425,472h0c0-.007,0-.014,0-.021-.007-3.986-2.188-8.639-5.624-14.423v-4.633h0c3.436-5.785,5.617-10.437,5.625-14.423,0-.007,0-.014,0-.021,0-5.068-7.115-9.176-15.893-9.176-6.034,0-11.284,1.942-13.975,4.8a6.384,6.384,0,0,0-1.919,4.374h0c0,.007,0,.014,0,.021.007,3.986,2.188,8.639,5.624,14.423h.011Z" transform="translate(-174.115 -429.306)" fill="#b8aca2" opacity="0.364"/>
            <path id="Caminho_7624" data-name="Caminho 7624" d="M201.053,457.518c0,.014,0,.028,0,.041h-.007c-3.436,5.785-5.617,10.437-5.625,14.423,0,.007,0,.014,0,.021,0,5.068,7.116,9.176,15.893,9.176,6.035,0,11.284-1.942,13.975-4.8A6.385,6.385,0,0,0,227.2,472h0c0-.007,0-.014,0-.021-.007-3.986-2.188-8.639-5.624-14.423v-4.633h0c3.436-5.785,5.617-10.437,5.625-14.423,0-.007,0-.014,0-.021,0-5.068-7.115-9.176-15.893-9.176-6.034,0-11.284,1.942-13.975,4.8a6.383,6.383,0,0,0-1.918,4.374h0c0,.007,0,.014,0,.021.007,3.986,2.188,8.639,5.624,14.423h.011Z" transform="translate(-173.012 -429.306)" fill="#b3a59b" opacity="0.394"/>
            <path id="Caminho_7625" data-name="Caminho 7625" d="M198.83,457.518c0,.014,0,.028,0,.041h-.007c-3.436,5.785-5.617,10.437-5.625,14.423,0,.007,0,.014,0,.021,0,5.068,7.116,9.176,15.893,9.176,6.035,0,11.284-1.942,13.975-4.8A6.385,6.385,0,0,0,224.979,472h0c0-.007,0-.014,0-.021-.007-3.986-2.188-8.639-5.624-14.423v-4.633h0c3.436-5.785,5.617-10.437,5.625-14.423,0-.007,0-.014,0-.021,0-5.068-7.115-9.176-15.893-9.176-6.034,0-11.284,1.942-13.975,4.8a6.384,6.384,0,0,0-1.918,4.374h0c0,.007,0,.014,0,.021.007,3.986,2.188,8.639,5.624,14.423h.011Z" transform="translate(-171.91 -429.306)" fill="#ad9e93" opacity="0.424"/>
            <path id="Caminho_7626" data-name="Caminho 7626" d="M196.607,457.518c0,.014,0,.028,0,.041H196.6c-3.436,5.785-5.617,10.437-5.625,14.423,0,.007,0,.014,0,.021,0,5.068,7.116,9.176,15.893,9.176,6.035,0,11.284-1.942,13.975-4.8A6.385,6.385,0,0,0,222.756,472h0c0-.007,0-.014,0-.021-.007-3.986-2.188-8.639-5.624-14.423v-4.633h0c3.436-5.785,5.617-10.437,5.625-14.423,0-.007,0-.014,0-.021,0-5.068-7.115-9.176-15.893-9.176-6.034,0-11.284,1.942-13.975,4.8a6.384,6.384,0,0,0-1.918,4.374h0c0,.007,0,.014,0,.021.007,3.986,2.188,8.639,5.624,14.423h.011Z" transform="translate(-170.807 -429.306)" fill="#a7978b" opacity="0.455"/>
            <path id="Caminho_7627" data-name="Caminho 7627" d="M194.384,457.518c0,.014,0,.028,0,.041h-.007c-3.436,5.785-5.617,10.437-5.625,14.423,0,.007,0,.014,0,.021,0,5.068,7.116,9.176,15.893,9.176,6.035,0,11.284-1.942,13.975-4.8A6.385,6.385,0,0,0,220.533,472h0c0-.007,0-.014,0-.021-.007-3.986-2.188-8.639-5.624-14.423v-4.633h0c3.436-5.785,5.617-10.437,5.625-14.423,0-.007,0-.014,0-.021,0-5.068-7.115-9.176-15.893-9.176-6.034,0-11.284,1.942-13.975,4.8a6.383,6.383,0,0,0-1.918,4.374h0c0,.007,0,.014,0,.021.007,3.986,2.188,8.639,5.624,14.423h.011Z" transform="translate(-169.704 -429.306)" fill="#a19083" opacity="0.485"/>
            <path id="Caminho_7628" data-name="Caminho 7628" d="M192.161,457.518c0,.014,0,.028,0,.041h-.007c-3.436,5.785-5.617,10.437-5.625,14.423,0,.007,0,.014,0,.021,0,5.068,7.115,9.176,15.893,9.176,6.035,0,11.284-1.942,13.975-4.8A6.385,6.385,0,0,0,218.31,472h0c0-.007,0-.014,0-.021-.007-3.986-2.188-8.639-5.624-14.423v-4.633h0c3.436-5.785,5.617-10.437,5.625-14.423,0-.007,0-.014,0-.021,0-5.068-7.116-9.176-15.893-9.176-6.035,0-11.284,1.942-13.975,4.8a6.384,6.384,0,0,0-1.918,4.374h0c0,.007,0,.014,0,.021.008,3.986,2.188,8.639,5.625,14.423h.011Z" transform="translate(-168.601 -429.306)" fill="#9b897c" opacity="0.515"/>
            <path id="Caminho_7629" data-name="Caminho 7629" d="M189.938,457.518c0,.014,0,.028,0,.041h-.007c-3.436,5.785-5.617,10.437-5.625,14.423,0,.007,0,.014,0,.021,0,5.068,7.115,9.176,15.893,9.176,6.035,0,11.284-1.942,13.975-4.8A6.385,6.385,0,0,0,216.087,472h0c0-.007,0-.014,0-.021-.007-3.986-2.188-8.639-5.624-14.423v-4.633h0c3.436-5.785,5.617-10.437,5.625-14.423,0-.007,0-.014,0-.021,0-5.068-7.116-9.176-15.893-9.176-6.035,0-11.284,1.942-13.975,4.8a6.383,6.383,0,0,0-1.918,4.374h0c0,.007,0,.014,0,.021.008,3.986,2.188,8.639,5.625,14.423h.011Z" transform="translate(-167.498 -429.306)" fill="#958274" opacity="0.545"/>
            <path id="Caminho_7630" data-name="Caminho 7630" d="M187.715,457.518c0,.014,0,.028,0,.041H187.7c-3.436,5.785-5.617,10.437-5.625,14.423,0,.007,0,.014,0,.021,0,5.068,7.115,9.176,15.893,9.176,6.034,0,11.284-1.942,13.975-4.8A6.385,6.385,0,0,0,213.864,472h0c0-.007,0-.014,0-.021-.007-3.986-2.188-8.639-5.624-14.423v-4.633h0c3.436-5.785,5.617-10.437,5.625-14.423,0-.007,0-.014,0-.021,0-5.068-7.116-9.176-15.893-9.176-6.035,0-11.284,1.942-13.975,4.8a6.383,6.383,0,0,0-1.918,4.374h0c0,.007,0,.014,0,.021.008,3.986,2.188,8.639,5.625,14.423h.011Z" transform="translate(-166.395 -429.306)" fill="#8f7b6c" opacity="0.576"/>
            <path id="Caminho_7631" data-name="Caminho 7631" d="M185.492,457.518c0,.014,0,.028,0,.041h-.007c-3.436,5.785-5.617,10.437-5.625,14.423,0,.007,0,.014,0,.021,0,5.068,7.115,9.176,15.893,9.176,6.034,0,11.284-1.942,13.975-4.8A6.385,6.385,0,0,0,211.641,472h0c0-.007,0-.014,0-.021-.007-3.986-2.188-8.639-5.624-14.423v-4.633h0c3.436-5.785,5.617-10.437,5.625-14.423,0-.007,0-.014,0-.021,0-5.068-7.116-9.176-15.893-9.176-6.035,0-11.284,1.942-13.975,4.8a6.383,6.383,0,0,0-1.918,4.374h0c0,.007,0,.014,0,.021.008,3.986,2.188,8.639,5.625,14.423h.011Z" transform="translate(-165.292 -429.306)" fill="#897464" opacity="0.606"/>
            <path id="Caminho_7632" data-name="Caminho 7632" d="M183.268,457.518c0,.014,0,.028,0,.041h-.007c-3.436,5.785-5.617,10.437-5.625,14.423,0,.007,0,.014,0,.021,0,5.068,7.116,9.176,15.893,9.176,6.035,0,11.284-1.942,13.975-4.8A6.386,6.386,0,0,0,209.418,472h0c0-.007,0-.014,0-.021-.007-3.986-2.188-8.639-5.624-14.423v-4.633h0c3.436-5.785,5.617-10.437,5.625-14.423,0-.007,0-.014,0-.021,0-5.068-7.116-9.176-15.893-9.176-6.034,0-11.284,1.942-13.975,4.8a6.384,6.384,0,0,0-1.918,4.374h0c0,.007,0,.014,0,.021.007,3.986,2.188,8.639,5.624,14.423h.011Z" transform="translate(-164.189 -429.306)" fill="#846d5d" opacity="0.636"/>
            <path id="Caminho_7633" data-name="Caminho 7633" d="M181.045,457.518c0,.014,0,.028,0,.041h-.007c-3.436,5.785-5.617,10.437-5.625,14.423,0,.007,0,.014,0,.021,0,5.068,7.116,9.176,15.893,9.176,6.035,0,11.284-1.942,13.975-4.8A6.385,6.385,0,0,0,207.194,472h0c0-.007,0-.014,0-.021-.007-3.986-2.188-8.639-5.624-14.423v-4.633h0c3.436-5.785,5.617-10.437,5.625-14.423,0-.007,0-.014,0-.021,0-5.068-7.115-9.176-15.893-9.176-6.034,0-11.284,1.942-13.975,4.8a6.383,6.383,0,0,0-1.918,4.374h0c0,.007,0,.014,0,.021.007,3.986,2.188,8.639,5.624,14.423h.011Z" transform="translate(-163.086 -429.306)" fill="#7e6655" opacity="0.667"/>
            <path id="Caminho_7634" data-name="Caminho 7634" d="M178.822,457.518c0,.014,0,.028,0,.041h-.007c-3.436,5.785-5.617,10.437-5.625,14.423,0,.007,0,.014,0,.021,0,5.068,7.115,9.176,15.893,9.176,6.034,0,11.284-1.942,13.975-4.8A6.385,6.385,0,0,0,204.971,472h0c0-.007,0-.014,0-.021-.007-3.986-2.188-8.639-5.624-14.423v-4.633h0c3.436-5.785,5.617-10.437,5.625-14.423,0-.007,0-.014,0-.021,0-5.068-7.116-9.176-15.893-9.176-6.034,0-11.284,1.942-13.975,4.8a6.383,6.383,0,0,0-1.918,4.374h0c0,.007,0,.014,0,.021.008,3.986,2.189,8.639,5.625,14.423h.011Z" transform="translate(-161.983 -429.306)" fill="#785f4d" opacity="0.697"/>
            <path id="Caminho_7635" data-name="Caminho 7635" d="M176.6,457.518c0,.014,0,.028,0,.041h-.007c-3.436,5.785-5.617,10.437-5.625,14.423,0,.007,0,.014,0,.021,0,5.068,7.115,9.176,15.893,9.176,6.034,0,11.284-1.942,13.975-4.8A6.385,6.385,0,0,0,202.748,472h0c0-.007,0-.014,0-.021-.007-3.986-2.188-8.639-5.624-14.423v-4.633h0c3.436-5.785,5.617-10.437,5.625-14.423,0-.007,0-.014,0-.021,0-5.068-7.116-9.176-15.893-9.176-6.035,0-11.284,1.942-13.975,4.8a6.383,6.383,0,0,0-1.918,4.374h0c0,.007,0,.014,0,.021.008,3.986,2.188,8.639,5.625,14.423h.011Z" transform="translate(-160.88 -429.306)" fill="#725846" opacity="0.727"/>
            <path id="Caminho_7636" data-name="Caminho 7636" d="M174.376,457.518c0,.014,0,.028,0,.041h-.007c-3.436,5.785-5.617,10.437-5.625,14.423,0,.007,0,.014,0,.021,0,5.068,7.115,9.176,15.893,9.176,6.034,0,11.284-1.942,13.975-4.8A6.385,6.385,0,0,0,200.525,472h0c0-.007,0-.014,0-.021-.007-3.986-2.188-8.639-5.624-14.423v-4.633h0c3.436-5.785,5.617-10.437,5.625-14.423,0-.007,0-.014,0-.021,0-5.068-7.116-9.176-15.893-9.176-6.035,0-11.284,1.942-13.975,4.8a6.383,6.383,0,0,0-1.918,4.374h0c0,.007,0,.014,0,.021.008,3.986,2.188,8.639,5.625,14.423h.011Z" transform="translate(-159.777 -429.306)" fill="#6c523e" opacity="0.758"/>
            <path id="Caminho_7637" data-name="Caminho 7637" d="M172.153,457.518c0,.014,0,.028,0,.041h-.007c-3.436,5.785-5.617,10.437-5.625,14.423,0,.007,0,.014,0,.021,0,5.068,7.115,9.176,15.893,9.176,6.034,0,11.284-1.942,13.975-4.8A6.385,6.385,0,0,0,198.3,472h0c0-.007,0-.014,0-.021-.007-3.986-2.188-8.639-5.624-14.423v-4.633h0c3.436-5.785,5.617-10.437,5.625-14.423,0-.007,0-.014,0-.021,0-5.068-7.116-9.176-15.893-9.176-6.035,0-11.284,1.942-13.975,4.8a6.383,6.383,0,0,0-1.918,4.374h0c0,.007,0,.014,0,.021.008,3.986,2.188,8.639,5.625,14.423h.011Z" transform="translate(-158.675 -429.306)" fill="#664b36" opacity="0.788"/>
            <path id="Caminho_7638" data-name="Caminho 7638" d="M169.93,457.518c0,.014,0,.028,0,.041h-.007c-3.436,5.785-5.617,10.437-5.625,14.423,0,.007,0,.014,0,.021,0,5.068,7.115,9.176,15.893,9.176,6.034,0,11.284-1.942,13.975-4.8A6.385,6.385,0,0,0,196.079,472h0c0-.007,0-.014,0-.021-.007-3.986-2.188-8.639-5.624-14.423v-4.633h0c3.436-5.785,5.617-10.437,5.625-14.423,0-.007,0-.014,0-.021,0-5.068-7.116-9.176-15.893-9.176-6.035,0-11.284,1.942-13.975,4.8a6.383,6.383,0,0,0-1.918,4.374h0c0,.007,0,.014,0,.021.008,3.986,2.188,8.639,5.625,14.423h.011Z" transform="translate(-157.572 -429.306)" fill="#60442e" opacity="0.818"/>
            <path id="Caminho_7639" data-name="Caminho 7639" d="M167.707,457.518c0,.014,0,.028,0,.041H167.7c-3.436,5.785-5.617,10.437-5.625,14.423,0,.007,0,.014,0,.021,0,5.068,7.115,9.176,15.893,9.176,6.034,0,11.284-1.942,13.975-4.8A6.385,6.385,0,0,0,193.856,472h0c0-.007,0-.014,0-.021-.007-3.986-2.188-8.639-5.624-14.423v-4.633h0c3.436-5.785,5.617-10.437,5.625-14.423,0-.007,0-.014,0-.021,0-5.068-7.116-9.176-15.893-9.176-6.035,0-11.284,1.942-13.975,4.8a6.384,6.384,0,0,0-1.918,4.374h0c0,.007,0,.014,0,.021.008,3.986,2.188,8.639,5.625,14.423h.011Z" transform="translate(-156.469 -429.306)" fill="#5a3d27" opacity="0.848"/>
            <path id="Caminho_7640" data-name="Caminho 7640" d="M165.483,457.518c0,.014,0,.028,0,.041h-.006c-3.436,5.785-5.617,10.437-5.625,14.423,0,.007,0,.014,0,.021,0,5.068,7.116,9.176,15.893,9.176,6.035,0,11.284-1.942,13.975-4.8A6.385,6.385,0,0,0,191.632,472h0c0-.007,0-.014,0-.021-.007-3.986-2.188-8.639-5.624-14.423v-4.633h0c3.436-5.785,5.617-10.437,5.625-14.423,0-.007,0-.014,0-.021,0-5.068-7.115-9.176-15.892-9.176-6.035,0-11.284,1.942-13.976,4.8a6.384,6.384,0,0,0-1.918,4.374h0c0,.007,0,.014,0,.021.007,3.986,2.188,8.639,5.624,14.423h.011Z" transform="translate(-155.366 -429.306)" fill="#55361f" opacity="0.879"/>
            <path id="Caminho_7641" data-name="Caminho 7641" d="M163.26,457.518c0,.014,0,.028,0,.041h-.007c-3.436,5.785-5.617,10.437-5.625,14.423,0,.007,0,.014,0,.021,0,5.068,7.115,9.176,15.893,9.176,6.034,0,11.284-1.942,13.975-4.8A6.385,6.385,0,0,0,189.409,472h0c0-.007,0-.014,0-.021-.007-3.986-2.188-8.639-5.624-14.423v-4.633h0c3.436-5.785,5.617-10.437,5.625-14.423,0-.007,0-.014,0-.021,0-5.068-7.116-9.176-15.893-9.176-6.035,0-11.284,1.942-13.975,4.8a6.383,6.383,0,0,0-1.918,4.374h0c0,.007,0,.014,0,.021.008,3.986,2.188,8.639,5.625,14.423h.011Z" transform="translate(-154.263 -429.306)" fill="#4f2f17" opacity="0.909"/>
            <path id="Caminho_7642" data-name="Caminho 7642" d="M161.037,457.518c0,.014,0,.028,0,.041h-.007c-3.436,5.785-5.617,10.437-5.625,14.423,0,.007,0,.014,0,.021,0,5.068,7.115,9.176,15.893,9.176,6.034,0,11.284-1.942,13.975-4.8A6.385,6.385,0,0,0,187.186,472h0c0-.007,0-.014,0-.021-.007-3.986-2.188-8.639-5.624-14.423v-4.633h0c3.436-5.785,5.617-10.437,5.625-14.423,0-.007,0-.014,0-.021,0-5.068-7.116-9.176-15.893-9.176-6.035,0-11.284,1.942-13.975,4.8a6.384,6.384,0,0,0-1.918,4.374h0c0,.007,0,.014,0,.021.008,3.986,2.188,8.639,5.625,14.423h.011Z" transform="translate(-153.16 -429.306)" fill="#49280f" opacity="0.939"/>
            <path id="Caminho_7643" data-name="Caminho 7643" d="M158.814,457.518c0,.014,0,.028,0,.041H158.8c-3.436,5.785-5.617,10.437-5.625,14.423,0,.007,0,.014,0,.021,0,5.068,7.115,9.176,15.893,9.176,6.034,0,11.284-1.942,13.975-4.8A6.385,6.385,0,0,0,184.963,472h0c0-.007,0-.014,0-.021-.007-3.986-2.188-8.639-5.624-14.423v-4.633h0c3.436-5.785,5.617-10.437,5.625-14.423,0-.007,0-.014,0-.021,0-5.068-7.116-9.176-15.893-9.176-6.035,0-11.284,1.942-13.975,4.8a6.383,6.383,0,0,0-1.918,4.374h0c0,.007,0,.014,0,.021.008,3.986,2.188,8.639,5.625,14.423h.011Z" transform="translate(-152.057 -429.306)" fill="#432108" opacity="0.97"/>
            <path id="Caminho_7644" data-name="Caminho 7644" d="M156.591,457.518c0,.014,0,.028,0,.041h-.007c-3.436,5.785-5.617,10.437-5.625,14.423,0,.007,0,.014,0,.021,0,5.068,7.115,9.176,15.893,9.176,6.034,0,11.284-1.942,13.975-4.8A6.385,6.385,0,0,0,182.74,472h0c0-.007,0-.014,0-.021-.007-3.986-2.188-8.639-5.624-14.423v-4.633h0c3.436-5.785,5.617-10.437,5.625-14.423,0-.007,0-.014,0-.021,0-5.068-7.116-9.176-15.893-9.176-6.035,0-11.284,1.942-13.975,4.8a6.384,6.384,0,0,0-1.918,4.374h0c0,.007,0,.014,0,.021.008,3.986,2.188,8.639,5.625,14.423h.011Z" transform="translate(-150.954 -429.306)" fill="#3d1a00"/>
          </g>
        </g>
      </g>
      <g id="Grupo_9868" data-name="Grupo 9868" transform="translate(14.516)">
        <g id="Grupo_9868-2" data-name="Grupo 9868">
          <path id="Caminho_7646" data-name="Caminho 7646" d="M3005.969,1235a17.226,17.226,0,0,1,0,6.708,16.538,16.538,0,0,1-5.81,3.354v-6.708l5.81-3.354Z" transform="translate(-2974.743 -1211.94)" fill="#4ec4b0"/>
          <path id="Caminho_7647" data-name="Caminho 7647" d="M3060.78,1300.877l4.358-2.516v-5.031l-4.358,7.547Z" transform="translate(-3033.185 -1268.174)" fill="#8fffe9"/>
          <path id="Caminho_7648" data-name="Caminho 7648" d="M3002.339,1282.089l.726-.419-2.9,5.031v-.839l2.179-3.774Z" transform="translate(-2974.743 -1256.933)" fill="#8fffe9"/>
          <path id="Caminho_7649" data-name="Caminho 7649" d="M3005.969,1419.869c.3-.175.536,0,.726.419a12.44,12.44,0,0,1-5.81,3.354l-.726-.419,5.81-3.354Z" transform="translate(-2974.743 -1390.102)" fill="#e6e6e6"/>
          <path id="Caminho_7650" data-name="Caminho 7650" d="M3162.546,1235.419a10.407,10.407,0,0,1,0,6.708l-.726-.419V1235l.726.419Z" transform="translate(-3130.594 -1211.94)" fill="#999"/>
          <path id="Caminho_7651" data-name="Caminho 7651" d="M3005.969,1585a17.226,17.226,0,0,1,0,6.708,16.544,16.544,0,0,1-5.81,3.354v-6.708l5.81-3.354Z" transform="translate(-2974.743 -1549.363)" fill="#4ec4b0"/>
          <path id="Caminho_7652" data-name="Caminho 7652" d="M3060.78,1650.887l4.358-2.516v-5.031l-4.358,7.547Z" transform="translate(-3033.185 -1605.606)" fill="#8fffe9"/>
          <path id="Caminho_7653" data-name="Caminho 7653" d="M3002.339,1632.09l.726-.419-2.9,5.031v-.838l2.179-3.773Z" transform="translate(-2974.743 -1594.356)" fill="#8fffe9"/>
          <path id="Caminho_7654" data-name="Caminho 7654" d="M3005.969,1769.87c.3-.175.536,0,.726.419a12.44,12.44,0,0,1-5.81,3.354l-.726-.419,5.81-3.354Z" transform="translate(-2974.743 -1727.524)" fill="#e6e6e6"/>
          <path id="Caminho_7655" data-name="Caminho 7655" d="M3162.536,1585.419a10.405,10.405,0,0,1,0,6.708l-.726-.419V1585l.726.419Z" transform="translate(-3130.584 -1549.363)" fill="#999"/>
          <path id="Caminho_7656" data-name="Caminho 7656" d="M3005.969,1935a17.224,17.224,0,0,1,0,6.708,16.534,16.534,0,0,1-5.81,3.354v-6.708l5.81-3.354Z" transform="translate(-2974.743 -1886.785)" fill="#4ec4b0"/>
          <path id="Caminho_7657" data-name="Caminho 7657" d="M3060.78,2000.886l4.358-2.516v-5.031l-4.358,7.547Z" transform="translate(-3033.185 -1943.028)" fill="#8fffe9"/>
          <path id="Caminho_7658" data-name="Caminho 7658" d="M3002.339,1982.089l.726-.419-2.9,5.031v-.838l2.179-3.774Z" transform="translate(-2974.743 -1931.778)" fill="#8fffe9"/>
          <path id="Caminho_7659" data-name="Caminho 7659" d="M3005.969,2119.869c.3-.175.536,0,.726.419a12.443,12.443,0,0,1-5.81,3.355l-.726-.419,5.81-3.354Z" transform="translate(-2974.743 -2064.946)" fill="#e6e6e6"/>
          <path id="Caminho_7660" data-name="Caminho 7660" d="M3162.536,1935.419a10.405,10.405,0,0,1,0,6.708l-.726-.419V1935l.726.419Z" transform="translate(-3130.584 -1886.785)" fill="#999"/>
          <path id="Caminho_7661" data-name="Caminho 7661" d="M2441.875,2006.01a9.789,9.789,0,0,1,0,5.834c-.15.486-.389.636-.726.419a8.862,8.862,0,0,1,0-5.87l.726-.383Z" transform="translate(-2435.341 -1955.243)" fill="#ececec"/>
          <path id="Caminho_7662" data-name="Caminho 7662" d="M2443.08,2168.33v3.354l-.726.419a3.318,3.318,0,0,1,0-3.354l.726-.419Z" transform="translate(-2436.544 -2111.729)" fill="#e85d5d"/>
          <path id="Caminho_7663" data-name="Caminho 7663" d="M2480.58,2008.354v9.224l-5.81-3.354V2005l5.81,3.354Z" transform="translate(-2468.234 -1954.269)" fill="#534841"/>
          <path id="Caminho_7664" data-name="Caminho 7664" d="M2495.427,2158.965a.553.553,0,0,0-.192-.2.19.19,0,0,0-.192-.018l-.364.209.385.666.363-.209a.19.19,0,0,0,.081-.176.55.55,0,0,0-.081-.268Z" transform="translate(-2487.428 -2102.469)" fill="#ffd96e"/>
          <path id="Caminho_7665" data-name="Caminho 7665" d="M2492.723,2164.591a.167.167,0,0,0-.273.158.558.558,0,0,0,.08.268.546.546,0,0,0,.193.2.166.166,0,0,0,.272-.157.55.55,0,0,0-.08-.268.565.565,0,0,0-.192-.2Z" transform="translate(-2485.279 -2108.09)" fill="#b18443"/>
          <path id="Caminho_7666" data-name="Caminho 7666" d="M2546.729,1235a17.221,17.221,0,0,0,0,6.708,16.535,16.535,0,0,0,5.809,3.354v-6.708l-5.809-3.354Z" transform="translate(-2537.289 -1211.94)" fill="#427e74"/>
          <path id="Caminho_7667" data-name="Caminho 7667" d="M2539.747,1300.887l-4.357-2.516v-5.031l4.357,7.547Z" transform="translate(-2526.676 -1268.184)" fill="#4ec4b0"/>
          <path id="Caminho_7668" data-name="Caminho 7668" d="M2637.156,1282.09l-.726-.419,2.9,5.031v-.839l-2.178-3.773Z" transform="translate(-2624.084 -1256.933)" fill="#4ec4b0"/>
          <path id="Caminho_7669" data-name="Caminho 7669" d="M2536.116,1419.869c-.3-.175-.536,0-.727.419a12.445,12.445,0,0,0,5.81,3.354l.726-.419-5.809-3.354Z" transform="translate(-2526.676 -1390.102)" fill="#d9d9d9"/>
          <path id="Caminho_7670" data-name="Caminho 7670" d="M2520.493,1235.42a10.411,10.411,0,0,0,0,6.708l.727-.419V1235l-.727.42Z" transform="translate(-2511.779 -1211.94)" fill="#ececec"/>
          <path id="Caminho_7671" data-name="Caminho 7671" d="M2546.729,1585a17.221,17.221,0,0,0,0,6.708,16.541,16.541,0,0,0,5.809,3.354v-6.708l-5.809-3.354Z" transform="translate(-2537.289 -1549.363)" fill="#427e74"/>
          <path id="Caminho_7672" data-name="Caminho 7672" d="M2539.747,1650.887l-4.357-2.516v-5.031l4.357,7.547Z" transform="translate(-2526.676 -1605.606)" fill="#4ec4b0"/>
          <path id="Caminho_7673" data-name="Caminho 7673" d="M2637.156,1632.09l-.726-.419,2.9,5.031v-.838l-2.178-3.773Z" transform="translate(-2624.084 -1594.356)" fill="#4ec4b0"/>
          <path id="Caminho_7674" data-name="Caminho 7674" d="M2536.116,1769.87c-.3-.175-.536,0-.727.419a12.439,12.439,0,0,0,5.81,3.354l.726-.419-5.809-3.354Z" transform="translate(-2526.676 -1727.524)" fill="#d9d9d9"/>
          <path id="Caminho_7675" data-name="Caminho 7675" d="M2520.493,1585.419a10.41,10.41,0,0,0,0,6.708l.727-.419V1585l-.727.419Z" transform="translate(-2511.779 -1549.363)" fill="#ececec"/>
          <path id="Caminho_7676" data-name="Caminho 7676" d="M2812.53,981.763a39.027,39.027,0,0,1,8.714-15.093c3.449.047,6.326,1.806,8.715,5.031V1008.6c-5.721,5.281-11.53,8.665-17.428,10.062-2.229-7.912-2.36-29.159,0-36.895Zm5.81,23.478,5.81-3.354v6.708l-5.81,3.354v-6.708Zm0-12.578,5.81-3.354v6.708l-5.81,3.354v-6.708Zm0-12.578,5.81-3.354v6.708l-5.81,3.354v-6.708Z" transform="translate(-2792.197 -953.253)" fill="#fff" fill-rule="evenodd"/>
          <path id="Caminho_7677" data-name="Caminho 7677" d="M2856.352,2133.33v3.354l-17.428,10.063a2.274,2.274,0,0,1,0-3.354l17.428-10.062Z" transform="translate(-2818.59 -2077.987)" fill="#e85d5d"/>
          <path id="Caminho_7678" data-name="Caminho 7678" d="M2382.445,1148.6c1.88,2.657,4.826,4.294,8.713,5.032v-36.9l-17.428-10.062v36.9c.536,1.511,1.5,2.085,2.905,1.677v-5.869l5.81,3.354v5.869Zm2.9-20.963-5.81-3.354v6.708l5.81,3.354v-6.708Zm0-12.578-5.81-3.354v6.708l5.81,3.354v-6.709Z" transform="translate(-2370.825 -1088.222)" fill="#b3b3b3" fill-rule="evenodd"/>
          <path id="Caminho_7679" data-name="Caminho 7679" d="M2624.934,2278.361v3.354l-8.714-5.031v-3.354l8.714,5.031Z" transform="translate(-2604.602 -2212.956)" fill="#994242"/>
          <path id="Caminho_7680" data-name="Caminho 7680" d="M2376.635,2135.007v3.354l-2.905-1.677v-3.354l2.905,1.678Z" transform="translate(-2370.825 -2077.987)" fill="#994242"/>
          <path id="Caminho_7681" data-name="Caminho 7681" d="M2798.213,881.716l2.9-1.677L2789.5,873.33c-6.549,5.816-10.365,12.543-11.618,20.125l2.9-1.677,8.714-15.093,8.715,5.031Z" transform="translate(-2760.451 -863.268)" fill="#e85d5d"/>
          <path id="Caminho_7682" data-name="Caminho 7682" d="M2304.519,593.33l17.428,10.062-11.619,20.125L2292.9,613.455l11.619-20.125Z" transform="translate(-2292.9 -593.33)" fill="#994242"/>
          <path id="Caminho_7683" data-name="Caminho 7683" d="M2577.253,966.21a2.853,2.853,0,0,1,2.9,1.677L2578.7,970.4l-2.9-1.677,1.452-2.516Z" transform="translate(-2565.634 -952.793)" fill="#6d3232"/>
          <path id="Caminho_7684" data-name="Caminho 7684" d="M2682.5,780v3.354l-2.9,5.031a8.947,8.947,0,0,1,0-6.708,3.682,3.682,0,0,1,2.9-1.677Z" transform="translate(-2665.071 -773.292)" fill="#fff"/>
          <path id="Caminho_7685" data-name="Caminho 7685" d="M2619.125,781.677v6.708l-2.9-1.677V780a4.2,4.2,0,0,1,2.9,1.677Z" transform="translate(-2604.602 -773.292)" fill="#b3b3b3"/>
          <path id="Caminho_7686" data-name="Caminho 7686" d="M2619.125,733.33l2.9,1.677-2.9,1.677-2.9-1.677,2.9-1.677Z" transform="translate(-2604.602 -728.299)" fill="#e6e6e6"/>
          <path id="Caminho_7687" data-name="Caminho 7687" d="M2692.167,757.508l-1.452-.838a1.6,1.6,0,0,0,0,1.677l1.452-.839Z" transform="translate(-2676.192 -750.8)" fill="#b3b3b3"/>
          <path id="Caminho_7688" data-name="Caminho 7688" d="M2656.64,757.508l1.452-.838v1.677l-1.452-.838Z" transform="translate(-2643.568 -750.8)" fill="#fff"/>
        </g>
      </g>
      <g id="Grupo_10314" data-name="Grupo 10314" transform="translate(33.339 11.764)">
        <g id="Grupo_9868-3" data-name="Grupo 9868" transform="translate(0 0)">
          <path id="Caminho_7646-2" data-name="Caminho 7646" d="M3005.969,1235a17.226,17.226,0,0,1,0,6.708,16.538,16.538,0,0,1-5.81,3.354v-6.708l5.81-3.354Z" transform="translate(-2974.743 -1211.94)" fill="#4ec4b0"/>
          <path id="Caminho_7647-2" data-name="Caminho 7647" d="M3060.78,1300.877l4.358-2.516v-5.031l-4.358,7.547Z" transform="translate(-3033.185 -1268.174)" fill="#8fffe9"/>
          <path id="Caminho_7648-2" data-name="Caminho 7648" d="M3002.339,1282.089l.726-.419-2.9,5.031v-.839l2.179-3.774Z" transform="translate(-2974.743 -1256.933)" fill="#8fffe9"/>
          <path id="Caminho_7649-2" data-name="Caminho 7649" d="M3005.969,1419.869c.3-.175.536,0,.726.419a12.44,12.44,0,0,1-5.81,3.354l-.726-.419,5.81-3.354Z" transform="translate(-2974.743 -1390.102)" fill="#e6e6e6"/>
          <path id="Caminho_7650-2" data-name="Caminho 7650" d="M3162.546,1235.419a10.407,10.407,0,0,1,0,6.708l-.726-.419V1235l.726.419Z" transform="translate(-3130.594 -1211.94)" fill="#999"/>
          <path id="Caminho_7651-2" data-name="Caminho 7651" d="M3005.969,1585a17.226,17.226,0,0,1,0,6.708,16.544,16.544,0,0,1-5.81,3.354v-6.708l5.81-3.354Z" transform="translate(-2974.743 -1549.363)" fill="#4ec4b0"/>
          <path id="Caminho_7652-2" data-name="Caminho 7652" d="M3060.78,1650.887l4.358-2.516v-5.031l-4.358,7.547Z" transform="translate(-3033.185 -1605.606)" fill="#8fffe9"/>
          <path id="Caminho_7653-2" data-name="Caminho 7653" d="M3002.339,1632.09l.726-.419-2.9,5.031v-.838l2.179-3.773Z" transform="translate(-2974.743 -1594.356)" fill="#8fffe9"/>
          <path id="Caminho_7654-2" data-name="Caminho 7654" d="M3005.969,1769.87c.3-.175.536,0,.726.419a12.44,12.44,0,0,1-5.81,3.354l-.726-.419,5.81-3.354Z" transform="translate(-2974.743 -1727.524)" fill="#e6e6e6"/>
          <path id="Caminho_7655-2" data-name="Caminho 7655" d="M3162.536,1585.419a10.405,10.405,0,0,1,0,6.708l-.726-.419V1585l.726.419Z" transform="translate(-3130.584 -1549.363)" fill="#999"/>
          <path id="Caminho_7656-2" data-name="Caminho 7656" d="M3005.969,1935a17.224,17.224,0,0,1,0,6.708,16.534,16.534,0,0,1-5.81,3.354v-6.708l5.81-3.354Z" transform="translate(-2974.743 -1886.785)" fill="#4ec4b0"/>
          <path id="Caminho_7657-2" data-name="Caminho 7657" d="M3060.78,2000.886l4.358-2.516v-5.031l-4.358,7.547Z" transform="translate(-3033.185 -1943.028)" fill="#8fffe9"/>
          <path id="Caminho_7658-2" data-name="Caminho 7658" d="M3002.339,1982.089l.726-.419-2.9,5.031v-.838l2.179-3.774Z" transform="translate(-2974.743 -1931.778)" fill="#8fffe9"/>
          <path id="Caminho_7659-2" data-name="Caminho 7659" d="M3005.969,2119.869c.3-.175.536,0,.726.419a12.443,12.443,0,0,1-5.81,3.355l-.726-.419,5.81-3.354Z" transform="translate(-2974.743 -2064.946)" fill="#e6e6e6"/>
          <path id="Caminho_7660-2" data-name="Caminho 7660" d="M3162.536,1935.419a10.405,10.405,0,0,1,0,6.708l-.726-.419V1935l.726.419Z" transform="translate(-3130.584 -1886.785)" fill="#999"/>
          <path id="Caminho_7661-2" data-name="Caminho 7661" d="M2441.875,2006.01a9.789,9.789,0,0,1,0,5.834c-.15.486-.389.636-.726.419a8.862,8.862,0,0,1,0-5.87l.726-.383Z" transform="translate(-2435.341 -1955.243)" fill="#ececec"/>
          <path id="Caminho_7662-2" data-name="Caminho 7662" d="M2443.08,2168.33v3.354l-.726.419a3.318,3.318,0,0,1,0-3.354l.726-.419Z" transform="translate(-2436.544 -2111.729)" fill="#e85d5d"/>
          <path id="Caminho_7663-2" data-name="Caminho 7663" d="M2480.58,2008.354v9.224l-5.81-3.354V2005l5.81,3.354Z" transform="translate(-2468.234 -1954.269)" fill="#534841"/>
          <path id="Caminho_7664-2" data-name="Caminho 7664" d="M2495.427,2158.965a.553.553,0,0,0-.192-.2.19.19,0,0,0-.192-.018l-.364.209.385.666.363-.209a.19.19,0,0,0,.081-.176.55.55,0,0,0-.081-.268Z" transform="translate(-2487.428 -2102.469)" fill="#ffd96e"/>
          <path id="Caminho_7665-2" data-name="Caminho 7665" d="M2492.723,2164.591a.167.167,0,0,0-.273.158.558.558,0,0,0,.08.268.546.546,0,0,0,.193.2.166.166,0,0,0,.272-.157.55.55,0,0,0-.08-.268.565.565,0,0,0-.192-.2Z" transform="translate(-2485.279 -2108.09)" fill="#b18443"/>
          <path id="Caminho_7666-2" data-name="Caminho 7666" d="M2546.729,1235a17.221,17.221,0,0,0,0,6.708,16.535,16.535,0,0,0,5.809,3.354v-6.708l-5.809-3.354Z" transform="translate(-2537.289 -1211.94)" fill="#427e74"/>
          <path id="Caminho_7667-2" data-name="Caminho 7667" d="M2539.747,1300.887l-4.357-2.516v-5.031l4.357,7.547Z" transform="translate(-2526.676 -1268.184)" fill="#4ec4b0"/>
          <path id="Caminho_7668-2" data-name="Caminho 7668" d="M2637.156,1282.09l-.726-.419,2.9,5.031v-.839l-2.178-3.773Z" transform="translate(-2624.084 -1256.933)" fill="#4ec4b0"/>
          <path id="Caminho_7669-2" data-name="Caminho 7669" d="M2536.116,1419.869c-.3-.175-.536,0-.727.419a12.445,12.445,0,0,0,5.81,3.354l.726-.419-5.809-3.354Z" transform="translate(-2526.676 -1390.102)" fill="#d9d9d9"/>
          <path id="Caminho_7670-2" data-name="Caminho 7670" d="M2520.493,1235.42a10.411,10.411,0,0,0,0,6.708l.727-.419V1235l-.727.42Z" transform="translate(-2511.779 -1211.94)" fill="#ececec"/>
          <path id="Caminho_7671-2" data-name="Caminho 7671" d="M2546.729,1585a17.221,17.221,0,0,0,0,6.708,16.541,16.541,0,0,0,5.809,3.354v-6.708l-5.809-3.354Z" transform="translate(-2537.289 -1549.363)" fill="#427e74"/>
          <path id="Caminho_7672-2" data-name="Caminho 7672" d="M2539.747,1650.887l-4.357-2.516v-5.031l4.357,7.547Z" transform="translate(-2526.676 -1605.606)" fill="#4ec4b0"/>
          <path id="Caminho_7673-2" data-name="Caminho 7673" d="M2637.156,1632.09l-.726-.419,2.9,5.031v-.838l-2.178-3.773Z" transform="translate(-2624.084 -1594.356)" fill="#4ec4b0"/>
          <path id="Caminho_7674-2" data-name="Caminho 7674" d="M2536.116,1769.87c-.3-.175-.536,0-.727.419a12.439,12.439,0,0,0,5.81,3.354l.726-.419-5.809-3.354Z" transform="translate(-2526.676 -1727.524)" fill="#d9d9d9"/>
          <path id="Caminho_7675-2" data-name="Caminho 7675" d="M2520.493,1585.419a10.41,10.41,0,0,0,0,6.708l.727-.419V1585l-.727.419Z" transform="translate(-2511.779 -1549.363)" fill="#ececec"/>
          <path id="Caminho_7676-2" data-name="Caminho 7676" d="M2812.53,981.763a39.027,39.027,0,0,1,8.714-15.093c3.449.047,6.326,1.806,8.715,5.031V1008.6c-5.721,5.281-11.53,8.665-17.428,10.062-2.229-7.912-2.36-29.159,0-36.895Zm5.81,23.478,5.81-3.354v6.708l-5.81,3.354v-6.708Zm0-12.578,5.81-3.354v6.708l-5.81,3.354v-6.708Zm0-12.578,5.81-3.354v6.708l-5.81,3.354v-6.708Z" transform="translate(-2792.197 -953.253)" fill="#fff" fill-rule="evenodd"/>
          <path id="Caminho_7677-2" data-name="Caminho 7677" d="M2856.352,2133.33v3.354l-17.428,10.063a2.274,2.274,0,0,1,0-3.354l17.428-10.062Z" transform="translate(-2818.59 -2077.987)" fill="#e85d5d"/>
          <path id="Caminho_7678-2" data-name="Caminho 7678" d="M2382.445,1148.6c1.88,2.657,4.826,4.294,8.713,5.032v-36.9l-17.428-10.062v36.9c.536,1.511,1.5,2.085,2.905,1.677v-5.869l5.81,3.354v5.869Zm2.9-20.963-5.81-3.354v6.708l5.81,3.354v-6.708Zm0-12.578-5.81-3.354v6.708l5.81,3.354v-6.709Z" transform="translate(-2370.825 -1088.222)" fill="#b3b3b3" fill-rule="evenodd"/>
          <path id="Caminho_7679-2" data-name="Caminho 7679" d="M2624.934,2278.361v3.354l-8.714-5.031v-3.354l8.714,5.031Z" transform="translate(-2604.602 -2212.956)" fill="#994242"/>
          <path id="Caminho_7680-2" data-name="Caminho 7680" d="M2376.635,2135.007v3.354l-2.905-1.677v-3.354l2.905,1.678Z" transform="translate(-2370.825 -2077.987)" fill="#994242"/>
          <path id="Caminho_7681-2" data-name="Caminho 7681" d="M2798.213,881.716l2.9-1.677L2789.5,873.33c-6.549,5.816-10.365,12.543-11.618,20.125l2.9-1.677,8.714-15.093,8.715,5.031Z" transform="translate(-2760.451 -863.268)" fill="#e85d5d"/>
          <path id="Caminho_7682-2" data-name="Caminho 7682" d="M2304.519,593.33l17.428,10.062-11.619,20.125L2292.9,613.455l11.619-20.125Z" transform="translate(-2292.9 -593.33)" fill="#994242"/>
          <path id="Caminho_7683-2" data-name="Caminho 7683" d="M2577.253,966.21a2.853,2.853,0,0,1,2.9,1.677L2578.7,970.4l-2.9-1.677,1.452-2.516Z" transform="translate(-2565.634 -952.793)" fill="#6d3232"/>
          <path id="Caminho_7684-2" data-name="Caminho 7684" d="M2682.5,780v3.354l-2.9,5.031a8.947,8.947,0,0,1,0-6.708,3.682,3.682,0,0,1,2.9-1.677Z" transform="translate(-2665.071 -773.292)" fill="#fff"/>
          <path id="Caminho_7685-2" data-name="Caminho 7685" d="M2619.125,781.677v6.708l-2.9-1.677V780a4.2,4.2,0,0,1,2.9,1.677Z" transform="translate(-2604.602 -773.292)" fill="#b3b3b3"/>
          <path id="Caminho_7686-2" data-name="Caminho 7686" d="M2619.125,733.33l2.9,1.677-2.9,1.677-2.9-1.677,2.9-1.677Z" transform="translate(-2604.602 -728.299)" fill="#e6e6e6"/>
          <path id="Caminho_7687-2" data-name="Caminho 7687" d="M2692.167,757.508l-1.452-.838a1.6,1.6,0,0,0,0,1.677l1.452-.839Z" transform="translate(-2676.192 -750.8)" fill="#b3b3b3"/>
          <path id="Caminho_7688-2" data-name="Caminho 7688" d="M2656.64,757.508l1.452-.838v1.677l-1.452-.838Z" transform="translate(-2643.568 -750.8)" fill="#fff"/>
        </g>
      </g>
    </g>
  </g>
</svg>
