<svg xmlns="http://www.w3.org/2000/svg" width="670.197" height="357.03" viewBox="0 0 670.197 357.03">
  <g id="Grupo_12160" data-name="Grupo 12160" transform="translate(-30.154 -79.602)">
    <g id="Grupo_12136" data-name="Grupo 12136" transform="translate(73.373 79.602)">
      <path id="Caminho_9987" data-name="Caminho 9987" d="M151.639,166.911C162.2,154,171.817,143.14,180.567,133.99c9.175,7.295,18.255,14.7,27.535,21.882-2.588,2.69-4.946,5.16-6.985,7.174C155.89,207.883,142.8,177.709,151.639,166.911Z" transform="translate(134.816 -73.082)" fill="#f7a986"/>
      <path id="Caminho_9988" data-name="Caminho 9988" d="M160.118,142.67c3.121,2.415,6.252,4.807,9.435,7.147,5.666,4.177,12.277,9.681,19.371,13.358-1.723,1.795-3.323,3.439-4.754,4.861-45.227,44.839-58.31,14.661-49.481,3.867C143.861,160.69,152.321,151.013,160.118,142.67Z" transform="translate(186.012 -65.362)" fill="#f7a986"/>
      <path id="Caminho_9989" data-name="Caminho 9989" d="M290.852,148.371s-52.98-46.755-85.222-46.619c-13.854.053-44.5,13.05-101,82.138-9.165,11.211,6.424,43.878,53.379-2.677,12.381-12.269,33.267-42.183,49.283-41.365,13.114.669,56.27,52.47,56.27,52.47Z" transform="translate(140.723 -101.752)" fill="#ffb07e"/>
      <g id="Grupo_12135" data-name="Grupo 12135" transform="translate(0 65.855)">
        <path id="Caminho_9990" data-name="Caminho 9990" d="M481.63,338.07c5.509,0,9.979-4.2,9.979-9.386V146.351c0-5.184-4.47-9.388-9.979-9.388h-322.2c-5.511,0-9.979,4.2-9.979,9.388V328.684c0,5.182,4.468,9.386,9.979,9.386Z" transform="translate(-149.447 -136.292)" fill="#10182b"/>
        <path id="Caminho_9991" data-name="Caminho 9991" d="M165.876,207.135a11.525,11.525,0,1,0-11.523-11.527A11.526,11.526,0,0,0,165.876,207.135Z" transform="translate(155.494 -94.385)" fill="#95b43d"/>
        <path id="Caminho_9992" data-name="Caminho 9992" d="M451.311,339.053a6.285,6.285,0,0,0,6.462-6.093V142.7a6.288,6.288,0,0,0-6.462-6.1H177.792a6.29,6.29,0,0,0-6.462,6.1V332.96a6.29,6.29,0,0,0,6.462,6.1Z" transform="translate(-156.954 -136.608)" fill="#e9ffac"/>
        <g id="Grupo_12124" data-name="Grupo 12124" transform="translate(24.614 13.473)">
          <path id="Caminho_9993" data-name="Caminho 9993" d="M346.638,153.063a4.423,4.423,0,0,0,4.419-4.423h0a4.422,4.422,0,0,0-4.419-4.419h-62.4a4.422,4.422,0,0,0-4.421,4.419h0a4.422,4.422,0,0,0,4.421,4.423Z" transform="translate(-279.813 -143.31)" fill="#fff" style="mix-blend-mode: soft-light;isolation: isolate"/>
          <path id="Caminho_9994" data-name="Caminho 9994" d="M276.651,154.4a5.331,5.331,0,1,0-5.33-5.332A5.332,5.332,0,0,0,276.651,154.4Z" transform="translate(-194.694 -143.739)" fill="#fff" style="mix-blend-mode: soft-light;isolation: isolate"/>
        </g>
        <g id="Grupo_12134" data-name="Grupo 12134" transform="translate(80.919 14.312)">
          <rect id="Retângulo_17671" data-name="Retângulo 17671" width="49.098" height="46.715" transform="translate(57.436 50.927)" fill="#3c1a17"/>
          <path id="Caminho_9995" data-name="Caminho 9995" d="M292.152,293.874h-66.03c1.007-3.516,8.457-30.758,3.743-50.279-6.545-27.08-7.667-41.711.094-48.537,9.322-8.2,21.064-7.95,21.064-7.95l17.115-.07s8.485-1.052,20.084,6.8c8.145,5.519,12.345,16.46,4.113,47.7C287.364,260.4,291.345,288.642,292.152,293.874Z" transform="translate(-177.431 -106.113)" fill="#3f6d36"/>
          <path id="Caminho_9996" data-name="Caminho 9996" d="M228.487,292.941c1.007-3.516,8.457-30.758,3.743-50.279-6.545-27.08-7.667-41.711.094-48.537a31.318,31.318,0,0,1,10.669-6.086c.07.334.145.669.212,1,3.565,17.847,4.158,36.131,3.138,54.267-.257,4.574-.47,9.129-.567,13.713-.091,4.175-.735,8.46-1,12.649-1.238,19.7,16.739,18.578,24.584,18.283,8.385-.314,16.842.453,25.241.44a43.851,43.851,0,0,1,.066,4.546Z" transform="translate(-179.796 -105.18)" fill="#afb5dd" style="mix-blend-mode: multiply;isolation: isolate"/>
          <path id="Caminho_9997" data-name="Caminho 9997" d="M260.833,182.918c-1.434,3.006-1.761,11.109-1.761,11.109-.128,3.83-2.594,8.3-9.76,8.3-8.192,0-9.809-4.608-9.809-8.555,0-.4-.495-8.192-1.751-10.712C235.386,178.312,263.215,177.948,260.833,182.918Z" transform="translate(-166.299 -112.916)" fill="#f9b595"/>
          <path id="Caminho_9998" data-name="Caminho 9998" d="M241.936,179.9c1.145,2.809,1.6,9.991,1.6,10.372,0,3.952,1.619,8.555,9.809,8.555a10.887,10.887,0,0,0,6.341-1.712c-1.247,2.577-3.952,4.706-8.9,4.706-8.188,0-9.809-4.608-9.809-8.555,0-.4-.491-8.192-1.748-10.712C238.654,181.415,239.841,180.527,241.936,179.9Z" transform="translate(-167.796 -112.415)" fill="#f7e8e4" style="mix-blend-mode: multiply;isolation: isolate"/>
          <path id="Caminho_9999" data-name="Caminho 9999" d="M229.3,180.457c-.179,7.554,2.09,12.844,5.026,19.566,4.209,9.632,16.577,17.884,22.373,17.884s16.534-9.312,21.395-17.416a36.4,36.4,0,0,0,5.776-20.316c0-20.452-9.792-34-26.944-34S229.861,156.8,229.3,180.457Z" transform="translate(-173.481 -142.409)" fill="#f9b595"/>
          <path id="Caminho_10000" data-name="Caminho 10000" d="M235.543,178.2c.346-14.644,4.277-24.285,11.289-29.511-4.667,5.615-8.092,14.06-8.372,25.854-.179,7.555.151,10.654,2.874,17.467,5.33,13.325,19.553,20.085,25.347,20.085,3.051,0,7.468-2.577,11.68-6.2-5.135,5.371-11.442,9.755-15.417,9.755-5.8,0-18.168-8.251-22.375-17.884C237.631,191.046,235.364,185.756,235.543,178.2Z" transform="translate(-179.761 -140.173)" fill="#f7e8e4" style="mix-blend-mode: multiply;isolation: isolate"/>
          <path id="Caminho_10001" data-name="Caminho 10001" d="M228.115,164.594s.213-1.595,2.925-1.942c2.186-.278,3.7.363,3.716,3.578.034,5.611-3.064,9.212-3.977,9.212C226.13,175.442,228.115,164.594,228.115,164.594Z" transform="translate(-121.346 -127.811)" fill="#f9b595"/>
          <path id="Caminho_10002" data-name="Caminho 10002" d="M229.42,174.119c.914,0,4.011-3.6,3.973-9.212a5.694,5.694,0,0,0-.306-2.008,3.846,3.846,0,0,1,1.015,3.061c.03,5.611-3.068,9.212-3.977,9.212a2.556,2.556,0,0,1-2.4-1.734A2.306,2.306,0,0,0,229.42,174.119Z" transform="translate(-120.758 -127.54)" fill="#f7e8e4" style="mix-blend-mode: multiply;isolation: isolate"/>
          <g id="Grupo_12132" data-name="Grupo 12132" transform="translate(63.522 32.4)">
            <g id="Grupo_12126" data-name="Grupo 12126" transform="translate(15.672 12.401)" style="mix-blend-mode: multiply;isolation: isolate">
              <g id="Grupo_12125" data-name="Grupo 12125" transform="translate(0)">
                <path id="Caminho_10003" data-name="Caminho 10003" d="M245.8,177.791c.142,0,.293-.009.433-.017a.451.451,0,0,0,.408-.5.434.434,0,0,0-.493-.419c-.918.094-1.615-.176-1.691-.378-.038-.087.057-.4.814-.914,2.282-1.559,2.549-6.97,2.562-7.191a.466.466,0,0,0-.444-.48.447.447,0,0,0-.467.433c-.064,1.44-.578,5.409-2.158,6.484-1.009.671-1.4,1.34-1.169,1.974C243.849,177.5,244.826,177.791,245.8,177.791Z" transform="translate(-243.528 -167.896)" fill="#fad0c6"/>
              </g>
            </g>
            <g id="Grupo_12127" data-name="Grupo 12127" transform="translate(11.531 26.065)">
              <path id="Caminho_10004" data-name="Caminho 10004" d="M255.127,175.128a7.581,7.581,0,0,1-15.16,0Z" transform="translate(-239.958 -175.128)" fill="#fff"/>
              <path id="Caminho_10005" data-name="Caminho 10005" d="M243.226,175.128a7.611,7.611,0,0,0,7.48,6.5,7.4,7.4,0,0,0,3.055-.657,7.453,7.453,0,0,1-4.668,1.642,7.641,7.641,0,0,1-7.578-7.484Z" transform="translate(-241.514 -175.128)" fill="#dfdfdf" style="mix-blend-mode: multiply;isolation: isolate"/>
            </g>
            <path id="Caminho_10006" data-name="Caminho 10006" d="M239.533,166.23a4.769,4.769,0,0,0-3.82,1.857,3.936,3.936,0,0,1,3.769-3.361,4.1,4.1,0,0,1,3.847,3.386A5.106,5.106,0,0,0,239.533,166.23Z" transform="translate(-208.592 -158.314)" fill="#3f1b19"/>
            <path id="Caminho_10007" data-name="Caminho 10007" d="M251.971,166.23a4.755,4.755,0,0,0-3.818,1.857,3.932,3.932,0,0,1,3.767-3.361,4.09,4.09,0,0,1,3.845,3.386A5.1,5.1,0,0,0,251.971,166.23Z" transform="translate(-244.531 -158.314)" fill="#3f1b19"/>
            <g id="Grupo_12129" data-name="Grupo 12129" transform="translate(27.206)">
              <g id="Grupo_12128" data-name="Grupo 12128" transform="translate(0)">
                <path id="Caminho_10008" data-name="Caminho 10008" d="M242.773,164.143a.57.57,0,0,0,.4-.161.578.578,0,0,0,.021-.82,6.543,6.543,0,0,0-7.251-1.219.58.58,0,0,0,.469,1.062,5.344,5.344,0,0,1,5.942.956A.578.578,0,0,0,242.773,164.143Z" transform="translate(-235.593 -161.332)" fill="#3f1b19"/>
              </g>
            </g>
            <g id="Grupo_12131" data-name="Grupo 12131" transform="translate(3.054)">
              <g id="Grupo_12130" data-name="Grupo 12130" transform="translate(0)">
                <path id="Caminho_10009" data-name="Caminho 10009" d="M248.957,164.143a.587.587,0,0,0,.418-.18h0a5.3,5.3,0,0,1,5.944-.958.581.581,0,1,0,.47-1.062,6.547,6.547,0,0,0-7.253,1.219.58.58,0,0,0,.019.822A.6.6,0,0,0,248.957,164.143Z" transform="translate(-248.375 -161.332)" fill="#3f1b19"/>
              </g>
            </g>
            <path id="Caminho_10010" data-name="Caminho 10010" d="M233.756,172.223c0,1.785,2.515,3.233,5.613,3.233s5.609-1.447,5.609-3.233-2.511-3.229-5.609-3.229S233.756,170.437,233.756,172.223Z" transform="translate(-206.544 -154.519)" fill="#f3b0b5" style="mix-blend-mode: multiply;isolation: isolate"/>
            <path id="Caminho_10011" data-name="Caminho 10011" d="M248.16,172.223c0,1.785,2.509,3.233,5.609,3.233s5.611-1.447,5.611-3.233-2.509-3.229-5.611-3.229S248.16,170.437,248.16,172.223Z" transform="translate(-248.16 -154.519)" fill="#f3b0b5" style="mix-blend-mode: multiply;isolation: isolate"/>
          </g>
          <path id="Caminho_10012" data-name="Caminho 10012" d="M240.484,274.625H222.012c.8-7.144,5.32-49.013,3.125-65.99h14.8c-.115,2.125-.331,4.364-.654,6.735C239.286,215.37,235.655,249.376,240.484,274.625Z" transform="translate(-116.339 -86.865)" fill="#f9b595"/>
          <path id="Caminho_10013" data-name="Caminho 10013" d="M223.906,229.651c-.125-1.8-.293-3.44-.516-4.863a151.168,151.168,0,0,1-.841-35.421s20.435,6.618,16.972,40.331Z" transform="translate(-115.522 -104)" fill="#25572e"/>
          <g id="Grupo_12133" data-name="Grupo 12133" transform="translate(54.653 35.858)">
            <path id="Caminho_10014" data-name="Caminho 10014" d="M261.7,165.162s-.212-1.595-2.923-1.94c-2.188-.282-3.7.361-3.718,3.577-.038,5.611,3.063,9.212,3.975,9.212C263.681,176.011,261.7,165.162,261.7,165.162Z" transform="translate(-255.055 -163.163)" fill="#f9b595"/>
            <path id="Caminho_10015" data-name="Caminho 10015" d="M257.023,163.324a5.246,5.246,0,0,0-.433,2.314c-.036,5.613,3.063,9.212,3.973,9.212a2.377,2.377,0,0,0,1.126-.264,2.417,2.417,0,0,1-2.178,1.317c-.913,0-4.013-3.6-3.975-9.212C255.548,164.752,256.105,163.753,257.023,163.324Z" transform="translate(-255.536 -163.019)" fill="#f7e8e4" style="mix-blend-mode: multiply;isolation: isolate"/>
          </g>
          <path id="Caminho_10016" data-name="Caminho 10016" d="M282.385,200.2s.37-4.58,2.193-5.215c3.675-1.281,5.075-7.346,5.968-11.022.8-3.3-2.248-4.005-2.209-5.66.051-2.313.6-3.877,1.672-7.735.95-3.423,2.893-7.877.6-8.468-2.413-.627-3.824,5.351-5.071,9.56-.544,1.829-1.493,4.687-2.791,4.427-1.2-.24-.939-1.617-.907-5.736.045-4.9,1.12-12.74-1.513-12.753-2.755-.009-2.222,5.66-2.318,11.258-.057,3.193-.739,7.153-1.94,7.295-1.647.193-5.245-.433-6.106,2.165-.346,1.052-1.642,11.347,1.086,14.822.88,1.122-.614,5.405-.614,5.405Z" transform="translate(-256.99 -132.258)" fill="#f9b595"/>
          <path id="Caminho_10017" data-name="Caminho 10017" d="M294.215,195.789v21.963l-14.775,6.223L270.4,209.515Z" transform="translate(-261.495 -98.289)" fill="#f9b595"/>
          <path id="Caminho_10018" data-name="Caminho 10018" d="M292.226,239.947s-20.066,8.355-17.966-6.239c2.056-14.3,14.045-55.937,14.045-55.937l11.523,2.074-4.727,41.7Z" transform="translate(-274.106 -114.313)" fill="#f9b595"/>
          <path id="Caminho_10019" data-name="Caminho 10019" d="M257.608,201.863l25.287-13.5s-6.974,10.762-8.642,29.385l-16.732,8.916Z" transform="translate(-225.838 -104.894)" fill="#25572e"/>
          <path id="Caminho_10020" data-name="Caminho 10020" d="M283.762,155.551s12.727,5.876,10.663,25.672c-1.4,13.469-.459,20.866,1.54,26.513,1.547,4.349,3.556,21.7-3.363,30.862-7.31,9.679,4.009,24.5,4.009,24.5s-25.6-9.386-19.862-29.273c4.206-14.578.489-20.178,3.928-27.637,9.12-19.779-2.382-37.242-2.382-37.242s-7.087,5.33-31.074,1.118c0,0,4.857-2.547,3.3-4-1.022-.948-19.653,9.921-9.683,37.035,7.013,19.078,16.556,47.275-10.941,57.235,0,0,3.658-20.42.28-27.5-5.42-11.355-6.734-16.414-3.365-31.565,4.013-18.064,4.325-20.036,4.489-29.878.282-16.834,13.325-26.983,29.457-27.216C280.257,143.907,283.762,155.551,283.762,155.551Z" transform="translate(-178.913 -144.183)" fill="#512221"/>
        </g>
        <path id="Caminho_10021" data-name="Caminho 10021" d="M149.447,328.684V312.748s281.816-1.243,291.67-1.542c5.649-.17,19.587,2.775,25.661-9.447,5.23-10.514,1.925-164.8,1.925-164.8H481.63c5.509,0,9.979,4.2,9.979,9.388V328.684c0,5.182-4.47,9.386-9.979,9.386h-322.2C153.915,338.07,149.447,333.867,149.447,328.684Z" transform="translate(-149.447 -136.292)" fill="#d4e3ec" style="mix-blend-mode: multiply;isolation: isolate"/>
      </g>
      <path id="Caminho_10022" data-name="Caminho 10022" d="M16.043,138.957c30.428-9.275,55.138-14.4,97.448-13.337,14.875.374,42.047,20.543,62.642,37.788l25.12-40.061c72.5,47.469,144.962,110.227,202.226,164.32V439.562c-29.492-28.4-59.846-56.27-86.4-61.6-20.671-4.147-94.616,19.889-150.685-6.318-33.2-15.517-139.555.21-140.895-28.149-1.453-30.768,91.84-7.616,117.994-25.487,57.415-39.236,29.883-90.716,16.1-110.267A284.146,284.146,0,0,1,107.335,160.4s-30.847-6.337-82.858,12.067C4.89,179.4-17.748,149.261,16.043,138.957Z" transform="translate(223.499 -82.547)" fill="#ffb07e"/>
      <path id="Caminho_10023" data-name="Caminho 10023" d="M144.068,151.689q4.211,3.038,8.311,6.2l-5.456,8.785s-17.24-20.69-33.243-36.088C124.128,137.147,134.113,144.532,144.068,151.689Z" transform="translate(257.359 -76.108)" fill="#ffb07e"/>
      <path id="Caminho_10024" data-name="Caminho 10024" d="M1.151,235.6c12,22.241,110.337.5,141.643,15.13,56.07,26.2,130.014,2.169,150.687,6.32,25.646,5.148,55.338,32.978,83.359,62.8v19.9C347.3,311.29,316.89,283.34,290.294,278c-20.673-4.147-94.616,19.889-150.687-6.32-33.2-15.515-139.555.212-140.893-28.147A11.362,11.362,0,0,1,1.151,235.6Z" transform="translate(250.138 17.285)" fill="#fde5df" style="mix-blend-mode: multiply;isolation: isolate"/>
    </g>
    <path id="Caminho_10037" data-name="Caminho 10037" d="M371.306,222.017c-10.62-.215-20.133-17.68-25.124-27.805,0,0,6.981,31.352-1.653,36.545-5.167,3.112-12.768-9.435-16.131-14.179,0,0,2.511,14.68-4.109,18.612-4.72,2.806-9.679,3.064-27.544-7.907,0,0,18.075,12.224,16.6,26.288-.8,7.616-8.494,19.235-22.608,27.673,0,0,18.653-4.3,30.174,7.436,9.279,9.447,4.61,16.1,5.027,28.8,0,0,10.9-18.689,22.564-19.725,8.672-.767,15.887,7.856,23.685,20.811,0,0-10.484-27.352,3.559-38.316,7.807-6.1,20.751-4.374,33.434,7.418,0,0-14.157-26-14.935-39.264-.99-16.972,2.012-31.448,10.089-43.43C404.332,204.97,384.05,222.274,371.306,222.017Z" transform="translate(-260.58 60.077)" fill="#ffcd4f"/>
  </g>
</svg>
