<?xml version="1.0" encoding="utf-8"?>
<svg width="293.999" height="45.925" viewBox="0 0 47.099 46.251" xmlns="http://www.w3.org/2000/svg">
  <g id="Grupo_14306" data-name="Grupo 14306" transform="translate(-777.001 -292)">
    <g id="XMLID_423_" transform="translate(752.926 268)">
      <path id="XMLID_395_" d="M138.777,125.9a12.877,12.877,0,1,0,12.887,12.877A12.89,12.89,0,0,0,138.777,125.9Zm6.3,20.221a.8.8,0,0,1-.762.574H133.234a.8.8,0,0,1-.762-.574L129.3,134.966a.786.786,0,0,1,.3-.851.773.773,0,0,1,.9-.02l4.068,2.712,3.524-5.642a.807.807,0,0,1,.673-.376.784.784,0,0,1,.673.376l3.524,5.642,4.068-2.712a.773.773,0,0,1,.9.02.792.792,0,0,1,.3.851Z" transform="translate(-91.729 -91.804)" fill="#5c546a"/>
      <path id="XMLID_384_" d="M196.328,202.014l-2.415,8.512h-9.9l-2.415-8.512,2.959,1.98a.814.814,0,0,0,.6.119.747.747,0,0,0,.5-.356l3.286-5.256,3.286,5.256a.815.815,0,0,0,.5.356.771.771,0,0,0,.6-.119Z" transform="translate(-141.886 -157.575)" fill="#ff9600"/>
      <path id="XMLID_292_" d="M186.328,189.04l-2.415,8.512h-9.9L171.6,189.04l2.959,1.98a.813.813,0,0,0,.6.119.747.747,0,0,0,.5-.356l3.939-5.582,3.286,5.256a.815.815,0,0,0,.5.356.771.771,0,0,0,.6-.119Z" transform="translate(-131.886 -144.374)" fill="#ffd200"/>
      <path id="XMLID_739_" d="M68.775,44.033,65.232,40.49a2.546,2.546,0,0,1-.752-1.811V33.66a4.152,4.152,0,0,0-4.147-4.147H55.315a2.546,2.546,0,0,1-1.811-.752L49.96,25.217a4.134,4.134,0,0,0-5.859,0l-3.543,3.543a2.546,2.546,0,0,1-1.811.752H33.728a4.152,4.152,0,0,0-4.147,4.147v5.018a2.546,2.546,0,0,1-.752,1.811l-3.543,3.543a4.152,4.152,0,0,0,0,5.859l3.543,3.543a2.546,2.546,0,0,1,.752,1.811v5.018a4.152,4.152,0,0,0,4.147,4.147h5.018a2.546,2.546,0,0,1,1.811.752L44.1,68.708a4.134,4.134,0,0,0,5.859,0L53.5,65.164a2.546,2.546,0,0,1,1.811-.752h5.018a4.152,4.152,0,0,0,4.147-4.147V55.247a2.546,2.546,0,0,1,.752-1.811l3.543-3.543A4.134,4.134,0,0,0,68.775,44.033Z" transform="translate(0 0)" fill="#e25f30"/>
      <path id="XMLID_422_" d="M128.777,115.9a12.877,12.877,0,1,0,12.887,12.877A12.89,12.89,0,0,0,128.777,115.9Z" transform="translate(-81.729 -81.804)" fill="#fff"/>
      <path id="XMLID_733_" d="M178.861,178.626a.773.773,0,0,0-.9-.02l-4.068,2.712-3.524-5.642a.807.807,0,0,0-.673-.376.784.784,0,0,0-.673.376l-3.524,5.642-4.068-2.712a.773.773,0,0,0-.9.02.792.792,0,0,0-.3.851l3.167,11.155a.8.8,0,0,0,.762.574h11.085a.8.8,0,0,0,.762-.574l3.167-11.155A.831.831,0,0,0,178.861,178.626Zm-4.226,11h-9.9l-2.415-8.512,2.959,1.98a.813.813,0,0,0,.6.119.747.747,0,0,0,.5-.356l3.286-5.256,3.286,5.256a.815.815,0,0,0,.5.356.771.771,0,0,0,.6-.119l2.959-1.98Z" transform="translate(-122.668 -136.256)" fill="#e25f30"/>
    </g>
  </g>
</svg>