<svg id="ic-brightness" xmlns="http://www.w3.org/2000/svg" width="32" height="32" viewBox="0 0 32 32">
  <rect id="Retângulo_633" data-name="Retângulo 633" width="32" height="32" fill="none"/>
  <path id="icon-brightness" d="M13.333,6.146a7.188,7.188,0,1,0,7.188,7.188A7.2,7.2,0,0,0,13.333,6.146Zm0,12.292a5.1,5.1,0,1,1,5.1-5.1A5.11,5.11,0,0,1,13.333,18.438ZM12.292,3.09V1.042a1.042,1.042,0,1,1,2.083,0V3.09a1.042,1.042,0,1,1-2.083,0Zm2.083,20.486v2.049a1.042,1.042,0,1,1-2.083,0V23.576a1.042,1.042,0,0,1,2.083,0ZM26.667,13.333a1.042,1.042,0,0,1-1.042,1.042H23.576a1.042,1.042,0,0,1,0-2.083h2.049A1.042,1.042,0,0,1,26.667,13.333ZM3.09,14.375H1.042a1.042,1.042,0,1,1,0-2.083H3.09a1.042,1.042,0,1,1,0,2.083ZM19.84,6.827a1.042,1.042,0,0,1,0-1.473l1.449-1.449a1.042,1.042,0,1,1,1.473,1.473L21.313,6.827A1.042,1.042,0,0,1,19.84,6.827ZM6.827,19.84a1.042,1.042,0,0,1,0,1.473L5.378,22.761a1.042,1.042,0,1,1-1.473-1.473L5.354,19.84A1.042,1.042,0,0,1,6.827,19.84Zm15.934,1.449a1.042,1.042,0,0,1-1.473,1.473L19.84,21.313a1.042,1.042,0,1,1,1.473-1.473ZM3.905,5.378A1.042,1.042,0,0,1,5.378,3.905L6.827,5.354A1.042,1.042,0,0,1,5.354,6.827Zm0,0" transform="translate(2.667 2.667)" fill="#00A443"/>
</svg>
