<svg id="Layer_1" data-name="Layer 1" xmlns="http://www.w3.org/2000/svg" viewBox="0 0 24 24"><defs><style>.cls-1{fill:#fff;}</style></defs><path class="cls-1" d="M7.09,10.51H6a.22.22,0,0,1-.21-.22V8.59A.22.22,0,0,1,6,8.37H7.09a.21.21,0,0,1,.21.22v1.7A.21.21,0,0,1,7.09,10.51Zm-.85-.43h.64V8.8H6.24Z"/><path class="cls-1" d="M18,10.51H16.91a.21.21,0,0,1-.21-.22V8.59a.21.21,0,0,1,.21-.22H18a.22.22,0,0,1,.21.22v1.7A.22.22,0,0,1,18,10.51Zm-.86-.43h.64V8.8h-.64Z"/><path class="cls-1" d="M12,18.4a5.13,5.13,0,0,1-5.12-5.12V7.52A1.92,1.92,0,0,1,8.8,5.6h6.4a1.92,1.92,0,0,1,1.92,1.92v5.76A5.13,5.13,0,0,1,12,18.4ZM8.8,6a1.5,1.5,0,0,0-1.5,1.5v5.76a4.7,4.7,0,0,0,9.4,0V7.52A1.5,1.5,0,0,0,15.2,6Z"/><path class="cls-1" d="M15.41,12H8.59a.22.22,0,0,1-.22-.21V7.52a.22.22,0,0,1,.22-.22h6.82a.22.22,0,0,1,.22.22v4.27A.22.22,0,0,1,15.41,12ZM8.8,11.57h6.4V7.73H8.8Z"/><path class="cls-1" d="M14.56,11.15H9.44a.21.21,0,0,1-.21-.22V8.37a.21.21,0,0,1,.21-.21h5.12a.21.21,0,0,1,.21.21v2.56A.21.21,0,0,1,14.56,11.15Zm-4.91-.43h4.7V8.59H9.65Z"/></svg>