<svg xmlns="http://www.w3.org/2000/svg" xmlns:xlink="http://www.w3.org/1999/xlink" width="476.223" height="330.493" viewBox="0 0 476.223 330.493">
  <defs>
    <linearGradient id="linear-gradient" y1="0.5" x2="1" y2="0.5" gradientUnits="objectBoundingBox">
      <stop offset="0" stop-color="#f3bdbb"/>
      <stop offset="1" stop-color="#f09690"/>
    </linearGradient>
    <linearGradient id="linear-gradient-2" y1="0.5" x2="1" y2="0.5" gradientUnits="objectBoundingBox">
      <stop offset="0" stop-color="#040559"/>
      <stop offset="1" stop-color="#14188a"/>
    </linearGradient>
    <linearGradient id="linear-gradient-6" y1="0.5" x2="1" y2="0.5" gradientUnits="objectBoundingBox">
      <stop offset="0" stop-color="#f3bdbb"/>
      <stop offset="1" stop-color="#9b6754"/>
    </linearGradient>
    <linearGradient id="linear-gradient-21" y1="0.5" x2="1" y2="0.5" gradientUnits="objectBoundingBox">
      <stop offset="0" stop-color="#583a2f"/>
      <stop offset="1" stop-color="#f09690"/>
    </linearGradient>
    <linearGradient id="linear-gradient-23" y1="0.5" x2="1" y2="0.5" gradientUnits="objectBoundingBox">
      <stop offset="0" stop-color="#583a2f"/>
      <stop offset="1" stop-color="#583a2f"/>
    </linearGradient>
    <linearGradient id="linear-gradient-24" y1="0.5" x2="1" y2="0.5" gradientUnits="objectBoundingBox">
      <stop offset="0" stop-color="#b1725b"/>
      <stop offset="1" stop-color="#583a2f"/>
    </linearGradient>
  </defs>
  <g id="Grupo_39785" data-name="Grupo 39785" transform="translate(-325.365 -166.007)">
    <path id="Caminho_14252" data-name="Caminho 14252" d="M781.04,543.975c-30.039,0-436.166-.877-436.166-.925-.167-.394-51.556-63.378,13.152-129.228,32.063-32.628-29.443-74.9,0-111.194,50.436-62.171,100.339-27.158,141.912-44.643,7.346-3.086,14.716-8.054,22.1-15.678a82.149,82.149,0,0,1,13.578-11.273q1.121-.747,2.265-1.457a90.441,90.441,0,0,1,9.059-4.917q3.14-1.481,6.4-2.739h0a104.659,104.659,0,0,1,10.6-3.453,119.963,119.963,0,0,1,15.816-3.1q3.528-.459,7.112-.725c46.452-3.492,98.729,16.15,125.707,44.86,5.431,5.781,30.129,35.694,10.661,76.809-12.292,25.959,39.2,50.751,57.5,80.394C827.261,492.07,781.462,542.993,781.04,543.975Z" transform="translate(0 -48.232)" fill="#FF9C1A"/>
    <path id="Caminho_14253" data-name="Caminho 14253" d="M2153.585,1201.342s.456-4.528-1.912-4.373-3,1.241-2.73,2.111a24.7,24.7,0,0,0,2.567,3.749Z" transform="translate(-1453.873 -831.748)" fill="url(#linear-gradient)"/>
    <path id="Caminho_14254" data-name="Caminho 14254" d="M2197.645,1224.813a38.651,38.651,0,0,1-8.259,6.635c-.534.338-1.092.677-1.681,1.019a62.469,62.469,0,0,1-7.723,3.8c-.326.135-.71.282-1.141.437-3.378,1.22-9.594,2.95-13.447,3.1-.335.013-.653.013-.949,0-5.863-.236-6.578-22.992-6.578-22.992s.653-2.277,3.665-1.7c0,0,4.574,12.851,6.214,13.9,1.456.931,9.826-11.755,17.03-12.643C2189.626,1215.773,2197.645,1224.813,2197.645,1224.813Z" transform="translate(-1461.035 -846.145)" fill="#325e2a"/>
    <path id="Caminho_14255" data-name="Caminho 14255" d="M2220.633,1803.115s.433,5.009-.626,5.531l-13.552-.028s0-1.564,2.177-1.912,6-1.622,6.647-4.46S2220.633,1803.115,2220.633,1803.115Z" transform="translate(-1499.773 -1313.48)" fill="url(#linear-gradient-2)"/>
    <path id="Caminho_14256" data-name="Caminho 14256" d="M2227.152,1449.941c.067,3.276.224,6.654.532,9.691,1.463,14.408,1.978,31.817,2.188,35.173.365,5.827,1.516,15.135,1.516,15.135s2.283,2.167,6.733,1.133a151.545,151.545,0,0,0,4.511-27.522q.019-.347.037-.7c.1-1.866.2-4,.3-6.3.678-15.413,1.415-38.309,1.415-38.309l-17-3.993S2226.985,1441.776,2227.152,1449.941Z" transform="translate(-1516.241 -1020.933)" fill="#46a7f2"/>
    <path id="Caminho_14257" data-name="Caminho 14257" d="M2227.152,1449.941c4.31,7.435,12.524,21.134,15.814,26.611.678-15.413,1.415-38.309,1.415-38.309l-17-3.993S2226.985,1441.776,2227.152,1449.941Z" transform="translate(-1516.241 -1020.933)" fill="#4692f2"/>
    <path id="Caminho_14258" data-name="Caminho 14258" d="M2208.445,1299.653c-3.378,1.22-9.594,2.95-13.446,3.1.589-.11,4.878-.96,6.465-2.875,1.7-2.059,4.572-7.65,6.854-5.369C2209.392,1295.589,2209.076,1297.711,2208.445,1299.653Z" transform="translate(-1490.638 -909.095)" fill="#32452a"/>
    <path id="Caminho_14259" data-name="Caminho 14259" d="M2387.338,1498.711s1.055,4.139.882,5.059a18.094,18.094,0,0,1-1.846,4.808c-.643.773-.669-3.36-1.1-4.009s-.2,1.543-.538,1.722-.913-1.661-1.168-2.313.913-2.923,1.021-4.55S2387.338,1498.711,2387.338,1498.711Z" transform="translate(-1640.957 -1072.125)" fill="url(#linear-gradient)"/>
    <path id="Caminho_14260" data-name="Caminho 14260" d="M2408.557,1778.555s2.412,2.2,1.941,3.765-2.647,2.606-2.941,4.518-1.471,2.954-2.529,2.954h-5.048s-.779-1.345,1.1-1.751,2.592-2.652,2.475-4.737a36.672,36.672,0,0,1,.176-4.865l4-.927Z" transform="translate(-1653.94 -1294.613)" fill="url(#linear-gradient-2)"/>
    <path id="Caminho_14261" data-name="Caminho 14261" d="M2241.641,1435.313s15.918,34.059,24.389,49,11.119,19.115,11.119,19.115,4.853-1.912,5.294-3.215c0,0-3.24-28.851-8.913-35.884-3.205-3.974-6.971-15.9-7.147-20.071s-3.9-14.125-3.9-14.125Z" transform="translate(-1527.826 -1017.655)" fill="#46a7f2"/>
    <path id="Caminho_14262" data-name="Caminho 14262" d="M2226.914,1263.649a27.586,27.586,0,0,0,13.991,7.263c3.865.74,11.712,1.455,13.658-1.3.457-.646.461-1.6.36-3.1-.262-3.882-1.239-11.388,3.17-26.471a25.745,25.745,0,0,0,.848-4.032c.962-7.716.858-13.542-5.837-16.654-10.031-4.663-14.149-.826-14.149-.826s-5.335,2.493-7.773,9.759C2226.307,1242.827,2226.914,1263.649,2226.914,1263.649Z" transform="translate(-1516.065 -847.763)" fill="#325e2a"/>
    <path id="Caminho_14263" data-name="Caminho 14263" d="M2296.342,1182.692a7.446,7.446,0,0,1-7.493.491c-.218-.109-.191-1.608-.136-3.079.054-1.444.191-2.861.191-2.861l3.569-2.343,3.406-2.235C2295.47,1180.349,2297.1,1182.147,2296.342,1182.692Z" transform="translate(-1565.325 -812.374)" fill="url(#linear-gradient)"/>
    <path id="Caminho_14264" data-name="Caminho 14264" d="M2295.43,1184.627a10.969,10.969,0,0,1-6.567,4.266c.054-1.444.209-3.035.209-3.035l3.552-2.169Z" transform="translate(-1565.476 -821.164)" fill="#ed985f"/>
    <path id="Caminho_14265" data-name="Caminho 14265" d="M2270.381,1135.763s8.635,3.223,10.557-2.1,4.33-8.488-1.1-10.771-7.242-.636-8.323.984S2268.184,1134.787,2270.381,1135.763Z" transform="translate(-1549.999 -771.798)" fill="url(#linear-gradient-6)"/>
    <path id="Caminho_14266" data-name="Caminho 14266" d="M2282.083,1109.7c.1-.077.3-.115.721-.056a1.723,1.723,0,0,0-.733-.372,2.132,2.132,0,0,0-1.024-2.125,1.272,1.272,0,0,1,.427,1.019c-.918-1.411-3.218-2.761-10.164-3.572-9.154-1.069-7.323,5.289-6.292,6.207s4.341-.387,6.481.215,1.933,3.825,2.585,4.4.513-.243,1.6-.5.855,1.418.355,2.436.59,2.707.59,2.707l1.68-1.219c1.68-1.219,4.235-7.281,3.871-8.753C2282.147,1109.967,2282.116,1109.835,2282.083,1109.7Z" transform="translate(-1545.765 -758.009)" fill="url(#linear-gradient-2)"/>
    <path id="Caminho_14267" data-name="Caminho 14267" d="M2344.134,1340.009c-.262-3.882-1.239-11.388,3.171-26.472a25.772,25.772,0,0,0,.848-4.032h0c-3.276-1.08-9.244,1.323-9.244,1.323S2337.5,1330.766,2344.134,1340.009Z" transform="translate(-1605.276 -921.253)" fill="#32452a"/>
    <path id="Caminho_14268" data-name="Caminho 14268" d="M2308.557,1233.426s4.031,1.466,6.6,12.138c1.7,7.051,4.826,17.415,5.178,20.672s-3.575,22.324-3.575,22.324a2.558,2.558,0,0,1-1.911.133,3.158,3.158,0,0,1-1.9-1.139s-.939-12.708-.7-18.709c.1-2.493-11.541-18.258-17.824-20.289C2291.958,1247.758,2308.557,1233.426,2308.557,1233.426Z" transform="translate(-1569.711 -860.818)" fill="#325e2a"/>
    <path id="Caminho_14269" data-name="Caminho 14269" d="M2086.991,1089.857a134.065,134.065,0,0,1,25.094,2.144l1.4-3.539,1.54-3.878s-13.5-5.811-21.61-13.9Z" transform="translate(-1404.525 -731.065)" fill="#D8CFC7"/>
    <path id="Caminho_14270" data-name="Caminho 14270" d="M2088.3,1069.266l-6.688,19.745h0a1.779,1.779,0,0,1-1.172-2.3l5.887-16.59a1.468,1.468,0,0,1,1.973-.853Z" transform="translate(-1399.217 -729.836)" fill="#ed6337"/>
    <path id="Caminho_14271" data-name="Caminho 14271" d="M2143.492,1173.667h0a2.418,2.418,0,0,0,2.837-1.892l2.3-11.523a2.418,2.418,0,0,0-1.892-2.837h0a2.419,2.419,0,0,0-2.837,1.892l-2.3,11.523A2.419,2.419,0,0,0,2143.492,1173.667Z" transform="translate(-1448.027 -800.178)" fill="#ed6337"/>
    <path id="Caminho_14272" data-name="Caminho 14272" d="M2086.991,1156.364a134.063,134.063,0,0,1,25.094,2.144l1.4-3.539C2100.857,1152.388,2086.991,1156.364,2086.991,1156.364Z" transform="translate(-1404.525 -797.571)" fill="#bbbebf"/>
    <path id="Caminho_14273" data-name="Caminho 14273" d="M2192.449,1138.057l3.64.64c-.055,0,3.381.669,4.508-2.377a2.47,2.47,0,0,0,.216-.658c.875-3.8-1.209-4.5-1.209-4.5l-4.685-1.826-1.489,5.268v.018Z" transform="translate(-1488.606 -777.832)" fill="#ed6337"/>
    <path id="Caminho_14274" data-name="Caminho 14274" d="M2192.449,1158.775l3.64.64c-.055,0,3.381.669,4.508-2.377-2.06-1.5-7.167-1.712-7.167-1.712v.018Z" transform="translate(-1488.606 -798.55)" fill="#ed6337"/>
    <path id="Caminho_14275" data-name="Caminho 14275" d="M2146.414,1182.33s1.781.71,1.454,1.494-2.591,1.863-2.948,1.244S2145.294,1181.668,2146.414,1182.33Z" transform="translate(-1450.639 -819.999)" fill="url(#linear-gradient)"/>
    <path id="Caminho_14276" data-name="Caminho 14276" d="M2170.153,1198.5a24.992,24.992,0,0,0,.357-2.659c.021-.837.119-1.521-.078-1.544s-.34.13-.42.4-.389,1.938-.389,1.938l.156,1.611Z" transform="translate(-1470.407 -829.617)" fill="url(#linear-gradient)"/>
    <path id="Caminho_14277" data-name="Caminho 14277" d="M1263.3,1204.706l-10.089,119.965s-1.057,7.272,4.352,7.285c8.894.021,44.267,0,44.267,0s-6.694-1.514-6.613-4.92c.1-4.015,11.792-123.466,11.792-123.466Z" transform="translate(-739.696 -837.015)" fill="#bbbebf"/>
    <path id="Caminho_14278" data-name="Caminho 14278" d="M1316.6,1321.266c-1.749.005-36,.063-44.656-.048-3.775-.047-4.437-3.356-4.468-5.5a10.719,10.719,0,0,1,.115-1.786l.262-3.118.669-7.947.59-7.021.759-9.022.639-7.616,7.169-85.243,43.71-1.134s-4.926,49.99-8.411,86.378c-.389,4.054-.759,7.942-1.1,11.571q-.167,1.738-.322,3.395c-.323,3.443-.618,6.6-.876,9.4-.135,1.472-.26,2.839-.373,4.091-.445,4.907-.705,8.041-.709,8.637a5.048,5.048,0,0,0,.085.971C1310.4,1321.094,1315.94,1321.266,1316.6,1321.266Z" transform="translate(-751.132 -828.454)" fill="#D8CFC7"/>
    <path id="Caminho_14279" data-name="Caminho 14279" d="M779.653,887.135l24.576,98.716,3.365,13.52,11.446,45.979h212.653L989.5,887.135Z" transform="translate(-362.199 -584.724)" fill="#D8CFC7"/>
    <path id="Caminho_14280" data-name="Caminho 14280" d="M766.255,887.134l-3.406,1.135,38.265,160.514,4.528-3.434Z" transform="translate(-348.801 -584.724)" fill="#bbbebf"/>
    <path id="Caminho_14281" data-name="Caminho 14281" d="M951.617,1671.068h211.344l5.836-3.434H956.146Z" transform="translate(-499.304 -1207.008)" fill="#bbbebf"/>
    <rect id="Ret창ngulo_18702" data-name="Ret창ngulo 18702" width="45.759" height="2.174" transform="translate(572.29 494.987) rotate(180)" fill="#bbbebf"/>
    <path id="Caminho_14282" data-name="Caminho 14282" d="M1315.907,1684.568l-.236,1.662-43.034,8.694.591-7.021.281-3.335Z" transform="translate(-755.249 -1220.509)" fill="#bbbebf"/>
    <path id="Caminho_14283" data-name="Caminho 14283" d="M779.651,887.134H989.5l34.049,127.155H811.306Z" transform="translate(-362.197 -584.724)" fill="#D8CFC7"/>
    <path id="Caminho_14284" data-name="Caminho 14284" d="M1047.84,1035.57H851.355l-7.021-27.97-2.716-10.823-1.108-4.414-7.216-28.744-.374-1.5L829.1,946.928l-1.706-6.8-1.456-5.8-3.413-13.594h193.653l3.748,13.594,1.6,5.8,1.874,6.8,12.347,44.788v0l1.047,3.794.486,1.762,8.525,30.921Z" transform="translate(-396.384 -611.514)" fill="#bbbebf"/>
    <path id="Caminho_14285" data-name="Caminho 14285" d="M1019.934,934.33H825.946l-3.412-13.6h193.653Z" transform="translate(-396.387 -611.513)" fill="#325e2a"/>
    <g id="Grupo_39777" data-name="Grupo 39777" transform="translate(434.105 313.666)">
      <path id="Caminho_14286" data-name="Caminho 14286" d="M861.848,944.359a1.284,1.284,0,0,1,1.276-1.7,2.322,2.322,0,0,1,2.123,1.7,1.284,1.284,0,0,1-1.276,1.7A2.322,2.322,0,0,1,861.848,944.359Z" transform="translate(-861.795 -942.66)" fill="#a6b750"/>
      <path id="Caminho_14287" data-name="Caminho 14287" d="M889.706,944.359a1.284,1.284,0,0,1,1.276-1.7,2.321,2.321,0,0,1,2.123,1.7,1.284,1.284,0,0,1-1.276,1.7A2.322,2.322,0,0,1,889.706,944.359Z" transform="translate(-884.006 -942.66)" fill="#a6b750"/>
      <path id="Caminho_14288" data-name="Caminho 14288" d="M919.7,944.359a1.284,1.284,0,0,1,1.276-1.7,2.322,2.322,0,0,1,2.123,1.7,1.284,1.284,0,0,1-1.276,1.7A2.322,2.322,0,0,1,919.7,944.359Z" transform="translate(-907.922 -942.66)" fill="#a6b750"/>
    </g>
    <path id="Caminho_14291" data-name="Caminho 14291" d="M1231.9,786.256l-170.73,14.384a17.09,17.09,0,0,1-17.038-24l72.332-161.879a17.09,17.09,0,0,1,29.82-2.512l98.4,147.495A17.09,17.09,0,0,1,1231.9,786.256Z" transform="translate(-571.859 -359.494)" fill="#fff"/>
    <g id="Grupo_39778" data-name="Grupo 39778" transform="translate(464.274 238.662)">
      <path id="Caminho_14292" data-name="Caminho 14292" d="M1206.931,767.212,1036.2,781.6a23.57,23.57,0,0,1-23.5-33.1l72.332-161.88a23.571,23.571,0,0,1,41.128-3.465l98.4,147.5a23.57,23.57,0,0,1-17.629,36.568ZM1105.664,585.658a10.475,10.475,0,0,0-8.8,6.244l-72.332,161.88a10.609,10.609,0,0,0,10.577,14.9l170.73-14.384a10.609,10.609,0,0,0,7.935-16.459l-98.4-147.5A10.474,10.474,0,0,0,1105.664,585.658Z" transform="translate(-1010.622 -572.655)" fill="#D60E00"/>
    </g>
    <g id="Grupo_39780" data-name="Grupo 39780" transform="translate(546.556 286.788)">
      <g id="Grupo_39779" data-name="Grupo 39779" transform="translate(0 0)">
        <path id="Caminho_14293" data-name="Caminho 14293" d="M1425.288,925.273a15.61,15.61,0,0,1,.664-6.2,14.311,14.311,0,0,1,2.922-5.131,15.348,15.348,0,0,1,4.9-3.637,19.131,19.131,0,0,1,6.717-1.724,19.567,19.567,0,0,1,6.962.572,15.259,15.259,0,0,1,5.5,2.76,14.333,14.333,0,0,1,3.739,4.57,15.643,15.643,0,0,1,1.693,6,15.275,15.275,0,0,1-.669,6.15,14.421,14.421,0,0,1-2.926,5.081,15.208,15.208,0,0,1-4.956,3.641,19.564,19.564,0,0,1-6.768,1.729,19.128,19.128,0,0,1-6.911-.576,15.292,15.292,0,0,1-5.444-2.765,14.4,14.4,0,0,1-3.735-4.52A15.244,15.244,0,0,1,1425.288,925.273Zm26.4-30.886-24.592,2.072-10.564-83.734,31.56-2.659Z" transform="translate(-1416.528 -810.065)" fill="#D60E00"/>
      </g>
    </g>
    <path id="Caminho_14294" data-name="Caminho 14294" d="M936.749,1236.845s.536-1.2.882-1.774,1.828-2.24,2.08-1.862,1.261,2.924.725,3.636.035,1.953-2.63,2.7Z" transform="translate(-487.45 -860.602)" fill="url(#linear-gradient)"/>
    <path id="Caminho_14295" data-name="Caminho 14295" d="M790.676,1213.861s13.64,11.386,18.959,10.332c4.159-.824,10.734-2.91,10.734-2.91a4.2,4.2,0,0,1,1.244,3.629s-8.376,7.882-14.344,7.933c-9.328.08-13.728-4.623-13.728-4.623Z" transform="translate(-370.988 -845.22)" fill="#32452a"/>
    <path id="Caminho_14296" data-name="Caminho 14296" d="M672.668,1798.225s.4,6.387,1.632,6.479c.164.012,6.268.012,6.268.012l7.791-.045a2.528,2.528,0,0,0-2.329-2.274c-2.277-.4-6.089-2-7.469-5.008C677.11,1794.222,672.668,1798.225,672.668,1798.225Z" transform="translate(-276.901 -1309.488)" fill="url(#linear-gradient-2)"/>
    <path id="Caminho_14297" data-name="Caminho 14297" d="M670.453,1498.338a16.245,16.245,0,0,0,4.218.792,15.491,15.491,0,0,0,3.938-.562,107.787,107.787,0,0,1,2.9-13.814c1.286-4.98,3.123-11.383,5.737-19.34,7.227-21.99,9.425-34.854,9.625-36.072.011-.064.015-.1.015-.1l-.023-.011-22.218-9.755s2.746,30.307-.757,41.94a48.969,48.969,0,0,0-1.272,5.573C670.4,1479.63,670.453,1498.338,670.453,1498.338Z" transform="translate(-275.135 -1009.158)" fill="#46a7f2"/>
    <path id="Caminho_14298" data-name="Caminho 14298" d="M694.927,1484.755c1.286-4.98,3.124-11.383,5.737-19.34,7.227-21.99,9.425-34.854,9.625-36.072,0-.036,0-.07-.009-.107l-22.218-9.755s2.746,30.307-.757,41.94C686.815,1463.047,694.927,1484.755,694.927,1484.755Z" transform="translate(-288.555 -1009.158)" fill="#4692f2"/>
    <path id="Caminho_14299" data-name="Caminho 14299" d="M758.276,1798.225s.4,6.387,1.632,6.479c.164.012,6.268.012,6.268.012l7.791-.045a2.528,2.528,0,0,0-2.328-2.274c-2.277-.4-6.089-2-7.469-5.008C762.718,1794.222,758.276,1798.225,758.276,1798.225Z" transform="translate(-345.155 -1309.488)" fill="url(#linear-gradient-2)"/>
    <path id="Caminho_14300" data-name="Caminho 14300" d="M727.506,1423.005a316.288,316.288,0,0,1-3.109,43.753c-3.4,24.114-2.246,34.349-2.246,34.349a23.163,23.163,0,0,1-3.277.833,14.871,14.871,0,0,1-4.862-.562s-4.864-24.123-3.469-36.192-6.66-41.416-6.66-41.416Z" transform="translate(-301.788 -1011.968)" fill="#46a7f2"/>
    <path id="Caminho_14301" data-name="Caminho 14301" d="M742.7,1158.1l4.337,2.844,3.95-1.117c.722-1.03.914-3.016.924-4.736a29.437,29.437,0,0,0-.155-3.154l-5.851-2.583-2.183-.962c.006.034.17,1.792.193,2.05A14.937,14.937,0,0,1,742.7,1158.1Z" transform="translate(-332.736 -793.023)" fill="url(#linear-gradient)"/>
    <path id="Caminho_14302" data-name="Caminho 14302" d="M713.214,1241.223c-5.4,5.212-25.828,4.335-27.087-1.407s1.373-48.884,10.594-51.594c1.914-.563,12.144,2.744,12.144,2.744a64.851,64.851,0,0,1,2.658,9.546c.2,1.041.8,12.065,1.247,22.379.208,4.824.384,9.494.474,12.912A37.227,37.227,0,0,1,713.214,1241.223Z" transform="translate(-287.397 -824.726)" fill="#325e2a"/>
    <path id="Caminho_14303" data-name="Caminho 14303" d="M750.2,1154.3c1.187,2.007,5.352,3.764,7.559,4.569a29.462,29.462,0,0,0-.155-3.154l-5.851-2.583C750.455,1153.119,749.667,1153.408,750.2,1154.3Z" transform="translate(-338.58 -796.804)" fill="#fca56b"/>
    <path id="Caminho_14304" data-name="Caminho 14304" d="M746.55,1103.09s-9.428,2.941-11.169-2.958-4.131-9.493,1.815-11.62,7.785-.223,8.845,1.6S748.958,1102.173,746.55,1103.09Z" transform="translate(-325.324 -744.532)" fill="url(#linear-gradient)"/>
    <path id="Caminho_14305" data-name="Caminho 14305" d="M729.539,1076.879s-.6,6.865-2.021,6.567-2.982-.936-2.775,1.134-1.38,5.617-3.428,5.608c-4.391-.018-9.161-11.285-7.959-13.421C716.825,1070.6,734.552,1069.359,729.539,1076.879Z" transform="translate(-309.191 -731.862)" fill="url(#linear-gradient-2)"/>
    <path id="Caminho_14306" data-name="Caminho 14306" d="M749.182,1177.823c-.122-.051-7.018-3.145-7.825-2.879s-1.812,2.73-1.812,2.73l12.144,2.745A6.032,6.032,0,0,0,749.182,1177.823Z" transform="translate(-330.221 -814.179)" fill="#325e2a"/>
    <g id="Grupo_39782" data-name="Grupo 39782" transform="translate(419.621 344.168)">
      <path id="Caminho_14307" data-name="Caminho 14307" d="M832.619,1339.492l-38.661,36.4c-.758.713-1.714.941-2.124.505l-1.305-1.386c-.41-.436-.126-1.376.632-2.09l38.661-36.4c.758-.714,1.713-.941,2.123-.505l1.305,1.386C833.662,1337.838,833.377,1338.778,832.619,1339.492Z" transform="translate(-790.342 -1286.604)" fill="#2665b2"/>
      <path id="Caminho_14308" data-name="Caminho 14308" d="M949.9,1132.275a30.3,30.3,0,1,0,50.226-30.453q-.233-.233-.476-.459a30.3,30.3,0,0,0-49.75,30.911Zm8.661-27.968a27.912,27.912,0,1,1,1.2,39.454A27.878,27.878,0,0,1,958.56,1104.307Z" transform="translate(-916.507 -1093.131)" fill="#2665b2"/>
      <g id="Grupo_39781" data-name="Grupo 39781" transform="translate(34.469 2.392)" opacity="0.3">
        <path id="Caminho_14309" data-name="Caminho 14309" d="M1008.62,1151.966a27.912,27.912,0,1,1-1.2-39.452A27.8,27.8,0,0,1,1008.62,1151.966Z" transform="translate(-960.382 -1104.933)" fill="#46a7f2"/>
      </g>
    </g>
    <path id="Caminho_14310" data-name="Caminho 14310" d="M744.1,1283.827c-21.3-15.18-19.531-35.436-19.531-35.436,7.786,4.391,15.512,14.1,19.057,22.523C743.83,1275.738,744.006,1280.408,744.1,1283.827Z" transform="translate(-318.249 -872.75)" fill="#32452a"/>
    <g id="Grupo_39783" data-name="Grupo 39783" transform="translate(405.872 366.241)">
      <path id="Caminho_14311" data-name="Caminho 14311" d="M914.744,1382.488a5.815,5.815,0,0,0,2.721-1.681s.641.044-.105,1.41c-.062.114-.2.408-.305.616a.133.133,0,0,0,.111.191,14.176,14.176,0,0,1,3.409.071c.23.048.3.6.289.835a2.131,2.131,0,0,1-.449,1.455,7.449,7.449,0,0,1-2.692,1.41,8.145,8.145,0,0,1-4.165-.523l-1.364-.632.423-2.534.343.072C913.5,1383.291,914.177,1382.627,914.744,1382.488Z" transform="translate(-873.743 -1344.565)" fill="url(#linear-gradient)"/>
      <path id="Caminho_14312" data-name="Caminho 14312" d="M729.571,1202.019s-19.141,3.645,5.632,31.363c3.962,4.433,25.367,10.205,25.367,10.205s2.171-1.847,1.077-3.343c0,0-14.738-10.7-17.981-12.4-1.459-.765-5.662-17.082-8.04-21.012A10.72,10.72,0,0,0,729.571,1202.019Z" transform="translate(-722.516 -1202.019)" fill="#325e2a"/>
    </g>
    <path id="Caminho_14313" data-name="Caminho 14313" d="M939.31,1234.674a9.751,9.751,0,0,0,.748-1.828,10.108,10.108,0,0,1,1.235-2.8c.13-.13.559.038.609.6a3.251,3.251,0,0,1-.307,1.211,13.626,13.626,0,0,0-.405,2.406C940.894,1235.227,939.31,1234.674,939.31,1234.674Z" transform="translate(-489.492 -858.094)" fill="url(#linear-gradient)"/>
    <path id="Caminho_14314" data-name="Caminho 14314" d="M1723.232,1114.228a6.388,6.388,0,0,0-5.072.261c-8.63.354-8.95,9.2-7.937,12.492,1.423,4.623-3.612,8.269,1.972,10.14,6.479,2.171,11.915-.4,11.544.714C1744.225,1139.45,1730.048,1116.492,1723.232,1114.228Z" transform="translate(-1103.549 -765.478)" fill="url(#linear-gradient-2)"/>
    <path id="Caminho_14315" data-name="Caminho 14315" d="M1682.979,1255.848a22.611,22.611,0,0,1-2.307,3.489c-1.792,2.245-11.2-3.084-10.391-3.489s5.539-14.027,6.664-15.739,4.963-2.6,4.963-2.6Z" transform="translate(-1072.247 -864.074)" fill="#325e2a"/>
    <path id="Caminho_14316" data-name="Caminho 14316" d="M1852.753,1776.769s2.6,2.37,2.09,4.054-2.85,2.807-3.167,4.865-1.583,3.181-2.723,3.181h-5.436s-.839-1.448,1.188-1.885,2.791-2.855,2.664-5.1a39.585,39.585,0,0,1,.19-5.239l4.307-1Z" transform="translate(-1210.269 -1293.125)" fill="url(#linear-gradient-2)"/>
    <path id="Caminho_14317" data-name="Caminho 14317" d="M1723.125,1786.147s.935,10.04-.206,10.6l-14.591-.03s0-1.684,2.344-2.058,6.461-1.746,7.157-4.8S1723.125,1786.147,1723.125,1786.147Z" transform="translate(-1102.621 -1301.497)" fill="url(#linear-gradient-2)"/>
    <path id="Caminho_14318" data-name="Caminho 14318" d="M1733.008,1245.951a58.028,58.028,0,0,1,0,6.744c-.144,2.439-2.611,5.7-2.961,6.513-.878,2.026-1.868,2.356-1.868,2.356l-7.661,1.878-2.694.659-8.495-2.537s-3.869-10.8-2.316-16.878a46.712,46.712,0,0,1,3.927-10.3s5.773-1.3,15.957-.576Z" transform="translate(-1101.28 -860.95)" fill="#325e2a"/>
    <path id="Caminho_14319" data-name="Caminho 14319" d="M1782.856,1302.282c-.144,2.439-3.341,5.619-3.691,6.427-.878,2.026-1.869,2.356-1.869,2.356l-7.661,1.878-1.383-3.965s11.194-2.941,9.394-13.3Z" transform="translate(-1150.399 -910.451)" fill="#32452a"/>
    <path id="Caminho_14320" data-name="Caminho 14320" d="M1704.915,1379.674s-4.207,13.094-4.477,17.552,8.042,63.331,8.376,65.385c.315,1.936,2.72,3.17,2.72,3.17a3.639,3.639,0,0,0,2.684.207,6.64,6.64,0,0,0,2.882-1.359s3.274-41.988,1.248-56.987a237.5,237.5,0,0,1-2.05-27.969Z" transform="translate(-1096.325 -977.42)" fill="#4692f2"/>
    <path id="Caminho_14321" data-name="Caminho 14321" d="M1745.818,1377.748s6.417,8.61,7.015,14.43.939,26.264,2.213,31.938,5.957,16.593,5.957,34.29a3.532,3.532,0,0,1-1.99,1.555,16.353,16.353,0,0,1-1.75.484,2.751,2.751,0,0,1-3.077-1.46c-3.166-6.374-13.25-26.932-13.767-31.2-.366-3.02-3.55-23.007-10.5-34.735-1.667-2.816,1.023-14.013,1.023-14.013Z" transform="translate(-1119.406 -975.885)" fill="#46a7f2"/>
    <path id="Caminho_14322" data-name="Caminho 14322" d="M1718.294,1369.7a8.817,8.817,0,0,0,5.044,1.4c4.007.081,13.937-1.022,13.937-1.022a8.213,8.213,0,0,1,.423,2.534s-12.127,3.059-19.154.447A4.441,4.441,0,0,1,1718.294,1369.7Z" transform="translate(-1110.377 -969.47)" fill="#4692f2"/>
    <g id="Grupo_39784" data-name="Grupo 39784" transform="translate(610.171 400.95)">
      <path id="Caminho_14323" data-name="Caminho 14323" d="M1732.18,1377.381a2.085,2.085,0,1,1,1.829-2.069A1.962,1.962,0,0,1,1732.18,1377.381Zm0-3.533a1.487,1.487,0,1,0,1.223,1.464A1.361,1.361,0,0,0,1732.18,1373.848Z" transform="translate(-1730.352 -1373.242)" fill="#fff"/>
    </g>
    <path id="Caminho_14324" data-name="Caminho 14324" d="M1675.623,1329.327l-18.228.171-8.97-21.079,18.228-.17Z" transform="translate(-1054.862 -920.473)" fill="#ed6337"/>
    <path id="Caminho_14325" data-name="Caminho 14325" d="M1734.055,1352.12l-1.336-1.642a4.7,4.7,0,0,0-1.56-.944c-.656-.137-2.042-.936-2.176-.711s1.065,1.832,1.065,1.832l.061.009c-1.376,1.035-4.85.121-5.279.543-.52.512.715,1.618,1.378,2.24s2.558,1.657,4.036,1.2c1.08-.336,2.78-.678,2.78-.678Z" transform="translate(-1115.678 -952.792)" fill="url(#linear-gradient-21)"/>
    <path id="Caminho_14326" data-name="Caminho 14326" d="M1654.73,1324.051s1.145-1.3,1.875-.677-.191,3.7-.886,3.385S1654.33,1324.432,1654.73,1324.051Z" transform="translate(-1059.795 -932.397)" fill="url(#linear-gradient-21)"/>
    <path id="Caminho_14327" data-name="Caminho 14327" d="M1770.153,1234.67s5.218.575,8.963,7.379c2.953,5.365,8,15.256,6.1,18.05-.836,1.227-8.852,5.591-24.313,3.1a4.678,4.678,0,0,1,1.49-2.858s13.011-4.177,12.989-5.008c-.042-1.572-1.758-2.93-9.026-10.2C1764.377,1243.152,1770.153,1234.67,1770.153,1234.67Z" transform="translate(-1144.536 -861.81)" fill="#325e2a"/>
    <path id="Caminho_14328" data-name="Caminho 14328" d="M1755.747,1204.65c.179-.241-.052-1.007-.338-2.435a26.678,26.678,0,0,1-.69-5.544l-.385.064-6.467,1.088s.147,1.729.152,3.358c0,.013,0,.027,0,.041.008,1.415-.382,3.552.1,3.832C1750.565,1206.491,1755.058,1205.576,1755.747,1204.65Z" transform="translate(-1134.145 -831.515)" fill="url(#linear-gradient-23)"/>
    <path id="Caminho_14329" data-name="Caminho 14329" d="M1747.867,1198.078s.129,2.438.133,4.067c3.619-.087,5.551-3.6,6.334-5.155Z" transform="translate(-1134.145 -831.768)" fill="#583a2f"/>
    <path id="Caminho_14330" data-name="Caminho 14330" d="M1728.48,1157.891s8.478-1.208,7.645-6.476-.3-8.972-5.748-8.424-6.179,2.724-6.329,4.55S1726.253,1158.069,1728.48,1157.891Z" transform="translate(-1115.149 -788.673)" fill="url(#linear-gradient-24)"/>
    <path id="Caminho_14331" data-name="Caminho 14331" d="M1736.2,1139.849s3.3,5.811,7,6.158,5.088-.85,5.088-.85a10.188,10.188,0,0,1-4.238-5.42S1737.474,1136.63,1736.2,1139.849Z" transform="translate(-1124.84 -785.047)" fill="url(#linear-gradient-2)"/>
    <path id="Caminho_14332" data-name="Caminho 14332" d="M1724.226,1144.523a5.312,5.312,0,0,0-2.121,2.28,8.621,8.621,0,0,0-.373,5.018s-2.413-3.922-.832-6.61C1722.577,1142.36,1724.226,1144.523,1724.226,1144.523Z" transform="translate(-1112.216 -789.311)" fill="url(#linear-gradient-2)"/>
    <rect id="Ret창ngulo_18703" data-name="Ret창ngulo 18703" width="471.129" height="1.514" rx="0.757" transform="translate(328.254 494.987)" fill="#232323"/>
  </g>
</svg>
