<svg xmlns="http://www.w3.org/2000/svg" xmlns:xlink="http://www.w3.org/1999/xlink" width="351" height="351" viewBox="0 0 351 351">
  <defs>
    <clipPath id="clip-path">
      <rect id="Drag_Image" data-name="Drag Image" width="350" height="351" rx="6" fill="#fff"/>
    </clipPath>
    <clipPath id="clip-Artboard_2">
      <rect width="351" height="351"/>
    </clipPath>
  </defs>
  <g id="Artboard_2" data-name="Artboard – 2" clip-path="url(#clip-Artboard_2)">
    <rect width="351" height="351" fill="#fff"/>
    <g id="Images_Light_6px" data-name="Images/Light/6px" transform="translate(1)">
      <g id="Mask_Group_2" data-name="Mask Group 2" clip-path="url(#clip-path)">
        <g id="Flat_Vector_Illustration_lemono-02" data-name="Flat Vector Illustration lemono-02" transform="translate(-239.964 -57.803)">
          <path id="Path_14150" data-name="Path 14150" d="M519.7,168.082,427.389,380.716,550.9,184.6Z" fill="#FF9C1A"/>
          <path id="Path_14151" data-name="Path 14151" d="M279.028,116.2,547.771,57.8l-149.636,351Z" fill="#ff9f00"/>
          <path id="Path_14152" data-name="Path 14152" d="M528.608,365.806c0,4.35-51.333,7.9-114.665,7.9s-114.665-3.53-114.665-7.9,51.339-7.9,114.665-7.9S528.608,361.462,528.608,365.806Z" fill="#eaedf1" fill-rule="evenodd"/>
          <path id="Path_14153" data-name="Path 14153" d="M403.821,133.809l-12.066,15.8a1.215,1.215,0,0,1-1.416.365l-2.606-1.142a1.215,1.215,0,0,1-.462-1.823l11.708-15.341Z" fill="#d6336c"/>
          <path id="Path_14154" data-name="Path 14154" d="M359.876,361.96l-3.141,3.828s-4.861.049-6.045,0a.328.328,0,0,1-.194-.608C352.349,363.625,359.876,361.96,359.876,361.96Z" fill="#212529"/>
          <path id="Path_14155" data-name="Path 14155" d="M447.687,365.2c1.823-1.58,6.793-3.165,6.793-3.165l-.851,3.749s-4.557.049-5.748,0a.328.328,0,0,1-.194-.583Z" fill="#212529"/>
          <path id="Path_14156" data-name="Path 14156" d="M388.5,121.224h25.27a2.706,2.706,0,0,1,2.706,2.706v8.6a2.706,2.706,0,0,1-2.706,2.706H388.5V121.224Z" transform="translate(83.959 -149.053) rotate(23.499)" fill="#e64980"/>
          <path id="Path_14157" data-name="Path 14157" d="M413.9,129.8h0a2.12,2.12,0,0,1,2.12,2.12v3.773a2.12,2.12,0,0,1-2.12,2.12h0V129.8Z" transform="matrix(0.917, 0.398, -0.398, 0.917, 87.513, -154.077)" fill="#dee4ec"/>
          <circle id="Ellipse_172" data-name="Ellipse 172" cx="4.733" cy="4.733" r="4.733" transform="translate(359.026 106.846)" fill="#7990c3"/>
          <path id="Path_14158" data-name="Path 14158" d="M385.637,128.681a45.233,45.233,0,0,0-24.728-2.43,1.823,1.823,0,0,1-2.163-2.1,51.1,51.1,0,0,1,10.815-24.91,1.823,1.823,0,0,1,2.983.1,46.567,46.567,0,0,0,18.646,16.5Z" fill="#eaedf1"/>
          <path id="Path_14159" data-name="Path 14159" d="M350.034,264.465s24.436,36.01,92.234,32.632C442.268,297.1,373.279,248.669,350.034,264.465Z" fill="#2558a6"/>
          <path id="Path_14160" data-name="Path 14160" d="M420.566,131.762c-6.768-6.562-10.225-23.2-6.027-24.837s12.759,5.468,13.269,7c33.665,0,58.478,53.064,49.261,60.8-1.823,1.549-6.89,2.126-10.936-1.288,15.645,64.863-33.5,57.8-43.507,44.261-8.463-11.446-3.469-41.454-3.469-41.454l7.959-39.066Z" fill="#212529"/>
          <path id="Path_14161" data-name="Path 14161" d="M406.057,206.65S388.924,237.028,384,268.341s-13.391,78.223-27.267,97.447c0,0,50.069-37.979,53.2-86.492S406.057,206.65,406.057,206.65Z" fill="#f5a7a8"/>
          <path id="Path_14162" data-name="Path 14162" d="M356.735,365.788s50.069-37.979,53.2-86.492q.474-7.364.656-13.974l-23.531-11.337a145.011,145.011,0,0,0-3.038,14.351c-.419,2.673-.863,5.468-1.337,8.348,5.717,4,13.135,11.841,11.689,25.062C392.047,322.809,356.735,365.788,356.735,365.788Z" fill="#f68687"/>
          <path id="Path_14163" data-name="Path 14163" d="M418.871,204.414s-4.466,34.424,12.072,72.421,22.686,88.953,22.686,88.953,19.515-51.855,3.779-92.957S418.871,204.414,418.871,204.414Z" fill="#f5a7a8"/>
          <path id="Path_14164" data-name="Path 14164" d="M457.408,272.795c-2.2-5.741-4.532-11.216-6.926-16.4l-26.733-.255a148.852,148.852,0,0,0,7.218,20.657A227.561,227.561,0,0,1,439.1,298.8c4.332,1.592,14.387,6.264,17.856,16.325,4.472,12.959-3.305,50.622-3.305,50.622S473.144,313.933,457.408,272.795Z" fill="#f68687"/>
          <path id="Path_14165" data-name="Path 14165" d="M490.763,278.433c-47.59,37.894-84.305,8.263-103.54-3.815-19.442-12.218-37.195-10.134-37.195-10.134a83.239,83.239,0,0,1,5.893-13.925,101.006,101.006,0,0,1,6.185-10.14c17.826-25.846,44.862-41.812,44.862-41.812L435.275,198c21.265,10.936,38.708,40.549,48.459,60.325,1.823,3.676,3.354,7.011,4.617,9.824,1.47,3.3,2.54,5.875,3.171,7.437A2.43,2.43,0,0,1,490.763,278.433Z" fill="#4769af"/>
          <path id="Path_14166" data-name="Path 14166" d="M459.255,137.661s5.067,16.24-1.215,29.054C458.064,166.715,447.335,150.924,459.255,137.661Z" fill="#c11f61"/>
          <path id="Path_14167" data-name="Path 14167" d="M488.339,268.159c-1.264-2.813-2.807-6.149-4.617-9.824-9.721-19.776-27.2-49.407-48.459-60.325l-7.673.158.784,1.719s58.077,42.936,22.243,96.76c12.254-1.44,25.7-6.714,40.148-18.227a2.43,2.43,0,0,0,.747-2.837C490.909,274.01,489.809,271.458,488.339,268.159Z" fill="#2558a6"/>
          <path id="Path_14168" data-name="Path 14168" d="M398.2,158.039s-14.417,2.12-13.19-7.364,10.614-11.064,10.614-11.064-1,2.12,1.215,2.12,5.675-8.64,1.343-8.153l-2.43.334a26.435,26.435,0,0,0-20.566,20.226c-4.253,17.771,21.568,24.138,21.568,24.138Z" fill="#f5a7a8"/>
          <path id="Path_14169" data-name="Path 14169" d="M385.011,150.675c1.215-9.5,10.614-11.064,10.614-11.064-5.948-.079-12.036,4.095-13.044,14.381-.832,8.548,11,11.683,15.013,12.5l.608-8.445S383.784,160.159,385.011,150.675Z" fill="#f68687"/>
          <path id="Path_14170" data-name="Path 14170" d="M452.845,141.61s31.289-8.828,45.148-23.136l-.65-3.366a.128.128,0,0,1,.067-.14c.34-.158,1.592-.535,2.26,2.054a7.51,7.51,0,0,1,5.7-2.169c3.238.389-1,3.961-3.038,4.739,0,0-23.136,32.966-49.51,43.027C452.845,162.62,447.815,152.224,452.845,141.61Z" fill="#f5a7a8"/>
          <path id="Path_14171" data-name="Path 14171" d="M502.356,119.592c-21.787,24.363-43.927,34.273-43.927,34.273-1.495-3.949-.766-13.761-.766-13.761h0c-2.971.984-4.812,1.507-4.812,1.507-5.031,10.614,0,21.009,0,21.009C479.22,152.559,502.356,119.592,502.356,119.592Z" fill="#f68687"/>
          <path id="Path_14172" data-name="Path 14172" d="M394.586,155.092s8.2.152,14.581-2.534,12.516-7.746,18.774-9.235,22.054-1.215,31.3-5.662c0,0-8.2,8.64-1.215,29.054a78.3,78.3,0,0,1-16.246,6.859s-33.228,15.049-52.451,6.4C389.367,179.978,387.733,165.822,394.586,155.092Z" fill="#e64980"/>
          <path id="Path_14173" data-name="Path 14173" d="M419.764,153.306s-12.54,12.473-29.1,11.027a47.532,47.532,0,0,0-1.288,15.645c7.558,3.4,17.285,3.135,26.3,1.561Z" fill="#d6336c"/>
          <path id="Path_14174" data-name="Path 14174" d="M427.067,145.11s-13.53,16.106-22.091,21.805a1.507,1.507,0,0,0-.656,1.373l2.631,30.317s12.516,5.067,28.312-.608c0,0,7.005-19.223,7.005-28.464S427.067,145.11,427.067,145.11Z" fill="#e64980"/>
          <path id="Path_14175" data-name="Path 14175" d="M430.378,145.207a24.592,24.592,0,0,1,1.045-5.468c3.323-2.339,3.87-5.128,1.756-4.526a.128.128,0,0,1-.17-.158c.893-2.673.091-4.63-1.16-5.553-1.665-1.215-4.393-.365-6.385,2.333-2.941,3.986-3.9,8.646-2.351,9.788a3.749,3.749,0,0,0,2.746.279c-.541,2.017-2.764,3.8-1.446,4.86C426.161,148.142,430.457,146.422,430.378,145.207Z" fill="#f5a7a8"/>
          <path id="Path_14176" data-name="Path 14176" d="M429.053,135.486a1.519,1.519,0,0,0-1.877-1.069,1.173,1.173,0,0,1,1.725-.729C429.631,134.058,429.922,135.322,429.053,135.486Z" fill="#212529"/>
          <path id="Path_14177" data-name="Path 14177" d="M423.9,136.926a4.811,4.811,0,0,0-.419,1.7,2.831,2.831,0,0,0,3.967-.328C426.271,138.366,424.248,137.692,423.9,136.926Z" fill="#fff"/>
          <path id="Path_14178" data-name="Path 14178" d="M429.849,140.231a26.238,26.238,0,0,1-3.992,1.61c-.4,1.5-1.725,2.862-1.823,3.907C426.283,145.274,428.853,142.625,429.849,140.231Z" fill="#f68687"/>
          <path id="Path_14179" data-name="Path 14179" d="M435.263,198.01s5.255-14.417,6.683-24.3l-.1-.152-10.681,2.272a210.375,210.375,0,0,1-2.764,24.041,45.982,45.982,0,0,0,6.865-1.859Z" fill="#d6336c"/>
          <path id="Path_14180" data-name="Path 14180" d="M488.339,268.159c-14.928,10.329-29.236,15.377-43.374,15.377-.723,0-1.452,0-2.175-.043-18.834-.687-34.935-10.25-48.2-19.509-12.759-8.913-27.109-12.321-38.665-13.445a101.012,101.012,0,0,1,6.185-10.122c11.939,1.732,25.846,5.839,38.635,14.77,27.784,19.393,51.035,26.18,82.993,3.147C485.532,262.011,487.075,265.346,488.339,268.159Z" fill="#eaedf1"/>
          <path id="Path_14181" data-name="Path 14181" d="M385.637,128.681l.662-1.531c-7.084-2.631-17.17-7.339-17.236-12.844-.067-4.83,2.254-10.128,4.253-13.8-.267-.377-.529-.753-.79-1.136a1.823,1.823,0,0,0-2.983-.1,51.1,51.1,0,0,0-10.815,24.91,1.823,1.823,0,0,0,2.163,2.1,45.233,45.233,0,0,1,24.746,2.4Z" fill="#dee4ec"/>
          <path id="Path_14182" data-name="Path 14182" d="M401.391,132.667a.443.443,0,0,1-.444-.45l.079-8.506a.45.45,0,0,1,.893,0l-.079,8.506a.437.437,0,0,1-.45.45Z" fill="#d6336c"/>
          <path id="Path_14183" data-name="Path 14183" d="M403.062,133.354a.45.45,0,0,1-.443-.45l.085-8.506a.444.444,0,0,1,.45-.444.45.45,0,0,1,.444.45l-.079,8.506a.45.45,0,0,1-.456.444Z" fill="#d6336c"/>
          <path id="Path_14184" data-name="Path 14184" d="M404.739,134.149a.438.438,0,0,1-.444-.45l.079-8.506a.447.447,0,1,1,.893.012l-.079,8.506a.443.443,0,0,1-.45.437Z" fill="#d6336c"/>
          <path id="Path_14185" data-name="Path 14185" d="M406.41,134.745a.45.45,0,0,1-.444-.45l.079-8.506a.45.45,0,1,1,.9,0l-.085,8.506a.444.444,0,0,1-.45.45Z" fill="#d6336c"/>
          <path id="Path_14186" data-name="Path 14186" d="M408.086,135.486a.437.437,0,0,1-.444-.45l.079-8.506a.444.444,0,0,1,.45-.444.45.45,0,0,1,.443.456l-.079,8.506a.45.45,0,0,1-.45.437Z" fill="#d6336c"/>
          <path id="Path_14187" data-name="Path 14187" d="M409.757,136.136a.45.45,0,0,1-.443-.45l.079-8.506a.45.45,0,0,1,.456-.444.443.443,0,0,1,.437.45l-.079,8.506a.443.443,0,0,1-.45.444Z" fill="#d6336c"/>
          <circle id="Ellipse_173" data-name="Ellipse 173" cx="4.077" cy="4.077" r="4.077" transform="translate(389.232 127.783) rotate(-76.77)" fill="#d6336c"/>
          <circle id="Ellipse_174" data-name="Ellipse 174" cx="34.552" cy="34.552" r="34.552" transform="translate(279.028 159.175)" fill="#D60E00"/>
          <path id="Path_14188" data-name="Path 14188" d="M310.865,200.689h5.675a1.974,1.974,0,0,0,1.968-1.938l1.215-27.067a1.981,1.981,0,0,0-1.987-2.017l-8.378.036a1.981,1.981,0,0,0-1.968,2.035l1.464,27.055a1.981,1.981,0,0,0,2.011,1.9Z" fill="#fff"/>
          <path id="Path_14189" data-name="Path 14189" d="M313.726,206.668a5.571,5.571,0,1,0,5.6,5.547,5.571,5.571,0,0,0-5.6-5.547Z" fill="#fff"/>
        </g>
      </g>
    </g>
  </g>
</svg>
