<svg id="ic_record_voice_over_24px" xmlns="http://www.w3.org/2000/svg" width="48.096" height="41.54" viewBox="0 0 48.096 41.54">
  <circle id="Ellipse_3" data-name="Ellipse 3" cx="9.145" cy="9.145" r="9.145" transform="translate(8.535 6.097)" fill="#00A443"/>
  <path id="Path_3" data-name="Path 3" d="M18.49,30.422C12.653,30.422,1,33.351,1,39.167V43.54H35.981V39.167C35.981,33.351,24.328,30.422,18.49,30.422ZM35.456,9.346l-3.673,3.695a7.253,7.253,0,0,1,0,8.5l3.673,3.695c4.416-4.416,4.416-11.085,0-15.894ZM42.693,2,39.129,5.564a17.443,17.443,0,0,1,0,23.481l3.564,3.564C51.219,24.1,51.241,10.854,42.693,2Z" transform="translate(-1 -2)" fill="#00A443"/>
</svg>
