<svg xmlns="http://www.w3.org/2000/svg" width="111.19" height="111.19" viewBox="0 0 111.19 111.19">
  <path id="error_outline_black_24dp_1_" data-name="error_outline_black_24dp (1)" d="M57.595,29.8a5.576,5.576,0,0,1,5.559,5.56V57.595a5.559,5.559,0,0,1-11.119,0V35.357A5.576,5.576,0,0,1,57.595,29.8ZM57.539,2A55.6,55.6,0,1,0,113.19,57.595,55.568,55.568,0,0,0,57.539,2Zm.056,100.071a44.476,44.476,0,1,1,44.476-44.476A44.464,44.464,0,0,1,57.595,102.071Zm5.559-16.679H52.035V74.274H63.154Z" transform="translate(-2 -2)" fill="#ff5a00"/>
</svg>
