<svg xmlns="http://www.w3.org/2000/svg" width="20.387" height="15.304" viewBox="0 0 20.387 15.304">
  <path id="Path_11" data-name="Path 11" d="M10.155,5A2.023,2.023,0,0,0,8.37,6.084,5.775,5.775,0,0,0,5.536,7.612H5.5V7.58L2.351,10.351,2,10.638V20.29H6.905a7.952,7.952,0,0,0,6.435-2.676l.064-.032c.446-.414,1-.856,1.5-1.37h5.446a2.042,2.042,0,0,0,2.039-2.039V7.039A2.042,2.042,0,0,0,20.348,5Zm0,2.039H20.348V9.077H10.155ZM8.116,8.28v4.874l-.287.192a1.019,1.019,0,1,0,1.179,1.662s1-.7,2.1-1.4h.035v-.032a6.031,6.031,0,0,1,2.166-1.112c.394-.059.434-.048.733.319l.032.032c.255.29.29.434.287.573a1.352,1.352,0,0,1-.287.638,17.339,17.339,0,0,1-2.066,2.061c-1.573,1.469-1.831,2.166-5.1,2.166H4.039V11.562l2.8-2.42.032-.032A4.638,4.638,0,0,1,8.116,8.28Z" transform="translate(-2 -5)" fill="#fff"/>
</svg>
