<svg xmlns="http://www.w3.org/2000/svg" width="111.189" height="111.189" viewBox="0 0 111.189 111.189">
  <path id="Path_14131" data-name="Path 14131" d="M57.595,2a55.595,55.595,0,1,0,55.595,55.595A55.615,55.615,0,0,0,57.595,2Zm0,100.07A44.476,44.476,0,1,1,102.07,57.595,44.535,44.535,0,0,1,57.595,102.07Zm21.571-65.1-32.69,32.69L36.024,59.207a5.543,5.543,0,1,0-7.839,7.839l14.4,14.4a5.536,5.536,0,0,0,7.839,0L87.06,44.808a5.537,5.537,0,0,0,0-7.839,5.6,5.6,0,0,0-7.894,0Z" transform="translate(-2 -2)" fill="#00A443"/>
</svg>
