<svg xmlns="http://www.w3.org/2000/svg" width="111.19" height="111.19" viewBox="0 0 111.19 111.19">
  <path id="Path_14196" data-name="Path 14196" d="M57.539,2A55.6,55.6,0,1,0,113.19,57.6,55.568,55.568,0,0,0,57.539,2ZM57.6,102.071A44.476,44.476,0,1,1,102.071,57.6,44.464,44.464,0,0,1,57.6,102.071ZM56.372,29.8h-.334a3.986,3.986,0,0,0-4,4V60.041a5.5,5.5,0,0,0,2.724,4.781L77.832,78.666a3.976,3.976,0,1,0,4.058-6.838L60.375,59.04V33.8a3.986,3.986,0,0,0-4-4Z" transform="translate(-2 -2)" fill="#00A443"/>
</svg>
