<svg xmlns="http://www.w3.org/2000/svg" width="52.257" height="36.58" viewBox="0 0 52.257 36.58">
  <path id="ic_supervisor_account_24px" d="M39.887,23.29a6.532,6.532,0,1,0-6.532-6.532A6.512,6.512,0,0,0,39.887,23.29Zm-19.6-2.613a7.839,7.839,0,1,0-7.839-7.839A7.806,7.806,0,0,0,20.29,20.677Zm19.6,7.839c-4.782,0-14.371,2.4-14.371,7.185V41.58H54.257V35.7C54.257,30.92,44.668,28.516,39.887,28.516ZM20.29,25.9C14.2,25.9,2,28.96,2,35.048V41.58H20.29V35.7c0-2.221.862-6.114,6.192-9.067A32.094,32.094,0,0,0,20.29,25.9Z" transform="translate(-2 -5)" fill="#00A443"/>
</svg>
