<svg xmlns="http://www.w3.org/2000/svg" width="44.925" height="36.58" viewBox="0 0 44.925 36.58">
  <path id="Icon_awesome-home" data-name="Icon awesome-home" d="M21.866,11.743,7.487,24.144V37.527a1.278,1.278,0,0,0,1.248,1.307l8.739-.024A1.279,1.279,0,0,0,18.716,37.5V29.688a1.278,1.278,0,0,1,1.248-1.307h4.991A1.278,1.278,0,0,1,26.2,29.688V37.5a1.339,1.339,0,0,0,.364.927,1.22,1.22,0,0,0,.884.384l8.736.025a1.278,1.278,0,0,0,1.248-1.307V24.135L23.059,11.743A.918.918,0,0,0,21.866,11.743Zm22.713,8.428-6.52-5.627V3.233a.959.959,0,0,0-.936-.98H32.755a.959.959,0,0,0-.936.98V9.163L24.837,3.148a3.614,3.614,0,0,0-4.757,0L.339,20.172a1.012,1.012,0,0,0-.125,1.38L2.2,24.083a.924.924,0,0,0,.633.353.908.908,0,0,0,.686-.22L21.866,8.4a.918.918,0,0,1,1.193,0L41.4,24.216a.907.907,0,0,0,1.318-.131l1.989-2.531a1.012,1.012,0,0,0,.208-.72.994.994,0,0,0-.341-.662Z" transform="translate(0.001 -2.254)" fill="#00A443"/>
</svg>
