<svg xmlns="http://www.w3.org/2000/svg" width="36.58" height="36.58" viewBox="0 0 36.58 36.58">
  <path id="ic_portrait_24px" d="M21.29,21.8a4.573,4.573,0,1,0-4.573-4.573A4.579,4.579,0,0,0,21.29,21.8Zm9.145,8.129c0-3.048-6.1-4.573-9.145-4.573s-9.145,1.524-9.145,4.573v1.524h18.29ZM35.516,3H7.064A4.076,4.076,0,0,0,3,7.064V35.516A4.076,4.076,0,0,0,7.064,39.58H35.516a4.076,4.076,0,0,0,4.064-4.064V7.064A4.076,4.076,0,0,0,35.516,3Zm0,32.516H7.064V7.064H35.516Z" transform="translate(-3 -3)" fill="#00A443"/>
</svg>
