<svg id="Grupo_39707" data-name="Grupo 39707" xmlns="http://www.w3.org/2000/svg" width="24" height="24" viewBox="0 0 24 24">
  <g id="icon" transform="translate(3 3)">
    <path id="Caminho_14176" data-name="Caminho 14176" d="M9.49,14.961a.846.846,0,0,0,.543-.2.8.8,0,0,0,.267-.6v-.623a2.533,2.533,0,0,0,2.164-2.031A2.436,2.436,0,0,0,12.144,9.9a2.7,2.7,0,0,0-1.425-1.024A6.459,6.459,0,0,0,9.668,8.62a6.3,6.3,0,0,1-.98-.249,1.187,1.187,0,0,1-.365-.2l-.107-.107.009-.009S8.2,7.987,8.19,7.987V7.836a.53.53,0,0,1,.045-.258s.062-.116.08-.142c0-.018.053-.071.134-.142a1.332,1.332,0,0,1,.632-.214,2.4,2.4,0,0,1,.356-.027,1.612,1.612,0,0,1,1.122.4.9.9,0,0,1,.2.312l.027.08a.764.764,0,0,0,.757.615.848.848,0,0,0,.668-.321.8.8,0,0,0,.151-.677,2.619,2.619,0,0,0-1.5-1.719,2.95,2.95,0,0,0-.579-.2V4.932a.811.811,0,0,0-1.621-.009v.561a2.687,2.687,0,0,0-1.576.873,2.272,2.272,0,0,0-.356,2.333c.463,1.1,1.719,1.345,2.627,1.523.16.036.321.062.463.1.739.169.926.41.971.534a.736.736,0,0,1-.347.944,1.608,1.608,0,0,1-.828.2,3.291,3.291,0,0,1-.784-.107,1.286,1.286,0,0,1-1.015-1,.763.763,0,0,0-.757-.606.848.848,0,0,0-.668.321.784.784,0,0,0-.142.686,2.843,2.843,0,0,0,1.185,1.746,3.513,3.513,0,0,0,1.22.481v.659A.8.8,0,0,0,9.49,14.961Z" transform="translate(-0.682 -0.452)" fill="#00A443"/>
    <path id="Caminho_14177" data-name="Caminho 14177" d="M1.114,6.876a.8.8,0,0,0,.374-.089l2.378-1.1a.729.729,0,0,0,.419-.846.853.853,0,0,0-.819-.668.75.75,0,0,0-.24.036A7.471,7.471,0,0,1,7.535,1.71a6.776,6.776,0,0,1,1.274-.116,7.49,7.49,0,0,1,5.175,2.12,7.412,7.412,0,0,1,2.2,5.255.8.8,0,0,0,.819.8.829.829,0,0,0,.579-.232.8.8,0,0,0,.223-.561A9.013,9.013,0,0,0,7.1.16,8.918,8.918,0,0,0,1.639,3.571L1.621,3.42a.829.829,0,0,0-.81-.766A.849.849,0,0,0,.2,2.939a.717.717,0,0,0-.187.579l.3,2.6A.813.813,0,0,0,1.114,6.876Z" transform="translate(0 0)" fill="#00A443"/>
    <path id="Caminho_14178" data-name="Caminho 14178" d="M16.7,12.124a.8.8,0,0,0-.374.089l-2.369,1.1a.735.735,0,0,0-.427.846.853.853,0,0,0,.819.668.75.75,0,0,0,.24-.036,7.411,7.411,0,0,1-4.311,2.485A6.776,6.776,0,0,1,9,17.4a7.49,7.49,0,0,1-5.174-2.12,7.412,7.412,0,0,1-2.2-5.255.8.8,0,0,0-.819-.8.829.829,0,0,0-.579.232A.854.854,0,0,0,0,10.031a8.978,8.978,0,0,0,16.165,5.388l.018.151a.829.829,0,0,0,.81.766.853.853,0,0,0,.623-.285.719.719,0,0,0,.187-.57l-.3-2.6A.813.813,0,0,0,16.7,12.124Z" transform="translate(0 -1.009)" fill="#00A443"/>
  </g>
  <rect id="Retângulo_18764" data-name="Retângulo 18764" width="24" height="24" fill="none"/>
</svg>
