<svg xmlns="http://www.w3.org/2000/svg" width="20" height="20" viewBox="0 0 20 20">
  <g id="download_for_offline_black_18dp" transform="translate(-0.283)">
    <g id="Group_39985" data-name="Group 39985">
      <rect id="Rectangle_18795" data-name="Rectangle 18795" width="20" height="20" transform="translate(0.283)" fill="none"/>
    </g>
    <g id="Group_39986" data-name="Group 39986" transform="translate(1.329 1.329)">
      <path id="Path_14225" data-name="Path 14225" d="M10.671,2a8.671,8.671,0,1,0,8.671,8.671A8.685,8.685,0,0,0,10.671,2ZM9.8,8.937v-2.6a.87.87,0,0,1,.867-.867h0a.87.87,0,0,1,.867.867v2.6H13.09a.429.429,0,0,1,.3.737l-2.419,2.419a.429.429,0,0,1-.616,0L7.939,9.674a.433.433,0,0,1,.312-.737Zm4.335,6.07H7.2a.87.87,0,0,1-.867-.867h0a.87.87,0,0,1,.867-.867h6.937a.87.87,0,0,1,.867.867h0A.87.87,0,0,1,14.139,15.006Z" transform="translate(-2 -2)" fill="#fff"/>
    </g>
  </g>
</svg>
