<svg id="forward_to_inbox-24px" xmlns="http://www.w3.org/2000/svg" width="24" height="24" viewBox="0 0 24 24">
  <rect id="Retângulo_18766" data-name="Retângulo 18766" width="24" height="24" fill="none"/>
  <path id="Caminho_14181" data-name="Caminho 14181" d="M20,4H4A2.006,2.006,0,0,0,2,6V18a2.006,2.006,0,0,0,2,2h9V18H4V8l6.94,4.34a1.981,1.981,0,0,0,2.12,0L20,8v5h2V6A2.006,2.006,0,0,0,20,4Zm-8,7L4,6H20Zm7,5.21a.5.5,0,0,1,.85-.35l2.79,2.79a.5.5,0,0,1,0,.71l-2.79,2.79a.5.5,0,0,1-.85-.36V20H16a1,1,0,0,1-1-1h0a1,1,0,0,1,1-1h3Z" fill="#00A443" />
</svg>
