<svg xmlns="http://www.w3.org/2000/svg" width="20.445" height="16.355" viewBox="0 0 20.445 16.355">
  <path id="ic_pageview_24px" d="M11.711,9.111a2.556,2.556,0,1,0,2.556,2.556A2.556,2.556,0,0,0,11.711,9.111ZM20.4,4H4.044A2.044,2.044,0,0,0,2,6.044V18.311a2.044,2.044,0,0,0,2.044,2.044H20.4a2.044,2.044,0,0,0,2.044-2.044V6.044A2.044,2.044,0,0,0,20.4,4ZM17.119,18.526l-2.973-2.975a4.533,4.533,0,0,1-2.444.716,4.63,4.63,0,1,1,3.9-2.156l2.975,2.964Z" transform="translate(-2 -4)" fill="#00A443"/>
</svg>
