<svg xmlns="http://www.w3.org/2000/svg" width="20" height="20" viewBox="0 0 20 20">
  <g id="Facebook" transform="translate(-0.162 0.318)">
    <path id="Combined_Shape" data-name="Combined Shape" d="M10,20A10,10,0,0,1,6.107.786a10,10,0,0,1,7.785,18.428A9.938,9.938,0,0,1,10,20ZM7.667,8.565v1.875H8.791v5.44h2.251v-5.44h1.5l.2-1.875h-1.7l0-.938c0-.48.035-.751.749-.751h.939V5h-1.5a2.442,2.442,0,0,0-1.9.646,2.553,2.553,0,0,0-.543,1.793V8.565Z" transform="translate(0.162 -0.318)" fill="#fff"/>
  </g>
</svg>
