<svg xmlns="http://www.w3.org/2000/svg" width="32.922" height="36.58" viewBox="0 0 32.922 36.58">
  <path id="ic_assignment_24px" d="M32.264,4.658H24.619a5.465,5.465,0,0,0-10.316,0H6.658A3.669,3.669,0,0,0,3,8.316V33.922A3.669,3.669,0,0,0,6.658,37.58H32.264a3.669,3.669,0,0,0,3.658-3.658V8.316A3.669,3.669,0,0,0,32.264,4.658Zm-12.8,0a1.829,1.829,0,1,1-1.829,1.829A1.834,1.834,0,0,1,19.461,4.658Zm3.658,25.606h-12.8V26.606h12.8Zm5.487-7.316H10.316V19.29h18.29Zm0-7.316H10.316V11.974h18.29Z" transform="translate(-3 -1)" fill="#00A443"/>
</svg>
