<svg xmlns="http://www.w3.org/2000/svg" width="27" height="27" viewBox="0 0 27 27">
  <path id="Exclusion_8" data-name="Exclusion 8" d="M13.5,27A13.5,13.5,0,0,1,3.954,3.954,13.5,13.5,0,1,1,23.046,23.046,13.412,13.412,0,0,1,13.5,27ZM8.416,7A1.417,1.417,0,0,0,7,8.416v9.913a1.417,1.417,0,0,0,1.416,1.416h9.913a1.417,1.417,0,0,0,1.416-1.416V8.416A1.417,1.417,0,0,0,18.329,7Zm9.913,11.328H8.416V8.416h9.913v9.912Zm-4.956-3.541c-1.112,0-3.186.547-3.186,1.593v.531h6.372v-.531C16.558,15.335,14.484,14.788,13.372,14.788Zm0-4.425a1.593,1.593,0,1,0,1.593,1.594A1.6,1.6,0,0,0,13.372,10.363Z" fill="#fff"/>
</svg>
