<svg xmlns="http://www.w3.org/2000/svg" width="27" height="27" viewBox="0 0 27 27">
  <path id="Exclusion_7" data-name="Exclusion 7" d="M13.5,27A13.5,13.5,0,0,1,3.954,3.954,13.5,13.5,0,1,1,23.046,23.046,13.412,13.412,0,0,1,13.5,27ZM11.556,16.029C9.617,16.029,6,16.983,6,18.806V20.2H17.113v-1.39C17.113,16.983,13.5,16.029,11.556,16.029ZM19.245,7,18.112,8.132a5.527,5.527,0,0,1,0,7.459l1.132,1.131A6.8,6.8,0,0,0,19.245,7ZM11.616,8.937a2.905,2.905,0,1,0,2.905,2.905A2.908,2.908,0,0,0,11.616,8.937Zm5.329.4-1.166,1.174a2.3,2.3,0,0,1,0,2.7l1.166,1.174A3.558,3.558,0,0,0,16.945,9.334Z" fill="#fff"/>
</svg>
