<svg xmlns="http://www.w3.org/2000/svg" width="27" height="27" viewBox="0 0 27 27">
  <path id="Exclusion_2" data-name="Exclusion 2" d="M13.5,27A13.5,13.5,0,0,1,3.954,3.954,13.5,13.5,0,1,1,23.046,23.046,13.412,13.412,0,0,1,13.5,27Zm3.6-11.49c-1.6,0-4.589.788-4.589,2.294v1.877h9.178V17.8C21.688,16.3,18.7,15.51,17.1,15.51Zm-6.259-.834c-2.038,0-5.84,1-5.84,2.92v2.085h5.84V17.8a3.3,3.3,0,0,1,1.978-2.9A10.332,10.332,0,0,0,10.84,14.675ZM17.1,9.669a2.086,2.086,0,1,0,2.077,2.086A2.089,2.089,0,0,0,17.1,9.669ZM10.84,8a2.5,2.5,0,1,0,2.495,2.5A2.506,2.506,0,0,0,10.84,8Z" fill="#fff"/>
</svg>
