<svg xmlns="http://www.w3.org/2000/svg" width="27" height="27" viewBox="0 0 27 27">
  <path id="Exclusion_5" data-name="Exclusion 5" d="M13.5,27A13.5,13.5,0,0,1,3.954,3.954,13.5,13.5,0,1,1,23.046,23.046,13.412,13.412,0,0,1,13.5,27ZM12.145,16.349H13.93a.458.458,0,0,1,.446.467v2.8a.478.478,0,0,0,.13.331.439.439,0,0,0,.317.138l3.126.009a.458.458,0,0,0,.446-.467V14.83L13.252,10.4a.328.328,0,0,0-.427,0L7.68,14.833v4.79a.458.458,0,0,0,.446.467l3.128-.008a.46.46,0,0,0,.445-.468v-2.8A.458.458,0,0,1,12.145,16.349Zm.894-7.231a.332.332,0,0,1,.213.078l6.566,5.662a.325.325,0,0,0,.472-.047L21,13.907a.366.366,0,0,0,.074-.258.356.356,0,0,0-.122-.237L18.619,11.4V7.35A.344.344,0,0,0,18.284,7H16.722a.344.344,0,0,0-.335.351V9.472l-2.5-2.153a1.292,1.292,0,0,0-1.7,0L5.121,13.412a.363.363,0,0,0-.044.494l.712.905a.326.326,0,0,0,.226.126l.033,0a.325.325,0,0,0,.213-.08L12.825,9.2A.332.332,0,0,1,13.038,9.119Z" fill="#fff"/>
</svg>
