<svg id="leaderboard_black_24dp" xmlns="http://www.w3.org/2000/svg" width="24" height="24" viewBox="0 0 24 24">
  <rect id="Retângulo_18762" data-name="Retângulo 18762" width="24" height="24" fill="none"/>
  <g id="Grupo_39704" data-name="Grupo 39704" transform="translate(2 3)">
    <path id="Caminho_14173" data-name="Caminho 14173" d="M6.5,21H3a1,1,0,0,1-1-1V10A1,1,0,0,1,3,9H6.5a1,1,0,0,1,1,1V20A1,1,0,0,1,6.5,21ZM13.75,3h-3.5a1,1,0,0,0-1,1V20a1,1,0,0,0,1,1h3.5a1,1,0,0,0,1-1V4A1,1,0,0,0,13.75,3ZM21,11H17.5a1,1,0,0,0-1,1v8a1,1,0,0,0,1,1H21a1,1,0,0,0,1-1V12A1,1,0,0,0,21,11Z" transform="translate(-2 -3)" fill="#00A443"/>
  </g>
</svg>
