<svg xmlns="http://www.w3.org/2000/svg" width="32.159" height="35.732" viewBox="0 0 32.159 35.732">
  <path id="ic_event_available_24px" d="M27.173,18.973,25.279,17.08,16.56,25.8l-3.788-3.788L10.879,23.9l5.681,5.681L27.173,18.973Zm4.413-14.4H29.8V1H26.226V4.573H11.933V1H8.36V4.573H6.573A3.557,3.557,0,0,0,3.018,8.146L3,33.159a3.572,3.572,0,0,0,3.573,3.573H31.586a3.584,3.584,0,0,0,3.573-3.573V8.146A3.584,3.584,0,0,0,31.586,4.573Zm0,28.586H6.573V13.506H31.586Z" transform="translate(-3 -1)" fill="#00A443"/>
</svg>
