<svg xmlns="http://www.w3.org/2000/svg" width="20" height="20" viewBox="0 0 20 20">
  <g id="Instagram" transform="translate(-0.162 -0.322)">
    <path id="Combined_Shape" data-name="Combined Shape" d="M10,20A10,10,0,0,1,6.107.786a10,10,0,0,1,7.785,18.428A9.938,9.938,0,0,1,10,20ZM10,4.667H9.805c-1.258,0-1.454.007-2,.031a3.939,3.939,0,0,0-1.294.248,2.726,2.726,0,0,0-1.56,1.56A3.919,3.919,0,0,0,4.7,7.8c-.026.579-.032.77-.032,2.2s.006,1.626.032,2.2a3.947,3.947,0,0,0,.248,1.294,2.729,2.729,0,0,0,1.559,1.56A3.947,3.947,0,0,0,7.8,15.3c.573.026.762.032,2.2.032s1.626-.006,2.2-.032a3.945,3.945,0,0,0,1.3-.248,2.733,2.733,0,0,0,1.56-1.56A3.979,3.979,0,0,0,15.3,12.2c.026-.579.032-.77.032-2.2s-.006-1.62-.032-2.2a3.982,3.982,0,0,0-.248-1.294,2.729,2.729,0,0,0-1.56-1.56A3.956,3.956,0,0,0,12.2,4.7C11.625,4.673,11.435,4.667,10,4.667Z" transform="translate(0.162 0.322)" fill="#00A443" />
    <path id="Combined_Shape-2" data-name="Combined Shape" d="M4.443,8.885c-1.447,0-1.619-.005-2.19-.031a3.012,3.012,0,0,1-1.006-.187,1.683,1.683,0,0,1-.623-.405,1.681,1.681,0,0,1-.406-.623A3,3,0,0,1,.031,6.633C.005,6.067,0,5.9,0,4.442S.005,2.819.031,2.253A3,3,0,0,1,.218,1.246,1.685,1.685,0,0,1,.623.623,1.683,1.683,0,0,1,1.247.217,3,3,0,0,1,2.253.03c.5-.023.692-.029,1.7-.03h.486C5.9,0,6.069.007,6.633.033A3.007,3.007,0,0,1,7.64.219a1.675,1.675,0,0,1,.623.405,1.681,1.681,0,0,1,.405.623,3,3,0,0,1,.187,1.006c.026.57.032.741.032,2.19s-.006,1.619-.032,2.189a3,3,0,0,1-.187,1.006A1.8,1.8,0,0,1,7.64,8.667a2.983,2.983,0,0,1-1.006.187C6.062,8.88,5.891,8.885,4.443,8.885Zm0-7.224A2.783,2.783,0,1,0,7.226,4.445,2.787,2.787,0,0,0,4.443,1.661ZM7.337.9a.65.65,0,1,0,.65.65A.651.651,0,0,0,7.337.9Z" transform="translate(5.72 5.718)" fill="#00A443" />
    <path id="Shape" d="M1.807,0A1.807,1.807,0,1,1,0,1.807,1.807,1.807,0,0,1,1.807,0Z" transform="translate(8.356 8.356)" fill="#00A443" />
  </g>
</svg>
