<svg xmlns="http://www.w3.org/2000/svg" width="25.893" height="25" viewBox="0 0 25.893 25">
  <path id="Caminho_14209" data-name="Caminho 14209" d="M7.829,22.727h4.6a2.3,2.3,0,0,1-4.6,0Zm-2.3-2.273a1.147,1.147,0,0,0,1.151,1.136h6.9a1.136,1.136,0,1,0,0-2.273h-6.9A1.147,1.147,0,0,0,5.528,20.455ZM18.762,10.8a8.554,8.554,0,0,1-4.338,7.386H5.838A8.554,8.554,0,0,1,1.5,10.8a8.58,8.58,0,0,1,8.631-8.523A8.58,8.58,0,0,1,18.762,10.8Zm5.6-2.42-1.577.716,1.577.716.725,1.557.725-1.557,1.577-.716-1.577-.716-.725-1.557ZM21.639,6.818l1.082-2.341,2.371-1.068L22.721,2.341,21.639,0,20.557,2.341,18.187,3.409l2.371,1.068Z" transform="translate(-1.5)" fill="#007F33"/>
</svg>
