<svg id="pix-banco-central-seeklogo.com" xmlns="http://www.w3.org/2000/svg" width="20" height="20" viewBox="0 0 20 20">
  <path id="Path_14239" data-name="Path 14239" d="M164.585,456.134a2.92,2.92,0,0,1-2.077-.86l-3-3a.57.57,0,0,0-.788,0l-3.011,3.011a2.92,2.92,0,0,1-2.077.86h-.591l3.8,3.8a3.038,3.038,0,0,0,4.3,0l3.81-3.81h-.362Z" transform="translate(-148.987 -440.834)" fill="#fff"/>
  <path id="Path_14240" data-name="Path 14240" d="M153.631,182.5a2.919,2.919,0,0,1,2.077.86l3.011,3.011a.558.558,0,0,0,.788,0l3-3a2.92,2.92,0,0,1,2.077-.86h.362l-3.81-3.81a3.038,3.038,0,0,0-4.3,0l-3.8,3.8Z" transform="translate(-148.987 -177.813)" fill="#fff"/>
  <path id="Path_14241" data-name="Path 14241" d="M73.613,314.812l-2.3-2.3a.441.441,0,0,1-.163.033H70.1a2.07,2.07,0,0,0-1.454.6l-3,3a1.441,1.441,0,0,1-2.036,0L60.6,313.133a2.07,2.07,0,0,0-1.454-.6H57.859a.442.442,0,0,1-.155-.031l-2.312,2.311a3.038,3.038,0,0,0,0,4.3L57.7,321.42a.442.442,0,0,1,.155-.031h1.287a2.07,2.07,0,0,0,1.453-.6l3.011-3.011a1.474,1.474,0,0,1,2.036,0l3,3a2.068,2.068,0,0,0,1.454.6h1.047a.443.443,0,0,1,.164.033l2.3-2.3a3.038,3.038,0,0,0,0-4.3Z" transform="translate(-54.503 -306.96)" fill="#fff"/>
</svg>
