<svg xmlns="http://www.w3.org/2000/svg" width="20" height="20" viewBox="0 0 20 20">
  <g id="Twitter" transform="translate(-0.162 0.358)">
    <path id="Combined_Shape" data-name="Combined Shape" d="M10,20A10,10,0,0,1,6.107.786a10,10,0,0,1,7.785,18.428A9.938,9.938,0,0,1,10,20ZM5.321,8.843c-.011,0-.017,0-.02.006a2.517,2.517,0,0,0,.252.946,2.254,2.254,0,0,0,.958.9l.343.162-.406.007c-.251,0-.342,0-.37.041s-.009.061.006.115a2.111,2.111,0,0,0,1.308,1.158l.433.148-.378.226a3.969,3.969,0,0,1-1.874.523A2.074,2.074,0,0,0,5,13.135a5.284,5.284,0,0,0,1.35.621A5.655,5.655,0,0,0,8.017,14a5.827,5.827,0,0,0,2.922-.766,6.109,6.109,0,0,0,2.329-2.74,7.312,7.312,0,0,0,.476-2.118c0-.327.023-.369.412-.756a4.538,4.538,0,0,0,.49-.544c.026-.049.041-.08.033-.094s-.011-.008-.023-.008a1.593,1.593,0,0,0-.3.088,1.962,1.962,0,0,1-.49.136c-.031,0-.05-.007-.056-.022-.015-.035.035-.111.162-.248a2.054,2.054,0,0,0,.475-.756s0-.006-.011-.006a.7.7,0,0,0-.212.084,3.908,3.908,0,0,1-.616.24l-.378.12-.343-.233a2.831,2.831,0,0,0-.595-.311A2.178,2.178,0,0,0,11.73,6a2.124,2.124,0,0,0-.665.094A2.017,2.017,0,0,0,9.7,8.128l.021.346-.35-.042A5.7,5.7,0,0,1,6.042,6.793l-.462-.459-.119.339A2.043,2.043,0,0,0,5.9,8.764c.127.134.179.212.164.246-.006.014-.023.021-.052.021a1.417,1.417,0,0,1-.378-.1A1.433,1.433,0,0,0,5.321,8.843Z" transform="translate(0.162 -0.358)" fill="#fff"/>
  </g>
</svg>
