<svg xmlns="http://www.w3.org/2000/svg" width="20" height="20" viewBox="0 0 20 20">
  <g id="Youtube" transform="translate(-0.162 -0.002)">
    <path id="Combined_Shape" data-name="Combined Shape" d="M10,20A10,10,0,0,1,6.107.786a10,10,0,0,1,7.785,18.428A9.938,9.938,0,0,1,10,20ZM10,6.333a31.164,31.164,0,0,0-4.167.229,1.354,1.354,0,0,0-.943.968,14.724,14.724,0,0,0-.223,2.636A14.724,14.724,0,0,0,4.889,12.8a1.354,1.354,0,0,0,.943.968A31.164,31.164,0,0,0,10,14a31.162,31.162,0,0,0,4.167-.229,1.354,1.354,0,0,0,.943-.968,14.7,14.7,0,0,0,.223-2.636,14.7,14.7,0,0,0-.223-2.636,1.354,1.354,0,0,0-.943-.968A31.162,31.162,0,0,0,10,6.333Z" transform="translate(0.162 0.002)" fill="#00A443" />
    <path id="Fill_2" data-name="Fill 2" d="M0,3.388V0L2.71,1.694Z" transform="translate(9.146 8.808)" fill="#00A443" />
  </g>
</svg>
