<svg id="Layer_1" data-name="Layer 1" xmlns="http://www.w3.org/2000/svg" viewBox="0 0 24 24"><defs><style>.cls-1{fill:#fff;}</style></defs><path class="cls-1" d="M16.12,17.92H7.88A.89.89,0,0,1,7,17V5.57a.88.88,0,0,1,.88-.88h8.24a.88.88,0,0,1,.88.88V17A.89.89,0,0,1,16.12,17.92ZM7.88,5.21a.36.36,0,0,0-.36.36V17a.37.37,0,0,0,.36.37h8.24a.37.37,0,0,0,.36-.37V5.57a.36.36,0,0,0-.36-.36Z"/><path class="cls-1" d="M10.88,19.31H9.76a.26.26,0,0,1-.26-.26v-.63H10v.37h.6V17.74h.52v1.31A.25.25,0,0,1,10.88,19.31Z"/><path class="cls-1" d="M14.24,19.31H13.12a.25.25,0,0,1-.26-.26v-.63h.52v.37H14V17.74h.52v1.31A.26.26,0,0,1,14.24,19.31Z"/><path class="cls-1" d="M14.83,16.43H9.17a.26.26,0,0,1-.26-.26V13.42a.26.26,0,0,1,.52,0v2.49h5.14V12.6H9.17a.26.26,0,1,1,0-.51h5.66a.26.26,0,0,1,.26.25v3.83A.26.26,0,0,1,14.83,16.43Z"/><path class="cls-1" d="M13.63,14.58H10.37a.25.25,0,0,1-.26-.25v-1a.26.26,0,0,1,.26-.26h3.26a.26.26,0,0,1,.26.26v1A.25.25,0,0,1,13.63,14.58Zm-3-.51h2.76v-.5H10.62Z"/><rect class="cls-1" x="10.11" y="15" width="0.91" height="0.52"/><rect class="cls-1" x="12.99" y="15" width="0.91" height="0.52"/><rect class="cls-1" x="11.55" y="15" width="0.91" height="0.52"/></svg>