<svg id="Layer_1" data-name="Layer 1" xmlns="http://www.w3.org/2000/svg" viewBox="0 0 197 380"><defs><style>.cls-1{fill:#FFFAF6;}.cls-2{isolation:isolate;}.cls-3{fill:#26BF64;}.cls-4{fill:#658e3d;}.cls-5{fill:#fff;}</style></defs><g id="resI"><g id="Group_14514" data-name="Group 14514"><path id="Rectangle_17486" data-name="Rectangle 17486" class="cls-1" d="M27.14,23.26h177a10,10,0,0,1,10,10v360a10,10,0,0,1-10,10h-177a10,10,0,0,1-10-10v-360A10,10,0,0,1,27.14,23.26Z" transform="translate(-17.14 -23.26)"/></g><g id="Group_14568" data-name="Group 14568"><g class="cls-2"><path class="cls-3" d="M69.63,196.81h-2l-4-6.55v6.55H61.54v-9.95h2.05l4,6.56v-6.56h2Z" transform="translate(-17.14 -23.26)"/><path class="cls-3" d="M77.17,194.76h-3.6l-.68,2.05H70.71l3.7-9.95h1.9L80,196.81H77.86ZM78,184.29a1.9,1.9,0,0,1-.45,1.29,1.41,1.41,0,0,1-1.1.53,1.56,1.56,0,0,1-.46-.06,3,3,0,0,1-.56-.25,3.26,3.26,0,0,0-.51-.24,1.27,1.27,0,0,0-.34,0,.57.57,0,0,0-.41.17.69.69,0,0,0-.17.49l-1.15-.07a1.91,1.91,0,0,1,.45-1.29,1.37,1.37,0,0,1,1.1-.54,1.58,1.58,0,0,1,.38.05,5.4,5.4,0,0,1,.59.25,2.93,2.93,0,0,0,.57.24,1.24,1.24,0,0,0,.33,0,.56.56,0,0,0,.41-.16.66.66,0,0,0,.18-.49Zm-3.83,8.81h2.48l-1.25-3.72Z" transform="translate(-17.14 -23.26)"/><path class="cls-3" d="M89,192.06a6,6,0,0,1-.52,2.58A3.9,3.9,0,0,1,87,196.35a4.37,4.37,0,0,1-4.42,0,4,4,0,0,1-1.51-1.69,6,6,0,0,1-.54-2.54v-.5a6,6,0,0,1,.53-2.58,4,4,0,0,1,1.5-1.72,4.37,4.37,0,0,1,4.42,0,3.89,3.89,0,0,1,1.5,1.72,6,6,0,0,1,.53,2.58Zm-2.08-.45a4.23,4.23,0,0,0-.56-2.38,2,2,0,0,0-3.19,0,4.23,4.23,0,0,0-.57,2.36v.48a4.28,4.28,0,0,0,.56,2.37,1.83,1.83,0,0,0,1.62.84,1.81,1.81,0,0,0,1.58-.81,4.18,4.18,0,0,0,.56-2.36Z" transform="translate(-17.14 -23.26)"/><path class="cls-3" d="M99.14,194.2a1.06,1.06,0,0,0-.41-.89,5.42,5.42,0,0,0-1.48-.66,10.11,10.11,0,0,1-1.69-.68,2.75,2.75,0,0,1-1.69-2.46,2.42,2.42,0,0,1,.45-1.44,3,3,0,0,1,1.31-1,4.82,4.82,0,0,1,1.91-.36,4.45,4.45,0,0,1,1.9.39,3,3,0,0,1,1.29,1.09,2.84,2.84,0,0,1,.47,1.6H99.14a1.32,1.32,0,0,0-.43-1.06,1.72,1.72,0,0,0-1.21-.38,1.91,1.91,0,0,0-1.17.31,1,1,0,0,0-.41.84,1,1,0,0,0,.49.82,5.61,5.61,0,0,0,1.44.61,6.29,6.29,0,0,1,2.55,1.31,2.6,2.6,0,0,1,.8,1.94,2.41,2.41,0,0,1-1,2,4.34,4.34,0,0,1-2.63.73,5.11,5.11,0,0,1-2.1-.42,3.38,3.38,0,0,1-1.43-1.15,2.91,2.91,0,0,1-.5-1.7h2.06c0,1.1.65,1.65,2,1.65a1.93,1.93,0,0,0,1.14-.3A1,1,0,0,0,99.14,194.2Z" transform="translate(-17.14 -23.26)"/><path class="cls-3" d="M108.2,194.76h-3.59l-.69,2.05h-2.18l3.71-9.95h1.9l3.72,9.95h-2.18Zm-3-1.66h2.49l-1.25-3.72Z" transform="translate(-17.14 -23.26)"/><path class="cls-3" d="M112,196.81v-9.95h3.49a4.61,4.61,0,0,1,2.75.69,2.39,2.39,0,0,1,.93,2,2.29,2.29,0,0,1-.37,1.29,2.14,2.14,0,0,1-1,.81,2.14,2.14,0,0,1,1.21.78,2.29,2.29,0,0,1,.44,1.42,2.63,2.63,0,0,1-.92,2.17,4.14,4.14,0,0,1-2.61.75Zm2-5.78h1.52c1,0,1.55-.43,1.55-1.24a1.14,1.14,0,0,0-.39-1,2.06,2.06,0,0,0-1.24-.3h-1.44Zm0,1.45v2.69h1.76a1.7,1.7,0,0,0,1.13-.35,1.19,1.19,0,0,0,.41-.95,1.25,1.25,0,0,0-1.42-1.39Z" transform="translate(-17.14 -23.26)"/><path class="cls-3" d="M126.93,192.5H123v2.67h4.62v1.64h-6.67v-9.95h6.66v1.66H123v2.37h3.94Z" transform="translate(-17.14 -23.26)"/><path class="cls-3" d="M140.46,192.06a6,6,0,0,1-.45,2.42,4.22,4.22,0,0,1-1.25,1.66l1.65,1.3-1.3,1.15-2.12-1.7a4.56,4.56,0,0,1-.75.06,4.09,4.09,0,0,1-2.21-.6,4,4,0,0,1-1.51-1.69,6,6,0,0,1-.54-2.54v-.5a6,6,0,0,1,.53-2.58,4,4,0,0,1,1.5-1.72,4.37,4.37,0,0,1,4.42,0,3.89,3.89,0,0,1,1.5,1.72,6,6,0,0,1,.53,2.58Zm-2.08-.45a4.15,4.15,0,0,0-.56-2.38,2,2,0,0,0-3.19,0,4.23,4.23,0,0,0-.57,2.36v.48a4.28,4.28,0,0,0,.56,2.37,1.83,1.83,0,0,0,1.62.84,1.81,1.81,0,0,0,1.58-.81,4.18,4.18,0,0,0,.56-2.36Z" transform="translate(-17.14 -23.26)"/><path class="cls-3" d="M149.5,186.86v6.56a3.36,3.36,0,0,1-1,2.58,4.6,4.6,0,0,1-5.56,0,3.28,3.28,0,0,1-1-2.54v-6.63h2v6.57a1.88,1.88,0,0,0,.47,1.42,1.78,1.78,0,0,0,1.29.45c1.16,0,1.74-.6,1.76-1.82v-6.62Z" transform="translate(-17.14 -23.26)"/><path class="cls-3" d="M156.65,194.76h-3.6l-.68,2.05h-2.18l3.7-9.95h1.9l3.73,9.95h-2.18Zm-3-1.66h2.48l-1.25-3.72Z" transform="translate(-17.14 -23.26)"/><path class="cls-3" d="M162.5,195.17h4.35v1.64h-6.4v-9.95h2.05Z" transform="translate(-17.14 -23.26)"/></g><g class="cls-2"><path class="cls-3" d="M59.48,211.5A3.56,3.56,0,0,1,58.29,214a4.18,4.18,0,0,1-2.82.92,3.73,3.73,0,0,1-3-1.29,5.3,5.3,0,0,1-1.1-3.54v-.6a5.92,5.92,0,0,1,.51-2.53,3.78,3.78,0,0,1,1.44-1.68,4.08,4.08,0,0,1,2.19-.59,4,4,0,0,1,2.77.93,3.77,3.77,0,0,1,1.22,2.59H57.44a2.06,2.06,0,0,0-.54-1.4,2,2,0,0,0-1.4-.44,1.75,1.75,0,0,0-1.54.74,4.13,4.13,0,0,0-.52,2.28v.75a4.37,4.37,0,0,0,.49,2.36,1.69,1.69,0,0,0,1.54.74,2,2,0,0,0,1.42-.43,2,2,0,0,0,.53-1.34Z" transform="translate(-17.14 -23.26)"/><path class="cls-3" d="M69,210.06a6.12,6.12,0,0,1-.52,2.58A3.9,3.9,0,0,1,67,214.35a4.37,4.37,0,0,1-4.42,0,4,4,0,0,1-1.51-1.69,6,6,0,0,1-.54-2.54v-.5a6,6,0,0,1,.53-2.58,3.89,3.89,0,0,1,1.5-1.72,4.37,4.37,0,0,1,4.42,0,3.89,3.89,0,0,1,1.5,1.72,6,6,0,0,1,.53,2.58Zm-2.08-.45a4.23,4.23,0,0,0-.56-2.38,2,2,0,0,0-3.19,0,4.07,4.07,0,0,0-.57,2.36v.48a4.28,4.28,0,0,0,.56,2.37,2,2,0,0,0,3.2,0,4.18,4.18,0,0,0,.56-2.36Z" transform="translate(-17.14 -23.26)"/><path class="cls-3" d="M73.17,204.86l2.55,7.22,2.55-7.22H81v9.95H78.9v-2.72l.21-4.69-2.69,7.41H75l-2.68-7.41.21,4.69v2.72H70.49v-9.95Z" transform="translate(-17.14 -23.26)"/><path class="cls-3" d="M82.75,214.81v-9.95h3.49a4.61,4.61,0,0,1,2.75.69,2.39,2.39,0,0,1,.93,2,2.29,2.29,0,0,1-.37,1.29,2.14,2.14,0,0,1-1,.81,2.14,2.14,0,0,1,1.21.78,2.29,2.29,0,0,1,.44,1.42,2.63,2.63,0,0,1-.92,2.17,4.14,4.14,0,0,1-2.61.75Zm2-5.78h1.52c1,0,1.55-.43,1.55-1.24a1.14,1.14,0,0,0-.39-1,2.06,2.06,0,0,0-1.24-.3H84.8Zm0,1.45v2.69h1.76a1.7,1.7,0,0,0,1.13-.35,1.19,1.19,0,0,0,.41-.95,1.25,1.25,0,0,0-1.42-1.39Z" transform="translate(-17.14 -23.26)"/><path class="cls-3" d="M99.86,210.06a6,6,0,0,1-.52,2.58,3.88,3.88,0,0,1-1.48,1.71,4.39,4.39,0,0,1-4.43,0,3.86,3.86,0,0,1-1.5-1.69,5.75,5.75,0,0,1-.54-2.54v-.5a5.86,5.86,0,0,1,.53-2.58,3.93,3.93,0,0,1,1.49-1.72,4.37,4.37,0,0,1,4.42,0,3.89,3.89,0,0,1,1.5,1.72,5.83,5.83,0,0,1,.53,2.58Zm-2.08-.45a4.15,4.15,0,0,0-.56-2.38,1.82,1.82,0,0,0-1.6-.81,1.84,1.84,0,0,0-1.59.8,4.23,4.23,0,0,0-.57,2.36v.48a4.28,4.28,0,0,0,.56,2.37,1.84,1.84,0,0,0,1.62.84,1.79,1.79,0,0,0,1.58-.81,4.18,4.18,0,0,0,.56-2.36Z" transform="translate(-17.14 -23.26)"/><path class="cls-3" d="M110.83,210.5h-3.94v2.67h4.62v1.64h-6.67v-9.95h6.66v1.66h-4.61v2.37h3.94Z" transform="translate(-17.14 -23.26)"/><path class="cls-3" d="M117.88,212.2a1,1,0,0,0-.42-.89,5.18,5.18,0,0,0-1.47-.66,9.77,9.77,0,0,1-1.69-.68,2.76,2.76,0,0,1-1.7-2.46,2.42,2.42,0,0,1,.46-1.44,3,3,0,0,1,1.3-1,4.9,4.9,0,0,1,1.92-.36,4.45,4.45,0,0,1,1.9.39,3.07,3.07,0,0,1,1.29,1.09,2.83,2.83,0,0,1,.46,1.6h-2.05a1.32,1.32,0,0,0-.43-1.06,1.74,1.74,0,0,0-1.21-.38,1.91,1.91,0,0,0-1.17.31,1,1,0,0,0-.41.84,1,1,0,0,0,.48.82,6,6,0,0,0,1.44.61,6.16,6.16,0,0,1,2.55,1.31,2.57,2.57,0,0,1,.8,1.94,2.4,2.4,0,0,1-1,2,4.37,4.37,0,0,1-2.64.73,5.1,5.1,0,0,1-2.09-.42,3.35,3.35,0,0,1-1.44-1.15,3,3,0,0,1-.49-1.7h2c0,1.1.66,1.65,2,1.65a1.89,1.89,0,0,0,1.14-.3A1,1,0,0,0,117.88,212.2Z" transform="translate(-17.14 -23.26)"/><path class="cls-3" d="M129.13,211.5A3.51,3.51,0,0,1,128,214a4.22,4.22,0,0,1-2.82.92,3.73,3.73,0,0,1-3-1.29,5.25,5.25,0,0,1-1.1-3.54v-.6a5.92,5.92,0,0,1,.51-2.53,3.72,3.72,0,0,1,1.44-1.68,4.08,4.08,0,0,1,2.19-.59,4,4,0,0,1,2.77.93,3.77,3.77,0,0,1,1.22,2.59H127.1a2.06,2.06,0,0,0-.54-1.4,2,2,0,0,0-1.4-.44,1.75,1.75,0,0,0-1.54.74,4.13,4.13,0,0,0-.52,2.28v.75a4.37,4.37,0,0,0,.49,2.36,1.69,1.69,0,0,0,1.54.74,2,2,0,0,0,1.42-.43,2,2,0,0,0,.53-1.34Z" transform="translate(-17.14 -23.26)"/><path class="cls-3" d="M138.66,210.06a6.12,6.12,0,0,1-.52,2.58,4,4,0,0,1-1.49,1.71,4.39,4.39,0,0,1-4.43,0,4,4,0,0,1-1.5-1.69,5.75,5.75,0,0,1-.54-2.54v-.5a6,6,0,0,1,.53-2.58,3.89,3.89,0,0,1,1.5-1.72,4.37,4.37,0,0,1,4.42,0,4,4,0,0,1,1.5,1.72,6,6,0,0,1,.53,2.58Zm-2.08-.45a4.23,4.23,0,0,0-.56-2.38,2,2,0,0,0-3.19,0,4.07,4.07,0,0,0-.57,2.36v.48a4.2,4.2,0,0,0,.56,2.37,2,2,0,0,0,3.2,0,4.26,4.26,0,0,0,.56-2.36Z" transform="translate(-17.14 -23.26)"/><path class="cls-3" d="M142.2,213.17h4.35v1.64h-6.4v-9.95h2Z" transform="translate(-17.14 -23.26)"/><path class="cls-3" d="M155.83,214.81h-2.05v-4.26h-4v4.26h-2.05v-9.95h2.05v4h4v-4h2.05Z" transform="translate(-17.14 -23.26)"/><path class="cls-3" d="M163.61,210.5h-3.94v2.67h4.62v1.64h-6.67v-9.95h6.66v1.66h-4.61v2.37h3.94Z" transform="translate(-17.14 -23.26)"/><path class="cls-3" d="M169.18,211.17h-1.64v3.64h-2v-9.95h3.7a4.14,4.14,0,0,1,2.72.79,2.7,2.7,0,0,1,1,2.22,3.11,3.11,0,0,1-.44,1.7,3.06,3.06,0,0,1-1.34,1.08l2.16,4.07v.09H171Zm-1.64-1.66h1.66a1.73,1.73,0,0,0,1.2-.39,1.44,1.44,0,0,0,.42-1.09,1.5,1.5,0,0,0-.4-1.11,1.71,1.71,0,0,0-1.23-.4h-1.65Z" transform="translate(-17.14 -23.26)"/><path class="cls-3" d="M175.91,211.76a4.23,4.23,0,0,1,.23-1.52,3.15,3.15,0,0,1,.86-1.12,4.57,4.57,0,0,0,.82-.9,1.36,1.36,0,0,0,.2-.73c0-.77-.35-1.15-1.06-1.15a1.06,1.06,0,0,0-.81.31,1.24,1.24,0,0,0-.32.86h-2a2.66,2.66,0,0,1,.84-2,3.32,3.32,0,0,1,2.27-.74,3.37,3.37,0,0,1,2.25.7,2.52,2.52,0,0,1,.8,2,2.43,2.43,0,0,1-.26,1.09,4.67,4.67,0,0,1-.91,1.15l-.56.53a1.89,1.89,0,0,0-.59,1.17l0,.41Zm-.2,2.1a1,1,0,0,1,.31-.75,1.22,1.22,0,0,1,1.6,0,1,1,0,0,1,.31.75,1,1,0,0,1-.31.74,1.22,1.22,0,0,1-1.6,0A1,1,0,0,1,175.71,213.86Z" transform="translate(-17.14 -23.26)"/></g><g class="cls-2"><path class="cls-3" d="M61.41,247.5A3.52,3.52,0,0,1,60.22,250a4.18,4.18,0,0,1-2.82.92,3.75,3.75,0,0,1-3-1.29,5.3,5.3,0,0,1-1.1-3.54v-.6A5.92,5.92,0,0,1,53.8,243a3.8,3.8,0,0,1,1.45-1.68,4,4,0,0,1,2.18-.59,4.06,4.06,0,0,1,2.78.93,3.78,3.78,0,0,1,1.21,2.59H59.37a2.11,2.11,0,0,0-.53-1.4,2,2,0,0,0-1.41-.43,1.74,1.74,0,0,0-1.53.73,4.12,4.12,0,0,0-.53,2.28v.75a4.47,4.47,0,0,0,.49,2.36,1.71,1.71,0,0,0,1.54.75,1.71,1.71,0,0,0,2-1.78Z" transform="translate(-17.14 -23.26)"/><path class="cls-3" d="M64.81,249.17h4.35v1.64h-6.4v-9.95h2.05Z" transform="translate(-17.14 -23.26)"/><path class="cls-3" d="M72.52,250.81h-2v-9.95h2Z" transform="translate(-17.14 -23.26)"/><path class="cls-3" d="M82.58,246.06a6.06,6.06,0,0,1-.45,2.43,4.26,4.26,0,0,1-1.25,1.65l1.65,1.3-1.3,1.15-2.12-1.7a4.56,4.56,0,0,1-.75.06,4.17,4.17,0,0,1-2.21-.59,4,4,0,0,1-1.51-1.7,6,6,0,0,1-.54-2.54v-.49a6,6,0,0,1,.53-2.59,4,4,0,0,1,1.5-1.72,4.37,4.37,0,0,1,4.42,0,3.89,3.89,0,0,1,1.5,1.72,6,6,0,0,1,.53,2.58Zm-2.08-.45a4.15,4.15,0,0,0-.56-2.38,2,2,0,0,0-3.19,0,4.23,4.23,0,0,0-.57,2.36v.48a4.28,4.28,0,0,0,.56,2.37,1.83,1.83,0,0,0,1.62.84,1.81,1.81,0,0,0,1.58-.81,4.18,4.18,0,0,0,.56-2.36Z" transform="translate(-17.14 -23.26)"/><path class="cls-3" d="M91.62,240.86v6.56a3.36,3.36,0,0,1-1,2.58A4.62,4.62,0,0,1,85,250a3.3,3.3,0,0,1-1-2.54v-6.63H86v6.57a1.88,1.88,0,0,0,.47,1.42,1.78,1.78,0,0,0,1.29.45c1.16,0,1.74-.6,1.76-1.82v-6.62Z" transform="translate(-17.14 -23.26)"/><path class="cls-3" d="M99.29,246.5H95.35v2.67H100v1.64H93.3v-9.95H100v1.66H95.35v2.37h3.94Z" transform="translate(-17.14 -23.26)"/><path class="cls-3" d="M110.28,248.76h-3.6l-.68,2.05h-2.18l3.7-9.95h1.9l3.73,9.95H111Zm-3-1.66h2.49l-1.26-3.72Z" transform="translate(-17.14 -23.26)"/><path class="cls-3" d="M122.1,246.06a6.06,6.06,0,0,1-.45,2.43,4.26,4.26,0,0,1-1.25,1.65l1.65,1.3-1.3,1.15-2.12-1.7a4.77,4.77,0,0,1-.76.06,4.16,4.16,0,0,1-2.2-.59,4,4,0,0,1-1.51-1.7,6,6,0,0,1-.54-2.54v-.49a6,6,0,0,1,.53-2.59,3.89,3.89,0,0,1,1.5-1.72,4.37,4.37,0,0,1,4.42,0,3.89,3.89,0,0,1,1.5,1.72,6,6,0,0,1,.53,2.58Zm-2.08-.45a4.23,4.23,0,0,0-.56-2.38,2,2,0,0,0-3.19,0,4.15,4.15,0,0,0-.57,2.36v.48a4.28,4.28,0,0,0,.56,2.37,2,2,0,0,0,3.2,0,4.18,4.18,0,0,0,.56-2.36Z" transform="translate(-17.14 -23.26)"/><path class="cls-3" d="M131.14,240.86v6.56a3.37,3.37,0,0,1-1,2.58,4,4,0,0,1-2.79.95,4,4,0,0,1-2.77-.92,3.3,3.3,0,0,1-1-2.54v-6.63h2v6.57a1.84,1.84,0,0,0,.47,1.42,1.78,1.78,0,0,0,1.29.45c1.15,0,1.74-.6,1.76-1.82v-6.62Z" transform="translate(-17.14 -23.26)"/><path class="cls-3" d="M135,250.81H133v-9.95H135Z" transform="translate(-17.14 -23.26)"/><path class="cls-3" d="M142.44,247.31v3.5h-2.06v-9.95h3.89a4.53,4.53,0,0,1,2,.41,3,3,0,0,1,1.31,1.17,3.28,3.28,0,0,1,.46,1.72,2.87,2.87,0,0,1-1,2.3,4.16,4.16,0,0,1-2.78.85Zm0-1.66h1.83a1.79,1.79,0,0,0,1.24-.39,1.4,1.4,0,0,0,.43-1.09,1.62,1.62,0,0,0-.44-1.18,1.59,1.59,0,0,0-1.18-.47h-1.88Z" transform="translate(-17.14 -23.26)"/><path class="cls-3" d="M153.82,248.76h-3.6l-.68,2.05h-2.18l3.7-9.95H153l3.73,9.95h-2.18Zm-3-1.66h2.48L152,243.38Z" transform="translate(-17.14 -23.26)"/><path class="cls-3" d="M161.3,247.17h-1.63v3.64h-2v-9.95h3.7a4.16,4.16,0,0,1,2.72.79,2.69,2.69,0,0,1,1,2.22,2.78,2.78,0,0,1-1.77,2.78l2.15,4.07v.09h-2.2Zm-1.63-1.66h1.65a1.7,1.7,0,0,0,1.2-.39,1.44,1.44,0,0,0,.42-1.09,1.5,1.5,0,0,0-.4-1.11,1.67,1.67,0,0,0-1.22-.4h-1.65Z" transform="translate(-17.14 -23.26)"/><path class="cls-3" d="M172.17,248.76h-3.59l-.69,2.05h-2.18l3.71-9.95h1.9l3.72,9.95h-2.18Zm-3-1.66h2.49l-1.25-3.72Z" transform="translate(-17.14 -23.26)"/></g><g class="cls-2"><path class="cls-3" d="M89.54,266.2a1.06,1.06,0,0,0-.41-.89,5.28,5.28,0,0,0-1.48-.66A10.11,10.11,0,0,1,86,264a2.75,2.75,0,0,1-1.69-2.46,2.42,2.42,0,0,1,.45-1.44,3,3,0,0,1,1.31-1,4.85,4.85,0,0,1,1.91-.36,4.45,4.45,0,0,1,1.9.39,3,3,0,0,1,1.3,1.09,2.91,2.91,0,0,1,.46,1.6h-2a1.35,1.35,0,0,0-.43-1.06,1.74,1.74,0,0,0-1.21-.38,1.89,1.89,0,0,0-1.17.31,1,1,0,0,0-.42.84,1,1,0,0,0,.49.82,5.61,5.61,0,0,0,1.44.61,6.29,6.29,0,0,1,2.55,1.31,2.6,2.6,0,0,1,.8,1.94,2.41,2.41,0,0,1-1,2A4.27,4.27,0,0,1,88,269a5.07,5.07,0,0,1-2.09-.42,3.28,3.28,0,0,1-1.44-1.15,3,3,0,0,1-.5-1.7H86c0,1.1.66,1.65,2,1.65a1.89,1.89,0,0,0,1.14-.3A1,1,0,0,0,89.54,266.2Z" transform="translate(-17.14 -23.26)"/><path class="cls-3" d="M95.17,268.81h-2v-9.95h2Z" transform="translate(-17.14 -23.26)"/><path class="cls-3" d="M99.75,258.86l2.55,7.22,2.55-7.22h2.69v9.95h-2.06v-2.72l.21-4.69L103,268.81h-1.41l-2.68-7.41.21,4.69v2.72H97.07v-9.95Z" transform="translate(-17.14 -23.26)"/><path class="cls-3" d="M116.86,258.86v6.56a3.36,3.36,0,0,1-1,2.58,4,4,0,0,1-2.79.95,4,4,0,0,1-2.77-.92,3.35,3.35,0,0,1-1-2.54v-6.63h2.06v6.57a1.88,1.88,0,0,0,.46,1.42,1.82,1.82,0,0,0,1.3.45c1.15,0,1.74-.6,1.76-1.82v-6.62Z" transform="translate(-17.14 -23.26)"/><path class="cls-3" d="M120.6,267.17H125v1.64h-6.41v-9.95h2.06Z" transform="translate(-17.14 -23.26)"/><path class="cls-3" d="M131.88,266.76h-3.6l-.68,2.05h-2.18l3.7-9.95H131l3.73,9.95h-2.18Zm-3-1.66h2.49l-1.25-3.72Z" transform="translate(-17.14 -23.26)"/><path class="cls-3" d="M139.36,265.17h-1.63v3.64h-2v-9.95h3.69a4.12,4.12,0,0,1,2.72.79,2.7,2.7,0,0,1,1,2.22,3.11,3.11,0,0,1-.44,1.7,3,3,0,0,1-1.34,1.08l2.16,4.07v.09h-2.2Zm-1.63-1.66h1.65a1.72,1.72,0,0,0,1.2-.39A1.44,1.44,0,0,0,141,262a1.5,1.5,0,0,0-.4-1.11,1.7,1.7,0,0,0-1.23-.4h-1.64Z" transform="translate(-17.14 -23.26)"/><path class="cls-3" d="M144.58,267.84a1,1,0,0,1,.32-.76,1.22,1.22,0,0,1,1.6,0,1,1,0,0,1,.32.76,1,1,0,0,1-.32.76,1.25,1.25,0,0,1-1.6,0A1,1,0,0,1,144.58,267.84Z" transform="translate(-17.14 -23.26)"/></g><g id="Group_14478" data-name="Group 14478"><g id="Group_14444" data-name="Group 14444"><path id="Path_11024" data-name="Path 11024" class="cls-4" d="M115.64,128.81a22,22,0,1,1-22,22A22,22,0,0,1,115.64,128.81Z" transform="translate(-17.14 -23.26)"/></g><g id="Group_14477" data-name="Group 14477"><path id="Path_13301" data-name="Path 13301" class="cls-5" d="M122.65,139.89h-.39v-4.55a.52.52,0,0,0-.52-.52l-.13,0-1.9.47-.87-.43a.55.55,0,0,0-.47,0l-.81.4-.81-.4a.55.55,0,0,0-.47,0l-.81.4-.81-.4a.55.55,0,0,0-.47,0l-.81.4-.81-.4a.55.55,0,0,0-.47,0l-.85.41-1.36-.45a.52.52,0,0,0-.66.34.37.37,0,0,0,0,.15v4.55h-.91a1.69,1.69,0,0,0-1.69,1.69v22.77a1.69,1.69,0,0,0,1.69,1.69h14.32a1.69,1.69,0,0,0,1.69-1.69V141.57A1.63,1.63,0,0,0,122.65,139.89Zm-12.37-3.83.88.28a.51.51,0,0,0,.4,0l.81-.4.81.4a.55.55,0,0,0,.47,0l.81-.4.81.4a.55.55,0,0,0,.47,0l.81-.4.81.4a.55.55,0,0,0,.47,0l.81-.4.81.4a.5.5,0,0,0,.36,0l1.44-.36v3.89H110.32Zm13,28.29a.66.66,0,0,1-.65.66H108.33a.65.65,0,0,1-.65-.66h0V141.58a.65.65,0,0,1,.65-.65h14.32a.65.65,0,0,1,.65.65h0Z" transform="translate(-17.14 -23.26)"/><path id="Path_13302" data-name="Path 13302" class="cls-5" d="M121.22,142.1H109.77a.52.52,0,0,0-.52.53V152a.52.52,0,0,0,.52.52h11.45a.52.52,0,0,0,.52-.52v-9.37A.53.53,0,0,0,121.22,142.1Zm-.52,9.37H110.29v-8.33H120.7Z" transform="translate(-17.14 -23.26)"/><path id="Path_13304" data-name="Path 13304" class="cls-5" d="M112.36,153.56h-2.08a.51.51,0,0,0-.52.52v2.08a.52.52,0,0,0,.52.52h2.08a.52.52,0,0,0,.52-.52v-2.08A.51.51,0,0,0,112.36,153.56Zm-.52,2.08h-1v-1h1Z" transform="translate(-17.14 -23.26)"/><path id="Path_13305" data-name="Path 13305" class="cls-5" d="M116.53,153.56h-2.08a.51.51,0,0,0-.52.52v2.08a.52.52,0,0,0,.52.52h2.08a.52.52,0,0,0,.52-.52v-2.08A.52.52,0,0,0,116.53,153.56Zm-.52,2.08h-1v-1h1Z" transform="translate(-17.14 -23.26)"/><path id="Path_13306" data-name="Path 13306" class="cls-5" d="M120.69,153.56h-2.08a.51.51,0,0,0-.52.52v2.08a.52.52,0,0,0,.52.52h2.08a.52.52,0,0,0,.52-.52v-2.08A.51.51,0,0,0,120.69,153.56Zm-.52,2.08h-1v-1h1Z" transform="translate(-17.14 -23.26)"/><path id="Path_13307" data-name="Path 13307" class="cls-5" d="M112.36,157.2h-2.08a.52.52,0,0,0-.52.52v2.08a.52.52,0,0,0,.52.52h2.08a.52.52,0,0,0,.52-.52v-2.08A.52.52,0,0,0,112.36,157.2Zm-.52,2.08h-1v-1h1Z" transform="translate(-17.14 -23.26)"/><path id="Path_13308" data-name="Path 13308" class="cls-5" d="M116.53,157.2h-2.08a.52.52,0,0,0-.52.52v2.08a.52.52,0,0,0,.52.52h2.08a.52.52,0,0,0,.52-.52v-2.08A.52.52,0,0,0,116.53,157.2Zm-.52,2.08h-1v-1h1Z" transform="translate(-17.14 -23.26)"/><path id="Path_13309" data-name="Path 13309" class="cls-5" d="M120.69,157.2h-2.08a.52.52,0,0,0-.52.52v5.73a.52.52,0,0,0,.52.52h2.08a.52.52,0,0,0,.52-.52v-5.73A.52.52,0,0,0,120.69,157.2Zm-.52,5.73h-1v-4.68h1Z" transform="translate(-17.14 -23.26)"/><path id="Path_13310" data-name="Path 13310" class="cls-5" d="M116.53,160.84h-2.08a.52.52,0,0,0-.52.53v2.08a.52.52,0,0,0,.52.52h2.08a.52.52,0,0,0,.52-.52v-2.08A.53.53,0,0,0,116.53,160.84Zm-.52,2.09h-1v-1h1Z" transform="translate(-17.14 -23.26)"/><path id="Path_13311" data-name="Path 13311" class="cls-5" d="M112.36,160.84h-2.08a.52.52,0,0,0-.52.53v2.08a.52.52,0,0,0,.52.52h2.08a.52.52,0,0,0,.52-.52v-2.08A.52.52,0,0,0,112.36,160.84Zm-.52,2.09h-1v-1h1Z" transform="translate(-17.14 -23.26)"/></g></g></g></g></svg>
