<svg xmlns="http://www.w3.org/2000/svg" width="16" height="14.829" viewBox="0 0 16 14.829">
  <g id="download" transform="translate(0 -17.25)">
    <g id="Grupo_12386" data-name="Grupo 12386" transform="translate(0 17.25)">
      <path id="Caminho_10188" data-name="Caminho 10188" d="M15.542,228.218a.456.456,0,0,0-.458.458v4.17a2.057,2.057,0,0,1-2.054,2.054H2.971a2.057,2.057,0,0,1-2.054-2.054v-4.238a.458.458,0,1,0-.917,0v4.238a2.974,2.974,0,0,0,2.971,2.971H13.029A2.974,2.974,0,0,0,16,232.846v-4.17A.459.459,0,0,0,15.542,228.218Z" transform="translate(0 -220.989)" fill="#fff"/>
      <path id="Caminho_10189" data-name="Caminho 10189" d="M139.277,28.438a.461.461,0,0,0,.323.136.447.447,0,0,0,.323-.136l2.913-2.913a.459.459,0,0,0-.649-.649l-2.129,2.132v-9.3a.458.458,0,0,0-.917,0v9.3l-2.132-2.132a.459.459,0,0,0-.649.649Z" transform="translate(147.596 28.574) rotate(180)" fill="#fff"/>
    </g>
  </g>
</svg>
