<svg xmlns="http://www.w3.org/2000/svg" xmlns:xlink="http://www.w3.org/1999/xlink" width="198" height="198" viewBox="0 0 198 198">
  <defs>
    <filter id="Caminho_8969" x="0" y="0" width="198" height="198" filterUnits="userSpaceOnUse">
      <feOffset dy="3" input="SourceAlpha"/>
      <feGaussianBlur stdDeviation="3" result="blur"/>
      <feFlood flood-opacity="0.078"/>
      <feComposite operator="in" in2="blur"/>
      <feComposite in="SourceGraphic"/>
    </filter>
  </defs>
  <g id="tick" transform="translate(23.723 20.723)">
    <g transform="matrix(1, 0, 0, 1, -23.72, -20.72)" filter="url(#Caminho_8969)">
      <path id="Caminho_8969-2" data-name="Caminho 8969" d="M90,180a90,90,0,1,1,90-90A90.1,90.1,0,0,1,90,180Z" transform="translate(9 6)" fill="#f4f7ea"/>
    </g>
    <g id="Grupo_10907" data-name="Grupo 10907" transform="translate(2.548 2.548)">
      <circle id="Elipse_147" data-name="Elipse 147" cx="67.096" cy="67.096" r="67.096" transform="translate(5.634 5.634)" fill="#00A443"/>
      <path id="Caminho_8967" data-name="Caminho 8967" d="M72.729,145.459a72.729,72.729,0,1,1,72.729-72.729A72.813,72.813,0,0,1,72.729,145.459Zm0-134.192a61.462,61.462,0,1,0,61.462,61.462A61.53,61.53,0,0,0,72.729,11.267Z" fill="#00A443"/>
    </g>
    <path id="Caminho_8968" data-name="Caminho 8968" d="M158.488,215.34a5.627,5.627,0,0,1-4.017-1.684l-20.788-21.126a5.633,5.633,0,1,1,8.033-7.9l16.608,16.878,34.359-37.841a5.633,5.633,0,1,1,8.337,7.577L162.657,213.5a5.634,5.634,0,0,1-4.056,1.848A.789.789,0,0,0,158.488,215.34Z" transform="translate(-91.999 -113.303)" fill="#fff"/>
  </g>
</svg>
