<svg id="success" xmlns="http://www.w3.org/2000/svg" width="24" height="24" viewBox="0 0 24 24">
  <g id="Grupo_10379" data-name="Grupo 10379">
    <g id="Grupo_10378" data-name="Grupo 10378">
      <path id="Caminho_8185" data-name="Caminho 8185" d="M12,0A12,12,0,1,0,24,12,12.013,12.013,0,0,0,12,0Z" fill="#00A443"/>
    </g>
  </g>
  <g id="Grupo_10381" data-name="Grupo 10381" transform="translate(6.191 7.585)">
    <g id="Grupo_10380" data-name="Grupo 10380">
      <path id="Caminho_8186" data-name="Caminho 8186" d="M143.393,162.065a.93.93,0,0,0-1.312.063l-5.67,6.244-2.739-2.785a.929.929,0,0,0-1.326,1.3l3.429,3.486a.928.928,0,0,0,.663.278h.018a.93.93,0,0,0,.67-.3l6.331-6.971A.93.93,0,0,0,143.393,162.065Z" transform="translate(-132.079 -161.824)" fill="#f7f7f9"/>
    </g>
  </g>
</svg>
