<svg xmlns="http://www.w3.org/2000/svg" width="17.56" height="27.389" viewBox="0 0 17.56 27.389">
  <g id="_x36_" transform="translate(-7.218 -2.306)">
    <path id="Caminho_10190" data-name="Caminho 10190" d="M24.524,16.579l-8.561-4.8,1.549-8.891a.5.5,0,0,0-.9-.382l-9.3,12.6a.5.5,0,0,0,.16.734l8.374,4.63-1.88,8.616a.5.5,0,0,0,.878.42l9.82-12.18a.506.506,0,0,0,.1-.409.5.5,0,0,0-.246-.341ZM15.4,27.232l1.508-6.911a.5.5,0,0,0-.246-.544l-8.2-4.534,7.7-10.436-1.246,7.152a.5.5,0,0,0,.248.522l8.354,4.681Z" fill="#00A443"/>
  </g>
</svg>
