<svg id="shower" xmlns="http://www.w3.org/2000/svg" width="21.862" height="27.909" viewBox="0 0 21.862 27.909">
  <g id="Grupo_10924" data-name="Grupo 10924" transform="translate(0)">
    <g id="Grupo_10923" data-name="Grupo 10923" transform="translate(0)">
      <path id="Caminho_8980" data-name="Caminho 8980" d="M72.467,0a1.4,1.4,0,0,0-1.4,1.4v.465H60.838a2.329,2.329,0,0,0-2.326,2.326V6.512h-.93a1.4,1.4,0,0,0-1.4,1.4v1.6a6.851,6.851,0,0,0-3.256,5.84V15.9a1.4,1.4,0,0,0-.93,1.31v.93a.465.465,0,0,0,.465.465H67.35a.465.465,0,0,0,.465-.465v-.93a1.4,1.4,0,0,0-.93-1.31V15.35a6.95,6.95,0,0,0-2.047-4.936A6.275,6.275,0,0,0,63.629,9.5V7.908a1.4,1.4,0,0,0-1.4-1.4H61.3v-1.4a.465.465,0,0,1,.465-.465h9.3v.93a1.4,1.4,0,0,0,1.4,1.4h1.4V0ZM66.885,17.211v.465H52.93v-.465a.465.465,0,0,1,.465-.465H66.42A.465.465,0,0,1,66.885,17.211Zm-2.7-6.137a6.023,6.023,0,0,1,1.772,4.277v.465H53.861V15.35a5.938,5.938,0,0,1,2.918-5.117H63.04A5.424,5.424,0,0,1,64.183,11.073ZM62.233,7.442a.465.465,0,0,1,.465.465V9.3H57.117v-1.4a.465.465,0,0,1,.465-.465Zm8.838-3.721h-9.3a1.4,1.4,0,0,0-1.4,1.4v1.4h-.93V4.186a1.4,1.4,0,0,1,1.4-1.4H71.071Zm1.861,2.326h-.465A.465.465,0,0,1,72,5.582V1.4A.465.465,0,0,1,72.467.93h.465Z" transform="translate(-52)" fill="#fff"/>
    </g>
  </g>
  <g id="Grupo_10926" data-name="Grupo 10926" transform="translate(7.442 19.536)">
    <g id="Grupo_10925" data-name="Grupo 10925" transform="translate(0)">
      <path id="Caminho_8981" data-name="Caminho 8981" d="M180.465,336a.465.465,0,0,0-.465.465v1.861a.465.465,0,0,0,.93,0v-1.861A.465.465,0,0,0,180.465,336Z" transform="translate(-180 -336)" fill="#fff"/>
    </g>
  </g>
  <g id="Grupo_10928" data-name="Grupo 10928" transform="translate(7.442 23.258)">
    <g id="Grupo_10927" data-name="Grupo 10927" transform="translate(0)">
      <path id="Caminho_8982" data-name="Caminho 8982" d="M180.465,400a.465.465,0,0,0-.465.465v1.861a.465.465,0,0,0,.93,0v-1.861A.465.465,0,0,0,180.465,400Z" transform="translate(-180 -400)" fill="#fff"/>
    </g>
  </g>
  <g id="Grupo_10930" data-name="Grupo 10930" transform="translate(13.024 21.397)">
    <g id="Grupo_10929" data-name="Grupo 10929">
      <path id="Caminho_8983" data-name="Caminho 8983" d="M276.465,368a.465.465,0,0,0-.465.465v1.861a.465.465,0,0,0,.93,0v-1.861A.465.465,0,0,0,276.465,368Z" transform="translate(-276 -368)" fill="#fff"/>
    </g>
  </g>
  <g id="Grupo_10932" data-name="Grupo 10932" transform="translate(9.303 21.397)">
    <g id="Grupo_10931" data-name="Grupo 10931" transform="translate(0)">
      <path id="Caminho_8984" data-name="Caminho 8984" d="M212.465,368a.465.465,0,0,0-.465.465v1.861a.465.465,0,0,0,.93,0v-1.861A.465.465,0,0,0,212.465,368Z" transform="translate(-212 -368)" fill="#fff"/>
    </g>
  </g>
  <g id="Grupo_10934" data-name="Grupo 10934" transform="translate(5.582 21.397)">
    <g id="Grupo_10933" data-name="Grupo 10933" transform="translate(0)">
      <path id="Caminho_8985" data-name="Caminho 8985" d="M148.465,368a.465.465,0,0,0-.465.465v1.861a.465.465,0,0,0,.93,0v-1.861A.465.465,0,0,0,148.465,368Z" transform="translate(-148 -368)" fill="#fff"/>
    </g>
  </g>
  <g id="Grupo_10936" data-name="Grupo 10936" transform="translate(1.861 21.397)">
    <g id="Grupo_10935" data-name="Grupo 10935" transform="translate(0)">
      <path id="Caminho_8986" data-name="Caminho 8986" d="M84.465,368a.465.465,0,0,0-.465.465v1.861a.465.465,0,0,0,.93,0v-1.861A.465.465,0,0,0,84.465,368Z" transform="translate(-84 -368)" fill="#fff"/>
    </g>
  </g>
  <g id="Grupo_10938" data-name="Grupo 10938" transform="translate(3.721 19.536)">
    <g id="Grupo_10937" data-name="Grupo 10937" transform="translate(0)">
      <path id="Caminho_8987" data-name="Caminho 8987" d="M116.465,336a.465.465,0,0,0-.465.465v1.861a.465.465,0,0,0,.93,0v-1.861A.465.465,0,0,0,116.465,336Z" transform="translate(-116 -336)" fill="#fff"/>
    </g>
  </g>
  <g id="Grupo_10940" data-name="Grupo 10940" transform="translate(11.164 19.536)">
    <g id="Grupo_10939" data-name="Grupo 10939" transform="translate(0)">
      <path id="Caminho_8988" data-name="Caminho 8988" d="M244.465,336a.465.465,0,0,0-.465.465v1.861a.465.465,0,0,0,.93,0v-1.861A.466.466,0,0,0,244.465,336Z" transform="translate(-244 -336)" fill="#fff"/>
    </g>
  </g>
  <g id="Grupo_10942" data-name="Grupo 10942" transform="translate(11.164 23.258)">
    <g id="Grupo_10941" data-name="Grupo 10941" transform="translate(0)">
      <path id="Caminho_8989" data-name="Caminho 8989" d="M244.465,400a.465.465,0,0,0-.465.465v1.861a.465.465,0,0,0,.93,0v-1.861A.466.466,0,0,0,244.465,400Z" transform="translate(-244 -400)" fill="#fff"/>
    </g>
  </g>
  <g id="Grupo_10944" data-name="Grupo 10944" transform="translate(3.721 23.258)">
    <g id="Grupo_10943" data-name="Grupo 10943" transform="translate(0)">
      <path id="Caminho_8990" data-name="Caminho 8990" d="M116.465,400a.465.465,0,0,0-.465.465v1.861a.465.465,0,0,0,.93,0v-1.861A.465.465,0,0,0,116.465,400Z" transform="translate(-116 -400)" fill="#fff"/>
    </g>
  </g>
  <g id="Grupo_10946" data-name="Grupo 10946" transform="translate(5.582 25.118)">
    <g id="Grupo_10945" data-name="Grupo 10945" transform="translate(0)">
      <path id="Caminho_8991" data-name="Caminho 8991" d="M148.465,432a.465.465,0,0,0-.465.465v1.861a.465.465,0,0,0,.93,0v-1.861A.465.465,0,0,0,148.465,432Z" transform="translate(-148 -432)" fill="#fff"/>
    </g>
  </g>
  <g id="Grupo_10948" data-name="Grupo 10948" transform="translate(9.303 25.118)">
    <g id="Grupo_10947" data-name="Grupo 10947" transform="translate(0)">
      <path id="Caminho_8992" data-name="Caminho 8992" d="M212.465,432a.465.465,0,0,0-.465.465v1.861a.465.465,0,0,0,.93,0v-1.861A.465.465,0,0,0,212.465,432Z" transform="translate(-212 -432)" fill="#fff"/>
    </g>
  </g>
</svg>
