<svg id="Layer_1" data-name="Layer 1" xmlns="http://www.w3.org/2000/svg" xmlns:xlink="http://www.w3.org/1999/xlink" viewBox="0 0 125.41 84.18"><defs><style>.cls-1{fill:#fff;fill-opacity:0;}.cls-2{fill:#fefefe;opacity:0.03;}.cls-10,.cls-11,.cls-12,.cls-13,.cls-14,.cls-15,.cls-16,.cls-17,.cls-18,.cls-19,.cls-2,.cls-20,.cls-21,.cls-22,.cls-23,.cls-24,.cls-25,.cls-26,.cls-27,.cls-28,.cls-29,.cls-3,.cls-30,.cls-31,.cls-32,.cls-33,.cls-4,.cls-5,.cls-6,.cls-7,.cls-8,.cls-9{isolation:isolate;}.cls-3{fill:#fcfcfc;opacity:0.06;}.cls-4{fill:#fafafa;opacity:0.09;}.cls-5{fill:#f8f8f8;opacity:0.12;}.cls-6{fill:#f5f5f5;opacity:0.15;}.cls-7{fill:#f2f2f2;opacity:0.18;}.cls-8{fill:#efefef;opacity:0.21;}.cls-9{fill:#ededed;opacity:0.24;}.cls-10,.cls-50{fill:#eaeaea;}.cls-10{opacity:0.27;}.cls-11{fill:#e7e7e7;opacity:0.3;}.cls-12{fill:#e4e4e4;opacity:0.33;}.cls-13{fill:#e1e1e1;opacity:0.36;}.cls-14{fill:#dedede;opacity:0.39;}.cls-15{fill:#dcdcdc;opacity:0.42;}.cls-16{fill:#d8d8d8;opacity:0.46;}.cls-17{fill:#d4d4d4;opacity:0.49;}.cls-18{fill:#d1d1d1;opacity:0.51;}.cls-19{fill:#cecece;opacity:0.55;}.cls-20{fill:#cacaca;opacity:0.58;}.cls-21{fill:#c7c7c7;opacity:0.61;}.cls-22{fill:#c4c4c4;opacity:0.64;}.cls-23{fill:#c1c1c1;opacity:0.67;}.cls-24,.cls-45{fill:#bdbdbd;}.cls-24{opacity:0.7;}.cls-25{fill:#bababa;opacity:0.73;}.cls-26{fill:#b7b7b7;opacity:0.76;}.cls-27{fill:#b4b4b4;opacity:0.79;}.cls-28{fill:#aeaeae;opacity:0.82;}.cls-29{fill:#aaa;opacity:0.85;}.cls-30{fill:#a7a7a7;opacity:0.88;}.cls-31{fill:#a4a4a4;opacity:0.91;}.cls-32{fill:#9f9f9f;opacity:0.94;}.cls-33{fill:#9b9b9b;opacity:0.97;}.cls-34{fill:#979797;}.cls-35{fill:#9d9d9d;}.cls-36{fill:url(#linear-gradient);}.cls-37{fill:#767676;}.cls-37,.cls-38,.cls-39,.cls-40,.cls-41,.cls-42,.cls-43,.cls-44,.cls-45,.cls-46,.cls-47,.cls-48,.cls-49,.cls-50,.cls-51,.cls-52,.cls-53,.cls-54,.cls-55,.cls-56,.cls-57,.cls-58,.cls-59,.cls-60,.cls-61,.cls-62,.cls-63,.cls-64,.cls-65,.cls-66,.cls-67,.cls-68,.cls-69,.cls-70,.cls-71,.cls-72,.cls-73,.cls-74,.cls-75,.cls-76,.cls-77,.cls-78,.cls-79,.cls-80,.cls-81{fill-rule:evenodd;}.cls-38{fill:#9a9a9a;}.cls-39{fill:#b3b3b3;}.cls-40{fill:url(#linear-gradient-2);}.cls-41{fill:#dadada;}.cls-42{fill:#d5d5d5;}.cls-43{fill:url(#linear-gradient-3);}.cls-44{fill:url(#linear-gradient-4);}.cls-46{fill:url(#linear-gradient-5);}.cls-47{fill:#6e6e6e;}.cls-48{fill:url(#linear-gradient-6);}.cls-49{fill:#f7f7f7;}.cls-51{fill:#5b5b5b;}.cls-52{fill:url(#linear-gradient-7);}.cls-54{fill:url(#linear-gradient-8);}.cls-55{fill:url(#linear-gradient-9);}.cls-56{fill:url(#linear-gradient-10);}.cls-57{fill:#939393;}.cls-58{fill:url(#linear-gradient-11);}.cls-59{fill:#757575;}.cls-60{fill:#a1a1a1;}.cls-61{fill:url(#linear-gradient-12);}.cls-62{fill:#a5a5a5;}.cls-63{fill:url(#linear-gradient-13);}.cls-64{fill:url(#linear-gradient-14);}.cls-65{fill:#747474;}.cls-66{fill:url(#linear-gradient-15);}.cls-67{fill:#676767;}.cls-68{fill:url(#linear-gradient-16);}.cls-69{fill:url(#linear-gradient-17);}.cls-70{fill:url(#linear-gradient-18);}.cls-71{fill:url(#linear-gradient-19);}.cls-72{fill:url(#linear-gradient-20);}.cls-73{fill:url(#linear-gradient-21);}.cls-74{fill:url(#linear-gradient-22);}.cls-75{fill:url(#linear-gradient-23);}.cls-76{fill:url(#linear-gradient-24);}.cls-77{fill:url(#linear-gradient-25);}.cls-78{fill:url(#linear-gradient-26);}.cls-79{fill:url(#linear-gradient-27);}.cls-80{fill:url(#linear-gradient-28);}.cls-81{fill:url(#linear-gradient-29);}</style><linearGradient id="linear-gradient" x1="0.04" y1="785.66" x2="1.04" y2="785.66" gradientTransform="matrix(95.78, 0, 0, -36.95, 237.61, 29447.08)" gradientUnits="userSpaceOnUse"><stop offset="0" stop-color="#313131"/><stop offset="0.1" stop-color="#282828"/><stop offset="0.3" stop-color="#202020"/><stop offset="0.38" stop-color="#0d0d0d"/><stop offset="0.59"/><stop offset="0.74"/><stop offset="1"/></linearGradient><linearGradient id="linear-gradient-2" x1="-17.9" y1="737.26" x2="-18.68" y2="738.65" gradientTransform="matrix(4.58, 0, 0, -4.61, 345.3, 3789.2)" gradientUnits="userSpaceOnUse"><stop offset="0" stop-color="#292929"/><stop offset="1"/></linearGradient><linearGradient id="linear-gradient-3" x1="-23.85" y1="743.83" x2="-23.58" y2="743.4" gradientTransform="matrix(3.54, 0, 0, -5.17, 346.2, 4230.43)" gradientUnits="userSpaceOnUse"><stop offset="0" stop-color="#6a6a6a"/><stop offset="1" stop-color="#484848"/></linearGradient><linearGradient id="linear-gradient-4" x1="-17.62" y1="761.82" x2="-16.05" y2="760.25" gradientTransform="matrix(4.72, 0, 0, -8.18, 345.03, 6622.07)" xlink:href="#linear-gradient-2"/><linearGradient id="linear-gradient-5" x1="-1.89" y1="783.61" x2="-1.95" y2="783.7" gradientTransform="matrix(26.24, 0, 0, -29.33, 358.97, 23386.95)" gradientUnits="userSpaceOnUse"><stop offset="0" stop-color="#474747"/><stop offset="1" stop-color="#252525"/></linearGradient><linearGradient id="linear-gradient-6" x1="-0.62" y1="779.02" x2="-0.93" y2="778.73" gradientTransform="matrix(36.38, 0, 0, -18.26, 318.89, 14590.29)" gradientUnits="userSpaceOnUse"><stop offset="0"/><stop offset="1"/></linearGradient><linearGradient id="linear-gradient-7" x1="-2.47" y1="774.14" x2="-2.37" y2="773.83" gradientTransform="matrix(22.66, 0, 0, -13.72, 336, 10982)" xlink:href="#linear-gradient-6"/><linearGradient id="linear-gradient-8" x1="-1.48" y1="773.84" x2="-1.59" y2="773.75" gradientTransform="matrix(26.71, 0, 0, -13.31, 335.46, 10668.73)" xlink:href="#linear-gradient-6"/><linearGradient id="linear-gradient-9" x1="-57.8" y1="76.93" x2="-60.34" y2="73.55" gradientTransform="matrix(1.19, 0, 0, -0.34, 360.98, 388.28)" xlink:href="#linear-gradient-6"/><linearGradient id="linear-gradient-10" x1="-1.52" y1="784.77" x2="-1.45" y2="785.02" gradientTransform="matrix(29.94, 0, 0, -33.2, 325.34, 26457.92)" xlink:href="#linear-gradient-6"/><linearGradient id="linear-gradient-11" x1="-67.65" y1="607.87" x2="-65.41" y2="607.87" gradientTransform="matrix(1.3, 0, 0, -1.37, 380.84, 1242.01)" gradientUnits="userSpaceOnUse"><stop offset="0" stop-color="#939393"/><stop offset="1" stop-color="#101010"/></linearGradient><linearGradient id="linear-gradient-12" x1="-205.47" y1="776.03" x2="-202.16" y2="776.03" gradientTransform="matrix(0.43, 0, 0, -15.34, 381.94, 12307.91)" xlink:href="#linear-gradient-11"/><linearGradient id="linear-gradient-13" x1="-2.02" y1="777.51" x2="-1.87" y2="777.1" gradientTransform="matrix(26.24, 0, 0, -16.5, 358.97, 13233.45)" xlink:href="#linear-gradient-5"/><linearGradient id="linear-gradient-14" x1="-16.68" y1="767.36" x2="-14.69" y2="767.27" gradientTransform="matrix(5.16, 0, 0, -10.04, 374.89, 8097.52)" gradientUnits="userSpaceOnUse"><stop offset="0" stop-color="#222"/><stop offset="1"/></linearGradient><linearGradient id="linear-gradient-15" x1="-1.01" y1="777.02" x2="-1.8" y2="779.83" gradientTransform="matrix(30.2, 0, 0, -18.18, 324.81, 14539.22)" xlink:href="#linear-gradient-14"/><linearGradient id="linear-gradient-16" x1="-1.84" y1="776.14" x2="-1.97" y2="776.52" gradientTransform="matrix(26.24, 0, 0, -15.64, 358.97, 12522.14)" gradientUnits="userSpaceOnUse"><stop offset="0" stop-color="#939393"/><stop offset="1"/></linearGradient><linearGradient id="linear-gradient-17" x1="-2.04" y1="780.38" x2="-1.28" y2="778.77" gradientTransform="matrix(25.4, 0, 0, -20.76, 360.66, 16585.67)" xlink:href="#linear-gradient-11"/><linearGradient id="linear-gradient-18" x1="-103.36" y1="754.13" x2="-105.21" y2="754.13" gradientTransform="matrix(0.85, 0, 0, -6.59, 384.37, 5359.86)" gradientUnits="userSpaceOnUse"><stop offset="0" stop-color="#939393"/><stop offset="1" stop-color="#070707"/></linearGradient><linearGradient id="linear-gradient-19" x1="-13.65" y1="757.28" x2="-13.12" y2="756.53" gradientTransform="matrix(5.95, 0, 0, -7.13, 375.78, 5762.82)" xlink:href="#linear-gradient-16"/><linearGradient id="linear-gradient-20" x1="-16.57" y1="777.58" x2="-16.68" y2="777.63" gradientTransform="matrix(5.07, 0, 0, -16.67, 396.26, 13355.11)" gradientUnits="userSpaceOnUse"><stop offset="0" stop-color="#999"/><stop offset="1" stop-color="#8e8e8e"/></linearGradient><linearGradient id="linear-gradient-21" x1="-188.53" y1="775.65" x2="-190.37" y2="775.65" gradientTransform="matrix(0.47, 0, 0, -15, 400.6, 12032.64)" gradientUnits="userSpaceOnUse"><stop offset="0" stop-color="#7a7a7a"/><stop offset="1"/></linearGradient><linearGradient id="linear-gradient-22" x1="-73.03" y1="774.3" x2="-76.45" y2="774.3" gradientTransform="matrix(1.19, 0, 0, -13.89, 404.96, 11151.11)" xlink:href="#linear-gradient-11"/><linearGradient id="linear-gradient-23" x1="-23.66" y1="744.67" x2="-23.66" y2="744.97" gradientTransform="matrix(3.55, 0, 0, -5.24, 398.72, 4297.35)" gradientUnits="userSpaceOnUse"><stop offset="0" stop-color="#8e8e8e"/><stop offset="1" stop-color="#8a8a8a"/></linearGradient><linearGradient id="linear-gradient-24" x1="-25.48" y1="740.23" x2="-25.64" y2="740.42" gradientTransform="matrix(3.31, 0, 0, -4.83, 398.95, 3976.34)" gradientUnits="userSpaceOnUse"><stop offset="0" stop-color="#999"/><stop offset="0.56" stop-color="#979797"/><stop offset="1" stop-color="#8e8e8e"/></linearGradient><linearGradient id="linear-gradient-25" x1="-23.78" y1="764.5" x2="-23.89" y2="764.74" gradientTransform="matrix(3.55, 0, 0, -8.93, 398.71, 7215.13)" xlink:href="#linear-gradient-23"/><linearGradient id="linear-gradient-26" x1="-11.74" y1="727.45" x2="-11.82" y2="727.7" gradientTransform="matrix(6.74, 0, 0, -3.89, 394.34, 3216.41)" xlink:href="#linear-gradient-21"/><linearGradient id="linear-gradient-27" x1="-17.9" y1="737.26" x2="-18.68" y2="738.65" gradientTransform="matrix(4.58, 0, 0, -4.61, 386.37, 3812.92)" xlink:href="#linear-gradient-2"/><linearGradient id="linear-gradient-28" x1="-23.85" y1="743.83" x2="-23.58" y2="743.4" gradientTransform="matrix(3.54, 0, 0, -5.17, 387.27, 4254.14)" xlink:href="#linear-gradient-3"/><linearGradient id="linear-gradient-29" x1="-17.62" y1="761.82" x2="-16.05" y2="760.25" gradientTransform="matrix(4.72, 0, 0, -8.18, 386.1, 6645.77)" xlink:href="#linear-gradient-2"/></defs><g id="Group_10350" data-name="Group 10350"><g id="Group_9840" data-name="Group 9840"><path id="Path_7487" data-name="Path 7487" class="cls-1" d="M353,389.72c-21.67-12.51-44-12.51-65.69,0h0C276.43,396,271,402.33,271,408.68s5.41,12.71,16.25,19c21.66,12.51,44,12.51,65.69,0,10.83-6.25,16.25-12.61,16.25-19S363.79,396,353,389.72Z" transform="translate(-243.79 -352.85)"/><path id="Path_7488" data-name="Path 7488" class="cls-2" d="M352.13,389.72c-21.66-12.51-44-12.51-65.69,0h0c-10.83,6.25-16.25,12.61-16.25,19s5.42,12.71,16.25,19c21.67,12.51,44,12.51,65.69,0,10.83-6.25,16.25-12.61,16.25-19S363,396,352.13,389.72Z" transform="translate(-243.79 -352.85)"/><path id="Path_7489" data-name="Path 7489" class="cls-3" d="M351.31,389.72c-21.67-12.51-44-12.51-65.69,0h0c-10.84,6.25-16.25,12.61-16.25,19s5.41,12.71,16.25,19c21.66,12.51,44,12.51,65.69,0,10.83-6.25,16.25-12.61,16.25-19S362.14,396,351.31,389.72Z" transform="translate(-243.79 -352.85)"/><path id="Path_7490" data-name="Path 7490" class="cls-4" d="M350.48,389.72c-21.66-12.51-44-12.51-65.69,0h0c-10.83,6.25-16.25,12.61-16.25,19s5.42,12.71,16.25,19c21.67,12.51,44,12.51,65.69,0,10.83-6.25,16.25-12.61,16.25-19S361.31,396,350.48,389.72Z" transform="translate(-243.79 -352.85)"/><path id="Path_7491" data-name="Path 7491" class="cls-5" d="M349.66,389.72c-21.67-12.51-44-12.51-65.69,0h0c-10.84,6.25-16.25,12.61-16.25,19s5.41,12.71,16.25,19c21.66,12.51,44,12.51,65.69,0,10.83-6.25,16.25-12.61,16.25-19S360.49,396,349.66,389.72Z" transform="translate(-243.79 -352.85)"/><path id="Path_7492" data-name="Path 7492" class="cls-6" d="M348.83,389.72c-21.66-12.51-44-12.51-65.69,0h0c-10.83,6.25-16.25,12.61-16.25,19s5.42,12.71,16.25,19c21.67,12.51,44,12.51,65.69,0,10.83-6.25,16.25-12.61,16.25-19S359.66,396,348.83,389.72Z" transform="translate(-243.79 -352.85)"/><path id="Path_7493" data-name="Path 7493" class="cls-7" d="M348,389.72c-21.67-12.51-44-12.51-65.69,0h0c-10.84,6.25-16.25,12.61-16.25,19s5.41,12.71,16.25,19c21.66,12.51,44,12.51,65.69,0,10.83-6.25,16.25-12.61,16.25-19S358.84,396,348,389.72Z" transform="translate(-243.79 -352.85)"/><path id="Path_7494" data-name="Path 7494" class="cls-8" d="M347.18,389.72c-21.66-12.51-44-12.51-65.69,0h0c-10.83,6.25-16.25,12.61-16.25,19s5.42,12.71,16.25,19c21.67,12.51,44,12.51,65.69,0,10.83-6.25,16.25-12.61,16.25-19S358,396,347.18,389.72Z" transform="translate(-243.79 -352.85)"/><path id="Path_7495" data-name="Path 7495" class="cls-9" d="M346.36,389.72c-21.67-12.51-44-12.51-65.69,0h0c-10.84,6.25-16.25,12.61-16.25,19s5.41,12.71,16.25,19c21.66,12.51,44,12.51,65.69,0,10.83-6.25,16.25-12.61,16.25-19S357.19,396,346.36,389.72Z" transform="translate(-243.79 -352.85)"/><path id="Path_7496" data-name="Path 7496" class="cls-10" d="M345.53,389.72c-21.66-12.51-44-12.51-65.69,0h0c-10.83,6.25-16.25,12.61-16.25,19s5.42,12.71,16.25,19c21.67,12.51,44,12.51,65.69,0,10.83-6.25,16.25-12.61,16.25-19S356.36,396,345.53,389.72Z" transform="translate(-243.79 -352.85)"/><path id="Path_7497" data-name="Path 7497" class="cls-11" d="M344.71,389.72c-21.67-12.51-44-12.51-65.69,0h0c-10.84,6.25-16.25,12.61-16.25,19s5.41,12.71,16.25,19c21.66,12.51,44,12.51,65.69,0,10.83-6.25,16.25-12.61,16.25-19S355.54,396,344.71,389.72Z" transform="translate(-243.79 -352.85)"/><path id="Path_7498" data-name="Path 7498" class="cls-12" d="M343.88,389.72c-21.66-12.51-44-12.51-65.69,0h0c-10.83,6.25-16.25,12.61-16.25,19s5.42,12.71,16.25,19c21.67,12.51,44,12.51,65.69,0,10.84-6.25,16.25-12.61,16.25-19S354.71,396,343.88,389.72Z" transform="translate(-243.79 -352.85)"/><path id="Path_7499" data-name="Path 7499" class="cls-13" d="M343.05,389.72c-21.66-12.51-44-12.51-65.68,0h0c-10.84,6.25-16.25,12.61-16.25,19s5.41,12.71,16.25,19c21.66,12.51,44,12.51,65.69,0,10.83-6.25,16.24-12.61,16.24-19S353.89,396,343.05,389.72Z" transform="translate(-243.79 -352.85)"/><path id="Path_7500" data-name="Path 7500" class="cls-14" d="M342.23,389.72c-21.66-12.51-44-12.51-65.69,0h0c-10.83,6.25-16.25,12.61-16.25,19s5.42,12.71,16.25,19c21.67,12.51,44,12.51,65.69,0,10.84-6.25,16.25-12.61,16.25-19S353.06,396,342.23,389.72Z" transform="translate(-243.79 -352.85)"/><path id="Path_7501" data-name="Path 7501" class="cls-15" d="M341.41,389.72c-21.67-12.51-44-12.51-65.69,0h0c-10.84,6.25-16.25,12.61-16.25,19s5.41,12.71,16.25,19c21.66,12.51,44,12.51,65.69,0,10.83-6.25,16.25-12.61,16.25-19S352.24,396,341.41,389.72Z" transform="translate(-243.79 -352.85)"/><path id="Path_7502" data-name="Path 7502" class="cls-16" d="M340.58,389.72c-21.66-12.51-44-12.51-65.69,0h0c-10.83,6.25-16.25,12.61-16.25,19s5.42,12.71,16.25,19c21.67,12.51,44,12.51,65.69,0,10.84-6.25,16.25-12.61,16.25-19S351.41,396,340.58,389.72Z" transform="translate(-243.79 -352.85)"/><path id="Path_7503" data-name="Path 7503" class="cls-17" d="M339.76,389.72c-21.67-12.51-44-12.51-65.69,0h0c-10.83,6.25-16.25,12.61-16.25,19s5.42,12.71,16.25,19c21.66,12.51,44,12.51,65.69,0,10.83-6.25,16.25-12.61,16.25-19S350.59,396,339.76,389.72Z" transform="translate(-243.79 -352.85)"/><path id="Path_7504" data-name="Path 7504" class="cls-18" d="M338.93,389.72c-21.66-12.51-44-12.51-65.69,0h0C262.41,396,257,402.33,257,408.68s5.42,12.71,16.25,19c21.67,12.51,44,12.51,65.69,0,10.83-6.25,16.25-12.61,16.25-19S349.76,396,338.93,389.72Z" transform="translate(-243.79 -352.85)"/><path id="Path_7505" data-name="Path 7505" class="cls-19" d="M338.11,389.72c-21.67-12.51-44-12.51-65.69,0h0c-10.84,6.25-16.25,12.61-16.25,19s5.41,12.71,16.25,19c21.66,12.51,44,12.51,65.69,0,10.83-6.25,16.25-12.61,16.25-19S348.94,396,338.11,389.72Z" transform="translate(-243.79 -352.85)"/><path id="Path_7506" data-name="Path 7506" class="cls-20" d="M337.28,389.72c-21.66-12.51-44-12.51-65.69,0h0c-10.83,6.25-16.25,12.61-16.25,19s5.42,12.71,16.25,19c21.67,12.51,44,12.51,65.69,0,10.84-6.25,16.25-12.61,16.25-19S348.11,396,337.28,389.72Z" transform="translate(-243.79 -352.85)"/><path id="Path_7507" data-name="Path 7507" class="cls-21" d="M336.46,389.72c-21.67-12.51-44-12.51-65.69,0h0c-10.84,6.25-16.25,12.61-16.25,19s5.41,12.71,16.25,19c21.66,12.51,44,12.51,65.69,0,10.83-6.25,16.25-12.61,16.25-19S347.29,396,336.46,389.72Z" transform="translate(-243.79 -352.85)"/><path id="Path_7508" data-name="Path 7508" class="cls-22" d="M335.63,389.72c-21.66-12.51-44-12.51-65.69,0h0c-10.83,6.25-16.25,12.61-16.25,19s5.42,12.71,16.25,19c21.67,12.51,44,12.51,65.69,0,10.84-6.25,16.25-12.61,16.25-19S346.47,396,335.63,389.72Z" transform="translate(-243.79 -352.85)"/><path id="Path_7509" data-name="Path 7509" class="cls-23" d="M334.81,389.72c-21.67-12.51-44-12.51-65.69,0h0c-10.84,6.25-16.25,12.61-16.25,19s5.41,12.71,16.25,19c21.66,12.51,44,12.51,65.69,0,10.83-6.25,16.25-12.61,16.25-19S345.64,396,334.81,389.72Z" transform="translate(-243.79 -352.85)"/><path id="Path_7510" data-name="Path 7510" class="cls-24" d="M334,389.72c-21.66-12.51-44-12.51-65.69,0h0C257.46,396,252,402.33,252,408.68s5.42,12.71,16.25,19c21.67,12.51,44,12.51,65.69,0,10.84-6.25,16.25-12.61,16.25-19S344.81,396,334,389.72Z" transform="translate(-243.79 -352.85)"/><path id="Path_7511" data-name="Path 7511" class="cls-25" d="M333.16,389.72c-21.67-12.51-44-12.51-65.69,0h0c-10.83,6.25-16.25,12.61-16.25,19s5.42,12.71,16.25,19c21.66,12.51,44,12.51,65.69,0,10.83-6.25,16.25-12.61,16.25-19S344,396,333.16,389.72Z" transform="translate(-243.79 -352.85)"/><path id="Path_7512" data-name="Path 7512" class="cls-26" d="M332.33,389.72c-21.66-12.51-44-12.51-65.69,0h0c-10.83,6.25-16.25,12.61-16.25,19s5.42,12.71,16.25,19c21.67,12.51,44,12.51,65.69,0,10.84-6.25,16.25-12.61,16.25-19S343.17,396,332.33,389.72Z" transform="translate(-243.79 -352.85)"/><path id="Path_7513" data-name="Path 7513" class="cls-27" d="M331.51,389.72c-21.67-12.51-44-12.51-65.69,0h0c-10.83,6.25-16.25,12.61-16.25,19s5.42,12.71,16.25,19c21.66,12.51,44,12.51,65.69,0,10.83-6.25,16.25-12.61,16.25-19S342.34,396,331.51,389.72Z" transform="translate(-243.79 -352.85)"/><path id="Path_7514" data-name="Path 7514" class="cls-28" d="M330.68,389.72c-21.66-12.51-44-12.51-65.69,0h0c-10.83,6.25-16.25,12.61-16.25,19s5.42,12.71,16.25,19c21.67,12.51,44,12.51,65.69,0,10.83-6.25,16.25-12.61,16.25-19S341.51,396,330.68,389.72Z" transform="translate(-243.79 -352.85)"/><path id="Path_7515" data-name="Path 7515" class="cls-29" d="M329.86,389.72c-21.67-12.51-44-12.51-65.69,0h0c-10.84,6.25-16.25,12.61-16.25,19s5.41,12.71,16.25,19c21.66,12.51,44,12.51,65.69,0,10.83-6.25,16.25-12.61,16.25-19S340.69,396,329.86,389.72Z" transform="translate(-243.79 -352.85)"/><path id="Path_7516" data-name="Path 7516" class="cls-30" d="M329,389.72c-21.66-12.51-44-12.51-65.69,0h0c-10.83,6.25-16.25,12.61-16.25,19s5.42,12.71,16.25,19c21.67,12.51,44,12.51,65.69,0,10.84-6.25,16.25-12.61,16.25-19S339.86,396,329,389.72Z" transform="translate(-243.79 -352.85)"/><path id="Path_7517" data-name="Path 7517" class="cls-31" d="M328.21,389.72c-21.67-12.51-44-12.51-65.69,0h0c-10.83,6.25-16.25,12.61-16.25,19s5.42,12.71,16.25,19c21.66,12.51,44,12.51,65.69,0,10.83-6.25,16.25-12.61,16.25-19S339,396,328.21,389.72Z" transform="translate(-243.79 -352.85)"/><path id="Path_7518" data-name="Path 7518" class="cls-32" d="M327.38,389.72c-21.66-12.51-44-12.51-65.69,0h0c-10.83,6.25-16.25,12.61-16.25,19s5.42,12.71,16.25,19c21.67,12.51,44,12.51,65.69,0,10.84-6.25,16.25-12.61,16.25-19S338.22,396,327.38,389.72Z" transform="translate(-243.79 -352.85)"/><path id="Path_7519" data-name="Path 7519" class="cls-33" d="M326.56,389.72c-21.67-12.51-44-12.51-65.69,0h0c-10.83,6.25-16.25,12.61-16.25,19s5.42,12.71,16.25,19c21.66,12.51,44,12.51,65.69,0,10.83-6.25,16.25-12.61,16.25-19S337.39,396,326.56,389.72Z" transform="translate(-243.79 -352.85)"/><path id="Path_7520" data-name="Path 7520" class="cls-34" d="M325.73,389.72c-21.66-12.51-44-12.51-65.69,0h0c-10.83,6.25-16.25,12.61-16.25,19s5.42,12.71,16.25,19c21.67,12.51,44,12.51,65.69,0,10.84-6.25,16.25-12.61,16.25-19S336.57,396,325.73,389.72Z" transform="translate(-243.79 -352.85)"/></g><g id="Group_12666" data-name="Group 12666"><g id="Group_9829-2" data-name="Group 9829-2"><path id="Path_7407-2" data-name="Path 7407-2" class="cls-1" d="M338.74,385.81C320,375,300.6,375,281.84,385.81h0c-9.38,5.42-14.08,10.93-14.08,16.43s4.7,11,14.08,16.43c18.77,10.83,38.14,10.83,56.9,0,9.38-5.42,14.07-10.93,14.07-16.43S348.12,391.23,338.74,385.81Z" transform="translate(-243.79 -352.85)"/><path id="Path_7408-2" data-name="Path 7408-2" class="cls-2" d="M338,385.81c-18.77-10.83-38.14-10.83-56.9,0h0c-9.39,5.42-14.08,10.93-14.08,16.43s4.69,11,14.08,16.43c18.76,10.83,38.13,10.83,56.9,0,9.38-5.42,14.07-10.93,14.07-16.43S347.41,391.23,338,385.81Z" transform="translate(-243.79 -352.85)"/><path id="Path_7409-2" data-name="Path 7409-2" class="cls-3" d="M337.31,385.81c-18.77-10.83-38.13-10.83-56.9,0h0c-9.38,5.42-14.07,10.93-14.07,16.43s4.69,11,14.07,16.43c18.77,10.83,38.14,10.83,56.9,0,9.38-5.42,14.08-10.93,14.08-16.43S346.69,391.23,337.31,385.81Z" transform="translate(-243.79 -352.85)"/><path id="Path_7410-2" data-name="Path 7410-2" class="cls-4" d="M336.6,385.81c-18.77-10.83-38.14-10.83-56.9,0h0c-9.39,5.42-14.08,10.93-14.08,16.43s4.69,11,14.08,16.43c18.76,10.83,38.13,10.83,56.9,0,9.38-5.42,14.07-10.93,14.07-16.43S346,391.23,336.6,385.81Z" transform="translate(-243.79 -352.85)"/><path id="Path_7411-2" data-name="Path 7411-2" class="cls-5" d="M335.88,385.81c-18.76-10.83-38.13-10.83-56.9,0h0c-9.38,5.42-14.07,10.93-14.07,16.43s4.69,11,14.07,16.43c18.77,10.83,38.14,10.83,56.9,0,9.39-5.42,14.08-10.93,14.08-16.43S345.27,391.23,335.88,385.81Z" transform="translate(-243.79 -352.85)"/><path id="Path_7412-2" data-name="Path 7412-2" class="cls-6" d="M335.17,385.81C316.4,375,297,375,278.27,385.81h0c-9.39,5.42-14.08,10.93-14.08,16.43s4.69,11,14.08,16.43c18.76,10.83,38.13,10.83,56.9,0,9.38-5.42,14.07-10.93,14.07-16.43S344.55,391.23,335.17,385.81Z" transform="translate(-243.79 -352.85)"/><path id="Path_7413-2" data-name="Path 7413-2" class="cls-7" d="M334.45,385.81c-18.76-10.83-38.13-10.83-56.9,0h0c-9.38,5.42-14.07,10.93-14.07,16.43s4.69,11,14.07,16.43c18.77,10.83,38.14,10.83,56.9,0,9.39-5.42,14.08-10.93,14.08-16.43S343.84,391.23,334.45,385.81Z" transform="translate(-243.79 -352.85)"/><path id="Path_7414-2" data-name="Path 7414-2" class="cls-8" d="M333.74,385.81C315,375,295.6,375,276.84,385.81h0c-9.39,5.42-14.08,10.93-14.08,16.43s4.69,11,14.08,16.43c18.77,10.83,38.13,10.83,56.9,0,9.38-5.42,14.07-10.93,14.07-16.43S343.12,391.23,333.74,385.81Z" transform="translate(-243.79 -352.85)"/><path id="Path_7415-2" data-name="Path 7415-2" class="cls-9" d="M333,385.81c-18.76-10.83-38.13-10.83-56.9,0h0c-9.38,5.42-14.07,10.93-14.07,16.43s4.69,11,14.07,16.43c18.77,10.83,38.14,10.83,56.9,0,9.39-5.42,14.08-10.93,14.08-16.43S342.41,391.23,333,385.81Z" transform="translate(-243.79 -352.85)"/><path id="Path_7416-2" data-name="Path 7416-2" class="cls-10" d="M332.31,385.81c-18.77-10.83-38.14-10.83-56.9,0h0c-9.39,5.42-14.08,10.93-14.08,16.43s4.7,11,14.08,16.43c18.77,10.83,38.13,10.83,56.9,0,9.38-5.42,14.07-10.93,14.07-16.43S341.69,391.23,332.31,385.81Z" transform="translate(-243.79 -352.85)"/><path id="Path_7417-2" data-name="Path 7417-2" class="cls-11" d="M331.59,385.81c-18.76-10.83-38.13-10.83-56.9,0h0c-9.38,5.42-14.07,10.93-14.07,16.43s4.69,11,14.07,16.43c18.77,10.83,38.14,10.83,56.9,0,9.39-5.42,14.08-10.93,14.08-16.43S341,391.23,331.59,385.81Z" transform="translate(-243.79 -352.85)"/><path id="Path_7418-2" data-name="Path 7418-2" class="cls-12" d="M330.88,385.81c-18.77-10.83-38.14-10.83-56.9,0h0c-9.38,5.42-14.08,10.93-14.08,16.43s4.7,11,14.08,16.43c18.77,10.83,38.14,10.83,56.9,0,9.38-5.42,14.07-10.93,14.07-16.43S340.26,391.23,330.88,385.81Z" transform="translate(-243.79 -352.85)"/><path id="Path_7419-2" data-name="Path 7419-2" class="cls-13" d="M330.16,385.81C311.4,375,292,375,273.26,385.81h0c-9.38,5.42-14.07,10.93-14.07,16.43s4.69,11,14.07,16.43c18.77,10.83,38.14,10.83,56.9,0,9.39-5.42,14.08-10.93,14.08-16.43S339.55,391.23,330.16,385.81Z" transform="translate(-243.79 -352.85)"/><path id="Path_7420-2" data-name="Path 7420-2" class="cls-14" d="M329.45,385.81c-18.77-10.83-38.13-10.83-56.9,0h0c-9.38,5.42-14.07,10.93-14.07,16.43s4.69,11,14.07,16.43c18.77,10.83,38.14,10.83,56.9,0,9.38-5.42,14.08-10.93,14.08-16.43S338.83,391.23,329.45,385.81Z" transform="translate(-243.79 -352.85)"/><path id="Path_7421-2" data-name="Path 7421-2" class="cls-15" d="M328.74,385.81C310,375,290.6,375,271.84,385.81h0c-9.39,5.42-14.08,10.93-14.08,16.43s4.69,11,14.08,16.43c18.76,10.83,38.13,10.83,56.9,0,9.38-5.42,14.07-10.93,14.07-16.43S338.12,391.23,328.74,385.81Z" transform="translate(-243.79 -352.85)"/><path id="Path_7422-2" data-name="Path 7422-2" class="cls-16" d="M328,385.81c-18.77-10.83-38.14-10.83-56.9,0h0c-9.39,5.42-14.08,10.93-14.08,16.43s4.69,11,14.08,16.43c18.76,10.83,38.13,10.83,56.9,0,9.38-5.42,14.07-10.93,14.07-16.43S337.41,391.23,328,385.81Z" transform="translate(-243.79 -352.85)"/><path id="Path_7423-2" data-name="Path 7423-2" class="cls-17" d="M327.31,385.81c-18.77-10.83-38.14-10.83-56.9,0h0c-9.39,5.42-14.08,10.93-14.08,16.43s4.69,11,14.08,16.43c18.76,10.83,38.13,10.83,56.9,0,9.38-5.42,14.07-10.93,14.07-16.43S336.69,391.23,327.31,385.81Z" transform="translate(-243.79 -352.85)"/><path id="Path_7424-2" data-name="Path 7424-2" class="cls-18" d="M326.59,385.81c-18.77-10.83-38.13-10.83-56.9,0h0c-9.38,5.42-14.07,10.93-14.07,16.43s4.69,11,14.07,16.43c18.77,10.83,38.14,10.83,56.9,0,9.39-5.42,14.08-10.93,14.08-16.43S336,391.23,326.59,385.81Z" transform="translate(-243.79 -352.85)"/><path id="Path_7425-2" data-name="Path 7425-2" class="cls-19" d="M325.88,385.81c-18.77-10.83-38.14-10.83-56.9,0h0c-9.39,5.42-14.08,10.93-14.08,16.43s4.69,11,14.08,16.43c18.77,10.83,38.13,10.83,56.9,0,9.38-5.42,14.07-10.93,14.07-16.43S335.26,391.23,325.88,385.81Z" transform="translate(-243.79 -352.85)"/><path id="Path_7426-2" data-name="Path 7426-2" class="cls-20" d="M325.16,385.81c-18.77-10.83-38.13-10.83-56.9,0h0c-9.38,5.42-14.07,10.93-14.07,16.43s4.69,11,14.07,16.43c18.77,10.83,38.14,10.83,56.9,0,9.39-5.42,14.08-10.93,14.08-16.43S334.55,391.23,325.16,385.81Z" transform="translate(-243.79 -352.85)"/><path id="Path_7427-2" data-name="Path 7427-2" class="cls-21" d="M324.45,385.81c-18.77-10.83-38.14-10.83-56.9,0h0c-9.39,5.42-14.08,10.93-14.08,16.43s4.7,11,14.08,16.43c18.77,10.83,38.13,10.83,56.9,0,9.38-5.42,14.07-10.93,14.07-16.43S333.83,391.23,324.45,385.81Z" transform="translate(-243.79 -352.85)"/><path id="Path_7428-2" data-name="Path 7428-2" class="cls-22" d="M323.73,385.81c-18.77-10.83-38.14-10.83-56.9,0h0c-9.38,5.42-14.07,10.93-14.07,16.43s4.69,11,14.07,16.43c18.77,10.83,38.14,10.83,56.9,0,9.38-5.42,14.08-10.93,14.08-16.43S333.12,391.23,323.73,385.81Z" transform="translate(-243.79 -352.85)"/><path id="Path_7429-2" data-name="Path 7429-2" class="cls-23" d="M323,385.81c-18.77-10.83-38.14-10.83-56.9,0h0c-9.38,5.42-14.08,10.93-14.08,16.43s4.7,11,14.08,16.43c18.77,10.83,38.13,10.83,56.9,0,9.38-5.42,14.07-10.93,14.07-16.43S332.4,391.23,323,385.81Z" transform="translate(-243.79 -352.85)"/><path id="Path_7430-2" data-name="Path 7430-2" class="cls-24" d="M322.3,385.81c-18.76-10.83-38.13-10.83-56.9,0h0c-9.38,5.42-14.07,10.93-14.07,16.43s4.69,11,14.07,16.43c18.77,10.83,38.14,10.83,56.9,0,9.39-5.42,14.08-10.93,14.08-16.43S331.69,391.23,322.3,385.81Z" transform="translate(-243.79 -352.85)"/><path id="Path_7431-2" data-name="Path 7431-2" class="cls-25" d="M321.59,385.81c-18.77-10.83-38.14-10.83-56.9,0h0c-9.38,5.42-14.08,10.93-14.08,16.43s4.7,11,14.08,16.43c18.77,10.83,38.14,10.83,56.9,0,9.38-5.42,14.07-10.93,14.07-16.43S331,391.23,321.59,385.81Z" transform="translate(-243.79 -352.85)"/><path id="Path_7432-2" data-name="Path 7432-2" class="cls-26" d="M320.88,385.81c-18.77-10.83-38.14-10.83-56.9,0h0c-9.39,5.42-14.08,10.93-14.08,16.43s4.69,11,14.08,16.43c18.76,10.83,38.13,10.83,56.9,0,9.38-5.42,14.07-10.93,14.07-16.43S330.26,391.23,320.88,385.81Z" transform="translate(-243.79 -352.85)"/><path id="Path_7433-2" data-name="Path 7433-2" class="cls-27" d="M320.16,385.81c-18.77-10.83-38.13-10.83-56.9,0h0c-9.38,5.42-14.07,10.93-14.07,16.43s4.69,11,14.07,16.43c18.77,10.83,38.14,10.83,56.9,0,9.38-5.42,14.08-10.93,14.08-16.43S329.54,391.23,320.16,385.81Z" transform="translate(-243.79 -352.85)"/><path id="Path_7434-2" data-name="Path 7434-2" class="cls-28" d="M319.45,385.81c-18.77-10.83-38.14-10.83-56.9,0h0c-9.39,5.42-14.08,10.93-14.08,16.43s4.69,11,14.08,16.43c18.76,10.83,38.13,10.83,56.9,0,9.38-5.42,14.07-10.93,14.07-16.43S328.83,391.23,319.45,385.81Z" transform="translate(-243.79 -352.85)"/><path id="Path_7435-2" data-name="Path 7435-2" class="cls-29" d="M318.73,385.81C300,375,280.6,375,261.83,385.81h0c-9.38,5.42-14.07,10.93-14.07,16.43s4.69,11,14.07,16.43c18.77,10.83,38.14,10.83,56.9,0,9.38-5.42,14.08-10.93,14.08-16.43S328.12,391.23,318.73,385.81Z" transform="translate(-243.79 -352.85)"/><path id="Path_7436-2" data-name="Path 7436-2" class="cls-30" d="M318,385.81c-18.77-10.83-38.14-10.83-56.9,0h0c-9.39,5.42-14.08,10.93-14.08,16.43s4.69,11,14.08,16.43c18.76,10.83,38.13,10.83,56.9,0,9.38-5.42,14.07-10.93,14.07-16.43S327.4,391.23,318,385.81Z" transform="translate(-243.79 -352.85)"/><path id="Path_7437-2" data-name="Path 7437-2" class="cls-31" d="M317.3,385.81c-18.77-10.83-38.13-10.83-56.9,0h0c-9.38,5.42-14.07,10.93-14.07,16.43s4.69,11,14.07,16.43c18.77,10.83,38.14,10.83,56.9,0,9.39-5.42,14.08-10.93,14.08-16.43S326.69,391.23,317.3,385.81Z" transform="translate(-243.79 -352.85)"/><path id="Path_7438-2" data-name="Path 7438-2" class="cls-32" d="M316.59,385.81c-18.77-10.83-38.14-10.83-56.9,0h0c-9.39,5.42-14.08,10.93-14.08,16.43s4.69,11,14.08,16.43c18.77,10.83,38.13,10.83,56.9,0,9.38-5.42,14.07-10.93,14.07-16.43S326,391.23,316.59,385.81Z" transform="translate(-243.79 -352.85)"/><path id="Path_7439-2" data-name="Path 7439-2" class="cls-33" d="M315.87,385.81c-18.76-10.83-38.13-10.83-56.9,0h0c-9.38,5.42-14.07,10.93-14.07,16.43s4.69,11,14.07,16.43c18.77,10.83,38.14,10.83,56.9,0,9.39-5.42,14.08-10.93,14.08-16.43S325.26,391.23,315.87,385.81Z" transform="translate(-243.79 -352.85)"/><path id="Path_7440-2" data-name="Path 7440-2" class="cls-34" d="M315.16,385.81c-18.77-10.83-38.14-10.83-56.9,0h0c-9.38,5.42-14.08,10.93-14.08,16.43s4.7,11,14.08,16.43c18.77,10.83,38.13,10.83,56.9,0,9.38-5.42,14.07-10.93,14.07-16.43S324.54,391.23,315.16,385.81Z" transform="translate(-243.79 -352.85)"/></g><g id="Group_9830-2" data-name="Group 9830-2"><path id="Path_7441-2" data-name="Path 7441-2" class="cls-35" d="M324.12,390.65c-21.11-12.24-42.91-12.27-64.06-.1h0c-10.58,6.08-15.87,12.27-15.88,18.46s5.26,12.4,15.82,18.52c21.11,12.24,42.92,12.27,64.07.1,10.57-6.08,15.86-12.27,15.87-18.47S334.68,396.76,324.12,390.65Z" transform="translate(-243.79 -352.85)"/><path id="Path_7442-2" data-name="Path 7442-2" class="cls-36" d="M324.08,418.41c-21.15,12.16-43,12.13-64.07-.1-10.55-6.12-15.83-12.33-15.82-18.52V409c0,6.2,5.26,12.4,15.82,18.51,21.11,12.24,42.91,12.27,64.06.1,10.58-6.08,15.87-12.27,15.88-18.46l0-9.23C340,406.13,334.65,412.32,324.08,418.41Z" transform="translate(-243.79 -352.85)"/><path id="Path_7443-2" data-name="Path 7443-2" d="M324.14,381.42c-21.11-12.24-42.92-12.27-64.07-.1h0c-10.57,6.08-15.86,12.27-15.87,18.47s5.26,12.4,15.81,18.52c21.11,12.23,42.92,12.26,64.07.1,10.58-6.09,15.87-12.28,15.88-18.47S334.69,387.53,324.14,381.42Z" transform="translate(-243.79 -352.85)"/></g></g><g id="Group_12665" data-name="Group 12665"><g id="Group_12656" data-name="Group 12656"><path id="Path_10506" data-name="Path 10506" class="cls-37" d="M255.82,395.13l4.72-2.73H266l1.18.68h1.95l3.54,2.05-3.54,2h-1.95l-1.18.68h-5.45Z" transform="translate(-243.79 -352.85)"/><path id="Path_10507" data-name="Path 10507" class="cls-38" d="M255.82,389.67l4.72,2.73v5.45l-4.72-2.73Z" transform="translate(-243.79 -352.85)"/><path id="Path_10508" data-name="Path 10508" class="cls-39" d="M255.82,389.67l4.72-2.72,4.72,2.72-4.72,2.73Z" transform="translate(-243.79 -352.85)"/><path id="Path_10509" data-name="Path 10509" class="cls-40" d="M260.68,387l4.58,2.64-1.68,1.95-1.72,0h-1.18Z" transform="translate(-243.79 -352.85)"/><g id="Group_12655" data-name="Group 12655"><path id="Path_10510" data-name="Path 10510" class="cls-41" d="M257,386.55l3.54-2,3.54,2-3.54,2Z" transform="translate(-243.79 -352.85)"/><path id="Path_10511" data-name="Path 10511" class="cls-42" d="M257,386.55v3.12l3.54,2.05V388.6Z" transform="translate(-243.79 -352.85)"/><path id="Path_10512" data-name="Path 10512" class="cls-43" d="M264.08,386.55v3.12l-3.54,2.05v-3.13Z" transform="translate(-243.79 -352.85)"/></g><path id="Path_10513" data-name="Path 10513" class="cls-44" d="M265.26,389.67l-4.72,2.73v5.45l4.72-2.73Z" transform="translate(-243.79 -352.85)"/></g><path id="Path_10518" data-name="Path 10518" class="cls-37" d="M323.6,401.47l-26.24,15.15H296l-30.28-18.26L292,383.21Z" transform="translate(-243.79 -352.85)"/><path id="Path_10519" data-name="Path 10519" class="cls-45" d="M322.25,400.12,296,415.27,264.38,397l26.24-15.15Z" transform="translate(-243.79 -352.85)"/><path id="Path_10520" data-name="Path 10520" class="cls-46" d="M322.25,400.12,300,413.44l-2.33.85H296V385Z" transform="translate(-243.79 -352.85)"/><path id="Path_10521" data-name="Path 10521" class="cls-47" d="M320.56,370.13,296,384.3,266.07,367l24.55-14.17Z" transform="translate(-243.79 -352.85)"/><path id="Path_10522" data-name="Path 10522" class="cls-48" d="M302.46,380.58l-2.34,2L296,384.3h0l-11.62-6.71L266.07,367l1.69-1h9.52Z" transform="translate(-243.79 -352.85)"/><path id="Path_10523" data-name="Path 10523" class="cls-45" d="M266.07,378l-.84-.49.84-.48Z" transform="translate(-243.79 -352.85)"/><path id="Path_10524" data-name="Path 10524" class="cls-49" d="M266.07,371.05l-.84-.49.84-.49Z" transform="translate(-243.79 -352.85)"/><path id="Path_10525" data-name="Path 10525" class="cls-50" d="M265.23,370.56l.84.49v7l-.84-.49Z" transform="translate(-243.79 -352.85)"/><g id="Group_12660" data-name="Group 12660"><path id="Path_10526" data-name="Path 10526" class="cls-51" d="M317.17,370.13,290.62,354.8,269.46,367l30.21,13.22Z" transform="translate(-243.79 -352.85)"/><path id="Path_10527" data-name="Path 10527" class="cls-52" d="M292.12,358.67l-1.5-3.87L269.46,367l2.6,1.5Z" transform="translate(-243.79 -352.85)"/><path id="Path_10528" data-name="Path 10528" class="cls-53" d="M272.05,368.53l1.5.86,18.57-10.72-1.5-.86Z" transform="translate(-243.79 -352.85)"/><path id="Path_10529" data-name="Path 10529" class="cls-47" d="M273.55,369.39l26.12,10.85,14.9-8.61-22.45-13Z" transform="translate(-243.79 -352.85)"/></g><g id="Group_12661" data-name="Group 12661"><path id="Path_10530" data-name="Path 10530" class="cls-54" d="M273,369,296,382.35l3.66-2.11L280.28,369Z" transform="translate(-243.79 -352.85)"/><path id="Path_10531" data-name="Path 10531" class="cls-55" d="M273,369l.59.35.6-.35Z" transform="translate(-243.79 -352.85)"/></g><path id="Path_10532" data-name="Path 10532" class="cls-47" d="M296,374.79l-29.94-17.28,1.69-1,29.94,17.28Z" transform="translate(-243.79 -352.85)"/><path id="Path_10533" data-name="Path 10533" class="cls-51" d="M266.07,357.51,296,374.79v39.5L266.07,397Z" transform="translate(-243.79 -352.85)"/><path id="Path_10534" data-name="Path 10534" class="cls-53" d="M320.56,370.13,296,384.3v5.84l-2.81,8.67,2.81,8.71v6.77l16.47-9.51v-.54l4.46-2.58.47.27,3.15-1.82Z" transform="translate(-243.79 -352.85)"/><g id="Group_12662" data-name="Group 12662"><path id="Path_10535" data-name="Path 10535" class="cls-53" d="M310.45,406l2-1.17v-.54l4.33-3.67.6,1.36,1.79-1c0-5.92,0-11.3,0-12.92s-.59-2.39-1.6-1.84-4.47,2.31-5.27,2.72a3.32,3.32,0,0,0-1.89,3.24Z" transform="translate(-243.79 -352.85)"/><path id="Path_10536" data-name="Path 10536" class="cls-53" d="M310.5,405.92l2-1.15v-.54l4.31-3.65.6,1.35,1.75-1c0-5.93,0-11.29,0-12.91s-.55-2.38-1.57-1.83-4.45,2.31-5.26,2.72a3.28,3.28,0,0,0-1.85,3.18Z" transform="translate(-243.79 -352.85)"/><path id="Path_10537" data-name="Path 10537" class="cls-53" d="M310.55,405.89l2-1.13v-.54l4.29-3.63.6,1.34,1.72-1c0-5.92,0-11.27,0-12.9s-.51-2.37-1.52-1.82-4.45,2.32-5.25,2.72a3.2,3.2,0,0,0-1.81,3.12Z" transform="translate(-243.79 -352.85)"/><path id="Path_10538" data-name="Path 10538" class="cls-53" d="M310.6,405.87l1.94-1.12v-.54l4.27-3.61.6,1.33,1.68-1c0-5.92,0-11.26,0-12.88s-.48-2.37-1.5-1.82-4.43,2.33-5.23,2.73a3.09,3.09,0,0,0-1.77,3.06Z" transform="translate(-243.79 -352.85)"/><path id="Path_10539" data-name="Path 10539" class="cls-53" d="M310.65,405.84l1.9-1.1v-.54l4.26-3.59.6,1.32,1.64-.95c0-5.92,0-11.25,0-12.87s-.44-2.36-1.46-1.8-4.42,2.33-5.22,2.73a3,3,0,0,0-1.73,3Z" transform="translate(-243.79 -352.85)"/><path id="Path_10540" data-name="Path 10540" class="cls-53" d="M310.7,405.81l1.87-1.08v-.54l4.23-3.57.6,1.31L319,401c0-5.92,0-11.24,0-12.86s-.41-2.35-1.42-1.8l-5.22,2.74a2.94,2.94,0,0,0-1.69,2.93Z" transform="translate(-243.79 -352.85)"/><path id="Path_10541" data-name="Path 10541" class="cls-53" d="M310.75,405.78l1.84-1.07v-.54l4.22-3.55.6,1.31L319,401c0-5.92,0-11.23,0-12.85s-.37-2.34-1.38-1.79-4.41,2.34-5.21,2.74a2.88,2.88,0,0,0-1.65,2.87Z" transform="translate(-243.79 -352.85)"/><path id="Path_10542" data-name="Path 10542" class="cls-53" d="M310.8,405.75l1.81-1v-.54l4.2-3.54.6,1.3L319,401c0-5.92,0-11.22,0-12.84s-.34-2.33-1.35-1.78-4.4,2.35-5.2,2.75a2.79,2.79,0,0,0-1.61,2.8Z" transform="translate(-243.79 -352.85)"/><path id="Path_10543" data-name="Path 10543" class="cls-53" d="M310.85,405.72l1.78-1v-.54l4.18-3.51.6,1.29,1.5-.87c0-5.92,0-11.21,0-12.83s-.3-2.32-1.31-1.77-4.39,2.35-5.19,2.76a2.69,2.69,0,0,0-1.57,2.73Z" transform="translate(-243.79 -352.85)"/><path id="Path_10544" data-name="Path 10544" class="cls-53" d="M310.9,405.69l1.75-1v-.54l4.16-3.49.6,1.28,1.47-.85c0-5.92,0-11.2,0-12.82s-.26-2.31-1.28-1.76-4.37,2.36-5.18,2.76a2.64,2.64,0,0,0-1.53,2.68Z" transform="translate(-243.79 -352.85)"/><path id="Path_10545" data-name="Path 10545" class="cls-53" d="M311,405.66l1.71-1v-.54l4.14-3.47.61,1.27,1.44-.83c0-5.92,0-11.19,0-12.81s-.22-2.3-1.24-1.75-4.36,2.36-5.17,2.76a2.57,2.57,0,0,0-1.49,2.62Z" transform="translate(-243.79 -352.85)"/><path id="Path_10546" data-name="Path 10546" class="cls-53" d="M311,405.63l1.68-1v-.54l4.12-3.45.61,1.26,1.4-.8c0-5.93,0-11.18,0-12.8s-.19-2.3-1.2-1.74-4.36,2.36-5.16,2.76A2.48,2.48,0,0,0,311,391.9Z" transform="translate(-243.79 -352.85)"/><path id="Path_10547" data-name="Path 10547" class="cls-53" d="M311.05,405.6l1.65-1v-.54l4.1-3.43.61,1.25,1.36-.79c0-5.92,0-11.16,0-12.79s-.15-2.28-1.17-1.73-4.34,2.37-5.15,2.77a2.43,2.43,0,0,0-1.41,2.49Z" transform="translate(-243.79 -352.85)"/><path id="Path_10548" data-name="Path 10548" class="cls-53" d="M311.1,405.57l1.62-.93v-.54l4.08-3.41.61,1.24,1.33-.76c0-5.93,0-11.16,0-12.78s-.12-2.28-1.13-1.73-4.34,2.37-5.14,2.78a2.31,2.31,0,0,0-1.37,2.42Z" transform="translate(-243.79 -352.85)"/><path id="Path_10549" data-name="Path 10549" class="cls-53" d="M311.16,405.54l1.58-.91v-.54l4.06-3.4.61,1.24,1.29-.75c0-5.92,0-11.14,0-12.77s-.08-2.26-1.09-1.71-4.33,2.38-5.13,2.78a2.25,2.25,0,0,0-1.33,2.36Z" transform="translate(-243.79 -352.85)"/><path id="Path_10550" data-name="Path 10550" class="cls-53" d="M311.21,405.51l1.55-.89v-.54l4-3.38.61,1.23,1.26-.72c0-5.93,0-11.14,0-12.76s-.05-2.26-1.06-1.7-4.32,2.38-5.12,2.78a2.17,2.17,0,0,0-1.29,2.3Z" transform="translate(-243.79 -352.85)"/><path id="Path_10551" data-name="Path 10551" class="cls-53" d="M311.26,405.49l1.51-.88v-.54l4-3.36.61,1.22,1.22-.7c0-5.93,0-11.13,0-12.75s0-2.25-1-1.7-4.31,2.39-5.11,2.79a2.1,2.1,0,0,0-1.25,2.24Z" transform="translate(-243.79 -352.85)"/><path id="Path_10552" data-name="Path 10552" class="cls-53" d="M311.31,405.46l1.48-.86v-.54l4-3.34.61,1.21,1.19-.68c0-5.93,0-11.12,0-12.74s0-2.24-1-1.69-4.3,2.39-5.1,2.8a2,2,0,0,0-1.21,2.17Z" transform="translate(-243.79 -352.85)"/><path id="Path_10553" data-name="Path 10553" class="cls-53" d="M311.36,405.43l1.45-.84v-.54l4-3.32.61,1.2,1.15-.66c0-5.93,0-11.11,0-12.73s.06-2.23-.95-1.67-4.29,2.39-5.09,2.8a1.92,1.92,0,0,0-1.17,2.1Z" transform="translate(-243.79 -352.85)"/><path id="Path_10554" data-name="Path 10554" class="cls-53" d="M311.41,405.4l1.42-.82V404l4-3.3.61,1.2,1.12-.65c0-5.92,0-11.1,0-12.71s.1-2.22-.91-1.67-4.28,2.4-5.08,2.8a1.86,1.86,0,0,0-1.13,2Z" transform="translate(-243.79 -352.85)"/><path id="Path_10555" data-name="Path 10555" class="cls-53" d="M311.46,405.37l1.39-.8V404l3.95-3.28.61,1.18,1.08-.62c0-5.92,0-11.08,0-12.71s.14-2.21-.88-1.65-4.27,2.4-5.07,2.8-1.09.82-1.09,2Z" transform="translate(-243.79 -352.85)"/><path id="Path_10556" data-name="Path 10556" class="cls-53" d="M311.51,405.34l1.36-.78V404l3.93-3.27.61,1.18,1-.6c0-5.92,0-11.07,0-12.7s.18-2.2-.84-1.64-4.26,2.4-5.06,2.81-1.05.8-1.05,1.91Z" transform="translate(-243.79 -352.85)"/><path id="Path_10557" data-name="Path 10557" class="cls-53" d="M311.54,405.33l1.34-.78V404l3.92-3.27.61,1.2,1-.59c0-5.93,0-11.07,0-12.69s.2-2.2-.82-1.64-4.25,2.41-5.05,2.81-1,.79-1,1.88Z" transform="translate(-243.79 -352.85)"/><path id="Path_10558" data-name="Path 10558" class="cls-53" d="M311.56,405.31l1.32-.76V404l3.92-3.29.61,1.21,1-.58c0-5.92,0-11.05,0-12.67s.21-2.19-.8-1.64-4.25,2.41-5.05,2.82-1,.77-1,1.85Z" transform="translate(-243.79 -352.85)"/><path id="Path_10559" data-name="Path 10559" class="cls-53" d="M311.59,405.3l1.3-.76V404l3.91-3.3.61,1.23,1-.57c0-5.93,0-11,0-12.66s.23-2.19-.78-1.64-4.25,2.42-5.05,2.82-1,.76-1,1.82Z" transform="translate(-243.79 -352.85)"/><path id="Path_10560" data-name="Path 10560" class="cls-53" d="M311.61,405.28l1.29-.74V404l3.9-3.31.61,1.24,1-.56c0-5.92,0-11,0-12.65s.25-2.18-.76-1.62-4.24,2.41-5,2.82-1,.75-1,1.78Z" transform="translate(-243.79 -352.85)"/><path id="Path_10561" data-name="Path 10561" class="cls-53" d="M311.64,405.27l1.27-.74V404l3.89-3.32.61,1.26,1-.55c0-5.92,0-11,0-12.63s.27-2.18-.74-1.63-4.24,2.42-5,2.83-.95.74-.95,1.75Z" transform="translate(-243.79 -352.85)"/><path id="Path_10562" data-name="Path 10562" class="cls-53" d="M311.66,405.25l1.26-.72V404l3.88-3.33.61,1.27.94-.54c0-5.92,0-11,0-12.62s.28-2.17-.73-1.62-4.23,2.42-5,2.83-.94.73-.94,1.72Z" transform="translate(-243.79 -352.85)"/><path id="Path_10563" data-name="Path 10563" class="cls-53" d="M311.69,405.24l1.24-.72V404l3.88-3.34.6,1.29.92-.53c0-5.92,0-11,0-12.61s.3-2.17-.71-1.62-4.22,2.43-5,2.83-.92.72-.92,1.69Z" transform="translate(-243.79 -352.85)"/><path id="Path_10564" data-name="Path 10564" class="cls-53" d="M311.71,405.22l1.23-.71V404l3.87-3.35.6,1.31.9-.52c0-5.92,0-11,0-12.6s.32-2.16-.69-1.61-4.22,2.43-5,2.83-.89.71-.89,1.66Z" transform="translate(-243.79 -352.85)"/><path id="Path_10565" data-name="Path 10565" class="cls-53" d="M311.74,405.21l1.21-.7V404l3.86-3.36.6,1.32.88-.51c0-5.92,0-11,0-12.58s.34-2.16-.67-1.61-4.22,2.43-5,2.83-.88.7-.88,1.63Z" transform="translate(-243.79 -352.85)"/><path id="Path_10566" data-name="Path 10566" class="cls-53" d="M311.76,405.19l1.2-.69V404l3.85-3.37.6,1.34.87-.5c0-5.92,0-10.95,0-12.57s.35-2.15-.66-1.6-4.21,2.43-5,2.84-.86.68-.86,1.6Z" transform="translate(-243.79 -352.85)"/><path id="Path_10567" data-name="Path 10567" class="cls-53" d="M311.79,405.18l1.18-.68V404l3.84-3.39.6,1.36.85-.49c0-5.92,0-10.94,0-12.56s.37-2.15-.64-1.6-4.2,2.43-5,2.84-.83.67-.83,1.56Z" transform="translate(-243.79 -352.85)"/><path id="Path_10568" data-name="Path 10568" class="cls-53" d="M311.81,405.16l1.17-.67V404l3.83-3.4.6,1.38.83-.48c0-5.93,0-10.93,0-12.55s.39-2.15-.62-1.59-4.2,2.43-5,2.84-.81.66-.81,1.53Z" transform="translate(-243.79 -352.85)"/><path id="Path_10569" data-name="Path 10569" class="cls-53" d="M311.84,405.15l1.14-.66V404l3.83-3.41.6,1.39.81-.47c0-5.92,0-10.91,0-12.53s.41-2.14-.6-1.59-4.19,2.43-5,2.84-.8.65-.8,1.5Z" transform="translate(-243.79 -352.85)"/><path id="Path_10570" data-name="Path 10570" class="cls-53" d="M311.86,405.14l1.13-.66v-.54l3.82-3.41.6,1.4.8-.46c0-5.92,0-10.9,0-12.52s.43-2.14-.58-1.58-4.19,2.44-5,2.84-.78.64-.78,1.47Z" transform="translate(-243.79 -352.85)"/><path id="Path_10571" data-name="Path 10571" class="cls-53" d="M311.89,405.12l1.11-.64v-.54l3.82-3.43.6,1.42.77-.45c0-5.92,0-10.89,0-12.51s.45-2.13-.56-1.58-4.19,2.44-5,2.85-.76.63-.76,1.44Z" transform="translate(-243.79 -352.85)"/><path id="Path_10572" data-name="Path 10572" class="cls-53" d="M311.91,405.11l1.1-.64v-.54l3.8-3.44.6,1.45.76-.44c0-5.93,0-10.88,0-12.5s.46-2.13-.55-1.58-4.18,2.45-5,2.85-.74.62-.74,1.4Z" transform="translate(-243.79 -352.85)"/><path id="Path_10573" data-name="Path 10573" class="cls-53" d="M311.94,405.09l1.08-.62v-.54l3.8-3.45.6,1.45.74-.43c0-5.92,0-10.86,0-12.48s.48-2.13-.53-1.57-4.18,2.44-5,2.85-.71.61-.71,1.37Z" transform="translate(-243.79 -352.85)"/><path id="Path_10574" data-name="Path 10574" class="cls-53" d="M312,405.08l1.06-.62v-.54l3.79-3.46.59,1.47.73-.42c0-5.92,0-10.85,0-12.47s.5-2.12-.51-1.57-4.17,2.45-5,2.86-.7.6-.7,1.34Z" transform="translate(-243.79 -352.85)"/><path id="Path_10575" data-name="Path 10575" class="cls-53" d="M312,405.06l1.05-.6v-.54l3.78-3.48.59,1.49.71-.41c0-5.92,0-10.84,0-12.46s.53-2.11-.49-1.56-4.16,2.45-5,2.86-.68.58-.68,1.3Z" transform="translate(-243.79 -352.85)"/><path id="Path_10576" data-name="Path 10576" class="cls-53" d="M312,405.05l1-.6v-.54l3.77-3.49.59,1.51.69-.4c0-5.93,0-10.83,0-12.45s.54-2.11-.48-1.56-4.16,2.46-5,2.86-.65.58-.65,1.28Z" transform="translate(-243.79 -352.85)"/><path id="Path_10577" data-name="Path 10577" class="cls-53" d="M312,405l1-.58v-.54l3.77-3.5.58,1.52.68-.39c0-5.93,0-10.82,0-12.44s.56-2.1-.45-1.55-4.16,2.45-5,2.86-.63.57-.63,1.25Z" transform="translate(-243.79 -352.85)"/></g><path id="Path_10578" data-name="Path 10578" class="cls-56" d="M269.15,397.89l26.38,15.23v-.62l-1.3-3.35L294,409h0v-2.65l2,1.14V390.14l-29.94-10.23,5.17,13.31L293.39,406l0,1h-1.3V408l-24.26-13.43Z" transform="translate(-243.79 -352.85)"/><path id="Path_10579" data-name="Path 10579" class="cls-50" d="M266.55,394.67v.62l26.38,15.23v-.62l-20.79-12.51Z" transform="translate(-243.79 -352.85)"/><path id="Path_10580" data-name="Path 10580" class="cls-49" d="M267.85,393.92l-1.3.75,5.07,2.92,21.31,12.3,1.3-.75Z" transform="translate(-243.79 -352.85)"/><path id="Path_10581" data-name="Path 10581" class="cls-57" d="M294,409l-.87-.5v.5Z" transform="translate(-243.79 -352.85)"/><path id="Path_10582" data-name="Path 10582" class="cls-58" d="M294.23,409.77l-1.3.75v-.62l1.3-.75Z" transform="translate(-243.79 -352.85)"/><path id="Path_10583" data-name="Path 10583" class="cls-49" d="M292.43,394.72v13.89l-22-12.27L268.78,395Z" transform="translate(-243.79 -352.85)"/><path id="Path_10584" data-name="Path 10584" class="cls-57" d="M268.78,381.06l.87.5,3.32,4.89v7.86l-2.46.65h-1.73v-13.9Z" transform="translate(-243.79 -352.85)"/><path id="Path_10585" data-name="Path 10585" class="cls-57" d="M273,386.45v7.86l-2.46.65h-1.73l.87-.5Z" transform="translate(-243.79 -352.85)"/><path id="Path_10586" data-name="Path 10586" class="cls-59" d="M292.43,407.61l-22.78-13.15v-12.9l22.78,13.16Z" transform="translate(-243.79 -352.85)"/><path id="Path_10587" data-name="Path 10587" class="cls-41" d="M292.43,407.61,270.51,395v-5l1.59,4.1,20.33,11.74Z" transform="translate(-243.79 -352.85)"/><path id="Path_10588" data-name="Path 10588" class="cls-50" d="M268.05,394.53V379.44l3.65,1.86,21.46,12.64V409l-.73-.42V394.72l-23.65-13.65V395Z" transform="translate(-243.79 -352.85)"/><path id="Path_10589" data-name="Path 10589" class="cls-60" d="M268.05,386.38V380l3.45,1.17.2.1,21.46,12.65v11.57l-.73-.42V394.72l-23.65-13.66v7.19Z" transform="translate(-243.79 -352.85)"/><path id="Path_10590" data-name="Path 10590" class="cls-61" d="M293.6,408.78l-.44.25V393.94l.44-.25Z" transform="translate(-243.79 -352.85)"/><path id="Path_10591" data-name="Path 10591" class="cls-49" d="M268.48,379.19l-.43.25,3.45,2,21.66,12.5.44-.25Z" transform="translate(-243.79 -352.85)"/><path id="Path_10592" data-name="Path 10592" class="cls-62" d="M264.38,397,296,415.27v1.35l-31.63-18.26Z" transform="translate(-243.79 -352.85)"/><path id="Path_10593" data-name="Path 10593" class="cls-63" d="M322.25,400.12,296,415.26v1.36l26.24-15.15Z" transform="translate(-243.79 -352.85)"/><path id="Path_10594" data-name="Path 10594" class="cls-64" d="M296,390.14l-5.17,8.3v1.74l5.17-3Z" transform="translate(-243.79 -352.85)"/><path id="Path_10595" data-name="Path 10595" class="cls-65" d="M266.07,372.86,296,390.14l-5.16,8.3-20.63-10.52-9.31-6.77Z" transform="translate(-243.79 -352.85)"/><path id="Path_10596" data-name="Path 10596" class="cls-66" d="M266.07,372.86,296,390.14l-.56.9-29.64-17.11Z" transform="translate(-243.79 -352.85)"/><path id="Path_10597" data-name="Path 10597" class="cls-67" d="M260.9,382.89l29.94,17.29v-1.74L260.9,381.15Z" transform="translate(-243.79 -352.85)"/><path id="Path_10598" data-name="Path 10598" class="cls-53" d="M296,374.79v15.35l1.69-1V373.81Z" transform="translate(-243.79 -352.85)"/><path id="Path_10599" data-name="Path 10599" class="cls-49" d="M265.18,383.62l1.8,2.52,2.49-.05,5.16-8.3-4.28-2.47Z" transform="translate(-243.79 -352.85)"/><path id="Path_10600" data-name="Path 10600" class="cls-57" d="M274.07,378.7l.56-.9-2.71-1.57-1.57-.9-.56.9Z" transform="translate(-243.79 -352.85)"/><path id="Path_10601" data-name="Path 10601" class="cls-49" d="M273.74,388.56l1.92,2.34L278,391l5.17-8.3-4.28-2.47Z" transform="translate(-243.79 -352.85)"/><path id="Path_10602" data-name="Path 10602" class="cls-49" d="M282.29,393.5l1.78,1.73,2.5.74,5.16-8.3-4.28-2.47Z" transform="translate(-243.79 -352.85)"/><path id="Path_10603" data-name="Path 10603" class="cls-57" d="M282.62,383.63l.56-.9-2.71-1.56-1.57-.91-.56.9Z" transform="translate(-243.79 -352.85)"/><path id="Path_10604" data-name="Path 10604" class="cls-50" d="M282.29,393.5l4.28,2.47v1.74l-4.28-2.47Zm-17.11-9.88,4.28,2.47v1.74l-4.28-2.47Zm8.56,4.94L278,391v1.74l-4.27-2.47Z" transform="translate(-243.79 -352.85)"/><path id="Path_10605" data-name="Path 10605" class="cls-57" d="M291.17,388.57l.56-.9-2.7-1.56-1.57-.91-.56.9Z" transform="translate(-243.79 -352.85)"/><path id="Path_10606" data-name="Path 10606" class="cls-47" d="M265.23,371.54l29.93,17.28.85-.49-29.94-17.28Z" transform="translate(-243.79 -352.85)"/><path id="Path_10607" data-name="Path 10607" class="cls-51" d="M265.23,373.35l29.93,17.28v-1.81l-29.93-17.28Z" transform="translate(-243.79 -352.85)"/><path id="Path_10608" data-name="Path 10608" class="cls-53" d="M296,390.14l-.85.49v-1.81l.85-.49Z" transform="translate(-243.79 -352.85)"/><path id="Path_10609" data-name="Path 10609" class="cls-68" d="M322.25,374.16l-7.73,8.76-17.67,5.9-.84-.49,24.55-14.17v-1Z" transform="translate(-243.79 -352.85)"/><path id="Path_10610" data-name="Path 10610" class="cls-69" d="M322.25,374.16l-25.4,14.66v6.1l25.4-14.66Z" transform="translate(-243.79 -352.85)"/><path id="Path_10611" data-name="Path 10611" class="cls-49" d="M297.7,388.33l-.85.49-.25.19-.59-.68Z" transform="translate(-243.79 -352.85)"/><path id="Path_10612" data-name="Path 10612" class="cls-50" d="M296,388.33l.84.49v6.1l-.84-.49Z" transform="translate(-243.79 -352.85)"/><path id="Path_10613" data-name="Path 10613" class="cls-70" d="M296.85,393.19v1.73l-.84-.49v-6.1h0l.84,2.18v1.81l-.27-.16Z" transform="translate(-243.79 -352.85)"/><path id="Path_10614" data-name="Path 10614" class="cls-53" d="M288.79,364.33l3.74,4.29h3.7l5.95-3.44-7.43-4.29Z" transform="translate(-243.79 -352.85)"/><path id="Path_10615" data-name="Path 10615" class="cls-49" d="M285.1,360.63l7.43,8,6-7.13-7.44-4.29Z" transform="translate(-243.79 -352.85)"/><path id="Path_10616" data-name="Path 10616" class="cls-50" d="M285.1,360.63l7.43,4.29v3.7l-7.43-4.29Z" transform="translate(-243.79 -352.85)"/><path id="Path_10617" data-name="Path 10617" class="cls-71" d="M298.48,361.49l-6,3.43v3.7l6-3.44Z" transform="translate(-243.79 -352.85)"/><path id="Path_10618" data-name="Path 10618" class="cls-57" d="M293.1,359.49l.37.37.37.37v.85l-.37.37-.37.37-.64.21-.63.21h-1.48l-.64-.21-.63-.21-.37-.37-.37-.37v-.85l.37-.37.37-.37.63-.21.64-.21h1.48l.63.21Zm-1.36.79-.2-.07-.21-.07h-.48l-.21.07-.21.07-.12.12-.12.12v.27l.12.12.12.12.21.07.21.07h.48l.21-.07.2-.07.12-.12.12-.12v-.27l-.12-.12Z" transform="translate(-243.79 -352.85)"/><path id="Path_10619" data-name="Path 10619" class="cls-72" d="M316.94,387.77l.26,13.06-.26.83-.93.54-3.88,2.24V390.55Z" transform="translate(-243.79 -352.85)"/><path id="Path_10620" data-name="Path 10620" class="cls-73" d="M311.87,390.4l.46.28V405.4l-.46-.27Z" transform="translate(-243.79 -352.85)"/><path id="Path_10621" data-name="Path 10621" class="cls-74" d="M316.94,388.31h.94l.25,6.74-.25,7.15-.94-.54Z" transform="translate(-243.79 -352.85)"/><path id="Path_10622" data-name="Path 10622" class="cls-60" d="M318.6,387.06l-3.84,2-.72.49-1.7,1.16V405.4l.72-.41v-13.9l4.82-2.78V402.2l.73-.41Z" transform="translate(-243.79 -352.85)"/><path id="Path_10623" data-name="Path 10623" class="cls-75" d="M316.6,398v3.19l-3.54,2V402l1.83-2.21h.35v-1.05Z" transform="translate(-243.79 -352.85)"/><path id="Path_10624" data-name="Path 10624" class="cls-76" d="M316.37,398.11V401l-3.31,1.91V400Z" transform="translate(-243.79 -352.85)"/><path id="Path_10625" data-name="Path 10625" class="cls-77" d="M316.6,389.58v6.88l-.6.35-2.94,1.7v-6.89l2.18-1.26.76-.44Z" transform="translate(-243.79 -352.85)"/><path id="Path_10626" data-name="Path 10626" class="cls-53" d="M316.37,389.71v6.62l-3.31,1.91v-6.61Z" transform="translate(-243.79 -352.85)"/><path id="Path_10627" data-name="Path 10627" class="cls-78" d="M318.13,386.79l.47.27-6.27,3.61-.46-.27Z" transform="translate(-243.79 -352.85)"/><g id="Group_12664" data-name="Group 12664"><path id="Path_10628" data-name="Path 10628" class="cls-37" d="M296.89,418.84l4.72-2.73h5.45l1.19.68h1.94l3.54,2-3.54,2h-1.95l-1.18.68h-5.45Z" transform="translate(-243.79 -352.85)"/><path id="Path_10629" data-name="Path 10629" class="cls-38" d="M296.89,413.38l4.72,2.73v5.45l-4.72-2.73Z" transform="translate(-243.79 -352.85)"/><path id="Path_10630" data-name="Path 10630" class="cls-39" d="M296.89,413.38l4.72-2.72,4.72,2.72-4.72,2.73Z" transform="translate(-243.79 -352.85)"/><path id="Path_10631" data-name="Path 10631" class="cls-79" d="M301.75,410.74l4.58,2.64-1.68,2h-2.9Z" transform="translate(-243.79 -352.85)"/><g id="Group_12663" data-name="Group 12663"><path id="Path_10632" data-name="Path 10632" class="cls-41" d="M298.07,410.26l3.54-2,3.54,2-3.54,2.05Z" transform="translate(-243.79 -352.85)"/><path id="Path_10633" data-name="Path 10633" class="cls-42" d="M298.07,410.26v3.12l3.54,2.05v-3.12Z" transform="translate(-243.79 -352.85)"/><path id="Path_10634" data-name="Path 10634" class="cls-80" d="M305.15,410.26v3.12l-3.54,2.05v-3.12Z" transform="translate(-243.79 -352.85)"/></g><path id="Path_10635" data-name="Path 10635" class="cls-81" d="M306.33,413.38l-4.72,2.73v5.45l4.72-2.73Z" transform="translate(-243.79 -352.85)"/></g></g></g></svg>