<svg id="Layer_1" data-name="Layer 1" xmlns="http://www.w3.org/2000/svg" viewBox="0 0 1036 523"><defs><style>.cls-1{fill:none;stroke:#fff;stroke-miterlimit:10;stroke-width:4px;}</style></defs><path id="Path_13344" data-name="Path 13344" class="cls-1" d="M519.07,68.81h-2.14c-108.85,0-122.85,104.58-126.75,131.88-2.21,15.45-1.61,45.62,4.24,67.07s7.47,22.57,21.45,82.19c13.62,58.08,40.89,76.08,58.25,90,15.95,12.76,31.89,14.28,42.81,14.28h2.14c10.92,0,26.86-1.52,42.8-14.28C579.24,426,606.51,408,620.13,350c14-59.62,15.6-60.74,21.45-82.19s6.44-51.62,4.24-67.07C641.92,173.39,627.92,68.81,519.07,68.81Z"/></svg>