<svg xmlns="http://www.w3.org/2000/svg" xmlns:xlink="http://www.w3.org/1999/xlink" width="447.841" height="393.325" viewBox="0 0 447.841 393.325">
  <defs>
    <linearGradient id="linear-gradient" y1="0.716" x2="1" y2="0.716" gradientUnits="objectBoundingBox">
      <stop offset="0" stop-color="#7c98cc"/>
      <stop offset="0.891" stop-color="#dbeeff"/>
    </linearGradient>
  </defs>
  <g id="Grupo_13271" data-name="Grupo 13271" transform="translate(-959.157 -216.649)">
    <path id="Caminho_12122" data-name="Caminho 12122" d="M1384.41,731.175l146.244-93.021L1333.521,585.98Z" transform="translate(-123.656 -121.993)" opacity="0.43" fill="url(#linear-gradient)" style="mix-blend-mode: multiply;isolation: isolate"/>
    <path id="Caminho_12123" data-name="Caminho 12123" d="M1307.144,267.2l-215.75-50.361a4.225,4.225,0,0,0-4.607,1.483l0-.007-11.94,9.295,10.322,24.979V527.905c0,4.671,2.8,9.3,6.228,10.283L1279.7,592.3l18.6,16.882,12.124-9.229-.049-.086c1.794-.979,3-3.32,3-6.382V277.478C1313.373,272.807,1310.57,268.18,1307.144,267.2Z" transform="translate(-38.212 0)" fill="#00402A"/>
    <path id="Caminho_12124" data-name="Caminho 12124" d="M1293.947,614.284l-215.124-57.6c-3.415-.914-6.21-5.484-6.21-10.156V237.177c0-4.672,2.795-7.746,6.21-6.831l215.124,50.946c3.415.915,6.21,5.485,6.21,10.156V607.454C1300.157,612.125,1297.362,615.2,1293.947,614.284Z" transform="translate(-37.475 -4.471)" fill="#008C39"/>
    <path id="Caminho_12125" data-name="Caminho 12125" d="M1296.56,604.22l-198.633-53.18V266.731l198.633,46.806Z" transform="translate(-45.837 -16.542)" fill="#fff" stroke="#08457c" stroke-miterlimit="10" stroke-width="1.144"/>
    <path id="Caminho_12126" data-name="Caminho 12126" d="M1261.143,261.982l-1.863-.449c-1.49-9.348-8.413-17.936-16.49-19.884l-53.488-12.9c-8.076-1.949-14.655,3.381-15.694,12.119l-1.862-.449c-8.969-2.164-16.095,4.646-15.834,15.133h0c.26,10.487,7.812,20.838,16.781,23l89.4,21.57c8.969,2.164,16.094-4.646,15.833-15.133h0C1277.664,274.5,1270.112,264.146,1261.143,261.982Z" transform="translate(-64.987 -3.862)" fill="#00402A"/>
    <g id="Grupo_13266" data-name="Grupo 13266" transform="translate(1069.391 463.151)">
      <line id="Linha_2" data-name="Linha 2" x2="57.791" y2="15.272" transform="translate(68.523 24.627)" fill="none" stroke="#dfe0db" stroke-linecap="round" stroke-linejoin="round" stroke-width="4.964"/>
      <line id="Linha_3" data-name="Linha 3" x2="97.019" y2="25.431" transform="translate(68.06 47.667)" fill="none" stroke="#dfe0db" stroke-linecap="round" stroke-linejoin="round" stroke-width="4.964"/>
      <path id="Caminho_12127" data-name="Caminho 12127" d="M1161.219,636.686l-37.437-9.946-.02-42.008,37.437,9.946Z" transform="translate(-1123.761 -584.732)" fill="#00A443"/>
      <path id="Caminho_12128" data-name="Caminho 12128" d="M1135.6,614.837l8.517,14.868,11.1-14.36" transform="translate(-1127.673 -594.675)" fill="none" stroke="#fff" stroke-linecap="round" stroke-linejoin="round" stroke-width="5.531"/>
    </g>
    <g id="Grupo_13267" data-name="Grupo 13267" transform="translate(1069.391 389.107)">
      <line id="Linha_4" data-name="Linha 4" x2="57.791" y2="15.272" transform="translate(68.523 24.627)" fill="none" stroke="#dfe0db" stroke-linecap="round" stroke-linejoin="round" stroke-width="4.964"/>
      <line id="Linha_5" data-name="Linha 5" x2="97.019" y2="25.431" transform="translate(68.06 47.667)" fill="none" stroke="#dfe0db" stroke-linecap="round" stroke-linejoin="round" stroke-width="4.964"/>
      <path id="Caminho_12129" data-name="Caminho 12129" d="M1161.219,526.122l-37.437-9.946-.02-42.008,37.437,9.946Z" transform="translate(-1123.761 -474.167)" fill="#00A443"/>
      <path id="Caminho_12130" data-name="Caminho 12130" d="M1135.6,504.273l8.517,14.868,11.1-14.361" transform="translate(-1127.673 -484.111)" fill="none" stroke="#fff" stroke-linecap="round" stroke-linejoin="round" stroke-width="5.531"/>
    </g>
    <g id="Grupo_13268" data-name="Grupo 13268" transform="translate(1069.391 315.063)">
      <line id="Linha_6" data-name="Linha 6" x2="57.791" y2="15.272" transform="translate(68.523 24.627)" fill="none" stroke="#dfe0db" stroke-linecap="round" stroke-linejoin="round" stroke-width="4.964"/>
      <line id="Linha_7" data-name="Linha 7" x2="97.019" y2="25.431" transform="translate(68.06 47.667)" fill="none" stroke="#dfe0db" stroke-linecap="round" stroke-linejoin="round" stroke-width="4.964"/>
      <path id="Caminho_12131" data-name="Caminho 12131" d="M1161.219,415.558l-37.437-9.946-.02-42.008,37.437,9.946Z" transform="translate(-1123.761 -363.603)" fill="#00A443"/>
      <path id="Caminho_12132" data-name="Caminho 12132" d="M1135.6,393.709l8.517,14.868,11.1-14.361" transform="translate(-1127.673 -373.547)" fill="none" stroke="#fff" stroke-linecap="round" stroke-linejoin="round" stroke-width="5.531"/>
    </g>
    <path id="Caminho_12133" data-name="Caminho 12133" d="M1252.538,269.089l-1.862-.449c-1.489-9.348-8.413-17.936-16.49-19.884l-53.488-12.9c-8.077-1.949-14.655,3.381-15.694,12.119l-1.863-.449c-8.969-2.164-16.094,4.646-15.833,15.133h0c.26,10.487,7.812,20.838,16.781,23l89.4,21.569c8.969,2.164,16.094-4.646,15.833-15.133h0C1269.059,281.6,1261.507,271.253,1252.538,269.089Z" transform="translate(-62.145 -6.21)" fill="#008C39"/>
    <line id="Linha_8" data-name="Linha 8" x2="75.38" y2="19.532" transform="translate(1107.374 250.429)" fill="none" stroke="#fff" stroke-linecap="round" stroke-linejoin="round" stroke-width="3.104"/>
    <g id="Grupo_13270" data-name="Grupo 13270" transform="translate(959.157 352.181)">
      <g id="Grupo_13269" data-name="Grupo 13269" transform="translate(0 0)">
        <path id="Caminho_12134" data-name="Caminho 12134" d="M1140.1,458.515l9.164-37.044-32.476,20.5C1112.21,452.282,1134.57,465.952,1140.1,458.515Z" transform="translate(-1011.021 -419.835)" fill="#dedfe6"/>
        <path id="Caminho_12135" data-name="Caminho 12135" d="M1160.5,419.028l-5.558,17.95c-.618-5.4-3.245-8.609-9.346-8.011Z" transform="translate(-1020.741 -419.028)" fill="#fffcfa"/>
        <path id="Caminho_12136" data-name="Caminho 12136" d="M984.074,636.079c.068-.08.13-.161.2-.242l.005,0,20.259-23.94c5.65-6.676,5.593-16.223-.128-21.322s-14.939-3.822-20.589,2.855l-20.259,23.94,0,0c-.068.078-.138.153-.206.233-5.649,6.676-5.593,16.223.129,21.322S978.425,642.755,984.074,636.079Z" transform="translate(-959.157 -474.661)" fill="#245f9d"/>
        <path id="Caminho_12137" data-name="Caminho 12137" d="M979.325,561.687l91.073-107.3c5.694-2.685,10.463-.747,13.84,8.128L999.812,559.8C993.407,549.109,986.359,555.574,979.325,561.687Z" transform="translate(-965.819 -430.339)" fill="#08457c"/>
        <path id="Caminho_12138" data-name="Caminho 12138" d="M1093.06,467.03c2.3-.046,7.616-1.4,9.808,7.3l-88.141,104.334c-3.078-9.374-8.694-12.7-8.694-12.7Z" transform="translate(-974.641 -434.85)" fill="#0b3255"/>
        <path id="Caminho_12139" data-name="Caminho 12139" d="M1000.585,627.223c-.08.066.129-.161.2-.242l.005,0,9-10.749c5.181-7.385-13.74-27.347-20.1-20.117-.069.078.137-.154.206-.232l-.005,0L979.517,608.12l.005.005c-.068.078-.289.3-.206.232C985.451,603.609,1006.987,621.88,1000.585,627.223Z" transform="translate(-965.81 -477.01)" fill="#fff"/>
      </g>
      <path id="Caminho_12140" data-name="Caminho 12140" d="M1021.53,639.409l21.9,3.821V620.355l-21.9-3.822Z" transform="translate(-979.76 -484.266)" fill="#27427a"/>
      <path id="Caminho_12141" data-name="Caminho 12141" d="M1040.406,772.534c-10.084-3.188-27.05-3.068-37.894.271a26.9,26.9,0,0,0-4.648,1.86c-7.063-1.274-16.533-.91-22.955,1.068-7.62,2.345-8.052,6.063-.966,8.3,6.809,2.153,18.073,2.152,25.7.068.47.177.961.352,1.489.518,10.084,3.189,27.049,3.068,37.893-.271S1050.49,775.723,1040.406,772.534Z" transform="translate(-962.375 -535.03)" fill="#c2d8f0"/>
      <path id="Caminho_12142" data-name="Caminho 12142" d="M1047.766,772.564l7.712,1.292c5.65-.765,8.48-1.763,10.313.179l.519.55c.681,1.352-.39,3.521-2.466,4.328l-15.357,6.132c-3,.711-6.15-.324-6.166-3.007,0,0,.016-7.5,1.386-7.8C1046.456,773.643,1045.366,773.133,1047.766,772.564Z" transform="translate(-986.627 -535.804)" fill="#0d4e88"/>
      <path id="Caminho_12143" data-name="Caminho 12143" d="M1052.661,772.96c-.037,3.144-7.687,3.052-7.649-.092l.123-10.22,7.649.092Z" transform="translate(-987.516 -532.528)" fill="#fdc6c6"/>
      <path id="Caminho_12144" data-name="Caminho 12144" d="M1050.479,710.676c-2.673,3.617-9.306,3.557-10.735,1.106-.829-14.457-5.706-29.851-.133-49.729l-6.464-60.3,26.944,5.385-5.982,63.653Z" transform="translate(-983.597 -479.385)" fill="#034580"/>
      <path id="Caminho_12145" data-name="Caminho 12145" d="M978.822,752.54c-1.713,2.29-8.12-1.9-6.407-4.188l5.567-7.443,6.407,4.188Z" transform="translate(-963.441 -525.348)" fill="#fdc6c6"/>
      <path id="Caminho_12146" data-name="Caminho 12146" d="M983.73,703.57c-3.756,2.244-8.821-4.044-9.339-6.6,4.52-12.642,7.492-30.9,19.287-38.105l5.012-33.985c-.428-5.216.54-9.363,2.693-17l19.359,11.4-17.258,51.3a13.089,13.089,0,0,1-1.234,2.647Z" transform="translate(-964.189 -481.409)" fill="#034580"/>
      <path id="Caminho_12147" data-name="Caminho 12147" d="M1055.628,492c-.173,6.192-5.819,9.867-10.42,7.036s-8.192-10.146-8.019-16.337,4.044-8.917,8.645-6.086S1055.8,485.813,1055.628,492Z" transform="translate(-984.93 -437.681)" fill="#fdc6c6"/>
      <path id="Caminho_12148" data-name="Caminho 12148" d="M1040.8,518.691l-.633-.164a4.027,4.027,0,0,1-2.881-4.893l3.12-12.056a4.027,4.027,0,0,1,4.893-2.881l.633.163a4.027,4.027,0,0,1,2.881,4.893l-1.294,12.026C1046.964,517.917,1042.938,519.244,1040.8,518.691Z" transform="translate(-984.921 -445.301)" fill="#fdc6c6"/>
      <path id="Caminho_12149" data-name="Caminho 12149" d="M1031.547,496.789s1.154,4.173,8.757,3.318c5.737-.645,1.621-10.487,6.875-12.926,7.1-3.3,4.3-10.248,1.159-12.519s-7.13-.958-12.044.686C1031.095,477.088,1024.016,481.112,1031.547,496.789Z" transform="translate(-981.984 -437.003)" fill="#80653d"/>
      <path id="Caminho_12150" data-name="Caminho 12150" d="M1053.292,497.377a2.727,2.727,0,1,1-2.65-2.8A2.727,2.727,0,0,1,1053.292,497.377Z" transform="translate(-988.449 -443.982)" fill="#fdc6c6"/>
      <path id="Caminho_12151" data-name="Caminho 12151" d="M1009.917,582.741c.655-15.2,2.94-25.135,2.2-38.278.287-25.116,3.425-26.19,8.965-27.782l5.54-.618c1.72.328,3.313,1.12,5.015,1.536,7.122,1.743,11.689,2.131,16.8,4.9,4.556,2.466,4.82,9.06,4.81,14.583,1.231,16.189,1.556,40.558,1.785,48.549C1052.444,597.072,1014.252,590.485,1009.917,582.741Z" transform="translate(-975.924 -451.08)" fill="#00A443"/>
      <path id="Caminho_12152" data-name="Caminho 12152" d="M1052.951,512.048l-1-1.285a4.093,4.093,0,0,0,3.453.011A5.247,5.247,0,0,1,1052.951,512.048Z" transform="translate(-989.809 -449.329)" fill="#ba4141"/>
      <path id="Caminho_12153" data-name="Caminho 12153" d="M1068.118,550.273l-4.178,4.508c-4.906,19.8-2.632,39.866-10.676,48.312,4.922-.014,9.431-.662,12.767-3.115a5.016,5.016,0,0,0,1.942-3.815Z" transform="translate(-990.242 -462.379)" fill="#88a52b"/>
      <path id="Caminho_12154" data-name="Caminho 12154" d="M1033.362,515.5s-1.331,3.64,2.957,5,11.374-1.031,11.374-1.031S1042.976,514.522,1033.362,515.5Z" transform="translate(-983.603 -450.851)" fill="#fff"/>
      <path id="Caminho_12155" data-name="Caminho 12155" d="M1052.1,497.939h0a.912.912,0,0,1-1.022-.781l-1.613-5.785c-.067-.5,1.225-.2,1.72-.269h0c.5-.067,1.915-.516,1.981-.021l-.286,5.834A.911.911,0,0,1,1052.1,497.939Z" transform="translate(-988.985 -442.753)" fill="#80653d"/>
      <path id="Caminho_12156" data-name="Caminho 12156" d="M1109.622,529.988h0a4.579,4.579,0,0,0,6.375-1.023l3.559-4.92a4.579,4.579,0,0,0-1.024-6.376h0a4.579,4.579,0,0,0-6.375,1.023l-3.56,4.92A4.579,4.579,0,0,0,1109.622,529.988Z" transform="translate(-1008.234 -451.326)" fill="#fdc6c6"/>
      <path id="Caminho_12157" data-name="Caminho 12157" d="M1110.12,533.628s-3.383,20.641-7.02,26.087-13.107-1.959-13.107-1.959l11.883-26.908Z" transform="translate(-1002.374 -455.963)" fill="#fdc6c6"/>
      <path id="Caminho_12158" data-name="Caminho 12158" d="M1058.381,544.905l24.162,17.216c5.2,4.867,17.9-8.036,11.109-13.2-.428-.325-28.9-22.441-28.9-22.441S1054.958,535.978,1058.381,544.905Z" transform="translate(-991.692 -454.519)" fill="#00A443"/>
      <path id="Caminho_12159" data-name="Caminho 12159" d="M1092.931,567.321c4.577,1.59,11.367-4.88,10.109-9.9" transform="translate(-1003.344 -464.739)" fill="none" stroke="#fff" stroke-linecap="round" stroke-linejoin="round" stroke-width="1.417"/>
      <path id="Caminho_12160" data-name="Caminho 12160" d="M977.129,755.791l.11,7.089c1.607,4.914,5.291,5.495,3.859,7.446l-1.213,1.057c-1.213,1.23-5.26.851-6.1-.227l-7.116-10.783a6.824,6.824,0,0,1,1.566-7.488s2.109-2.094,3.179-2.123C973.967,750.693,976.23,753.744,977.129,755.791Z" transform="translate(-961.469 -528.602)" fill="#0d4e88"/>
    </g>
    <path id="Caminho_12161" data-name="Caminho 12161" d="M1348.706,431.5l-2.69,9.232,19.32-7.033" transform="translate(-127.783 -70.966)" fill="none" stroke="#00402A" stroke-linecap="round" stroke-linejoin="round" stroke-width="3.104"/>
  </g>
</svg>
