<svg xmlns="http://www.w3.org/2000/svg" width="613.884" height="340.578" viewBox="0 0 613.884 340.578">
  <g id="Grupo_12622" data-name="Grupo 12622" transform="translate(-107.616 -147.385)">
    <path id="União_3" data-name="União 3" d="M0,65.224c0-3.231,14.559-6.262,40.05-8.882-1.326-.669-2.011-1.352-2.011-2.046,0-3.232,14.856-6.227,40.176-8.689,3.168-1.3,10.338-2.457,20.209-3.344a.648.648,0,0,1-.016-.144c0-3.687,31.4-6.675,70.146-6.675,27.946,0,52.075,1.555,63.352,3.805,9.6-.086,19.393-.13,29.332-.13,17.944,0,35.4.144,52.119.416,17.77-5.663,53.775-9.537,95.3-9.537,59.15,0,107.1,7.86,107.1,17.555,0,1.51-1.163,2.975-3.351,4.373,61.726,3.285,100.479,8.025,100.479,13.3,0,9.918-137.2,17.958-306.442,17.958S0,75.142,0,65.224Z" transform="translate(108.116 404.282)" fill="#bababa" stroke="rgba(0,0,0,0)" stroke-miterlimit="10" stroke-width="1" opacity="0.1"/>
    <g id="Grupo_12536" data-name="Grupo 12536" transform="translate(526.649 185.411)">
      <path id="Caminho_10362" data-name="Caminho 10362" d="M563.525,188.761h24.33a18.164,18.164,0,0,1,17.985,15.624l28.4,201.159a21.316,21.316,0,0,1-6.1,18.069s-27.278,22.559-35.368,22.559H570.489Z" transform="translate(-563.525 -188.761)" fill="#007F33"/>
    </g>
    <g id="Grupo_12539" data-name="Grupo 12539" transform="translate(239.129 185.411)">
      <g id="Grupo_12537" data-name="Grupo 12537" transform="translate(6.36 6.36)">
        <rect id="Retângulo_17774" data-name="Retângulo 17774" width="311.237" height="244.69" rx="7.023" fill="#f1f1f3"/>
      </g>
      <g id="Grupo_12538" data-name="Grupo 12538">
        <path id="Caminho_10363" data-name="Caminho 10363" d="M561.815,201.481l.032,0a.128.128,0,0,1,.062.092l0,231.814a.127.127,0,0,1-.092.062l-298.361,0a.125.125,0,0,1-.062-.092l0-231.814a.128.128,0,0,1,.092-.062H561.815m0-12.72H263.487a12.815,12.815,0,0,0-12.815,12.815V433.358a12.815,12.815,0,0,0,12.815,12.815H561.815a12.814,12.814,0,0,0,12.814-12.815V201.576a12.814,12.814,0,0,0-12.814-12.815Z" transform="translate(-250.672 -188.761)" fill="#007F33"/>
      </g>
    </g>
    <g id="Grupo_12540" data-name="Grupo 12540" transform="translate(246.748 190.608)">
      <path id="Caminho_10364" data-name="Caminho 10364" d="M258.963,241.505h311.4v-45.6l-311.4-1.489Z" transform="translate(-258.963 -194.416)" fill="#007F33"/>
    </g>
    <g id="Grupo_12542" data-name="Grupo 12542" transform="translate(311.115 263.885)">
      <g id="Grupo_12541" data-name="Grupo 12541">
        <path id="Caminho_10365" data-name="Caminho 10365" d="M329,275V428.308c0,.786,1.877.2,1.877-.476V274.527c0-.786-1.877-.2-1.877.476Z" transform="translate(-329.001 -274.15)" fill="#707070"/>
      </g>
    </g>
    <g id="Grupo_12544" data-name="Grupo 12544" transform="translate(345.283 263.885)">
      <g id="Grupo_12543" data-name="Grupo 12543">
        <path id="Caminho_10366" data-name="Caminho 10366" d="M366.18,275V428.308c0,.786,1.877.2,1.877-.476V274.527c0-.786-1.877-.2-1.877.476Z" transform="translate(-366.18 -274.15)" fill="#707070"/>
      </g>
    </g>
    <g id="Grupo_12546" data-name="Grupo 12546" transform="translate(379.451 263.885)">
      <g id="Grupo_12545" data-name="Grupo 12545">
        <path id="Caminho_10367" data-name="Caminho 10367" d="M403.358,275V428.308c0,.786,1.877.2,1.877-.476V274.527c0-.786-1.877-.2-1.877.476Z" transform="translate(-403.358 -274.15)" fill="#707070"/>
      </g>
    </g>
    <g id="Grupo_12548" data-name="Grupo 12548" transform="translate(413.619 263.885)">
      <g id="Grupo_12547" data-name="Grupo 12547">
        <path id="Caminho_10368" data-name="Caminho 10368" d="M440.537,275V428.308c0,.786,1.877.2,1.877-.476V274.527c0-.786-1.877-.2-1.877.476Z" transform="translate(-440.537 -274.15)" fill="#707070"/>
      </g>
    </g>
    <g id="Grupo_12550" data-name="Grupo 12550" transform="translate(447.788 263.885)">
      <g id="Grupo_12549" data-name="Grupo 12549">
        <path id="Caminho_10369" data-name="Caminho 10369" d="M477.716,275V428.308c0,.786,1.877.2,1.877-.476V274.527c0-.786-1.877-.2-1.877.476Z" transform="translate(-477.716 -274.15)" fill="#707070"/>
      </g>
    </g>
    <g id="Grupo_12552" data-name="Grupo 12552" transform="translate(481.955 263.885)">
      <g id="Grupo_12551" data-name="Grupo 12551">
        <path id="Caminho_10370" data-name="Caminho 10370" d="M514.894,275V428.308c0,.786,1.877.2,1.877-.476V274.527c0-.786-1.877-.2-1.877.476Z" transform="translate(-514.894 -274.15)" fill="#707070"/>
      </g>
    </g>
    <g id="Grupo_12554" data-name="Grupo 12554" transform="translate(276.982 295.669)">
      <g id="Grupo_12553" data-name="Grupo 12553" transform="translate(0 0)">
        <path id="Caminho_10371" data-name="Caminho 10371" d="M532.452,308.734H293.274c-.632,0-2.117,1.209-1.022,1.209H531.43c.633,0,2.117-1.209,1.022-1.209Z" transform="translate(-291.861 -308.734)" fill="#707070"/>
      </g>
    </g>
    <g id="Grupo_12556" data-name="Grupo 12556" transform="translate(276.982 326.052)">
      <g id="Grupo_12555" data-name="Grupo 12555" transform="translate(0 0)">
        <path id="Caminho_10372" data-name="Caminho 10372" d="M532.452,341.794H293.274c-.632,0-2.117,1.209-1.022,1.209H531.43c.633,0,2.117-1.209,1.022-1.209Z" transform="translate(-291.861 -341.794)" fill="#707070"/>
      </g>
    </g>
    <g id="Grupo_12558" data-name="Grupo 12558" transform="translate(276.982 356.435)">
      <g id="Grupo_12557" data-name="Grupo 12557">
        <path id="Caminho_10373" data-name="Caminho 10373" d="M532.452,374.854H293.274c-.632,0-2.117,1.209-1.022,1.209H531.43c.633,0,2.117-1.209,1.022-1.209Z" transform="translate(-291.861 -374.854)" fill="#707070"/>
      </g>
    </g>
    <g id="Grupo_12560" data-name="Grupo 12560" transform="translate(276.982 386.818)">
      <g id="Grupo_12559" data-name="Grupo 12559">
        <path id="Caminho_10374" data-name="Caminho 10374" d="M532.452,407.914H293.274c-.632,0-2.117,1.209-1.022,1.209H531.43c.633,0,2.117-1.209,1.022-1.209Z" transform="translate(-291.861 -407.914)" fill="#707070"/>
      </g>
    </g>
    <g id="Grupo_12561" data-name="Grupo 12561" transform="translate(280.957 247.324)">
      <rect id="Retângulo_17775" data-name="Retângulo 17775" width="26.415" height="7.548" rx="1.814" fill="#00A443"/>
    </g>
    <g id="Grupo_12562" data-name="Grupo 12562" transform="translate(315.338 247.324)">
      <rect id="Retângulo_17776" data-name="Retângulo 17776" width="26.415" height="7.548" rx="1.814" fill="#00A443"/>
    </g>
    <g id="Grupo_12563" data-name="Grupo 12563" transform="translate(349.719 247.324)">
      <rect id="Retângulo_17777" data-name="Retângulo 17777" width="26.415" height="7.548" rx="1.814" fill="#00A443"/>
    </g>
    <g id="Grupo_12564" data-name="Grupo 12564" transform="translate(384.1 247.324)">
      <rect id="Retângulo_17778" data-name="Retângulo 17778" width="26.415" height="7.548" rx="1.814" fill="#00A443"/>
    </g>
    <g id="Grupo_12565" data-name="Grupo 12565" transform="translate(418.481 247.324)">
      <rect id="Retângulo_17779" data-name="Retângulo 17779" width="26.415" height="7.548" rx="1.814" fill="#00A443"/>
    </g>
    <g id="Grupo_12566" data-name="Grupo 12566" transform="translate(452.863 247.324)">
      <rect id="Retângulo_17780" data-name="Retângulo 17780" width="26.415" height="7.548" rx="1.814" fill="#00A443"/>
    </g>
    <g id="Grupo_12567" data-name="Grupo 12567" transform="translate(487.244 247.324)">
      <rect id="Retângulo_17781" data-name="Retângulo 17781" width="26.415" height="7.548" rx="1.814" fill="#00A443"/>
    </g>
    <g id="Grupo_12572" data-name="Grupo 12572" transform="translate(255.319 173.519)">
      <g id="Grupo_12568" data-name="Grupo 12568" transform="translate(1.173 20.333)">
        <path id="Caminho_10375" data-name="Caminho 10375" d="M278.908,202.618a4.671,4.671,0,1,1-4.671-4.671A4.671,4.671,0,0,1,278.908,202.618Z" transform="translate(-269.565 -197.947)" fill="#25572e"/>
      </g>
      <g id="Grupo_12570" data-name="Grupo 12570">
        <g id="Grupo_12569" data-name="Grupo 12569">
          <path id="Caminho_10376" data-name="Caminho 10376" d="M276.7,204.731a15.194,15.194,0,0,1-8.411-13.891c0-8.28,6.123-15.018,13.648-15.018,6.573,0,12.075,5.138,13.364,11.956H291.66c-1.212-4.651-5.112-8.064-9.722-8.064-5.576,0-10.111,4.991-10.111,11.126A11.467,11.467,0,0,0,278.77,201.4a4.752,4.752,0,0,1-.734,2C277.166,204.615,276.7,204.731,276.7,204.731Z" transform="translate(-268.289 -175.822)" fill="#15391b"/>
        </g>
      </g>
      <g id="Grupo_12571" data-name="Grupo 12571" transform="translate(5.844 20.299)">
        <path id="Caminho_10377" data-name="Caminho 10377" d="M274.648,197.944a4.414,4.414,0,0,1,3.522,1.15,4.783,4.783,0,0,1,0,7.044,4.409,4.409,0,0,1-3.523,1.149,5.027,5.027,0,0,0,3.084-1.587,4.593,4.593,0,0,0,0-6.169A5.02,5.02,0,0,0,274.648,197.944Z" transform="translate(-274.648 -197.91)" fill="#15391b"/>
      </g>
    </g>
    <g id="Grupo_12577" data-name="Grupo 12577" transform="translate(285.491 173.519)">
      <g id="Grupo_12573" data-name="Grupo 12573" transform="translate(1.174 20.333)">
        <path id="Caminho_10378" data-name="Caminho 10378" d="M311.739,202.618a4.671,4.671,0,1,1-4.671-4.671A4.672,4.672,0,0,1,311.739,202.618Z" transform="translate(-302.396 -197.947)" fill="#25572e"/>
      </g>
      <g id="Grupo_12575" data-name="Grupo 12575">
        <g id="Grupo_12574" data-name="Grupo 12574">
          <path id="Caminho_10379" data-name="Caminho 10379" d="M309.531,204.731a15.2,15.2,0,0,1-8.412-13.891c0-8.28,6.124-15.018,13.649-15.018,6.572,0,12.075,5.138,13.364,11.956h-3.641c-1.212-4.651-5.112-8.064-9.722-8.064-5.576,0-10.112,4.991-10.112,11.126A11.467,11.467,0,0,0,311.6,201.4a4.745,4.745,0,0,1-.735,2C310,204.615,309.531,204.731,309.531,204.731Z" transform="translate(-301.119 -175.822)" fill="#15391b"/>
        </g>
      </g>
      <g id="Grupo_12576" data-name="Grupo 12576" transform="translate(5.845 20.299)">
        <path id="Caminho_10380" data-name="Caminho 10380" d="M307.479,197.944a4.414,4.414,0,0,1,3.522,1.15,4.785,4.785,0,0,1,0,7.044,4.409,4.409,0,0,1-3.523,1.149,5.027,5.027,0,0,0,3.084-1.587,4.593,4.593,0,0,0,0-6.169A5.02,5.02,0,0,0,307.479,197.944Z" transform="translate(-307.479 -197.91)" fill="#15391b"/>
      </g>
    </g>
    <g id="Grupo_12582" data-name="Grupo 12582" transform="translate(315.663 173.519)">
      <g id="Grupo_12578" data-name="Grupo 12578" transform="translate(1.174 20.333)">
        <path id="Caminho_10381" data-name="Caminho 10381" d="M344.57,202.618a4.671,4.671,0,1,1-4.671-4.671A4.672,4.672,0,0,1,344.57,202.618Z" transform="translate(-335.227 -197.947)" fill="#25572e"/>
      </g>
      <g id="Grupo_12580" data-name="Grupo 12580">
        <g id="Grupo_12579" data-name="Grupo 12579">
          <path id="Caminho_10382" data-name="Caminho 10382" d="M342.362,204.731a15.2,15.2,0,0,1-8.412-13.891c0-8.28,6.123-15.018,13.649-15.018,6.572,0,12.074,5.138,13.364,11.956h-3.642c-1.211-4.651-5.111-8.064-9.721-8.064-5.576,0-10.112,4.991-10.112,11.126a11.466,11.466,0,0,0,6.944,10.562,4.745,4.745,0,0,1-.735,2C342.827,204.615,342.362,204.731,342.362,204.731Z" transform="translate(-333.95 -175.822)" fill="#15391b"/>
        </g>
      </g>
      <g id="Grupo_12581" data-name="Grupo 12581" transform="translate(5.845 20.299)">
        <path id="Caminho_10383" data-name="Caminho 10383" d="M340.31,197.944a4.415,4.415,0,0,1,3.522,1.15,4.785,4.785,0,0,1,0,7.044,4.411,4.411,0,0,1-3.523,1.149,5.027,5.027,0,0,0,3.084-1.587,4.591,4.591,0,0,0,0-6.169A5.015,5.015,0,0,0,340.31,197.944Z" transform="translate(-340.31 -197.91)" fill="#15391b"/>
      </g>
    </g>
    <g id="Grupo_12587" data-name="Grupo 12587" transform="translate(461.418 173.457)">
      <g id="Grupo_12583" data-name="Grupo 12583" transform="translate(1.174 20.334)">
        <path id="Caminho_10384" data-name="Caminho 10384" d="M503.167,202.551a4.671,4.671,0,1,1-4.671-4.671A4.672,4.672,0,0,1,503.167,202.551Z" transform="translate(-493.824 -197.88)" fill="#25572e"/>
      </g>
      <g id="Grupo_12585" data-name="Grupo 12585">
        <g id="Grupo_12584" data-name="Grupo 12584">
          <path id="Caminho_10385" data-name="Caminho 10385" d="M500.959,204.663a15.194,15.194,0,0,1-8.412-13.891c0-8.28,6.123-15.018,13.648-15.018,6.573,0,12.075,5.138,13.364,11.956h-3.642c-1.211-4.65-5.112-8.064-9.722-8.064-5.575,0-10.111,4.991-10.111,11.126a11.464,11.464,0,0,0,6.944,10.562,4.752,4.752,0,0,1-.735,2C501.424,204.547,500.959,204.663,500.959,204.663Z" transform="translate(-492.547 -175.754)" fill="#15391b"/>
        </g>
      </g>
      <g id="Grupo_12586" data-name="Grupo 12586" transform="translate(5.845 20.3)">
        <path id="Caminho_10386" data-name="Caminho 10386" d="M498.907,197.877a4.413,4.413,0,0,1,3.522,1.15,4.784,4.784,0,0,1,0,7.043,4.415,4.415,0,0,1-3.523,1.15,5.033,5.033,0,0,0,3.084-1.588,4.591,4.591,0,0,0,0-6.168A5.015,5.015,0,0,0,498.907,197.877Z" transform="translate(-498.907 -197.843)" fill="#15391b"/>
      </g>
    </g>
    <g id="Grupo_12592" data-name="Grupo 12592" transform="translate(491.59 173.457)">
      <g id="Grupo_12588" data-name="Grupo 12588" transform="translate(1.174 20.334)">
        <path id="Caminho_10387" data-name="Caminho 10387" d="M536,202.551a4.671,4.671,0,1,1-4.671-4.671A4.672,4.672,0,0,1,536,202.551Z" transform="translate(-526.655 -197.88)" fill="#25572e"/>
      </g>
      <g id="Grupo_12590" data-name="Grupo 12590">
        <g id="Grupo_12589" data-name="Grupo 12589">
          <path id="Caminho_10388" data-name="Caminho 10388" d="M533.79,204.663a15.194,15.194,0,0,1-8.412-13.891c0-8.28,6.123-15.018,13.648-15.018,6.573,0,12.075,5.138,13.364,11.956h-3.642c-1.211-4.65-5.112-8.064-9.722-8.064-5.575,0-10.111,4.991-10.111,11.126a11.465,11.465,0,0,0,6.943,10.562,4.758,4.758,0,0,1-.734,2C534.255,204.547,533.79,204.663,533.79,204.663Z" transform="translate(-525.378 -175.754)" fill="#15391b"/>
        </g>
      </g>
      <g id="Grupo_12591" data-name="Grupo 12591" transform="translate(5.845 20.3)">
        <path id="Caminho_10389" data-name="Caminho 10389" d="M531.738,197.877a4.413,4.413,0,0,1,3.522,1.15,4.784,4.784,0,0,1,0,7.043,4.415,4.415,0,0,1-3.523,1.15,5.031,5.031,0,0,0,3.083-1.588,4.59,4.59,0,0,0,0-6.168A5.017,5.017,0,0,0,531.738,197.877Z" transform="translate(-531.738 -197.843)" fill="#15391b"/>
      </g>
    </g>
    <g id="Grupo_12597" data-name="Grupo 12597" transform="translate(521.763 173.457)">
      <g id="Grupo_12593" data-name="Grupo 12593" transform="translate(1.174 20.334)">
        <path id="Caminho_10390" data-name="Caminho 10390" d="M568.829,202.551a4.671,4.671,0,1,1-4.671-4.671A4.672,4.672,0,0,1,568.829,202.551Z" transform="translate(-559.486 -197.88)" fill="#25572e"/>
      </g>
      <g id="Grupo_12595" data-name="Grupo 12595">
        <g id="Grupo_12594" data-name="Grupo 12594">
          <path id="Caminho_10391" data-name="Caminho 10391" d="M566.621,204.663a15.192,15.192,0,0,1-8.412-13.891c0-8.28,6.123-15.018,13.648-15.018,6.573,0,12.075,5.138,13.364,11.956H581.58c-1.211-4.65-5.112-8.064-9.722-8.064-5.575,0-10.111,4.991-10.111,11.126a11.465,11.465,0,0,0,6.943,10.562,4.758,4.758,0,0,1-.734,2C567.086,204.547,566.621,204.663,566.621,204.663Z" transform="translate(-558.209 -175.754)" fill="#15391b"/>
        </g>
      </g>
      <g id="Grupo_12596" data-name="Grupo 12596" transform="translate(5.845 20.3)">
        <path id="Caminho_10392" data-name="Caminho 10392" d="M564.569,197.877a4.413,4.413,0,0,1,3.522,1.15,4.784,4.784,0,0,1,0,7.043,4.415,4.415,0,0,1-3.523,1.15,5.033,5.033,0,0,0,3.083-1.588,4.593,4.593,0,0,0,0-6.168A5.019,5.019,0,0,0,564.569,197.877Z" transform="translate(-564.569 -197.843)" fill="#15391b"/>
      </g>
    </g>
    <g id="Grupo_12604" data-name="Grupo 12604" transform="translate(435.25 279.839)">
      <g id="Grupo_12600" data-name="Grupo 12600" transform="translate(0 0.996)">
        <g id="Grupo_12599" data-name="Grupo 12599">
          <g id="Grupo_12598" data-name="Grupo 12598">
            <path id="Caminho_10393" data-name="Caminho 10393" d="M464.4,302.136c-.94-2.832.34-4.187,1.417-6.089-.111.675-.186,1.55.612,1.042,1.168-.744,2.794-3.21,2.648-4.5a6.146,6.146,0,0,1,2.058,1.295C471.787,294.483,464.637,302.853,464.4,302.136Z" transform="translate(-464.073 -292.593)" fill="#30193b"/>
          </g>
        </g>
      </g>
      <g id="Grupo_12603" data-name="Grupo 12603" transform="translate(1.32 0)">
        <g id="Grupo_12602" data-name="Grupo 12602">
          <g id="Grupo_12601" data-name="Grupo 12601">
            <path id="Caminho_10394" data-name="Caminho 10394" d="M466.546,297c-.8.508-1.459.3-.7-.892a10.31,10.31,0,0,0,1.082-2.352,1.935,1.935,0,0,0-.36-1.392l.721-.856s1.692.929,1.91,1C469.34,293.791,467.714,296.257,466.546,297Z" transform="translate(-465.51 -291.509)" fill="#ff97a6"/>
          </g>
        </g>
      </g>
    </g>
    <g id="Grupo_12606" data-name="Grupo 12606" transform="translate(391.764 160.442)">
      <g id="Grupo_12605" data-name="Grupo 12605">
        <path id="Caminho_10395" data-name="Caminho 10395" d="M420.513,183.452l16.381-14.974h0c15.456,3.4,20.718-6.886,20.718-6.886,30.908,10.123-7.4,68-7.4,68s2.554.2,10.583,30.136c1.3,4.865,4.84,17.179,3.955,20.858-.53,2.208-1.236,2.472-2.45,2.444-.274-.006-25.648-44.277-27.576-51.895-2.039-8.058,6.805-40.195,6.82-43.967,0-.5-11.041-.026-21.28,0C412.227,187.183,420.513,183.452,420.513,183.452Z" transform="translate(-416.756 -161.592)" fill="#0792E5"/>
      </g>
    </g>
    <g id="Grupo_12607" data-name="Grupo 12607" transform="translate(359.861 186.769)">
      <path id="Caminho_10396" data-name="Caminho 10396" d="M382.268,218.423a1.857,1.857,0,0,1,.311-2.2c4.205-4.251,23.154-22.036,25.229-24.373,1.935-2.176,7.547-2.988,7.379,3.037-.064,2.3-3.5,11.543-4.962,14.617C405.065,220.348,390.632,233.987,382.268,218.423Z" transform="translate(-382.042 -190.239)" fill="#d5eaf5"/>
    </g>
    <g id="Grupo_12608" data-name="Grupo 12608" transform="translate(355.809 218.27)">
      <path id="Caminho_10397" data-name="Caminho 10397" d="M386.85,225.458a.844.844,0,0,1,.025,1.005c-.55.783-.471,1.158-1.494,2.638,0,0-1.071,2.525-2.563,2.546,0,0-2.1-.033-2.576-.479-.151-.141-.209-.8-.209-.8s-2.367,1.892-2.4,1.3,2.714-3.779,3.983-4.546c0,0-1.419.785-1.526.271s2.613-2.195,3.632-2.174a9.85,9.85,0,0,0,1.629-.661C385.7,224.348,386.437,224.927,386.85,225.458Z" transform="translate(-377.633 -224.516)" fill="#ff97a6"/>
    </g>
    <g id="Grupo_12609" data-name="Grupo 12609" transform="translate(361.016 158.446)">
      <path id="Caminho_10398" data-name="Caminho 10398" d="M384.975,185.357c-1.431-1.486-3.878-6.447,2.513-8.836s19.383-14.163,19.828-16.534,8.767,3.483,8.767,3.483l-4.557,12.688a18.308,18.308,0,0,1-14.861,11.968C390.674,188.907,389.025,189.563,384.975,185.357Z" transform="translate(-383.298 -159.421)" fill="#aacbe8"/>
    </g>
    <g id="Grupo_12610" data-name="Grupo 12610" transform="translate(354.414 183.975)">
      <path id="Caminho_10399" data-name="Caminho 10399" d="M385.513,187.895s-4.621-1.089-6.43-.542c-1.694.512-3.325.944-2.9,1.614.2.311,3.912.034,4.7.19,1.594.317,3.786.941,5.339.473C386.8,189.457,386.561,188.894,385.513,187.895Z" transform="translate(-376.115 -187.199)" fill="#ff97a6"/>
    </g>
    <g id="Grupo_12611" data-name="Grupo 12611" transform="translate(357.522 185.742)">
      <path id="Caminho_10400" data-name="Caminho 10400" d="M382.491,189.122s-3.75,1.6-2.856,1.788,4.995-1.334,4.995-1.334Z" transform="translate(-379.497 -189.122)" fill="#ff97a6"/>
    </g>
    <g id="Grupo_12613" data-name="Grupo 12613" transform="translate(315.086 329.098)">
      <g id="Grupo_12612" data-name="Grupo 12612">
        <path id="Caminho_10401" data-name="Caminho 10401" d="M333.408,348.656l9.112,19.164c.684,1.439,6.387,4.769,7.451,2.37l9.553-21.538c.864-1.946-6.493-4.938-7.437-2.81l-9.553,21.538,7.451,2.37q-4.556-9.582-9.111-19.164c-.729-1.532-2.609-2.369-4.187-2.755-.439-.107-3.959-.6-3.28.826Z" transform="translate(-333.322 -345.109)" fill="#00A443"/>
      </g>
    </g>
    <g id="Grupo_12614" data-name="Grupo 12614" transform="translate(397.277 171.45)">
      <path id="Caminho_10402" data-name="Caminho 10402" d="M449.137,173.57s-5.132,7.572-7.107,14.571H422.755l3.831-9.275,4.263-3.448S438.692,178.608,449.137,173.57Z" transform="translate(-422.755 -173.57)" fill="#0a477e"/>
    </g>
    <g id="Grupo_12615" data-name="Grupo 12615" transform="translate(385.032 148.889)">
      <path id="Caminho_10403" data-name="Caminho 10403" d="M411.2,154.414s5.393-7.287,23.907-4.92c10.475,1.339,21.914,11.08,21.914,11.08s-4.7,7.919-8.96,11.008c-4.636,3.359-11.888,3.635-11.888,3.635s-21-4.421-24.974-14.643S411.2,154.414,411.2,154.414Z" transform="translate(-409.431 -149.021)" fill="#d5eaf5"/>
    </g>
    <g id="Grupo_12616" data-name="Grupo 12616" transform="translate(385.032 153.485)">
      <path id="Caminho_10404" data-name="Caminho 10404" d="M411.2,154.819s-3.974-4.062,0,6.16,24.974,14.643,24.974,14.643,7.252-.276,11.888-3.635c0,0-7.971,2.576-13.136-1.245-1.924-1.424-5.115-4.074-5.453-4.467-.96-1.118-6.464-2.95-9.159-4.336C415.983,159.712,412.5,157.279,411.2,154.819Z" transform="translate(-409.431 -154.022)" fill="#aacbe8"/>
    </g>
    <g id="Grupo_12617" data-name="Grupo 12617" transform="translate(383.42 158.862)">
      <path id="Caminho_10405" data-name="Caminho 10405" d="M426.184,159.886s4.444,4.024.848,15.25A90.426,90.426,0,0,1,415.14,198.73l-7.463-6.381s15.095-19.026,12.991-28.39C419.652,159.438,426.184,159.886,426.184,159.886Z" transform="translate(-407.677 -159.874)" fill="#d5eaf5"/>
    </g>
    <g id="Grupo_12618" data-name="Grupo 12618" transform="translate(371.508 147.564)">
      <path id="Caminho_10406" data-name="Caminho 10406" d="M409.41,149.278s-8.021-4.466-11.228,1.084c-1.315,2.277-1.754,4.773.717,10.493,0,0-8.461,11.718-1.321,18.666A9.992,9.992,0,0,0,409,181.736c4.512-1.853,9.794-4.258,2.391-19.36l1.978-4.414a4.456,4.456,0,0,0,2.215-3.56C415.658,151.991,412.165,146.046,409.41,149.278Z" transform="translate(-394.715 -147.579)" fill="#80540a"/>
    </g>
    <g id="Grupo_12619" data-name="Grupo 12619" transform="translate(380.201 152.959)">
      <path id="Caminho_10407" data-name="Caminho 10407" d="M406.98,163.214c-.968-.687-2.668-4.687-2.668-4.687-.9-2.48,2.884-4.189,3.831-4.545a6.877,6.877,0,0,1,3.3-.5c1.347.13,2.132,1.558,2.74,2.606a8.729,8.729,0,0,1,1.149,4.377,5.563,5.563,0,0,1-2.463,3.276C409.923,165.249,408.688,164.939,406.98,163.214Z" transform="translate(-404.174 -153.45)" fill="#ff97a6"/>
    </g>
    <g id="Grupo_12620" data-name="Grupo 12620" transform="translate(376.486 151.382)">
      <path id="Caminho_10408" data-name="Caminho 10408" d="M409.359,151.734a6.356,6.356,0,0,1-2.293,5.959c-3,2.251-4.039,2.206-3.952,5.863s-5.453-3.18-1.645-7.421S409.359,151.734,409.359,151.734Z" transform="translate(-400.131 -151.734)" fill="#80540a"/>
    </g>
    <g id="Grupo_12621" data-name="Grupo 12621" transform="translate(371.155 147.385)">
      <path id="Caminho_10409" data-name="Caminho 10409" d="M409.379,149.263a14.729,14.729,0,0,0-5.6-1.507,5.537,5.537,0,0,0-4.97,2.119,7.006,7.006,0,0,0-1.2,2.533,7.663,7.663,0,0,0-.113,2.794,21.119,21.119,0,0,0,1.706,5.491l.081.187-.12.18a27.356,27.356,0,0,0-3.464,7.235,12.232,12.232,0,0,0-.034,7.811,10.386,10.386,0,0,0,5.421,5.559,9.35,9.35,0,0,0,3.9.829,11.727,11.727,0,0,0,3.976-.773,10.027,10.027,0,0,1-8.043.338,11.561,11.561,0,0,1-3.484-2.27,9.458,9.458,0,0,1-2.4-3.438,12.927,12.927,0,0,1-.067-8.266,25.467,25.467,0,0,1,3.588-7.463l-.04.367a21.792,21.792,0,0,1-1.7-5.706,7.639,7.639,0,0,1,.187-3.033,7.263,7.263,0,0,1,.556-1.421c.111-.229.238-.443.369-.66l.451-.62.228-.308.283-.263c.192-.169.367-.36.574-.509a5.656,5.656,0,0,1,1.358-.7,6.661,6.661,0,0,1,2.973-.34A14.127,14.127,0,0,1,409.379,149.263Z" transform="translate(-394.331 -147.385)" fill="#a06b1f"/>
    </g>
  </g>
</svg>
