<svg xmlns="http://www.w3.org/2000/svg" width="335.431" height="307.475" viewBox="0 0 335.431 307.475">
  <g id="Grupo_13795" data-name="Grupo 13795" transform="translate(-45.194 -80)">
    <g id="Grupo_13728" data-name="Grupo 13728" transform="translate(92.676 80)">
      <g id="Grupo_13723" data-name="Grupo 13723" transform="translate(0 51.343)">
        <g id="Grupo_13721" data-name="Grupo 13721" transform="translate(89.992 187.742)">
          <path id="Caminho_13087" data-name="Caminho 13087" d="M261.127,367.484H191.4l8.586-64.253h52.55Z" transform="translate(-172.284 -303.231)" fill="#007F33"/>
          <path id="Caminho_13088" data-name="Caminho 13088" d="M270.834,357.112h-86.6a10.713,10.713,0,0,0-10.681,10.681H281.516A10.713,10.713,0,0,0,270.834,357.112Z" transform="translate(-173.552 -299.404)" fill="#3f6d36"/>
          <path id="Caminho_13089" data-name="Caminho 13089" d="M195.933,330.542h60.023L253.531,312.4H198.357Z" transform="translate(-171.962 -302.58)" fill="#3f6d36"/>
        </g>
        <g id="Grupo_13722" data-name="Grupo 13722">
          <rect id="Retângulo_18420" data-name="Retângulo 18420" width="287.948" height="206.244" rx="6.278" fill="#007F33"/>
          <rect id="Retângulo_18421" data-name="Retângulo 18421" width="187.204" height="268.91" transform="translate(278.43 9.52) rotate(90)" fill="#f1f4e7"/>
        </g>
      </g>
      <g id="Grupo_13726" data-name="Grupo 13726" transform="translate(85.603)">
        <g id="Grupo_13724" data-name="Grupo 13724">
          <path id="Caminho_13090" data-name="Caminho 13090" d="M180.181,80a10.728,10.728,0,0,0-10.727,10.727V235.542a10.727,10.727,0,0,0,10.727,10.727H284.44a10.727,10.727,0,0,0,10.726-10.727V121l-41-41Z" transform="translate(-169.454 -80)" fill="#fff"/>
          <path id="Caminho_13091" data-name="Caminho 13091" d="M253.142,121h36.407l-41-41v36.407A4.593,4.593,0,0,0,253.142,121Z" transform="translate(-163.836 -80)" fill="#ededed"/>
        </g>
        <g id="Grupo_13725" data-name="Grupo 13725" transform="translate(27.424 59.401)">
          <path id="Caminho_13092" data-name="Caminho 13092" d="M211.363,141.367a2.952,2.952,0,0,1,0-5.9h36.362a2.952,2.952,0,0,1,0,5.9Z" transform="translate(-194.11 -135.462)" fill="#e2e2e2"/>
          <path id="Caminho_13093" data-name="Caminho 13093" d="M198.005,159.894a2.951,2.951,0,0,1,0-5.9h64.973a2.951,2.951,0,0,1,0,5.9Z" transform="translate(-195.059 -134.146)" fill="#e2e2e2"/>
          <path id="Caminho_13094" data-name="Caminho 13094" d="M198.005,174.171a2.952,2.952,0,0,1,0-5.9h64.973a2.952,2.952,0,0,1,0,5.9Z" transform="translate(-195.059 -133.132)" fill="#e2e2e2"/>
          <path id="Caminho_13095" data-name="Caminho 13095" d="M198.005,202.724a2.952,2.952,0,0,1,0-5.9h64.973a2.952,2.952,0,0,1,0,5.9Z" transform="translate(-195.059 -131.104)" fill="#e2e2e2"/>
          <path id="Caminho_13096" data-name="Caminho 13096" d="M198.005,188.447a2.951,2.951,0,0,1,0-5.9h64.973a2.951,2.951,0,0,1,0,5.9Z" transform="translate(-195.059 -132.118)" fill="#e2e2e2"/>
        </g>
      </g>
      <path id="Caminho_13097" data-name="Caminho 13097" d="M247.443,242.471H240V224.747a1.573,1.573,0,0,0-1.572-1.572H220.456a1.572,1.572,0,0,0-1.572,1.572v17.723h-7.447a1.571,1.571,0,0,0-1.262,2.508l18,24.235a1.572,1.572,0,0,0,2.523,0l18-24.235A1.571,1.571,0,0,0,247.443,242.471Z" transform="translate(-80.981 -69.831)" fill="#00A443"/>
      <g id="Grupo_13727" data-name="Grupo 13727" transform="translate(66.452 210.067)">
        <path id="Caminho_13098" data-name="Caminho 13098" d="M302.155,285.063H156.036a4.463,4.463,0,0,1-4.463-4.463h0a4.462,4.462,0,0,1,4.463-4.463H302.155a4.463,4.463,0,0,1,4.463,4.463h0A4.463,4.463,0,0,1,302.155,285.063Z" transform="translate(-151.573 -276.137)" fill="#00A443"/>
        <path id="Caminho_13099" data-name="Caminho 13099" d="M295.208,276.137H249.382v8.926h45.826a4.463,4.463,0,0,0,0-8.926Z" transform="translate(-144.626 -276.137)" fill="#00A443"/>
      </g>
    </g>
    <path id="Caminho_13100" data-name="Caminho 13100" d="M355.715,127.938H302.838a46.893,46.893,0,0,0-1.612,9.52h51.7v49.4a46.477,46.477,0,0,0,9.519-2.08V134.663A6.725,6.725,0,0,0,355.715,127.938Z" transform="translate(18.184 3.405)" fill="#007F33" opacity="0.22"/>
    <g id="Grupo_13751" data-name="Grupo 13751" transform="translate(45.195 285.414)">
      <g id="Grupo_13750" data-name="Grupo 13750">
        <g id="Grupo_13748" data-name="Grupo 13748">
          <rect id="Retângulo_18423" data-name="Retângulo 18423" width="105.909" height="26.779" transform="translate(0 48.504)" fill="#00A443"/>
          <rect id="Retângulo_18424" data-name="Retângulo 18424" width="82.449" height="86.952" transform="translate(11.73)" fill="#fff"/>
          <g id="Grupo_13747" data-name="Grupo 13747" transform="translate(0 48.504)">
            <path id="Caminho_13109" data-name="Caminho 13109" d="M98.149,341.581l-52.954-24.5v53.557H98.149Z" transform="translate(-45.195 -317.08)" fill="#00A443"/>
            <path id="Caminho_13110" data-name="Caminho 13110" d="M147.592,317.08l-52.954,24.5v29.056h52.954Z" transform="translate(-41.683 -317.08)" fill="#00A443"/>
            <path id="Caminho_13111" data-name="Caminho 13111" d="M101.648,340.891a7.018,7.018,0,0,0-7,0L45.2,369.012H151.1Z" transform="translate(-45.195 -315.455)" fill="#00A443"/>
          </g>
        </g>
        <g id="Grupo_13749" data-name="Grupo 13749" transform="translate(25.192 23.068)">
          <path id="Caminho_13112" data-name="Caminho 13112" d="M109.65,297.352H81.741a2.01,2.01,0,0,1-2.01-2.01h0a2.011,2.011,0,0,1,2.01-2.011H109.65a2.012,2.012,0,0,1,2.011,2.011h0A2.011,2.011,0,0,1,109.65,297.352Z" transform="translate(-67.933 -293.33)" fill="#e5e5e5"/>
          <rect id="Retângulo_18425" data-name="Retângulo 18425" width="55.525" height="4.022" rx="1.877" transform="translate(0 8.774)" fill="#e5e5e5"/>
          <path id="Caminho_13113" data-name="Caminho 13113" d="M122.23,313.737h-51.5a2.011,2.011,0,0,1-2.01-2.011h0a2.011,2.011,0,0,1,2.01-2.01h51.5a2.011,2.011,0,0,1,2.011,2.01h0A2.012,2.012,0,0,1,122.23,313.737Z" transform="translate(-68.716 -292.166)" fill="#e5e5e5"/>
          <path id="Caminho_13114" data-name="Caminho 13114" d="M122.23,321.929h-51.5a2.01,2.01,0,0,1-2.01-2.01h0a2.011,2.011,0,0,1,2.01-2.011h51.5a2.012,2.012,0,0,1,2.011,2.011h0A2.011,2.011,0,0,1,122.23,321.929Z" transform="translate(-68.716 -291.584)" fill="#e5e5e5"/>
        </g>
      </g>
    </g>
  </g>
</svg>
