<svg xmlns="http://www.w3.org/2000/svg" width="667.885" height="346.342" viewBox="0 0 667.885 346.342">
  <g id="Grupo_12637" data-name="Grupo 12637" transform="translate(111.108 -247.213)">
    <path id="União_3" data-name="União 3" d="M-5334.892,2971.714a3.012,3.012,0,0,1,.68-1.819c-67.946-3.577-110.673-8.765-110.673-14.539,0-5.877,44.293-11.148,114.383-14.73a1.377,1.377,0,0,1-.09-.483c0-9.12,95.739-16.513,213.837-16.513,117.956,0,213.6,7.375,213.838,16.479,76.155,3.581,124.917,9.081,124.917,15.247,0,10.791-149.287,19.539-333.443,19.539-29.415,0-57.936-.223-85.1-.642-6.352,5.953-34.608,10.443-68.5,10.443C-5303.624,2984.7-5334.892,2978.883-5334.892,2971.714Z" transform="translate(5334.276 -2391.641)" fill="#bababa" stroke="rgba(0,0,0,0)" stroke-miterlimit="10" stroke-width="1" opacity="0.2"/>
    <path id="Caminho_10451" data-name="Caminho 10451" d="M259.984,327.7a5.888,5.888,0,0,1-2.5,1.8,41.909,41.909,0,0,1-4.642-.274l-8.818-1.966c-.04.13-.091.255-.13.385-.909,2.952-2.585,8.25-3.627,11.173,1.274-.1,15.161-2.672,16.466-2.532q1.6.173,3.587.476c1.23.193,6.4-12.786,5.686-15.024s-1.957-.263-1.957-.263A16.93,16.93,0,0,1,259.984,327.7Z" transform="translate(155.881 60.632)" fill="#a79477"/>
    <path id="Caminho_10452" data-name="Caminho 10452" d="M252.877,336.765c1.232.186,6.41-12.786,5.686-15.024s-1.957-.263-1.957-.263a16.937,16.937,0,0,1-4.067,6.222,19.769,19.769,0,0,1-3.249,8.588C250.354,336.4,251.555,336.555,252.877,336.765Z" transform="translate(163.326 60.632)" fill="#0f3d63"/>
    <path id="Caminho_10453" data-name="Caminho 10453" d="M172.835,318.47l149.923,9.857s3.828,12.768-2.594,14.622L153.2,342.836S158.462,317.731,172.835,318.47Z" transform="translate(84.021 58.796)" fill="#112545"/>
    <g id="Grupo_12632" data-name="Grupo 12632" transform="translate(51.392 260.032)">
      <g id="Grupo_12630" data-name="Grupo 12630">
        <rect id="Retângulo_17789" data-name="Retângulo 17789" width="154.071" height="293.221" rx="26.673" fill="#0f3d63"/>
        <path id="Caminho_10454" data-name="Caminho 10454" d="M95.765,533.813c-28.911-.02-39.284-9.992-39.264-39.319l.131-195.861c.02-29.378,10.455-39.284,39.319-39.264l56.07.038c28.911.02,39.286,9.99,39.266,39.317l-.133,195.861c-.018,28.913-9.99,39.284-39.317,39.264Z" transform="translate(-47.175 -249.999)" fill="#fff"/>
        <path id="Caminho_10455" data-name="Caminho 10455" d="M79.456,388.267c-7.847,12.082-15.469,25-22.931,38.866l.053-76.971C79.1,318.031,101,292.891,139.616,259.386l12.385.007c17.331.013,28,3.612,33.759,12.8-67.2,45.448-104.692,113.576-106.14,115.825-.058.075-.089.135-.119.164Z" transform="translate(-47.156 -249.985)" fill="#f6f6f6"/>
        <path id="Caminho_10456" data-name="Caminho 10456" d="M116.312,255.764l-29.811-.02c-3.51,0-3.514,3.861,0,3.862l29.811.02C119.817,259.628,119.822,255.766,116.312,255.764Z" transform="translate(-24.59 -252.991)" fill="#0a2740"/>
        <path id="Caminho_10457" data-name="Caminho 10457" d="M123.029,402.44l-39.2-.026c-3.51,0-3.514,3.86,0,3.862l39.2.027C126.535,406.306,126.54,402.443,123.029,402.44Z" transform="translate(-26.795 -131.944)" fill="#19619e"/>
        <path id="Caminho_10458" data-name="Caminho 10458" d="M72.231,264.727l-3.879,0c-3.508,0-3.514,3.861,0,3.864l3.879,0C75.738,268.591,75.743,264.729,72.231,264.727Z" transform="translate(-39.568 -245.58)" fill="#19619e"/>
        <path id="Caminho_10459" data-name="Caminho 10459" d="M79.018,264.73l-3.879,0c-3.508,0-3.514,3.861,0,3.862l3.879,0C82.525,268.6,82.53,264.732,79.018,264.73Z" transform="translate(-33.966 -245.576)" fill="#19619e"/>
        <path id="Caminho_10460" data-name="Caminho 10460" d="M80.234,255.739a1.932,1.932,0,0,0,0,3.864A1.932,1.932,0,0,0,80.234,255.739Z" transform="translate(-29.175 -252.995)" fill="#0a2740"/>
        <path id="Caminho_10461" data-name="Caminho 10461" d="M109.794,264.751a1.932,1.932,0,0,0,0,3.864A1.932,1.932,0,0,0,109.794,264.751Z" transform="translate(-4.779 -245.557)" fill="#19619e"/>
        <path id="Caminho_10462" data-name="Caminho 10462" d="M113.2,264.754a1.931,1.931,0,0,0,0,3.862A1.931,1.931,0,0,0,113.2,264.754Z" transform="translate(-1.968 -245.555)" fill="#19619e"/>
        <path id="Caminho_10463" data-name="Caminho 10463" d="M116.608,264.756a1.931,1.931,0,0,0,0,3.862A1.931,1.931,0,0,0,116.608,264.756Z" transform="translate(0.844 -245.553)" fill="#19619e"/>
        <path id="Caminho_10464" data-name="Caminho 10464" d="M120.013,264.758a1.932,1.932,0,0,0,0,3.864A1.932,1.932,0,0,0,120.013,264.758Z" transform="translate(3.655 -245.552)" fill="#19619e"/>
        <path id="Caminho_10465" data-name="Caminho 10465" d="M69.134,329.945l-.046.089C69.088,330.005,69.1,329.991,69.134,329.945Z" transform="translate(-36.787 -191.752)" fill="#fff"/>
      </g>
      <path id="Caminho_10466" data-name="Caminho 10466" d="M152.022,365.987l0,1.922a5.712,5.712,0,0,1-5.711,5.719l-70.727-.049a5.711,5.711,0,0,1-5.7-5.726l0-1.922a5.711,5.711,0,0,1,5.711-5.719l70.727.047A5.712,5.712,0,0,1,152.022,365.987Z" transform="translate(-36.135 -166.773)" fill="#b2b2b2"/>
      <path id="Caminho_10467" data-name="Caminho 10467" d="M118.6,360.241l-.009,13.367-43.008-.029a5.711,5.711,0,0,1-5.7-5.726l0-1.922a5.711,5.711,0,0,1,5.711-5.719Z" transform="translate(-36.135 -166.773)" fill="#9d9d9c"/>
      <g id="Grupo_12631" data-name="Grupo 12631" transform="translate(21.623 85.458)">
        <path id="Caminho_10468" data-name="Caminho 10468" d="M170.071,306.371l-.04,59a5.26,5.26,0,0,1-5.262,5.255l-96.287-.066a5.257,5.257,0,0,1-5.244-5.262l.04-59a5.249,5.249,0,0,1,5.251-5.244l96.287.066A5.251,5.251,0,0,1,170.071,306.371Z" transform="translate(-63.238 -301.054)" fill="#1d71b8"/>
        <path id="Caminho_10469" data-name="Caminho 10469" d="M157.442,306.35l-.04,59a5.26,5.26,0,0,1-5.262,5.255l-73.6-.049,44.923-69.477,28.723.02A5.251,5.251,0,0,1,157.442,306.35Z" transform="translate(-50.608 -301.033)" fill="#19619e"/>
        <rect id="Retângulo_17790" data-name="Retângulo 17790" width="40.515" height="3.39" transform="translate(5.371 6.965)" fill="#3c90d6"/>
        <rect id="Retângulo_17791" data-name="Retângulo 17791" width="29.074" height="3.39" transform="translate(5.367 12.725)" fill="#3c90d6"/>
        <rect id="Retângulo_17792" data-name="Retângulo 17792" width="18.534" height="5.521" transform="translate(5.352 33.739)" fill="#0f3d63"/>
        <rect id="Retângulo_17793" data-name="Retângulo 17793" width="18.534" height="5.521" transform="translate(31.215 33.756)" fill="#0f3d63"/>
        <rect id="Retângulo_17794" data-name="Retângulo 17794" width="18.533" height="5.521" transform="translate(57.077 33.774)" fill="#0f3d63"/>
        <rect id="Retângulo_17795" data-name="Retângulo 17795" width="18.533" height="5.521" transform="translate(82.939 33.791)" fill="#0f3d63"/>
        <path id="Caminho_10470" data-name="Caminho 10470" d="M110.511,335.229a7.628,7.628,0,1,1,7.622,7.635A7.627,7.627,0,0,1,110.511,335.229Z" transform="translate(-24.223 -279.14)" fill="#3c90d6"/>
        <rect id="Retângulo_17796" data-name="Retângulo 17796" width="10.553" height="4.577" transform="translate(39.4 54.77)" fill="#3c90d6"/>
        <rect id="Retângulo_17797" data-name="Retângulo 17797" width="10.553" height="4.577" transform="translate(58.252 54.783)" fill="#3c90d6"/>
        <path id="Caminho_10471" data-name="Caminho 10471" d="M91.16,341.268a.507.507,0,0,1-.226-.053.5.5,0,0,1-.217-.67L96.065,330a.5.5,0,1,1,.887.451L91.6,341A.492.492,0,0,1,91.16,341.268Z" transform="translate(-40.605 -277.392)" fill="#3c90d6"/>
      </g>
    </g>
    <g id="Grupo_12633" data-name="Grupo 12633" transform="translate(175.062 400.933)">
      <path id="Caminho_10472" data-name="Caminho 10472" d="M356.06,343.22l-.089,130.836A11.664,11.664,0,0,1,344.3,485.709l-213.526-.144A11.659,11.659,0,0,1,119.145,473.9l.089-130.836a11.638,11.638,0,0,1,11.645-11.631l213.526.144A11.646,11.646,0,0,1,356.06,343.22Z" transform="translate(-119.145 -331.429)" fill="#5cc78b"/>
      <path id="Caminho_10473" data-name="Caminho 10473" d="M328.053,343.175l-.089,130.836a11.664,11.664,0,0,1-11.669,11.653l-163.213-.109L252.7,331.484l63.7.044A11.646,11.646,0,0,1,328.053,343.175Z" transform="translate(-91.137 -331.384)" fill="#2fac66"/>
      <rect id="Retângulo_17798" data-name="Retângulo 17798" width="89.847" height="7.519" transform="translate(11.913 15.445)" fill="#2fac66"/>
      <rect id="Retângulo_17799" data-name="Retângulo 17799" width="64.475" height="7.519" transform="translate(11.904 28.219)" fill="#2fac66"/>
      <rect id="Retângulo_17800" data-name="Retângulo 17800" width="41.1" height="12.243" transform="translate(11.871 74.819)" fill="#227d4a"/>
      <rect id="Retângulo_17801" data-name="Retângulo 17801" width="41.1" height="12.243" transform="translate(69.223 74.857)" fill="#227d4a"/>
      <rect id="Retângulo_17802" data-name="Retângulo 17802" width="41.1" height="12.243" transform="translate(126.575 74.896)" fill="#227d4a"/>
      <rect id="Retângulo_17803" data-name="Retângulo 17803" width="41.1" height="12.243" transform="translate(183.928 74.935)" fill="#227d4a"/>
      <path id="Caminho_10474" data-name="Caminho 10474" d="M223.977,407.217a16.917,16.917,0,1,1,16.906,16.928A16.917,16.917,0,0,1,223.977,407.217Z" transform="translate(-32.627 -282.832)" fill="#5cc78b"/>
      <rect id="Retângulo_17804" data-name="Retângulo 17804" width="23.402" height="10.15" transform="translate(85.444 121.456)" fill="#5cc78b"/>
      <rect id="Retângulo_17805" data-name="Retângulo 17805" width="23.402" height="10.15" transform="translate(129.181 121.485)" fill="#5cc78b"/>
      <path id="Caminho_10475" data-name="Caminho 10475" d="M181.065,420.611a1.1,1.1,0,0,1-.984-1.6l11.861-23.393a1.1,1.1,0,0,1,1.971,1l-11.861,23.393A1.105,1.105,0,0,1,181.065,420.611Z" transform="translate(-68.953 -278.957)" fill="#5cc78b"/>
    </g>
    <g id="Grupo_12636" data-name="Grupo 12636" transform="translate(202.945 247.213)">
      <path id="Caminho_10476" data-name="Caminho 10476" d="M177.037,300.534c3.284-3.662,6.608-6.975,9.07-11.28,1.568-2.742,3.119-5.872,2.329-8.931-.212-.82-.916-1.747-1.71-1.455a1.717,1.717,0,0,0-.741.69c-1.234,1.714-2.889,5.363-4.894,6.162.33-.542,2.2-3.87,1.323-4.333l-.726-.381s-2.481,3.322-3.722,4.7a13.42,13.42,0,0,0-3.09,7.918S173.9,301.378,177.037,300.534Z" transform="translate(-101.152 -221.133)" fill="#9c4345"/>
      <path id="Caminho_10477" data-name="Caminho 10477" d="M211.09,293.74s-2.55,4.589-3.2,5.726c-5.649,9.9-17.463,29.36-24.056,31.731-8.263,2.973-25.4-5.888-41.2-29.126,0,0-11.572-20.113,6.073-20.865,8.765-.382,18.717,31.6,29.882,34.33,1.252.3,15.955-14.871,22.681-21.9.82-.847,3.326-3.479,3.326-3.479Z" transform="translate(-130.713 -219.162)" fill="#a79477"/>
      <path id="Caminho_10478" data-name="Caminho 10478" d="M152.312,275.893c1.7-.153,7.77,2.273,8.442,9.72s6.458,33.033,6.458,33.033l-8.345,5.892S148.74,276.216,152.312,275.893Z" transform="translate(-120.285 -223.549)" fill="#25572e"/>
      <path id="Caminho_10479" data-name="Caminho 10479" d="M224.455,336.422a5.878,5.878,0,0,1-2.568-1.7,42.29,42.29,0,0,1-1.38-4.441l-1.269-8.944c-.137.007-.27.005-.407.015-3.081.19-8.63.489-11.733.544.54,1.157,7.845,13.246,8.174,14.518.27,1.039.544,2.216.818,3.523.254,1.219,14.225,1.486,16.064.026s-.444-1.924-.444-1.924A16.941,16.941,0,0,1,224.455,336.422Z" transform="translate(-74.44 -186.042)" fill="#a79477"/>
      <path id="Caminho_10480" data-name="Caminho 10480" d="M212.394,333.115c.261,1.219,14.226,1.491,16.064.026s-.444-1.924-.444-1.924a16.933,16.933,0,0,1-7.256-1.612,19.8,19.8,0,0,1-9.183-.013C211.846,330.627,212.125,331.8,212.394,333.115Z" transform="translate(-70.744 -179.225)" fill="#0f3d63"/>
      <g id="Grupo_12634" data-name="Grupo 12634" transform="translate(11.348)">
        <path id="Caminho_10481" data-name="Caminho 10481" d="M174.071,273.612s.062.374.1.664c.016.12.027.23.035.281.044.276.1.737.164,1.316.038.372.073.692.1,1.037,0,.038,0,.073.007.113.009.184.026.38.038.573.005.066.009.12.009.177.047.781.068,1.619.046,2.426-.049,1.84-.334,3.532-1.15,4.092-1.154.785-3.946.454-6.182.009-1.765-.347-3.185-.767-3.185-.767l-3.85,9.36-13.058-6.272s3.419-4.875,2.953-6.75-5.246-4.8-6.462-7.321-2.78-7.929-1.02-11.886c6-13.485,23.422-10.008,26.98-4.476s1.771,7.016,2.7,9.167,4.353,4.874,5.177,5.888C178.247,272.2,174.071,273.612,174.071,273.612Z" transform="translate(-139.658 -243.847)" fill="#a79477"/>
        <path id="Caminho_10482" data-name="Caminho 10482" d="M157.284,261.782s-.743.524-1.006-.967c-.235-1.342.4-1.32.4-1.32s.571-.155.79,1.015S157.284,261.782,157.284,261.782Z" transform="translate(-127.773 -237.082)" fill="#242424"/>
        <path id="Caminho_10483" data-name="Caminho 10483" d="M159.8,258.272a4.253,4.253,0,0,0-2.835.21c-.82.265-2.006.632-2.344,1.491a.156.156,0,0,0,.141.224c.8.027,1.539-.562,2.289-.8a24.94,24.94,0,0,0,2.7-.6C159.945,258.706,160.056,258.376,159.8,258.272Z" transform="translate(-129.108 -238.228)" fill="#452311"/>
        <path id="Caminho_10484" data-name="Caminho 10484" d="M149.78,262.529a3.12,3.12,0,0,0-1.55-1.022c-.1-.018-.192.1-.106.182.4.374.869.655,1.243,1.064a1.189,1.189,0,0,0-.785.363.131.131,0,0,0,.126.217,4.836,4.836,0,0,1,.577-.1,2.585,2.585,0,0,0,.447-.022c.078.115.155.232.226.352a1.353,1.353,0,0,0,.391.515.141.141,0,0,0,.206-.084C150.632,263.46,150.119,262.9,149.78,262.529Z" transform="translate(-134.488 -235.418)" fill="#887961"/>
        <path id="Caminho_10485" data-name="Caminho 10485" d="M154.748,278.636c-.234-1.112-1.245-1.63-1.856-2.45a4.793,4.793,0,0,1-1.154-3.1,4.186,4.186,0,0,1,1.17-2.543,2.807,2.807,0,0,1,1.451-.876c1.752-.336,3.119,1.267,3.729,2.69a3.017,3.017,0,0,0,.995,1.5,1.416,1.416,0,0,0,1.88-.444,2.752,2.752,0,0,0,.239-1.61c-.111-2-.9-5.334.767-6.914a5.631,5.631,0,0,1,2.988-1.1c3.733-.675,7.79-1.416,9.972-4.91,2.117-3.391,1.9-8.07-1.8-10.125a15.446,15.446,0,0,0-5.722-1.541,2.809,2.809,0,0,1,.765,2.962c-.964,3.067-4.822,2.209-7.334,2.28a30.362,30.362,0,0,0-9.566,1.427,16.606,16.606,0,0,0-8.648,7.077c-3.26,5.591-2.512,13.467,2.311,17.782a31.756,31.756,0,0,1,3.026,2.586c.666.767,1.269,2.805,2.262,3.012,1.23.255,2.389-1.415,2.9-2.291C153.74,280.987,155.014,280.019,154.748,278.636Z" transform="translate(-140.638 -247.213)" fill="#452311"/>
        <path id="Caminho_10486" data-name="Caminho 10486" d="M160.932,266.046a3.127,3.127,0,0,1-2.623-.575c-.075-.066,0-.186.095-.183a9.358,9.358,0,0,0,2.482.071c0,.038,0,.073.007.113C160.9,265.657,160.92,265.852,160.932,266.046Z" transform="translate(-126.078 -232.296)" fill="#982325"/>
        <path id="Caminho_10487" data-name="Caminho 10487" d="M163.145,269.814c-.049,1.84-.334,3.532-1.15,4.092-1.154.785-3.946.454-6.182.009a8.6,8.6,0,0,1-.142-2.112c.037-1.9.064-4.032,1.071-5.71a4.248,4.248,0,0,1,2.207-1.787,5.7,5.7,0,0,1,1.411-.323c.506-.051,1.011.018,1.508-.033.219-.022.44-.049.664-.069a.57.57,0,0,1,.215.009c.013.122.027.23.035.281.044.276.1.737.164,1.316a.27.27,0,0,1-.287.126c-.387-.022-.763.022-1.161,0a2.787,2.787,0,0,0-1.225.133,1.81,1.81,0,0,0-.913,2.112,2.68,2.68,0,0,0,1.7,1.71A5.047,5.047,0,0,0,163.145,269.814Z" transform="translate(-128.236 -233.461)" fill="#452311"/>
        <path id="Caminho_10488" data-name="Caminho 10488" d="M147.627,252.67a9.691,9.691,0,0,0-5.443,9.273.126.126,0,0,0,.252,0,11.213,11.213,0,0,1,5.332-9.032A.14.14,0,0,0,147.627,252.67Z" transform="translate(-139.38 -242.721)" fill="#381b0c"/>
        <path id="Caminho_10489" data-name="Caminho 10489" d="M167.365,250.29a10.769,10.769,0,0,1-5.815,3.11c-2.592.506-5.251.277-7.873.447-3.526.226-8.186,1.517-9.207,5.436-.036.141.175.243.243.1,2.294-4.771,7.613-5,12.261-5.078,3.6-.057,8.561-.329,10.631-3.833A.153.153,0,0,0,167.365,250.29Z" transform="translate(-137.479 -244.71)" fill="#381b0c"/>
        <path id="Caminho_10490" data-name="Caminho 10490" d="M148.422,268.111a11.3,11.3,0,0,1-3.884-4.333,12.3,12.3,0,0,1-.829-6.409c.011-.137-.2-.159-.236-.033-1.121,4.019.867,9.283,4.806,11.016A.14.14,0,0,0,148.422,268.111Z" transform="translate(-138.554 -238.927)" fill="#381b0c"/>
        <path id="Caminho_10491" data-name="Caminho 10491" d="M149.132,255.2c-1.97,1.057-3.6,4.016-2.986,6.259.029.109.215.124.237,0a11.268,11.268,0,0,1,.787-3.324,8.9,8.9,0,0,1,2.192-2.638C149.524,255.347,149.316,255.1,149.132,255.2Z" transform="translate(-136.202 -240.642)" fill="#381b0c"/>
        <path id="Caminho_10492" data-name="Caminho 10492" d="M156.6,266.727a.137.137,0,0,0-.268-.036,2.707,2.707,0,0,0-.082,1.327c.02.082.157.111.193.026A2.689,2.689,0,0,0,156.6,266.727Z" transform="translate(-127.799 -231.219)" fill="#381b0c"/>
        <path id="Caminho_10493" data-name="Caminho 10493" d="M157.158,268.172a3.191,3.191,0,0,0-.095-.661.114.114,0,0,0-.206-.026,1.445,1.445,0,0,0,.12,1.431.157.157,0,0,0,.265-.109A2.218,2.218,0,0,0,157.158,268.172Z" transform="translate(-127.365 -230.527)" fill="#381b0c"/>
        <path id="Caminho_10494" data-name="Caminho 10494" d="M157.135,265.358a3.67,3.67,0,0,0-.248,1.778c.033.152.243.13.287,0a4.2,4.2,0,0,0,.12-.83c.035-.3.078-.606.113-.911C157.425,265.232,157.184,265.219,157.135,265.358Z" transform="translate(-127.258 -232.316)" fill="#381b0c"/>
        <path id="Caminho_10495" data-name="Caminho 10495" d="M158.131,268.094c-.089-.25-.133-.515-.232-.759a.162.162,0,0,0-.318.042,2.359,2.359,0,0,0,.528,1.63.176.176,0,0,0,.29-.17A4.311,4.311,0,0,0,158.131,268.094Z" transform="translate(-126.659 -230.701)" fill="#381b0c"/>
        <path id="Caminho_10496" data-name="Caminho 10496" d="M155.89,270.692c-.022.02-.2.444-.2.444l-.524,1.274c-.807-.445-2.532-1.8-3.432-5.576A10.605,10.605,0,0,0,155.89,270.692Z" transform="translate(-131.476 -231.021)" fill="#887961"/>
      </g>
      <path id="Caminho_10497" data-name="Caminho 10497" d="M154.156,270.1a4.739,4.739,0,0,0-5.485,1.8c-2.493,3.641-6.759,9.358-9.384,10.046-3.886,1.02-2.167,6.243-3.466,12.883s0,56.855,0,56.855,30.322,4.3,39.392,1.241c0,0,5.188-12.257,4.868-17.877s-10.979-43.43-11.625-47.772a64.92,64.92,0,0,1-.392-8.889,4.73,4.73,0,0,0-3.169-4.51Z" transform="translate(-133.741 -228.546)" fill="#95b43d"/>
      <path id="Retângulo_17806" data-name="Retângulo 17806" d="M1.013,0H8.162A1.013,1.013,0,0,1,9.174,1.013v14.46a1.013,1.013,0,0,1-1.013,1.013H1.012A1.012,1.012,0,0,1,0,15.473V1.013A1.013,1.013,0,0,1,1.013,0Z" transform="translate(80.379 72.52) rotate(-157.359)" fill="#112545"/>
      <path id="Caminho_10498" data-name="Caminho 10498" d="M174.858,290.262l5.215-12.549,5.8,2.4-5.213,12.549C180.642,292.673,174.858,290.262,174.858,290.262Z" transform="translate(-101.048 -222.041)" fill="#dadeea"/>
      <path id="Caminho_10499" data-name="Caminho 10499" d="M136.708,341.578c-.139-.009,2.17,28.729,16.944,31.149a62.949,62.949,0,0,0,16.294.823,29.218,29.218,0,0,0,15.521-5.125c10.311-7.126,29.656-24.07,50.99-60.846l31.165,56.581s5.065,1.893,13.3-3.362c0,0-21.792-74.883-37.91-78.229s-56.5,48.257-69.822,51.755C173.188,334.322,154.291,342.582,136.708,341.578Z" transform="translate(-132.538 -218.163)" fill="#0f3d63"/>
      <path id="Caminho_10500" data-name="Caminho 10500" d="M137.663,282.713c1.415-4.821,14.993-3.581,15.548-.422,2.3,13.1-1.234,37.634-.033,47.923s10.486,43.121,10.486,43.121l-8.236,3.833s-14.223-32.147-16.776-45C136.564,321.659,133.532,296.791,137.663,282.713Z" transform="translate(-133.441 -220.565)" fill="#a79477"/>
      <g id="Grupo_12635" data-name="Grupo 12635" transform="translate(21.114 150.463)">
        <path id="Caminho_10501" data-name="Caminho 10501" d="M145.988,333.745s1,1.488,2.024,6.385c.621,2.955,1.035,9.6,2.659,11.257a6.276,6.276,0,0,0,1.068.475,2.534,2.534,0,0,0,.312.091,7.085,7.085,0,0,0,2.373.261c.069,0,.148-.007.226-.013a7.229,7.229,0,0,0,2.19-.518c.066-.027.13-.057.193-.084a9.986,9.986,0,0,0,1.842-1.013s-1.478-6.588-1.026-8.856c0,0,2.077,3.68,3.579,3.687l.909-.462s-1.7-4.206-2.262-6.146c-1.358-4.724-7.015-9.163-7.015-9.163S147.322,330.335,145.988,333.745Z" transform="translate(-145.988 -329.645)" fill="#a79477"/>
        <path id="Caminho_10502" data-name="Caminho 10502" d="M152.733,345.787l.193-.084a58.338,58.338,0,0,1-1.778-8.873c-.011-.058-.119-.057-.128,0A18.892,18.892,0,0,0,152.733,345.787Z" transform="translate(-141.88 -323.75)" fill="#a79477"/>
        <path id="Caminho_10503" data-name="Caminho 10503" d="M151.4,346.045l.226-.013a59.469,59.469,0,0,1-1.789-8.871c-.009-.058-.119-.057-.119,0A18.716,18.716,0,0,0,151.4,346.045Z" transform="translate(-142.96 -323.477)" fill="#a79477"/>
      </g>
      <path id="Caminho_10504" data-name="Caminho 10504" d="M156.975,282.3s-3.289-8.92-8.09-8.435-11.406,5.934-12.379,9.765-3.209,41.37-1.4,44.453c4.218,7.183,17.952,3.868,20.544,3.1S156.975,282.3,156.975,282.3Z" transform="translate(-134.421 -225.231)" fill="#3f6d36"/>
    </g>
  </g>
</svg>
