<svg xmlns="http://www.w3.org/2000/svg" width="492.755" height="314.132" viewBox="0 0 492.755 314.132">
  <g id="Grupo_12629" data-name="Grupo 12629" transform="translate(-633.523 -874.574)">
    <g id="Grupo_12628" data-name="Grupo 12628" transform="translate(568.002 757.706)">
      <ellipse id="Elipse_181" data-name="Elipse 181" cx="227.89" cy="14.018" rx="227.89" ry="14.018" transform="translate(102.496 402.964)" fill="#eaeaec"/>
      <path id="Caminho_10411" data-name="Caminho 10411" d="M1043.77,1902.235l-.065-.017c-2.48-.72-4.945-1.56-7.326-2.5a1.662,1.662,0,0,1,1.216-3.093c2.287.9,4.654,1.707,7.036,2.4a1.662,1.662,0,0,1-.862,3.209Zm7.369,1.788a1.662,1.662,0,0,1,.722-3.243c2.4.472,4.877.851,7.361,1.126a1.662,1.662,0,0,1-.366,3.3c-2.576-.285-5.146-.679-7.637-1.168Zm-21.472-7.34a1.679,1.679,0,0,1-.353-.131c-2.292-1.162-4.558-2.447-6.735-3.82a1.662,1.662,0,0,1,1.774-2.811c2.089,1.318,4.264,2.552,6.463,3.666a1.662,1.662,0,0,1-1.149,3.1Zm36.54,9.021a1.662,1.662,0,0,1,.453-3.274c2.453.077,4.965.06,7.465-.048a1.662,1.662,0,1,1,.144,3.32c-2.582.112-5.177.129-7.712.05A1.662,1.662,0,0,1,1066.206,1905.7Zm15.156-.647a1.662,1.662,0,0,1,.21-3.264c2.458-.282,4.946-.654,7.4-1.106a1.662,1.662,0,1,1,.6,3.269c-2.523.466-5.087.849-7.62,1.139A1.653,1.653,0,0,1,1081.363,1905.056Zm-64.531-16.447a1.658,1.658,0,0,1-.6-.288c-2.007-1.519-4.017-3.16-5.975-4.876a1.662,1.662,0,0,1,2.191-2.5c1.9,1.665,3.846,3.254,5.789,4.726a1.662,1.662,0,0,1-1.4,2.938Zm79.454,13.687a1.662,1.662,0,0,1-.018-3.223c2.2-.569,4.312-1.194,6.272-1.858a1.662,1.662,0,0,1,1.066,3.148c-2.036.689-4.225,1.338-6.506,1.927A1.656,1.656,0,0,1,1096.285,1902.3Zm-90.87-23.685a1.657,1.657,0,0,1-.777-.441c-1.817-1.825-3.582-3.725-5.245-5.646a1.662,1.662,0,1,1,2.513-2.175c1.613,1.863,3.325,3.706,5.088,5.477a1.662,1.662,0,0,1-1.579,2.786Zm-9.923-11.485a1.656,1.656,0,0,1-.934-.622c-1.492-2.01-2.891-4.057-4.161-6.089a1.681,1.681,0,0,1,2.372-2.379,64.2,64.2,0,0,0,6.421,2.776,1.662,1.662,0,1,1-1.15,3.118q-.868-.319-1.731-.666.452.632.918,1.258a1.662,1.662,0,0,1-1.734,2.6Zm9.981-.946a1.662,1.662,0,0,1,.785-3.229c1.922.458,3.885.827,5.834,1.1.347.048.839.115,1.458.191a1.662,1.662,0,0,1-.4,3.3c-.641-.078-1.149-.148-1.508-.2-2.055-.284-4.125-.672-6.151-1.155Zm15.055,1.919a1.662,1.662,0,0,1,.46-3.274c2.52.089,5.025.065,7.445-.071a1.662,1.662,0,1,1,.186,3.318c-2.521.141-5.128.166-7.749.073A1.686,1.686,0,0,1,1020.528,1868.1Zm-35.823-10.947a1.667,1.667,0,0,1-.512-.224,71.439,71.439,0,0,1-6.248-4.61,1.662,1.662,0,0,1,2.116-2.564,68.064,68.064,0,0,0,5.956,4.4,1.662,1.662,0,0,1-1.311,3Zm50.972,10.058a1.662,1.662,0,0,1,.129-3.253,56.7,56.7,0,0,0,7.184-1.651,1.662,1.662,0,0,1,.962,3.182,60.034,60.034,0,0,1-7.607,1.749A1.656,1.656,0,0,1,1035.677,1867.211Zm-48.131-12.989a1.657,1.657,0,0,1-1.093-.882,65.984,65.984,0,0,1-3.019-7.172,1.662,1.662,0,1,1,3.136-1.1,62.77,62.77,0,0,0,2.867,6.809,1.662,1.662,0,0,1-1.891,2.345Zm-14.526-6.707a1.658,1.658,0,0,1-.787-.451,73.7,73.7,0,0,1-5.122-5.83,1.662,1.662,0,0,1,2.609-2.058,70.334,70.334,0,0,0,4.891,5.565,1.662,1.662,0,0,1-1.59,2.775Zm77.116,15.241a1.662,1.662,0,0,1-.332-3.106,37.241,37.241,0,0,0,6.176-3.792,1.662,1.662,0,1,1,2.014,2.644,40.551,40.551,0,0,1-6.728,4.133A1.654,1.654,0,0,1,1050.135,1862.757Zm-86.5-27.133a1.656,1.656,0,0,1-1.007-.728,72.188,72.188,0,0,1-3.776-6.783,1.662,1.662,0,1,1,2.987-1.457,68.952,68.952,0,0,0,3.6,6.469,1.662,1.662,0,0,1-1.806,2.5Zm18.961,4.3a1.661,1.661,0,0,1-1.232-1.295,45.541,45.541,0,0,1-.852-7.815,1.662,1.662,0,0,1,3.323-.064,42.208,42.208,0,0,0,.791,7.242,1.662,1.662,0,0,1-2.03,1.932Zm79.472,13.667a1.663,1.663,0,0,1-.868-2.686,33.455,33.455,0,0,0,3.83-5.616c.066-.121.13-.241.194-.361a1.662,1.662,0,0,1,2.938,1.553q-.1.2-.212.4a36.781,36.781,0,0,1-4.212,6.175A1.661,1.661,0,0,1,1062.072,1853.589ZM957.009,1822.01a1.661,1.661,0,0,1-1.167-1.055,68.486,68.486,0,0,1-2.189-7.458,1.662,1.662,0,1,1,3.237-.751,65.072,65.072,0,0,0,2.082,7.094,1.662,1.662,0,0,1-1.963,2.172Zm25.355,2.84a1.662,1.662,0,0,1-1.234-1.908c.145-.806.318-1.616.515-2.409a38.453,38.453,0,0,1,1.688-5.193,1.662,1.662,0,1,1,3.08,1.249,35.071,35.071,0,0,0-1.542,4.743c-.179.723-.337,1.463-.47,2.2a1.662,1.662,0,0,1-1.93,1.34C982.434,1824.867,982.4,1824.859,982.364,1824.85Zm86.778,15.442-.07-.019a1.662,1.662,0,0,1-1.126-2.063c.153-.521.3-1.053.428-1.583a40.021,40.021,0,0,0,.96-5.552,1.662,1.662,0,0,1,3.307.335,43.38,43.38,0,0,1-1.04,6.016c-.143.576-.3,1.156-.466,1.721A1.662,1.662,0,0,1,1069.142,1840.293Zm-115.561-33.032a1.662,1.662,0,0,1-1.251-1.424,70.336,70.336,0,0,1-.456-7.754,1.662,1.662,0,1,1,3.323-.012,67.117,67.117,0,0,0,.434,7.387,1.662,1.662,0,0,1-2.05,1.8Zm34.4,3.6a1.663,1.663,0,0,1-1-2.511,51.725,51.725,0,0,1,4.731-6.245,1.662,1.662,0,1,1,2.493,2.2,48.39,48.39,0,0,0-4.427,5.842A1.663,1.663,0,0,1,987.98,1810.861Zm82.722,14.418a1.663,1.663,0,0,1-1.258-1.5,45.608,45.608,0,0,0-1.093-7.231,1.662,1.662,0,0,1,3.236-.758,48.962,48.962,0,0,1,1.172,7.76,1.664,1.664,0,0,1-2.058,1.728Zm-117.191-33.166a1.662,1.662,0,0,1-1.251-1.782,77.387,77.387,0,0,1,1.181-7.662,1.662,1.662,0,0,1,3.255.67,74.091,74.091,0,0,0-1.13,7.332,1.66,1.66,0,0,1-2.055,1.443Zm44.436,7.367a1.661,1.661,0,0,1-.688-2.868,61.99,61.99,0,0,1,6.2-4.724,1.662,1.662,0,0,1,1.844,2.766,58.66,58.66,0,0,0-5.868,4.469A1.659,1.659,0,0,1,997.948,1799.48Zm69.315,11.082a1.659,1.659,0,0,1-1.14-.983,44.454,44.454,0,0,0-3.314-6.513,1.662,1.662,0,0,1,2.826-1.749,47.776,47.776,0,0,1,3.563,7,1.662,1.662,0,0,1-1.936,2.244Zm-56.712-19.476a1.662,1.662,0,0,1-.34-3.1,57.508,57.508,0,0,1,7.213-2.992,1.662,1.662,0,0,1,1.058,3.151,54.084,54.084,0,0,0-6.795,2.819A1.656,1.656,0,0,1,1010.551,1791.086Zm-53.992-13.815c-.031-.008-.062-.016-.094-.026a1.662,1.662,0,0,1-1.1-2.079,77.107,77.107,0,0,1,2.657-7.284,1.662,1.662,0,0,1,3.06,1.3,73.8,73.8,0,0,0-2.542,6.97A1.662,1.662,0,0,1,956.559,1777.271Zm102.726,20.462a1.652,1.652,0,0,1-.835-.5,36.78,36.78,0,0,0-5.344-4.894,1.662,1.662,0,1,1,1.986-2.664,40.069,40.069,0,0,1,5.829,5.336,1.662,1.662,0,0,1-1.637,2.723Zm-34.387-11.421a1.662,1.662,0,0,1,.115-3.251,45,45,0,0,1,7.836-.673,1.662,1.662,0,1,1-.013,3.323,41.717,41.717,0,0,0-7.255.624A1.656,1.656,0,0,1,1024.9,1786.311Zm22.282,2.459a1.7,1.7,0,0,1-.285-.1,33.241,33.241,0,0,0-6.861-2.221,1.662,1.662,0,1,1,.676-3.254,36.524,36.524,0,0,1,7.55,2.445,1.662,1.662,0,0,1-1.08,3.129Zm-84.655-25.424a1.663,1.663,0,0,1-1.046-2.435,72.195,72.195,0,0,1,4.193-6.527,1.662,1.662,0,1,1,2.7,1.944,68.892,68.892,0,0,0-4,6.225A1.662,1.662,0,0,1,962.525,1763.346Zm8.849-12.28a1.663,1.663,0,0,1-.837-2.722,75.726,75.726,0,0,1,5.467-5.5,1.662,1.662,0,0,1,2.234,2.46,72.356,72.356,0,0,0-5.226,5.258A1.662,1.662,0,0,1,971.374,1751.067Zm11.212-10.191a1.662,1.662,0,0,1-.589-2.948c2.057-1.524,4.225-2.972,6.442-4.3a1.662,1.662,0,0,1,1.711,2.849c-2.126,1.277-4.2,2.665-6.176,4.126A1.659,1.659,0,0,1,982.586,1740.875Zm12.992-7.813a1.662,1.662,0,0,1-.32-3.112c2.308-1.107,4.7-2.126,7.124-3.027a1.662,1.662,0,1,1,1.16,3.114c-2.325.866-4.629,1.845-6.846,2.91A1.657,1.657,0,0,1,995.578,1733.063Zm14.209-5.3a1.662,1.662,0,0,1-.042-3.216c2.468-.678,5-1.258,7.54-1.724a1.662,1.662,0,1,1,.6,3.269c-2.442.448-4.884,1.007-7.26,1.659A1.656,1.656,0,0,1,1009.787,1727.764Zm14.917-2.744a1.662,1.662,0,0,1,.239-3.267c2.546-.247,5.141-.39,7.712-.425a1.662,1.662,0,0,1,.045,3.323c-2.479.034-4.981.172-7.436.41A1.652,1.652,0,0,1,1024.7,1725.02Z" transform="translate(-886.353 -1556.851)" fill="#00A443"/>
      <g id="Grupo_12623" data-name="Grupo 12623" transform="translate(173.417 152.761)">
        <path id="Caminho_10412" data-name="Caminho 10412" d="M1853.847,2217.64v141.293c0,.172-.008.344-.016.523,0,.082-.008.164-.016.246s-.008.156-.017.237c0,.033-.008.066-.008.1-.008.057-.016.106-.024.156-.008.123-.033.246-.049.368s-.041.238-.065.352a1.3,1.3,0,0,1-.041.172.363.363,0,0,1-.025.131,1.244,1.244,0,0,1-.041.172c-.024.106-.057.213-.082.311a.147.147,0,0,1-.017.057c-.057.18-.106.36-.172.532a.03.03,0,0,1-.008.025c-.033.09-.065.18-.1.262s-.065.156-.09.229a.328.328,0,0,0-.025.065c-.1.221-.2.45-.311.663-.033.065-.074.147-.115.221s-.082.139-.123.213-.074.139-.123.2c-.082.139-.172.278-.262.409-.057.09-.115.164-.164.246-.139.18-.27.36-.417.532q-.16.2-.319.368c-.106.122-.221.237-.336.352-.049.057-.106.107-.164.164a1.237,1.237,0,0,1-.155.139c-.058.057-.123.115-.188.172-.016.016-.041.032-.057.049-.156.139-.319.27-.483.393a.221.221,0,0,0-.049.041c-.131.09-.262.188-.4.278-.049.033-.09.066-.131.09-.073.049-.147.1-.221.139a1.289,1.289,0,0,1-.18.106c-.065.041-.131.082-.2.115a9.162,9.162,0,0,1-1.441.663c-.032.009-.057.025-.09.033s-.073.024-.106.032c-.115.041-.229.082-.352.115-.2.065-.409.115-.614.164l-.319.074a1.747,1.747,0,0,1-.2.033l-.254.049c-.016,0-.025,0-.033.009l-.2.024c-.033,0-.065.008-.1.008l-.18.024c-.033,0-.065.008-.106.008l-.377.024c-.18.008-.36.016-.54.016H1594.115c-.18,0-.36-.008-.54-.016l-.376-.024a3.633,3.633,0,0,1-.418-.049,1.958,1.958,0,0,1-.237-.033c-.2-.024-.393-.065-.581-.106a1.165,1.165,0,0,1-.164-.041c-.2-.049-.409-.1-.614-.164-.123-.041-.237-.074-.352-.115a10.887,10.887,0,0,1-1.588-.7l-.369-.221c-.139-.082-.278-.172-.409-.262a10.2,10.2,0,0,1-2.153-1.956q-.22-.258-.417-.54a9.66,9.66,0,0,1-1.122-2.014c-.065-.164-.131-.344-.2-.516s-.115-.352-.172-.532-.1-.36-.139-.54-.074-.335-.106-.508c-.008-.024-.008-.057-.016-.082-.025-.164-.049-.336-.066-.5-.008-.008-.008-.025-.008-.041-.016-.131-.025-.254-.032-.385-.025-.253-.033-.507-.033-.769V2217.64a10.072,10.072,0,0,1,3.683-7.8.542.542,0,0,1,.065-.049l.524-.4a10.029,10.029,0,0,1,5.836-1.858h249.624a6.932,6.932,0,0,1,.72.033.359.359,0,0,1,.131.008c.229.017.467.041.688.074l.156.025c.2.033.393.074.581.123a.938.938,0,0,1,.147.033c.238.057.467.122.7.2.213.066.433.147.638.229a8.155,8.155,0,0,1,.859.4,4.838,4.838,0,0,1,.458.246,6.558,6.558,0,0,1,.753.491c.008-.009.008,0,.008,0l.524.4a.538.538,0,0,1,.065.049,5.065,5.065,0,0,1,.385.336c.1.082.188.172.278.262a8.886,8.886,0,0,1,.786.867q.172.209.319.417A9.479,9.479,0,0,1,1853,2213.6c.082.18.156.368.229.557,0,.009.008.016.008.025a9.427,9.427,0,0,1,.287.925c.041.156.073.3.106.458.025.123.049.237.066.36s.041.246.057.369a4.063,4.063,0,0,1,.049.442,2.908,2.908,0,0,1,.025.377C1853.839,2217.288,1853.847,2217.468,1853.847,2217.64Z" transform="translate(-1584.006 -2112.828)" fill="#dfe5ea"/>
        <path id="Caminho_10413" data-name="Caminho 10413" d="M1856.184,1754.05h-268.63a10.109,10.109,0,0,1,3.078-4.346.518.518,0,0,1,.065-.049l.524-.4,124.456-94.474a10.228,10.228,0,0,1,12.384,0l124.448,94.474c.008-.009.008,0,.008,0l.524.4a.5.5,0,0,1,.065.049c.139.106.262.221.385.336.1.082.188.172.278.262a8.863,8.863,0,0,1,.786.868q.172.209.319.417a9.482,9.482,0,0,1,1.072,1.882c.082.18.156.368.229.557C1856.176,1754.034,1856.184,1754.042,1856.184,1754.05Z" transform="translate(-1586.948 -1652.693)" fill="#257fd0"/>
        <rect id="Retângulo_17782" data-name="Retângulo 17782" width="234.424" height="184.801" rx="16" transform="translate(16.043 24.057)" fill="#fff"/>
        <path id="Retângulo_17783" data-name="Retângulo 17783" d="M5.32,0H175.709a5.321,5.321,0,0,1,5.321,5.321v0a5.32,5.32,0,0,1-5.32,5.32H5.32A5.32,5.32,0,0,1,0,5.321v0A5.32,5.32,0,0,1,5.32,0Z" transform="translate(42.74 64.487)" fill="#e4ecf9"/>
        <path id="Retângulo_17784" data-name="Retângulo 17784" d="M5.32,0H175.709a5.32,5.32,0,0,1,5.32,5.32v0a5.32,5.32,0,0,1-5.32,5.32H5.32A5.32,5.32,0,0,1,0,5.321v0A5.32,5.32,0,0,1,5.32,0Z" transform="translate(42.74 87.219)" fill="#e4ecf9"/>
        <path id="Retângulo_17785" data-name="Retângulo 17785" d="M5.32,0H175.709a5.32,5.32,0,0,1,5.32,5.32v0a5.32,5.32,0,0,1-5.32,5.32H5.32A5.32,5.32,0,0,1,0,5.32v0A5.32,5.32,0,0,1,5.32,0Z" transform="translate(42.74 109.952)" fill="#e4ecf9"/>
        <path id="Retângulo_17786" data-name="Retângulo 17786" d="M5.321,0H175.709a5.321,5.321,0,0,1,5.321,5.321v0a5.32,5.32,0,0,1-5.32,5.32H5.32A5.32,5.32,0,0,1,0,5.321v0A5.321,5.321,0,0,1,5.321,0Z" transform="translate(42.74 132.684)" fill="#e4ecf9"/>
        <path id="Retângulo_17787" data-name="Retângulo 17787" d="M5.32,0H175.709a5.321,5.321,0,0,1,5.321,5.321v0a5.32,5.32,0,0,1-5.32,5.32H5.32A5.32,5.32,0,0,1,0,5.321v0A5.32,5.32,0,0,1,5.32,0Z" transform="translate(42.74 155.416)" fill="#e4ecf9"/>
        <path id="Caminho_10414" data-name="Caminho 10414" d="M1718.931,2292.076v.008a6.615,6.615,0,0,1-1.391,1.146l-122.868,75.811h-.556a9.873,9.873,0,0,1-2.93-.434c-.131-.041-.262-.082-.385-.123a10.012,10.012,0,0,1-4.166-2.758q-.16-.172-.319-.368a9.449,9.449,0,0,1-.843-1.187c-.09-.139-.164-.279-.246-.418s-.155-.295-.221-.442a10.059,10.059,0,0,1-1-4.379V2217.64a10.072,10.072,0,0,1,3.683-7.8.542.542,0,0,1,.065-.049l.524-.4a10.029,10.029,0,0,1,5.836-1.858h2.308l10.789,6.655,99.45,61.365,3.74,2.308,7.137,4.4a6.607,6.607,0,0,1,1.391,1.146v.008A6.466,6.466,0,0,1,1718.931,2292.076Z" transform="translate(-1584.006 -2112.828)" fill="#0792E5"/>
        <path id="Caminho_10415" data-name="Caminho 10415" d="M2501.3,2217.64v141.293c0,.172-.008.344-.016.523,0,.082-.008.164-.016.246s-.008.156-.017.237c0,.033-.008.066-.008.1-.008.057-.017.106-.025.156-.008.123-.033.246-.049.368s-.041.238-.065.352c0,.016-.008.041-.008.057a.837.837,0,0,1-.033.115.368.368,0,0,1-.024.131,1.282,1.282,0,0,1-.041.172c-.025.106-.049.2-.082.311a.151.151,0,0,1-.017.057,5.514,5.514,0,0,1-.172.532.03.03,0,0,1-.008.025c-.033.09-.057.172-.1.262-.025.074-.057.147-.09.229a.574.574,0,0,0-.024.065c-.1.221-.2.45-.311.663-.032.065-.073.147-.115.221s-.082.139-.123.213-.073.139-.123.2c-.082.139-.172.278-.262.409-.057.09-.115.164-.164.246-.139.188-.278.36-.417.532q-.16.2-.319.368c-.106.122-.221.237-.336.352-.049.057-.106.107-.164.164a1.254,1.254,0,0,1-.155.139c-.057.057-.123.115-.188.172-.016.016-.041.032-.057.049-.155.139-.319.27-.483.393a.215.215,0,0,0-.049.041c-.131.09-.262.188-.4.278-.049.033-.09.066-.131.09-.074.049-.147.1-.22.139a1.332,1.332,0,0,1-.18.106c-.066.041-.131.082-.2.115a9.152,9.152,0,0,1-1.441.663c-.033.009-.065.025-.09.033s-.074.024-.106.032c-.115.041-.229.082-.352.115-.2.065-.409.115-.614.164l-.319.074a1.739,1.739,0,0,1-.2.033l-.254.049h-.025c-.073.009-.147.025-.213.033-.033,0-.066.008-.1.008l-.18.024c-.033,0-.065.008-.106.008l-.377.024c-.18.008-.36.016-.54.016h-.557l-122.868-75.811a6.37,6.37,0,0,1-1.384-1.146v-.008a6.45,6.45,0,0,1,0-8.66v-.008a6.363,6.363,0,0,1,1.384-1.146l7.129-4.4,3.74-2.308,99.458-61.365,10.788-6.655h2.308a6.924,6.924,0,0,1,.72.033.36.36,0,0,1,.131.008c.229.017.467.041.688.074l.156.025c.2.033.393.074.581.123a.932.932,0,0,1,.147.033c.237.057.467.122.7.2.213.066.434.147.639.229a8.155,8.155,0,0,1,.859.4,4.808,4.808,0,0,1,.458.246,6.534,6.534,0,0,1,.753.491c.008-.009.008,0,.008,0l.524.4a.546.546,0,0,1,.066.049c.139.106.262.221.385.336.1.082.188.172.278.262a8.886,8.886,0,0,1,.786.867q.171.209.319.417a9.49,9.49,0,0,1,1.072,1.883c.082.18.156.368.229.557,0,.009.009.016.009.025a9.424,9.424,0,0,1,.286.925c.041.156.074.3.106.458.025.123.05.237.066.36s.041.246.057.369a4.063,4.063,0,0,1,.049.442,2.908,2.908,0,0,1,.025.377C2501.288,2217.288,2501.3,2217.468,2501.3,2217.64Z" transform="translate(-2231.454 -2112.828)" fill="#0792E5"/>
        <path id="Caminho_10417" data-name="Caminho 10417" d="M1853.847,2683.944v1.408a10.109,10.109,0,0,1-10.109,10.108H1594.115a10.11,10.11,0,0,1-10.109-10.108v-1.408l128.393-80.927a12.233,12.233,0,0,1,13.047,0Z" transform="translate(-1584.006 -2439.247)" fill="#007ACB"/>
        <path id="Retângulo_17788" data-name="Retângulo 17788" d="M5.32,0H78.578A5.32,5.32,0,0,1,83.9,5.32v0a5.32,5.32,0,0,1-5.32,5.32H5.32A5.32,5.32,0,0,1,0,5.32v0A5.32,5.32,0,0,1,5.32,0Z" transform="translate(42.74 41.755)" fill="#0792E5"/>
      </g>
      <g id="Grupo_12626" data-name="Grupo 12626" transform="translate(111.843 116.868)">
        <g id="Grupo_12625" data-name="Grupo 12625" transform="translate(2.893)">
          <g id="Grupo_12624" data-name="Grupo 12624">
            <path id="Caminho_10419" data-name="Caminho 10419" d="M1427.932,1529.358l-.735-65.555,100.683-21.4Z" transform="translate(-1395.281 -1442.403)" fill="#26BF64"/>
            <path id="Caminho_10420" data-name="Caminho 10420" d="M1272.577,1484.644c.51-.256,100.233-42.241,100.233-42.241l-132.6,17.693Z" transform="translate(-1240.212 -1442.403)" fill="#00A443"/>
            <path id="Caminho_10421" data-name="Caminho 10421" d="M1442.21,1726l-10.706,36.346,45.916-39Z" transform="translate(-1398.853 -1675.395)" fill="#007F33"/>
            <path id="Caminho_10422" data-name="Caminho 10422" d="M1494.225,1493.012l32.564,24.553,56.678-75.162Z" transform="translate(-1450.869 -1442.403)" fill="#00A443"/>
          </g>
        </g>
      </g>
      <path id="Caminho_10423" data-name="Caminho 10423" d="M3237.174,2325.106c-.293-3.344-.548-6.3-.75-8.658C3237.251,2319.711,3237.771,2323.216,3237.174,2325.106Zm-9.134-42.9c.583,2.71,1.421,6.58,2.32,10.635a29.918,29.918,0,0,1-1.485-3.258,29.565,29.565,0,0,1-1.679-7.453l-.069-2.668h0l.3-.113C3227.57,2280.009,3227.779,2280.99,3228.04,2282.206Zm-41.911,35.771c.029-.586-2.158-9.893-3.3-16.355-.744-4.195-1.623-12.188-2.166-17.471-.113-1.1-.212-2.084-.292-2.89l.045.01.006.008c3.855,5.625,7.219,34.771,7.219,34.771a1.882,1.882,0,0,0,1.029.866c.036.014.075.028.114.04l.993,4.55C3187.914,2320.3,3186.109,2318.413,3186.129,2317.977Z" transform="translate(-2734.474 -2019.625)" fill="#7d95b7" opacity="0.3"/>
      <g id="Grupo_12627" data-name="Grupo 12627" transform="translate(432.019 181.172)">
        <path id="Caminho_10424" data-name="Caminho 10424" d="M3450.362,2286.092c-.831,9.739-4.724,13.97-5.95,12.374s-2.063-11.276-1.014-14.139-.79-9.944-2.243-13.759c-1.127-2.958-5.11-21.245-6.842-29.294-.5-2.326-.811-3.8-.811-3.8s.5-.44,1.259-1.1c2.57-2.209,8.147-6.863,7.725-5.258a7.642,7.642,0,0,0-.051,2.17c.062.816.177,1.754.316,2.709.442,3,1.127,6.166,1.127,6.166" transform="translate(-3376.422 -2160.527)" fill="#fdc8aa"/>
        <path id="Caminho_10425" data-name="Caminho 10425" d="M3442.752,2248.148l-8.438,5.275c-.5-2.327-.811-3.8-.811-3.8s.5-.44,1.259-1.1l7.674-3.088C3442.5,2246.255,3442.612,2247.194,3442.752,2248.148Z" transform="translate(-3376.422 -2172.676)" fill="#fbb188"/>
        <path id="Caminho_10426" data-name="Caminho 10426" d="M3133.6,2326.809s-4.185-.428-8.187-5.731-8.068-11.132-9.393-18.694-1.747-9.481-1.781-9.806c-.033-.286-.673-15-.823-18.474-.019-.465-.031-.728-.031-.728h7.554c.024.241.22,2.3.514,5.16.543,5.283,1.421,13.277,2.166,17.471,1.146,6.462,3.333,15.768,3.3,16.355s3.224,3.769,5.487,4.446S3133.6,2326.809,3133.6,2326.809Z" transform="translate(-3110.947 -2195.844)" fill="#fdc8aa"/>
        <path id="Caminho_10427" data-name="Caminho 10427" d="M3113.389,2273.376h7.554c.024.241.22,2.3.514,5.16l-8.038-4.431Z" transform="translate(-3110.947 -2195.844)" fill="#fbb188"/>
        <path id="Caminho_10428" data-name="Caminho 10428" d="M3462.8,3062.8v11.829l-9,.257-.222-6.527-.171-4.987-.018-.572Z" transform="translate(-3392.914 -2850.525)" fill="#fdc8aa"/>
        <path id="Caminho_10429" data-name="Caminho 10429" d="M3453.5,3063.372c.255-.192.514-.385.773-.572h8.624v2a17.051,17.051,0,0,1-9.227,3.561Z" transform="translate(-3393.003 -2850.525)" fill="#fbb188"/>
        <path id="Caminho_10430" data-name="Caminho 10430" d="M3377.89,3062.093l-9.052,1.594-.271-3.818-.448-6.313,4.686-1.658.689-.245c.013.06.113.325.28.736.288.712.767,1.858,1.3,3.119C3376.334,3058.484,3377.89,3062.093,3377.89,3062.093Z" transform="translate(-3322.198 -2841.28)" fill="#fdc8aa"/>
        <path id="Caminho_10431" data-name="Caminho 10431" d="M3375.073,3056.7a9.16,9.16,0,0,1-6.507,4.361l-.448-6.313,4.686-1.658.969.492C3374.061,3054.289,3374.541,3055.435,3375.073,3056.7Z" transform="translate(-3322.198 -2842.469)" fill="#fbb188"/>
        <path id="Caminho_10432" data-name="Caminho 10432" d="M3258.474,2514.642c.027,1.948-1.878,2.713-7.7,4.046s-6.136-.234-6.136-.234l-6.542-52.939-6.838-26.861v35.682l6.838,40.438c-4.567,7.394-10.989,3.872-10.989,3.872l-10.642-40.852L3202.7,2414.7s9.977-3.275,20.563-6.326c.745-.214,1.494-.428,2.24-.64.593-.167,1.183-.333,1.773-.5,9.852-2.732,19.208-4.888,20.51-3.647,2.88,2.744,3.016,9.189,3.016,9.189s3.841,46.081,5.943,62.261S3258.448,2512.694,3258.474,2514.642Z" transform="translate(-3185.012 -2303.538)" fill="#1f3a6f"/>
        <path id="Caminho_10433" data-name="Caminho 10433" d="M3369.272,2514.642c.027,1.948-1.878,2.713-7.7,4.046s-6.137-.234-6.137-.234l-6.542-52.939-6.838-26.861-5.751-30.917c10.477-2.958,20.9-5.458,22.283-4.143,2.88,2.744,3.016,9.189,3.016,9.189s3.841,46.081,5.943,62.261S3369.246,2512.694,3369.272,2514.642Z" transform="translate(-3295.811 -2303.538)" fill="#15315e"/>
        <path id="Caminho_10434" data-name="Caminho 10434" d="M3331.167,2458.122l-3.767-7.495-4.225-22.783c.745-.214,1.493-.428,2.24-.64.593-.166,1.183-.333,1.773-.5C3328.125,2434.947,3331.167,2458.122,3331.167,2458.122Z" transform="translate(-3284.925 -2323.005)" fill="#122c51"/>
        <path id="Caminho_10435" data-name="Caminho 10435" d="M3233.362,1978.3l-2.112,2.678-7.365,9.337-4.921-8.111-5.32-8.766-.119-.2a9.221,9.221,0,0,0-.792-6.379c-1.46-2.691,10.291-2.788,13.783-2.761.6.006.961.017.961.017s-.015.345,0,.936a24.261,24.261,0,0,0,.432,3.89C3228.522,1972.09,3229.966,1976.01,3233.362,1978.3Z" transform="translate(-3193.23 -1939.361)" fill="#fdc8aa"/>
        <path id="Caminho_10436" data-name="Caminho 10436" d="M3167.838,2050.089c-2.729,1.255-11.79,4.636-11.79,4.636a27.274,27.274,0,0,0,1.762,10.116,35.661,35.661,0,0,0,1.962,4.171c.807,1.514,1.708,3.105,2.533,4.625,2.227,4.065,3.942,7.63,1.956,7.865-3.47.412-12.178-1.149-17.952.454s-16.06,3.146-22.182,7.824c-3.517,2.692-5.491,2.792-6.528,2.392a1.883,1.883,0,0,1-1.031-.866s-3.364-29.146-7.217-34.772l-.006-.006-8.03-1.785s-3.128-13.851-1.98-27.455c0,0-.624-2.94,4.4-5.744s10.912-5.567,12.461-7.329c0,0,.318-1.214-.66-1.573s3.848-2.039,3.848-2.039l10.357,17.074,9.479-12.019s-6.163-3.329-5.32-6.475c.077-.295,7.771,1.3,9.385,3.665A2.578,2.578,0,0,0,3142,2014.8s13.893,3.458,15.6,6.357,3.777,3.471,9.474,20.055C3167.072,2041.216,3170.559,2048.833,3167.838,2050.089Z" transform="translate(-3099.082 -1976.716)" fill="#00A443"/>
        <path id="Caminho_10437" data-name="Caminho 10437" d="M3227.911,1968.95c-1.529,2.156-5.174,4.98-14.267,4.493l-.119-.2a9.221,9.221,0,0,0-.792-6.379c-1.46-2.691,10.291-2.788,13.783-2.761l.963.953A24.261,24.261,0,0,0,3227.911,1968.95Z" transform="translate(-3193.23 -1939.361)" fill="#fbb188"/>
        <path id="Caminho_10438" data-name="Caminho 10438" d="M3195.884,1869.183a12.617,12.617,0,1,1-12.617-12.617A12.617,12.617,0,0,1,3195.884,1869.183Z" transform="translate(-3158.435 -1850.178)" fill="#fdc8aa"/>
        <path id="Caminho_10439" data-name="Caminho 10439" d="M3176.9,1902.664a12.621,12.621,0,0,1-3.413-18.86c1.633,1.055,2.834,1.85,2.834,1.85S3170.105,1894.615,3176.9,1902.664Z" transform="translate(-3158.435 -1872.767)" fill="#fbb188"/>
        <path id="Caminho_10440" data-name="Caminho 10440" d="M3158.4,1831.818a4.674,4.674,0,0,1-1.749,2.675s-1.106-.334-1.26-1.183a3.946,3.946,0,0,1-.591,2.8,7.814,7.814,0,0,1-1.466,1.312,12.026,12.026,0,0,1-.18-2.237s-1.98,7.869-4.037,8.049-5.134-10.646-1.706-13.183,5.863-10.663,9.806-10.9-1.475,4.423,2.022,3.257,13.989-.1,15.669,2.194-1.783,2.3-1.783,2.3,5.554,2.777,5.04,7.92-2.263,7.68-3.6,6.926c0,0-.377-1.269-.377-1.406s1.234-2.126.343-3.84-1.853-.411-1.853-.411a7.041,7.041,0,0,0-4.9-5.243,2.735,2.735,0,0,0-.377,3.048A9.97,9.97,0,0,1,3158.4,1831.818Z" transform="translate(-3137.883 -1819.14)" fill="#1f3a6f"/>
        <path id="Caminho_10441" data-name="Caminho 10441" d="M3262.133,2062.988l-7.365,9.337-4.921-8.112C3252.4,2065.041,3256.654,2065.529,3262.133,2062.988Z" transform="translate(-3224.114 -2021.367)" fill="#ecf3fe"/>
        <path id="Caminho_10442" data-name="Caminho 10442" d="M3347.666,3105.953c-.012,1.228-.117,2.112-.372,2.3-1.017.738-2.545.642-2.827,1.769s-3.546,3.2-11.017,1.5c-3.628-.827-4.573-2.7-4.454-4.561a5.638,5.638,0,0,1,.188-1.124,9.709,9.709,0,0,1,1.818-3.46c1.115-1.3,3.172-5.137,3.378-6.923s2.983-3.431,4.664-3.534,4.011,2.434,4.011,2.434,1.852.652,2.5,0,1.265.5,1.329.951c.006.05.028.243.063.547C3347.145,3097.569,3347.7,3102.853,3347.666,3105.953Z" transform="translate(-3289.745 -2874.669)" fill="#ecf3fe"/>
        <path id="Caminho_10443" data-name="Caminho 10443" d="M3347.666,3125.068c-.012,1.228-.117,2.113-.372,2.3-1.017.739-2.545.642-2.827,1.77s-3.546,3.2-11.017,1.5c-3.628-.827-4.573-2.7-4.454-4.561,10.619,4.5,16.464-7.492,17.953-11.109C3347.145,3116.685,3347.7,3121.968,3347.666,3125.068Z" transform="translate(-3289.745 -2893.785)" fill="#d7e3f4"/>
        <path id="Caminho_10444" data-name="Caminho 10444" d="M3347.658,3173.585c-.012,1.228-.117,2.113-.372,2.3-1.017.739-2.545.642-2.827,1.77s-3.547,3.2-11.017,1.5c-4.367-1-4.844-3.51-4.266-5.685,5.015,5.787,12.623,3.966,13.863,2.526C3344.136,3174.719,3346.725,3173.9,3347.658,3173.585Z" transform="translate(-3289.738 -2942.302)" fill="#9fb8d6"/>
        <path id="Caminho_10445" data-name="Caminho 10445" d="M3463.638,3111.979c-4.676,1.763-11.676,2.592-17.365,0,0,0-3.733-.206-4.54-2.514,0,0-.025-.928-.043-2.249-.045-3.166-.047-8.591.438-8.87.608-.348,2.791.989,3.6.313a.338.338,0,0,0,.049-.043.792.792,0,0,0,.193-.337s3.668-6.413,8.743-1.955a50.582,50.582,0,0,1,8.885,10.015c.027.045.056.09.081.135a10.972,10.972,0,0,1,1.115,2.383C3465.235,3110.332,3464.984,3111.473,3463.638,3111.979Z" transform="translate(-3383.196 -2877.019)" fill="#ecf3fe"/>
        <path id="Caminho_10446" data-name="Caminho 10446" d="M3463.638,3129.178c-4.676,1.763-11.676,2.592-17.365,0,0,0-3.733-.206-4.54-2.514,0,0-.025-.928-.043-2.249-.045-3.166-.047-8.591.438-8.871.608-.348,2.791.989,3.6.313,1.057,3.382,4.8,9.413,17.951,7.815a10.969,10.969,0,0,1,1.115,2.382C3465.235,3127.531,3464.984,3128.672,3463.638,3129.178Z" transform="translate(-3383.196 -2894.219)" fill="#d7e3f4"/>
        <path id="Caminho_10447" data-name="Caminho 10447" d="M3463.731,3172.563c-4.676,1.763-11.677,2.592-17.365,0,0,0-3.733-.206-4.54-2.514,0,0-.025-.928-.043-2.249a7.7,7.7,0,0,0,4.579,2.1s2.006,1.588,8.332,1.565c4.931-.018,8.8-.958,10.191-2.03C3465.328,3170.916,3465.077,3172.057,3463.731,3172.563Z" transform="translate(-3383.289 -2937.604)" fill="#9fb8d6"/>
        <path id="Caminho_10448" data-name="Caminho 10448" d="M3167.5,2322.415a1.881,1.881,0,0,1-1.029-.866s-3.364-29.146-7.219-34.771C3159.507,2287.124,3168.069,2298.734,3167.5,2322.415Z" transform="translate(-3148.979 -2206.959)" fill="#007F33"/>
        <path id="Caminho_10449" data-name="Caminho 10449" d="M3419.776,2223.637c-.677-1.487-1.7-5.13-2.785-14.03l2.715,11.355Z" transform="translate(-3362.729 -2142.96)" fill="#007F33"/>
        <path id="Caminho_10450" data-name="Caminho 10450" d="M3349.364,2355.07c-13.633-.059-30.572-7.836-22.736-6.386,5.768,1.066,15.277,1.567,20.2,1.761C3347.637,2351.959,3348.538,2353.55,3349.364,2355.07Z" transform="translate(-3286.14 -2258.149)" fill="#007F33"/>
      </g>
    </g>
  </g>
</svg>
