<svg xmlns="http://www.w3.org/2000/svg" width="22.133" height="17.452" viewBox="0 0 22.133 17.452"><defs><style>.a{fill:#fff;}</style></defs><path class="a" d="M27.8,25.752a1.771,1.771,0,0,0-1.505-.794H24.983V23a1.827,1.827,0,0,0-1.825-1.825H15.077l-.817-1.827A1.792,1.792,0,0,0,12.6,18.262H7.848a1.827,1.827,0,0,0-1.825,1.825c0,1.736-.005,5.348-.011,7.084l.763,0c.005-1.737.011-5.35.011-7.086a1.064,1.064,0,0,1,1.062-1.062H12.6a1.027,1.027,0,0,1,.966.629l1.02,2.281h8.576A1.064,1.064,0,0,1,24.22,23v1.96H11.163a1.813,1.813,0,0,0-1.709,1.182l-2.7,7.108c0-2.2.006-4.433.016-6.636l-.763,0c-.011,2.417-.016,4.867-.016,7.281a1.813,1.813,0,0,0,.2.831l-.006.018L6.3,34.9a1.821,1.821,0,0,0,1.518.814H23.6a1.814,1.814,0,0,0,1.709-1.176L28,27.431a1.765,1.765,0,0,0-.2-1.679Zm-.51,1.41L24.6,34.267a1.043,1.043,0,0,1-1,.684H7.82a1.058,1.058,0,0,1-.767-.329l3.114-8.214a1.043,1.043,0,0,1,.995-.689H26.294a1.066,1.066,0,0,1,1,1.441Z" transform="translate(-5.995 -18.262)"/></svg>