<svg xmlns="http://www.w3.org/2000/svg" width="16" height="12.593" viewBox="0 0 16 12.593">
  <g id="camera_1_" data-name="camera (1)" transform="translate(0 -44.8)">
    <g id="Grupo_12237" data-name="Grupo 12237" transform="translate(0 44.8)">
      <g id="Grupo_12236" data-name="Grupo 12236" transform="translate(0)">
        <path id="Caminho_9996" data-name="Caminho 9996" d="M15.468,46.762a1.72,1.72,0,0,0-1.262-.532H11.681V46.2a1.366,1.366,0,0,0-.411-.989,1.392,1.392,0,0,0-.989-.411H5.719A1.4,1.4,0,0,0,4.3,46.2v.03H1.795a1.72,1.72,0,0,0-1.262.532A1.808,1.808,0,0,0,0,48.024V55.6a1.72,1.72,0,0,0,.532,1.262,1.808,1.808,0,0,0,1.262.532H14.205a1.72,1.72,0,0,0,1.262-.532A1.808,1.808,0,0,0,16,55.6V48.024A1.72,1.72,0,0,0,15.468,46.762ZM15.209,55.6h-.015a.987.987,0,0,1-.989.989H1.795A.987.987,0,0,1,.806,55.6V48.024a.987.987,0,0,1,.989-.989H4.73a.409.409,0,0,0,.411-.411v-.441a.573.573,0,0,1,.593-.593h4.548a.573.573,0,0,1,.593.593v.441a.409.409,0,0,0,.411.411h2.935a.987.987,0,0,1,.989.989Z" transform="translate(0 -44.8)" fill="#00A443"/>
        <path id="Caminho_9997" data-name="Caminho 9997" d="M115.741,130.8a3.739,3.739,0,1,0,2.646,1.1A3.748,3.748,0,0,0,115.741,130.8Zm2.068,5.825a2.938,2.938,0,0,1-4.137,0,2.908,2.908,0,0,1-.852-2.068,2.972,2.972,0,0,1,.852-2.068,2.908,2.908,0,0,1,2.068-.852,2.972,2.972,0,0,1,2.068.852,2.908,2.908,0,0,1,.852,2.068A2.846,2.846,0,0,1,117.81,136.625Z" transform="translate(-107.741 -127.53)" fill="#00A443"/>
        <circle id="Elipse_160" data-name="Elipse 160" cx="0.745" cy="0.745" r="0.745" transform="translate(12.669 3.255)" fill="#00A443"/>
      </g>
    </g>
  </g>
</svg>
