<svg xmlns="http://www.w3.org/2000/svg" xmlns:xlink="http://www.w3.org/1999/xlink" width="372.181" height="314.281" viewBox="0 0 372.181 314.281">
  <defs>
    <clipPath id="clip-path">
      <path id="Caminho_12567" data-name="Caminho 12567" d="M797.772,744.73l-6.184,59.177h-33l-6.2-59.3C763.838,747.754,776.752,749.383,797.772,744.73Z" transform="translate(-752.394 -744.604)" fill="none"/>
    </clipPath>
    <clipPath id="clip-path-2">
      <path id="Caminho_12591" data-name="Caminho 12591" d="M365.727,735.828l-6.339,62.506H325.566L319.214,735.7C330.944,739.023,344.181,740.743,365.727,735.828Z" transform="translate(-319.214 -735.696)" fill="none"/>
    </clipPath>
    <clipPath id="clip-path-3">
      <path id="Caminho_12636" data-name="Caminho 12636" d="M549.586,788.412a93.863,93.863,0,0,1,6.421,12.293c3.17,20.58-1.4,49.592-1.505,68.9l-10.519.245s-11.907-38.132-23.812-85.2c-2.187-8.646-.739-15.524,5.68-20.526,10.693-8.332,43.791-27.436,81.485-35.84,2.228,3.664,31.823,2.02,39.092,10.438C648.841,780.982,549.586,788.412,549.586,788.412Z" transform="translate(-519.218 -728.283)" fill="#2d6b7c"/>
    </clipPath>
    <clipPath id="clip-path-4">
      <path id="Caminho_12642" data-name="Caminho 12642" d="M690.34,652.635c-10.243,9.252-38.619,11.433-51.347,11.469a14.837,14.837,0,0,1-9.732-3.354c-8.36-7.146-10.532-19.76-10.152-36.073.109-4.684-1.038-6.617-4.433-11.321-6.36-8.812-7.92-11.689-10.372-21.861-1.075-4.46-5.084-22.891,9.506-36.909,9.207-8.847,27.036-5.651,34.456-.778C677.347,572.9,687.568,628.7,690.34,652.635Z" transform="translate(-602.984 -549.013)" fill="#2d2a0c"/>
    </clipPath>
  </defs>
  <g id="Grupo_13414" data-name="Grupo 13414" transform="translate(-250.301 -457.276)">
    <g id="Grupo_13367" data-name="Grupo 13367" transform="translate(504.879 483.021)">
      <g id="Grupo_13353" data-name="Grupo 13353" transform="translate(0 0)">
        <path id="Caminho_12564" data-name="Caminho 12564" d="M744.232,649.014s-37.824,16.3-52.525-15.966c-14.042-30.817,9.29-49.528,19.823-48.55,0,0-17.541-10.21-8.756-30.629,7.981-18.552,27.712-13.033,27.712-13.033-6.737-6.191-6.094-39.264,18.9-38.449,23.381.763,22.26,33.562,18.665,37.978,0,0,16.561-2.7,23.584,16.547,7.212,19.768-8.6,29.869-8.6,29.869s28.98,8.472,18.415,41.707C789.6,665.749,744.232,649.014,744.232,649.014Z" transform="translate(-686.745 -501.787)" fill="#ffc15e"/>
        <path id="Caminho_12565" data-name="Caminho 12565" d="M722.9,653.3c-10.459,0-24.458-3.564-32.14-20.424-8.645-18.971-2.713-31.965,1.592-38.022,5.057-7.115,11.935-10.873,16.925-11.34-4.149-3.173-14.742-13.352-7.455-30.29,6.72-15.62,21.737-14.552,26.745-13.708-3.1-4.744-3.977-15.667-.331-24.588,3.7-9.047,11.068-13.854,20.749-13.54,8.238.269,14.476,4.544,18.038,12.362,4.2,9.221,3.592,21.234,1.674,25.523,3.964-.18,17.047.522,23.067,17.024,6.241,17.106-4.568,27.249-7.9,29.876,3.072,1.139,11.848,5.076,16.749,14.281,4.076,7.656,4.4,17.009.975,27.8-3.119,9.811-8.833,16.807-16.984,20.793-16.632,8.132-38.354,1.018-40.767.183a60.441,60.441,0,0,1-20.764,4.074Zm-12.576-68.668c-4.628,0-11.883,3.668-17.021,10.9-4.159,5.852-9.882,18.423-1.481,36.861,5.969,13.1,16.421,19.74,31.066,19.74h.142a58.945,58.945,0,0,0,20.555-4.068.582.582,0,0,1,.433-.012c.228.084,22.981,8.3,40.073-.062,7.851-3.84,13.362-10.6,16.38-20.1,3.331-10.477,3.03-19.525-.893-26.894-5.654-10.619-17.015-14.043-17.129-14.077a.584.584,0,0,1-.151-1.052c.629-.4,15.33-10.1,8.369-29.177-6.779-18.58-22.78-16.2-22.941-16.171a.584.584,0,0,1-.547-.945c1.975-2.427,3.312-15.4-1.219-25.347-3.413-7.493-9.138-11.422-17.013-11.679-11.739-.386-17.155,6.758-19.63,12.815-3.77,9.227-2.52,21.251,1.148,24.622a.584.584,0,0,1-.552.992c-.786-.219-19.336-5.155-27.018,12.7-8.472,19.692,7.815,29.487,8.513,29.894a.584.584,0,0,1-.348,1.086C710.82,584.641,710.575,584.631,710.322,584.631Z" transform="translate(-686.327 -501.371)" fill="#ac720f"/>
      </g>
      <g id="Grupo_13355" data-name="Grupo 13355" transform="translate(38.574 142.014)">
        <g id="Grupo_13354" data-name="Grupo 13354" clip-path="url(#clip-path)">
          <path id="Caminho_12566" data-name="Caminho 12566" d="M795,797.5s-7.506-1.116-5.7-68.3H774.734c1.8,67.18-5.707,68.3-5.707,68.3Z" transform="translate(-759.316 -738.195)" fill="#2b594f"/>
        </g>
      </g>
      <g id="Grupo_13358" data-name="Grupo 13358" transform="translate(53.914 146.273)">
        <g id="Grupo_13356" data-name="Grupo 13356">
          <path id="Caminho_12568" data-name="Caminho 12568" d="M779.946,805.942a1.28,1.28,0,0,1-1.057-2c2.021-2.972,3.228-19.686,3.228-44.709,0-2.264-.01-4.311-.024-6.044a1.28,1.28,0,0,1,1.27-1.29h.01a1.28,1.28,0,0,1,1.28,1.27c.014,1.739.024,3.793.024,6.065,0,18.59-.637,41.687-3.671,46.149A1.279,1.279,0,0,1,779.946,805.942Z" transform="translate(-778.667 -751.899)" fill="#1e494b"/>
        </g>
        <g id="Grupo_13357" data-name="Grupo 13357" transform="translate(8.092)">
          <path id="Caminho_12569" data-name="Caminho 12569" d="M797.262,805.942a1.278,1.278,0,0,1-1.06-.56c-2.439-3.586-3.676-19.182-3.676-46.356,0-2.189.009-4.171.022-5.857a1.28,1.28,0,0,1,1.28-1.27h.009a1.28,1.28,0,0,1,1.271,1.289c-.013,1.681-.022,3.657-.022,5.838,0,25.149,1.209,41.94,3.233,44.916a1.28,1.28,0,0,1-1.057,2Z" transform="translate(-792.526 -751.899)" fill="#1e494b"/>
        </g>
      </g>
      <g id="Grupo_13359" data-name="Grupo 13359" transform="translate(26.804 200.037)">
        <path id="Caminho_12570" data-name="Caminho 12570" d="M796.433,846.543H733.516a1.28,1.28,0,1,1,0-2.56h62.917a1.28,1.28,0,0,1,0,2.56Z" transform="translate(-732.236 -843.983)" fill="#856b1d"/>
      </g>
      <g id="Grupo_13365" data-name="Grupo 13365" transform="translate(23.89 16.961)">
        <g id="Grupo_13360" data-name="Grupo 13360" transform="translate(0 76.872)">
          <path id="Caminho_12571" data-name="Caminho 12571" d="M738.495,700.927a1.276,1.276,0,0,1-.6-.15,18.149,18.149,0,0,1-4.742-3.674,1.28,1.28,0,0,1,1.871-1.747,15.619,15.619,0,0,0,4.071,3.16,1.28,1.28,0,0,1-.6,2.411Zm-9.4-13.286a1.28,1.28,0,0,1-1.252-1.019c-.132-.635-.241-1.287-.324-1.938a33.2,33.2,0,0,1-.271-4.148c0-13.442,9.163-18.452,14.939-18.452a9.246,9.246,0,0,1,3.754.743,1.28,1.28,0,0,1-1.047,2.336,6.693,6.693,0,0,0-2.707-.519c-4.976,0-12.378,4.232-12.378,15.892a30.617,30.617,0,0,0,.252,3.827c.074.584.171,1.168.29,1.738a1.281,1.281,0,0,1-1.255,1.541Z" transform="translate(-727.244 -662.083)" fill="#ac720f"/>
        </g>
        <g id="Grupo_13361" data-name="Grupo 13361" transform="translate(40.03 78.104)">
          <path id="Caminho_12572" data-name="Caminho 12572" d="M812.257,705.026a33.239,33.239,0,0,1-5.781-.522.584.584,0,1,1,.2-1.15,28.435,28.435,0,0,0,10.905-.049.584.584,0,1,1,.254,1.14A25.754,25.754,0,0,1,812.257,705.026Zm-11.086-1.955a.575.575,0,0,1-.2-.037,12.786,12.786,0,0,1-5.021-2.915.584.584,0,0,1,.885-.763,11.914,11.914,0,0,0,4.541,2.582.584.584,0,0,1-.2,1.132ZM827,698.677a.584.584,0,0,1-.475-.923,14.8,14.8,0,0,0,2.222-4.871.584.584,0,0,1,1.13.3,15.966,15.966,0,0,1-2.4,5.253A.583.583,0,0,1,827,698.677Zm3-16.19a.584.584,0,0,1-.58-.526c-1.528-15.4-14.285-16.6-18.159-16.6a16.2,16.2,0,0,0-5.088.712.584.584,0,0,1-.4-1.1,17.4,17.4,0,0,1,5.485-.782c4.121,0,17.7,1.273,19.321,17.653a.583.583,0,0,1-.523.638A.5.5,0,0,1,830,682.487Z" transform="translate(-795.805 -664.193)" fill="#ac720f"/>
        </g>
        <g id="Grupo_13362" data-name="Grupo 13362" transform="translate(11.964 32.537)">
          <path id="Caminho_12573" data-name="Caminho 12573" d="M752.662,614.479a1.279,1.279,0,0,1-1.054-.553,19.7,19.7,0,0,1-3.872-11.194c0-10.288,9.675-16.584,14.943-16.584a1.28,1.28,0,0,1,0,2.56c-4.35,0-12.383,5.783-12.383,14.024a17.211,17.211,0,0,0,3.418,9.74,1.28,1.28,0,0,1-1.052,2.007Z" transform="translate(-747.735 -586.148)" fill="#ac720f"/>
        </g>
        <g id="Grupo_13363" data-name="Grupo 13363" transform="translate(45.804 30.527)">
          <path id="Caminho_12574" data-name="Caminho 12574" d="M819.323,609.121a.577.577,0,0,1-.3-.082.584.584,0,0,1-.2-.8,14.4,14.4,0,0,0,2.087-7.463c0-9.167-8.332-16.9-13.565-16.9a4.968,4.968,0,0,0-.953.089.584.584,0,1,1-.225-1.146,6.132,6.132,0,0,1,1.178-.111c6.433,0,14.733,8.762,14.733,18.07a15.546,15.546,0,0,1-2.252,8.061A.583.583,0,0,1,819.323,609.121Z" transform="translate(-805.695 -582.705)" fill="#ac720f"/>
        </g>
        <g id="Grupo_13364" data-name="Grupo 13364" transform="translate(32.325)">
          <path id="Caminho_12575" data-name="Caminho 12575" d="M783.632,545.924a.585.585,0,0,1-.563-.431,13.718,13.718,0,0,1-.46-3.605c0-5.68,3.127-11.466,6.195-11.466,1.736,0,4.683,1.809,4.917,13.93a.584.584,0,0,1-.573.595h-.012a.584.584,0,0,1-.583-.573c-.182-9.426-2.056-12.784-3.75-12.784-2.2,0-5.027,4.994-5.027,10.3a12.555,12.555,0,0,0,.419,3.3.586.586,0,0,1-.564.738Z" transform="translate(-782.609 -530.421)" fill="#ac720f"/>
        </g>
      </g>
      <g id="Grupo_13366" data-name="Grupo 13366" transform="translate(47.342 142.775)">
        <path id="Caminho_12576" data-name="Caminho 12576" d="M780.469,749.49a71.06,71.06,0,0,1-12.012-.91,1.28,1.28,0,0,1,.469-2.516,79.942,79.942,0,0,0,24.4-.14,1.28,1.28,0,1,1,.405,2.528A84.254,84.254,0,0,1,780.469,749.49Z" transform="translate(-767.411 -745.908)" fill="#ac720f"/>
      </g>
    </g>
    <g id="Grupo_13376" data-name="Grupo 13376" transform="translate(463.122 491.845)">
      <g id="Grupo_13368" data-name="Grupo 13368" transform="translate(0 0)">
        <path id="Caminho_12577" data-name="Caminho 12577" d="M674.831,517.984c-24.812,0-49.157,22.939-34.644,57.583,0,0-36.721,15.921-19.194,59.456,6.349,15.771,30.367,33.2,49.49,17.557,35.889,18.436,56.8-2.752,63.83-15.215,14.522-25.749,1.379-54.307-21.561-62.733C712.751,574.631,726.328,517.984,674.831,517.984Z" transform="translate(-615.409 -517.108)" fill="#00A443"/>
        <path id="Caminho_12578" data-name="Caminho 12578" d="M696.573,660.083c-8.348,0-17.236-2.366-26.584-7.091a26.493,26.493,0,0,1-23.786,5.036c-12.623-3.239-22.948-14.174-26.623-23.3-9.205-22.865-3.376-38.126,3.134-46.9a45.9,45.9,0,0,1,15.746-13.317c-6.07-15.026-5.351-29.385,2.05-40.51,7.187-10.8,20.108-17.513,33.721-17.513,14.388,0,25.143,4.387,31.966,13.039,12.209,15.48,7.952,39.31,6.975,43.934a43.226,43.226,0,0,1,24.794,25.553c4.591,12.478,3.352,26.03-3.489,38.161-2.312,4.1-9.036,14.211-21.51,19.569A41.128,41.128,0,0,1,696.573,660.083Zm-26.69-9a.878.878,0,0,1,.4.1c15.471,7.948,29.6,9.277,41.991,3.954,11.984-5.148,18.451-14.877,20.675-18.821,6.585-11.676,7.782-24.708,3.371-36.7a41.437,41.437,0,0,0-24.471-24.785.877.877,0,0,1-.55-1.026c.065-.269,6.274-27.034-6.482-43.2-6.474-8.206-16.766-12.366-30.587-12.366-13.035,0-25.4,6.411-32.262,16.731-7.194,10.813-7.753,24.89-1.574,39.638a.876.876,0,0,1-.458,1.142,44.172,44.172,0,0,0-15.859,13.181c-9.04,12.234-10.007,27.422-2.871,45.145,3.51,8.72,13.374,19.166,25.434,22.26a24.848,24.848,0,0,0,22.689-5.055A.88.88,0,0,1,669.883,651.079Z" transform="translate(-614.808 -516.483)" fill="#7c9823"/>
      </g>
      <path id="Caminho_12579" data-name="Caminho 12579" d="M725.5,799.738s-6.159-1.589-6.452-68.338h-8.3c-.294,66.749-6.453,68.338-6.453,68.338Z" transform="translate(-652.048 -605.919)" fill="#2b594f"/>
      <g id="Grupo_13369" data-name="Grupo 13369" transform="translate(63.906 130.174)">
        <path id="Caminho_12580" data-name="Caminho 12580" d="M724.262,755.593c0,.024.154.01.278,0s.259-.019.4-.038c.282-.031.568-.064.866-.118.591-.084,1.193-.22,1.8-.343.6-.147,1.213-.3,1.819-.469.6-.194,1.217-.357,1.813-.579s1.207-.428,1.8-.678l1.776-.775,1.733-.889c.586-.294,1.122-.659,1.692-.989a33.836,33.836,0,0,0,6.275-4.916l.728-.712.366-.359.331-.386,1.338-1.558a17.644,17.644,0,0,0,1.251-1.646l1.216-1.7,1.411.66-.743,2.048a19.325,19.325,0,0,1-.812,2.044l-.94,2.007-.238.506-.276.482-.558.967-.563.973-.284.488-.318.463-1.291,1.862c-.431.627-.939,1.185-1.412,1.786l-.727.889c-.253.285-.52.558-.781.838-.532.548-1.04,1.139-1.607,1.658l-1.7,1.576-1.806,1.478c-.611.487-1.256.926-1.89,1.393s-1.313.866-1.975,1.3c-.675.415-1.366.81-2.066,1.2-.713.373-1.423.754-2.178,1.094-.367.178-.758.345-1.154.509-.194.082-.393.165-.616.245s-.406.157-.748.256Z" transform="translate(-724.262 -739.438)" fill="#2b594f"/>
      </g>
      <g id="Grupo_13370" data-name="Grupo 13370" transform="translate(33.364 131.834)">
        <path id="Caminho_12581" data-name="Caminho 12581" d="M698.252,764.445c-.342-.065-.511-.119-.727-.176s-.4-.116-.593-.176q-.58-.175-1.113-.372c-.732-.249-1.416-.542-2.111-.82-1.361-.6-2.683-1.228-3.952-1.935a45.429,45.429,0,0,1-7.106-4.812,44.854,44.854,0,0,1-5.966-5.885c-.924-1.024-1.712-2.163-2.525-3.255-.42-.534-.758-1.135-1.128-1.7l-1.08-1.715,1.694-1.314,1.434,1.294c.482.422.929.872,1.449,1.249,1.013.778,1.979,1.583,3.051,2.254a39.439,39.439,0,0,0,6.5,3.587,37.755,37.755,0,0,0,6.86,2.273c1.154.274,2.316.467,3.457.624.569.055,1.14.131,1.687.154.28.022.548.031.8.032.13,0,.265.008.371,0s.259,0,.242-.028Z" transform="translate(-671.952 -742.281)" fill="#2b594f"/>
      </g>
      <path id="Caminho_12582" data-name="Caminho 12582" d="M663.406,730.7c.611,3.721,20.93,10.984,24.774-1.366,0,0,11.736,4.657,17.324-.931,0,0,10.431,11.921,23.843,5.029C729.347,733.434,711.092,698.477,663.406,730.7Z" transform="translate(-635.032 -599.949)" fill="#00A443"/>
      <g id="Grupo_13371" data-name="Grupo 13371" transform="translate(39.807 19.53)">
        <path id="Caminho_12583" data-name="Caminho 12583" d="M684.373,573.587a.876.876,0,0,1-.818-.563,10.781,10.781,0,0,1-.568-3.748c0-7.775,5.073-19.343,19.047-19.343.876,0,1.788.047,2.71.138,19.319,1.92,20.174,17.761,20.208,19.561a.875.875,0,0,1-.859.892h-.017a.875.875,0,0,1-.875-.859c-.032-1.641-.817-16.081-18.63-17.851-.865-.086-1.718-.13-2.537-.13-12.689,0-17.3,10.52-17.3,17.592a9.22,9.22,0,0,0,.451,3.121.875.875,0,0,1-.817,1.189Z" transform="translate(-682.988 -549.933)" fill="#7c9823"/>
      </g>
      <g id="Grupo_13372" data-name="Grupo 13372" transform="translate(84.634 75.38)">
        <path id="Caminho_12584" data-name="Caminho 12584" d="M766.269,690.04a.876.876,0,0,1-.039-1.751c5.914-.266,13.251-9,14.021-16.7.142-1.426.215-2.813.215-4.123,0-18.678-14.47-20.129-18.9-20.129-.525,0-.833.022-.852.024a.876.876,0,0,1-.139-1.746c.015,0,.377-.03.991-.03,3.449,0,20.656,1.054,20.656,21.881,0,1.368-.075,2.814-.224,4.3-.874,8.74-8.789,17.961-15.685,18.271Z" transform="translate(-759.764 -645.59)" fill="#7c9823"/>
      </g>
      <g id="Grupo_13373" data-name="Grupo 13373" transform="translate(18.595 73.627)">
        <path id="Caminho_12585" data-name="Caminho 12585" d="M665.768,691.013a2.275,2.275,0,0,1-.589-.078c-4.727-1.252-15.949-5.7-18.061-19.925a40.869,40.869,0,0,1-.462-5.969c0-16.475,11.565-22.455,19.339-22.455a10.888,10.888,0,0,1,4.614.9,2.292,2.292,0,0,1-1.968,4.14,6.573,6.573,0,0,0-2.645-.46c-5.1,0-14.755,3.735-14.755,17.871a36.31,36.31,0,0,0,.413,5.3c1.65,11.114,9.919,14.9,14.7,16.168a2.292,2.292,0,0,1-.586,4.508Z" transform="translate(-646.657 -642.587)" fill="#988c30"/>
      </g>
      <g id="Grupo_13374" data-name="Grupo 13374" transform="translate(26.082 126.164)">
        <path id="Caminho_12586" data-name="Caminho 12586" d="M675.454,744.862c-6.508,0-14.06-2.962-15.732-6.306a2.292,2.292,0,0,1,4.095-2.06c.719,1.172,6.98,4.3,13.083,3.716,3.828-.361,6.35-2.115,7.5-5.214a2.291,2.291,0,0,1,2.995-1.335c2.879,1.134,11.165,3.271,14.858-.422a2.293,2.293,0,0,1,3.345.112c.377.426,9.454,10.47,21.071,4.5a2.292,2.292,0,0,1,2.1,4.078c-10.583,5.439-20.263.407-25.083-4-5.137,3.244-12.412,1.725-15.931.683-2.174,3.755-6.069,5.941-11.188,6.22C676.2,744.852,675.826,744.862,675.454,744.862Z" transform="translate(-659.479 -732.569)" fill="#7c9823"/>
      </g>
      <g id="Grupo_13375" data-name="Grupo 13375" transform="translate(32.956 192.944)">
        <path id="Caminho_12587" data-name="Caminho 12587" d="M729.186,848.7H672.13a.876.876,0,0,1,0-1.752h57.057a.876.876,0,0,1,0,1.752Z" transform="translate(-671.254 -846.945)" fill="#856b1d"/>
      </g>
    </g>
    <g id="Grupo_13413" data-name="Grupo 13413" transform="translate(250.301 457.276)">
      <g id="Grupo_13391" data-name="Grupo 13391" transform="translate(0 11.894)">
        <g id="Grupo_13377" data-name="Grupo 13377">
          <path id="Caminho_12588" data-name="Caminho 12588" d="M310.847,634.73s-38.771,17.213-53.839-16.864c-14.394-32.55,9.523-52.313,20.318-51.281,0,0-17.979-10.784-8.975-32.352,8.182-19.6,28.405-13.767,28.405-13.767-6.905-6.539-6.247-41.472,19.37-40.612,23.966.805,22.817,35.449,19.132,40.114,0,0,16.975-2.854,24.174,17.477,7.392,20.879-8.818,31.549-8.818,31.549s29.706,8.948,18.876,44.053C357.348,652.406,310.847,634.73,310.847,634.73Z" transform="translate(-251.225 -478.559)" fill="#00A443"/>
          <path id="Caminho_12589" data-name="Caminho 12589" d="M288.545,639.464a39.6,39.6,0,0,1-14.281-2.5c-8.587-3.314-15.1-9.872-19.351-19.492-9.174-20.746-2.615-34.836,2.112-41.389,4.763-6.6,11-10.393,15.948-11.431-4.861-4.269-13.769-14.956-6.727-31.823,6.54-15.663,20.544-15.866,26.807-15.083-2.8-5.783-3.3-16.832.478-25.883,3.968-9.495,11.674-14.541,21.714-14.2,8.543.287,15.065,4.766,18.863,12.953,4.348,9.373,4.063,21.59,2.285,27.043,5.1.013,17.447,1.851,23.322,18.446,6.075,17.157-3.3,27.853-7.477,31.57a33.64,33.64,0,0,1,16.336,14.659c4.423,8.3,4.832,18.456,1.217,30.177-3.3,10.7-9.4,18.289-18.134,22.552-16.973,8.285-38.129,1.4-41.7.13A59.758,59.758,0,0,1,288.545,639.464Zm-12.958-72.549c-4.387,0-11.383,3.591-16.486,10.666-4.406,6.108-10.5,19.278-1.847,38.855,3.969,8.976,10,15.078,17.932,18.139,15.8,6.1,34.036-1.846,34.218-1.927a1.282,1.282,0,0,1,.974-.026c.228.086,22.971,8.539,40.166.137,8.064-3.94,13.715-11.006,16.8-21,3.4-11.031,3.062-20.515-1.014-28.189-5.693-10.718-16.9-14.227-17.009-14.261a1.281,1.281,0,0,1-.333-2.295c.625-.415,15.271-10.406,8.315-30.052-6.735-19.026-22.108-16.748-22.758-16.642a1.281,1.281,0,0,1-1.213-2.056c1.969-2.493,3.183-16.375-1.545-26.568-3.412-7.357-9.007-11.216-16.627-11.472-11.4-.385-16.769,6.656-19.266,12.628-4.271,10.22-2.448,22.681.819,25.775a1.28,1.28,0,0,1-1.234,2.159c-.781-.223-19.235-5.255-26.869,13.03-8.457,20.255,7.759,30.342,8.454,30.762a1.28,1.28,0,0,1-.782,2.371Q275.946,566.915,275.587,566.915Z" transform="translate(-250.301 -477.647)" fill="#7c9823"/>
        </g>
        <g id="Grupo_13379" data-name="Grupo 13379" transform="translate(40.236 150.664)">
          <g id="Grupo_13378" data-name="Grupo 13378" clip-path="url(#clip-path-2)">
            <path id="Caminho_12590" data-name="Caminho 12590" d="M362.882,791.564s-7.694-1.179-5.848-72.137H342.112c1.844,70.958-5.85,72.137-5.85,72.137Z" transform="translate(-326.308 -728.926)" fill="#2b594f"/>
          </g>
        </g>
        <g id="Grupo_13382" data-name="Grupo 13382" transform="translate(55.991 155.235)">
          <g id="Grupo_13380" data-name="Grupo 13380">
            <path id="Caminho_12592" data-name="Caminho 12592" d="M347.478,800.463a1.281,1.281,0,0,1-1.067-1.986c2.081-3.153,3.324-20.829,3.324-47.281,0-2.39-.01-4.552-.025-6.382a1.28,1.28,0,0,1,1.27-1.29h.011a1.281,1.281,0,0,1,1.28,1.271c.014,1.836.025,4,.025,6.4,0,19.623-.65,44-3.748,48.692A1.28,1.28,0,0,1,347.478,800.463Z" transform="translate(-346.199 -743.524)" fill="#1e494b"/>
          </g>
          <g id="Grupo_13381" data-name="Grupo 13381" transform="translate(8.295)">
            <path id="Caminho_12593" data-name="Caminho 12593" d="M365.227,800.463a1.278,1.278,0,0,1-1.07-.575c-3.1-4.7-3.752-29.194-3.752-48.916,0-2.309.009-4.4.022-6.177a1.28,1.28,0,0,1,1.28-1.271h.01a1.28,1.28,0,0,1,1.27,1.29c-.013,1.773-.022,3.857-.022,6.159,0,26.985,1.213,44.3,3.329,47.505a1.28,1.28,0,0,1-1.067,1.986Z" transform="translate(-360.405 -743.524)" fill="#1e494b"/>
          </g>
        </g>
        <g id="Grupo_13383" data-name="Grupo 13383" transform="translate(28.203 212.023)">
          <path id="Caminho_12594" data-name="Caminho 12594" d="M364.377,843.347H299.886a1.28,1.28,0,1,1,0-2.56h64.491a1.28,1.28,0,1,1,0,2.56Z" transform="translate(-298.606 -840.787)" fill="#856b1d"/>
        </g>
        <g id="Grupo_13389" data-name="Grupo 13389" transform="translate(25.216 17.915)">
          <g id="Grupo_13384" data-name="Grupo 13384" transform="translate(0 81.931)">
            <path id="Caminho_12595" data-name="Caminho 12595" d="M313.629,690.747a1.281,1.281,0,0,1-.4-2.5,6.722,6.722,0,0,0,.683-.264,1.28,1.28,0,1,1,1.057,2.332,9.361,9.361,0,0,1-.945.367A1.277,1.277,0,0,1,313.629,690.747Zm-10.518-2.412a1.273,1.273,0,0,1-.762-.252,20.042,20.042,0,0,1-4.188-4.242,1.28,1.28,0,1,1,2.063-1.516,17.468,17.468,0,0,0,3.65,3.7,1.28,1.28,0,0,1-.764,2.308ZM295.1,674.058a1.281,1.281,0,0,1-1.266-1.1c-.024-.171-.047-.342-.068-.514a36.106,36.106,0,0,1-.277-4.368c0-14.146,9.372-19.418,15.28-19.418a9.244,9.244,0,0,1,3.848.785,1.28,1.28,0,1,1-1.074,2.324,6.687,6.687,0,0,0-2.775-.548c-5.113,0-12.721,4.489-12.721,16.858a33.457,33.457,0,0,0,.259,4.055c.019.156.04.312.062.467a1.281,1.281,0,0,1-1.088,1.447A1.353,1.353,0,0,1,295.1,674.058Z" transform="translate(-293.489 -648.657)" fill="#7c9823"/>
          </g>
          <g id="Grupo_13385" data-name="Grupo 13385" transform="translate(40.319 82.497)">
            <path id="Caminho_12596" data-name="Caminho 12596" d="M380.089,694.083c-1.022,0-2.075-.052-3.13-.155a1.28,1.28,0,1,1,.248-2.548c.973.095,1.943.142,2.883.142a21.677,21.677,0,0,0,7.593-1.25,1.28,1.28,0,0,1,.9,2.4A24.23,24.23,0,0,1,380.089,694.083Zm-8.512-1.149a1.285,1.285,0,0,1-.333-.044c-3.926-1.056-7.067-2.64-8.4-4.236a1.28,1.28,0,1,1,1.964-1.642c.8.96,3.31,2.386,7.1,3.406a1.28,1.28,0,0,1-.331,2.516Zm24.722-7.426a1.28,1.28,0,0,1-1.146-1.849,17.511,17.511,0,0,0,1.535-4.962,1.28,1.28,0,0,1,2.527.411,20.068,20.068,0,0,1-1.768,5.687A1.28,1.28,0,0,1,396.3,685.509Zm1.831-16.485a1.28,1.28,0,0,1-1.266-1.105c-1.962-14.2-13.1-15.732-17.794-15.732a15.464,15.464,0,0,0-4.972.708,1.28,1.28,0,0,1-.894-2.4,17.789,17.789,0,0,1,5.866-.869c4.187,0,18.03,1.293,20.331,17.941a1.281,1.281,0,0,1-1.093,1.444A1.3,1.3,0,0,1,398.13,669.024Z" transform="translate(-362.544 -649.627)" fill="#988c30"/>
          </g>
          <g id="Grupo_13386" data-name="Grupo 13386" transform="translate(12.263 35.102)">
            <path id="Caminho_12597" data-name="Caminho 12597" d="M318.7,596.943a1.28,1.28,0,0,1-1.1-.628,20.389,20.389,0,0,1-3.1-10.418c0-10.822,9.9-17.445,15.285-17.445a1.28,1.28,0,1,1,0,2.56c-4.469,0-12.725,6.138-12.725,14.884a17.875,17.875,0,0,0,2.744,9.113,1.281,1.281,0,0,1-1.1,1.933Z" transform="translate(-314.492 -568.452)" fill="#7c9823"/>
          </g>
          <g id="Grupo_13387" data-name="Grupo 13387" transform="translate(46.237 32.243)">
            <path id="Caminho_12598" data-name="Caminho 12598" d="M388.033,591.44a1.282,1.282,0,0,1-1.159-1.822,14.819,14.819,0,0,0,1.4-6.313c0-9.323-8.122-17.189-13.223-17.189a4.23,4.23,0,0,0-.838.081,1.28,1.28,0,0,1-.509-2.509,6.786,6.786,0,0,1,1.347-.131c6.891,0,15.783,9.577,15.783,19.75a17.357,17.357,0,0,1-1.643,7.4A1.28,1.28,0,0,1,388.033,591.44Z" transform="translate(-372.681 -563.555)" fill="#7c9823"/>
          </g>
          <g id="Grupo_13388" data-name="Grupo 13388" transform="translate(32.421)">
            <path id="Caminho_12599" data-name="Caminho 12599" d="M350.746,526.032a1.281,1.281,0,0,1-1.237-.953,15.56,15.56,0,0,1-.493-3.974c0-5.908,3.071-12.774,7.031-12.774,3.606,0,5.531,5.169,5.721,15.364a1.28,1.28,0,1,1-2.559.048c-.191-10.166-2.152-12.852-3.162-12.852-1.684,0-4.472,4.774-4.472,10.215a12.979,12.979,0,0,0,.409,3.319,1.281,1.281,0,0,1-.91,1.565A1.3,1.3,0,0,1,350.746,526.032Z" transform="translate(-349.017 -508.331)" fill="#7c9823"/>
          </g>
        </g>
        <g id="Grupo_13390" data-name="Grupo 13390" transform="translate(49.255 151.539)">
          <path id="Caminho_12600" data-name="Caminho 12600" d="M348.013,740.835a70.8,70.8,0,0,1-12.314-.962,1.28,1.28,0,0,1,.483-2.514,79.517,79.517,0,0,0,25.006-.147,1.28,1.28,0,0,1,.417,2.526A83.839,83.839,0,0,1,348.013,740.835Z" transform="translate(-334.661 -737.194)" fill="#7c9823"/>
        </g>
      </g>
      <g id="Grupo_13392" data-name="Grupo 13392" transform="translate(20.044 97.17)">
        <path id="Caminho_12601" data-name="Caminho 12601" d="M330.5,635.073s17.739.473,28.855-3.784,21.523-7.332,35.714-7.569,39.025,2.129,43.755,2.129,33.348,1.419,53.452-1.183,25.07,2.6,29.091,6.386,2.838,24.124,2.129,31.457-3.784,25.543-2.838,32.639,3.075,16.556,4.73,18.448,4.967,2.6,3.548,10.88-2.838,17.739-3.311,21.05a85.717,85.717,0,0,0-.236,10.407s.709,1.655-1.419,3.311a5.016,5.016,0,0,0-1.655,4.493s-2.129,4.258-9.461,2.6,1.419-4.966,3.785-15.846-3.075-26.963-4.73-29.8-3.548,32.166-3.548,32.166a11.8,11.8,0,0,1-2.365,5.44c-1.93,2.573-1.527,3.59-1.435,4.639.01.109.016.217.016.328,0,1.183-10.6,5-10.2.606.046-.5,3.328-1.875,4.287-20.473,1.193-23.152-1.182-27.672-2.365-22.232s-4.493,4.967-5.2,1.656.237-4.494.237-4.494l-3.548-.237s-.946,7.1-4.02,7.332-1.183-8.042-3.311-8.278-11.59,0-16.083-7.805-10.643-5.676-14.664-5.2-26.962,3.075-35,1.892-14.664-3.548-17.265,3.784.236,18.212,2.365,26.726a100.337,100.337,0,0,1,2.6,13.718s-1.182,2.6-2.128,3.075,2.55,11.049-1.486,12.136c-4.708,1.268-10.813,3.237-10.34-2.439s4.494-3.784-.473-20.813-3.784-12.3-3.784-12.3-3.059,8.262-.473,25.307c.64,4.22-1.419,1.419-2.365,4.494s1.165,3.534-.71,5.913c-.965,1.224-10.866,1.675-11.1-.927s3.771-4.986,4.007-11.608S370,718.562,369.76,716.2a14.339,14.339,0,0,0-7.1-9.7c-4.494-2.365-13.954-15.374-15.137-17.265S336.885,677.172,330.5,676.7s-9.46-.236-12.3.946-9.934.71-12.062-.473-8.041,0-9.7,0-6.386-1.655-10.643-6.859,4.021-6.859,10.643-17.029,9.224-10.88,11.589-14.664,1.656-4.02-1.655-4.966-9.461,0-10.643-5.913a8.378,8.378,0,0,1-.374-2.394c.3-.665,2.384,2.958,11.963,2.427,12.772-.709,13.481,5.644,16.083,6.591S330.5,635.073,330.5,635.073Z" transform="translate(-284.632 -623.704)" fill="#ddd9d3"/>
        <path id="Caminho_12602" data-name="Caminho 12602" d="M461.406,861.4l11.811,1.341.126,3.439H459.819Z" transform="translate(-357.534 -722.617)" fill="#777776"/>
        <path id="Caminho_12604" data-name="Caminho 12604" d="M670.286,860.9l11.41,1.544v3.117H667.637Z" transform="translate(-444.016 -722.41)" fill="#777776"/>
        <path id="Caminho_12605" data-name="Caminho 12605" d="M689.875,636.859s4.868,4.191,7.126,19.363-.9,20.1,3.115,30.758-3.448,21.634-3.448,21.634-5.01-8.742-4.155-13.573,2.424-6.638,2.246-14.8,1.85-17.528.308-25.236c-1.81-9.049-2.112-10.293-4.908-13.367S689.875,636.859,689.875,636.859Z" transform="translate(-452.838 -629.178)" fill="#ddd9d3"/>
        <path id="Caminho_12606" data-name="Caminho 12606" d="M405.628,706.843s1.75-4.827,9.353-3.862,6.517,1.689,12.008-.906,6.094-4.163,10.68-.965,6.638,5.43,7.12,6.939,2.1,4.583-2.474,7.9c-3.053,2.216-4.1,2.052-5.612,4.043s-5.129,7.422-6.275,8.086-3.922,3.5-12.129-.543S402.128,714.99,405.628,706.843Z" transform="translate(-334.631 -655.171)"/>
        <path id="Caminho_12607" data-name="Caminho 12607" d="M587.094,659.163s8.416,5.531,2.645,11.943-7.935,6.653-6.653,11.543,8.337,6.413,12.906,5.45,14.428-6.893,16.993-8.336,6.974-2.805,14.99-2,10.9-4.168,11.3-6.012-1.363-4.088-4.97-5.691-4.809-4.569-4.809-7.775-4.409-8.176-10.5-6.493-7.775,2-12.825-2.485-14.028-7.615-18.918-3.367S580.521,653.391,587.094,659.163Z" transform="translate(-408.682 -632.118)"/>
        <path id="Caminho_12608" data-name="Caminho 12608" d="M302.841,625.58s-.229,5.947,3.917,7.364,7,.963,9.343,2.21-1.489,5.5-1.489,5.5a25.1,25.1,0,0,1,19.078-4.97,6.155,6.155,0,0,1-4.856-2.567c-4.323-5.4-11.455-5.142-14.821-4.928C311.365,628.358,306.735,629.039,302.841,625.58Z" transform="translate(-292.208 -624.484)" fill="#927e61"/>
        <path id="Caminho_12609" data-name="Caminho 12609" d="M321.764,685.805s-5.55-3.7-1.647-8.31c4.872-5.758,1.071-9.463,5.292-11.722,4.916-2.631,6.376-5.979,6.534-8.382.473-7.214,6.492-7.908,7.32-8.026s2.968-3.09,2.732-4.746,3.874-1.426,3.874-1.426,3.861,4.3-1.21,11.934c-3.38,5.085-3.729,5.931-3.61,14.682s8.167,14.653,11.36,18.556l-3.043-1.954s-9.714-3.411-15.634-1.059C326.147,688.364,321.764,685.805,321.764,685.805Z" transform="translate(-298.82 -631.81)"/>
        <path id="Caminho_12610" data-name="Caminho 12610" d="M293.75,700.794s-3.4-2.225-3.43-5.085c-.023-2.312,1.892-2.365,2.838-2.128s.591,1.353.591,3.515S295.643,700.2,293.75,700.794Z" transform="translate(-286.999 -652.743)" fill="#de9f9f"/>
        <path id="Caminho_12611" data-name="Caminho 12611" d="M326.97,627.935a9.621,9.621,0,0,0,5.854,9.487c6.563,2.93,7.361.447,9.135,2.664s-.267,3.5,1.354,5.527c1.4,1.747,5.209,1.214,5.83-1.8s-.864-5.5-1.951-7.1c-1.394-2.045-4.258-3.9-9.224-3.9C332.909,632.813,329.9,632.369,326.97,627.935Z" transform="translate(-302.241 -625.464)" fill="#a08c69"/>
        <path id="Caminho_12612" data-name="Caminho 12612" d="M321.371,671.531a1.755,1.755,0,1,1-1.755-1.755A1.755,1.755,0,0,1,321.371,671.531Z" transform="translate(-298.46 -642.876)"/>
        <path id="Caminho_12613" data-name="Caminho 12613" d="M320.4,672.323a.974.974,0,1,1-1.206-.667A.974.974,0,0,1,320.4,672.323Z" transform="translate(-298.72 -643.643)" fill="#ddd9d3"/>
        <path id="Caminho_12614" data-name="Caminho 12614" d="M400.517,747.065s7.8,7.836,14.657,10.674,11.234,3.311,12.771,7.45,4.467,16.061,4.467,16.061a58.572,58.572,0,0,0-1.487,12.013c.174,5.837.878,12.023.878,12.023s1.463,4.472-1.126,4.206c-1.261-.13-1.549,4.072-1.04,5.147.458.967-.6,2.567-.6,2.567l-11.274-1.169s-.885-.63,1.4-3.566,2.739-7.406,2.592-10.029-3.576-33.312-3.576-33.312-.464-7.387-6.641-10.926S400.517,747.065,400.517,747.065Z" transform="translate(-332.856 -675.039)" fill="#bfb8b0"/>
        <path id="Caminho_12615" data-name="Caminho 12615" d="M429.7,862.287l-.854,3.479,12.143-.041.435-2.66-11.26-1.667S429.944,861.882,429.7,862.287Z" transform="translate(-344.647 -722.617)" fill="#777776"/>
        <path id="Caminho_12616" data-name="Caminho 12616" d="M536.041,757.038s7.464-4.35,27.8-6.006,20.9-5.156,30.12-4.21,14.472,1.659,14.472,1.659,1.557,9.756,8.088,23.377c0,0-1.25.955-2.051,11.024s-1.444,20.2-1.444,20.2-.06,1.846-2,5.8-1.388,4.821-1.834,5.552-9.522-.779-9.522-.779,2.39-2.145,3.068-12.086,1.076-23.023.29-28.6c0,0-.539-4.277-1.7-2.03s-.788,5.189-3.4,5.521-2.884-5.193-2.3-6.984-3.231-.215-3.231-.215-.792,7.72-4.285,7.33-.155-8.413-3.775-8.334-11.6-.866-15.354-7.747c-3.952-7.247-10.657-5.769-12.151-5.575S543.095,756.654,536.041,757.038Z" transform="translate(-389.253 -674.872)" fill="#bfb8b0"/>
        <path id="Caminho_12617" data-name="Caminho 12617" d="M698.166,729.18c6.068-3.173,4.657-8.326,4.657-8.326a19.166,19.166,0,0,1,1.576,9.52c-.482,5.469-3.168,11.421-4.634,13.194C699.764,743.568,693.127,731.815,698.166,729.18Z" transform="translate(-455.934 -664.132)" fill="#c4c4c4"/>
        <path id="Caminho_12618" data-name="Caminho 12618" d="M449.594,784.625s7.17-1.357,9.3,6.8-1.419,5.913,0,12.417a22.979,22.979,0,0,1-.588,11.85Z" transform="translate(-353.279 -690.634)"/>
        <path id="Caminho_12619" data-name="Caminho 12619" d="M385.227,634.581s-1.9,8.462,8.628,12.009,15.255-4.257,20.577,2.129,7.214,3.652,8.514,9.04,11.234,5.255,12.062,0,4.967-7.384,9.815-7.384,6.268-2.129,9.579-6.859,3.43-6.977,9.342-7.214,12.535-.355,18.212-4.612,2.831-5.674,8.983-5.57-8.867.283-28.5-1.39-32.129-.743-34.859-.385a127.465,127.465,0,0,0-17.983,3.971C403.67,630.271,396.968,634.049,385.227,634.581Z" transform="translate(-326.438 -623.728)"/>
        <path id="Caminho_12620" data-name="Caminho 12620" d="M519.955,754.511s6.208-3.757,4.611-9.344,3.814-6.829,6.741-4.612,5.5,4.789,11.53,4.967c0,0,13.126-.709,12.949,2.217s-5.107,4.15-5.645,4.218-14.06,1.675-19.906,2.054S519.955,754.511,519.955,754.511Z" transform="translate(-382.559 -671.898)"/>
        <path id="Caminho_12621" data-name="Caminho 12621" d="M688.759,758.349s-4.316.686-2.72,6.717,2.661,2.306,4.258,5.41a3.7,3.7,0,0,0,4.692,1.858s-.814-.9-2.709-2.708S688.759,758.349,688.759,758.349Z" transform="translate(-451.526 -679.735)"/>
      </g>
      <g id="Grupo_13393" data-name="Grupo 13393" transform="translate(195.264 233.242)">
        <path id="Caminho_12622" data-name="Caminho 12622" d="M601.475,900.194s-2.326-18.359-13.819-29.755a68.106,68.106,0,0,1,27.913,14.877s8.21-16.144,19.156-25.64c0,0-3.284,17.726,2.737,26.59,0,0,11.493-15.194,26.271-17.727,0,0-7.115,6.964-6.568,17.094a28.67,28.67,0,0,1,15.325-5.7s-13.136,6.964-15.872,20.259Z" transform="translate(-585.952 -857.973)" fill="#00A443"/>
        <path id="Caminho_12623" data-name="Caminho 12623" d="M655.4,900.683a1.706,1.706,0,0,1-1.67-2.048c1.536-7.463,6.075-12.994,10.042-16.566a24.929,24.929,0,0,0-6.73,3.653,1.7,1.7,0,0,1-2.8-1.212,24.5,24.5,0,0,1,3.859-14.237c-11.674,4.28-20.4,15.677-20.5,15.806a1.669,1.669,0,0,1-1.4.675,1.7,1.7,0,0,1-1.366-.746c-4.368-6.431-4.209-16.867-3.641-22.982-8.838,9.21-15.252,21.707-15.323,21.847a1.7,1.7,0,0,1-2.652.5,67.869,67.869,0,0,0-21.648-12.8c8.407,11.349,10.293,25.512,10.379,26.191a1.7,1.7,0,0,1-3.38.429c-.023-.178-2.4-17.927-13.329-28.76a1.7,1.7,0,0,1,1.556-2.875,69.091,69.091,0,0,1,27.057,13.864c2.548-4.614,9.587-16.482,18.538-24.248a1.7,1.7,0,0,1,2.791,1.6c-.029.157-2.627,14.616,1.329,23.275,3.751-4.322,13.57-14.319,25.716-16.4a1.7,1.7,0,0,1,1.48,2.9,23.281,23.281,0,0,0-5.96,12.61,31.069,31.069,0,0,1,13.41-4.131,1.7,1.7,0,0,1,.914,3.2c-.123.065-12.465,6.774-15,19.1A1.7,1.7,0,0,1,655.4,900.683Z" transform="translate(-584.738 -856.758)" fill="#7c9823"/>
      </g>
      <g id="Grupo_13394" data-name="Grupo 13394" transform="translate(237.158 244.656)">
        <path id="Caminho_12624" data-name="Caminho 12624" d="M673.229,908.337s-2.326-13.191-13.819-21.379a81.162,81.162,0,0,1,27.912,10.689s8.21-11.6,19.156-18.422c0,0-3.284,12.736,2.737,19.1,0,0,11.493-10.916,26.271-12.736,0,0-7.115,5-6.568,12.281a35.36,35.36,0,0,1,15.325-4.093s-13.135,5-15.872,14.556Z" transform="translate(-657.706 -877.522)" fill="#00A443"/>
        <path id="Caminho_12625" data-name="Caminho 12625" d="M727.157,908.827a1.7,1.7,0,0,1-1.638-2.173c1.3-4.525,4.631-8.068,8-10.633a26.413,26.413,0,0,0-4.934,2.1,1.7,1.7,0,0,1-2.58-1.331,14.287,14.287,0,0,1,3.106-9.627,53.92,53.92,0,0,0-19.938,11.19,1.67,1.67,0,0,1-1.219.467,1.7,1.7,0,0,1-1.191-.532c-4.382-4.635-4.393-12.008-3.865-16.595a80.181,80.181,0,0,0-15.4,15.726,1.7,1.7,0,0,1-2.309.45,77.225,77.225,0,0,0-20.84-8.981,38.614,38.614,0,0,1,9.343,17.941,1.7,1.7,0,0,1-3.355.594c-.03-.166-2.391-12.639-13.13-20.289a1.7,1.7,0,0,1,1.247-3.071,82.61,82.61,0,0,1,27.223,10.1c2.5-3.27,9.625-11.944,18.686-17.592a1.7,1.7,0,0,1,2.551,1.871c-.028.109-2.564,10.277,1.309,16.215,3.562-2.99,13.522-10.446,25.841-11.963a1.7,1.7,0,0,1,1.188,3.084c-.051.036-4.562,3.292-5.643,8.067a39.6,39.6,0,0,1,13.337-2.974,1.7,1.7,0,0,1,.69,3.293c-.123.047-12.375,4.826-14.841,13.433A1.7,1.7,0,0,1,727.157,908.827Z" transform="translate(-656.492 -876.308)" fill="#7c9823"/>
      </g>
      <g id="Grupo_13395" data-name="Grupo 13395" transform="translate(174.675 274.595)">
        <path id="Caminho_12626" data-name="Caminho 12626" d="M672.4,929.338H658.394a.876.876,0,0,1,0-1.752H672.4a.876.876,0,1,1,0,1.752Zm-33.653,0h-9.822a.876.876,0,0,1,0-1.752h9.822a.876.876,0,0,1,0,1.752Zm-29.466,0H550.35a.876.876,0,0,1,0-1.752h58.933a.876.876,0,0,1,0,1.752Z" transform="translate(-549.474 -927.586)" fill="#7c9823"/>
      </g>
      <g id="Grupo_13411" data-name="Grupo 13411" transform="translate(125.137)">
        <path id="Caminho_12627" data-name="Caminho 12627" d="M597.128,586.041c-19.641,41.605-42.434,62.367-81.7,73.295l-3.911-5.159s32.672-13.414,50.025-56.082c11.772-28.944,31.14-34.905,43.181-33.17C611.834,565.95,605.26,568.815,597.128,586.041Z" transform="translate(-484.141 -501.959)" fill="#f09876"/>
        <path id="Caminho_12628" data-name="Caminho 12628" d="M593.435,611.948s12.121-.573,21.813,10.966c0,0,13.3-37.848.139-37.164S593.435,611.948,593.435,611.948Z" transform="translate(-518.23 -510.736)" fill="#2d2a0c"/>
        <path id="Caminho_12629" data-name="Caminho 12629" d="M626.259,502.5s-9.983,6.708-32.8-2.675C576.864,493,576.6,490.51,576.6,490.51S552,480.7,559.028,457.276C559.028,457.276,572.077,474.325,626.259,502.5Z" transform="translate(-503.387 -457.276)" fill="#7f4413"/>
        <g id="Grupo_13397" data-name="Grupo 13397" transform="translate(11.007 151.075)">
          <path id="Caminho_12630" data-name="Caminho 12630" d="M494.4,717.468c-3,.612-11.023,4.378-10.149,5.717.965,1.477,5.672-2.649,6.294-1.951.825.926-7.831,3.421-7.007,5.15.781,1.637,7.241-3.27,7.8-2.045.652,1.444-7.431,1.889-6.443,3.685.788,1.432,7.9-1.606,8.444-.674s-4.976,1.889-4.387,3.216c.484,1.091,5.431-.845,8.677-2.754,3.675-2.162,5.873-4.893,7.163-5.951,1.727-1.416.9-3.368-1.034-4.068A26.811,26.811,0,0,0,494.4,717.468Z" transform="translate(-483.481 -716.512)" fill="#f09876"/>
          <path id="Caminho_12631" data-name="Caminho 12631" d="M502.035,717.172s-4.817-2.145-7.925-.558c-4.068,2.076-5.373,1.045-5.38,1.874-.013,1.483,3.144,1.369,5.15,1.035,2.707-.452,4.26,3.137,7.751,1.381C504.036,719.694,502.035,717.172,502.035,717.172Z" transform="translate(-485.665 -716.029)" fill="#f09876"/>
          <g id="Grupo_13396" data-name="Grupo 13396" transform="translate(4.413 3.423)">
            <path id="Caminho_12632" data-name="Caminho 12632" d="M500.713,723.861a5.782,5.782,0,0,1-2.847-.993,4.524,4.524,0,0,0-3.02-.876,12.372,12.372,0,0,1-3.781.1.031.031,0,0,1-.025-.036.032.032,0,0,1,.036-.024,12.343,12.343,0,0,0,3.76-.1,4.571,4.571,0,0,1,3.06.883,4.7,4.7,0,0,0,3.827.84.03.03,0,1,1,.017.058A3.719,3.719,0,0,1,500.713,723.861Z" transform="translate(-491.04 -721.891)" fill="#f09876"/>
          </g>
        </g>
        <g id="Grupo_13400" data-name="Grupo 13400" transform="translate(31.872 158.23)">
          <path id="Caminho_12633" data-name="Caminho 12633" d="M562.036,980.414l-24.143-2.952.389-1.062a2.024,2.024,0,0,1,1.713-1.313c13.2-1.264,14.312-10.391,14.312-10.391l6.459,1.743C563.5,974.756,562.036,980.414,562.036,980.414Z" transform="translate(-526.989 -826.664)" fill="#002d3c"/>
          <g id="Grupo_13399" data-name="Grupo 13399">
            <path id="Caminho_12634" data-name="Caminho 12634" d="M549.586,788.412a93.863,93.863,0,0,1,6.421,12.293c3.17,20.58-1.4,49.592-1.505,68.9l-10.519.245s-11.907-38.132-23.812-85.2c-2.187-8.646-.739-15.524,5.68-20.526,10.693-8.332,43.791-27.436,81.485-35.84,2.228,3.664,31.823,2.02,39.092,10.438C648.841,780.982,549.586,788.412,549.586,788.412Z" transform="translate(-519.218 -728.283)" fill="#245f9d"/>
            <g id="Grupo_13398" data-name="Grupo 13398" clip-path="url(#clip-path-3)">
              <path id="Caminho_12635" data-name="Caminho 12635" d="M658,780.77l-6.515-37.405s-12.427,11.607-20.067,46.253A72.119,72.119,0,0,0,658,780.77Z" transform="translate(-565.908 -734.559)" fill="#144272"/>
            </g>
          </g>
        </g>
        <g id="Grupo_13401" data-name="Grupo 13401" transform="translate(104.831 140.535)">
          <path id="Caminho_12637" data-name="Caminho 12637" d="M784.1,964.962l-18.19,12.426-.455-.848a1.5,1.5,0,0,1,.264-1.77c8-8.471,2.6-14.449,2.6-14.449l5.508-2.768C781.269,960.8,784.1,964.962,784.1,964.962Z" transform="translate(-694.572 -805.996)" fill="#002d3c"/>
          <path id="Caminho_12638" data-name="Caminho 12638" d="M674.414,792.267s8.1,1.238,13.227,3.925c10.24,9.874,23.363,38.561,36.924,53.411l-5.452,5.582s-32.767-26.148-69.028-51.55c-4.361-3.055-5.927-8.5-5.908-11.939.1-18.186,4.8-63.046,16.252-76.092,3.956.862,28.35-18.338,38.9-17.608C728.5,727.241,674.414,792.267,674.414,792.267Z" transform="translate(-644.178 -697.976)" fill="#245f9d"/>
        </g>
        <g id="Grupo_13403" data-name="Grupo 13403" transform="translate(80.78 53.562)">
          <path id="Caminho_12639" data-name="Caminho 12639" d="M690.34,652.635c-10.243,9.252-38.619,11.433-51.347,11.469a14.837,14.837,0,0,1-9.732-3.354c-8.36-7.146-10.532-19.76-10.152-36.073.109-4.684-1.038-6.617-4.433-11.321-6.36-8.812-7.92-11.689-10.372-21.861-1.075-4.46-5.084-22.891,9.506-36.909,9.207-8.847,27.036-5.651,34.456-.778C677.347,572.9,687.568,628.7,690.34,652.635Z" transform="translate(-602.984 -549.013)" fill="#2d2a0c"/>
          <g id="Grupo_13402" data-name="Grupo 13402" clip-path="url(#clip-path-4)">
            <path id="Caminho_12640" data-name="Caminho 12640" d="M634.016,547.422a10.472,10.472,0,0,0-4.528,4.042,13.167,13.167,0,0,1-4.8,5.454c-.778.559-3.757,1.886-5.411,1.59-1.944-.347-2.883-3.2-2.883-3.2a85.809,85.809,0,0,1,6.831-5.787C626.094,547.489,634.016,547.422,634.016,547.422Z" transform="translate(-608.565 -548.351)" fill="#2d2a0c"/>
            <path id="Caminho_12641" data-name="Caminho 12641" d="M647.189,577.375c-4.752-5.476-20.872-6.826-28.739,7.924-3.539,6.636-6.568,12.585-12.173,19.591,1.489,7.582,12.59,39.314,12.8,40.093C624.227,634.9,665.068,597.977,647.189,577.375Z" transform="translate(-604.354 -559.222)" fill="#23200a"/>
          </g>
        </g>
        <g id="Grupo_13404" data-name="Grupo 13404" transform="translate(66.302 11.841)">
          <path id="Caminho_12643" data-name="Caminho 12643" d="M622.51,542.373c1.439,1.686-7.742,9.146-8.792,7.717L603.6,535.319l7.076-5.872Z" transform="translate(-588.762 -499.151)" fill="#f09876"/>
          <path id="Caminho_12644" data-name="Caminho 12644" d="M579.607,508.866c-.822,9.536,3.68,16.286,8.966,16.895,6.487.747,18.682-7.333,20.151-19.848s-1.568-15.8-8.775-17.159S581.372,488.383,579.607,508.866Z" transform="translate(-578.737 -482.047)" fill="#feaa82"/>
          <path id="Caminho_12645" data-name="Caminho 12645" d="M580.646,495.773s-4.092-2.106-1.719-10.945c2.262-8.426,14.249-7.176,17.546-7.239,6.589-.128,18.484,1.623,15.33,12.887,0,0,7.608,1.434,1.261,9.541s-7.395,11.011-6.44,14.292c0,0-6.526,3.165-4.661-7.338,0,0,3.027,2.854,4.281-2.152,1.033-4.122-3.551-4.752-4.88.864l-1.82-.006c-.64-2.478-1.131-9.746.85-14.527-3.714.307-5.675-.87-7.333-2.654,0,0-.911,2.573,2.467,4.765,0,0-6.111-1.244-8.878-4.035C586.649,489.226,582.343,492.152,580.646,495.773Z" transform="translate(-578.187 -477.557)" fill="#522805"/>
        </g>
        <path id="Caminho_12646" data-name="Caminho 12646" d="M656.622,562.328c-15.8-12.28-25.916-8.882-25.916-8.882s.758,1.151,1.1,1c.9-.4,14.1-1.207,26.038,11.445,3.549,3.764,8.152,7.531,7.237,19.816-.431,5.795-5.6,15.882-13.31,18.952-8.709,3.468-23.039,2.88-24.382-1.287-.713-2.214-1.359.146-2.4,1.113-1.4,1.3-12.847,4.485-12.847,4.485-.248-.97-3.256-8.108-4.133-15.027-3.308-26.124,1.914-31.552,1.914-31.552l-2.292,3.351c-1.631,4.213-2.9,10.5-1.695,25.368.211,2.593.847,10.6,12.25,37.636,4.217,10.247-.973,13.644,8.753,30.936,0,0,5.907,10.691,27.949,8.849,10.219-.854,29.4-3,36.677-13.186,0,0-3.246-28.519-12.295-54.817A119.317,119.317,0,0,0,666.549,573.7,49.478,49.478,0,0,0,656.622,562.328Z" transform="translate(-523.233 -497.117)" fill="#245f9d"/>
        <path id="Caminho_12647" data-name="Caminho 12647" d="M637.086,610.471s-16.62-47.771,4.164-56.717l1.994.439-.9.562s-19.3,6.986-3.394,51.912Z" transform="translate(-533.777 -497.424)" fill="#245f9d"/>
        <path id="Caminho_12648" data-name="Caminho 12648" d="M619.56,654.393s6.89-1.6,10.188-3.866l5.713,14.617-5.192,5.091-4.968-1.379Z" transform="translate(-529.102 -537.695)" fill="#144272"/>
        <path id="Caminho_12649" data-name="Caminho 12649" d="M581.039,469.7s3.62-5.5,4.678-6.445,1.151-2.063,6.844-.294,12.287,4.327,14.731,7.125,2.831,4.829,2.445,8.531-1.036,5.793-1.084,7.18,9.014,4.2,18.506,16.707c0,0-59.195-30.5-67.232-45.223Z" transform="translate(-504.286 -457.276)" fill="#aa6d31"/>
        <g id="Grupo_13407" data-name="Grupo 13407" transform="translate(0 53.562)">
          <rect id="Retângulo_18230" data-name="Retângulo 18230" width="5.507" height="187.565" transform="translate(23.37 205.848) rotate(-179.938)" fill="#6b411f"/>
          <g id="Grupo_13406" data-name="Grupo 13406" transform="translate(0 213.578)">
            <g id="Grupo_13405" data-name="Grupo 13405">
              <rect id="Retângulo_18231" data-name="Retângulo 18231" width="42.052" height="3.772" rx="0.422" transform="translate(37.581 46.279) rotate(-89.938)" fill="#3d3f3d"/>
              <rect id="Retângulo_18232" data-name="Retângulo 18232" width="42.052" height="3.772" rx="0.422" transform="translate(0 46.238) rotate(-89.938)" fill="#3d3f3d"/>
              <rect id="Retângulo_18233" data-name="Retângulo 18233" width="42.052" height="3.772" rx="0.422" transform="translate(12.434 46.252) rotate(-89.939)" fill="#3d3f3d"/>
              <rect id="Retângulo_18234" data-name="Retângulo 18234" width="42.052" height="3.772" rx="0.422" transform="translate(25.008 46.265) rotate(-89.939)" fill="#3d3f3d"/>
              <path id="Caminho_12650" data-name="Caminho 12650" d="M469.18,914.817l32.412.035a4.483,4.483,0,0,1,4.466,4.475l0,2.515c0,2.459-1.593.837-4.052.834l-33.111-.315c-2.459,0-4.193,1.9-4.19-.563l0-2.515A4.484,4.484,0,0,1,469.18,914.817Z" transform="translate(-464.659 -914.817)" fill="#3d3f3d"/>
            </g>
          </g>
          <rect id="Retângulo_18235" data-name="Retângulo 18235" width="9.64" height="13.133" transform="translate(25.546 214.579) rotate(-179.938)" fill="#3d3f3d"/>
          <path id="Caminho_12651" data-name="Caminho 12651" d="M501.161,573.722a5.292,5.292,0,0,0,.22-1.3l.02-18.782c0-2.543-1.718-4.625-3.825-4.628s-3.833,2.076-3.835,4.619l-.02,18.782a5.3,5.3,0,0,0,.217,1.3Z" transform="translate(-476.735 -549.013)" fill="#5e3b23"/>
        </g>
        <g id="Grupo_13410" data-name="Grupo 13410" transform="translate(16.829 68.173)">
          <g id="Grupo_13409" data-name="Grupo 13409" transform="translate(0 97.462)">
            <path id="Caminho_12652" data-name="Caminho 12652" d="M513.184,742.3s-4.733-2.323-7.992-.828c-4.264,1.957-5.477.877-5.579,1.709-.083.678.612,1.378,2.68,1.244C504.913,744.249,513.184,742.3,513.184,742.3Z" transform="translate(-496.013 -740.966)" fill="#feaa82"/>
            <path id="Caminho_12653" data-name="Caminho 12653" d="M505.112,742.479c-3.077.517-11.47,4.046-10.676,5.424.876,1.522,5.928-2.481,6.511-1.756.772.961-8.171,3.187-7.454,4.958.679,1.677,7.562-3.055,8.039-1.8.562,1.477-7.659,1.656-6.781,3.5.7,1.471,8.112-1.355,8.6-.4s-5.171,1.738-4.666,3.1c.415,1.116,5.561-.67,8.981-2.486,3.872-2.056,6.287-4.737,7.667-5.76,1.847-1.369,1.147-3.365-.769-4.135A27.156,27.156,0,0,0,505.112,742.479Z" transform="translate(-493.453 -741.519)" fill="#feaa82"/>
            <g id="Grupo_13408" data-name="Grupo 13408" transform="translate(3.84 0.776)">
              <path id="Caminho_12654" data-name="Caminho 12654" d="M500.06,745.389a.032.032,0,0,1-.027-.017.031.031,0,0,1,.013-.041,33.626,33.626,0,0,1,7.8-2.883,13.274,13.274,0,0,1,1.45-.154.03.03,0,0,1,0,.061,13.111,13.111,0,0,0-1.443.152,33.56,33.56,0,0,0-7.78,2.877A.032.032,0,0,1,500.06,745.389Z" transform="translate(-500.029 -742.295)" fill="#f09876"/>
            </g>
          </g>
          <path id="Caminho_12655" data-name="Caminho 12655" d="M609.712,605.842c-21.073,39-47.711,49.649-82.137,71.394l-4.713-4.406s34.6-31.937,54.964-73.761c13.947-28.645,26.465-26.03,30.861-23.7C615.054,578.755,618.918,588.807,609.712,605.842Z" transform="translate(-505.691 -574.038)" fill="#feaa82"/>
        </g>
        <path id="Caminho_12656" data-name="Caminho 12656" d="M639.862,617.046s-9.484-15.422-27.484-13.3c0,0,14.422-40.118,34.283-29.492C665.894,584.54,639.862,617.046,639.862,617.046Z" transform="translate(-526.113 -505.208)" fill="#2d2a0c"/>
      </g>
      <g id="Grupo_13412" data-name="Grupo 13412" transform="translate(107.583 312.53)">
        <path id="Caminho_12657" data-name="Caminho 12657" d="M599.4,994.31H572.948a.876.876,0,1,1,0-1.752H599.4a.876.876,0,1,1,0,1.752Zm-36.272,0H543.482a.876.876,0,0,1,0-1.752h19.644a.876.876,0,1,1,0,1.752Zm-39.289,0h-9.822a.876.876,0,0,1,0-1.752h9.822a.876.876,0,1,1,0,1.752Zm-29.466,0H435.438a.876.876,0,1,1,0-1.752h58.933a.876.876,0,0,1,0,1.752Z" transform="translate(-434.562 -992.558)" fill="#856b1d"/>
      </g>
    </g>
  </g>
</svg>
