<svg id="Layer_1" data-name="Layer 1" xmlns="http://www.w3.org/2000/svg" viewBox="0 0 73 69"><defs><style>.cls-1{fill:#a3bb3a;}.cls-2{fill:#fff;}.cls-3{fill:#2b6130;}.cls-4{fill:#fafbfb;}</style></defs><circle id="Ellipse_110" data-name="Ellipse 110" class="cls-1" cx="32" cy="32" r="32"/><g id="register"><path id="Path_9014" data-name="Path 9014" class="cls-2" d="M309.33,410a8.67,8.67,0,1,1,8.67-8.67A8.67,8.67,0,0,1,309.33,410Zm0-16a7.34,7.34,0,1,0,7.34,7.33A7.33,7.33,0,0,0,309.33,394Z" transform="translate(-270 -362)"/><path id="Path_9015" data-name="Path 9015" class="cls-2" d="M308,404.67a.63.63,0,0,1-.47-.2l-2.67-2.66a.67.67,0,0,1,.92-1l0,0L308,403l4.2-4.8a.67.67,0,0,1,1,.88l-4.67,5.33a.65.65,0,0,1-.48.23h0Z" transform="translate(-270 -362)"/><path id="Path_9016" data-name="Path 9016" class="cls-2" d="M298.67,406h-9.34a3.33,3.33,0,0,1-3.33-3.33V385.33a3.33,3.33,0,0,1,3.33-3.33H292a.67.67,0,0,1,0,1.33h-2.67a2,2,0,0,0-2,2v17.34a2,2,0,0,0,2,2h9.34a.67.67,0,0,1,0,1.33Z" transform="translate(-270 -362)"/><path id="Path_9017" data-name="Path 9017" class="cls-2" d="M308,390a.67.67,0,0,1-.67-.67v-4a2,2,0,0,0-2-2h-2.66a.67.67,0,0,1,0-1.33h2.66a3.34,3.34,0,0,1,3.34,3.33v4A.67.67,0,0,1,308,390Z" transform="translate(-270 -362)"/><path id="Path_9018" data-name="Path 9018" class="cls-2" d="M301.33,386h-8a2,2,0,0,1-2-2v-2.67a.66.66,0,0,1,.67-.66h2.07a3.33,3.33,0,0,1,6.53,0h2.07a.66.66,0,0,1,.66.66V384A2,2,0,0,1,301.33,386Zm-8.66-4v2a.66.66,0,0,0,.66.67h8A.67.67,0,0,0,302,384v-2h-2a.67.67,0,0,1-.67-.67,2,2,0,0,0-4,0,.67.67,0,0,1-.66.67Z" transform="translate(-270 -362)"/><path id="Path_9019" data-name="Path 9019" class="cls-2" d="M304,390H290.67a.68.68,0,0,1-.7-.64.67.67,0,0,1,.65-.69H304a.67.67,0,1,1,.05,1.33Z" transform="translate(-270 -362)"/><path id="Path_9020" data-name="Path 9020" class="cls-2" d="M300,394h-9.33a.67.67,0,0,1,0-1.33H300a.67.67,0,0,1,0,1.33Z" transform="translate(-270 -362)"/><path id="Path_9021" data-name="Path 9021" class="cls-2" d="M297.33,398h-6.66a.67.67,0,0,1,0-1.33h6.66a.67.67,0,1,1,.06,1.33Z" transform="translate(-270 -362)"/></g><g id="Group_14309" data-name="Group 14309"><circle id="Ellipse_274-2" data-name="Ellipse 274-2" class="cls-3" cx="54.5" cy="50.5" r="18.5"/><g id="check-2"><path id="Path_13280-2" data-name="Path 13280-2" class="cls-4" d="M322.26,421.07a2,2,0,0,1-1.5-.68L316,414.87a2,2,0,0,1,3-2.57l3.09,3.61,9.78-11.79c1.52-2.12,3.1-.94,1.58,1.18l-9.61,14.95a2,2,0,0,1-1.52.82Z" transform="translate(-270 -362)"/></g></g></svg>