<svg id="Layer_1" data-name="Layer 1" xmlns="http://www.w3.org/2000/svg" viewBox="0 0 69 69"><defs><style>.cls-1{fill:#a3bb3a;}.cls-2{fill:#fff;}.cls-3{fill:#2b6130;}.cls-4{fill:#fafbfb;}</style></defs><circle id="Ellipse_109" data-name="Ellipse 109" class="cls-1" cx="32" cy="32" r="32"/><path id="Union_1" data-name="Union 1" class="cls-2" d="M310.05,410H294.81a3.82,3.82,0,0,1-3.81-3.81V386.38a3.82,3.82,0,0,1,3.81-3.81h2.29v-.76a.76.76,0,0,1,.75-.76h2.37a3.81,3.81,0,0,1,7.46,0h2.37a.76.76,0,0,1,.76.76h0v.58h2.59a3.82,3.82,0,0,1,3.81,3.81V406a4.26,4.26,0,0,1-4.11,4Zm-17.53-23.62v19.81a2.29,2.29,0,0,0,2.29,2.28h2.31a.78.78,0,0,1,.49-.18H313.4a1.9,1.9,0,0,0,2-2.1V386.38a2.29,2.29,0,0,0-2.29-2.28H310.8v.76a2.28,2.28,0,0,1-2.28,2.28h-9.15a2.28,2.28,0,0,1-2.28-2.28v-.76h-2.28a2.29,2.29,0,0,0-2.29,2.28Zm6.1-1.52a.76.76,0,0,0,.76.76h9.14a.76.76,0,0,0,.76-.76h0v-2.29H307a.76.76,0,0,1-.76-.76h0a2.29,2.29,0,1,0-4.58,0,.74.74,0,0,1-.75.76h-2.29Zm-2.29,18.07a.76.76,0,0,1,0-1.52h15.24a.76.76,0,0,1,0,1.52Zm0-4.39a.76.76,0,0,1,0-1.52h15.24a.76.76,0,0,1,0,1.52Zm0-4.39a.76.76,0,0,1,0-1.52h15.24a.76.76,0,0,1,.76.76h0a.76.76,0,0,1-.76.76H296.33Z" transform="translate(-272 -362)"/><g id="Group_14308" data-name="Group 14308"><circle id="Ellipse_274" data-name="Ellipse 274" class="cls-3" cx="50.5" cy="50.5" r="18.5"/><g id="check"><path id="Path_13280" data-name="Path 13280" class="cls-4" d="M320.26,421.07a2,2,0,0,1-1.5-.68L314,414.87a2,2,0,0,1,3-2.57l3.09,3.61,9.78-11.79c1.52-2.12,3.1-.94,1.58,1.18l-9.61,14.95a2,2,0,0,1-1.52.82Z" transform="translate(-272 -362)"/></g></g></svg>