<svg id="Layer_1" data-name="Layer 1" xmlns="http://www.w3.org/2000/svg" viewBox="0 0 64 64"><defs><style>.cls-1{fill:#a3bb3a;}.cls-2{fill:#fff;}</style></defs><circle id="Ellipse_111" data-name="Ellipse 111" class="cls-1" cx="32" cy="32" r="32"/><g id="calendar"><path id="Path_9022" data-name="Path 9022" class="cls-2" d="M318.83,412.5H294.17a3.7,3.7,0,0,1-3.67-3.72v-22.3a3.7,3.7,0,0,1,3.67-3.72h24.66a3.7,3.7,0,0,1,3.67,3.72v22.3A3.7,3.7,0,0,1,318.83,412.5Zm-24.66-27.71a1.68,1.68,0,0,0-1.67,1.69v22.3a1.68,1.68,0,0,0,1.67,1.69h24.66a1.68,1.68,0,0,0,1.67-1.69v-22.3a1.68,1.68,0,0,0-1.67-1.69Z" transform="translate(-274.5 -364.5)"/><path id="Path_9023" data-name="Path 9023" class="cls-2" d="M320.87,393H292.13a.84.84,0,0,1-.95-.74.86.86,0,0,1,.74-1h28.95a.86.86,0,0,1,.95.75.85.85,0,0,1-.74,1Z" transform="translate(-274.5 -364.5)"/><path id="Path_9024" data-name="Path 9024" class="cls-2" d="M298.08,387.28a.84.84,0,0,1-.84-.85v-5.08a.84.84,0,0,1,.84-.85.85.85,0,0,1,.85.85v5.08A.85.85,0,0,1,298.08,387.28Z" transform="translate(-274.5 -364.5)"/><path id="Path_9025" data-name="Path 9025" class="cls-2" d="M314.92,387.28a.85.85,0,0,1-.85-.85v-5.08a.85.85,0,0,1,1.7,0v5.08A.85.85,0,0,1,314.92,387.28Z" transform="translate(-274.5 -364.5)"/></g></svg>