<svg id="Layer_1" data-name="Layer 1" xmlns="http://www.w3.org/2000/svg" viewBox="0 0 45 45.23"><defs><style>.cls-1{fill:#57ba58;}.cls-2{fill:#fff;}</style></defs><g id="Group_14322" data-name="Group 14322"><path id="Polygon_1" data-name="Polygon 1" class="cls-1" d="M301.07,403.34l6.36,10H294.72Z" transform="translate(-293.06 -372.14)"/><ellipse id="Ellipse_275" data-name="Ellipse 275" class="cls-1" cx="22.38" cy="20.71" rx="20.72" ry="20.45"/><path id="whatsapp" class="cls-2" d="M315.65,372.14a22.42,22.42,0,0,0-19.42,33.6l-3.17,11.62,11.87-3.12a22.41,22.41,0,1,0,10.72-42.1m0,3.77a18.64,18.64,0,1,1,0,37.27,18.34,18.34,0,0,1-9.47-2.6l-.68-.38-7.06,1.85,1.88-6.87-.45-.73a18.63,18.63,0,0,1,15.8-28.54m-8,8.28a2.08,2.08,0,0,0-1.49.7,6.45,6.45,0,0,0-2,4.68c0,2.76,2,5.4,2.26,5.79s4,6,9.61,8.44a26.08,26.08,0,0,0,3.19,1.2,7.8,7.8,0,0,0,3.53.22c1.08-.16,3.3-1.36,3.78-2.67a4.66,4.66,0,0,0,.33-2.66c-.15-.23-.52-.37-1.08-.62s-3.32-1.67-3.82-1.85-.84-.27-1.27.27-1.45,1.83-1.76,2.19-.66.43-1.2.16a15.33,15.33,0,0,1-4.53-2.78,17.49,17.49,0,0,1-3.12-3.89.86.86,0,0,1,.25-1.13,7.86,7.86,0,0,0,.84-1,3.16,3.16,0,0,0,.56-.93,1,1,0,0,0,0-1c-.14-.25-1.27-3.06-1.74-4.16s-.9-.95-1.27-1Z" transform="translate(-293.06 -372.14)"/></g></svg>