<?xml version="1.0" encoding="utf-8"?>
<!-- Generator: Adobe Illustrator 24.2.3, SVG Export Plug-In . SVG Version: 6.00 Build 0)  -->
<svg version="1.1" id="Layer_1" xmlns="http://www.w3.org/2000/svg" x="0px" y="0px"
     viewBox="0 0 145.5 145.5" style="enable-background:new 0 0 145.5 145.5;" xml:space="preserve">
<style type="text/css">
	.st0{fill:#00A443;}
	.st1{fill:#FFFFFF;}
</style>
<g id="tick">
	<g id="Group_10907">
		<circle id="Ellipse_147" class="st0" cx="72.7" cy="72.7" r="67.1"/>
		<path id="Path_8967" class="st0" d="M72.7,145.5C32.6,145.5,0,112.9,0,72.7S32.6,0,72.7,0s72.7,32.6,72.7,72.7v0
			C145.5,112.9,112.9,145.5,72.7,145.5C72.7,145.5,72.7,145.5,72.7,145.5z M72.7,11.3c-33.9,0-61.5,27.5-61.4,61.5
			s27.5,61.5,61.5,61.4c33.9,0,61.4-27.5,61.4-61.5C134.2,38.8,106.7,11.3,72.7,11.3C72.7,11.3,72.7,11.3,72.7,11.3z"/>
	</g>
	<g id="alert">
		<path id="Path_10254" class="st1" d="M72.7,33.8c-3.6,0-6.5,2.9-6.5,6.5l0,0v45.4c0,3.6,2.8,6.5,6.4,6.6s6.5-2.8,6.6-6.4l0,0V40.3
			C79.2,36.7,76.3,33.8,72.7,33.8C72.7,33.8,72.7,33.8,72.7,33.8z"/>
		<circle id="Ellipse_170" class="st1" cx="72.7" cy="104.7" r="6"/>
	</g>
</g>
</svg>
