<svg id="Layer_1" data-name="Layer 1" xmlns="http://www.w3.org/2000/svg" xmlns:xlink="http://www.w3.org/1999/xlink" viewBox="0 0 450.17 497.01"><defs><style>.cls-1{fill:none;}.cls-2{clip-path:url(#clip-path);}.cls-3{fill:#aadde3;}.cls-4{fill:#73be80;}.cls-5{fill:#7fcfd6;}.cls-6{fill:#359b69;}.cls-7{opacity:0.5;}.cls-8{clip-path:url(#clip-path-3);}.cls-9{fill:#f9edca;}.cls-10{fill:#a3bb3a;}.cls-11{clip-path:url(#clip-path-4);}.cls-12{fill:#fff;}.cls-13{fill:#707071;}.cls-14{fill:#658e3d;}.cls-15{fill:#4d5862;}</style><clipPath id="clip-path" transform="translate(-81.42 -148)"><rect class="cls-1" x="81.42" y="148" width="450.17" height="497.01"/></clipPath><clipPath id="clip-path-3" transform="translate(-81.42 -148)"><rect class="cls-1" x="363.4" y="464.26" width="116.05" height="115.93"/></clipPath><clipPath id="clip-path-4" transform="translate(-81.42 -148)"><rect class="cls-1" x="185.26" y="204.64" width="116.05" height="115.93"/></clipPath></defs><g id="Grupo_14315" data-name="Grupo 14315"><g class="cls-2"><g id="Grupo_14280" data-name="Grupo 14280"><g id="Group_14365" data-name="Group 14365"><circle id="Ellipse_276" data-name="Ellipse 276" class="cls-3" cx="132.07" cy="134.07" r="93.07"/><path id="Path_13301" data-name="Path 13301" class="cls-4" d="M129,321.07a26.28,26.28,0,0,1,2.67-9.67c1.26-2.43,2.35-4.52,4.71-6.16,2.66-1.85,4.55-1.48,6.16-3.62,1.12-1.5,1.26-3.11,1.45-5.43.3-3.82-.52-5.59-.73-8.33-.3-4,1.08-4.9,2.17-10.14,1.85-8.85-1.43-9.37.37-18.11.91-4.42,2.22-6.56,1.45-10.5A43.21,43.21,0,0,0,145,243c-1.68-4.27-2.51-6.4-3.26-7.25a10.92,10.92,0,0,0-7-3.27A93.13,93.13,0,0,0,129,321.07Z" transform="translate(-81.42 -148)"/><path id="Path_13302" data-name="Path 13302" class="cls-4" d="M201.53,361.37c-2.4-2.78-4-2.42-7.24-5.8a13.53,13.53,0,0,1-3.62-5.43c-1-3.19.33-4.35-.72-6.15-1.3-2.21-3.81-1.38-9.06-3.26s-4.7-3.45-9.78-5.07c-4.76-1.53-5.76-.32-8.69-2.18-2.34-1.48-2.22-2.58-5.79-5.43-2.67-2.12-4-3.18-5.8-3.26-2.51-.1-3.82,1.76-7.24,4.35a26.41,26.41,0,0,1-7.77,4.22,93,93,0,0,0,69.82,41.44,21.22,21.22,0,0,0-.85-6.91A16.24,16.24,0,0,0,201.53,361.37Z" transform="translate(-81.42 -148)"/><path id="Path_13303" data-name="Path 13303" class="cls-5" d="M217.63,189.09c23,14.08,39.31,50.39,39.31,93s-16.35,78.9-39.31,93a93.06,93.06,0,0,0,0-185.94Z" transform="translate(-81.42 -148)"/><path id="Path_13304" data-name="Path 13304" class="cls-4" d="M274.46,211.75a30.85,30.85,0,0,1-8.11,2.6,95.67,95.67,0,0,1-16.65,1.08c-4.48-.11-4.69-.44-8.33-.36-4.9.11-10,.28-15.57,2.9-3.26,1.54-6.74,3.18-8.7,6.88-1.8,3.41-.5,5.18-2.53,7.6-3,3.58-8,2.28-8.69,4.71-.52,1.86,2.37,2.8,3.26,6.52,1,4-1.82,5.09-1.09,8.32,1,4.34,6.26,3.76,11.95,10.5,3,3.53,2.12,4.39,4.35,5.8,3.56,2.26,7,.84,11.22,4a6.88,6.88,0,0,1,2.18,2.18c1.78,3.13-.89,5.73,0,8.69,1.39,4.65,9.8,4.08,10.14,7.24.24,2.26-3.77,5.33-7.6,5.79-3.54.43-5.54-1.52-6.88-.36-1.61,1.39,1.06,4.33-.37,8-1.23,3.16-3.94,2.71-7.24,7.6-1.84,2.74-1.85,4.14-1.81,4.71.17,2.43,2.15,4.07,3.26,5.07,4.24,3.77,6.93,9,10.5,13.4,4.24,5.23,6.36,7.85,8,10.5,5.8,9.53,5.79,17.17,7.76,21A92.68,92.68,0,0,0,264.39,360c-1.16-2.36-3-5-2.74-9.11a15.62,15.62,0,0,1,7.6-11.95c3.76-2.08,5.43-.33,7.6-2.53,2.52-2.56.94-5.58,4-12.32.93-2.06,1.1-1.83,1.81-3.62,1.52-3.87,1.25-6.34,1.81-9.78,1-6,3.37-6,2.9-8.69-1-5.41-10.27-8.07-11.77-8.51-7.34-2.1-13.36-.53-13.76-2.17-.13-.52.4-1,3.26-3.62,3.33-3.08,4.4-3.11,5.07-4.71.84-2-.27-2.87.36-5.07.76-2.66,3.17-4.13,4.71-5.07,5.81-3.54,9.6-1.05,14.12-4.34,2.18-1.6,2.12-2.79,4-5.07,3-3.64,6.58-4.92,10-5.7A93.23,93.23,0,0,0,274.46,211.75Z" transform="translate(-81.42 -148)"/><path id="Path_13305" data-name="Path 13305" class="cls-6" d="M282.65,320.45c1.52-3.87,1.25-6.34,1.81-9.78,1-6,3.37-6,2.9-8.69-1-5.41-10.26-8.08-11.77-8.51-7.33-2.1-13.36-.53-13.76-2.17-.13-.52.4-1,3.26-3.62,3.33-3.08,4.4-3.11,5.07-4.71.84-2-.27-2.87.36-5.07.77-2.67,3.18-4.14,4.71-5.07,5.81-3.55,9.61-1.05,14.12-4.35,2.18-1.59,2.13-2.78,4-5.07,3-3.64,6.57-4.92,10-5.69a92.37,92.37,0,0,0-3.28-9.89.69.69,0,0,1,0-.1c-.83-2.09-1.73-4.13-2.7-6.14l-.11-.23c-.22-.44-.44-.89-.67-1.33l-.17-.34-.69-1.32v0c-.49-.92-1-1.83-1.51-2.72l-.18-.32-.64-1.08c-.12-.2-.24-.4-.37-.6s-.41-.66-.61-1l-.44-.67-.6-.94c-.25-.39-.51-.77-.77-1.15s-.47-.69-.71-1l-.63-.88c-.17-.25-.35-.49-.53-.74l-.67-.9-.5-.66c-.28-.38-.57-.75-.86-1.12l-.33-.42-1.23-1.51-.35-.41-1-1.13c-.14-.15-.27-.31-.4-.46l-1-1.14c-.1-.12-.2-.23-.31-.34-.92-1-1.87-2-2.83-3l-.24-.22c-.41-.42-.83-.82-1.25-1.23l-.27-.25c-.47-.45-.94-.89-1.42-1.32l-.07-.06q-.74-.68-1.5-1.32a30.62,30.62,0,0,1-8.1,2.58,94.71,94.71,0,0,1-16.65,1.09c-4.48-.11-4.69-.45-8.33-.36h-.3c9.85,17.65,15.87,41.16,15.87,67,0,22.92-4.74,44-12.69,60.8.55.77,1,1.49,1.46,2.21,5.8,9.53,5.79,17.16,7.76,21l.7-.34.34-.16,1.82-.92h0c.57-.3,1.14-.6,1.7-.91l.54-.29,1.22-.69.53-.31c.51-.29,1-.6,1.52-.9l.7-.44.9-.57.78-.5.17-.11c-1.16-2.36-3-5-2.74-9.11a15.59,15.59,0,0,1,7.6-11.95c3.75-2.07,5.43-.33,7.6-2.53,2.52-2.56.93-5.57,4-12.31C281.77,322,282,322.24,282.65,320.45Z" transform="translate(-81.42 -148)"/></g></g></g><g class="cls-2"><g id="Grupo_14310" data-name="Grupo 14310"><g id="Grupo_14306" data-name="Grupo 14306" class="cls-7"><g id="Grupo_14305" data-name="Grupo 14305"><g class="cls-8"><g id="Grupo_14304" data-name="Grupo 14304"><path id="Caminho_13268" data-name="Caminho 13268" class="cls-9" d="M397.31,533.89l66-66a1.82,1.82,0,0,0-2.58-2.58l-66,66a1.82,1.82,0,0,0,2.57,2.59h0" transform="translate(-81.42 -148)"/><path id="Caminho_13269" data-name="Caminho 13269" class="cls-10" d="M366.52,564.68l23.57-23.57a1.82,1.82,0,1,0-2.58-2.58L363.93,562.1a1.82,1.82,0,0,0,2.58,2.58" transform="translate(-81.42 -148)"/><path id="Caminho_13270" data-name="Caminho 13270" class="cls-10" d="M381.1,565.2l97.82-97.82a1.83,1.83,0,0,0-2.54-2.63l0,.05-97.82,97.81a1.82,1.82,0,1,0,2.56,2.59h0" transform="translate(-81.42 -148)"/><path id="Caminho_13271" data-name="Caminho 13271" class="cls-10" d="M422.33,539.06l52.36-52.36a1.83,1.83,0,0,0-2.59-2.58l-52.35,52.36a1.82,1.82,0,1,0,2.58,2.58" transform="translate(-81.42 -148)"/><path id="Caminho_13272" data-name="Caminho 13272" class="cls-10" d="M404,557.4l9.92-9.93a1.82,1.82,0,0,0-2.58-2.58l-9.92,9.93A1.82,1.82,0,0,0,404,557.4" transform="translate(-81.42 -148)"/><path id="Caminho_13273" data-name="Caminho 13273" class="cls-10" d="M366.64,579.66l9.92-9.93a1.82,1.82,0,0,0-2.58-2.58l-9.92,9.93a1.82,1.82,0,0,0,2.58,2.58h0" transform="translate(-81.42 -148)"/><path id="Caminho_13274" data-name="Caminho 13274" class="cls-10" d="M415.54,543.27A1.83,1.83,0,1,0,415,542a1.85,1.85,0,0,0,.53,1.29" transform="translate(-81.42 -148)"/><path id="Caminho_13275" data-name="Caminho 13275" class="cls-10" d="M391.12,537.5a1.82,1.82,0,1,0,0-2.58,1.83,1.83,0,0,0,0,2.58h0" transform="translate(-81.42 -148)"/><path id="Caminho_13276" data-name="Caminho 13276" class="cls-10" d="M397.2,561.61a1.82,1.82,0,1,0-.54-1.29,1.8,1.8,0,0,0,.54,1.29" transform="translate(-81.42 -148)"/></g></g></g></g><g id="Grupo_14309" data-name="Grupo 14309" class="cls-7"><g id="Grupo_14308" data-name="Grupo 14308"><g class="cls-11"><g id="Grupo_14307" data-name="Grupo 14307"><path id="Caminho_13277" data-name="Caminho 13277" class="cls-10" d="M267.41,250.94l-66,66a1.82,1.82,0,1,0,2.58,2.58l66-66a1.82,1.82,0,1,0-2.58-2.58h0" transform="translate(-81.42 -148)"/><path id="Caminho_13278" data-name="Caminho 13278" class="cls-10" d="M298.2,220.15l-23.57,23.57a1.82,1.82,0,1,0,2.58,2.58l23.57-23.57a1.82,1.82,0,1,0-2.58-2.58" transform="translate(-81.42 -148)"/><path id="Caminho_13279" data-name="Caminho 13279" class="cls-10" d="M283.62,219.64,185.8,317.45a1.82,1.82,0,0,0,2.53,2.63s0,0,0-.05l97.81-97.81a1.82,1.82,0,0,0-2.58-2.58" transform="translate(-81.42 -148)"/><path id="Caminho_13280" data-name="Caminho 13280" class="cls-10" d="M242.38,245.78,190,298.13a1.82,1.82,0,0,0,2.58,2.58h0L245,248.36a1.82,1.82,0,1,0-2.58-2.58" transform="translate(-81.42 -148)"/><path id="Caminho_13281" data-name="Caminho 13281" class="cls-10" d="M260.73,227.43l-9.93,9.92a1.82,1.82,0,0,0,2.58,2.58l9.93-9.92a1.82,1.82,0,0,0-2.58-2.58" transform="translate(-81.42 -148)"/><path id="Caminho_13282" data-name="Caminho 13282" class="cls-10" d="M298.08,205.17l-9.93,9.93a1.82,1.82,0,0,0,2.58,2.58l9.93-9.93a1.82,1.82,0,1,0-2.58-2.58h0" transform="translate(-81.42 -148)"/><path id="Caminho_13283" data-name="Caminho 13283" class="cls-9" d="M249.17,241.56a1.83,1.83,0,1,0,0,2.59,1.83,1.83,0,0,0,0-2.59h0" transform="translate(-81.42 -148)"/><path id="Caminho_13284" data-name="Caminho 13284" class="cls-9" d="M273.6,247.33a1.82,1.82,0,1,0,0,2.58h0a1.83,1.83,0,0,0,0-2.58" transform="translate(-81.42 -148)"/><path id="Caminho_13285" data-name="Caminho 13285" class="cls-10" d="M267.52,223.22a1.82,1.82,0,1,0,0,2.58,1.85,1.85,0,0,0,.53-1.29,1.81,1.81,0,0,0-.53-1.29" transform="translate(-81.42 -148)"/></g></g></g></g></g></g><path id="Caminho_13290-2" data-name="Caminho 13290-2" class="cls-12" d="M434.56,236.1H212.49v308H434.56Z" transform="translate(-81.42 -148)"/><g class="cls-2"><g id="Grupo_14314" data-name="Grupo 14314"><path id="Caminho_13291" data-name="Caminho 13291" class="cls-13" d="M409.78,371.07H240.45a2.85,2.85,0,0,1,0-5.7H409.78a2.85,2.85,0,0,1,.21,5.7h-.21" transform="translate(-81.42 -148)"/><path id="Caminho_13292" data-name="Caminho 13292" class="cls-13" d="M409.78,387.76H240.45a2.85,2.85,0,0,1,0-5.7H409.78a2.85,2.85,0,0,1,.21,5.7h-.21" transform="translate(-81.42 -148)"/><path id="Caminho_13293" data-name="Caminho 13293" class="cls-13" d="M409.78,339.34H240.45a2.85,2.85,0,0,1,0-5.7H409.78a2.85,2.85,0,0,1,.21,5.7.74.74,0,0,1-.21,0" transform="translate(-81.42 -148)"/><path id="Caminho_13294" data-name="Caminho 13294" class="cls-13" d="M409.78,356H240.45a2.85,2.85,0,0,1,0-5.7H409.78A2.85,2.85,0,0,1,410,356h-.21" transform="translate(-81.42 -148)"/><path id="Caminho_13295" data-name="Caminho 13295" class="cls-13" d="M409.78,307.62H240.45a2.85,2.85,0,0,1,0-5.7H409.78a2.85,2.85,0,0,1,.21,5.7h-.21" transform="translate(-81.42 -148)"/><path id="Caminho_13296" data-name="Caminho 13296" class="cls-13" d="M409.78,324.31H240.45a2.85,2.85,0,1,1,0-5.7H409.78a2.85,2.85,0,0,1,.1,5.7h-.1" transform="translate(-81.42 -148)"/><path id="Caminho_13297" data-name="Caminho 13297" class="cls-13" d="M372.58,404.45H240.45a2.85,2.85,0,0,1,0-5.7H372.58a2.85,2.85,0,0,1,0,5.7" transform="translate(-81.42 -148)"/><path id="Caminho_13298" data-name="Caminho 13298" class="cls-13" d="M333.72,265.49H240.45a2.85,2.85,0,0,1,0-5.7h93.27a2.85,2.85,0,0,1,.21,5.7h-.21" transform="translate(-81.42 -148)"/><path id="Caminho_13299" data-name="Caminho 13299" class="cls-13" d="M296.52,277.35H240.45a2.85,2.85,0,0,1,0-5.7h56.07a2.85,2.85,0,0,1,.21,5.7h-.21" transform="translate(-81.42 -148)"/><path id="Caminho_13300" data-name="Caminho 13300" class="cls-10" d="M309.43,435.51H258.07a2.85,2.85,0,1,1-.21-5.7h51.57a2.85,2.85,0,1,1,.21,5.7h-.21" transform="translate(-81.42 -148)"/><path id="Caminho_13301" data-name="Caminho 13301" class="cls-10" d="M409.78,435.51H358.42a2.85,2.85,0,1,1-.22-5.7h51.58a2.85,2.85,0,0,1,.21,5.7h-.21" transform="translate(-81.42 -148)"/><path id="Caminho_13302" data-name="Caminho 13302" class="cls-10" d="M309.43,452.3H258.07a2.85,2.85,0,1,1-.21-5.7h51.57a2.85,2.85,0,1,1,.21,5.7h-.21" transform="translate(-81.42 -148)"/><path id="Caminho_13303" data-name="Caminho 13303" class="cls-10" d="M409.78,452.3H358.42a2.85,2.85,0,1,1-.22-5.7h51.58a2.85,2.85,0,0,1,.21,5.7h-.21" transform="translate(-81.42 -148)"/><path id="Caminho_13304" data-name="Caminho 13304" class="cls-10" d="M309.43,469.1H258.07a2.85,2.85,0,1,1-.21-5.7h51.57a2.85,2.85,0,1,1,.21,5.7h-.21" transform="translate(-81.42 -148)"/><path id="Caminho_13305" data-name="Caminho 13305" class="cls-14" d="M247.44,433.38a4.78,4.78,0,1,1-4.78-4.78h0a4.78,4.78,0,0,1,4.78,4.78" transform="translate(-81.42 -148)"/><path id="Caminho_13306" data-name="Caminho 13306" class="cls-14" d="M247.44,449.36a4.78,4.78,0,1,1-4.78-4.78h0a4.78,4.78,0,0,1,4.78,4.78" transform="translate(-81.42 -148)"/><path id="Caminho_13307" data-name="Caminho 13307" class="cls-14" d="M247.44,465.33a4.78,4.78,0,1,1-4.78-4.78h0a4.78,4.78,0,0,1,4.78,4.78" transform="translate(-81.42 -148)"/><path id="Caminho_13308" data-name="Caminho 13308" class="cls-14" d="M346.42,433.38a4.79,4.79,0,1,1-4.79-4.78h0a4.78,4.78,0,0,1,4.78,4.78" transform="translate(-81.42 -148)"/><path id="Caminho_13309" data-name="Caminho 13309" class="cls-14" d="M346.42,449.36a4.79,4.79,0,1,1-4.79-4.78h0a4.78,4.78,0,0,1,4.78,4.78" transform="translate(-81.42 -148)"/><path id="Caminho_13310" data-name="Caminho 13310" class="cls-15" d="M395,516.5l-.52,0a3.52,3.52,0,0,1-2.56-1.81c-.35-.62-1.42-2.49-6.59-1.2-4.89,1.22-6.22-2.69-7.1-5.27a18.36,18.36,0,0,0-2-4.59c-.46.82-1,2.1-1.48,3.12a43,43,0,0,1-3.62,7c-1.22,1.77-2.63,2.55-4.18,2.34-3.06-.42-4.42-4.44-6.47-10.51a71.18,71.18,0,0,0-4.14-10.41,3,3,0,0,0-.61-.84c-1.82.51-5.82,7.84-8.48,15.59a2.28,2.28,0,0,1-4.31-1.48c1.87-5.46,6.84-18.2,12.49-18.67,1.38-.12,3.36.35,4.92,3.23a74.12,74.12,0,0,1,4.45,11.12,51.46,51.46,0,0,0,2.66,6.9,38.75,38.75,0,0,0,3.12-6.08c1.53-3.46,2.74-6.19,5.27-6.43,1.47-.14,2.82.66,4,2.38a22.31,22.31,0,0,1,2.74,5.9,9.18,9.18,0,0,0,1,2.41,2.93,2.93,0,0,0,.65-.1c6.33-1.58,9.55.38,11.17,2.62a27.5,27.5,0,0,0,2.56-2.27,20.88,20.88,0,0,1,2.66-2.31c2.37-1.58,7.17-1.7,9.87-.26a4.18,4.18,0,0,1,2.41,3.67,2.28,2.28,0,0,1-4.53.35c-.93-.58-4.15-.68-5.23,0a21.47,21.47,0,0,0-2,1.8c-2,2-4,3.84-6.12,3.84" transform="translate(-81.42 -148)"/></g></g><rect id="Retângulo_18683" data-name="Retângulo 18683" class="cls-1" width="450.17" height="497.01"/></g></svg>