<svg xmlns="http://www.w3.org/2000/svg" width="26.103" height="23.097" viewBox="0 0 26.103 23.097">
  <g id="high-voltage" transform="translate(-55.053 -78.154)">
    <path id="Caminho_10197" data-name="Caminho 10197" d="M79.232,96.424a.487.487,0,0,0,.179-.665L69.78,79.111a1.947,1.947,0,0,0-3.352,0L55.311,98.385a1.912,1.912,0,0,0,1.656,2.866H79.242A1.912,1.912,0,0,0,80.9,98.385l-2.492-4.321a.487.487,0,0,0-.844.487l2.492,4.321a.938.938,0,0,1-.812,1.406H56.966a.938.938,0,0,1-.812-1.406L67.272,79.6a.971.971,0,0,1,1.665,0l9.631,16.648A.487.487,0,0,0,79.232,96.424Z" fill="#00A443"/>
    <path id="Caminho_10198" data-name="Caminho 10198" d="M185.232,185.727l5.038-7.374a.9.9,0,0,0-.744-1.41h-2.91l.839-4.484a.734.734,0,0,0-1.325-.558l-5.038,7.374a.9.9,0,0,0,.744,1.41h2.91l-.839,4.484a.734.734,0,0,0,1.325.559Zm-3.258-6.016,4.316-6.317-.739,3.947a.487.487,0,0,0,.479.577h3.359l-4.316,6.317.739-3.947a.487.487,0,0,0-.479-.577Z" transform="translate(-117.708 -87.358)" fill="#00A443"/>
  </g>
</svg>
