<svg width="45" height="43.957" xmlns="http://www.w3.org/2000/svg">
 <defs>
  <style>.a{fill:#698a48;}</style>
 </defs>
 <g>
  <title>background</title>
  <rect fill="none" id="canvas_background" height="45.957" width="47" y="-1" x="-1"/>
 </g>
 <g>
  <title>Layer 1</title>
  <ellipse stroke="#000" ry="21.875" rx="21.875" id="svg_9" cy="21.9785" cx="22.5" stroke-opacity="null" stroke-width="0" fill="#ffffff"/>
  <g stroke="null" id="svg_1">
   <path stroke="null" id="svg_2" d="m35.88776,22.8825l-17.49131,0a0.9052,0.9052 0 0 1 0,-1.80925l17.49247,0a0.9052,0.9052 0 1 1 0,1.80925l-0.00116,0zm0,0" class="a"/>
   <path stroke="null" id="svg_3" d="m23.2265,27.70793a0.89711,0.89711 0 0 1 -0.63931,-0.26474l-4.82543,-4.82543a0.9052,0.9052 0 0 1 0,-1.27977l4.82543,-4.82543a0.9052,0.9052 0 0 1 1.27977,1.27977l-4.18612,4.18612l4.18612,4.18612a0.90405,0.90405 0 0 1 -0.64046,1.54451l0,-0.00116zm0,0" class="a"/>
   <path stroke="null" id="svg_4" d="m22.31668,35.24781a13.26935,13.26935 0 1 1 12.35028,-18.12484a0.9052,0.9052 0 1 1 -1.68439,0.66243a11.4601,11.4601 0 1 0 0,8.38496a0.9052,0.9052 0 1 1 1.68439,0.66243a13.2023,13.2023 0 0 1 -12.35028,8.41502zm0,0" class="a"/>
  </g>
 </g>
</svg>