<svg xmlns="http://www.w3.org/2000/svg" width="24" height="22.957" viewBox="0 0 24 22.957"><defs><style>.a{fill:#698a48;}</style></defs><g transform="translate(0 -0.332)"><path class="a" d="M165.245,220.565H150.115a.783.783,0,0,1,0-1.565h15.131a.783.783,0,1,1,0,1.565Zm0,0" transform="translate(-142.028 -207.972)"/><path class="a" d="M154.3,143.566a.776.776,0,0,1-.553-.229l-4.174-4.174a.783.783,0,0,1,0-1.107l4.174-4.174a.783.783,0,0,1,1.107,1.107l-3.621,3.621,3.621,3.621a.782.782,0,0,1-.554,1.336Zm0,0" transform="translate(-142.035 -126.799)"/><path class="a" d="M11.478,23.289A11.478,11.478,0,1,1,22.161,7.611a.783.783,0,1,1-1.457.573,9.913,9.913,0,1,0,0,7.253.783.783,0,1,1,1.457.573A11.42,11.42,0,0,1,11.478,23.289Zm0,0"/></g></svg>