<svg id="Capa_1" data-name="Capa 1" xmlns="http://www.w3.org/2000/svg" viewBox="0 0 579.68 319.64"><defs><style>.cls-1{fill:#94ad46;}.cls-2{fill:#638c1c;}.cls-3{fill:#68abe4;}.cls-4{fill:#1d9add;}.cls-5{fill:#f5a706;}.cls-6{fill:#ef8903;}</style></defs><path class="cls-1" d="M197.67,226.9c-.14,7.42,3,17.78,11.39,26.16a39,39,0,0,0,9.6,7,132,132,0,0,0-1.52,39.4l8-.42a108.89,108.89,0,0,1-1.79-36.88c33.62,12.55,86.15-16.39,45.3-135.79-4.21,53.36-70.11,49.74-71,100.55" transform="translate(-197.66 -126.35)"/><path class="cls-2" d="M197.67,226.9c-.14,7.42,3,17.78,11.39,26.16a39,39,0,0,0,9.6,7,119.33,119.33,0,0,1,7.6-24.59c-5.44-8.57-11.09-25.26-10.81-36.85h0a133.44,133.44,0,0,0,12.84,32.29,194.71,194.71,0,0,1,13.87-23.77c-5.48-8.28-6.9-21.9-6.81-24.56,0,0,.07,0,.08-.05a87.48,87.48,0,0,0,9.24,20.84A232,232,0,0,0,257.77,182c-2.49-5.08-4.12-13-3.94-15.6A38.29,38.29,0,0,0,260,177.28a99.25,99.25,0,0,0,8.76-23.64,91.77,91.77,0,0,0-.1-27.29c-4.21,53.36-70.11,49.74-71,100.55" transform="translate(-197.66 -126.35)"/><path class="cls-3" d="M249,226.9c-.13,7.42,3,17.78,11.4,26.16,28.61,28.62,107,11.9,59.62-126.71-4.21,53.36-70.09,49.74-71,100.55" transform="translate(-197.66 -126.35)"/><path class="cls-4" d="M249,226.9c-.13,7.42,3,17.78,11.4,26.16,1,1,2.07,1.92,3.17,2.82,14.47-11.79,24.06-36,18.2-77.24C265.24,190.4,249.48,202.23,249,226.9" transform="translate(-197.66 -126.35)"/><path class="cls-5" d="M301,226.9c-.14,7.42,3,17.78,11.39,26.16C341,281.68,419.4,265,372,126.35c-4.21,53.36-70.08,49.74-71,100.55" transform="translate(-197.66 -126.35)"/><path class="cls-6" d="M301,226.9c-.14,7.42,3,17.78,11.39,26.16a35.51,35.51,0,0,0,2.88,2.58c14.25-11.83,23.67-35.88,18-76.62-16.37,11.63-31.8,23.5-32.24,47.88" transform="translate(-197.66 -126.35)"/><path class="cls-2" d="M278.44,444.88h-29V400.74h29v5.73H257v13h18.72V425H257v14.14h21.42Z" transform="translate(-197.66 -126.35)"/><path class="cls-2" d="M310.71,444.88H284.24V400.74h7.54v38.35h18.93Z" transform="translate(-197.66 -126.35)"/><path class="cls-2" d="M344.44,444.88h-29V400.74h29v5.73H323v13h18.73V425H323v14.14h21.43Z" transform="translate(-197.66 -126.35)"/><path class="cls-2" d="M357.77,444.88h-7.53V400.74h7.53Zm26.82,0h-9l-17.76-22.62,16.86-21.52H382l-16.45,19.94Z" transform="translate(-197.66 -126.35)"/><path class="cls-2" d="M422.6,406.47H408.08v38.41h-7.53V406.47H386v-5.73H422.6Z" transform="translate(-197.66 -126.35)"/><path class="cls-2" d="M460.88,444.88h-9.67L437.8,425.5l-3-.2v19.58h-7.53V400.74h17.44a14.59,14.59,0,0,1,9.24,2.9,10.1,10.1,0,0,1,4.07,8.48,12.11,12.11,0,0,1-3.18,8.8,14.24,14.24,0,0,1-8.78,4Zm-10.57-31.75q0-6.87-8.3-6.87-2.42,0-7.25.21v14.62c3.13.23,5,.35,5.6.35a11.06,11.06,0,0,0,6.84-2.13A7.25,7.25,0,0,0,450.31,413.13Z" transform="translate(-197.66 -126.35)"/><path class="cls-2" d="M505.73,422.33q0,10-5.25,16.55Q494.81,446,485.07,446q-10,0-15.62-7-5.25-6.48-5.25-16.62t5.25-16.21q5.52-6.48,15.55-6.48t15.62,6.42Q505.73,412.06,505.73,422.33Zm-7.53,0q0-7.17-2.91-11.58Q491.9,405.5,485,405.5t-10.39,5.18q-2.91,4.41-2.91,11.65,0,7.51,2.77,12.42a12.13,12.13,0,0,0,20.93,0Q498.19,429.92,498.2,422.33Z" transform="translate(-197.66 -126.35)"/><path class="cls-2" d="M752,300.07H739.09l-23.08,57h12.41l4.52-11.92h26.89l3.33,8c.77,1.83,1.63,3.91,5.6,3.91h8.58l-25.38-57Zm-15.78,36.52,9.46-25,10.56,25Z" transform="translate(-197.66 -126.35)"/><polygon class="cls-2" points="128.34 205.16 155.87 205.16 155.87 197.41 128.34 197.41 128.34 181.46 157.19 181.46 157.19 173.72 116.59 173.72 116.59 230.7 157.81 230.7 157.81 222.95 128.34 222.95 128.34 205.16 128.34 205.16"/><polygon class="cls-2" points="240.49 205.16 268.02 205.16 268.02 197.41 240.49 197.41 240.49 181.46 269.34 181.46 269.34 173.72 228.74 173.72 228.74 230.7 269.96 230.7 269.96 222.95 240.49 222.95 240.49 205.16 240.49 205.16"/><polygon class="cls-2" points="500.24 173.72 500.24 230.7 512.23 230.7 512.23 173.72 500.24 173.72 500.24 173.72"/><path class="cls-2" d="M668.12,330.43c0,1.78,1.41,3.67,5.28,3.67h4.13l0,12.28a19.75,19.75,0,0,1-8.35,1.67c-11.35,0-17.87-7.11-17.87-19.5,0-11.59,5.82-19.53,17.9-19.53a55,55,0,0,1,13.71,1.89v-9.14a58.38,58.38,0,0,0-13.78-1.7c-20.94,0-29.69,14.92-29.69,28.48,0,14.2,9.19,28.5,29.73,28.5,8.48,0,15.49-3.15,19.82-7.1v-23.2H673.34c-4.85,0-5.22,2.82-5.22,3.68Z" transform="translate(-197.66 -126.35)"/><path class="cls-2" d="M389.32,300.07c-20.54,0-29.71,14.32-29.71,28.49s9.17,28.49,29.71,28.49c20.36,0,29.61-14.77,29.61-28.49,0-14.17-9.15-28.49-29.61-28.49Zm0,48c-11.34,0-17.85-7.12-17.85-19.5s6.51-19.48,17.85-19.48,17.75,7.1,17.75,19.48-6.45,19.5-17.75,19.5Z" transform="translate(-197.66 -126.35)"/><path class="cls-2" d="M619.23,330.76c4.33-1.31,11.87-5,11.87-15,0-7.79-6.21-15.67-18.08-15.67H587.66v57h11.75V307.8h9.26c8.91,0,10.24,5.3,10.24,8.46,0,5.26-3.79,8.55-9.89,8.55-3.95,0-6.22,1.55-6.22,4.15,0,1.46.93,3.36,5.28,4,5.38.84,7.55,6.09,10.31,12.72,0,0,2.38,5.61,3.2,7.42s1.54,3.91,5.62,3.91h9.15l-4-8.7c-4.05-8.94-7.27-14.21-13.09-17.58Z" transform="translate(-197.66 -126.35)"/><path class="cls-2" d="M293.1,300.07v39l-31.3-39H249.44v57h11.74V315.38s25.07,32.61,31.2,40.1a5.14,5.14,0,0,0,4.05,1.57h8.45v-57Z" transform="translate(-197.66 -126.35)"/><polygon class="cls-2" points="353.71 205.16 381.24 205.16 381.24 197.41 353.71 197.41 353.71 181.46 382.57 181.46 382.57 173.72 341.97 173.72 341.97 230.7 383.19 230.7 383.19 222.95 353.71 222.95 353.71 205.16 353.71 205.16"/><path class="cls-2" d="M518.6,300.07v39l-31.3-39H474.94v57h11.74V315.38s25.07,32.61,31.2,40.1a5.16,5.16,0,0,0,4,1.57h8.45v-57Z" transform="translate(-197.66 -126.35)"/></svg>