<svg xmlns="http://www.w3.org/2000/svg" width="20.967" height="27.647" viewBox="0 0 20.967 27.647">
  <g id="XMLID_1487_" transform="translate(-61.857 0.001)">
    <g id="XMLID_1153_" transform="translate(61.857 -0.001)">
      <path id="XMLID_1329_" d="M81.549,15.332,77.421,8.86a1.835,1.835,0,0,0-.171-3.331L78.5,1.157a.54.54,0,0,0-.137-.53,2.136,2.136,0,0,0-3.017,0A1.047,1.047,0,0,1,74.6.935a1.047,1.047,0,0,1-.746-.31l0,0a2.138,2.138,0,0,0-3.012,0l-.016.015a1.055,1.055,0,0,1-1.487,0l0,0a2.136,2.136,0,0,0-3.017,0,.54.54,0,0,0-.137.531l1.253,4.371a1.835,1.835,0,0,0-.174,3.332l-4.128,6.471a8.008,8.008,0,0,0,6.752,12.315H74.8a8.008,8.008,0,0,0,6.752-12.315ZM68.57,1.39l0,0a2.138,2.138,0,0,0,3.012,0l.016-.015a1.056,1.056,0,0,1,1.489,0l0,0a2.136,2.136,0,0,0,3.017,0,1.055,1.055,0,0,1,1.252-.179L76.165,5.4H68.519l-1.2-4.186a1.055,1.055,0,0,1,1.252.179Zm12.3,21.579a6.838,6.838,0,0,1-6.075,3.6H69.882a6.928,6.928,0,0,1-5.841-10.654L68.406,9.07h1.5a.54.54,0,0,0,0-1.08h-1.8a.756.756,0,1,1,0-1.512h8.46a.756.756,0,1,1,0,1.512h-1.8a.54.54,0,1,0,0,1.08h1.5l4.365,6.842a6.838,6.838,0,0,1,.234,7.057Z" transform="translate(-61.857 0.001)" fill="#00A443"/>
      <path id="XMLID_1341_" d="M212.1,242.755c-.135-.048-.274-.1-.412-.15v-2.447a2.22,2.22,0,0,1,.621.29.54.54,0,0,0,.65-.863,3.3,3.3,0,0,0-1.271-.538v-.537a.54.54,0,0,0-1.08,0v.534a2.8,2.8,0,0,0-.278.068,2.163,2.163,0,0,0-1.483,1.7,1.907,1.907,0,0,0,.624,1.88,5.2,5.2,0,0,0,1.136.646v3.132a2.159,2.159,0,0,1-1.184-.434.54.54,0,0,0-.591.9,3.188,3.188,0,0,0,1.775.611v.558a.54.54,0,0,0,1.08,0v-.615a2.6,2.6,0,0,0,1.984-2.121A2.284,2.284,0,0,0,212.1,242.755Zm-1.962-.917a.842.842,0,0,1-.23-.83,1.1,1.1,0,0,1,.7-.851v1.978A3.236,3.236,0,0,1,210.134,241.838Zm2.469,3.352a1.548,1.548,0,0,1-.919,1.17v-2.6l.052.019A1.222,1.222,0,0,1,212.6,245.19Z" transform="translate(-200.66 -225.119)" fill="#00A443"/>
      <path id="XMLID_1343_" d="M246.525,149.049a.54.54,0,1,0-.382-.158A.544.544,0,0,0,246.525,149.049Z" transform="translate(-236.042 -139.978)" fill="#00A443"/>
    </g>
  </g>
</svg>
