<svg xmlns="http://www.w3.org/2000/svg" xmlns:xlink="http://www.w3.org/1999/xlink" width="453.592" height="322.903" viewBox="0 0 453.592 322.903">
  <defs>
    <linearGradient id="linear-gradient" y1="0.5" x2="1" y2="0.5" gradientUnits="objectBoundingBox">
      <stop offset="0" stop-color="#29323c"/>
      <stop offset="1" stop-color="#485563"/>
    </linearGradient>
    <linearGradient id="linear-gradient-2" y1="0.5" x2="1" y2="0.5" gradientUnits="objectBoundingBox">
      <stop offset="0" stop-color="#485563"/>
      <stop offset="1" stop-color="#29323c"/>
    </linearGradient>
    <linearGradient id="linear-gradient-3" x1="-1.096" x2="2.096" xlink:href="#linear-gradient-2"/>
    <linearGradient id="linear-gradient-4" x1="0.5" y1="0.041" x2="0.5" y2="1.031" xlink:href="#linear-gradient-2"/>
    <linearGradient id="linear-gradient-7" x1="0.776" y1="1.738" x2="0.224" y2="-1.186" gradientUnits="objectBoundingBox">
      <stop offset="0" stop-color="#95b43d"/>
      <stop offset="1" stop-color="#3f6d36"/>
    </linearGradient>
    <linearGradient id="linear-gradient-8" x1="0.752" y1="2.541" x2="0.248" y2="-2.204" gradientUnits="objectBoundingBox">
      <stop offset="0" stop-color="#e35e23"/>
      <stop offset="1" stop-color="#eea22f"/>
    </linearGradient>
    <linearGradient id="linear-gradient-9" x1="0.369" y1="1.725" x2="0.631" y2="-0.724" gradientUnits="objectBoundingBox">
      <stop offset="0" stop-color="#95b43d"/>
      <stop offset="0.344" stop-color="#3f6d36"/>
      <stop offset="1" stop-color="#25572e"/>
    </linearGradient>
    <linearGradient id="linear-gradient-10" x1="0.754" y1="2.022" x2="0.246" y2="-1.022" gradientUnits="objectBoundingBox">
      <stop offset="0" stop-color="#95b43d"/>
      <stop offset="1" stop-color="#95b43d"/>
    </linearGradient>
    <linearGradient id="linear-gradient-11" y1="0.5" x2="1" y2="0.5" gradientUnits="objectBoundingBox">
      <stop offset="0" stop-color="#95b43d"/>
      <stop offset="0.251" stop-color="#95b43d"/>
      <stop offset="0.641" stop-color="#95b43d"/>
      <stop offset="1" stop-color="#3f6d36"/>
    </linearGradient>
    <linearGradient id="linear-gradient-13" x1="0.752" y1="2.541" x2="0.248" y2="-2.204" xlink:href="#linear-gradient-8"/>
    <linearGradient id="linear-gradient-16" x1="0.776" y1="1.738" x2="0.224" y2="-1.186" xlink:href="#linear-gradient-7"/>
    <linearGradient id="linear-gradient-17" x1="0.752" y1="2.541" x2="0.248" y2="-2.204" xlink:href="#linear-gradient-8"/>
    <linearGradient id="linear-gradient-19" x1="0.754" y1="2.022" x2="0.246" y2="-1.022" xlink:href="#linear-gradient-8"/>
    <linearGradient id="linear-gradient-24" x1="0.754" y1="2.022" x2="0.246" y2="-1.022" xlink:href="#linear-gradient-8"/>
    <linearGradient id="linear-gradient-25" y1="0.5" x2="1" y2="0.5" gradientUnits="objectBoundingBox">
      <stop offset="0" stop-color="#95b43d"/>
      <stop offset="0.251" stop-color="#95b43d"/>
      <stop offset="0.641" stop-color="#3f6d36"/>
      <stop offset="1" stop-color="#3f6d36"/>
    </linearGradient>
    <linearGradient id="linear-gradient-29" x1="0.754" y1="2.022" x2="0.246" y2="-1.022" xlink:href="#linear-gradient-8"/>
    <linearGradient id="linear-gradient-32" x1="0.752" y1="2.541" x2="0.248" y2="-2.204" xlink:href="#linear-gradient-8"/>
    <linearGradient id="linear-gradient-39" x1="66.655" y1="4.388" x2="67.573" y2="4.388" gradientUnits="objectBoundingBox">
      <stop offset="0"/>
      <stop offset="1" stop-color="#4d4d4d"/>
    </linearGradient>
    <linearGradient id="linear-gradient-40" y1="0.5" x2="1" y2="0.5" gradientUnits="objectBoundingBox">
      <stop offset="0" stop-color="#4d4d4d"/>
      <stop offset="1"/>
    </linearGradient>
    <linearGradient id="linear-gradient-41" y1="0.5" x2="1" y2="0.5" gradientUnits="objectBoundingBox">
      <stop offset="0" stop-color="#eea22f"/>
      <stop offset="1" stop-color="#e35e23"/>
    </linearGradient>
    <linearGradient id="linear-gradient-42" x1="0" y1="0.5" x2="1" y2="0.5" xlink:href="#linear-gradient-41"/>
    <linearGradient id="linear-gradient-43" y1="0.5" x2="1" y2="0.5" gradientUnits="objectBoundingBox">
      <stop offset="0" stop-color="#fff"/>
      <stop offset="1" stop-color="#dfe9f3"/>
    </linearGradient>
    <linearGradient id="linear-gradient-44" x1="-0.125" y1="0.978" x2="0.818" y2="0.978" gradientUnits="objectBoundingBox">
      <stop offset="0" stop-color="#c1e5f4"/>
      <stop offset="1" stop-color="#a3bee3"/>
    </linearGradient>
    <linearGradient id="linear-gradient-45" x1="-0.845" y1="3.284" x2="0.227" y2="3.284" gradientUnits="objectBoundingBox">
      <stop offset="0" stop-color="#6b73ff"/>
      <stop offset="1" stop-color="#0792E5"/>
    </linearGradient>
    <linearGradient id="linear-gradient-48" x1="-9.355" y1="-2.302" x2="10.355" y2="-2.302" xlink:href="#linear-gradient-44"/>
    <linearGradient id="linear-gradient-49" x1="-10.867" y1="-1.646" x2="11.867" y2="-1.646" xlink:href="#linear-gradient-44"/>
    <linearGradient id="linear-gradient-50" x1="-11.39" y1="-1.321" x2="12.39" y2="-1.321" xlink:href="#linear-gradient-44"/>
    <linearGradient id="linear-gradient-51" x1="-12.087" y1="-1.159" x2="13.087" y2="-1.159" xlink:href="#linear-gradient-44"/>
    <linearGradient id="linear-gradient-52" x1="-12.675" y1="-0.856" x2="13.675" y2="-0.856" xlink:href="#linear-gradient-44"/>
    <linearGradient id="linear-gradient-53" x1="-11.547" y1="-0.652" x2="12.547" y2="-0.652" xlink:href="#linear-gradient-44"/>
    <linearGradient id="linear-gradient-54" x1="-13.201" y1="0.339" x2="14.201" y2="0.339" xlink:href="#linear-gradient-44"/>
    <linearGradient id="linear-gradient-55" x1="-12.539" y1="-0.179" x2="13.539" y2="-0.179" xlink:href="#linear-gradient-44"/>
    <linearGradient id="linear-gradient-56" x1="-13.062" y1="0.946" x2="14.062" y2="0.946" xlink:href="#linear-gradient-44"/>
    <linearGradient id="linear-gradient-57" x1="0" y1="0.5" x2="1" y2="0.5" xlink:href="#linear-gradient-41"/>
    <linearGradient id="linear-gradient-59" x1="-32.811" y1="4.334" x2="-31.812" y2="4.334" gradientUnits="objectBoundingBox">
      <stop offset="0" stop-color="#00A443"/>
      <stop offset="1" stop-color="#799326"/>
    </linearGradient>
  </defs>
  <g id="Grupo_12529" data-name="Grupo 12529" transform="translate(-568.737 -494.543)">
    <path id="Caminho_10255" data-name="Caminho 10255" d="M804.783,743.523a5.624,5.624,0,0,1-1.867,3.885c-7.579,7.754-37.358,13.522-72.939,13.522-33.1,0-61.179-5-71.036-11.943-2.446-1.714-3.768-3.547-3.768-5.464,0-1.815,1.206-3.579,3.443-5.225,9.551-7.058,37.888-12.182,71.36-12.182,35.946,0,65.97,5.9,73.165,13.777A5.382,5.382,0,0,1,804.783,743.523Z" transform="translate(21.095 56.517)" fill="#f0f0f0"/>
    <g id="Grupo_12481" data-name="Grupo 12481" transform="translate(658.706 494.543)">
      <rect id="Retângulo_17740" data-name="Retângulo 17740" width="198.764" height="278.27" rx="15.977" transform="translate(19.876)" fill="url(#linear-gradient)"/>
      <rect id="Retângulo_17741" data-name="Retângulo 17741" width="198.764" height="278.27" rx="15.977" fill="url(#linear-gradient-2)"/>
      <g id="Grupo_12479" data-name="Grupo 12479" transform="translate(19.876 100.695)">
        <rect id="Retângulo_17742" data-name="Retângulo 17742" width="34.535" height="23.84" rx="3.994" transform="translate(82.984 61.593)" fill="#ecf2fa"/>
        <rect id="Retângulo_17743" data-name="Retângulo 17743" width="34.535" height="23.84" rx="3.994" transform="translate(82.984 92.39)" fill="#ecf2fa"/>
        <rect id="Retângulo_17744" data-name="Retângulo 17744" width="34.535" height="23.84" rx="3.994" transform="translate(82.984 30.797)" fill="#ecf2fa"/>
        <rect id="Retângulo_17745" data-name="Retângulo 17745" width="34.535" height="23.84" rx="3.994" transform="translate(41.492 92.39)" fill="#ecf2fa"/>
        <rect id="Retângulo_17746" data-name="Retângulo 17746" width="34.535" height="23.84" rx="3.994" transform="translate(41.492 30.797)" fill="#ecf2fa"/>
        <rect id="Retângulo_17747" data-name="Retângulo 17747" width="34.535" height="23.84" rx="3.994" transform="translate(124.476)" fill="#00A443"/>
        <rect id="Retângulo_17748" data-name="Retângulo 17748" width="34.535" height="23.84" rx="3.994" transform="translate(0 123.186)" fill="#ecf2fa"/>
        <rect id="Retângulo_17749" data-name="Retângulo 17749" width="34.535" height="23.84" rx="3.994" transform="translate(41.492 61.593)" fill="#ecf2fa"/>
        <rect id="Retângulo_17750" data-name="Retângulo 17750" width="34.535" height="54.636" rx="3.994" transform="translate(124.476 92.39)" fill="#ecf2fa"/>
        <rect id="Retângulo_17751" data-name="Retângulo 17751" width="34.535" height="23.84" rx="3.994" transform="translate(82.984 123.186)" fill="#ecf2fa"/>
        <rect id="Retângulo_17752" data-name="Retângulo 17752" width="34.535" height="23.84" rx="3.994" transform="translate(124.476 30.797)" fill="#ecf2fa"/>
        <rect id="Retângulo_17753" data-name="Retângulo 17753" width="34.535" height="23.84" rx="3.994" transform="translate(124.476 61.593)" fill="#ecf2fa"/>
        <rect id="Retângulo_17754" data-name="Retângulo 17754" width="34.535" height="23.84" rx="3.994" transform="translate(0 92.39)" fill="#ecf2fa"/>
        <rect id="Retângulo_17755" data-name="Retângulo 17755" width="34.535" height="23.84" rx="3.994" transform="translate(0 30.797)" fill="#ecf2fa"/>
        <rect id="Retângulo_17756" data-name="Retângulo 17756" width="34.535" height="23.84" rx="3.994" transform="translate(0 61.593)" fill="#ecf2fa"/>
        <rect id="Retângulo_17757" data-name="Retângulo 17757" width="34.535" height="23.84" rx="3.994" fill="#ecf2fa"/>
        <rect id="Retângulo_17758" data-name="Retângulo 17758" width="34.535" height="23.84" rx="3.994" transform="translate(41.492 123.186)" fill="#ecf2fa"/>
      </g>
      <g id="Grupo_12480" data-name="Grupo 12480" transform="translate(20.501 101.319)" style="mix-blend-mode: multiply;isolation: isolate">
        <path id="Caminho_10256" data-name="Caminho 10256" d="M722.185,675.006a4.891,4.891,0,0,1,.626,2.356v13.9a4.984,4.984,0,0,1-4.97,4.969h-24.6a4.893,4.893,0,0,1-2.357-.624,4.963,4.963,0,0,0,4.344,2.612h24.6a4.984,4.984,0,0,0,4.969-4.969v-13.9A4.959,4.959,0,0,0,722.185,675.006Z" transform="translate(-649.395 -551.82)" fill="#dfe9f3"/>
        <path id="Caminho_10257" data-name="Caminho 10257" d="M688.833,575.986a4.891,4.891,0,0,1,.625,2.356v13.9a4.983,4.983,0,0,1-4.969,4.969h-24.6a4.893,4.893,0,0,1-2.356-.625,4.961,4.961,0,0,0,4.344,2.612h24.6a4.983,4.983,0,0,0,4.969-4.969v-13.9A4.961,4.961,0,0,0,688.833,575.986Z" transform="translate(-657.535 -575.986)" fill="#dfe9f3"/>
        <path id="Caminho_10258" data-name="Caminho 10258" d="M722.185,625.5a4.891,4.891,0,0,1,.626,2.356v13.9a4.984,4.984,0,0,1-4.97,4.969h-24.6a4.892,4.892,0,0,1-2.357-.625,4.963,4.963,0,0,0,4.344,2.612h24.6a4.984,4.984,0,0,0,4.969-4.969v-13.9A4.96,4.96,0,0,0,722.185,625.5Z" transform="translate(-649.395 -563.903)" fill="#dfe9f3"/>
        <path id="Caminho_10259" data-name="Caminho 10259" d="M688.833,675.006a4.891,4.891,0,0,1,.625,2.356v13.9a4.983,4.983,0,0,1-4.969,4.969h-24.6a4.892,4.892,0,0,1-2.356-.624,4.964,4.964,0,0,0,4.344,2.612h24.6a4.984,4.984,0,0,0,4.969-4.969v-13.9A4.959,4.959,0,0,0,688.833,675.006Z" transform="translate(-657.535 -551.82)" fill="#dfe9f3"/>
        <path id="Caminho_10260" data-name="Caminho 10260" d="M722.185,650.251a4.891,4.891,0,0,1,.626,2.356v13.9a4.984,4.984,0,0,1-4.97,4.969h-24.6a4.891,4.891,0,0,1-2.357-.625,4.963,4.963,0,0,0,4.344,2.612h24.6a4.984,4.984,0,0,0,4.969-4.97V654.6A4.961,4.961,0,0,0,722.185,650.251Z" transform="translate(-649.395 -557.861)" fill="#dfe9f3"/>
        <path id="Caminho_10261" data-name="Caminho 10261" d="M688.833,600.741a4.891,4.891,0,0,1,.625,2.356V617a4.983,4.983,0,0,1-4.969,4.969h-24.6a4.892,4.892,0,0,1-2.356-.625,4.961,4.961,0,0,0,4.344,2.613h24.6a4.984,4.984,0,0,0,4.969-4.969v-13.9A4.961,4.961,0,0,0,688.833,600.741Z" transform="translate(-657.535 -569.944)" fill="#dfe9f3"/>
        <path id="Caminho_10262" data-name="Caminho 10262" d="M688.833,650.251a4.891,4.891,0,0,1,.625,2.356v13.9a4.983,4.983,0,0,1-4.969,4.969h-24.6a4.891,4.891,0,0,1-2.356-.625,4.963,4.963,0,0,0,4.344,2.612h24.6a4.984,4.984,0,0,0,4.969-4.97V654.6A4.961,4.961,0,0,0,688.833,650.251Z" transform="translate(-657.535 -557.861)" fill="#dfe9f3"/>
        <path id="Caminho_10263" data-name="Caminho 10263" d="M688.833,625.5a4.892,4.892,0,0,1,.625,2.356v13.9a4.983,4.983,0,0,1-4.969,4.969h-24.6a4.891,4.891,0,0,1-2.356-.625,4.964,4.964,0,0,0,4.344,2.612h24.6a4.984,4.984,0,0,0,4.969-4.969v-13.9A4.96,4.96,0,0,0,688.833,625.5Z" transform="translate(-657.535 -563.903)" fill="#dfe9f3"/>
        <path id="Caminho_10264" data-name="Caminho 10264" d="M755.538,600.741a4.906,4.906,0,0,1,.625,2.356V617a4.984,4.984,0,0,1-4.969,4.969H726.6a4.9,4.9,0,0,1-2.357-.625,4.963,4.963,0,0,0,4.345,2.613h24.6a4.985,4.985,0,0,0,4.97-4.969v-13.9A4.964,4.964,0,0,0,755.538,600.741Z" transform="translate(-641.255 -569.944)" fill="#dfe9f3"/>
        <path id="Caminho_10265" data-name="Caminho 10265" d="M788.89,625.5a4.891,4.891,0,0,1,.625,2.356v13.9a4.983,4.983,0,0,1-4.969,4.969h-24.6a4.891,4.891,0,0,1-2.356-.625,4.962,4.962,0,0,0,4.344,2.612h24.6a4.985,4.985,0,0,0,4.97-4.969v-13.9A4.962,4.962,0,0,0,788.89,625.5Z" transform="translate(-633.115 -563.903)" fill="#dfe9f3"/>
        <path id="Caminho_10266" data-name="Caminho 10266" d="M788.89,650.251a4.891,4.891,0,0,1,.625,2.356v44.7a4.983,4.983,0,0,1-4.969,4.969h-24.6a4.891,4.891,0,0,1-2.356-.624,4.962,4.962,0,0,0,4.344,2.613h24.6a4.985,4.985,0,0,0,4.97-4.969V654.6A4.963,4.963,0,0,0,788.89,650.251Z" transform="translate(-633.115 -557.861)" fill="#dfe9f3"/>
        <path id="Caminho_10267" data-name="Caminho 10267" d="M788.89,600.741a4.891,4.891,0,0,1,.625,2.356V617a4.983,4.983,0,0,1-4.969,4.969h-24.6a4.891,4.891,0,0,1-2.356-.625,4.96,4.96,0,0,0,4.344,2.613h24.6a4.985,4.985,0,0,0,4.97-4.969v-13.9A4.963,4.963,0,0,0,788.89,600.741Z" transform="translate(-633.115 -569.944)" fill="#dfe9f3"/>
        <path id="Caminho_10268" data-name="Caminho 10268" d="M722.185,600.741a4.891,4.891,0,0,1,.626,2.356V617a4.984,4.984,0,0,1-4.97,4.969h-24.6a4.893,4.893,0,0,1-2.357-.625,4.961,4.961,0,0,0,4.344,2.613h24.6a4.984,4.984,0,0,0,4.969-4.969v-13.9A4.961,4.961,0,0,0,722.185,600.741Z" transform="translate(-649.395 -569.944)" fill="#dfe9f3"/>
        <path id="Caminho_10269" data-name="Caminho 10269" d="M788.89,575.986a4.891,4.891,0,0,1,.625,2.356v13.9a4.983,4.983,0,0,1-4.969,4.969h-24.6a4.892,4.892,0,0,1-2.356-.625,4.96,4.96,0,0,0,4.344,2.612h24.6a4.984,4.984,0,0,0,4.97-4.969v-13.9A4.963,4.963,0,0,0,788.89,575.986Z" transform="translate(-633.115 -575.986)" fill="#f8e388" style="mix-blend-mode: multiply;isolation: isolate"/>
        <path id="Caminho_10270" data-name="Caminho 10270" d="M755.538,625.5a4.907,4.907,0,0,1,.625,2.356v13.9a4.984,4.984,0,0,1-4.969,4.969H726.6a4.9,4.9,0,0,1-2.357-.625,4.965,4.965,0,0,0,4.345,2.612h24.6a4.985,4.985,0,0,0,4.97-4.969v-13.9A4.962,4.962,0,0,0,755.538,625.5Z" transform="translate(-641.255 -563.903)" fill="#dfe9f3"/>
        <path id="Caminho_10271" data-name="Caminho 10271" d="M755.538,675.006a4.906,4.906,0,0,1,.625,2.356v13.9a4.984,4.984,0,0,1-4.969,4.969H726.6a4.9,4.9,0,0,1-2.357-.624,4.965,4.965,0,0,0,4.345,2.612h24.6a4.985,4.985,0,0,0,4.97-4.969v-13.9A4.962,4.962,0,0,0,755.538,675.006Z" transform="translate(-641.255 -551.82)" fill="#dfe9f3"/>
        <path id="Caminho_10272" data-name="Caminho 10272" d="M755.538,650.251a4.906,4.906,0,0,1,.625,2.356v13.9a4.984,4.984,0,0,1-4.969,4.969H726.6a4.895,4.895,0,0,1-2.357-.625,4.965,4.965,0,0,0,4.345,2.612h24.6a4.985,4.985,0,0,0,4.97-4.97V654.6A4.964,4.964,0,0,0,755.538,650.251Z" transform="translate(-641.255 -557.861)" fill="#dfe9f3"/>
      </g>
    </g>
    <g id="Grupo_12483" data-name="Grupo 12483" transform="translate(674.607 521.131)">
      <rect id="Retângulo_17759" data-name="Retângulo 17759" width="51.679" height="164.974" transform="translate(164.974 0) rotate(90)" fill="url(#linear-gradient-3)" style="mix-blend-mode: multiply;isolation: isolate"/>
      <rect id="Retângulo_17760" data-name="Retângulo 17760" width="159.011" height="45.716" transform="translate(3.975 3.975)" fill="#ecf2fa"/>
      <path id="Caminho_10273" data-name="Caminho 10273" d="M662,524.079H816.044V519.11H657.033v45.716H662Z" transform="translate(-653.058 -515.135)" fill="#dfe9f3" style="mix-blend-mode: multiply;isolation: isolate"/>
      <g id="Grupo_12482" data-name="Grupo 12482" transform="translate(87.953 10.556)">
        <path id="Caminho_10274" data-name="Caminho 10274" d="M761.445,529.37a2.485,2.485,0,0,0,0-4.97H746.523a2.485,2.485,0,0,0-2.484,2.486V556.7a2.484,2.484,0,0,0,2.484,2.484h14.921a2.484,2.484,0,0,0,2.484-2.484V541.778a2.484,2.484,0,0,0-2.484-2.484H749.008V529.37Zm-12.437,24.845v-9.924h9.952v9.924Z" transform="translate(-719.776 -524.4)" fill="url(#linear-gradient-4)"/>
        <path id="Caminho_10275" data-name="Caminho 10275" d="M741.943,524.4H727.02a2.485,2.485,0,0,0,0,4.97h12.438v9.924H727.02a2.484,2.484,0,0,0-2.484,2.484V556.7a2.484,2.484,0,0,0,2.484,2.484h14.922a2.484,2.484,0,1,0,0-4.969H729.506v-9.924h12.437a2.485,2.485,0,0,0,2.484-2.486v-14.92A2.485,2.485,0,0,0,741.943,524.4Z" transform="translate(-724.536 -524.4)" fill="url(#linear-gradient-4)"/>
        <path id="Caminho_10276" data-name="Caminho 10276" d="M780.947,524.4H766.025a2.485,2.485,0,0,0-2.484,2.486V556.7a2.484,2.484,0,0,0,2.484,2.484h14.921a2.484,2.484,0,0,0,2.484-2.484V526.886A2.485,2.485,0,0,0,780.947,524.4Zm-2.484,4.97v9.924H768.51V529.37Zm-9.953,24.845v-9.924h9.953v9.924Z" transform="translate(-715.017 -524.4)" fill="url(#linear-gradient-4)"/>
      </g>
    </g>
    <g id="Grupo_12506" data-name="Grupo 12506" transform="translate(846.916 696.802)">
      <path id="Caminho_10277" data-name="Caminho 10277" d="M962.694,743.523a5.624,5.624,0,0,1-1.867,3.885c-7.579,7.754-37.358,13.522-72.939,13.522-33.1,0-61.179-5-71.034-11.943-2.446-1.714-3.77-3.547-3.77-5.464,0-1.815,1.206-3.579,3.445-5.225,9.549-7.058,37.886-12.182,71.359-12.182,35.946,0,65.97,5.9,73.165,13.777A5.383,5.383,0,0,1,962.694,743.523Z" transform="translate(-787.281 -640.285)" fill="#f0f0f0"/>
      <g id="Grupo_12505" data-name="Grupo 12505">
        <g id="Grupo_12486" data-name="Grupo 12486" transform="translate(38.4 78.71)">
          <g id="Grupo_12485" data-name="Grupo 12485">
            <path id="Caminho_10278" data-name="Caminho 10278" d="M943.989,729.439V741c0,2.6-4.888,5.052-13.046,6.965-.442.115-.9.212-1.357.31-.834.2-1.7.361-2.584.54-2.55.474-5.33.948-8.321,1.325-.082.016-.18.016-.261.032-1.881.245-3.843.474-5.869.7a287.2,287.2,0,0,1-28.957,1.373,293.989,293.989,0,0,1-29.936-1.472c-1.456-.163-2.894-.31-4.267-.49-.508-.066-1-.147-1.488-.213-2.568-.36-4.938-.735-7.146-1.145-1.454-.277-2.844-.556-4.136-.867-.343-.081-.669-.147-.98-.245-7.8-1.88-12.426-4.267-12.426-6.818V729.439c0,2.55,4.627,4.92,12.426,6.817.311.081.637.147.98.229,1.293.311,2.682.588,4.136.866,2.208.36,4.578.753,7.146,1.112.49.066.98.131,1.488.2,1.373.179,2.812.343,4.267.49a303.8,303.8,0,0,0,58.892.082c2.026-.213,3.988-.442,5.869-.687.081-.016.179-.016.261-.034,2.992-.376,5.771-.8,8.321-1.275.883-.179,1.75-.343,2.584-.539.458-.1.915-.2,1.357-.311C939.1,734.474,943.989,732.022,943.989,729.439Z" transform="translate(-823.209 -718.184)" fill="url(#linear-gradient-7)"/>
            <path id="Caminho_10279" data-name="Caminho 10279" d="M943.979,729.755c0,6.169-27.026,11.192-60.385,11.192s-60.384-5.022-60.384-11.192c9.525-3.876,35.987.327,60.384.327C906.538,730.082,933.75,726.206,943.979,729.755Z" transform="translate(-823.21 -718.508)" fill="url(#linear-gradient-8)"/>
            <path id="Caminho_10280" data-name="Caminho 10280" d="M943.979,731.639c0,6.169-27.026,11.192-60.385,11.192s-60.384-5.022-60.384-11.192c0-6.224,27.026-11.247,60.384-11.247S943.979,725.415,943.979,731.639Z" transform="translate(-823.21 -720.392)" fill="url(#linear-gradient-9)"/>
            <g id="Grupo_12484" data-name="Grupo 12484" transform="translate(6.623 1.791)">
              <path id="Caminho_10281" data-name="Caminho 10281" d="M882.3,739.746c-30.148,0-53.763-3.934-53.763-8.957s23.615-8.957,53.763-8.957,53.759,3.935,53.759,8.957S912.442,739.746,882.3,739.746Zm0-17.093c-28.352,0-51.418,3.65-51.418,8.136s23.066,8.137,51.418,8.137,51.413-3.65,51.413-8.137S910.645,722.653,882.3,722.653Z" transform="translate(-828.534 -721.832)" fill="url(#linear-gradient-10)"/>
            </g>
            <path id="Caminho_10282" data-name="Caminho 10282" d="M845.465,737.126v11.608c-2.568-.36-4.938-.735-7.146-1.145-1.454-.277-2.844-.556-4.137-.867-.343-.081-.669-.147-.98-.245V734.919c.311.081.637.147.98.229,1.293.311,2.682.588,4.137.866C840.527,736.373,842.9,736.766,845.465,737.126Z" transform="translate(-820.771 -716.847)" fill="#8bb566" opacity="0.6" style="mix-blend-mode: screen;isolation: isolate"/>
            <path id="Caminho_10283" data-name="Caminho 10283" d="M912.215,735.024V746.6c-.442.115-.9.212-1.357.31-.834.2-1.7.361-2.584.54-2.55.474-5.33.948-8.322,1.325V737.149c2.992-.376,5.771-.8,8.322-1.275.883-.179,1.75-.343,2.584-.539C911.315,735.237,911.773,735.138,912.215,735.024Z" transform="translate(-804.481 -716.821)" opacity="0.6" fill="url(#linear-gradient-11)" style="mix-blend-mode: multiply;isolation: isolate"/>
          </g>
        </g>
        <g id="Grupo_12489" data-name="Grupo 12489" transform="translate(31.76 65.761)">
          <g id="Grupo_12488" data-name="Grupo 12488">
            <path id="Caminho_10284" data-name="Caminho 10284" d="M938.651,719.029v11.559c0,2.6-4.888,5.052-13.046,6.965-.442.114-.9.213-1.357.311-.833.2-1.7.359-2.584.539-2.55.475-5.33.949-8.322,1.325-.082.016-.18.016-.261.032-1.881.245-3.843.474-5.869.7a287.2,287.2,0,0,1-28.957,1.373,294.406,294.406,0,0,1-29.936-1.47c-1.456-.164-2.894-.311-4.267-.491-.508-.065-1-.147-1.488-.213-2.568-.359-4.938-.735-7.146-1.145-1.454-.277-2.844-.556-4.136-.866-.343-.082-.671-.148-.98-.245-7.8-1.881-12.426-4.267-12.426-6.819V719.029c0,2.55,4.627,4.922,12.426,6.817.31.082.637.147.98.229,1.293.311,2.682.589,4.136.867,2.208.359,4.578.751,7.146,1.111.49.066.98.131,1.488.2,1.373.18,2.812.343,4.267.49a303.8,303.8,0,0,0,58.892.082c2.027-.213,3.988-.442,5.869-.687.081-.016.179-.016.261-.032,2.992-.377,5.771-.8,8.322-1.275.883-.18,1.75-.343,2.584-.54.458-.1.916-.2,1.357-.311C933.764,724.064,938.651,721.612,938.651,719.029Z" transform="translate(-817.871 -707.775)" fill="url(#linear-gradient-7)"/>
            <path id="Caminho_10285" data-name="Caminho 10285" d="M938.641,719.345c0,6.169-27.026,11.193-60.385,11.193s-60.384-5.023-60.384-11.193c9.525-3.877,35.987.327,60.384.327C901.2,719.672,928.413,715.8,938.641,719.345Z" transform="translate(-817.872 -708.099)" fill="url(#linear-gradient-13)"/>
            <path id="Caminho_10286" data-name="Caminho 10286" d="M938.641,721.229c0,6.169-27.026,11.193-60.385,11.193s-60.384-5.023-60.384-11.193c0-6.224,27.026-11.246,60.384-11.246S938.641,715.005,938.641,721.229Z" transform="translate(-817.872 -709.983)" fill="url(#linear-gradient-9)"/>
            <g id="Grupo_12487" data-name="Grupo 12487" transform="translate(6.623 1.791)">
              <path id="Caminho_10287" data-name="Caminho 10287" d="M876.959,729.337c-30.148,0-53.763-3.934-53.763-8.957s23.615-8.957,53.763-8.957,53.759,3.934,53.759,8.957S907.1,729.337,876.959,729.337Zm0-17.095c-28.352,0-51.418,3.65-51.418,8.137s23.066,8.137,51.418,8.137,51.413-3.651,51.413-8.137S905.307,712.243,876.959,712.243Z" transform="translate(-823.196 -711.423)" fill="#95b43d" style="mix-blend-mode: screen;isolation: isolate"/>
            </g>
            <path id="Caminho_10288" data-name="Caminho 10288" d="M840.127,726.716v11.608c-2.568-.359-4.938-.735-7.146-1.145-1.454-.277-2.844-.556-4.136-.866-.343-.082-.671-.148-.98-.245v-11.56c.31.082.637.147.98.229,1.293.311,2.682.589,4.136.867C835.189,725.965,837.559,726.356,840.127,726.716Z" transform="translate(-815.433 -706.438)" fill="#8bb467" opacity="0.6" style="mix-blend-mode: screen;isolation: isolate"/>
            <path id="Caminho_10289" data-name="Caminho 10289" d="M906.877,724.614V736.19c-.442.114-.9.213-1.357.311-.834.2-1.7.359-2.584.539-2.55.475-5.33.949-8.322,1.325V726.74c2.992-.377,5.771-.8,8.322-1.275.883-.18,1.75-.343,2.584-.54C905.977,724.827,906.435,724.728,906.877,724.614Z" transform="translate(-799.143 -706.412)" opacity="0.6" fill="url(#linear-gradient-11)" style="mix-blend-mode: multiply;isolation: isolate"/>
          </g>
        </g>
        <g id="Grupo_12492" data-name="Grupo 12492" transform="translate(17.587 52.81)">
          <g id="Grupo_12491" data-name="Grupo 12491">
            <path id="Caminho_10290" data-name="Caminho 10290" d="M927.26,708.619v11.56c0,2.6-4.888,5.052-13.048,6.964-.44.115-.9.213-1.356.311-.835.2-1.7.36-2.584.54-2.55.474-5.329.948-8.322,1.324-.082.016-.18.016-.263.032-1.88.246-3.842.475-5.869.7a287.5,287.5,0,0,1-28.955,1.374,294.027,294.027,0,0,1-29.936-1.472c-1.456-.164-2.895-.311-4.268-.49-.506-.066-1-.148-1.488-.213-2.567-.361-4.937-.736-7.145-1.145-1.456-.279-2.845-.556-4.137-.867-.343-.082-.671-.147-.98-.245-7.8-1.88-12.427-4.267-12.427-6.817v-11.56c0,2.55,4.628,4.922,12.427,6.817.31.082.637.148.98.229,1.291.311,2.681.588,4.137.867,2.208.359,4.578.753,7.145,1.112.491.065.982.131,1.488.2,1.373.18,2.813.343,4.268.491a303.937,303.937,0,0,0,58.891.081c2.028-.213,3.99-.442,5.869-.687.082-.016.18-.016.263-.032,2.992-.376,5.771-.8,8.322-1.275.883-.18,1.749-.343,2.584-.54.458-.1.916-.2,1.356-.311C922.372,713.655,927.26,711.2,927.26,708.619Z" transform="translate(-806.479 -697.365)" fill="url(#linear-gradient-16)"/>
            <path id="Caminho_10291" data-name="Caminho 10291" d="M927.248,708.935c0,6.17-27.025,11.193-60.384,11.193s-60.384-5.022-60.384-11.193c9.524-3.877,35.987.328,60.384.328C889.808,709.263,917.021,705.387,927.248,708.935Z" transform="translate(-806.48 -697.689)" fill="url(#linear-gradient-17)"/>
            <path id="Caminho_10292" data-name="Caminho 10292" d="M927.248,710.819c0,6.17-27.025,11.193-60.384,11.193s-60.384-5.022-60.384-11.193c0-6.224,27.026-11.246,60.384-11.246S927.248,704.6,927.248,710.819Z" transform="translate(-806.48 -699.573)" fill="url(#linear-gradient-9)"/>
            <g id="Grupo_12490" data-name="Grupo 12490" transform="translate(6.622 1.791)">
              <path id="Caminho_10293" data-name="Caminho 10293" d="M865.567,718.927c-30.149,0-53.764-3.934-53.764-8.957s23.616-8.957,53.764-8.957,53.759,3.934,53.759,8.957S895.712,718.927,865.567,718.927Zm0-17.095c-28.352,0-51.418,3.65-51.418,8.137s23.066,8.137,51.418,8.137,51.413-3.651,51.413-8.137S893.916,701.833,865.567,701.833Z" transform="translate(-811.803 -701.013)" fill="url(#linear-gradient-19)"/>
            </g>
            <path id="Caminho_10294" data-name="Caminho 10294" d="M828.733,716.307v11.608c-2.567-.361-4.936-.737-7.145-1.145-1.456-.279-2.845-.556-4.136-.867-.343-.082-.671-.147-.98-.245V714.1c.31.082.637.148.98.229,1.291.311,2.681.588,4.136.867C823.8,715.554,826.167,715.948,828.733,716.307Z" transform="translate(-804.041 -696.028)" fill="#8bb565" opacity="0.6" style="mix-blend-mode: screen;isolation: isolate"/>
            <path id="Caminho_10295" data-name="Caminho 10295" d="M895.483,714.2V725.78c-.44.114-.9.213-1.356.311-.835.2-1.7.36-2.584.54-2.55.474-5.329.948-8.322,1.324V716.33c2.992-.376,5.771-.8,8.322-1.275.883-.18,1.749-.343,2.584-.54C894.585,714.417,895.043,714.32,895.483,714.2Z" transform="translate(-787.751 -696.002)" opacity="0.6" fill="url(#linear-gradient-11)" style="mix-blend-mode: multiply;isolation: isolate"/>
          </g>
        </g>
        <g id="Grupo_12495" data-name="Grupo 12495" transform="translate(15.247 39.86)">
          <g id="Grupo_12494" data-name="Grupo 12494">
            <path id="Caminho_10296" data-name="Caminho 10296" d="M925.378,698.209v11.56c0,2.6-4.888,5.052-13.046,6.965-.442.115-.9.212-1.357.31-.834.2-1.7.361-2.584.54-2.55.474-5.33.948-8.322,1.324-.082.018-.18.018-.261.034-1.881.245-3.843.474-5.869.7a287.163,287.163,0,0,1-28.957,1.374,294.026,294.026,0,0,1-29.936-1.472c-1.456-.163-2.894-.311-4.267-.49-.508-.066-1-.148-1.488-.213-2.568-.359-4.938-.735-7.146-1.144-1.454-.277-2.844-.556-4.136-.867-.343-.081-.669-.147-.98-.245-7.8-1.88-12.426-4.267-12.426-6.818v-11.56c0,2.552,4.627,4.921,12.426,6.819.311.081.637.147.98.229,1.293.31,2.682.588,4.136.866,2.208.359,4.578.753,7.146,1.112.49.065.98.13,1.488.2,1.373.179,2.811.343,4.267.49a303.816,303.816,0,0,0,58.892.082c2.026-.213,3.989-.442,5.869-.687.081-.017.179-.017.261-.034,2.992-.376,5.771-.8,8.322-1.275.883-.179,1.75-.343,2.584-.539.458-.1.916-.2,1.357-.311C920.491,703.245,925.378,700.793,925.378,698.209Z" transform="translate(-804.598 -686.955)" fill="url(#linear-gradient-16)"/>
            <path id="Caminho_10297" data-name="Caminho 10297" d="M925.368,698.526c0,6.169-27.026,11.192-60.385,11.192S804.6,704.7,804.6,698.526c9.525-3.876,35.987.327,60.384.327C887.927,698.853,915.14,694.977,925.368,698.526Z" transform="translate(-804.599 -687.279)" fill="url(#linear-gradient-8)"/>
            <path id="Caminho_10298" data-name="Caminho 10298" d="M925.368,700.41c0,6.169-27.026,11.192-60.385,11.192S804.6,706.58,804.6,700.41c0-6.224,27.026-11.247,60.384-11.247S925.368,694.186,925.368,700.41Z" transform="translate(-804.599 -689.163)" fill="url(#linear-gradient-9)"/>
            <g id="Grupo_12493" data-name="Grupo 12493" transform="translate(6.623 1.791)">
              <path id="Caminho_10299" data-name="Caminho 10299" d="M863.686,708.517c-30.148,0-53.763-3.934-53.763-8.957s23.615-8.957,53.763-8.957,53.759,3.934,53.759,8.957S893.831,708.517,863.686,708.517Zm0-17.095c-28.352,0-51.418,3.651-51.418,8.137s23.066,8.137,51.418,8.137,51.413-3.65,51.413-8.137S892.034,691.423,863.686,691.423Z" transform="translate(-809.923 -690.603)" fill="url(#linear-gradient-24)"/>
            </g>
            <path id="Caminho_10300" data-name="Caminho 10300" d="M826.854,705.9v11.608c-2.568-.36-4.938-.735-7.146-1.145-1.454-.277-2.844-.556-4.136-.867-.343-.081-.669-.147-.98-.245V703.69c.311.081.637.147.98.229,1.293.31,2.682.588,4.136.866C821.916,705.144,824.286,705.537,826.854,705.9Z" transform="translate(-802.16 -685.618)" fill="#89b463" opacity="0.6" style="mix-blend-mode: screen;isolation: isolate"/>
            <path id="Caminho_10301" data-name="Caminho 10301" d="M893.6,703.795v11.576c-.442.115-.9.212-1.357.31-.834.2-1.7.361-2.584.54-2.55.474-5.33.948-8.322,1.324V705.92c2.992-.376,5.771-.8,8.322-1.275.883-.179,1.75-.343,2.584-.539C892.7,704.008,893.162,703.909,893.6,703.795Z" transform="translate(-785.87 -685.592)" opacity="0.6" fill="url(#linear-gradient-25)" style="mix-blend-mode: multiply;isolation: isolate"/>
          </g>
        </g>
        <g id="Grupo_12498" data-name="Grupo 12498" transform="translate(11.162 26.909)">
          <g id="Grupo_12497" data-name="Grupo 12497">
            <path id="Caminho_10302" data-name="Caminho 10302" d="M922.094,687.8v11.558c0,2.6-4.888,5.052-13.046,6.966-.442.114-.9.213-1.357.311-.834.2-1.7.36-2.584.539-2.55.474-5.33.949-8.321,1.325-.082.016-.18.016-.261.032-1.881.245-3.843.474-5.87.7a287.18,287.18,0,0,1-28.957,1.374,294.066,294.066,0,0,1-29.936-1.472c-1.456-.163-2.894-.31-4.267-.49-.508-.065-1-.147-1.488-.213-2.568-.36-4.938-.735-7.146-1.145-1.454-.277-2.844-.556-4.136-.866-.343-.082-.669-.148-.98-.245-7.8-1.881-12.426-4.268-12.426-6.819V687.8c0,2.55,4.627,4.92,12.426,6.817.311.082.637.147.98.229,1.293.311,2.682.589,4.136.867,2.208.36,4.578.751,7.146,1.111.49.066.98.131,1.488.2,1.373.179,2.812.343,4.267.49a303.8,303.8,0,0,0,58.892.082c2.027-.213,3.988-.442,5.87-.687.081-.016.179-.016.261-.032,2.992-.377,5.771-.8,8.321-1.276.883-.179,1.75-.343,2.584-.539.458-.1.916-.2,1.357-.311C917.207,692.835,922.094,690.383,922.094,687.8Z" transform="translate(-801.314 -676.545)" fill="url(#linear-gradient-7)"/>
            <path id="Caminho_10303" data-name="Caminho 10303" d="M922.084,688.116c0,6.169-27.026,11.191-60.385,11.191s-60.384-5.022-60.384-11.191c9.524-3.877,35.987.327,60.384.327C884.643,688.443,911.856,684.567,922.084,688.116Z" transform="translate(-801.315 -676.869)" fill="url(#linear-gradient-8)"/>
            <path id="Caminho_10304" data-name="Caminho 10304" d="M922.084,690c0,6.169-27.026,11.192-60.385,11.192S801.315,696.17,801.315,690c0-6.224,27.026-11.248,60.384-11.248S922.084,683.777,922.084,690Z" transform="translate(-801.315 -678.753)" fill="url(#linear-gradient-9)"/>
            <g id="Grupo_12496" data-name="Grupo 12496" transform="translate(6.623 1.791)">
              <path id="Caminho_10305" data-name="Caminho 10305" d="M860.4,698.109c-30.148,0-53.763-3.935-53.763-8.957s23.615-8.958,53.763-8.958,53.759,3.935,53.759,8.958S890.547,698.109,860.4,698.109Zm0-17.094c-28.352,0-51.418,3.65-51.418,8.137s23.066,8.136,51.418,8.136,51.414-3.65,51.414-8.136S888.75,681.014,860.4,681.014Z" transform="translate(-806.639 -680.193)" fill="url(#linear-gradient-29)"/>
            </g>
            <path id="Caminho_10306" data-name="Caminho 10306" d="M823.57,695.487V707.1c-2.568-.359-4.938-.735-7.146-1.144-1.454-.277-2.844-.556-4.136-.866-.343-.082-.669-.148-.98-.245V693.28c.311.082.637.147.98.229,1.293.311,2.682.589,4.136.867C818.632,694.736,821,695.128,823.57,695.487Z" transform="translate(-798.876 -675.208)" fill="#80ae5e" opacity="0.6" style="mix-blend-mode: screen;isolation: isolate"/>
            <path id="Caminho_10307" data-name="Caminho 10307" d="M890.32,693.385v11.576c-.442.114-.9.213-1.357.311-.834.2-1.7.36-2.584.539-2.55.474-5.33.949-8.322,1.325V695.511c2.992-.377,5.771-.8,8.322-1.276.883-.179,1.75-.343,2.584-.539C889.42,693.6,889.878,693.5,890.32,693.385Z" transform="translate(-782.586 -675.182)" opacity="0.6" fill="url(#linear-gradient-11)" style="mix-blend-mode: multiply;isolation: isolate"/>
          </g>
        </g>
        <g id="Grupo_12501" data-name="Grupo 12501" transform="translate(15.247 13.96)">
          <g id="Grupo_12500" data-name="Grupo 12500">
            <path id="Caminho_10308" data-name="Caminho 10308" d="M925.378,677.39v11.56c0,2.6-4.888,5.052-13.046,6.964-.442.115-.9.213-1.357.311-.834.2-1.7.359-2.584.539-2.55.475-5.33.949-8.322,1.325-.082.016-.18.016-.261.032-1.881.246-3.843.474-5.869.7a287.619,287.619,0,0,1-28.957,1.372,294.068,294.068,0,0,1-29.936-1.471c-1.456-.164-2.894-.311-4.267-.491-.508-.065-1-.147-1.488-.211-2.568-.361-4.938-.737-7.146-1.144-1.454-.279-2.844-.556-4.136-.867-.343-.082-.669-.147-.98-.245-7.8-1.881-12.426-4.267-12.426-6.817V677.39c0,2.55,4.627,4.922,12.426,6.817.311.082.637.147.98.229,1.293.311,2.682.588,4.136.867,2.208.36,4.578.751,7.146,1.111.49.066.98.132,1.488.2,1.373.18,2.811.343,4.267.49a303.791,303.791,0,0,0,58.892.082c2.026-.213,3.989-.442,5.869-.687.081-.016.179-.016.261-.032,2.992-.376,5.771-.8,8.322-1.275.883-.18,1.75-.343,2.584-.54.458-.1.916-.2,1.357-.311C920.491,682.426,925.378,679.973,925.378,677.39Z" transform="translate(-804.598 -666.136)" fill="url(#linear-gradient-7)"/>
            <path id="Caminho_10309" data-name="Caminho 10309" d="M925.368,677.706c0,6.169-27.026,11.193-60.385,11.193S804.6,683.875,804.6,677.706c9.525-3.876,35.987.328,60.384.328C887.927,678.034,915.14,674.158,925.368,677.706Z" transform="translate(-804.599 -666.46)" fill="url(#linear-gradient-32)"/>
            <path id="Caminho_10310" data-name="Caminho 10310" d="M925.368,679.59c0,6.169-27.026,11.193-60.385,11.193S804.6,685.76,804.6,679.59c0-6.224,27.026-11.246,60.384-11.246S925.368,673.366,925.368,679.59Z" transform="translate(-804.599 -668.344)" fill="url(#linear-gradient-9)"/>
            <g id="Grupo_12499" data-name="Grupo 12499" transform="translate(6.623 1.791)">
              <path id="Caminho_10311" data-name="Caminho 10311" d="M863.686,687.7c-30.148,0-53.763-3.934-53.763-8.957s23.615-8.957,53.763-8.957,53.759,3.934,53.759,8.957S893.831,687.7,863.686,687.7Zm0-17.095c-28.352,0-51.418,3.65-51.418,8.137s23.066,8.137,51.418,8.137,51.413-3.651,51.413-8.137S892.034,670.6,863.686,670.6Z" transform="translate(-809.923 -669.784)" fill="#95b43d" style="mix-blend-mode: screen;isolation: isolate"/>
            </g>
            <path id="Caminho_10312" data-name="Caminho 10312" d="M826.854,685.077v11.61c-2.568-.361-4.938-.737-7.146-1.144-1.454-.279-2.844-.556-4.136-.867-.343-.082-.669-.147-.98-.245V682.87c.311.082.637.147.98.229,1.293.311,2.682.588,4.136.867C821.916,684.326,824.286,684.717,826.854,685.077Z" transform="translate(-802.16 -664.799)" fill="#6d9f51" opacity="0.6" style="mix-blend-mode: screen;isolation: isolate"/>
            <path id="Caminho_13049" data-name="Caminho 13049" d="M881.347,671.755v11.576c-.442.114-.9.211-1.357.31-.834.2-1.7.36-2.583.54-2.552.474-5.331.948-8.323,1.325V673.88q4.488-.564,8.323-1.275c.882-.179,1.749-.343,2.583-.54C880.447,671.968,880.905,671.869,881.347,671.755Z" transform="translate(-773.862 -653.512)" opacity="0.6" fill="url(#linear-gradient-11)" style="mix-blend-mode: multiply;isolation: isolate"/>
          </g>
        </g>
        <g id="Grupo_12504" data-name="Grupo 12504">
          <g id="Grupo_12503" data-name="Grupo 12503">
            <path id="Caminho_10314" data-name="Caminho 10314" d="M913.123,666.169v11.56c0,2.6-4.889,5.052-13.048,6.966-.442.114-.9.211-1.357.31-.834.2-1.7.36-2.583.54-2.552.474-5.331.948-8.323,1.325-.082.016-.179.016-.261.032-1.88.245-3.842.474-5.87.7a287.173,287.173,0,0,1-28.955,1.373,294.031,294.031,0,0,1-29.937-1.472c-1.456-.163-2.894-.311-4.267-.49-.506-.066-1-.147-1.488-.213-2.567-.36-4.938-.735-7.145-1.145-1.456-.277-2.845-.556-4.137-.867-.343-.081-.67-.147-.982-.245-7.8-1.88-12.425-4.267-12.425-6.818v-11.56c0,2.55,4.627,4.922,12.425,6.819.311.081.638.147.982.229,1.291.31,2.681.588,4.137.866,2.207.359,4.578.753,7.145,1.112l1.488.2c1.373.179,2.811.343,4.267.49a303.684,303.684,0,0,0,58.892.081c2.028-.212,3.99-.44,5.87-.687.082-.016.179-.016.261-.032q4.488-.564,8.323-1.275c.882-.179,1.749-.343,2.583-.54.458-.1.916-.2,1.357-.31C908.234,671.2,913.123,668.753,913.123,666.169Z" transform="translate(-792.342 -654.915)" fill="url(#linear-gradient-16)"/>
            <path id="Caminho_10315" data-name="Caminho 10315" d="M913.111,666.486c0,6.169-27.026,11.191-60.384,11.191s-60.384-5.022-60.384-11.191c9.524-3.877,35.986.327,60.384.327C875.67,666.813,902.882,662.937,913.111,666.486Z" transform="translate(-792.343 -655.239)" fill="url(#linear-gradient-8)"/>
            <path id="Caminho_10316" data-name="Caminho 10316" d="M913.111,668.371c0,6.169-27.026,11.191-60.384,11.191s-60.384-5.022-60.384-11.191c0-6.224,27.025-11.248,60.384-11.248S913.111,662.147,913.111,668.371Z" transform="translate(-792.343 -657.123)" fill="url(#linear-gradient-9)"/>
            <g id="Grupo_12502" data-name="Grupo 12502" transform="translate(6.622 1.791)">
              <path id="Caminho_10317" data-name="Caminho 10317" d="M851.43,676.477c-30.15,0-53.764-3.934-53.764-8.957s23.615-8.957,53.764-8.957,53.759,3.934,53.759,8.957S881.574,676.477,851.43,676.477Zm0-17.095c-28.353,0-51.418,3.651-51.418,8.137s23.065,8.137,51.418,8.137,51.413-3.65,51.413-8.137S879.779,659.383,851.43,659.383Z" transform="translate(-797.666 -658.563)" fill="#95b43d" style="mix-blend-mode: screen;isolation: isolate"/>
            </g>
            <path id="Caminho_10318" data-name="Caminho 10318" d="M814.6,673.857v11.608c-2.567-.36-4.938-.735-7.145-1.145-1.455-.277-2.845-.556-4.137-.867-.343-.081-.67-.147-.982-.245V671.65c.311.081.638.147.982.229,1.291.31,2.681.588,4.137.866C809.659,673.1,812.03,673.5,814.6,673.857Z" transform="translate(-789.905 -653.578)" fill="#3f6d36" opacity="0.6" style="mix-blend-mode: screen;isolation: isolate"/>
            <path id="Caminho_10319" data-name="Caminho 10319" d="M881.347,671.755v11.576c-.442.114-.9.211-1.357.31-.834.2-1.7.36-2.583.54-2.552.474-5.331.948-8.323,1.325V673.88q4.488-.564,8.323-1.275c.882-.179,1.749-.343,2.583-.54C880.447,671.968,880.905,671.869,881.347,671.755Z" transform="translate(-773.614 -653.552)" opacity="0.6" fill="url(#linear-gradient-11)" style="mix-blend-mode: multiply;isolation: isolate"/>
          </g>
        </g>
      </g>
    </g>
    <g id="Grupo_12528" data-name="Grupo 12528" transform="translate(568.737 529.622)">
      <g id="Grupo_12509" data-name="Grupo 12509" transform="translate(131.711 85.998)">
        <path id="Caminho_10320" data-name="Caminho 10320" d="M684.106,636.068c1.808-8.942,7.748-22.857,7.8-27.9.844-2.568,3-5.99,5.654-9.753a17.129,17.129,0,0,1-10.825-6.549c-1.893,4.914-3.376,9.082-4.1,11.153a30.136,30.136,0,0,0-1.321,2.888c-2.892,7.361-4.589,27.7-5.062,28.832C675.9,635.591,685.314,637.1,684.106,636.068Z" transform="translate(-674.21 -591.867)" fill="#fed0ca"/>
        <g id="Grupo_12508" data-name="Grupo 12508" transform="translate(0 40.877)">
          <g id="Grupo_12507" data-name="Grupo 12507">
            <path id="Caminho_10321" data-name="Caminho 10321" d="M674.811,635.981c-.922-5.432,1.595-7,1.941-9.814.029-.244.066-.484.1-.725,3.042.215,5.522-1.5,8.268-.261a5.992,5.992,0,0,0,.552,4.5c1.535,2.085.868,6.436-.887,6.891-.524.136-1.307,2.945-1.536,4.332-.26.419-.386,3.547-1.669,3.548-.643,0-.776-3.228-.938-3.772-.447.234,1.36,4.606-.448,3.6-1.094-.61-1.748-4.243-1.713-4.98-.52.121,1.026,3.66.607,3.465-1.793-.832-2.484-4.454-2.57-4.954-.291.173,1.669,3.527.937,3.207C675.773,640.278,674.843,636.172,674.811,635.981Z" transform="translate(-674.609 -624.725)" fill="#fed0ca"/>
          </g>
          <path id="Caminho_10322" data-name="Caminho 10322" d="M679.532,637.949a2.714,2.714,0,0,1-.146-.978c0-.327.014-.654.042-.979a.243.243,0,0,1,.484.039.235.235,0,0,1-.01.051c-.091.3-.172.607-.233.916a2.527,2.527,0,0,0-.057.923.043.043,0,0,1-.029.054A.049.049,0,0,1,679.532,637.949Z" transform="translate(-673.443 -622.03)" fill="#adcbe9"/>
          <path id="Caminho_10323" data-name="Caminho 10323" d="M677.8,637.01a1.863,1.863,0,0,1-.225-.631c-.05-.216-.09-.435-.126-.654s-.064-.44-.086-.663a2.452,2.452,0,0,1,0-.743.245.245,0,1,1,.481.088.228.228,0,0,1-.016.051l-.012.031a2.515,2.515,0,0,0-.083.567l-.027.649c0,.218,0,.435.011.653a1.854,1.854,0,0,0,.107.631.016.016,0,0,1,0,.023C677.819,637.019,677.808,637.015,677.8,637.01Z" transform="translate(-673.944 -622.432)" fill="#adcbe9"/>
        </g>
      </g>
      <path id="Caminho_10324" data-name="Caminho 10324" d="M681.195,629.22c.147,1.326-2.283,2.981-3.176,3.605-.847.592-1.849.479-1.148,1.614.81,1.313,1.981,3.172,3.811,2.63,2.324-.688,2.565-3.08,2.022-5.122A9.529,9.529,0,0,0,681.195,629.22Z" transform="translate(-542.404 -496.753)" fill="#fdb9b1"/>
      <path id="Caminho_10325" data-name="Caminho 10325" d="M696.114,605.721c6.64-9.277,15.532-20.466,15.985-26.214.483-6.131-2.494-14.2-8-12.53-4.862,1.477-15.722,19.911-20.315,31.589C687.17,603.063,693.6,605.439,696.114,605.721Z" transform="translate(-540.659 -511.998)" fill="#245f9d"/>
      <path id="Caminho_10326" data-name="Caminho 10326" d="M705.435,567.41l-6.067.739s-6.855,20.451-4.3,35.232c6.39-8.793,13.993-18.729,14.411-24.034C709.833,574.9,708.365,569.445,705.435,567.41Z" transform="translate(-538.044 -511.838)" fill="#adadad" style="mix-blend-mode: multiply;isolation: isolate"/>
      <path id="Caminho_10327" data-name="Caminho 10327" d="M715.944,556.83c-1.085-2.375-1.648-5.785-2.1-5.968-.7-.287-6.032-1.709-6.769-1.881-3.959-.929-2.792,3.524-3.873,3.542-.21.9-.4,1.768-.565,2.562-1.5,7.305,10.844,11.025,15.257,9.593C715.782,562.133,716.93,558.987,715.944,556.83Z" transform="translate(-536.088 -516.367)" fill="#fdb9b1"/>
      <path id="Caminho_10328" data-name="Caminho 10328" d="M721.492,547.765c-.544-5.639-3.4-5.561-6.477-6.623s-6.027.662-6.687.844a5.68,5.68,0,0,0-2.972,3.787c-.74,2.5-1.61,5.8-2.287,8.717.684-.011,3.491-3.012,4.053-2.865,1.2.316,4.8,1.161,5.393,1.442,1.125.532,3.373,5.362,3.105,6.593-.368,1.684-.559,2.727.071,3.737.424.681,1.658,2.752,2.07,3.247a2.242,2.242,0,0,0,1.375-.99C722.008,560.106,721.956,552.583,721.492,547.765Z" transform="translate(-535.952 -518.333)" fill="#fed0ca"/>
      <path id="Caminho_10329" data-name="Caminho 10329" d="M698.739,621.629c2.05-4.759,1.247-7.076-.062-16.539-1.5-10.857-3.069-17.669-1.373-28.8.755-4.958,2.4-9.75,6.371-13.171,2.864-2.471,8.234,2.106,13.992,8.359a82.742,82.742,0,0,0,7.508,6.693c9.176,7.631,9.057,13.8,7.66,16.4-1.23,2.292-5.995,24.9-4.714,31.07C716.4,626.967,709.785,625.7,698.739,621.629Z" transform="translate(-537.539 -513.051)" fill="#245f9d"/>
      <path id="Caminho_10330" data-name="Caminho 10330" d="M729.379,594.54l-21.435-13.624-2.635,1.864s6.077,19.379,21.278,26.439c.745-5.221,1.867-10.846,2.792-14.677Z" transform="translate(-535.405 -508.542)" fill="#c6c6c6" style="mix-blend-mode: multiply;isolation: isolate"/>
      <path id="Caminho_10331" data-name="Caminho 10331" d="M701.014,567.136c-.8.735,4.495,1.6,9.742,4.414,3.192,1.712,7.785,4.658,8,4.5s-3.866-3.588-4.288-4.212c-.718-1.062-1.619-5.05.325-11.056.713-2.2-1.33-2.922-3.95-5.714-1.622-1.729-6.657-1.381-7.1.346C702.2,561.421,702.636,565.646,701.014,567.136Z" transform="translate(-536.473 -515.128)" fill="#fdb9b1"/>
      <path id="Caminho_10332" data-name="Caminho 10332" d="M708.866,561.1a31.09,31.09,0,0,0,2.973,2.448c.066-.539.163-1.11.284-1.7A19.089,19.089,0,0,1,708.866,561.1Z" transform="translate(-534.537 -513.377)" fill="#fee8e5" style="mix-blend-mode: multiply;isolation: isolate"/>
      <path id="Caminho_10333" data-name="Caminho 10333" d="M704.549,565.392c-3.242-.764-9.131-11.7-9.225-16.39-.165-8.313,6.388-12.821,12.981-13.525,5.436-.581,14.45-1.52,16.7,5.619,2.176,6.907-4.385,5.256-5.556,14.122-5.479-6.515-4.879,6.583-9.038,9.454A6.066,6.066,0,0,1,704.549,565.392Z" transform="translate(-537.843 -519.727)" fill="url(#linear-gradient-39)"/>
      <path id="Caminho_10334" data-name="Caminho 10334" d="M715.308,555.3c-1.264,3.518-4.324-.2-4.324-2.3,0-1.951.817-3.277,2.172-2.973S715.968,553.462,715.308,555.3Z" transform="translate(-534.021 -516.091)" fill="#fed0ca"/>
      <path id="Caminho_10335" data-name="Caminho 10335" d="M712.471,550.509c.969.99,1.067,2.423,1.368,3.707C714.362,553.65,714,549.783,712.471,550.509Z" transform="translate(-533.658 -515.985)" fill="#fdb9b1"/>
      <path id="Caminho_10336" data-name="Caminho 10336" d="M707.8,530.33a19,19,0,0,0-4.656-5.616,8.639,8.639,0,0,0-1.045-.841l-.836-.607-.725-.526.656.612.75.7a8.361,8.361,0,0,1,.923.951,18.2,18.2,0,0,1,3.766,5.856,12.343,12.343,0,0,1,.575,1.959,11.275,11.275,0,0,0-5.348-5.113c-6.691-2.971-15.14,1.437-18.874,9.845s-1.336,17.632,5.354,20.6,15.141-1.437,18.874-9.845a20.076,20.076,0,0,0,1.735-7.432,12.34,12.34,0,0,0,.54-3.2A14.574,14.574,0,0,0,707.8,530.33Z" transform="translate(-541.285 -522.74)"/>
      <path id="Caminho_10337" data-name="Caminho 10337" d="M707.476,531.4a19.083,19.083,0,0,1-1.342,11.811c-3.733,8.409-12.184,12.816-18.875,9.845a11.435,11.435,0,0,1-5.7-5.811,12.161,12.161,0,0,0,6.7,8.792c6.69,2.971,15.141-1.437,18.873-9.845A18.162,18.162,0,0,0,707.476,531.4Z" transform="translate(-541.203 -520.626)" fill="url(#linear-gradient-40)" style="mix-blend-mode: multiply;isolation: isolate"/>
      <g id="Grupo_12510" data-name="Grupo 12510" transform="translate(221.7 65.375)">
        <path id="Caminho_10338" data-name="Caminho 10338" d="M754.713,578.7c1.874-1.52,15.388-1.742,16.375-.648,1.91,1.79-7.079,1.427-7.162,2.614-.175,2.463.006,5.9-.822,6.168-2.655.875-5.825,1.78-6.819,1.7-.7-.057-1.107.031-1.806-.046a2.037,2.037,0,0,0-1.9.648c-.537.75-1.391,1.494-1.926,1.057C742.714,583.727,749.171,583.2,754.713,578.7Z" transform="translate(-746.944 -574.783)" fill="#fed0ca"/>
        <path id="Caminho_10339" data-name="Caminho 10339" d="M757.471,577.07a9.154,9.154,0,0,0,2.039-1.311c.315-.266.705-.576,1.092-.433a.722.722,0,0,1,.417.7,1.577,1.577,0,0,1-.3.8,6.221,6.221,0,0,1-2.024,1.823,7.114,7.114,0,0,1-3.354,1.182c-.925.041-3.28.636-1.81-.775C754.617,578.012,756.152,577.69,757.471,577.07Z" transform="translate(-745.451 -575.29)" fill="#fed0ca"/>
      </g>
      <g id="Grupo_12511" data-name="Grupo 12511" transform="translate(169.904 63.59)">
        <path id="Caminho_10340" data-name="Caminho 10340" d="M757.471,577.07a9.154,9.154,0,0,0,2.039-1.311c.315-.266.705-.576,1.092-.433a.722.722,0,0,1,.417.7,1.577,1.577,0,0,1-.3.8,6.221,6.221,0,0,1-2.024,1.823,7.114,7.114,0,0,1-3.354,1.182c-.925.041-3.28.636-1.81-.775C754.617,578.012,756.152,577.69,757.471,577.07Z" transform="translate(-693.655 -573.505)" fill="#fdb9b1"/>
        <path id="Caminho_10341" data-name="Caminho 10341" d="M781.058,578.81c-.988-1.094-14.5-.872-16.375.648-2.366,1.92-4.9,3.118-6.4,4.362v0c-5.257,4.122-12.1,4.345-19.579,8.234-.279-.994-25.9-22.254-30.615-16.958-11.111,12.479,27.881,31.918,30.181,30.834,18.941-8.918,25.035-16.573,25.035-16.573s4.054.6,9.773-1.763c.806-.333.647-3.7.822-6.168C773.979,580.237,782.967,580.6,781.058,578.81Z" transform="translate(-705.117 -573.759)" fill="#fed0ca"/>
        <path id="Caminho_10342" data-name="Caminho 10342" d="M729.311,603.547c-3.023-.326-33.461-14.66-21.035-28.357,5.208-5.739,24.777,8.536,27.784,14.309C736.275,591.271,734.263,600.643,729.311,603.547Z" transform="translate(-705.309 -573.855)" fill="#245f9d"/>
      </g>
      <g id="Grupo_12513" data-name="Grupo 12513" transform="translate(153.714 110.896)">
        <path id="Caminho_10343" data-name="Caminho 10343" d="M697.615,729.35l-1.923,14.343s.094,1.034-1.3.564c0,0,.045-12.065-1.732-14.141S697.615,729.35,697.615,729.35Z" transform="translate(-692.281 -583.312)" fill="url(#linear-gradient-41)"/>
        <path id="Caminho_10344" data-name="Caminho 10344" d="M707.659,768.215a2.844,2.844,0,0,1-2.975-1.058,8.845,8.845,0,0,1-1.4-3.031c-1.764-5.468-5.974-8.086-9.887-12.219.384-.26,4.476-6.224,3.348-22.882-.855-12.615-.386-18.679,4.584-29.286,6.411-13.682,1.859-27.067-2.766-36.725-3.436-7.175-2.385-38.306-.108-43.508,5.99-13.695,13.851-4.544,15.026-5.626,3.9,12.023,6.589,21.836,8.013,32.591,2.8,21.145-2.5,39.142-3.176,44.8-.564,4.739-6.837,25-11.613,55.506-.79,5.05,1.588,15.476,1.622,18.568.006.469.61.746,1.06,1.045-.029.061-.05.126-.081.185A3.162,3.162,0,0,1,707.659,768.215Z" transform="translate(-692.027 -611.881)" fill="#fdb9b1"/>
        <g id="Grupo_12512" data-name="Grupo 12512" transform="translate(0 138.08)">
          <path id="Caminho_10345" data-name="Caminho 10345" d="M716.87,740.484l-13.576,1.523c-.141-.573-.765-.515-.862-.967a30.785,30.785,0,0,0-.968-3.471,12.507,12.507,0,0,0-1.365-3.194,9.183,9.183,0,0,0-2.343-2.3,14.633,14.633,0,0,0-1.814-1.153c5.611,6.132,1.988,13.744,6.978,13.744,9.4,0,14.169-3.034,14.169-3.034Z" transform="translate(-691.411 -720.918)" fill="url(#linear-gradient-42)"/>
          <path id="Caminho_10346" data-name="Caminho 10346" d="M695.2,722.873a7.665,7.665,0,0,1,5.321,3.6c1.99,3.023,1.928,7.153,3.031,10.571a8.85,8.85,0,0,0,1.4,3.03,2.844,2.844,0,0,0,2.975,1.057,3.161,3.161,0,0,0,1.646-1.643c.031-.06.052-.124.081-.185,2.3,1.524,8.757.659,8.185,3.082-3.026,2.264-9.261,3.4-13,2.9a1.8,1.8,0,0,1-1.312-.727,1.917,1.917,0,0,1-.572-1.152c-.582-5.9-1.785-7.173-5.24-9.3-.759-.468-3.5-.306-4.49-.916C691.272,730.595,692.626,724.612,695.2,722.873Z" transform="translate(-692.296 -722.873)" fill="#ecf2fa"/>
        </g>
      </g>
      <g id="Grupo_12526" data-name="Grupo 12526" transform="translate(0 132.437)">
        <path id="Caminho_10347" data-name="Caminho 10347" d="M676.1,629.226c-4.21,6.193-11.137,20.262-11.46,28.143-.51,12.382,7.87,24.438-.343,35.886-6.54,9.116-17.434,12.439-27.6,14.87-26.732,6.391-39.737,40.652-67.827,26.775,8.492,7.25,44.959,33.9,49.09,37.864,12.132,4.134,27.872-18.045,40.967-27.5,11.637-8.4,22.216-7.359,29.3-11.569,12.414-7.38,19.222-17.536,22-27.23,4.452-15.527-.5-27.458,1.6-43.282,1.426-10.747,9.858-20.92,11.96-27.777C710.228,635.266,687.147,628.695,676.1,629.226Z" transform="translate(-568.704 -629.195)" fill="url(#linear-gradient-43)"/>
        <path id="Caminho_10348" data-name="Caminho 10348" d="M573.15,703.762l44.888,34.373s-6.081,9.293.493,16.667l-48.323-37.124S565.408,716.973,573.15,703.762Z" transform="translate(-568.737 -610.997)" fill="url(#linear-gradient-44)"/>
        <path id="Caminho_10349" data-name="Caminho 10349" d="M662.368,663.431l4.158-15.062,7.566.12-5.932,11.88,6.722.107-8.1,16.083,3.3-13.191Z" transform="translate(-545.885 -624.516)" fill="#e25f30"/>
        <g id="Grupo_12514" data-name="Grupo 12514" transform="translate(40.65 106.1)">
          <path id="Caminho_10350" data-name="Caminho 10350" d="M605.739,722.148a1.314,1.314,0,0,0,.42-.933,3.22,3.22,0,0,0-.379-1.349,9.661,9.661,0,0,1-.54-1.341,2.708,2.708,0,0,1,.671-2.895,2.588,2.588,0,0,1,1.8-.82,2.919,2.919,0,0,1,1.925.714l1.054-1.044.765.773-1.063,1.054a2.69,2.69,0,0,1,.577,2,3.432,3.432,0,0,1-1.084,1.985l-1.158-1.168a2.152,2.152,0,0,0,.688-1.224,1.25,1.25,0,0,0-.386-1.087,1.412,1.412,0,0,0-.968-.477,1.349,1.349,0,0,0-.979.454,1.264,1.264,0,0,0-.417.926,3.559,3.559,0,0,0,.388,1.354,10.623,10.623,0,0,1,.544,1.386,3.528,3.528,0,0,1,.146,1.031,2.5,2.5,0,0,1-.2.939,2.862,2.862,0,0,1-.628.883,2.543,2.543,0,0,1-1.819.812,3.093,3.093,0,0,1-1.979-.8l-.942.934-.761-.768.937-.928a2.891,2.891,0,0,1,.253-4.186l1.163,1.173a1.886,1.886,0,0,0-.637,1.239,1.571,1.571,0,0,0,.526,1.2,1.682,1.682,0,0,0,1.1.575A1.287,1.287,0,0,0,605.739,722.148Z" transform="translate(-601.412 -714.481)" fill="url(#linear-gradient-45)"/>
        </g>
        <g id="Grupo_12515" data-name="Grupo 12515" transform="translate(46.098 111.593)">
          <path id="Caminho_10351" data-name="Caminho 10351" d="M610.118,726.563a1.307,1.307,0,0,0,.419-.933,3.2,3.2,0,0,0-.378-1.347,9.617,9.617,0,0,1-.54-1.341,2.712,2.712,0,0,1,.671-2.9,2.592,2.592,0,0,1,1.8-.82,2.92,2.92,0,0,1,1.925.715l1.052-1.045.766.773-1.062,1.054a2.687,2.687,0,0,1,.576,2.005,3.421,3.421,0,0,1-1.082,1.983l-1.159-1.168a2.14,2.14,0,0,0,.689-1.223,1.245,1.245,0,0,0-.386-1.087,1.406,1.406,0,0,0-.969-.476,1.344,1.344,0,0,0-.978.454,1.262,1.262,0,0,0-.417.924,3.518,3.518,0,0,0,.388,1.353,10.363,10.363,0,0,1,.542,1.387,3.485,3.485,0,0,1,.147,1.031,2.5,2.5,0,0,1-.2.939,2.859,2.859,0,0,1-.628.882,2.543,2.543,0,0,1-1.819.812,3.091,3.091,0,0,1-1.979-.8l-.942.934-.761-.768.937-.928a2.891,2.891,0,0,1,.253-4.186l1.163,1.172a1.888,1.888,0,0,0-.637,1.242,1.57,1.57,0,0,0,.526,1.2,1.671,1.671,0,0,0,1.1.574A1.278,1.278,0,0,0,610.118,726.563Z" transform="translate(-605.791 -718.896)" fill="url(#linear-gradient-45)"/>
        </g>
        <g id="Grupo_12516" data-name="Grupo 12516" transform="translate(51.545 117.086)">
          <path id="Caminho_10352" data-name="Caminho 10352" d="M614.5,730.979a1.314,1.314,0,0,0,.419-.933,3.2,3.2,0,0,0-.378-1.349,9.624,9.624,0,0,1-.54-1.34,2.712,2.712,0,0,1,.671-2.9,2.6,2.6,0,0,1,1.8-.82,2.929,2.929,0,0,1,1.923.717l1.053-1.045.766.773-1.062,1.054a2.692,2.692,0,0,1,.576,2,3.424,3.424,0,0,1-1.082,1.983l-1.16-1.168a2.151,2.151,0,0,0,.689-1.222,1.251,1.251,0,0,0-.386-1.089,1.409,1.409,0,0,0-.969-.475,1.337,1.337,0,0,0-.978.453,1.265,1.265,0,0,0-.417.925,3.534,3.534,0,0,0,.388,1.354,10.539,10.539,0,0,1,.542,1.386,3.479,3.479,0,0,1,.147,1.033,2.489,2.489,0,0,1-.2.938,2.858,2.858,0,0,1-.628.882,2.543,2.543,0,0,1-1.819.812,3.1,3.1,0,0,1-1.981-.8l-.942.933-.76-.768.937-.928a2.892,2.892,0,0,1,.253-4.186l1.163,1.172a1.891,1.891,0,0,0-.637,1.242,1.574,1.574,0,0,0,.526,1.2,1.676,1.676,0,0,0,1.1.574A1.282,1.282,0,0,0,614.5,730.979Z" transform="translate(-610.17 -723.312)" fill="url(#linear-gradient-45)"/>
        </g>
        <g id="Grupo_12517" data-name="Grupo 12517" transform="translate(50.666 96.305)">
          <rect id="Retângulo_17761" data-name="Retângulo 17761" width="1.193" height="29.71" transform="matrix(0.643, -0.766, 0.766, 0.643, 0, 0.913)" fill="url(#linear-gradient-48)"/>
        </g>
        <g id="Grupo_12518" data-name="Grupo 12518" transform="translate(56.193 89.934)">
          <rect id="Retângulo_17762" data-name="Retângulo 17762" width="1.193" height="33.831" transform="translate(0 0.93) rotate(-51.21)" fill="url(#linear-gradient-49)"/>
        </g>
        <g id="Grupo_12519" data-name="Grupo 12519" transform="translate(63.506 85.365)">
          <rect id="Retângulo_17763" data-name="Retângulo 17763" width="1.192" height="35.214" transform="matrix(0.621, -0.784, 0.784, 0.621, 0, 0.935)" fill="url(#linear-gradient-50)"/>
        </g>
        <g id="Grupo_12520" data-name="Grupo 12520" transform="translate(73.455 83.673)">
          <rect id="Retângulo_17764" data-name="Retângulo 17764" width="1.193" height="35.62" transform="translate(0 0.983) rotate(-55.483)" fill="url(#linear-gradient-51)"/>
        </g>
        <g id="Grupo_12521" data-name="Grupo 12521" transform="translate(82.623 79.213)">
          <rect id="Retângulo_17765" data-name="Retângulo 17765" width="1.192" height="36.194" transform="matrix(0.526, -0.85, 0.85, 0.526, 0, 1.014)" fill="url(#linear-gradient-52)"/>
        </g>
        <g id="Grupo_12522" data-name="Grupo 12522" transform="translate(91.561 74.442)">
          <rect id="Retângulo_17766" data-name="Retângulo 17766" width="1.192" height="33.263" transform="matrix(0.536, -0.844, 0.844, 0.536, 0, 1.007)" fill="url(#linear-gradient-53)"/>
        </g>
        <g id="Grupo_12523" data-name="Grupo 12523" transform="translate(102.893 59.601)">
          <rect id="Retângulo_17767" data-name="Retângulo 17767" width="1.192" height="35.414" transform="translate(0 1.083) rotate(-65.293)" fill="url(#linear-gradient-54)"/>
        </g>
        <g id="Grupo_12524" data-name="Grupo 12524" transform="translate(98.161 68.007)">
          <rect id="Retângulo_17768" data-name="Retângulo 17768" width="1.193" height="34.327" transform="matrix(0.455, -0.89, 0.89, 0.455, 0, 1.062)" fill="url(#linear-gradient-55)"/>
        </g>
        <g id="Grupo_12525" data-name="Grupo 12525" transform="translate(104.233 49.655)">
          <rect id="Retângulo_17769" data-name="Retângulo 17769" width="1.192" height="34.638" transform="translate(0 1.097) rotate(-66.963)" fill="url(#linear-gradient-56)"/>
        </g>
      </g>
      <g id="Grupo_12527" data-name="Grupo 12527" transform="translate(163.223 115.497)">
        <path id="Caminho_10353" data-name="Caminho 10353" d="M710.067,733.185l-1.152,14.424s.149,1.029-1.273.633c0,0-.6-12.05-2.487-14.028S710.067,733.185,710.067,733.185Z" transform="translate(-698.747 -586.932)" fill="url(#linear-gradient-57)"/>
        <path id="Caminho_10354" data-name="Caminho 10354" d="M722.094,771.56a2.846,2.846,0,0,1-3.028-.9,8.855,8.855,0,0,1-1.561-2.952c-2.055-5.366-6.4-7.754-10.528-11.672.371-.28,4.352-5.58,2.333-22.152-1.529-12.551-1.6-19.509,2.793-30.366,5.669-14.006.407-27.128-4.729-36.524-3.815-6.979-8.986-37.965-6.992-43.283,5.247-14,18.141-5.436,19.256-6.58,4.533,11.8,7.748,21.452,9.747,32.115a161.116,161.116,0,0,1,2.471,41.979c-.31,4.761-8.729,28.255-11.865,58.971-.519,5.084,2.415,15.368,2.615,18.454.031.468.649.713,1.115.987-.025.062-.044.128-.071.189A3.167,3.167,0,0,1,722.094,771.56Z" transform="translate(-699.939 -615.579)" fill="#fed0ca"/>
        <path id="Caminho_10355" data-name="Caminho 10355" d="M729.9,743.3l-14.149,2.2c-.141-.572-.193-1.188-.29-1.64a30.8,30.8,0,0,0-.968-3.471,12.506,12.506,0,0,0-1.365-3.194,9.188,9.188,0,0,0-2.343-2.3c-.272-.183-1.187-.779-1.51-.459-.3.3-.656,1.242-.421,1.5,5.611,6.132,2.086,12.072,7.076,12.072,9.4,0,14.187-3.556,14.187-3.556Z" transform="translate(-697.782 -586.596)" fill="url(#linear-gradient-42)"/>
        <path id="Caminho_10356" data-name="Caminho 10356" d="M707.244,726.856a7.659,7.659,0,0,1,5.5,3.306c2.151,2.911,2.309,7.04,3.594,10.393a8.855,8.855,0,0,0,1.561,2.952,2.846,2.846,0,0,0,3.028.9,3.249,3.249,0,0,0,1.626-1.918c2.377,1.4,8.779.189,8.338,2.637-3.39,2.834-12.505,5.015-14.179,3.195-1.974-2.148.674-6.545-6.363-10.38-.784-.428-3.508-.12-4.533-.674C703.736,734.778,704.767,728.731,707.244,726.856Z" transform="translate(-698.777 -588.421)" fill="#ecf2fa"/>
      </g>
      <path id="Caminho_10357" data-name="Caminho 10357" d="M699.826,611.213s-6.65,11.274-7.176,23.371c-.286,6.6,1.876,45.306,5.575,53.819,0,0,17.469,5.514,39.28-1.987,0,0-3.735-63.973-7.65-75.009Z" transform="translate(-538.501 -501.148)" fill="#007F33"/>
      <path id="Caminho_10358" data-name="Caminho 10358" d="M736.406,686.392s-3.736-63.973-7.65-75.01l-10.948-.07s16.384,51.095,3.48,64.7-24.162,12.366-24.162,12.366S714.595,693.893,736.406,686.392Z" transform="translate(-537.403 -501.123)" fill="#00A443" style="mix-blend-mode: multiply;isolation: isolate"/>
      <path id="Caminho_10359" data-name="Caminho 10359" d="M689.428,615.62l-.039-.041C689.384,615.688,689.4,615.69,689.428,615.62Z" transform="translate(-539.291 -500.082)" fill="#675c58" opacity="0.5" style="mix-blend-mode: multiply;isolation: isolate"/>
      <path id="Caminho_10360" data-name="Caminho 10360" d="M698.413,612.2c1.2,1.013,16.715,5.762,30.029.194l-.964-4.327c-12.5,1.952-15.649,2.534-28.625-.883Z" transform="translate(-537.089 -502.132)" fill="url(#linear-gradient-59)"/>
      <path id="Caminho_10361" data-name="Caminho 10361" d="M685.219,632.815a17.943,17.943,0,0,1-1.545,2.907c-.471.952-.57,1.982-1.014,2.941-1.094,2.359-2.241-.369-1.977-2.013a28.011,28.011,0,0,0,.646-2.729c.061-.912-.21-2.215-.194-3.029.031-1.543,1.475-3.109,2.861-2.162C685.529,629.776,685.238,631.827,685.219,632.815Z" transform="translate(-541.425 -496.943)" fill="#fed0ca"/>
    </g>
  </g>
</svg>
