<?xml version="1.0" encoding="utf-8"?>
<svg viewBox="391.026 194.056 52.447 49.533" xmlns="http://www.w3.org/2000/svg">
  <circle style="fill: #007F33;" cx="421.912" cy="215.617" r="24.315" transform="matrix(0.904791, 0, 0, 0.851133, 35.855034, 35.133629)"/>
  <path class="a" d="M 429.573 217.296 C 429.24 216.792 428.673 216.492 428.068 216.502 L 426.756 216.502 L 426.756 214.544 C 426.755 213.536 425.939 212.72 424.931 212.719 L 416.85 212.719 L 416.033 210.892 C 415.749 210.229 415.095 209.801 414.373 209.806 L 409.621 209.806 C 408.614 209.807 407.797 210.623 407.796 211.631 C 407.796 213.367 407.791 216.979 407.785 218.715 L 408.548 218.715 C 408.553 216.978 408.559 213.365 408.559 211.629 C 408.56 211.043 409.035 210.568 409.621 210.567 L 414.373 210.567 C 414.794 210.559 415.176 210.808 415.339 211.196 L 416.359 213.477 L 424.935 213.477 C 425.522 213.48 425.995 213.957 425.993 214.544 L 425.993 216.504 L 412.936 216.504 C 412.175 216.5 411.492 216.972 411.227 217.686 L 408.527 224.794 C 408.527 222.594 408.533 220.361 408.543 218.158 L 407.78 218.158 C 407.769 220.575 407.764 223.025 407.764 225.439 C 407.764 225.728 407.832 226.013 407.964 226.27 L 407.958 226.288 L 408.073 226.444 C 408.411 226.952 408.981 227.258 409.591 227.258 L 425.373 227.258 C 426.133 227.262 426.815 226.793 427.082 226.082 L 429.773 218.975 C 429.996 218.417 429.921 217.785 429.573 217.296 Z M 429.063 218.706 L 426.373 225.811 C 426.22 226.229 425.818 226.504 425.373 226.495 L 409.593 226.495 C 409.303 226.495 409.026 226.376 408.826 226.166 L 411.94 217.952 C 412.091 217.533 412.491 217.257 412.935 217.263 L 428.067 217.263 C 428.813 217.261 429.33 218.006 429.067 218.704 Z" style="fill: rgb(255, 255, 255);"/>
</svg>
