<svg id="location" xmlns="http://www.w3.org/2000/svg" width="18.612" height="28.877" viewBox="0 0 18.612 28.877">
  <rect id="Retângulo_17494" data-name="Retângulo 17494" width="13" height="11" transform="translate(2.804 4.689)" fill="#f5f5f5"/>
  <path id="Caminho_8963" data-name="Caminho 8963" d="M162.844,482.846A.846.846,0,0,0,162,482H151.846a.846.846,0,0,0,0,1.692H162A.846.846,0,0,0,162.844,482.846Z" transform="translate(-147.616 -454.815)" fill="#00A443"/>
  <path id="Caminho_8964" data-name="Caminho 8964" d="M100.306,0A9.317,9.317,0,0,0,91,9.306c0,7.037,8.353,15.584,8.708,15.939a.846.846,0,0,0,1.2,0c.355-.355,8.708-8.9,8.708-15.939A9.317,9.317,0,0,0,100.306,0Zm5.78,9.775a.846.846,0,0,1-1.173.235l-.377-.251v4.623a.846.846,0,0,1-.846.846H96.922a.846.846,0,0,1-.846-.846V9.759l-.377.251A.846.846,0,0,1,94.761,8.6l5.076-3.384a.844.844,0,0,1,.939,0L105.851,8.6A.845.845,0,0,1,106.086,9.775Z" transform="translate(-91)" fill="#00A443"/>
  <path id="Caminho_8965" data-name="Caminho 8965" d="M211,124.724v4.905h5.076v-4.905l-2.538-1.692Z" transform="translate(-204.232 -116.093)" fill="#00A443"/>
</svg>
