<svg id="Layer_1" data-name="Layer 1" xmlns="http://www.w3.org/2000/svg" viewBox="0 0 24 24"><defs><style>.cls-1{fill:#00A443;}</style></defs><path class="cls-1" d="M18.87,9H6.8a.61.61,0,0,0-.61.61V21.63a.61.61,0,0,0,.61.61H18.87a.61.61,0,0,0,.61-.61V9.56A.61.61,0,0,0,18.87,9ZM19,21.63a.1.1,0,0,1-.1.1H6.8a.09.09,0,0,1-.1-.1V9.56a.09.09,0,0,1,.1-.1H18.87a.1.1,0,0,1,.1.1Z"/><path class="cls-1" d="M14.84,20.24a.89.89,0,0,1-.5.15.26.26,0,0,0-.26.25.26.26,0,0,0,.26.26,1.36,1.36,0,0,0,.78-.24.25.25,0,0,0,.07-.35A.24.24,0,0,0,14.84,20.24Z"/><path class="cls-1" d="M15.38,12.82A5.51,5.51,0,0,0,13,12.21v-.8a.25.25,0,0,0-.25-.25.26.26,0,0,0-.26.25v.8a5.51,5.51,0,0,0-2.42.61,2,2,0,0,0-1.18,1.65.25.25,0,0,0,.25.25.26.26,0,0,0,.26-.25,1.47,1.47,0,0,1,.92-1.2,5,5,0,0,1,2.17-.55V14c-1.39.08-2.45.75-2.45,1.61a.26.26,0,0,0,.26.25.25.25,0,0,0,.25-.25c0-.16.08-.46.59-.74a3.09,3.09,0,0,1,1.35-.34V15.6A1.46,1.46,0,0,0,11.16,17a.26.26,0,0,0,.26.25.25.25,0,0,0,.25-.25.93.93,0,0,1,.78-.87v1.92H11.27a1.43,1.43,0,1,0,0,2.85.26.26,0,0,0,.25-.26.25.25,0,0,0-.25-.25.92.92,0,1,1,0-1.83h3.07a.91.91,0,0,1,.91.91.75.75,0,0,1,0,.21.26.26,0,0,0,.19.31.26.26,0,0,0,.31-.19,1.84,1.84,0,0,0,0-.33,1.43,1.43,0,0,0-1.42-1.42H13V16.13a.92.92,0,0,1,.78.87.26.26,0,0,0,.26.25.25.25,0,0,0,.25-.25A1.46,1.46,0,0,0,13,15.6V14.54a3.09,3.09,0,0,1,1.35.34c.51.28.59.58.59.74a.26.26,0,0,0,.51,0c0-.86-1.06-1.53-2.45-1.61V12.72a5,5,0,0,1,2.17.55,1.48,1.48,0,0,1,.93,1.2.25.25,0,0,0,.25.25.26.26,0,0,0,.26-.25A2,2,0,0,0,15.38,12.82Z"/><path class="cls-1" d="M12.68,10.83a.26.26,0,0,0,.26-.25v-.52a.26.26,0,0,0-.26-.26.26.26,0,0,0-.25.26v.52A.25.25,0,0,0,12.68,10.83Z"/><path class="cls-1" d="M7.06,3.4h6.42a.26.26,0,0,0,.25-.26.25.25,0,0,0-.25-.25H13.1V2a.26.26,0,0,0-.26-.26H7.73A.26.26,0,0,0,7.48,2v.87H7.06a.26.26,0,0,0-.26.25A.26.26,0,0,0,7.06,3.4ZM8,2.27h4.61v.62H8Z"/><path class="cls-1" d="M15.35,4.45V8.32a.26.26,0,1,0,.51,0V4.45a.67.67,0,0,0-.67-.67h-10a.67.67,0,0,0-.67.67V17.57a.26.26,0,0,0,.26.26A.26.26,0,0,0,5,17.57V4.45a.16.16,0,0,1,.16-.16h10A.16.16,0,0,1,15.35,4.45Z"/><path class="cls-1" d="M6.56,7.92a.26.26,0,0,0,.25.26h.92A.26.26,0,0,0,8,7.92V7.3h.62A.26.26,0,0,0,8.87,7V6.13a.26.26,0,0,0-.26-.26H8V5.25A.26.26,0,0,0,7.73,5H6.81a.26.26,0,0,0-.25.26v.62H5.94a.26.26,0,0,0-.26.26V7a.25.25,0,0,0,.26.26h.62ZM6.19,6.79V6.38h.62a.25.25,0,0,0,.26-.25V5.5h.41v.63a.25.25,0,0,0,.25.25h.63v.41H7.73A.25.25,0,0,0,7.48,7v.63H7.07V7a.25.25,0,0,0-.26-.25Z"/><path class="cls-1" d="M14.19,6.14a.26.26,0,0,0,.26-.25.26.26,0,0,0-.26-.26h-.74a.26.26,0,0,0-.26.26.25.25,0,0,0,.26.25Z"/><path class="cls-1" d="M12.21,6.14a.25.25,0,0,0,.25-.25.26.26,0,0,0-.25-.26H9.7a.26.26,0,0,0-.25.26.25.25,0,0,0,.25.25Z"/><path class="cls-1" d="M9.77,7.54h4.49a.26.26,0,0,0,.26-.26A.26.26,0,0,0,14.26,7H9.77a.25.25,0,0,0-.25.25A.26.26,0,0,0,9.77,7.54Z"/></svg>
