<svg id="clock" xmlns="http://www.w3.org/2000/svg" width="32" height="32" viewBox="0 0 32 32">
  <path id="Caminho_10636" data-name="Caminho 10636" d="M16,32A16,16,0,1,1,32,16,16.018,16.018,0,0,1,16,32ZM16,2A14,14,0,1,0,30,16,14.015,14.015,0,0,0,16,2Zm0,0" fill="#1e2d36"/>
  <path id="Caminho_10637" data-name="Caminho 10637" d="M248,119.666a.992.992,0,0,1-.707-.293l-7-7a1,1,0,0,1-.293-.707v-9.333a1,1,0,0,1,2,0v8.919l6.707,6.707a1,1,0,0,1-.707,1.708Zm0,0" transform="translate(-225 -94.999)" fill="#1e2d36"/>
</svg>
