<svg id="Layer_1" data-name="Layer 1" xmlns="http://www.w3.org/2000/svg" viewBox="0 0 197 380"><defs><style>.cls-1{fill:#FFFAF6;}.cls-2{fill:#fff;}.cls-3{fill:#eae8e5;}.cls-4{fill:#FFCD52;}.cls-5{fill:#33385c;}.cls-6{fill:#454b6d;}.cls-7{fill:#4cc3ed;}.cls-8{fill:#26BF64;}.cls-9{isolation:isolate;}.cls-10{fill:#26BF64;}.cls-11{fill:#707071;}.cls-12{fill:#C66D00;}</style></defs><g id="resI"><g id="Group_14514" data-name="Group 14514"><path id="Rectangle_17486" data-name="Rectangle 17486" class="cls-1" d="M26.94,23.26h177a10,10,0,0,1,10,10v360a10,10,0,0,1-10,10h-177a10,10,0,0,1-10-10v-360A10,10,0,0,1,26.94,23.26Z" transform="translate(-16.94 -23.26)"/></g><g id="Group_14518" data-name="Group 14518"><g id="Group_14444" data-name="Group 14444"><g id="home"><g id="Group_14479" data-name="Group 14479"><path id="Path_13312" data-name="Path 13312" class="cls-2" d="M69.58,60.13l-11-10.64a.83.83,0,0,0-1.15,0l-11,10.64A.83.83,0,0,0,47,61.56h1.46V73.19a.83.83,0,0,0,.83.83h5.82a.83.83,0,0,0,.83-.83V66.54h4.15v6.65a.83.83,0,0,0,.83.83H66.7a.83.83,0,0,0,.83-.83V61.56H69a.83.83,0,0,0,.83-.83.73.73,0,0,0-.24-.6Zm-2,.6a.83.83,0,0,0-.83.83V73.19H60.9V66.54a.83.83,0,0,0-.83-.83H55.92a.83.83,0,0,0-.83.83v6.65H49.27V61.56a.83.83,0,0,0-.83-.83H47L58,50.09,69,60.73Z" transform="translate(-16.94 -23.26)"/></g></g><g id="Group_14517" data-name="Group 14517"><g id="home-2" data-name="home"><path id="Path_13316" data-name="Path 13316" class="cls-3" d="M58,41.59,42.1,52.36V77H73.83V52.36Z" transform="translate(-16.94 -23.26)"/><path id="Path_13317" data-name="Path 13317" class="cls-4" d="M48.06,63.8h7.27V77H48.06Z" transform="translate(-16.94 -23.26)"/><path id="Path_13318" data-name="Path 13318" class="cls-5" d="M62.6,69.75h9.26v2.64H62.6Z" transform="translate(-16.94 -23.26)"/><g id="Group_14517-2" data-name="Group 14517-2"><path id="Path_13319" data-name="Path 13319" class="cls-6" d="M60.62,77V67.76l1.32-2,1.32,2V77Z" transform="translate(-16.94 -23.26)"/><path id="Path_13320" data-name="Path 13320" class="cls-6" d="M65.91,77V67.76l1.32-2,1.32,2V77Z" transform="translate(-16.94 -23.26)"/><path id="Path_13321" data-name="Path 13321" class="cls-6" d="M71.2,77V67.76l1.32-2,1.32,2V77Z" transform="translate(-16.94 -23.26)"/></g><path id="Path_13322" data-name="Path 13322" class="cls-7" d="M60,57.85H56a2,2,0,0,1-2-2v-4a2,2,0,0,1,2-2h4a2,2,0,0,1,2,2h0v4a2,2,0,0,1-2,2Z" transform="translate(-16.94 -23.26)"/><path id="Path_13323" data-name="Path 13323" class="cls-6" d="M61.94,53.22h-3.3V49.91H57.32v3.31H54v1.32h3.31v3.31h1.32V54.54H62Z" transform="translate(-16.94 -23.26)"/><path id="Path_13324" data-name="Path 13324" class="cls-6" d="M52,69.75h1.32v1.32H52Z" transform="translate(-16.94 -23.26)"/><path id="Path_13325" data-name="Path 13325" class="cls-6" d="M41.45,71.73h1.32V77H41.45Z" transform="translate(-16.94 -23.26)"/><path id="Path_13326" data-name="Path 13326" class="cls-8" d="M45.41,69.08c0,2.37-1.48,4-3.31,4s-3.31-1.59-3.31-4c0-1.55,1.41-5.3,2.39-7.72a1,1,0,0,1,1.84,0C44,63.78,45.41,67.54,45.41,69.08Z" transform="translate(-16.94 -23.26)"/><path id="Path_13327" data-name="Path 13327" class="cls-6" d="M38.14,76.36H77.81v1.32H38.14Z" transform="translate(-16.94 -23.26)"/><path id="Path_13328" data-name="Path 13328" class="cls-4" d="M75.74,53.65,58,41.59,40.2,53.65l-1.49-2.19L58,38.39,77.21,51.46Z" transform="translate(-16.94 -23.26)"/></g></g></g></g><g class="cls-9"><path class="cls-10" d="M102.32,62.88H100.8v3.38H98.9V57h3.43a3.89,3.89,0,0,1,2.53.73,2.5,2.5,0,0,1,.88,2.06,2.82,2.82,0,0,1-.41,1.58,2.74,2.74,0,0,1-1.24,1l2,3.78v.09h-2Zm-1.52-1.55h1.54a1.61,1.61,0,0,0,1.11-.36,1.33,1.33,0,0,0,.39-1,1.4,1.4,0,0,0-.37-1,1.55,1.55,0,0,0-1.14-.37H100.8Z" transform="translate(-16.94 -23.26)"/><path class="cls-10" d="M112.75,62.25H109.1v2.48h4.29v1.53h-6.2V57h6.18v1.54H109.1v2.2h3.65Z" transform="translate(-16.94 -23.26)"/><path class="cls-10" d="M119.3,63.83a1,1,0,0,0-.38-.83,5.19,5.19,0,0,0-1.38-.6,9.65,9.65,0,0,1-1.56-.64,2.56,2.56,0,0,1-1.58-2.29,2.22,2.22,0,0,1,.42-1.33,2.75,2.75,0,0,1,1.22-.92,4.54,4.54,0,0,1,1.77-.33,4.18,4.18,0,0,1,1.77.36,2.84,2.84,0,0,1,1.2,1,2.71,2.71,0,0,1,.43,1.49H119.3a1.23,1.23,0,0,0-.4-1,1.6,1.6,0,0,0-1.12-.35,1.74,1.74,0,0,0-1.09.29,1,1,0,0,0-.38.78.88.88,0,0,0,.45.75,4.65,4.65,0,0,0,1.34.57A5.8,5.8,0,0,1,120.46,62a2.39,2.39,0,0,1,.75,1.8,2.23,2.23,0,0,1-.91,1.88,4,4,0,0,1-2.44.68,4.75,4.75,0,0,1-2-.39,3,3,0,0,1-1.33-1.07,2.69,2.69,0,0,1-.46-1.57H116q0,1.53,1.83,1.53a1.75,1.75,0,0,0,1.06-.28A.9.9,0,0,0,119.3,63.83Z" transform="translate(-16.94 -23.26)"/><path class="cls-10" d="M124.52,66.26h-1.9V57h1.9Z" transform="translate(-16.94 -23.26)"/><path class="cls-10" d="M126.29,66.26V57h2.84a4.38,4.38,0,0,1,2.18.54,3.85,3.85,0,0,1,1.5,1.57,4.79,4.79,0,0,1,.54,2.3v.42a4.84,4.84,0,0,1-.53,2.29,3.8,3.8,0,0,1-1.49,1.56,4.42,4.42,0,0,1-2.18.56Zm1.9-7.7v6.17h.92a2.11,2.11,0,0,0,1.71-.73,3.33,3.33,0,0,0,.6-2.09v-.49a3.32,3.32,0,0,0-.58-2.13,2.05,2.05,0,0,0-1.71-.73Z" transform="translate(-16.94 -23.26)"/><path class="cls-10" d="M140.29,62.25h-3.65v2.48h4.29v1.53h-6.2V57h6.19v1.54h-4.28v2.2h3.65Z" transform="translate(-16.94 -23.26)"/><path class="cls-10" d="M149.56,66.26h-1.9L144,60.18v6.08h-1.9V57H144l3.71,6.09V57h1.9Z" transform="translate(-16.94 -23.26)"/><path class="cls-10" d="M158.48,63.18a3.28,3.28,0,0,1-1.1,2.35,3.88,3.88,0,0,1-2.62.85,3.48,3.48,0,0,1-2.8-1.19,5,5,0,0,1-1-3.29v-.56a5.45,5.45,0,0,1,.47-2.35,3.49,3.49,0,0,1,1.34-1.56,3.78,3.78,0,0,1,2-.54,3.72,3.72,0,0,1,2.57.86,3.46,3.46,0,0,1,1.13,2.4h-1.9a1.93,1.93,0,0,0-.5-1.3,1.82,1.82,0,0,0-1.3-.4,1.64,1.64,0,0,0-1.43.68,3.82,3.82,0,0,0-.48,2.12V62a4.12,4.12,0,0,0,.45,2.19,1.59,1.59,0,0,0,1.43.69,1.57,1.57,0,0,0,1.82-1.65Z" transform="translate(-16.94 -23.26)"/><path class="cls-10" d="M161.76,66.26h-1.91V57h1.91Z" transform="translate(-16.94 -23.26)"/><path class="cls-10" d="M168.85,64.35h-3.34l-.63,1.91h-2L166.29,57h1.77l3.46,9.24h-2ZM166,62.81h2.31l-1.16-3.46Z" transform="translate(-16.94 -23.26)"/><path class="cls-10" d="M174.29,64.73h4v1.53h-6V57h1.91Z" transform="translate(-16.94 -23.26)"/><path class="cls-10" d="M184.68,66.26h-1.9V57h1.9Z" transform="translate(-16.94 -23.26)"/><path class="cls-10" d="M188.47,66.26h-1.9V57h1.9Z" transform="translate(-16.94 -23.26)"/><path class="cls-10" d="M192.26,66.26h-1.9V57h1.9Z" transform="translate(-16.94 -23.26)"/></g><g class="cls-9"><path class="cls-10" d="M124.39,75.73v1.66h1.28v.91h-1.28v4.26a.92.92,0,0,0,.17.62.71.71,0,0,0,.58.21,3,3,0,0,0,.56-.08v1a3.6,3.6,0,0,1-.9.12,1.46,1.46,0,0,1-1.19-.47,2.09,2.09,0,0,1-.4-1.35V78.3H122v-.91h1.25V75.73Z" transform="translate(-16.94 -23.26)"/><path class="cls-10" d="M130.36,78.44a3.52,3.52,0,0,0-.58,0,1.56,1.56,0,0,0-1.57,1v4.88H127V77.39h1.14l0,.79a1.84,1.84,0,0,1,1.64-.92,1.18,1.18,0,0,1,.52.09Z" transform="translate(-16.94 -23.26)"/><path class="cls-10" d="M131.45,75.57a.67.67,0,0,1,.17-.48.78.78,0,0,1,1,0,.68.68,0,0,1,.18.48.64.64,0,0,1-.18.47.81.81,0,0,1-1,0A.63.63,0,0,1,131.45,75.57Zm1.26,8.69h-1.17V77.39h1.17Z" transform="translate(-16.94 -23.26)"/><path class="cls-10" d="M135.17,84.26v-6h-1.08v-.91h1.08v-.7a2.35,2.35,0,0,1,.59-1.71,2.25,2.25,0,0,1,1.67-.6,3.21,3.21,0,0,1,.81.1l-.07,1a3.13,3.13,0,0,0-.63-.06,1.11,1.11,0,0,0-.88.34,1.33,1.33,0,0,0-.31,1v.73h1.46v.91h-1.46v6Z" transform="translate(-16.94 -23.26)"/><path class="cls-10" d="M143.35,84.26a2.36,2.36,0,0,1-.17-.73,2.6,2.6,0,0,1-2,.85,2.45,2.45,0,0,1-1.67-.57,1.87,1.87,0,0,1-.65-1.46,1.92,1.92,0,0,1,.82-1.66,3.8,3.8,0,0,1,2.29-.6h1.14v-.54a1.31,1.31,0,0,0-.37-1,1.47,1.47,0,0,0-1.08-.36,1.64,1.64,0,0,0-1.05.32.91.91,0,0,0-.43.76h-1.18a1.59,1.59,0,0,1,.37-1,2.48,2.48,0,0,1,1-.76,3.39,3.39,0,0,1,1.37-.28,2.7,2.7,0,0,1,1.86.6,2.14,2.14,0,0,1,.7,1.63v3.16a3.94,3.94,0,0,0,.24,1.51v.1Zm-1.95-.9a2.07,2.07,0,0,0,1-.28,1.65,1.65,0,0,0,.71-.75v-1.4h-.92q-2.16,0-2.16,1.26a1.08,1.08,0,0,0,.37.86A1.41,1.41,0,0,0,141.4,83.36Zm1.08-8.85h1.43l-1.7,1.86h-1Z" transform="translate(-16.94 -23.26)"/><path class="cls-10" d="M150.18,82.44a.85.85,0,0,0-.36-.74,3.45,3.45,0,0,0-1.25-.46,6,6,0,0,1-1.42-.45,2,2,0,0,1-.77-.64,1.48,1.48,0,0,1-.25-.87,1.79,1.79,0,0,1,.71-1.43,3.18,3.18,0,0,1,3.72,0,1.89,1.89,0,0,1,.73,1.54h-1.18a1.07,1.07,0,0,0-.41-.83,1.5,1.5,0,0,0-1-.35,1.62,1.62,0,0,0-1,.28.87.87,0,0,0-.36.73.71.71,0,0,0,.34.64,4.21,4.21,0,0,0,1.21.41,6.29,6.29,0,0,1,1.43.47,2.1,2.1,0,0,1,.81.66,1.64,1.64,0,0,1,.26.93,1.75,1.75,0,0,1-.73,1.48,3.09,3.09,0,0,1-1.91.55,3.34,3.34,0,0,1-1.46-.29,2.31,2.31,0,0,1-1-.81,2,2,0,0,1-.36-1.14h1.18a1.22,1.22,0,0,0,.47.94,2.17,2.17,0,0,0,2.23.08A.83.83,0,0,0,150.18,82.44Z" transform="translate(-16.94 -23.26)"/><path class="cls-10" d="M152.89,75.57a.72.72,0,0,1,.17-.48.78.78,0,0,1,1,0,.68.68,0,0,1,.18.48.64.64,0,0,1-.18.47.81.81,0,0,1-1,0A.68.68,0,0,1,152.89,75.57Zm1.27,8.69H153V77.39h1.18Z" transform="translate(-16.94 -23.26)"/><path class="cls-10" d="M158.79,83.43a1.66,1.66,0,0,0,1.1-.39,1.33,1.33,0,0,0,.52-1h1.11a2.14,2.14,0,0,1-.41,1.13,2.61,2.61,0,0,1-1,.85,3.08,3.08,0,0,1-3.55-.62,3.75,3.75,0,0,1-.83-2.56v-.2a4,4,0,0,1,.37-1.78,2.87,2.87,0,0,1,1.06-1.22,3.07,3.07,0,0,1,1.63-.43,2.74,2.74,0,0,1,1.92.7,2.47,2.47,0,0,1,.81,1.79h-1.11a1.59,1.59,0,0,0-.5-1.09,1.57,1.57,0,0,0-1.12-.43,1.64,1.64,0,0,0-1.39.64,3,3,0,0,0-.49,1.86V81a3,3,0,0,0,.48,1.83A1.69,1.69,0,0,0,158.79,83.43Z" transform="translate(-16.94 -23.26)"/><path class="cls-10" d="M162.53,80.76a4,4,0,0,1,.4-1.81A2.92,2.92,0,0,1,164,77.7a3,3,0,0,1,1.62-.44,2.93,2.93,0,0,1,2.27,1,3.78,3.78,0,0,1,.86,2.59v.08a4.17,4.17,0,0,1-.38,1.8,3,3,0,0,1-1.1,1.24,3,3,0,0,1-1.64.44,2.86,2.86,0,0,1-2.26-1,3.69,3.69,0,0,1-.87-2.57Zm1.18.14a3,3,0,0,0,.53,1.83,1.78,1.78,0,0,0,2.84,0,3.2,3.2,0,0,0,.53-2,2.93,2.93,0,0,0-.54-1.83,1.79,1.79,0,0,0-2.83,0A3.22,3.22,0,0,0,163.71,80.9Z" transform="translate(-16.94 -23.26)"/></g><g id="Group_14486" data-name="Group 14486"><g class="cls-9"><path class="cls-10" d="M55.35,376.1a3.75,3.75,0,0,1-1.17,2.44,3.82,3.82,0,0,1-2.61.85,3.5,3.5,0,0,1-2.82-1.26,5.07,5.07,0,0,1-1.07-3.38v-1a5.65,5.65,0,0,1,.5-2.44,3.77,3.77,0,0,1,1.4-1.62,4,4,0,0,1,2.11-.56,3.59,3.59,0,0,1,2.54.88,3.73,3.73,0,0,1,1.12,2.45H54a2.82,2.82,0,0,0-.75-1.72,2.22,2.22,0,0,0-1.59-.54,2.33,2.33,0,0,0-2,.93,4.24,4.24,0,0,0-.72,2.65v1a4.39,4.39,0,0,0,.68,2.58,2.18,2.18,0,0,0,1.89,1,2.53,2.53,0,0,0,1.68-.49A2.77,2.77,0,0,0,54,376.1Z" transform="translate(-16.94 -23.26)"/><path class="cls-10" d="M56.6,375.49a4.43,4.43,0,0,1,.43-1.95A3.17,3.17,0,0,1,60,371.72a3.1,3.1,0,0,1,2.44,1,4,4,0,0,1,.94,2.78v.09a4.35,4.35,0,0,1-.42,1.94,3.14,3.14,0,0,1-1.18,1.34,3.25,3.25,0,0,1-1.77.47,3.08,3.08,0,0,1-2.43-1,4,4,0,0,1-.94-2.77Zm1.28.15a3.19,3.19,0,0,0,.57,2,1.84,1.84,0,0,0,1.52.74,1.8,1.8,0,0,0,1.53-.75,3.47,3.47,0,0,0,.57-2.12,3.12,3.12,0,0,0-.58-2,1.83,1.83,0,0,0-1.53-.76,1.81,1.81,0,0,0-1.51.75A3.46,3.46,0,0,0,57.88,375.64Z" transform="translate(-16.94 -23.26)"/><path class="cls-10" d="M66.12,371.86l0,.93a2.71,2.71,0,0,1,2.22-1.07c1.56,0,2.35.89,2.36,2.65v4.89H69.48v-4.9a1.73,1.73,0,0,0-.37-1.18A1.49,1.49,0,0,0,68,372.8a1.82,1.82,0,0,0-1.08.33,2.1,2.1,0,0,0-.72.86v5.27H64.92v-7.4Z" transform="translate(-16.94 -23.26)"/><path class="cls-10" d="M73.27,379.26v-6.42H72.1v-1h1.17v-.76a2.51,2.51,0,0,1,.64-1.84,2.4,2.4,0,0,1,1.79-.65,3.26,3.26,0,0,1,.87.12l-.07,1a3.66,3.66,0,0,0-.68-.06,1.23,1.23,0,0,0-.95.36,1.47,1.47,0,0,0-.34,1v.78h1.58v1H74.53v6.42Z" transform="translate(-16.94 -23.26)"/><path class="cls-10" d="M77.51,369.9a.77.77,0,0,1,.19-.52.85.85,0,0,1,1.12,0,.73.73,0,0,1,.19.52.7.7,0,0,1-.19.51.85.85,0,0,1-1.12,0A.75.75,0,0,1,77.51,369.9Zm1.37,9.36H77.62v-7.4h1.26Z" transform="translate(-16.94 -23.26)"/><path class="cls-10" d="M84.48,373a3.05,3.05,0,0,0-.62-.05A1.67,1.67,0,0,0,82.17,374v5.25H80.91v-7.4h1.23l0,.86a2,2,0,0,1,1.76-1,1.33,1.33,0,0,1,.56.1Z" transform="translate(-16.94 -23.26)"/><path class="cls-10" d="M89.94,379.26a2.34,2.34,0,0,1-.18-.78,2.82,2.82,0,0,1-2.11.91,2.61,2.61,0,0,1-1.79-.61,2,2,0,0,1-.7-1.57,2.1,2.1,0,0,1,.88-1.8,4.15,4.15,0,0,1,2.47-.64h1.23v-.58a1.42,1.42,0,0,0-.4-1.05,1.55,1.55,0,0,0-1.17-.4,1.87,1.87,0,0,0-1.13.34,1,1,0,0,0-.46.83H85.31a1.77,1.77,0,0,1,.39-1.07,2.69,2.69,0,0,1,1.07-.81,3.6,3.6,0,0,1,1.48-.31,3,3,0,0,1,2,.64,2.34,2.34,0,0,1,.75,1.76v3.41a4.21,4.21,0,0,0,.26,1.62v.11Zm-2.1-1A2.24,2.24,0,0,0,89,378a1.93,1.93,0,0,0,.78-.8v-1.52h-1c-1.55,0-2.33.45-2.33,1.36a1.13,1.13,0,0,0,.4.93A1.53,1.53,0,0,0,87.84,378.29Z" transform="translate(-16.94 -23.26)"/><path class="cls-10" d="M102.7,375.64a4.45,4.45,0,0,1-.77,2.72,2.49,2.49,0,0,1-2.1,1,2.73,2.73,0,0,1-2.12-.85v3.56H96.45V371.86h1.16l.06.82a2.59,2.59,0,0,1,2.14-1,2.52,2.52,0,0,1,2.11,1,4.46,4.46,0,0,1,.78,2.8Zm-1.27-.14a3.25,3.25,0,0,0-.53-2,1.72,1.72,0,0,0-1.46-.72,1.87,1.87,0,0,0-1.73,1v3.53a1.86,1.86,0,0,0,1.74,1,1.72,1.72,0,0,0,1.45-.72A3.61,3.61,0,0,0,101.43,375.5Z" transform="translate(-16.94 -23.26)"/><path class="cls-10" d="M107.88,373a3.05,3.05,0,0,0-.62-.05,1.67,1.67,0,0,0-1.69,1.06v5.25H104.3v-7.4h1.24l0,.86a2,2,0,0,1,1.76-1,1.33,1.33,0,0,1,.56.1Z" transform="translate(-16.94 -23.26)"/><path class="cls-10" d="M112,379.39a3.23,3.23,0,0,1-2.45-1,3.71,3.71,0,0,1-.94-2.65v-.23a4.41,4.41,0,0,1,.42-2,3.26,3.26,0,0,1,1.18-1.36,3,3,0,0,1,1.63-.49,2.79,2.79,0,0,1,2.25.95,4.15,4.15,0,0,1,.8,2.73v.52h-5a2.63,2.63,0,0,0,.63,1.77,2,2,0,0,0,1.56.67,2.2,2.2,0,0,0,1.13-.27,2.7,2.7,0,0,0,.82-.73l.77.61A3.11,3.11,0,0,1,112,379.39Zm-.16-6.63a1.69,1.69,0,0,0-1.28.56,2.66,2.66,0,0,0-.64,1.56h3.7v-.09a2.45,2.45,0,0,0-.52-1.5A1.6,1.6,0,0,0,111.82,372.76Z" transform="translate(-16.94 -23.26)"/><path class="cls-10" d="M122.58,375.64a4.39,4.39,0,0,1-.78,2.72,2.46,2.46,0,0,1-2.09,1,2.71,2.71,0,0,1-2.12-.85v3.56h-1.26V371.86h1.15l.07.82a2.59,2.59,0,0,1,2.14-1,2.53,2.53,0,0,1,2.11,1,4.46,4.46,0,0,1,.78,2.8Zm-1.27-.14a3.32,3.32,0,0,0-.53-2,1.72,1.72,0,0,0-1.46-.72,1.87,1.87,0,0,0-1.73,1v3.53a1.86,1.86,0,0,0,1.74,1,1.72,1.72,0,0,0,1.45-.72A3.61,3.61,0,0,0,121.31,375.5Z" transform="translate(-16.94 -23.26)"/><path class="cls-10" d="M128.75,379.26a3,3,0,0,1-.18-.78,2.82,2.82,0,0,1-2.1.91,2.64,2.64,0,0,1-1.8-.61,2,2,0,0,1-.7-1.57,2.1,2.1,0,0,1,.88-1.8,4.19,4.19,0,0,1,2.47-.64h1.23v-.58a1.42,1.42,0,0,0-.39-1.05,1.58,1.58,0,0,0-1.17-.4,1.92,1.92,0,0,0-1.14.34,1,1,0,0,0-.46.83h-1.27a1.77,1.77,0,0,1,.39-1.07,2.76,2.76,0,0,1,1.07-.81,3.6,3.6,0,0,1,1.48-.31,3,3,0,0,1,2,.64,2.31,2.31,0,0,1,.76,1.76v3.41a4,4,0,0,0,.26,1.62v.11Zm-2.1-1a2.28,2.28,0,0,0,1.13-.3,2,2,0,0,0,.77-.8v-1.52h-1c-1.55,0-2.32.45-2.32,1.36a1.15,1.15,0,0,0,.39.93A1.56,1.56,0,0,0,126.65,378.29Z" transform="translate(-16.94 -23.26)"/><path class="cls-10" d="M135.37,373a3.05,3.05,0,0,0-.62-.05,1.67,1.67,0,0,0-1.69,1.06v5.25H131.8v-7.4H133l0,.86a2,2,0,0,1,1.76-1,1.3,1.3,0,0,1,.56.1Z" transform="translate(-16.94 -23.26)"/><path class="cls-10" d="M136.06,375.49a4.43,4.43,0,0,1,.43-1.95,3.17,3.17,0,0,1,2.93-1.82,3.1,3.1,0,0,1,2.44,1,4,4,0,0,1,.94,2.78v.09a4.35,4.35,0,0,1-.42,1.94,3.14,3.14,0,0,1-1.18,1.34,3.25,3.25,0,0,1-1.77.47,3.08,3.08,0,0,1-2.43-1,4,4,0,0,1-.94-2.77Zm1.28.15a3.19,3.19,0,0,0,.57,2,1.94,1.94,0,0,0,3.06,0,3.54,3.54,0,0,0,.56-2.12,3.18,3.18,0,0,0-.57-2,1.86,1.86,0,0,0-1.54-.76,1.81,1.81,0,0,0-1.51.75A3.46,3.46,0,0,0,137.34,375.64Z" transform="translate(-16.94 -23.26)"/><path class="cls-10" d="M149.57,370.07v1.79H151v1h-1.38v4.59a1.05,1.05,0,0,0,.18.67.76.76,0,0,0,.63.22,3.54,3.54,0,0,0,.6-.08v1a3.7,3.7,0,0,1-1,.13,1.58,1.58,0,0,1-1.28-.51,2.18,2.18,0,0,1-.43-1.45v-4.59H147v-1h1.35v-1.79Z" transform="translate(-16.94 -23.26)"/><path class="cls-10" d="M155.49,379.39a3.23,3.23,0,0,1-2.45-1,3.71,3.71,0,0,1-.94-2.65v-.23a4.41,4.41,0,0,1,.42-2,3.26,3.26,0,0,1,1.18-1.36,3,3,0,0,1,1.63-.49,2.79,2.79,0,0,1,2.25.95,4.15,4.15,0,0,1,.8,2.73v.52h-5a2.63,2.63,0,0,0,.63,1.77,2,2,0,0,0,1.56.67,2.26,2.26,0,0,0,1.14-.27,2.79,2.79,0,0,0,.81-.73l.77.61A3.11,3.11,0,0,1,155.49,379.39Zm-.16-6.63a1.69,1.69,0,0,0-1.28.56,2.66,2.66,0,0,0-.64,1.56h3.7v-.09a2.39,2.39,0,0,0-.52-1.5A1.6,1.6,0,0,0,155.33,372.76Zm.62-4h1.53l-1.83,2h-1Z" transform="translate(-16.94 -23.26)"/><path class="cls-10" d="M162.81,378.36A1.79,1.79,0,0,0,164,378a1.43,1.43,0,0,0,.56-1h1.2a2.39,2.39,0,0,1-.44,1.21,2.83,2.83,0,0,1-1.08.91,3.31,3.31,0,0,1-3.83-.66,4.07,4.07,0,0,1-.89-2.76v-.21a4.37,4.37,0,0,1,.4-1.92,2.92,2.92,0,0,1,1.14-1.31,3.22,3.22,0,0,1,1.75-.47,3,3,0,0,1,2.07.75,2.68,2.68,0,0,1,.88,1.93h-1.2a1.81,1.81,0,0,0-.54-1.18,1.74,1.74,0,0,0-1.21-.46,1.77,1.77,0,0,0-1.49.7,3.2,3.2,0,0,0-.53,2v.24a3.19,3.19,0,0,0,.52,2A1.78,1.78,0,0,0,162.81,378.36Z" transform="translate(-16.94 -23.26)"/><path class="cls-10" d="M168.36,371.86l0,.93a2.69,2.69,0,0,1,2.21-1.07c1.56,0,2.35.89,2.37,2.65v4.89h-1.27v-4.9a1.68,1.68,0,0,0-.37-1.18,1.46,1.46,0,0,0-1.11-.38,1.82,1.82,0,0,0-1.08.33,2.2,2.2,0,0,0-.73.86v5.27h-1.26v-7.4Z" transform="translate(-16.94 -23.26)"/><path class="cls-10" d="M174.9,369.9a.73.73,0,0,1,.19-.52.69.69,0,0,1,.55-.21.74.74,0,0,1,.57.21.77.77,0,0,1,.19.52.69.69,0,0,1-.76.72.69.69,0,0,1-.55-.21A.7.7,0,0,1,174.9,369.9Zm1.37,9.36H175v-7.4h1.27Z" transform="translate(-16.94 -23.26)"/><path class="cls-10" d="M181.26,378.36a1.79,1.79,0,0,0,1.18-.41,1.43,1.43,0,0,0,.56-1h1.2a2.39,2.39,0,0,1-.44,1.21,2.83,2.83,0,0,1-1.08.91,3.31,3.31,0,0,1-3.83-.66,4.07,4.07,0,0,1-.89-2.76v-.21a4.37,4.37,0,0,1,.4-1.92,2.92,2.92,0,0,1,1.14-1.31,3.22,3.22,0,0,1,1.75-.47,3,3,0,0,1,2.07.75,2.68,2.68,0,0,1,.88,1.93H183a1.81,1.81,0,0,0-.54-1.18,1.74,1.74,0,0,0-1.21-.46,1.77,1.77,0,0,0-1.49.7,3.2,3.2,0,0,0-.53,2v.24a3.19,3.19,0,0,0,.52,2A1.78,1.78,0,0,0,181.26,378.36Z" transform="translate(-16.94 -23.26)"/><path class="cls-10" d="M185.28,375.49a4.43,4.43,0,0,1,.43-1.95,3.17,3.17,0,0,1,2.93-1.82,3.1,3.1,0,0,1,2.44,1,4,4,0,0,1,.94,2.78v.09a4.35,4.35,0,0,1-.42,1.94,3.14,3.14,0,0,1-1.18,1.34,3.25,3.25,0,0,1-1.77.47,3.08,3.08,0,0,1-2.43-1,4,4,0,0,1-.94-2.77Zm1.27.15a3.19,3.19,0,0,0,.58,2,1.82,1.82,0,0,0,1.52.74,1.8,1.8,0,0,0,1.53-.75,3.47,3.47,0,0,0,.57-2.12,3.12,3.12,0,0,0-.58-2,1.83,1.83,0,0,0-1.53-.76,1.8,1.8,0,0,0-1.51.75A3.46,3.46,0,0,0,186.55,375.64Z" transform="translate(-16.94 -23.26)"/></g><g class="cls-9"><path class="cls-10" d="M70.42,392.22a10.81,10.81,0,0,1,.41-3,8.56,8.56,0,0,1,1.24-2.58,5.11,5.11,0,0,1,1.7-1.64l.26.83a5.44,5.44,0,0,0-1.64,2.34,10.25,10.25,0,0,0-.7,3.52v.58a10.21,10.21,0,0,0,1,4.58A5.63,5.63,0,0,0,74,398.7l-.26.77A5.41,5.41,0,0,1,72,397.78,9.56,9.56,0,0,1,70.42,392.22Z" transform="translate(-16.94 -23.26)"/><path class="cls-10" d="M81.5,392.64a4.45,4.45,0,0,1-.77,2.72,2.47,2.47,0,0,1-2.09,1,2.7,2.7,0,0,1-2.12-.85v3.56H75.25V388.86h1.16l.06.82a2.6,2.6,0,0,1,2.15-1,2.51,2.51,0,0,1,2.1,1,4.46,4.46,0,0,1,.78,2.8Zm-1.26-.14a3.25,3.25,0,0,0-.54-2,1.71,1.71,0,0,0-1.46-.72,1.85,1.85,0,0,0-1.72,1v3.53a1.84,1.84,0,0,0,1.73,1,1.72,1.72,0,0,0,1.45-.72A3.53,3.53,0,0,0,80.24,392.5Z" transform="translate(-16.94 -23.26)"/><path class="cls-10" d="M87.67,396.26a2.7,2.7,0,0,1-.17-.78,2.82,2.82,0,0,1-2.11.91,2.59,2.59,0,0,1-1.79-.61,2,2,0,0,1-.7-1.57,2.11,2.11,0,0,1,.87-1.8,4.19,4.19,0,0,1,2.47-.64h1.24v-.58a1.42,1.42,0,0,0-.4-1.05,1.58,1.58,0,0,0-1.17-.4,1.92,1.92,0,0,0-1.14.34,1,1,0,0,0-.45.83H83.05a1.77,1.77,0,0,1,.39-1.07A2.73,2.73,0,0,1,84.5,389a3.63,3.63,0,0,1,1.48-.31,3,3,0,0,1,2,.64,2.34,2.34,0,0,1,.75,1.76v3.41a4.21,4.21,0,0,0,.26,1.62v.11Zm-2.1-1a2.25,2.25,0,0,0,1.13-.3,1.93,1.93,0,0,0,.78-.8v-1.52h-1c-1.55,0-2.32.45-2.32,1.36a1.13,1.13,0,0,0,.4.93A1.52,1.52,0,0,0,85.57,395.29Z" transform="translate(-16.94 -23.26)"/><path class="cls-10" d="M90.41,392.5a4.32,4.32,0,0,1,.81-2.74,2.74,2.74,0,0,1,4.17-.15v-3.85h1.27v10.5H95.49l-.06-.8a2.57,2.57,0,0,1-2.11.93,2.53,2.53,0,0,1-2.1-1.05,4.39,4.39,0,0,1-.81-2.75Zm1.27.14a3.25,3.25,0,0,0,.52,2,1.67,1.67,0,0,0,1.43.71,1.84,1.84,0,0,0,1.76-1.08v-3.4a1.87,1.87,0,0,0-1.74-1,1.68,1.68,0,0,0-1.45.72A3.54,3.54,0,0,0,91.68,392.64Z" transform="translate(-16.94 -23.26)"/><path class="cls-10" d="M102.19,390a3.05,3.05,0,0,0-.62-.05A1.67,1.67,0,0,0,99.88,391v5.25H98.62v-7.4h1.23l0,.86a2,2,0,0,1,1.76-1,1.3,1.3,0,0,1,.56.1Z" transform="translate(-16.94 -23.26)"/><path class="cls-10" d="M107.65,396.26a3,3,0,0,1-.18-.78,2.82,2.82,0,0,1-2.11.91,2.63,2.63,0,0,1-1.79-.61,2,2,0,0,1-.7-1.57,2.1,2.1,0,0,1,.88-1.8,4.17,4.17,0,0,1,2.47-.64h1.23v-.58a1.39,1.39,0,0,0-.4-1.05,1.55,1.55,0,0,0-1.17-.4,1.87,1.87,0,0,0-1.13.34,1,1,0,0,0-.46.83H103a1.77,1.77,0,0,1,.39-1.07,2.76,2.76,0,0,1,1.07-.81,3.6,3.6,0,0,1,1.48-.31,3,3,0,0,1,2,.64,2.27,2.27,0,0,1,.75,1.76v3.41a4.21,4.21,0,0,0,.26,1.62v.11Zm.87-10.28a1.68,1.68,0,0,1-.42,1.19,1.35,1.35,0,0,1-1,.46,1.39,1.39,0,0,1-.48-.07,2.33,2.33,0,0,1-.54-.28,2.22,2.22,0,0,0-.48-.25,1.16,1.16,0,0,0-.34,0,.6.6,0,0,0-.47.22.73.73,0,0,0-.2.55l-.85-.05a1.81,1.81,0,0,1,.41-1.21,1.34,1.34,0,0,1,1.05-.48,1.14,1.14,0,0,1,.43.07,2.92,2.92,0,0,1,.52.27,4.12,4.12,0,0,0,.51.26,1.12,1.12,0,0,0,.38.06.6.6,0,0,0,.49-.24.8.8,0,0,0,.2-.54Zm-3,9.31a2.28,2.28,0,0,0,1.13-.3,2,2,0,0,0,.77-.8v-1.52h-1c-1.55,0-2.33.45-2.33,1.36a1.16,1.16,0,0,0,.4.93A1.53,1.53,0,0,0,105.55,395.29Z" transform="translate(-16.94 -23.26)"/><path class="cls-10" d="M110.36,392.49a4.3,4.3,0,0,1,.43-1.95A3.11,3.11,0,0,1,112,389.2a3.2,3.2,0,0,1,1.74-.48,3.1,3.1,0,0,1,2.44,1,4,4,0,0,1,.94,2.78v.09a4.35,4.35,0,0,1-.42,1.94,3.14,3.14,0,0,1-1.18,1.34,3.25,3.25,0,0,1-1.77.47,3.12,3.12,0,0,1-2.44-1,4,4,0,0,1-.93-2.77Zm1.27.15a3.19,3.19,0,0,0,.57,2,1.94,1.94,0,0,0,3.06,0,3.47,3.47,0,0,0,.57-2.12,3.12,3.12,0,0,0-.58-2,1.83,1.83,0,0,0-1.53-.76,1.8,1.8,0,0,0-1.51.75A3.4,3.4,0,0,0,111.63,392.64Z" transform="translate(-16.94 -23.26)"/><path class="cls-10" d="M121.84,392.5a4.32,4.32,0,0,1,.81-2.74,2.54,2.54,0,0,1,2.11-1,2.59,2.59,0,0,1,2.06.89v-3.85h1.26v10.5h-1.16l-.06-.8a2.59,2.59,0,0,1-2.12.93,2.53,2.53,0,0,1-2.09-1.05,4.39,4.39,0,0,1-.81-2.75Zm1.26.14a3.32,3.32,0,0,0,.52,2,1.7,1.7,0,0,0,1.44.71,1.85,1.85,0,0,0,1.76-1.08v-3.4a1.87,1.87,0,0,0-1.75-1,1.69,1.69,0,0,0-1.45.72A3.62,3.62,0,0,0,123.1,392.64Z" transform="translate(-16.94 -23.26)"/><path class="cls-10" d="M133.11,396.39a3.23,3.23,0,0,1-2.45-1,3.71,3.71,0,0,1-.94-2.65v-.23a4.41,4.41,0,0,1,.42-2,3.26,3.26,0,0,1,1.18-1.36,3,3,0,0,1,1.63-.49,2.79,2.79,0,0,1,2.25.95,4.15,4.15,0,0,1,.8,2.73v.52h-5a2.59,2.59,0,0,0,.64,1.77,2,2,0,0,0,1.55.67,2.2,2.2,0,0,0,1.13-.27,2.59,2.59,0,0,0,.82-.73l.77.61A3.11,3.11,0,0,1,133.11,396.39Zm-.16-6.63a1.69,1.69,0,0,0-1.28.56,2.66,2.66,0,0,0-.64,1.56h3.7v-.09a2.39,2.39,0,0,0-.52-1.5A1.6,1.6,0,0,0,133,389.76Z" transform="translate(-16.94 -23.26)"/><path class="cls-10" d="M144,396.39a3.21,3.21,0,0,1-2.44-1,3.68,3.68,0,0,1-1-2.65v-.23a4.41,4.41,0,0,1,.42-2,3.34,3.34,0,0,1,1.18-1.36,3,3,0,0,1,1.64-.49,2.77,2.77,0,0,1,2.24.95,4.15,4.15,0,0,1,.8,2.73v.52h-5a2.64,2.64,0,0,0,.64,1.77,2,2,0,0,0,1.55.67,2.24,2.24,0,0,0,1.14-.27,2.67,2.67,0,0,0,.81-.73l.77.61A3.11,3.11,0,0,1,144,396.39Zm-.15-6.63a1.71,1.71,0,0,0-1.29.56,2.72,2.72,0,0,0-.64,1.56h3.7v-.09a2.33,2.33,0,0,0-.52-1.5A1.57,1.57,0,0,0,143.84,389.76Z" transform="translate(-16.94 -23.26)"/><path class="cls-10" d="M149.54,388.86l0,.93a2.69,2.69,0,0,1,2.21-1.07c1.57,0,2.36.89,2.37,2.65v4.89h-1.27v-4.9a1.68,1.68,0,0,0-.36-1.18,1.49,1.49,0,0,0-1.12-.38,1.82,1.82,0,0,0-1.08.33,2.1,2.1,0,0,0-.72.86v5.27h-1.27v-7.4Z" transform="translate(-16.94 -23.26)"/><path class="cls-10" d="M157.78,387.07v1.79h1.38v1h-1.38v4.59a1,1,0,0,0,.19.67.76.76,0,0,0,.63.22,3.54,3.54,0,0,0,.6-.08v1a3.7,3.7,0,0,1-1,.13,1.58,1.58,0,0,1-1.28-.51,2.18,2.18,0,0,1-.43-1.45v-4.59h-1.35v-1h1.35v-1.79Z" transform="translate(-16.94 -23.26)"/><path class="cls-10" d="M164.21,390a3,3,0,0,0-.62-.05A1.67,1.67,0,0,0,161.9,391v5.25h-1.26v-7.4h1.23l0,.86a2,2,0,0,1,1.76-1,1.3,1.3,0,0,1,.56.1Z" transform="translate(-16.94 -23.26)"/><path class="cls-10" d="M169.67,396.26a3,3,0,0,1-.18-.78,2.82,2.82,0,0,1-2.1.91,2.64,2.64,0,0,1-1.8-.61,2,2,0,0,1-.7-1.57,2.1,2.1,0,0,1,.88-1.8,4.19,4.19,0,0,1,2.47-.64h1.23v-.58a1.42,1.42,0,0,0-.39-1.05,1.58,1.58,0,0,0-1.17-.4,1.92,1.92,0,0,0-1.14.34,1,1,0,0,0-.46.83H165a1.72,1.72,0,0,1,.4-1.07,2.66,2.66,0,0,1,1.06-.81,3.6,3.6,0,0,1,1.48-.31,3,3,0,0,1,2,.64,2.31,2.31,0,0,1,.76,1.76v3.41a4,4,0,0,0,.26,1.62v.11Zm-2.1-1a2.28,2.28,0,0,0,1.13-.3,2,2,0,0,0,.77-.8v-1.52h-1c-1.55,0-2.32.45-2.32,1.36a1.15,1.15,0,0,0,.39.93A1.56,1.56,0,0,0,167.57,395.29Z" transform="translate(-16.94 -23.26)"/><path class="cls-10" d="M172.41,392.5a4.32,4.32,0,0,1,.81-2.74,2.74,2.74,0,0,1,4.17-.15v-3.85h1.26v10.5h-1.16l-.06-.8a2.58,2.58,0,0,1-2.11.93,2.53,2.53,0,0,1-2.1-1.05,4.39,4.39,0,0,1-.81-2.75Zm1.27.14a3.25,3.25,0,0,0,.52,2,1.67,1.67,0,0,0,1.43.71,1.85,1.85,0,0,0,1.76-1.08v-3.4a1.87,1.87,0,0,0-1.75-1,1.67,1.67,0,0,0-1.44.72A3.54,3.54,0,0,0,173.68,392.64Z" transform="translate(-16.94 -23.26)"/><path class="cls-10" d="M185.18,396.26a3,3,0,0,1-.18-.78,2.8,2.8,0,0,1-2.1.91,2.64,2.64,0,0,1-1.8-.61,2,2,0,0,1-.7-1.57,2.12,2.12,0,0,1,.88-1.8,4.19,4.19,0,0,1,2.47-.64H185v-.58a1.42,1.42,0,0,0-.39-1.05,1.58,1.58,0,0,0-1.17-.4,1.92,1.92,0,0,0-1.14.34,1,1,0,0,0-.46.83h-1.27a1.72,1.72,0,0,1,.4-1.07A2.66,2.66,0,0,1,182,389a3.63,3.63,0,0,1,1.48-.31,3,3,0,0,1,2,.64,2.34,2.34,0,0,1,.75,1.76v3.41a4,4,0,0,0,.26,1.62v.11Zm-2.1-1a2.28,2.28,0,0,0,1.13-.3,1.9,1.9,0,0,0,.77-.8v-1.52h-1c-1.55,0-2.32.45-2.32,1.36a1.15,1.15,0,0,0,.39.93A1.56,1.56,0,0,0,183.08,395.29Z" transform="translate(-16.94 -23.26)"/><path class="cls-10" d="M191.15,392.29a10.45,10.45,0,0,1-.4,2.92,9,9,0,0,1-1.22,2.58,5.34,5.34,0,0,1-1.73,1.68l-.27-.77a5.45,5.45,0,0,0,1.69-2.51,10.76,10.76,0,0,0,.66-3.77v-.22a11.23,11.23,0,0,0-.3-2.66,8.83,8.83,0,0,0-.84-2.22,5,5,0,0,0-1.21-1.52l.27-.77a5.45,5.45,0,0,1,1.72,1.66,8.75,8.75,0,0,1,1.22,2.58A10.86,10.86,0,0,1,191.15,392.29Z" transform="translate(-16.94 -23.26)"/></g></g></g><g id="resIII"><g id="Group_14471" data-name="Group 14471"><g class="cls-9"><path class="cls-11" d="M32.62,117.93H31.35V109.5l-2.55.93v-1.14l3.62-1.37h.2Z" transform="translate(-16.94 -23.26)"/><path class="cls-11" d="M44.49,117.93a2.34,2.34,0,0,1-.18-.78,2.82,2.82,0,0,1-2.11.91,2.57,2.57,0,0,1-1.79-.62,2,2,0,0,1-.7-1.56,2.08,2.08,0,0,1,.88-1.8,4.08,4.08,0,0,1,2.47-.64h1.23v-.58a1.47,1.47,0,0,0-.4-1.06,1.59,1.59,0,0,0-1.17-.39,1.87,1.87,0,0,0-1.13.34,1,1,0,0,0-.46.83H39.86a1.74,1.74,0,0,1,.39-1.07,2.71,2.71,0,0,1,1.07-.82,3.59,3.59,0,0,1,1.48-.3,3,3,0,0,1,2,.64,2.32,2.32,0,0,1,.75,1.76v3.41a4.21,4.21,0,0,0,.26,1.62v.11Zm-2.1-1a2.15,2.15,0,0,0,1.12-.31,1.82,1.82,0,0,0,.78-.8v-1.51h-1c-1.55,0-2.33.45-2.33,1.36a1.16,1.16,0,0,0,.4.93A1.53,1.53,0,0,0,42.39,117Z" transform="translate(-16.94 -23.26)"/><path class="cls-11" d="M52.71,112.33h.95a2,2,0,0,0,1.41-.47,1.57,1.57,0,0,0,.51-1.23,1.54,1.54,0,0,0-1.74-1.75,1.81,1.81,0,0,0-1.31.46,1.64,1.64,0,0,0-.49,1.24H50.77a2.53,2.53,0,0,1,.87-2,3.17,3.17,0,0,1,2.2-.78,3.07,3.07,0,0,1,2.2.74,2.68,2.68,0,0,1,.8,2.07,2.21,2.21,0,0,1-.42,1.26,2.51,2.51,0,0,1-1.14.91,2.43,2.43,0,0,1,1.27.86,2.38,2.38,0,0,1,.45,1.47,2.75,2.75,0,0,1-.88,2.13,3.29,3.29,0,0,1-2.28.78,3.36,3.36,0,0,1-2.28-.76,2.51,2.51,0,0,1-.87-2H52a1.64,1.64,0,0,0,.51,1.26,2,2,0,0,0,1.37.47,1.94,1.94,0,0,0,1.41-.48,1.86,1.86,0,0,0,.48-1.37,1.7,1.7,0,0,0-.53-1.34,2.4,2.4,0,0,0-1.54-.47h-.95Z" transform="translate(-16.94 -23.26)"/><path class="cls-11" d="M69.13,109.05h-3.2v8.88H64.62v-8.88H61.43V108h7.7Z" transform="translate(-16.94 -23.26)"/><path class="cls-11" d="M74,116.18,76.85,108h1.44l-3.69,10H73.44l-3.69-10h1.43Z" transform="translate(-16.94 -23.26)"/><path class="cls-11" d="M79.38,113.89a10.45,10.45,0,0,1,.41-3A9,9,0,0,1,81,108.33a5.33,5.33,0,0,1,1.71-1.64l.26.84a5.35,5.35,0,0,0-1.64,2.34,10,10,0,0,0-.7,3.52V114a10.24,10.24,0,0,0,1,4.58A5.51,5.51,0,0,0,83,120.37l-.26.77a5.35,5.35,0,0,1-1.74-1.7A9.46,9.46,0,0,1,79.38,113.89Z" transform="translate(-16.94 -23.26)"/><path class="cls-11" d="M87.34,113.49a6.18,6.18,0,0,1-2.46-1.19,2.31,2.31,0,0,1-.77-1.75,2.42,2.42,0,0,1,.94-1.94,3.71,3.71,0,0,1,2.45-.77,4.17,4.17,0,0,1,1.83.39,3,3,0,0,1,1.24,1.1,2.81,2.81,0,0,1,.44,1.52H89.69a1.82,1.82,0,0,0-.57-1.42,2.34,2.34,0,0,0-1.62-.52,2.39,2.39,0,0,0-1.52.43,1.42,1.42,0,0,0-.54,1.19,1.28,1.28,0,0,0,.52,1,5.2,5.2,0,0,0,1.75.77,7.86,7.86,0,0,1,1.94.77,2.82,2.82,0,0,1,1,1A2.45,2.45,0,0,1,91,115.4a2.31,2.31,0,0,1-.94,1.93,4,4,0,0,1-2.52.73,4.71,4.71,0,0,1-1.92-.39,3.19,3.19,0,0,1-1.37-1.08A2.61,2.61,0,0,1,83.8,115h1.32a1.73,1.73,0,0,0,.66,1.43,2.88,2.88,0,0,0,1.79.52,2.6,2.6,0,0,0,1.59-.42,1.39,1.39,0,0,0,.55-1.16,1.34,1.34,0,0,0-.51-1.13A5.8,5.8,0,0,0,87.34,113.49Z" transform="translate(-16.94 -23.26)"/><path class="cls-11" d="M95.43,114a10.52,10.52,0,0,1-.4,2.93,8.49,8.49,0,0,1-1.22,2.58,5.25,5.25,0,0,1-1.73,1.68l-.26-.77a5.58,5.58,0,0,0,1.69-2.51,10.76,10.76,0,0,0,.65-3.77v-.22a11.37,11.37,0,0,0-.3-2.67A8.9,8.9,0,0,0,93,109a5,5,0,0,0-1.2-1.52l.26-.78a5.29,5.29,0,0,1,1.72,1.67A8.53,8.53,0,0,1,95,110.94,10.84,10.84,0,0,1,95.43,114Z" transform="translate(-16.94 -23.26)"/></g><g class="cls-9"><path class="cls-11" d="M32.62,137.93H31.35V129.5l-2.55.93v-1.14l3.62-1.37h.2Z" transform="translate(-16.94 -23.26)"/><path class="cls-11" d="M47.47,136.62a3.06,3.06,0,0,1-1.42,1.08,5.63,5.63,0,0,1-2.1.36,4,4,0,0,1-2.16-.57,3.77,3.77,0,0,1-1.46-1.62,5.55,5.55,0,0,1-.53-2.44v-.87a5.25,5.25,0,0,1,1.05-3.49,3.64,3.64,0,0,1,2.94-1.23,3.77,3.77,0,0,1,2.51.79,3.5,3.5,0,0,1,1.17,2.26H46.15a2.17,2.17,0,0,0-2.35-2,2.33,2.33,0,0,0-2,.93,4.49,4.49,0,0,0-.68,2.68v.82a4.25,4.25,0,0,0,.76,2.66A2.48,2.48,0,0,0,44,137a4.89,4.89,0,0,0,1.29-.16,2,2,0,0,0,.92-.56V134h-2.3V133h3.61Z" transform="translate(-16.94 -23.26)"/><path class="cls-11" d="M55.28,133.33H51v3.52h5v1.08H49.65V128h6.26v1.08H51v3.2h4.31Z" transform="translate(-16.94 -23.26)"/><path class="cls-11" d="M58.93,136.85h4.72v1.08h-6V128h1.32Z" transform="translate(-16.94 -23.26)"/><path class="cls-11" d="M70.77,135.32H66.6l-.94,2.61H64.31l3.8-10h1.15l3.81,10H71.72ZM67,134.25h3.38l-1.7-4.66Z" transform="translate(-16.94 -23.26)"/><path class="cls-11" d="M74.41,137.93V128h2.81a4.43,4.43,0,0,1,2.29.58,3.79,3.79,0,0,1,1.54,1.63,5.18,5.18,0,0,1,.55,2.43v.64a5.38,5.38,0,0,1-.54,2.47,3.79,3.79,0,0,1-1.55,1.62,4.82,4.82,0,0,1-2.35.59Zm1.31-8.88v7.8H77.1a3,3,0,0,0,2.36-.94,3.93,3.93,0,0,0,.85-2.69v-.58a4,4,0,0,0-.8-2.64,2.79,2.79,0,0,0-2.26-.95Z" transform="translate(-16.94 -23.26)"/><path class="cls-11" d="M89.21,133.33H84.9v3.52h5v1.08H83.59V128h6.25v1.08H84.9v3.2h4.31Z" transform="translate(-16.94 -23.26)"/><path class="cls-11" d="M93,137.93H91.64V128H93Z" transform="translate(-16.94 -23.26)"/><path class="cls-11" d="M99,133.9H96.66v4H95.34V128h3.3a3.92,3.92,0,0,1,2.59.77,2.76,2.76,0,0,1,.9,2.23,2.64,2.64,0,0,1-.5,1.62,3,3,0,0,1-1.4,1l2.34,4.22v.09h-1.41Zm-2.34-1.07h2a2.29,2.29,0,0,0,1.56-.51,1.73,1.73,0,0,0,.57-1.36,1.79,1.79,0,0,0-.55-1.41,2.28,2.28,0,0,0-1.59-.5h-2Z" transform="translate(-16.94 -23.26)"/><path class="cls-11" d="M109.47,135.32H105.3l-.94,2.61H103l3.8-10H108l3.8,10h-1.34Zm-3.78-1.07h3.39l-1.7-4.66Z" transform="translate(-16.94 -23.26)"/></g><g class="cls-9"><path class="cls-11" d="M32.62,157.93H31.35V149.5l-2.55.93v-1.14l3.62-1.37h.2Z" transform="translate(-16.94 -23.26)"/><path class="cls-11" d="M41.81,148l3.26,8.12L48.32,148H50v10H48.71v-3.88l.12-4.18-3.26,8.06h-1l-3.26-8,.13,4.16v3.88H40.12V148Z" transform="translate(-16.94 -23.26)"/><path class="cls-11" d="M53.75,157.93H52.44V148h1.31Z" transform="translate(-16.94 -23.26)"/><path class="cls-11" d="M63.47,154.77a3.66,3.66,0,0,1-1.17,2.44,3.81,3.81,0,0,1-2.6.85,3.52,3.52,0,0,1-2.83-1.26,5.08,5.08,0,0,1-1.06-3.39v-.95A5.65,5.65,0,0,1,56.3,150a3.67,3.67,0,0,1,1.41-1.62,3.84,3.84,0,0,1,2.1-.56,3.57,3.57,0,0,1,2.54.88,3.73,3.73,0,0,1,1.12,2.45H62.15a2.87,2.87,0,0,0-.74-1.73,2.27,2.27,0,0,0-1.6-.53,2.35,2.35,0,0,0-2,.93,4.24,4.24,0,0,0-.71,2.65v1A4.41,4.41,0,0,0,57.8,156a2.18,2.18,0,0,0,1.9,1,2.52,2.52,0,0,0,1.67-.5,2.74,2.74,0,0,0,.78-1.72Z" transform="translate(-16.94 -23.26)"/><path class="cls-11" d="M68.91,153.9H66.57v4H65.25V148h3.3a3.92,3.92,0,0,1,2.59.77A2.76,2.76,0,0,1,72,151a2.71,2.71,0,0,1-.5,1.62,3,3,0,0,1-1.4,1l2.34,4.22v.09H71.07Zm-2.34-1.07h2a2.25,2.25,0,0,0,1.55-.51,1.71,1.71,0,0,0,.58-1.36,1.79,1.79,0,0,0-.55-1.41,2.31,2.31,0,0,0-1.59-.5h-2Z" transform="translate(-16.94 -23.26)"/><path class="cls-11" d="M81.54,153.27a6.07,6.07,0,0,1-.5,2.55,3.66,3.66,0,0,1-1.39,1.67,3.85,3.85,0,0,1-2.11.57,3.72,3.72,0,0,1-3.49-2.22,5.87,5.87,0,0,1-.52-2.48v-.72a6.08,6.08,0,0,1,.5-2.53,3.76,3.76,0,0,1,1.41-1.69,3.8,3.8,0,0,1,2.09-.58,3.9,3.9,0,0,1,2.11.57,3.7,3.7,0,0,1,1.4,1.68,6.14,6.14,0,0,1,.5,2.55Zm-1.31-.64a4.5,4.5,0,0,0-.71-2.72,2.53,2.53,0,0,0-4,0,4.39,4.39,0,0,0-.73,2.63v.73a4.51,4.51,0,0,0,.72,2.7,2.52,2.52,0,0,0,4,.05,4.38,4.38,0,0,0,.72-2.65Z" transform="translate(-16.94 -23.26)"/><path class="cls-11" d="M85.94,154.21H82.6v-1h3.34Z" transform="translate(-16.94 -23.26)"/><path class="cls-11" d="M95,153.27a6.08,6.08,0,0,1-.49,2.55,3.72,3.72,0,0,1-1.39,1.67,3.88,3.88,0,0,1-2.11.57,3.74,3.74,0,0,1-2.08-.58,3.81,3.81,0,0,1-1.42-1.64,6,6,0,0,1-.51-2.48v-.72a6.08,6.08,0,0,1,.5-2.53,3.67,3.67,0,0,1,3.5-2.27,3.92,3.92,0,0,1,2.11.57,3.83,3.83,0,0,1,1.4,1.68,6.14,6.14,0,0,1,.49,2.55Zm-1.3-.64a4.5,4.5,0,0,0-.71-2.72,2.36,2.36,0,0,0-2-.95,2.33,2.33,0,0,0-2,.95,4.39,4.39,0,0,0-.74,2.63v.73a4.44,4.44,0,0,0,.73,2.7,2.52,2.52,0,0,0,4,.05,4.52,4.52,0,0,0,.72-2.65Z" transform="translate(-16.94 -23.26)"/><path class="cls-11" d="M104.64,157.93h-1.32l-5-7.67v7.67H97V148h1.32l5,7.71V148h1.3Z" transform="translate(-16.94 -23.26)"/><path class="cls-11" d="M107,157.93V148h2.81a4.47,4.47,0,0,1,2.3.58,3.85,3.85,0,0,1,1.54,1.63,5.3,5.3,0,0,1,.55,2.43v.64a5.38,5.38,0,0,1-.54,2.47,3.79,3.79,0,0,1-1.55,1.62,4.84,4.84,0,0,1-2.35.59Zm1.32-8.88v7.8h1.38a3,3,0,0,0,2.36-.94,3.92,3.92,0,0,0,.84-2.69v-.58a4,4,0,0,0-.79-2.64,2.82,2.82,0,0,0-2.26-.95Z" transform="translate(-16.94 -23.26)"/><path class="cls-11" d="M121.51,155.32h-4.17l-.94,2.61h-1.35l3.8-10H120l3.8,10h-1.34Zm-3.78-1.07h3.39l-1.7-4.66Z" transform="translate(-16.94 -23.26)"/><path class="cls-11" d="M128.08,153.49a6.11,6.11,0,0,1-2.46-1.19,2.31,2.31,0,0,1-.77-1.75,2.39,2.39,0,0,1,.94-1.94,3.7,3.7,0,0,1,2.44-.77,4.1,4.1,0,0,1,1.83.39,3.05,3.05,0,0,1,1.25,1.1,2.81,2.81,0,0,1,.44,1.52h-1.32a1.79,1.79,0,0,0-.58-1.42,2.3,2.3,0,0,0-1.62-.52,2.36,2.36,0,0,0-1.51.43,1.43,1.43,0,0,0-.55,1.19,1.31,1.31,0,0,0,.52,1,5.27,5.27,0,0,0,1.76.77,8,8,0,0,1,1.94.77,2.9,2.9,0,0,1,1,1,2.54,2.54,0,0,1,.34,1.32,2.32,2.32,0,0,1-1,1.93,4,4,0,0,1-2.52.73,4.69,4.69,0,0,1-1.91-.39,3.13,3.13,0,0,1-1.37-1.08,2.62,2.62,0,0,1-.49-1.55h1.32a1.74,1.74,0,0,0,.67,1.43,2.85,2.85,0,0,0,1.78.52,2.6,2.6,0,0,0,1.59-.42,1.39,1.39,0,0,0,.56-1.16,1.32,1.32,0,0,0-.52-1.13A5.83,5.83,0,0,0,128.08,153.49Z" transform="translate(-16.94 -23.26)"/></g><g class="cls-9"><path class="cls-11" d="M32.62,177.93H31.35V169.5l-2.55.93v-1.14l3.62-1.37h.2Z" transform="translate(-16.94 -23.26)"/><path class="cls-11" d="M45.61,173.53H41.43v4.4H40.12V168h6.16v1.08H41.43v3.41h4.18Z" transform="translate(-16.94 -23.26)"/><path class="cls-11" d="M53.48,173.33H49.17v3.52h5v1.08H47.86V168h6.25v1.08H49.17v3.2h4.31Z" transform="translate(-16.94 -23.26)"/><path class="cls-11" d="M59.46,173.9H57.13v4H55.81V168H59.1a3.92,3.92,0,0,1,2.59.77,2.76,2.76,0,0,1,.9,2.23,2.64,2.64,0,0,1-.5,1.62,3,3,0,0,1-1.4,1L63,177.84v.09H61.62Zm-2.33-1.07h2a2.29,2.29,0,0,0,1.56-.51,1.73,1.73,0,0,0,.57-1.36,1.79,1.79,0,0,0-.55-1.41,2.28,2.28,0,0,0-1.59-.5h-2Z" transform="translate(-16.94 -23.26)"/><path class="cls-11" d="M68.08,173.9H65.75v4H64.43V168h3.29a3.92,3.92,0,0,1,2.59.77,2.76,2.76,0,0,1,.9,2.23,2.64,2.64,0,0,1-.5,1.62,3,3,0,0,1-1.4,1l2.34,4.22v.09H70.24Zm-2.33-1.07h2a2.29,2.29,0,0,0,1.56-.51,1.73,1.73,0,0,0,.57-1.36,1.79,1.79,0,0,0-.55-1.41,2.28,2.28,0,0,0-1.59-.5h-2Z" transform="translate(-16.94 -23.26)"/><path class="cls-11" d="M80.71,173.27a6.24,6.24,0,0,1-.49,2.55,3.74,3.74,0,0,1-1.4,1.67,3.84,3.84,0,0,1-2.1.57,3.78,3.78,0,0,1-2.09-.58,3.86,3.86,0,0,1-1.41-1.64,6,6,0,0,1-.52-2.48v-.72a6.08,6.08,0,0,1,.5-2.53,3.88,3.88,0,0,1,1.41-1.69,3.8,3.8,0,0,1,2.09-.58,3.9,3.9,0,0,1,2.11.57,3.78,3.78,0,0,1,1.41,1.68,6.3,6.3,0,0,1,.49,2.55Zm-1.31-.64a4.43,4.43,0,0,0-.71-2.72,2.53,2.53,0,0,0-4,0,4.39,4.39,0,0,0-.73,2.63v.73a4.51,4.51,0,0,0,.72,2.7,2.53,2.53,0,0,0,4,.05,4.45,4.45,0,0,0,.71-2.65Z" transform="translate(-16.94 -23.26)"/><path class="cls-11" d="M86.14,177.93V168H89a4.47,4.47,0,0,1,2.3.58,3.79,3.79,0,0,1,1.54,1.63,5.3,5.3,0,0,1,.55,2.43v.64a5.38,5.38,0,0,1-.54,2.47,3.79,3.79,0,0,1-1.55,1.62,4.84,4.84,0,0,1-2.35.59Zm1.32-8.88v7.8h1.38a3,3,0,0,0,2.36-.94,3.92,3.92,0,0,0,.84-2.69v-.58a4,4,0,0,0-.79-2.64,2.8,2.8,0,0,0-2.26-.95Z" transform="translate(-16.94 -23.26)"/><path class="cls-11" d="M101,173.33H96.64v3.52h5v1.08H95.32V168h6.26v1.08H96.64v3.2H101Z" transform="translate(-16.94 -23.26)"/><path class="cls-11" d="M108.06,174v3.9h-1.31V168h3.67a3.67,3.67,0,0,1,2.56.84,3.16,3.16,0,0,1,0,4.44,3.88,3.88,0,0,1-2.6.78Zm0-1.07h2.36a2.35,2.35,0,0,0,1.61-.5,1.82,1.82,0,0,0,.56-1.43,1.9,1.9,0,0,0-.56-1.43,2.16,2.16,0,0,0-1.54-.55h-2.43Z" transform="translate(-16.94 -23.26)"/><path class="cls-11" d="M120.13,175.32H116l-.93,2.61h-1.36l3.8-10h1.15l3.81,10h-1.35Zm-3.77-1.07h3.38l-1.69-4.66Z" transform="translate(-16.94 -23.26)"/><path class="cls-11" d="M126.7,173.49a6.25,6.25,0,0,1-2.46-1.19,2.31,2.31,0,0,1-.77-1.75,2.4,2.4,0,0,1,1-1.94,3.68,3.68,0,0,1,2.44-.77,4.17,4.17,0,0,1,1.83.39,3,3,0,0,1,1.24,1.1,2.72,2.72,0,0,1,.44,1.52h-1.32a1.82,1.82,0,0,0-.57-1.42,2.3,2.3,0,0,0-1.62-.52,2.39,2.39,0,0,0-1.52.43,1.42,1.42,0,0,0-.54,1.19,1.28,1.28,0,0,0,.52,1,5.2,5.2,0,0,0,1.75.77,8.13,8.13,0,0,1,2,.77,2.87,2.87,0,0,1,1,1,2.45,2.45,0,0,1,.34,1.32,2.31,2.31,0,0,1-.94,1.93,4,4,0,0,1-2.52.73,4.74,4.74,0,0,1-1.92-.39,3.19,3.19,0,0,1-1.37-1.08,2.61,2.61,0,0,1-.48-1.55h1.32a1.71,1.71,0,0,0,.67,1.43,2.83,2.83,0,0,0,1.78.52,2.6,2.6,0,0,0,1.59-.42,1.39,1.39,0,0,0,.55-1.16,1.34,1.34,0,0,0-.51-1.13A5.8,5.8,0,0,0,126.7,173.49Z" transform="translate(-16.94 -23.26)"/><path class="cls-11" d="M135,173.49a6.11,6.11,0,0,1-2.46-1.19,2.31,2.31,0,0,1-.77-1.75,2.39,2.39,0,0,1,.94-1.94,3.7,3.7,0,0,1,2.44-.77,4.1,4.1,0,0,1,1.83.39,3.05,3.05,0,0,1,1.25,1.1,2.81,2.81,0,0,1,.44,1.52h-1.32a1.79,1.79,0,0,0-.58-1.42,2.3,2.3,0,0,0-1.62-.52,2.36,2.36,0,0,0-1.51.43,1.42,1.42,0,0,0-.54,1.19,1.3,1.3,0,0,0,.51,1,5.27,5.27,0,0,0,1.76.77,8,8,0,0,1,1.94.77,2.9,2.9,0,0,1,1,1,2.45,2.45,0,0,1,.34,1.32,2.32,2.32,0,0,1-.95,1.93,4,4,0,0,1-2.52.73,4.69,4.69,0,0,1-1.91-.39,3.19,3.19,0,0,1-1.37-1.08,2.61,2.61,0,0,1-.48-1.55h1.32a1.73,1.73,0,0,0,.66,1.43,2.87,2.87,0,0,0,1.78.52,2.61,2.61,0,0,0,1.6-.42,1.41,1.41,0,0,0,.55-1.16,1.34,1.34,0,0,0-.51-1.13A5.91,5.91,0,0,0,135,173.49Z" transform="translate(-16.94 -23.26)"/><path class="cls-11" d="M145.88,175.32h-4.17l-.94,2.61h-1.35l3.8-10h1.15l3.8,10h-1.34Zm-3.78-1.07h3.39l-1.7-4.66Z" transform="translate(-16.94 -23.26)"/><path class="cls-11" d="M153.16,173.9h-2.33v4h-1.32V168h3.29a3.92,3.92,0,0,1,2.59.77,2.76,2.76,0,0,1,.9,2.23,2.64,2.64,0,0,1-.5,1.62,3,3,0,0,1-1.4,1l2.34,4.22v.09h-1.41Zm-2.33-1.07h2a2.29,2.29,0,0,0,1.56-.51A1.73,1.73,0,0,0,155,171a1.79,1.79,0,0,0-.55-1.41,2.28,2.28,0,0,0-1.59-.5h-2Z" transform="translate(-16.94 -23.26)"/></g><g class="cls-9"><path class="cls-11" d="M32.62,197.93H31.35V189.5l-2.55.93v-1.14l3.62-1.37h.2Z" transform="translate(-16.94 -23.26)"/><path class="cls-11" d="M41.81,188l3.26,8.12L48.32,188H50v10H48.71v-3.88l.12-4.18-3.26,8.06h-1l-3.26-8,.13,4.16v3.88H40.12V188Z" transform="translate(-16.94 -23.26)"/><path class="cls-11" d="M58,195.32H53.79l-.94,2.61H51.5l3.8-10h1.15l3.81,10H58.91Zm-3.77-1.07h3.38l-1.7-4.66Zm2.33-8.94h1.53l-1.83,2h-1Z" transform="translate(-16.94 -23.26)"/><path class="cls-11" d="M69.12,193.27a6.12,6.12,0,0,1-.46,2.49,3.88,3.88,0,0,1-1.28,1.63l1.78,1.39-.9.83-2.1-1.67a4.36,4.36,0,0,1-1,.12,3.72,3.72,0,0,1-3.49-2.22,5.87,5.87,0,0,1-.52-2.48v-.72a6.08,6.08,0,0,1,.5-2.53A3.76,3.76,0,0,1,63,188.42a3.8,3.8,0,0,1,2.09-.58,3.85,3.85,0,0,1,2.12.58,3.74,3.74,0,0,1,1.4,1.67,6.09,6.09,0,0,1,.49,2.54Zm-1.31-.64a4.49,4.49,0,0,0-.7-2.71,2.33,2.33,0,0,0-2-1,2.3,2.3,0,0,0-2,.95,4.39,4.39,0,0,0-.74,2.63v.73a4.45,4.45,0,0,0,.72,2.69,2.51,2.51,0,0,0,4,.06,4.38,4.38,0,0,0,.72-2.65Z" transform="translate(-16.94 -23.26)"/><path class="cls-11" d="M78.15,188v6.77a3.15,3.15,0,0,1-.88,2.3,3.56,3.56,0,0,1-2.39,1h-.34a3.73,3.73,0,0,1-2.61-.88,3.15,3.15,0,0,1-1-2.43V188h1.3v6.74a2.4,2.4,0,0,0,4,1.68,2.23,2.23,0,0,0,.59-1.67V188Z" transform="translate(-16.94 -23.26)"/><path class="cls-11" d="M81.63,197.93H80.32V188h1.31Z" transform="translate(-16.94 -23.26)"/><path class="cls-11" d="M91.68,197.93H90.36l-5-7.67v7.67H84V188h1.32l5,7.71V188h1.3Z" transform="translate(-16.94 -23.26)"/><path class="cls-11" d="M99.63,195.32H95.46l-.94,2.61H93.17L97,188h1.15l3.81,10h-1.35Zm-3.77-1.07h3.38l-1.69-4.66Z" transform="translate(-16.94 -23.26)"/><path class="cls-11" d="M106.73,197.93V188h2.81a4.47,4.47,0,0,1,2.3.58,3.79,3.79,0,0,1,1.54,1.63,5.3,5.3,0,0,1,.55,2.43v.64a5.38,5.38,0,0,1-.54,2.47,3.79,3.79,0,0,1-1.55,1.62,4.84,4.84,0,0,1-2.35.59Zm1.32-8.88v7.8h1.38a3,3,0,0,0,2.36-.94,3.92,3.92,0,0,0,.84-2.69v-.58a4,4,0,0,0-.79-2.64,2.8,2.8,0,0,0-2.26-.95Z" transform="translate(-16.94 -23.26)"/><path class="cls-11" d="M121.54,193.33h-4.31v3.52h5v1.08h-6.33V188h6.26v1.08h-4.94v3.2h4.31Z" transform="translate(-16.94 -23.26)"/><path class="cls-11" d="M128.66,196.85h4.71v1.08h-6V188h1.32Z" transform="translate(-16.94 -23.26)"/><path class="cls-11" d="M140.5,195.32h-4.17l-.94,2.61H134l3.8-10H139l3.8,10h-1.34Zm-3.78-1.07h3.39l-1.7-4.66Z" transform="translate(-16.94 -23.26)"/><path class="cls-11" d="M146.83,196.18l2.85-8.21h1.43l-3.69,10h-1.16l-3.69-10H144Z" transform="translate(-16.94 -23.26)"/><path class="cls-11" d="M157.43,195.32h-4.17l-.94,2.61H151l3.8-10h1.15l3.81,10h-1.35Zm-3.77-1.07H157l-1.7-4.66Z" transform="translate(-16.94 -23.26)"/><path class="cls-11" d="M164.72,193.9h-2.34v4h-1.32V188h3.29a3.91,3.91,0,0,1,2.59.77,2.77,2.77,0,0,1,.91,2.23,2.65,2.65,0,0,1-.51,1.62,3,3,0,0,1-1.39,1l2.33,4.22v.09h-1.4Zm-2.34-1.07h2a2.27,2.27,0,0,0,1.56-.51,1.74,1.74,0,0,0,.58-1.36,1.82,1.82,0,0,0-.55-1.41,2.31,2.31,0,0,0-1.59-.5h-2Z" transform="translate(-16.94 -23.26)"/></g><g class="cls-9"><path class="cls-11" d="M32.62,217.93H31.35V209.5l-2.55.93v-1.14l3.62-1.37h.2Z" transform="translate(-16.94 -23.26)"/><path class="cls-11" d="M41.81,208l3.26,8.12L48.32,208H50v10H48.71v-3.88l.12-4.18-3.26,8.06h-1l-3.26-8,.13,4.16v3.88H40.12V208Z" transform="translate(-16.94 -23.26)"/><path class="cls-11" d="M58,215.32H53.79l-.94,2.61H51.5l3.8-10h1.15l3.81,10H58.91Zm-3.77-1.07h3.38l-1.7-4.66Zm2.33-8.94h1.53l-1.83,2h-1Z" transform="translate(-16.94 -23.26)"/><path class="cls-11" d="M69.12,213.27a6.12,6.12,0,0,1-.46,2.49,3.88,3.88,0,0,1-1.28,1.63l1.78,1.39-.9.83-2.1-1.67a4.36,4.36,0,0,1-1,.12,3.72,3.72,0,0,1-3.49-2.22,5.87,5.87,0,0,1-.52-2.48v-.72a6.08,6.08,0,0,1,.5-2.53A3.76,3.76,0,0,1,63,208.42a3.8,3.8,0,0,1,2.09-.58,3.85,3.85,0,0,1,2.12.58,3.74,3.74,0,0,1,1.4,1.67,6.09,6.09,0,0,1,.49,2.54Zm-1.31-.64a4.49,4.49,0,0,0-.7-2.71,2.33,2.33,0,0,0-2-1,2.3,2.3,0,0,0-2,.95,4.39,4.39,0,0,0-.74,2.63v.73a4.45,4.45,0,0,0,.72,2.69,2.51,2.51,0,0,0,4,.06,4.38,4.38,0,0,0,.72-2.65Z" transform="translate(-16.94 -23.26)"/><path class="cls-11" d="M78.15,208v6.77a3.15,3.15,0,0,1-.88,2.3,3.56,3.56,0,0,1-2.39,1h-.34a3.73,3.73,0,0,1-2.61-.88,3.15,3.15,0,0,1-1-2.43V208h1.3v6.74a2.4,2.4,0,0,0,4,1.68,2.23,2.23,0,0,0,.59-1.67V208Z" transform="translate(-16.94 -23.26)"/><path class="cls-11" d="M81.63,217.93H80.32V208h1.31Z" transform="translate(-16.94 -23.26)"/><path class="cls-11" d="M91.68,217.93H90.36l-5-7.67v7.67H84V208h1.32l5,7.71V208h1.3Z" transform="translate(-16.94 -23.26)"/><path class="cls-11" d="M99.63,215.32H95.46l-.94,2.61H93.17L97,208h1.15l3.81,10h-1.35Zm-3.77-1.07h3.38l-1.69-4.66Z" transform="translate(-16.94 -23.26)"/><path class="cls-11" d="M106.73,217.93V208h2.81a4.47,4.47,0,0,1,2.3.58,3.79,3.79,0,0,1,1.54,1.63,5.3,5.3,0,0,1,.55,2.43v.64a5.38,5.38,0,0,1-.54,2.47,3.79,3.79,0,0,1-1.55,1.62,4.84,4.84,0,0,1-2.35.59Zm1.32-8.88v7.8h1.38a3,3,0,0,0,2.36-.94,3.92,3.92,0,0,0,.84-2.69v-.58a4,4,0,0,0-.79-2.64,2.8,2.8,0,0,0-2.26-.95Z" transform="translate(-16.94 -23.26)"/><path class="cls-11" d="M121.54,213.33h-4.31v3.52h5v1.08h-6.33V208h6.26v1.08h-4.94v3.2h4.31Z" transform="translate(-16.94 -23.26)"/><path class="cls-11" d="M130.27,213.49a6.18,6.18,0,0,1-2.46-1.19,2.31,2.31,0,0,1-.77-1.75,2.42,2.42,0,0,1,.94-1.94,3.71,3.71,0,0,1,2.45-.77,4.17,4.17,0,0,1,1.83.39,3,3,0,0,1,1.24,1.1,2.81,2.81,0,0,1,.44,1.52h-1.32a1.82,1.82,0,0,0-.57-1.42,2.34,2.34,0,0,0-1.62-.52,2.39,2.39,0,0,0-1.52.43,1.42,1.42,0,0,0-.54,1.19,1.28,1.28,0,0,0,.52,1,5.2,5.2,0,0,0,1.75.77,7.86,7.86,0,0,1,1.94.77,2.82,2.82,0,0,1,1,1,2.45,2.45,0,0,1,.34,1.32,2.31,2.31,0,0,1-.94,1.93,4,4,0,0,1-2.52.73,4.71,4.71,0,0,1-1.92-.39,3.19,3.19,0,0,1-1.37-1.08,2.61,2.61,0,0,1-.48-1.55h1.32a1.73,1.73,0,0,0,.66,1.43,2.88,2.88,0,0,0,1.79.52,2.6,2.6,0,0,0,1.59-.42,1.39,1.39,0,0,0,.55-1.16,1.34,1.34,0,0,0-.51-1.13A5.8,5.8,0,0,0,130.27,213.49Z" transform="translate(-16.94 -23.26)"/><path class="cls-11" d="M141.27,213.33H137v3.52h5v1.08h-6.33V208h6.26v1.08H137v3.2h4.31Z" transform="translate(-16.94 -23.26)"/><path class="cls-11" d="M150.92,214.77a3.69,3.69,0,0,1-1.16,2.44,3.85,3.85,0,0,1-2.61.85,3.52,3.52,0,0,1-2.83-1.26,5.08,5.08,0,0,1-1.06-3.39v-.95a5.65,5.65,0,0,1,.49-2.44,3.67,3.67,0,0,1,1.41-1.62,3.86,3.86,0,0,1,2.1-.56,3.61,3.61,0,0,1,2.55.88,3.68,3.68,0,0,1,1.11,2.45H149.6a2.87,2.87,0,0,0-.74-1.73,2.27,2.27,0,0,0-1.6-.53,2.36,2.36,0,0,0-2,.93,4.31,4.31,0,0,0-.71,2.65v1a4.41,4.41,0,0,0,.67,2.58,2.21,2.21,0,0,0,1.9,1,2.53,2.53,0,0,0,1.68-.5,2.74,2.74,0,0,0,.77-1.72Z" transform="translate(-16.94 -23.26)"/><path class="cls-11" d="M158.21,215.32H154l-.94,2.61h-1.35l3.8-10h1.15l3.8,10h-1.34Zm-3.78-1.07h3.39l-1.7-4.66Z" transform="translate(-16.94 -23.26)"/><path class="cls-11" d="M165.5,213.9h-2.34v4h-1.32V208h3.29a3.91,3.91,0,0,1,2.59.77,2.77,2.77,0,0,1,.91,2.23,2.65,2.65,0,0,1-.51,1.62,3,3,0,0,1-1.39,1l2.33,4.22v.09h-1.4Zm-2.34-1.07h2a2.27,2.27,0,0,0,1.56-.51,1.74,1.74,0,0,0,.58-1.36,1.82,1.82,0,0,0-.55-1.41,2.31,2.31,0,0,0-1.59-.5h-2Z" transform="translate(-16.94 -23.26)"/></g><g class="cls-9"><path class="cls-11" d="M32.62,237.93H31.35V229.5l-2.55.93v-1.14l3.62-1.37h.2Z" transform="translate(-16.94 -23.26)"/><path class="cls-11" d="M46.72,229.05h-3.2v8.88h-1.3v-8.88H39V228h7.7Z" transform="translate(-16.94 -23.26)"/><path class="cls-11" d="M55.66,233.27a6.08,6.08,0,0,1-.49,2.55,3.72,3.72,0,0,1-1.39,1.67,3.9,3.9,0,0,1-2.11.57,3.8,3.8,0,0,1-2.09-.58,3.86,3.86,0,0,1-1.41-1.64,6,6,0,0,1-.51-2.48v-.72a5.92,5.92,0,0,1,.5-2.53,3.67,3.67,0,0,1,3.5-2.27,3.92,3.92,0,0,1,2.11.57,3.83,3.83,0,0,1,1.4,1.68,6.14,6.14,0,0,1,.49,2.55Zm-1.3-.64a4.5,4.5,0,0,0-.71-2.72,2.36,2.36,0,0,0-2-.95,2.32,2.32,0,0,0-2,.95,4.39,4.39,0,0,0-.74,2.63v.73a4.51,4.51,0,0,0,.72,2.7,2.36,2.36,0,0,0,2,1,2.32,2.32,0,0,0,2-.93,4.52,4.52,0,0,0,.72-2.65Z" transform="translate(-16.94 -23.26)"/><path class="cls-11" d="M61.28,233.9H58.94v4H57.62V228h3.3a3.92,3.92,0,0,1,2.59.77,2.76,2.76,0,0,1,.9,2.23,2.71,2.71,0,0,1-.5,1.62,3,3,0,0,1-1.4,1l2.34,4.22v.09H63.44Zm-2.34-1.07h2a2.29,2.29,0,0,0,1.56-.51,1.73,1.73,0,0,0,.57-1.36,1.79,1.79,0,0,0-.55-1.41,2.28,2.28,0,0,0-1.59-.5h-2Z" transform="translate(-16.94 -23.26)"/><path class="cls-11" d="M73.9,237.93H72.58l-5-7.67v7.67H66.25V228h1.32l5,7.71V228H73.9Z" transform="translate(-16.94 -23.26)"/><path class="cls-11" d="M81.86,233.33H77.54v3.52h5v1.08H76.23V228h6.26v1.08H77.54v3.2h4.32Z" transform="translate(-16.94 -23.26)"/><path class="cls-11" d="M85.6,237.93H84.28V228H85.6Z" transform="translate(-16.94 -23.26)"/><path class="cls-11" d="M91.65,233.9H89.31v4H88V228h3.29a3.89,3.89,0,0,1,2.59.77,2.73,2.73,0,0,1,.91,2.23,2.65,2.65,0,0,1-.51,1.62,3,3,0,0,1-1.39,1l2.33,4.22v.09h-1.4Zm-2.34-1.07h2a2.25,2.25,0,0,0,1.55-.51,1.71,1.71,0,0,0,.58-1.36,1.82,1.82,0,0,0-.55-1.41,2.31,2.31,0,0,0-1.59-.5h-2Z" transform="translate(-16.94 -23.26)"/><path class="cls-11" d="M102.11,235.32H97.94L97,237.93H95.65l3.8-10h1.15l3.81,10h-1.35Zm-3.77-1.07h3.38L100,229.59Z" transform="translate(-16.94 -23.26)"/><path class="cls-11" d="M114.84,233.33h-4.31v3.52h5v1.08h-6.33V228h6.26v1.08h-4.94v3.2h4.31Z" transform="translate(-16.94 -23.26)"/><path class="cls-11" d="M118.49,236.85h4.72v1.08h-6V228h1.32Z" transform="translate(-16.94 -23.26)"/><path class="cls-11" d="M130.33,233.33H126v3.52h5v1.08h-6.32V228H131v1.08H126v3.2h4.31Zm-1.93-8.11h1.53l-1.83,2h-1Z" transform="translate(-16.94 -23.26)"/><path class="cls-11" d="M139.68,229.05h-3.2v8.88h-1.31v-8.88H132V228h7.7Z" transform="translate(-16.94 -23.26)"/><path class="cls-11" d="M144.8,233.9h-2.34v4h-1.31V228h3.29a3.92,3.92,0,0,1,2.59.77,2.76,2.76,0,0,1,.9,2.23,2.64,2.64,0,0,1-.5,1.62,3,3,0,0,1-1.4,1l2.34,4.22v.09H147Zm-2.34-1.07h2a2.29,2.29,0,0,0,1.56-.51,1.73,1.73,0,0,0,.57-1.36,1.79,1.79,0,0,0-.55-1.41,2.28,2.28,0,0,0-1.59-.5h-2Z" transform="translate(-16.94 -23.26)"/><path class="cls-11" d="M151.18,237.93h-1.31V228h1.31Z" transform="translate(-16.94 -23.26)"/><path class="cls-11" d="M160.9,234.77a3.69,3.69,0,0,1-1.16,2.44,3.85,3.85,0,0,1-2.61.85,3.52,3.52,0,0,1-2.83-1.26,5.08,5.08,0,0,1-1.06-3.39v-.95a5.65,5.65,0,0,1,.49-2.44,3.67,3.67,0,0,1,1.41-1.62,3.88,3.88,0,0,1,2.1-.56,3.61,3.61,0,0,1,2.55.88,3.68,3.68,0,0,1,1.11,2.45h-1.32a2.87,2.87,0,0,0-.74-1.73,2.27,2.27,0,0,0-1.6-.53,2.36,2.36,0,0,0-2,.93,4.31,4.31,0,0,0-.71,2.65v1a4.41,4.41,0,0,0,.67,2.58,2.21,2.21,0,0,0,1.9,1,2.53,2.53,0,0,0,1.68-.5,2.69,2.69,0,0,0,.77-1.72Z" transform="translate(-16.94 -23.26)"/><path class="cls-11" d="M168.19,235.32H164l-.94,2.61h-1.35l3.8-10h1.15l3.81,10h-1.35Zm-3.77-1.07h3.38l-1.7-4.66Z" transform="translate(-16.94 -23.26)"/></g><g class="cls-9"><path class="cls-11" d="M32.62,257.93H31.35V249.5l-2.55.93v-1.14l3.62-1.37h.2Z" transform="translate(-16.94 -23.26)"/><path class="cls-11" d="M44.49,257.93a2.34,2.34,0,0,1-.18-.78,2.82,2.82,0,0,1-2.11.91,2.57,2.57,0,0,1-1.79-.62,2,2,0,0,1-.7-1.56,2.08,2.08,0,0,1,.88-1.8,4.08,4.08,0,0,1,2.47-.64h1.23v-.58a1.47,1.47,0,0,0-.4-1.06,1.59,1.59,0,0,0-1.17-.39,1.87,1.87,0,0,0-1.13.34,1,1,0,0,0-.46.83H39.86a1.74,1.74,0,0,1,.39-1.07,2.71,2.71,0,0,1,1.07-.82,3.59,3.59,0,0,1,1.48-.3,3,3,0,0,1,2,.64,2.32,2.32,0,0,1,.75,1.76v3.41a4.21,4.21,0,0,0,.26,1.62v.11Zm-2.1-1a2.15,2.15,0,0,0,1.12-.31,1.82,1.82,0,0,0,.78-.8v-1.51h-1c-1.55,0-2.33.45-2.33,1.36a1.16,1.16,0,0,0,.4.93A1.53,1.53,0,0,0,42.39,257Z" transform="translate(-16.94 -23.26)"/><path class="cls-11" d="M52.71,252.33h.95a2,2,0,0,0,1.41-.47,1.57,1.57,0,0,0,.51-1.23,1.54,1.54,0,0,0-1.74-1.75,1.81,1.81,0,0,0-1.31.46,1.64,1.64,0,0,0-.49,1.24H50.77a2.53,2.53,0,0,1,.87-2,3.17,3.17,0,0,1,2.2-.78,3.07,3.07,0,0,1,2.2.74,2.68,2.68,0,0,1,.8,2.07,2.21,2.21,0,0,1-.42,1.26,2.51,2.51,0,0,1-1.14.91,2.43,2.43,0,0,1,1.27.86,2.38,2.38,0,0,1,.45,1.47,2.75,2.75,0,0,1-.88,2.13,3.29,3.29,0,0,1-2.28.78,3.36,3.36,0,0,1-2.28-.76,2.51,2.51,0,0,1-.87-2H52a1.64,1.64,0,0,0,.51,1.26,2,2,0,0,0,1.37.47,1.94,1.94,0,0,0,1.41-.48,1.86,1.86,0,0,0,.48-1.37,1.7,1.7,0,0,0-.53-1.34,2.4,2.4,0,0,0-1.54-.47h-.95Z" transform="translate(-16.94 -23.26)"/><path class="cls-11" d="M65.82,256.18,68.66,248H70.1l-3.69,10H65.25l-3.69-10H63Z" transform="translate(-16.94 -23.26)"/><path class="cls-11" d="M77.06,253.33H72.75v3.52h5v1.08H71.43V248h6.26v1.08H72.75v3.2h4.31Z" transform="translate(-16.94 -23.26)"/><path class="cls-11" d="M87,257.93H85.72l-5-7.67v7.67H79.39V248h1.32l5,7.71V248H87Z" transform="translate(-16.94 -23.26)"/><path class="cls-11" d="M96.05,249.05h-3.2v8.88H91.54v-8.88H88.35V248h7.7Z" transform="translate(-16.94 -23.26)"/><path class="cls-11" d="M98.93,257.93H97.62V248h1.31Z" transform="translate(-16.94 -23.26)"/><path class="cls-11" d="M102.65,256.85h4.72v1.08h-6V248h1.32Z" transform="translate(-16.94 -23.26)"/><path class="cls-11" d="M114.49,255.32h-4.17l-.93,2.61H108l3.8-10H113l3.81,10h-1.35Zm-3.77-1.07h3.38l-1.69-4.66Z" transform="translate(-16.94 -23.26)"/><path class="cls-11" d="M118.13,257.93V248h2.81a4.49,4.49,0,0,1,2.3.58,3.85,3.85,0,0,1,1.54,1.63,5.43,5.43,0,0,1,.55,2.43v.64a5.26,5.26,0,0,1-.55,2.47,3.79,3.79,0,0,1-1.55,1.62,4.79,4.79,0,0,1-2.35.59Zm1.31-8.88v7.8h1.38a3,3,0,0,0,2.36-.94,3.88,3.88,0,0,0,.85-2.69v-.58a4,4,0,0,0-.8-2.64,2.79,2.79,0,0,0-2.26-.95Z" transform="translate(-16.94 -23.26)"/><path class="cls-11" d="M135,253.27a6.07,6.07,0,0,1-.5,2.55,3.66,3.66,0,0,1-1.39,1.67,3.85,3.85,0,0,1-2.11.57,3.77,3.77,0,0,1-2.08-.58,3.73,3.73,0,0,1-1.41-1.64,5.87,5.87,0,0,1-.52-2.48v-.72a6.08,6.08,0,0,1,.5-2.53,3.76,3.76,0,0,1,1.41-1.69,3.8,3.8,0,0,1,2.09-.58,3.9,3.9,0,0,1,2.11.57,3.7,3.7,0,0,1,1.4,1.68,6.14,6.14,0,0,1,.5,2.55Zm-1.31-.64a4.5,4.5,0,0,0-.71-2.72,2.53,2.53,0,0,0-3.95,0,4.39,4.39,0,0,0-.73,2.63v.73A4.51,4.51,0,0,0,129,256a2.52,2.52,0,0,0,3.95,0,4.38,4.38,0,0,0,.72-2.65Z" transform="translate(-16.94 -23.26)"/><path class="cls-11" d="M140.58,253.9h-2.33v4h-1.32V248h3.29a3.91,3.91,0,0,1,2.59.77,2.77,2.77,0,0,1,.91,2.23,2.65,2.65,0,0,1-.51,1.62,3,3,0,0,1-1.39,1l2.33,4.22v.09h-1.4Zm-2.33-1.07h2a2.27,2.27,0,0,0,1.56-.51,1.74,1.74,0,0,0,.58-1.36,1.82,1.82,0,0,0-.55-1.41,2.31,2.31,0,0,0-1.59-.5h-2Z" transform="translate(-16.94 -23.26)"/><path class="cls-11" d="M145.31,253.89a10.81,10.81,0,0,1,.41-3,8.73,8.73,0,0,1,1.24-2.59,5.22,5.22,0,0,1,1.7-1.64l.26.84a5.44,5.44,0,0,0-1.64,2.34,10,10,0,0,0-.7,3.52V254a10.1,10.1,0,0,0,1,4.58,5.37,5.37,0,0,0,1.38,1.82l-.26.77a5.35,5.35,0,0,1-1.74-1.7A9.53,9.53,0,0,1,145.31,253.89Z" transform="translate(-16.94 -23.26)"/><path class="cls-11" d="M156,253.33h-4.32v3.52h5v1.08h-6.32V248h6.25v1.08h-4.94v3.2H156Z" transform="translate(-16.94 -23.26)"/><path class="cls-11" d="M161.23,253.49a6.18,6.18,0,0,1-2.46-1.19,2.31,2.31,0,0,1-.77-1.75,2.42,2.42,0,0,1,.94-1.94,3.71,3.71,0,0,1,2.45-.77,4.17,4.17,0,0,1,1.83.39,3,3,0,0,1,1.24,1.1,2.81,2.81,0,0,1,.44,1.52h-1.32a1.82,1.82,0,0,0-.57-1.42,2.34,2.34,0,0,0-1.62-.52,2.39,2.39,0,0,0-1.52.43,1.42,1.42,0,0,0-.54,1.19,1.28,1.28,0,0,0,.52,1,5.2,5.2,0,0,0,1.75.77,7.86,7.86,0,0,1,1.94.77,2.82,2.82,0,0,1,1,1,2.45,2.45,0,0,1,.34,1.32,2.31,2.31,0,0,1-.94,1.93,4,4,0,0,1-2.52.73,4.71,4.71,0,0,1-1.92-.39,3.19,3.19,0,0,1-1.37-1.08,2.61,2.61,0,0,1-.48-1.55H159a1.73,1.73,0,0,0,.66,1.43,2.88,2.88,0,0,0,1.79.52,2.6,2.6,0,0,0,1.59-.42,1.39,1.39,0,0,0,.55-1.16,1.34,1.34,0,0,0-.51-1.13A5.8,5.8,0,0,0,161.23,253.49Z" transform="translate(-16.94 -23.26)"/><path class="cls-11" d="M169.32,254a10.52,10.52,0,0,1-.4,2.93,8.49,8.49,0,0,1-1.22,2.58,5.25,5.25,0,0,1-1.73,1.68l-.26-.77a5.58,5.58,0,0,0,1.69-2.51,10.76,10.76,0,0,0,.65-3.77v-.22a11.37,11.37,0,0,0-.3-2.67,8.9,8.9,0,0,0-.84-2.21,5,5,0,0,0-1.2-1.52l.26-.78a5.29,5.29,0,0,1,1.72,1.67,8.53,8.53,0,0,1,1.23,2.58A10.84,10.84,0,0,1,169.32,254Z" transform="translate(-16.94 -23.26)"/></g><g class="cls-9"><path class="cls-11" d="M32.62,277.93H31.35V269.5l-2.55.93v-1.14l3.62-1.37h.2Z" transform="translate(-16.94 -23.26)"/><path class="cls-11" d="M45.61,273.53H41.43v4.4H40.12V268h6.16v1.08H41.43v3.41h4.18Z" transform="translate(-16.94 -23.26)"/><path class="cls-11" d="M55.51,273.27a6.08,6.08,0,0,1-.49,2.55,3.72,3.72,0,0,1-1.39,1.67,3.9,3.9,0,0,1-2.11.57,3.8,3.8,0,0,1-2.09-.58A3.86,3.86,0,0,1,48,275.84a6,6,0,0,1-.51-2.48v-.72a5.92,5.92,0,0,1,.5-2.53,3.67,3.67,0,0,1,3.5-2.27,3.86,3.86,0,0,1,2.1.57A3.78,3.78,0,0,1,55,270.09a6.14,6.14,0,0,1,.49,2.55Zm-1.3-.64a4.5,4.5,0,0,0-.71-2.72,2.36,2.36,0,0,0-2-1,2.32,2.32,0,0,0-2,1,4.39,4.39,0,0,0-.74,2.63v.73a4.51,4.51,0,0,0,.72,2.7,2.35,2.35,0,0,0,2,1,2.32,2.32,0,0,0,2-.93,4.52,4.52,0,0,0,.72-2.65Z" transform="translate(-16.94 -23.26)"/><path class="cls-11" d="M61.13,273.9H58.79v4H57.47V268h3.3a3.92,3.92,0,0,1,2.59.77,2.76,2.76,0,0,1,.9,2.23,2.71,2.71,0,0,1-.5,1.62,3,3,0,0,1-1.4,1l2.34,4.22v.09H63.29Zm-2.34-1.07h2a2.25,2.25,0,0,0,1.55-.51,1.71,1.71,0,0,0,.58-1.36,1.79,1.79,0,0,0-.55-1.41,2.28,2.28,0,0,0-1.59-.5h-2Z" transform="translate(-16.94 -23.26)"/><path class="cls-11" d="M73.75,277.93H72.43l-5-7.67v7.67H66.1V268h1.32l5,7.71V268h1.31Z" transform="translate(-16.94 -23.26)"/><path class="cls-11" d="M83.74,273.27a6.24,6.24,0,0,1-.49,2.55,3.74,3.74,0,0,1-1.4,1.67,3.84,3.84,0,0,1-2.1.57,3.78,3.78,0,0,1-2.09-.58,3.73,3.73,0,0,1-1.41-1.64,5.87,5.87,0,0,1-.52-2.48v-.72a6.08,6.08,0,0,1,.5-2.53,3.76,3.76,0,0,1,1.41-1.69,3.8,3.8,0,0,1,2.09-.58,3.9,3.9,0,0,1,2.11.57,3.78,3.78,0,0,1,1.41,1.68,6.3,6.3,0,0,1,.49,2.55Zm-1.31-.64a4.5,4.5,0,0,0-.71-2.72,2.53,2.53,0,0,0-4,0,4.39,4.39,0,0,0-.73,2.63v.73a4.51,4.51,0,0,0,.72,2.7,2.34,2.34,0,0,0,2,1,2.3,2.3,0,0,0,2-.93,4.38,4.38,0,0,0,.72-2.65Z" transform="translate(-16.94 -23.26)"/><path class="cls-11" d="M94.8,273.33H90.48v3.52h5v1.08H89.17V268h6.26v1.08h-5v3.2H94.8Z" transform="translate(-16.94 -23.26)"/><path class="cls-11" d="M98.45,276.85h4.72v1.08h-6V268h1.32Z" transform="translate(-16.94 -23.26)"/><path class="cls-11" d="M110.29,273.33H106v3.52h5v1.08h-6.33V268h6.26v1.08h-5v3.2h4.32Zm-1.93-8.11h1.53l-1.83,2h-1Z" transform="translate(-16.94 -23.26)"/><path class="cls-11" d="M119.63,269.05h-3.2v8.88h-1.3v-8.88h-3.19V268h7.69Z" transform="translate(-16.94 -23.26)"/><path class="cls-11" d="M124.76,273.9h-2.34v4H121.1V268h3.3a3.92,3.92,0,0,1,2.59.77,2.76,2.76,0,0,1,.9,2.23,2.71,2.71,0,0,1-.5,1.62,3,3,0,0,1-1.4,1l2.34,4.22v.09h-1.41Zm-2.34-1.07h2a2.25,2.25,0,0,0,1.55-.51,1.71,1.71,0,0,0,.58-1.36,1.79,1.79,0,0,0-.55-1.41,2.3,2.3,0,0,0-1.59-.5h-2Z" transform="translate(-16.94 -23.26)"/><path class="cls-11" d="M131.14,277.93h-1.31V268h1.31Z" transform="translate(-16.94 -23.26)"/><path class="cls-11" d="M140.86,274.77a3.66,3.66,0,0,1-1.17,2.44,3.82,3.82,0,0,1-2.61.85,3.51,3.51,0,0,1-2.82-1.26,5.08,5.08,0,0,1-1.06-3.39v-1a5.65,5.65,0,0,1,.49-2.44,3.67,3.67,0,0,1,1.41-1.62,3.84,3.84,0,0,1,2.1-.56,3.57,3.57,0,0,1,2.54.88,3.73,3.73,0,0,1,1.12,2.45h-1.32a2.87,2.87,0,0,0-.74-1.73,2.29,2.29,0,0,0-1.6-.53,2.35,2.35,0,0,0-2,.93,4.24,4.24,0,0,0-.72,2.65v1a4.41,4.41,0,0,0,.68,2.58,2.18,2.18,0,0,0,1.89,1,2.53,2.53,0,0,0,1.68-.5,2.74,2.74,0,0,0,.78-1.72Z" transform="translate(-16.94 -23.26)"/><path class="cls-11" d="M150.31,273.27a6.07,6.07,0,0,1-.5,2.55,3.66,3.66,0,0,1-1.39,1.67,3.85,3.85,0,0,1-2.11.57,3.72,3.72,0,0,1-3.49-2.22,5.87,5.87,0,0,1-.52-2.48v-.72a6.08,6.08,0,0,1,.5-2.53,3.76,3.76,0,0,1,1.41-1.69,3.8,3.8,0,0,1,2.09-.58,3.9,3.9,0,0,1,2.11.57,3.7,3.7,0,0,1,1.4,1.68,6.14,6.14,0,0,1,.5,2.55Zm-1.31-.64a4.5,4.5,0,0,0-.71-2.72,2.53,2.53,0,0,0-3.95,0,4.39,4.39,0,0,0-.73,2.63v.73a4.51,4.51,0,0,0,.72,2.7,2.52,2.52,0,0,0,3.95,0,4.38,4.38,0,0,0,.72-2.65Z" transform="translate(-16.94 -23.26)"/></g><g class="cls-9"><path class="cls-12" d="M35,297.93H28.46V297l3.45-3.83A8,8,0,0,0,33,291.78a2.32,2.32,0,0,0,.29-1.13,1.78,1.78,0,0,0-.47-1.28,1.64,1.64,0,0,0-1.26-.49,1.94,1.94,0,0,0-1.46.53,2.06,2.06,0,0,0-.52,1.5H28.27a3,3,0,0,1,.89-2.23,3.29,3.29,0,0,1,2.36-.84,3.19,3.19,0,0,1,2.2.72,2.5,2.5,0,0,1,.81,1.94c0,1-.63,2.15-1.88,3.5L30,296.89h5Z" transform="translate(-16.94 -23.26)"/><path class="cls-12" d="M47.44,294.77a3.66,3.66,0,0,1-1.17,2.44,3.81,3.81,0,0,1-2.6.85,3.52,3.52,0,0,1-2.83-1.26,5.08,5.08,0,0,1-1.06-3.39v-1a5.65,5.65,0,0,1,.49-2.44,3.67,3.67,0,0,1,1.41-1.62,3.84,3.84,0,0,1,2.1-.56,3.57,3.57,0,0,1,2.54.88,3.73,3.73,0,0,1,1.12,2.45H46.12a2.87,2.87,0,0,0-.74-1.73,2.29,2.29,0,0,0-1.6-.53,2.35,2.35,0,0,0-2,.93,4.24,4.24,0,0,0-.72,2.65v1a4.41,4.41,0,0,0,.68,2.58,2.18,2.18,0,0,0,1.9,1,2.52,2.52,0,0,0,1.67-.5,2.74,2.74,0,0,0,.78-1.72Z" transform="translate(-16.94 -23.26)"/><path class="cls-12" d="M56.88,297.93H55.56v-4.6h-5v4.6H49.23V288h1.31v4.28h5V288h1.32Z" transform="translate(-16.94 -23.26)"/><path class="cls-12" d="M66.22,288v6.77a3.16,3.16,0,0,1-.89,2.3,3.53,3.53,0,0,1-2.38,1H62.6a3.69,3.69,0,0,1-2.6-.88,3.16,3.16,0,0,1-1-2.43V288h1.3v6.74A2.08,2.08,0,0,0,62.6,297a2.31,2.31,0,0,0,1.71-.6,2.27,2.27,0,0,0,.59-1.67V288Z" transform="translate(-16.94 -23.26)"/><path class="cls-12" d="M71.58,296.18,74.43,288h1.43l-3.69,10H71l-3.69-10h1.43Z" transform="translate(-16.94 -23.26)"/><path class="cls-12" d="M82.82,293.33H78.51v3.52h5v1.08H77.2V288h6.25v1.08H78.51v3.2h4.31Z" transform="translate(-16.94 -23.26)"/><path class="cls-12" d="M86.56,297.93H85.25V288h1.31Z" transform="translate(-16.94 -23.26)"/><path class="cls-12" d="M92.61,293.9H90.27v4H89V288h3.3a3.92,3.92,0,0,1,2.59.77,2.76,2.76,0,0,1,.9,2.23,2.71,2.71,0,0,1-.5,1.62,3,3,0,0,1-1.4,1l2.34,4.22v.09H94.77Zm-2.34-1.07h2a2.25,2.25,0,0,0,1.55-.51,1.71,1.71,0,0,0,.58-1.36,1.79,1.79,0,0,0-.55-1.41,2.3,2.3,0,0,0-1.59-.5h-2Z" transform="translate(-16.94 -23.26)"/><path class="cls-12" d="M105.24,293.27a6.07,6.07,0,0,1-.5,2.55,3.66,3.66,0,0,1-1.39,1.67,3.85,3.85,0,0,1-2.11.57,3.77,3.77,0,0,1-2.08-.58,3.73,3.73,0,0,1-1.41-1.64,5.87,5.87,0,0,1-.52-2.48v-.72a6.08,6.08,0,0,1,.5-2.53,3.76,3.76,0,0,1,1.41-1.69,3.8,3.8,0,0,1,2.09-.58,3.9,3.9,0,0,1,2.11.57,3.7,3.7,0,0,1,1.4,1.68,6.14,6.14,0,0,1,.5,2.55Zm-1.31-.64a4.5,4.5,0,0,0-.71-2.72,2.53,2.53,0,0,0-4,0,4.39,4.39,0,0,0-.73,2.63v.73a4.51,4.51,0,0,0,.72,2.7,2.52,2.52,0,0,0,3.95,0,4.38,4.38,0,0,0,.72-2.65Z" transform="translate(-16.94 -23.26)"/><path class="cls-12" d="M110.14,293.49a6.11,6.11,0,0,1-2.46-1.19,2.31,2.31,0,0,1-.77-1.75,2.39,2.39,0,0,1,.94-1.94,3.7,3.7,0,0,1,2.44-.77,4.1,4.1,0,0,1,1.83.39,3.05,3.05,0,0,1,1.25,1.1,2.81,2.81,0,0,1,.44,1.52h-1.32a1.82,1.82,0,0,0-.57-1.42,2.84,2.84,0,0,0-3.14-.09,1.42,1.42,0,0,0-.54,1.19,1.3,1.3,0,0,0,.51,1,5.27,5.27,0,0,0,1.76.77,8,8,0,0,1,1.94.77,2.82,2.82,0,0,1,1,1,2.45,2.45,0,0,1,.34,1.32,2.33,2.33,0,0,1-.94,1.93,4,4,0,0,1-2.53.73,4.69,4.69,0,0,1-1.91-.39,3.19,3.19,0,0,1-1.37-1.08,2.61,2.61,0,0,1-.48-1.55h1.32a1.73,1.73,0,0,0,.66,1.43,2.87,2.87,0,0,0,1.78.52,2.61,2.61,0,0,0,1.6-.42,1.39,1.39,0,0,0,.55-1.16,1.34,1.34,0,0,0-.51-1.13A5.8,5.8,0,0,0,110.14,293.49Z" transform="translate(-16.94 -23.26)"/><path class="cls-12" d="M124.6,293.33h-4.31v3.52h5v1.08H119V288h6.25v1.08h-4.94v3.2h4.31Z" transform="translate(-16.94 -23.26)"/><path class="cls-12" d="M128.25,296.85H133v1.08h-6V288h1.32Z" transform="translate(-16.94 -23.26)"/><path class="cls-12" d="M140.09,293.33h-4.31v3.52h5v1.08h-6.32V288h6.25v1.08h-4.94v3.2h4.31Zm-1.92-8.11h1.53l-1.84,2h-1Z" transform="translate(-16.94 -23.26)"/><path class="cls-12" d="M149.44,289.05h-3.2v8.88h-1.31v-8.88h-3.19V288h7.7Z" transform="translate(-16.94 -23.26)"/><path class="cls-12" d="M154.56,293.9h-2.33v4h-1.32V288h3.29a3.91,3.91,0,0,1,2.59.77,2.77,2.77,0,0,1,.91,2.23,2.65,2.65,0,0,1-.51,1.62,3,3,0,0,1-1.4,1l2.34,4.22v.09h-1.41Zm-2.33-1.07h2a2.27,2.27,0,0,0,1.56-.51,1.74,1.74,0,0,0,.58-1.36,1.82,1.82,0,0,0-.55-1.41,2.31,2.31,0,0,0-1.59-.5h-2Z" transform="translate(-16.94 -23.26)"/><path class="cls-12" d="M160.94,297.93h-1.31V288h1.31Z" transform="translate(-16.94 -23.26)"/><path class="cls-12" d="M170.66,294.77a3.69,3.69,0,0,1-1.16,2.44,3.85,3.85,0,0,1-2.61.85,3.52,3.52,0,0,1-2.83-1.26,5.08,5.08,0,0,1-1.06-3.39v-1a5.65,5.65,0,0,1,.5-2.44,3.65,3.65,0,0,1,1.4-1.62,3.89,3.89,0,0,1,2.11-.56,3.6,3.6,0,0,1,2.54.88,3.68,3.68,0,0,1,1.11,2.45h-1.32a2.87,2.87,0,0,0-.74-1.73,2.26,2.26,0,0,0-1.59-.53,2.37,2.37,0,0,0-2,.93,4.31,4.31,0,0,0-.71,2.65v1A4.33,4.33,0,0,0,165,296a2.18,2.18,0,0,0,1.89,1,2.53,2.53,0,0,0,1.68-.5,2.69,2.69,0,0,0,.77-1.72Z" transform="translate(-16.94 -23.26)"/><path class="cls-12" d="M180.11,293.27a6.08,6.08,0,0,1-.49,2.55,3.68,3.68,0,0,1-1.4,1.67,3.84,3.84,0,0,1-2.1.57,3.78,3.78,0,0,1-2.09-.58,3.86,3.86,0,0,1-1.41-1.64,6,6,0,0,1-.51-2.48v-.72a6.08,6.08,0,0,1,.49-2.53,3.84,3.84,0,0,1,1.42-1.69,3.77,3.77,0,0,1,2.08-.58,3.88,3.88,0,0,1,2.11.57,3.78,3.78,0,0,1,1.41,1.68,6.14,6.14,0,0,1,.49,2.55Zm-1.31-.64a4.43,4.43,0,0,0-.71-2.72,2.34,2.34,0,0,0-2-1,2.31,2.31,0,0,0-1.95,1,4.33,4.33,0,0,0-.74,2.63v.73a4.51,4.51,0,0,0,.72,2.7,2.35,2.35,0,0,0,2,1,2.32,2.32,0,0,0,2-.93,4.45,4.45,0,0,0,.71-2.65Z" transform="translate(-16.94 -23.26)"/><path class="cls-12" d="M185,293.49a6.25,6.25,0,0,1-2.46-1.19,2.3,2.3,0,0,1-.76-1.75,2.39,2.39,0,0,1,.94-1.94,3.68,3.68,0,0,1,2.44-.77,4.17,4.17,0,0,1,1.83.39,3,3,0,0,1,1.24,1.1,2.72,2.72,0,0,1,.44,1.52h-1.32a1.82,1.82,0,0,0-.57-1.42,2.3,2.3,0,0,0-1.62-.52,2.34,2.34,0,0,0-1.51.43,1.4,1.4,0,0,0-.55,1.19,1.28,1.28,0,0,0,.52,1,5.2,5.2,0,0,0,1.75.77,8.13,8.13,0,0,1,2,.77,3,3,0,0,1,1,1,2.54,2.54,0,0,1,.33,1.32,2.31,2.31,0,0,1-.94,1.93,4,4,0,0,1-2.52.73,4.74,4.74,0,0,1-1.92-.39,3.19,3.19,0,0,1-1.37-1.08,2.61,2.61,0,0,1-.48-1.55h1.32a1.71,1.71,0,0,0,.67,1.43,2.85,2.85,0,0,0,1.78.52,2.6,2.6,0,0,0,1.59-.42,1.39,1.39,0,0,0,.55-1.16,1.34,1.34,0,0,0-.51-1.13A5.8,5.8,0,0,0,185,293.49Z" transform="translate(-16.94 -23.26)"/></g><g class="cls-9"><path class="cls-12" d="M32.62,317.93H31.35V309.5l-2.55.93v-1.14l3.62-1.37h.2Z" transform="translate(-16.94 -23.26)"/><path class="cls-12" d="M44.49,317.93a2.34,2.34,0,0,1-.18-.78,2.82,2.82,0,0,1-2.11.91,2.57,2.57,0,0,1-1.79-.62,2,2,0,0,1-.7-1.56,2.08,2.08,0,0,1,.88-1.8,4.08,4.08,0,0,1,2.47-.64h1.23v-.58a1.47,1.47,0,0,0-.4-1.06,1.59,1.59,0,0,0-1.17-.39,1.87,1.87,0,0,0-1.13.34,1,1,0,0,0-.46.83H39.86a1.74,1.74,0,0,1,.39-1.07,2.71,2.71,0,0,1,1.07-.82,3.59,3.59,0,0,1,1.48-.3,3,3,0,0,1,2,.64,2.32,2.32,0,0,1,.75,1.76v3.41a4.21,4.21,0,0,0,.26,1.62v.11Zm-2.1-1a2.15,2.15,0,0,0,1.12-.31,1.82,1.82,0,0,0,.78-.8v-1.51h-1c-1.55,0-2.33.45-2.33,1.36a1.16,1.16,0,0,0,.4.93A1.53,1.53,0,0,0,42.39,317Z" transform="translate(-16.94 -23.26)"/><path class="cls-12" d="M57.39,317.93H50.87V317l3.45-3.83a8,8,0,0,0,1-1.41,2.32,2.32,0,0,0,.29-1.13,1.82,1.82,0,0,0-.47-1.28,1.64,1.64,0,0,0-1.26-.49,1.91,1.91,0,0,0-1.46.53,2.06,2.06,0,0,0-.53,1.5H50.68a3,3,0,0,1,.88-2.23,3.3,3.3,0,0,1,2.37-.84,3.19,3.19,0,0,1,2.2.72,2.53,2.53,0,0,1,.8,1.94c0,1-.62,2.15-1.87,3.5l-2.67,2.89h5Z" transform="translate(-16.94 -23.26)"/><path class="cls-12" d="M68,315.32H63.85l-.93,2.61H61.56l3.8-10h1.15l3.81,10H69Zm-3.77-1.07h3.38l-1.69-4.66Z" transform="translate(-16.94 -23.26)"/><path class="cls-12" d="M75.31,313.9H73v4H71.65V308H75a3.88,3.88,0,0,1,2.58.77,3.05,3.05,0,0,1,.41,3.85,3,3,0,0,1-1.4,1l2.34,4.22v.09H77.47ZM73,312.83h2a2.25,2.25,0,0,0,1.55-.51,1.71,1.71,0,0,0,.58-1.36,1.79,1.79,0,0,0-.55-1.41,2.31,2.31,0,0,0-1.59-.5H73Z" transform="translate(-16.94 -23.26)"/><path class="cls-12" d="M82.71,314.21H79.38v-1h3.33Z" transform="translate(-16.94 -23.26)"/><path class="cls-12" d="M91.46,314.77a3.69,3.69,0,0,1-1.16,2.44,3.85,3.85,0,0,1-2.61.85,3.52,3.52,0,0,1-2.83-1.26,5.08,5.08,0,0,1-1.06-3.39v-1a5.65,5.65,0,0,1,.49-2.44,3.73,3.73,0,0,1,1.41-1.62,3.88,3.88,0,0,1,2.1-.56,3.61,3.61,0,0,1,2.55.88,3.68,3.68,0,0,1,1.11,2.45H90.14a2.87,2.87,0,0,0-.74-1.73,2.27,2.27,0,0,0-1.6-.53,2.36,2.36,0,0,0-2,.93,4.31,4.31,0,0,0-.71,2.65v1a4.41,4.41,0,0,0,.67,2.58,2.21,2.21,0,0,0,1.9,1,2.53,2.53,0,0,0,1.68-.5,2.69,2.69,0,0,0,.77-1.72Z" transform="translate(-16.94 -23.26)"/><path class="cls-12" d="M100.91,313.27a6.08,6.08,0,0,1-.49,2.55,3.74,3.74,0,0,1-1.4,1.67,3.84,3.84,0,0,1-2.1.57,3.78,3.78,0,0,1-2.09-.58,3.86,3.86,0,0,1-1.41-1.64,6,6,0,0,1-.52-2.48v-.72a6.08,6.08,0,0,1,.5-2.53,3.88,3.88,0,0,1,1.41-1.69,3.8,3.8,0,0,1,2.09-.58,3.9,3.9,0,0,1,2.11.57,3.78,3.78,0,0,1,1.41,1.68,6.14,6.14,0,0,1,.49,2.55Zm-1.31-.64a4.43,4.43,0,0,0-.71-2.72,2.53,2.53,0,0,0-4,0,4.39,4.39,0,0,0-.73,2.63v.73a4.51,4.51,0,0,0,.72,2.7,2.53,2.53,0,0,0,4,0,4.45,4.45,0,0,0,.71-2.65Z" transform="translate(-16.94 -23.26)"/><path class="cls-12" d="M110.53,317.93h-1.32l-5-7.67v7.67h-1.32V308h1.32l5,7.71V308h1.31Z" transform="translate(-16.94 -23.26)"/><path class="cls-12" d="M112.86,317.93V308h2.81a4.43,4.43,0,0,1,2.29.58,3.87,3.87,0,0,1,1.55,1.63,5.43,5.43,0,0,1,.55,2.43v.64a5.26,5.26,0,0,1-.55,2.47,3.79,3.79,0,0,1-1.55,1.62,4.79,4.79,0,0,1-2.35.59Zm1.31-8.88v7.8h1.38a3,3,0,0,0,2.36-.94,3.88,3.88,0,0,0,.85-2.69v-.58A4,4,0,0,0,118,310a2.79,2.79,0,0,0-2.26-.95Z" transform="translate(-16.94 -23.26)"/><path class="cls-12" d="M123.45,317.93h-1.32V308h1.32Z" transform="translate(-16.94 -23.26)"/><path class="cls-12" d="M133.17,314.77a3.7,3.7,0,0,1-1.17,2.44,3.82,3.82,0,0,1-2.61.85,3.51,3.51,0,0,1-2.82-1.26,5.08,5.08,0,0,1-1.07-3.39v-1A5.65,5.65,0,0,1,126,310a3.67,3.67,0,0,1,1.41-1.62,3.84,3.84,0,0,1,2.1-.56,3.57,3.57,0,0,1,2.54.88,3.73,3.73,0,0,1,1.12,2.45h-1.32a2.87,2.87,0,0,0-.74-1.73,2.29,2.29,0,0,0-1.6-.53,2.33,2.33,0,0,0-2,.93,4.24,4.24,0,0,0-.72,2.65v1a4.41,4.41,0,0,0,.68,2.58,2.18,2.18,0,0,0,1.89,1,2.53,2.53,0,0,0,1.68-.5,2.74,2.74,0,0,0,.78-1.72Z" transform="translate(-16.94 -23.26)"/><path class="cls-12" d="M136.37,317.93h-1.32V308h1.32Z" transform="translate(-16.94 -23.26)"/><path class="cls-12" d="M146.42,313.27a6.08,6.08,0,0,1-.49,2.55,3.72,3.72,0,0,1-1.39,1.67,3.9,3.9,0,0,1-2.11.57,3.74,3.74,0,0,1-2.08-.58,3.81,3.81,0,0,1-1.42-1.64,6,6,0,0,1-.51-2.48v-.72a5.92,5.92,0,0,1,.5-2.53,3.67,3.67,0,0,1,3.5-2.27,3.92,3.92,0,0,1,2.11.57,3.83,3.83,0,0,1,1.4,1.68,6.14,6.14,0,0,1,.49,2.55Zm-1.3-.64a4.5,4.5,0,0,0-.71-2.72,2.36,2.36,0,0,0-2-1,2.32,2.32,0,0,0-2,1,4.39,4.39,0,0,0-.74,2.63v.73a4.44,4.44,0,0,0,.73,2.7,2.52,2.52,0,0,0,4,0,4.52,4.52,0,0,0,.72-2.65Z" transform="translate(-16.94 -23.26)"/><path class="cls-12" d="M156,317.93h-1.32l-5-7.67v7.67h-1.32V308h1.32l5,7.71V308H156Z" transform="translate(-16.94 -23.26)"/><path class="cls-12" d="M164,315.32h-4.17l-.94,2.61h-1.35l3.8-10h1.15l3.81,10h-1.35Zm-3.77-1.07h3.38l-1.69-4.66Z" transform="translate(-16.94 -23.26)"/><path class="cls-12" d="M167.63,317.93V308h2.81a4.43,4.43,0,0,1,2.29.58,3.87,3.87,0,0,1,1.55,1.63,5.43,5.43,0,0,1,.55,2.43v.64a5.26,5.26,0,0,1-.55,2.47,3.79,3.79,0,0,1-1.55,1.62,4.79,4.79,0,0,1-2.35.59Zm1.31-8.88v7.8h1.38a3,3,0,0,0,2.36-.94,3.88,3.88,0,0,0,.85-2.69v-.58a4,4,0,0,0-.8-2.64,2.79,2.79,0,0,0-2.26-.95Z" transform="translate(-16.94 -23.26)"/><path class="cls-12" d="M184.46,313.27a6.08,6.08,0,0,1-.49,2.55,3.72,3.72,0,0,1-1.39,1.67,3.85,3.85,0,0,1-2.11.57,3.72,3.72,0,0,1-3.49-2.22,5.87,5.87,0,0,1-.52-2.48v-.72a6.08,6.08,0,0,1,.5-2.53,3.76,3.76,0,0,1,1.41-1.69,3.8,3.8,0,0,1,2.09-.58,3.9,3.9,0,0,1,2.11.57,3.76,3.76,0,0,1,1.4,1.68,6.14,6.14,0,0,1,.49,2.55Zm-1.3-.64a4.5,4.5,0,0,0-.71-2.72,2.36,2.36,0,0,0-2-1,2.33,2.33,0,0,0-2,1,4.33,4.33,0,0,0-.73,2.63v.73a4.51,4.51,0,0,0,.72,2.7,2.52,2.52,0,0,0,3.95,0,4.38,4.38,0,0,0,.72-2.65Z" transform="translate(-16.94 -23.26)"/><path class="cls-12" d="M186.19,313.89a10.81,10.81,0,0,1,.41-3,9,9,0,0,1,1.23-2.59,5.33,5.33,0,0,1,1.71-1.64l.26.84a5.44,5.44,0,0,0-1.64,2.34,10,10,0,0,0-.7,3.52V314a10.1,10.1,0,0,0,1,4.58,5.37,5.37,0,0,0,1.38,1.82l-.26.77a5.35,5.35,0,0,1-1.74-1.7A9.53,9.53,0,0,1,186.19,313.89Z" transform="translate(-16.94 -23.26)"/><path class="cls-12" d="M194.15,313.49a6.25,6.25,0,0,1-2.46-1.19,2.31,2.31,0,0,1-.77-1.75,2.4,2.4,0,0,1,1-1.94,3.68,3.68,0,0,1,2.44-.77,4.17,4.17,0,0,1,1.83.39,3,3,0,0,1,1.24,1.1,2.72,2.72,0,0,1,.44,1.52H196.5a1.82,1.82,0,0,0-.57-1.42,2.3,2.3,0,0,0-1.62-.52,2.39,2.39,0,0,0-1.52.43,1.42,1.42,0,0,0-.54,1.19,1.28,1.28,0,0,0,.52,1,5.2,5.2,0,0,0,1.75.77,8.13,8.13,0,0,1,1.95.77,2.87,2.87,0,0,1,1,1,2.45,2.45,0,0,1,.34,1.32,2.31,2.31,0,0,1-.94,1.93,4,4,0,0,1-2.52.73,4.74,4.74,0,0,1-1.92-.39,3.19,3.19,0,0,1-1.37-1.08,2.61,2.61,0,0,1-.48-1.55h1.32a1.71,1.71,0,0,0,.67,1.43,2.83,2.83,0,0,0,1.78.52,2.6,2.6,0,0,0,1.59-.42,1.39,1.39,0,0,0,.55-1.16,1.34,1.34,0,0,0-.51-1.13A5.8,5.8,0,0,0,194.15,313.49Z" transform="translate(-16.94 -23.26)"/><path class="cls-12" d="M202.25,314a10.91,10.91,0,0,1-.4,2.93,8.76,8.76,0,0,1-1.23,2.58,5.32,5.32,0,0,1-1.72,1.68l-.27-.77a5.58,5.58,0,0,0,1.69-2.51,10.76,10.76,0,0,0,.65-3.77v-.22a11.37,11.37,0,0,0-.3-2.67,9.31,9.31,0,0,0-.83-2.21,5,5,0,0,0-1.21-1.52l.27-.78a5.49,5.49,0,0,1,1.72,1.67,8.75,8.75,0,0,1,1.22,2.58A10.84,10.84,0,0,1,202.25,314Z" transform="translate(-16.94 -23.26)"/></g></g></g></svg>
