<?xml version="1.0" encoding="utf-8"?>
<svg viewBox="-628.749 74.144 197 380" xmlns="http://www.w3.org/2000/svg">
  <g id="g-1" transform="matrix(1, 0, 0, 1, -629.248962, 73.64418)">
    <g id="g-2" data-name="Group 14514">
      <path id="path-1" data-name="Rectangle 17486" class="cls-1" d="M27.18,23.26h177a10,10,0,0,1,10,10v360a10,10,0,0,1-10,10h-177a10,10,0,0,1-10-10v-360A10,10,0,0,1,27.18,23.26Z" transform="translate(-16.68 -22.76)" style="fill: rgb(244, 244, 245); stroke-miterlimit: 10; stroke: rgba(108, 141, 59, 0);"/>
    </g>
    <g id="g-3" data-name="Group 14518">
      <g id="g-4" data-name="Group 14444">
        <g id="g-5">
          <g id="g-6" data-name="Group 14479">
            <path id="path-2" data-name="Path 13312" class="cls-2" d="M69.58,60.13l-11-10.64a.83.83,0,0,0-1.15,0l-11,10.64A.83.83,0,0,0,47,61.56h1.46V73.19a.83.83,0,0,0,.83.83h5.82a.83.83,0,0,0,.83-.83V66.54h4.15v6.65a.83.83,0,0,0,.83.83H66.7a.83.83,0,0,0,.83-.83V61.56H69a.83.83,0,0,0,.83-.83.73.73,0,0,0-.24-.6Zm-2,.6a.83.83,0,0,0-.83.83V73.19H60.9V66.54a.83.83,0,0,0-.83-.83H55.92a.83.83,0,0,0-.83.83v6.65H49.27V61.56a.83.83,0,0,0-.83-.83H47L58,50.09,69,60.73Z" transform="translate(-16.68 -22.76)" style="fill: rgb(255, 255, 255); stroke: rgba(108, 141, 59, 0);"/>
          </g>
        </g>
        <g id="g-7" data-name="Group 14517">
          <g id="g-8" data-name="home">
            <path id="path-3" data-name="Path 13316" class="cls-3" d="M58,41.59,42.1,52.36V77H73.83V52.36Z" transform="translate(-16.68 -22.76)" style="fill: rgb(234, 232, 229); stroke: rgba(108, 141, 59, 0);"/>
            <path id="path-4" data-name="Path 13317" class="cls-4" d="M48.06,63.8h7.27V77H48.06Z" transform="translate(-16.68 -22.76)" style="fill: rgb(232, 157, 67); stroke: rgba(108, 141, 59, 0);"/>
            <path id="path-5" data-name="Path 13318" class="cls-5" d="M62.6,69.75h9.26v2.64H62.6Z" transform="translate(-16.68 -22.76)" style="fill: rgb(51, 56, 92); stroke: rgba(108, 141, 59, 0);"/>
            <g id="g-9" data-name="Group 14517-2">
              <path id="path-6" data-name="Path 13319" class="cls-6" d="M60.62,77V67.76l1.32-2,1.32,2V77Z" transform="translate(-16.68 -22.76)" style="fill: rgb(69, 75, 109); stroke: rgba(108, 141, 59, 0);"/>
              <path id="path-7" data-name="Path 13320" class="cls-6" d="M65.91,77V67.76l1.32-2,1.32,2V77Z" transform="translate(-16.68 -22.76)" style="fill: rgb(69, 75, 109); stroke: rgba(108, 141, 59, 0);"/>
              <path id="path-8" data-name="Path 13321" class="cls-6" d="M71.2,77V67.76l1.32-2,1.32,2V77Z" transform="translate(-16.68 -22.76)" style="fill: rgb(69, 75, 109); stroke: rgba(108, 141, 59, 0);"/>
            </g>
            <path id="path-9" data-name="Path 13322" class="cls-7" d="M60,57.85H56a2,2,0,0,1-2-2v-4a2,2,0,0,1,2-2h4a2,2,0,0,1,2,2h0v4a2,2,0,0,1-2,2Z" transform="translate(-16.68 -22.76)" style="fill: rgb(76, 195, 237); stroke: rgba(108, 141, 59, 0);"/>
            <path id="path-10" data-name="Path 13323" class="cls-6" d="M61.94,53.22h-3.3V49.91H57.32v3.31H54v1.32h3.31v3.31h1.32V54.54H62Z" transform="translate(-16.68 -22.76)" style="fill: rgb(69, 75, 109); stroke: rgba(108, 141, 59, 0);"/>
            <path id="path-11" data-name="Path 13324" class="cls-6" d="M52,69.75h1.32v1.32H52Z" transform="translate(-16.68 -22.76)" style="fill: rgb(69, 75, 109); stroke: rgba(108, 141, 59, 0);"/>
            <path id="path-12" data-name="Path 13325" class="cls-6" d="M41.45,71.73h1.32V77H41.45Z" transform="translate(-16.68 -22.76)" style="fill: rgb(69, 75, 109); stroke: rgba(108, 141, 59, 0);"/>
            <path id="path-13" data-name="Path 13326" class="cls-8" d="M45.41,69.08c0,2.37-1.48,4-3.31,4s-3.31-1.59-3.31-4c0-1.55,1.41-5.3,2.39-7.72a1,1,0,0,1,1.84,0C44,63.78,45.41,67.54,45.41,69.08Z" transform="translate(-16.68 -22.76)" style="fill: rgb(122, 196, 121); stroke: rgba(108, 141, 59, 0);"/>
            <path id="path-14" data-name="Path 13327" class="cls-6" d="M38.14,76.36H77.81v1.32H38.14Z" transform="translate(-16.68 -22.76)" style="fill: rgb(69, 75, 109); stroke: rgba(108, 141, 59, 0);"/>
            <path id="path-15" data-name="Path 13328" class="cls-4" d="M75.74,53.65,58,41.59,40.2,53.65l-1.49-2.19L58,38.39,77.21,51.46Z" transform="translate(-16.68 -22.76)" style="fill: rgb(232, 157, 67); stroke: rgba(108, 141, 59, 0);"/>
          </g>
        </g>
      </g>
    </g>
    <g class="cls-9" style="isolation: isolate;">
      <path class="cls-10" d="M102.61,62.88h-1.52v3.38h-1.9V57h3.43a3.87,3.87,0,0,1,2.53.73,2.51,2.51,0,0,1,.89,2.06,2.9,2.9,0,0,1-.41,1.58,2.8,2.8,0,0,1-1.24,1l2,3.78v.09h-2Zm-1.52-1.55h1.54a1.58,1.58,0,0,0,1.11-.36,1.33,1.33,0,0,0,.39-1,1.4,1.4,0,0,0-.37-1,1.55,1.55,0,0,0-1.14-.37h-1.53Z" transform="translate(-16.68 -22.76)" style="fill: rgb(108, 141, 59); stroke: rgba(108, 141, 59, 0);"/>
      <path class="cls-10" d="M113.05,62.25h-3.66v2.48h4.29v1.53h-6.2V57h6.19v1.54h-4.28v2.2h3.66Z" transform="translate(-16.68 -22.76)" style="fill: rgb(108, 141, 59); stroke: rgba(108, 141, 59, 0);"/>
      <path class="cls-10" d="M119.59,63.83a1,1,0,0,0-.38-.83,4.94,4.94,0,0,0-1.37-.6,10.23,10.23,0,0,1-1.57-.64,2.55,2.55,0,0,1-1.57-2.29,2.22,2.22,0,0,1,.42-1.33,2.66,2.66,0,0,1,1.21-.92,4.58,4.58,0,0,1,1.77-.33,4.18,4.18,0,0,1,1.77.36,2.78,2.78,0,0,1,1.2,1,2.63,2.63,0,0,1,.43,1.49h-1.9a1.26,1.26,0,0,0-.4-1,1.63,1.63,0,0,0-1.13-.35,1.73,1.73,0,0,0-1.08.29.94.94,0,0,0-.39.78.88.88,0,0,0,.45.75,4.78,4.78,0,0,0,1.34.57A5.92,5.92,0,0,1,120.76,62a2.42,2.42,0,0,1,.74,1.8,2.2,2.2,0,0,1-.91,1.88,3.93,3.93,0,0,1-2.44.68,4.7,4.7,0,0,1-1.94-.39,3,3,0,0,1-1.34-1.07,2.69,2.69,0,0,1-.46-1.57h1.91q0,1.53,1.83,1.53a1.73,1.73,0,0,0,1.06-.28A.9.9,0,0,0,119.59,63.83Z" transform="translate(-16.68 -22.76)" style="fill: rgb(108, 141, 59); stroke: rgba(108, 141, 59, 0);"/>
      <path class="cls-10" d="M124.81,66.26h-1.9V57h1.9Z" transform="translate(-16.68 -22.76)" style="fill: rgb(108, 141, 59); stroke: rgba(108, 141, 59, 0);"/>
      <path class="cls-10" d="M126.58,66.26V57h2.84a4.38,4.38,0,0,1,2.18.54,3.85,3.85,0,0,1,1.5,1.57,4.79,4.79,0,0,1,.54,2.3v.42a4.72,4.72,0,0,1-.53,2.29,3.8,3.8,0,0,1-1.49,1.56,4.39,4.39,0,0,1-2.18.56Zm1.9-7.7v6.17h.92a2.08,2.08,0,0,0,1.71-.73,3.27,3.27,0,0,0,.6-2.09v-.49a3.32,3.32,0,0,0-.58-2.13,2.05,2.05,0,0,0-1.71-.73Z" transform="translate(-16.68 -22.76)" style="fill: rgb(108, 141, 59); stroke: rgba(108, 141, 59, 0);"/>
      <path class="cls-10" d="M140.59,62.25h-3.66v2.48h4.29v1.53H135V57h6.18v1.54h-4.28v2.2h3.66Z" transform="translate(-16.68 -22.76)" style="fill: rgb(108, 141, 59); stroke: rgba(108, 141, 59, 0);"/>
      <path class="cls-10" d="M149.86,66.26H148l-3.71-6.08v6.08h-1.9V57h1.9L148,63.11V57h1.9Z" transform="translate(-16.68 -22.76)" style="fill: rgb(108, 141, 59); stroke: rgba(108, 141, 59, 0);"/>
      <path class="cls-10" d="M158.77,63.18a3.28,3.28,0,0,1-1.1,2.35,3.86,3.86,0,0,1-2.62.85,3.46,3.46,0,0,1-2.79-1.19,4.91,4.91,0,0,1-1-3.29v-.56a5.6,5.6,0,0,1,.47-2.35,3.49,3.49,0,0,1,1.34-1.56,4.2,4.2,0,0,1,4.61.32,3.55,3.55,0,0,1,1.13,2.4h-1.91a1.88,1.88,0,0,0-.5-1.3,1.82,1.82,0,0,0-1.3-.4,1.64,1.64,0,0,0-1.43.68,3.9,3.9,0,0,0-.48,2.12V62a4.12,4.12,0,0,0,.45,2.19,1.59,1.59,0,0,0,1.43.69,1.88,1.88,0,0,0,1.32-.4,1.83,1.83,0,0,0,.5-1.25Z" transform="translate(-16.68 -22.76)" style="fill: rgb(108, 141, 59); stroke: rgba(108, 141, 59, 0);"/>
      <path class="cls-10" d="M162.05,66.26h-1.91V57h1.91Z" transform="translate(-16.68 -22.76)" style="fill: rgb(108, 141, 59); stroke: rgba(108, 141, 59, 0);"/>
      <path class="cls-10" d="M169.15,64.35h-3.34l-.64,1.91h-2L166.59,57h1.76l3.46,9.24h-2Zm-2.83-1.54h2.31l-1.16-3.46Z" transform="translate(-16.68 -22.76)" style="fill: rgb(108, 141, 59); stroke: rgba(108, 141, 59, 0);"/>
      <path class="cls-10" d="M174.58,64.73h4v1.53h-6V57h1.91Z" transform="translate(-16.68 -22.76)" style="fill: rgb(108, 141, 59); stroke: rgba(108, 141, 59, 0);"/>
      <path class="cls-10" d="M185,66.26h-1.91V57H185Z" transform="translate(-16.68 -22.76)" style="fill: rgb(108, 141, 59); stroke: rgba(108, 141, 59, 0);"/>
      <path class="cls-10" d="M190.16,64,192.25,57h2.12l-3.22,9.24h-2L186,57h2.11Z" transform="translate(-16.68 -22.76)" style="fill: rgb(108, 141, 59); stroke: rgba(108, 141, 59, 0);"/>
    </g>
  </g>
  <g id="resI_On" data-name="resI On" transform="matrix(1, 0, 0, 1, -629.248962, 73.64418)">
    <g id="g-10" data-name="Group 14486">
      <g class="cls-9" style="isolation: isolate;">
        <path class="cls-10" d="M158,394.26l2.84-8.21h1.44L158.55,396h-1.16l-3.69-9.95h1.43Z" transform="translate(-16.68 -22.76)" style="fill: rgb(108, 141, 59); stroke: rgba(108, 141, 59, 0);"/>
        <path class="cls-10" d="M162.73,392.23a4.43,4.43,0,0,1,.42-2,3.14,3.14,0,0,1,2.93-1.81,3.13,3.13,0,0,1,2.45,1,4,4,0,0,1,.93,2.78v.09a4.35,4.35,0,0,1-.42,1.94,3.08,3.08,0,0,1-1.18,1.34,3.25,3.25,0,0,1-1.76.48,3.1,3.1,0,0,1-2.44-1.05,4,4,0,0,1-.93-2.77Zm1.27.15a3.19,3.19,0,0,0,.57,2,1.94,1.94,0,0,0,3.06,0,3.54,3.54,0,0,0,.56-2.12,3.18,3.18,0,0,0-.57-2,1.86,1.86,0,0,0-1.54-.76,1.81,1.81,0,0,0-1.51.75A3.46,3.46,0,0,0,164,392.38Z" transform="translate(-16.68 -22.76)" style="fill: rgb(108, 141, 59); stroke: rgba(108, 141, 59, 0);"/>
        <path class="cls-10" d="M172.42,396h-1.27V385.5h1.27Z" transform="translate(-16.68 -22.76)" style="fill: rgb(108, 141, 59); stroke: rgba(108, 141, 59, 0);"/>
        <path class="cls-10" d="M176.16,386.81v1.79h1.38v1h-1.38v4.59a1.05,1.05,0,0,0,.18.67.78.78,0,0,0,.63.22,2.6,2.6,0,0,0,.6-.08v1a3.67,3.67,0,0,1-1,.14,1.6,1.6,0,0,1-1.28-.52,2.22,2.22,0,0,1-.43-1.45v-4.59h-1.34v-1h1.34v-1.79Z" transform="translate(-16.68 -22.76)" style="fill: rgb(108, 141, 59); stroke: rgba(108, 141, 59, 0);"/>
        <path class="cls-10" d="M183.58,396a3,3,0,0,1-.18-.78,2.81,2.81,0,0,1-2.1.92,2.64,2.64,0,0,1-1.8-.62,2,2,0,0,1-.7-1.57,2.12,2.12,0,0,1,.88-1.8,4.19,4.19,0,0,1,2.47-.64h1.23v-.58a1.42,1.42,0,0,0-.39-1.05,1.62,1.62,0,0,0-1.17-.4,1.86,1.86,0,0,0-1.14.35,1,1,0,0,0-.45.82H179a1.72,1.72,0,0,1,.4-1.07,2.66,2.66,0,0,1,1.06-.81,3.63,3.63,0,0,1,1.48-.3,3,3,0,0,1,2,.63,2.34,2.34,0,0,1,.75,1.77v3.4a4,4,0,0,0,.26,1.62V396Zm-2.1-1a2.26,2.26,0,0,0,1.13-.31,1.85,1.85,0,0,0,.77-.8v-1.52h-1c-1.55,0-2.32.45-2.32,1.36a1.15,1.15,0,0,0,.39.93A1.57,1.57,0,0,0,181.48,395Z" transform="translate(-16.68 -22.76)" style="fill: rgb(108, 141, 59); stroke: rgba(108, 141, 59, 0);"/>
        <path class="cls-10" d="M190.21,389.74a4.13,4.13,0,0,0-.63-.05,1.65,1.65,0,0,0-1.68,1.06V396h-1.27v-7.4h1.23l0,.86a2,2,0,0,1,1.77-1,1.39,1.39,0,0,1,.56.09Z" transform="translate(-16.68 -22.76)" style="fill: rgb(108, 141, 59); stroke: rgba(108, 141, 59, 0);"/>
      </g>
    </g>
    <g id="Group_14501" data-name="Group 14501">
      <g class="cls-9" style="isolation: isolate;">
        <path class="cls-10" d="M49.07,113H47.76v-10h1.31Z" transform="translate(-16.68 -22.76)" style="fill: rgb(108, 141, 59); stroke: rgba(108, 141, 59, 0);"/>
        <path class="cls-10" d="M52.47,105.6l0,.93a2.71,2.71,0,0,1,2.22-1.06c1.56,0,2.35.88,2.36,2.64V113H55.83v-4.9a1.73,1.73,0,0,0-.37-1.18,1.49,1.49,0,0,0-1.12-.38,1.82,1.82,0,0,0-1.08.33,2.16,2.16,0,0,0-.72.86V113H51.28v-7.4Z" transform="translate(-16.68 -22.76)" style="fill: rgb(108, 141, 59); stroke: rgba(108, 141, 59, 0);"/>
        <path class="cls-10" d="M59.62,113v-6.42H58.45v-1h1.17v-.76a2.51,2.51,0,0,1,.64-1.84,2.4,2.4,0,0,1,1.8-.64,3.12,3.12,0,0,1,.86.11l-.06,1a3.85,3.85,0,0,0-.69-.06,1.23,1.23,0,0,0-1,.36,1.47,1.47,0,0,0-.33,1v.78h1.58v1H60.89V113Z" transform="translate(-16.68 -22.76)" style="fill: rgb(108, 141, 59); stroke: rgba(108, 141, 59, 0);"/>
        <path class="cls-10" d="M63.53,109.23a4.43,4.43,0,0,1,.42-2,3.14,3.14,0,0,1,2.93-1.81,3.13,3.13,0,0,1,2.45,1,4,4,0,0,1,.93,2.78v.09a4.49,4.49,0,0,1-.41,1.94,3.16,3.16,0,0,1-1.19,1.34,3.25,3.25,0,0,1-1.76.48,3.1,3.1,0,0,1-2.44-1,4,4,0,0,1-.93-2.77Zm1.27.15a3.19,3.19,0,0,0,.57,2,1.94,1.94,0,0,0,3.06,0,3.47,3.47,0,0,0,.56-2.12,3.18,3.18,0,0,0-.57-2,1.86,1.86,0,0,0-1.54-.76,1.81,1.81,0,0,0-1.51.75A3.46,3.46,0,0,0,64.8,109.38Z" transform="translate(-16.68 -22.76)" style="fill: rgb(108, 141, 59); stroke: rgba(108, 141, 59, 0);"/>
        <path class="cls-10" d="M75.42,106.74a4,4,0,0,0-.62,0,1.67,1.67,0,0,0-1.69,1.06V113H71.84v-7.4h1.24l0,.86a2,2,0,0,1,1.76-1,1.36,1.36,0,0,1,.56.09Z" transform="translate(-16.68 -22.76)" style="fill: rgb(108, 141, 59); stroke: rgba(108, 141, 59, 0);"/>
        <path class="cls-10" d="M77.77,105.6l0,.82a2.74,2.74,0,0,1,2.19-1,2.1,2.1,0,0,1,2.11,1.19,2.87,2.87,0,0,1,1-.87,3,3,0,0,1,1.4-.32c1.62,0,2.45.86,2.48,2.57v5H85.68v-4.88a1.71,1.71,0,0,0-.36-1.19,1.61,1.61,0,0,0-1.22-.39,1.68,1.68,0,0,0-1.17.42,1.71,1.71,0,0,0-.54,1.13V113H81.12v-4.85a1.41,1.41,0,0,0-1.58-1.61,1.69,1.69,0,0,0-1.7,1.06V113H76.58v-7.4Z" transform="translate(-16.68 -22.76)" style="fill: rgb(108, 141, 59); stroke: rgba(108, 141, 59, 0);"/>
        <path class="cls-10" d="M93.42,113a3,3,0,0,1-.18-.78,2.83,2.83,0,0,1-2.1.92,2.64,2.64,0,0,1-1.8-.62,2,2,0,0,1-.7-1.57,2.1,2.1,0,0,1,.88-1.8,4.17,4.17,0,0,1,2.47-.64h1.23v-.58a1.39,1.39,0,0,0-.4-1.05,1.58,1.58,0,0,0-1.16-.4,1.84,1.84,0,0,0-1.14.35,1,1,0,0,0-.46.82H88.79a1.77,1.77,0,0,1,.39-1.07,2.76,2.76,0,0,1,1.07-.81,3.59,3.59,0,0,1,1.48-.3,2.94,2.94,0,0,1,2,.63,2.32,2.32,0,0,1,.76,1.77v3.4a4,4,0,0,0,.26,1.62V113Zm-2.1-1a2.29,2.29,0,0,0,1.13-.31,1.91,1.91,0,0,0,.77-.8v-1.52h-1c-1.55,0-2.32.45-2.32,1.36a1.15,1.15,0,0,0,.39.93A1.57,1.57,0,0,0,91.32,112Z" transform="translate(-16.68 -22.76)" style="fill: rgb(108, 141, 59); stroke: rgba(108, 141, 59, 0);"/>
        <path class="cls-10" d="M99.43,112.1a1.79,1.79,0,0,0,1.19-.41,1.46,1.46,0,0,0,.56-1h1.19a2.25,2.25,0,0,1-.43,1.21,2.83,2.83,0,0,1-1.08.91,3.26,3.26,0,0,1-3.83-.66,4,4,0,0,1-.89-2.76v-.21a4.37,4.37,0,0,1,.4-1.92,3,3,0,0,1,1.13-1.31,3.25,3.25,0,0,1,1.76-.46,3,3,0,0,1,2.07.74,2.67,2.67,0,0,1,.87,1.94h-1.19a1.73,1.73,0,0,0-.55-1.18,1.66,1.66,0,0,0-1.2-.47,1.81,1.81,0,0,0-1.5.7,3.28,3.28,0,0,0-.53,2v.23a3.19,3.19,0,0,0,.53,2A1.77,1.77,0,0,0,99.43,112.1Zm.21,1-.08.36a1.1,1.1,0,0,1,1,1.18,1.23,1.23,0,0,1-.54,1.05,2.63,2.63,0,0,1-1.53.38l0-.73a1.76,1.76,0,0,0,.84-.17.56.56,0,0,0,.3-.5.5.5,0,0,0-.22-.45,2.32,2.32,0,0,0-.89-.2l.22-.92Z" transform="translate(-16.68 -22.76)" style="fill: rgb(108, 141, 59); stroke: rgba(108, 141, 59, 0);"/>
        <path class="cls-10" d="M103.46,109.23a4.3,4.3,0,0,1,.43-2,3.11,3.11,0,0,1,1.19-1.34,3.2,3.2,0,0,1,1.74-.47,3.1,3.1,0,0,1,2.44,1,4,4,0,0,1,.93,2.78v.09a4.35,4.35,0,0,1-.41,1.94,3.21,3.21,0,0,1-1.18,1.34,3.26,3.26,0,0,1-1.77.48,3.13,3.13,0,0,1-2.44-1,4,4,0,0,1-.93-2.77Zm5.74-6.51a1.68,1.68,0,0,1-.42,1.19,1.35,1.35,0,0,1-1,.46,1.45,1.45,0,0,1-.49-.07,2.15,2.15,0,0,1-.54-.28,2.48,2.48,0,0,0-.47-.25,1.16,1.16,0,0,0-.34,0,.61.61,0,0,0-.48.22.77.77,0,0,0-.2.55l-.85,0a1.76,1.76,0,0,1,.42-1.21,1.31,1.31,0,0,1,1-.48,1.18,1.18,0,0,1,.43.07,4.48,4.48,0,0,1,.52.27,3.05,3.05,0,0,0,.5.26,1.18,1.18,0,0,0,.39.06.62.62,0,0,0,.48-.23.84.84,0,0,0,.2-.54Zm-4.47,6.66a3.19,3.19,0,0,0,.57,2,1.94,1.94,0,0,0,3.06,0,3.47,3.47,0,0,0,.57-2.12,3.12,3.12,0,0,0-.58-2,1.83,1.83,0,0,0-1.53-.76,1.8,1.8,0,0,0-1.51.75A3.4,3.4,0,0,0,104.73,109.38Z" transform="translate(-16.68 -22.76)" style="fill: rgb(108, 141, 59); stroke: rgba(108, 141, 59, 0);"/>
        <path class="cls-10" d="M114.85,113.14a3.24,3.24,0,0,1-2.45-1,3.66,3.66,0,0,1-.94-2.64v-.24a4.41,4.41,0,0,1,.42-2,3.26,3.26,0,0,1,1.18-1.36,3,3,0,0,1,1.63-.48,2.74,2.74,0,0,1,2.24,1,4.07,4.07,0,0,1,.8,2.72v.52h-5a2.69,2.69,0,0,0,.64,1.77,2,2,0,0,0,1.56.67,2.22,2.22,0,0,0,1.13-.27,2.94,2.94,0,0,0,.82-.72l.77.6A3.11,3.11,0,0,1,114.85,113.14Zm-.16-6.64a1.67,1.67,0,0,0-1.28.56,2.73,2.73,0,0,0-.65,1.56h3.71v-.09A2.47,2.47,0,0,0,116,107,1.6,1.6,0,0,0,114.69,106.5Z" transform="translate(-16.68 -22.76)" style="fill: rgb(108, 141, 59); stroke: rgba(108, 141, 59, 0);"/>
        <path class="cls-10" d="M123.5,111a.93.93,0,0,0-.38-.8,3.8,3.8,0,0,0-1.35-.49,6,6,0,0,1-1.52-.49,2.18,2.18,0,0,1-.84-.68,1.66,1.66,0,0,1-.27-1,1.94,1.94,0,0,1,.77-1.54,3.48,3.48,0,0,1,4,0,2.05,2.05,0,0,1,.78,1.66h-1.27a1.16,1.16,0,0,0-.44-.9,1.68,1.68,0,0,0-1.11-.38,1.73,1.73,0,0,0-1.08.31.94.94,0,0,0-.39.78.76.76,0,0,0,.36.69,4.54,4.54,0,0,0,1.31.45,7,7,0,0,1,1.53.5,2.18,2.18,0,0,1,.87.71,1.74,1.74,0,0,1,.29,1,1.92,1.92,0,0,1-.79,1.59,3.34,3.34,0,0,1-2.06.6,3.7,3.7,0,0,1-1.57-.32,2.46,2.46,0,0,1-1.07-.88,2.08,2.08,0,0,1-.39-1.22h1.26a1.35,1.35,0,0,0,.51,1,2.37,2.37,0,0,0,2.41.08A.88.88,0,0,0,123.5,111Z" transform="translate(-16.68 -22.76)" style="fill: rgb(108, 141, 59); stroke: rgba(108, 141, 59, 0);"/>
        <path class="cls-10" d="M136.68,104.12h-3.2V113h-1.3v-8.88H129v-1.07h7.69Z" transform="translate(-16.68 -22.76)" style="fill: rgb(108, 141, 59); stroke: rgba(108, 141, 59, 0);"/>
        <path class="cls-10" d="M140.35,113.14a3.22,3.22,0,0,1-2.44-1,3.67,3.67,0,0,1-.95-2.64v-.24a4.41,4.41,0,0,1,.42-2,3.34,3.34,0,0,1,1.18-1.36,3,3,0,0,1,1.64-.48,2.74,2.74,0,0,1,2.24,1,4.12,4.12,0,0,1,.8,2.72v.52h-5a2.64,2.64,0,0,0,.64,1.77,2,2,0,0,0,1.55.67,2.24,2.24,0,0,0,1.14-.27,2.77,2.77,0,0,0,.81-.72l.77.6A3.11,3.11,0,0,1,140.35,113.14Zm-.15-6.64a1.71,1.71,0,0,0-1.29.56,2.72,2.72,0,0,0-.64,1.56H142v-.09a2.47,2.47,0,0,0-.51-1.5A1.62,1.62,0,0,0,140.2,106.5Zm.61-4h1.53l-1.83,2h-1Z" transform="translate(-16.68 -22.76)" style="fill: rgb(108, 141, 59); stroke: rgba(108, 141, 59, 0);"/>
        <path class="cls-10" d="M147.67,112.1a1.79,1.79,0,0,0,1.18-.41,1.39,1.39,0,0,0,.56-1h1.2a2.35,2.35,0,0,1-.44,1.21,2.83,2.83,0,0,1-1.08.91,3.25,3.25,0,0,1-3.82-.66,4,4,0,0,1-.9-2.76v-.21a4.51,4.51,0,0,1,.4-1.92,3,3,0,0,1,1.14-1.31,3.22,3.22,0,0,1,1.75-.46,3,3,0,0,1,2.07.74,2.68,2.68,0,0,1,.88,1.94h-1.2a1.72,1.72,0,0,0-.54-1.18,1.7,1.7,0,0,0-1.21-.47,1.77,1.77,0,0,0-1.49.7,3.28,3.28,0,0,0-.53,2v.23a3.12,3.12,0,0,0,.53,2A1.77,1.77,0,0,0,147.67,112.1Z" transform="translate(-16.68 -22.76)" style="fill: rgb(108, 141, 59); stroke: rgba(108, 141, 59, 0);"/>
        <path class="cls-10" d="M153.23,105.6l0,.93a2.68,2.68,0,0,1,2.21-1.06q2.34,0,2.37,2.64V113h-1.27v-4.9a1.68,1.68,0,0,0-.36-1.18,1.49,1.49,0,0,0-1.12-.38,1.82,1.82,0,0,0-1.08.33,2.27,2.27,0,0,0-.73.86V113H152v-7.4Z" transform="translate(-16.68 -22.76)" style="fill: rgb(108, 141, 59); stroke: rgba(108, 141, 59, 0);"/>
        <path class="cls-10" d="M159.76,103.64a.74.74,0,0,1,.19-.52.72.72,0,0,1,.56-.21.73.73,0,0,1,.56.21.79.79,0,0,1,.19.52.69.69,0,0,1-.75.72.72.72,0,0,1-.56-.21A.69.69,0,0,1,159.76,103.64Zm1.37,9.36h-1.27v-7.4h1.27Z" transform="translate(-16.68 -22.76)" style="fill: rgb(108, 141, 59); stroke: rgba(108, 141, 59, 0);"/>
        <path class="cls-10" d="M166.12,112.1a1.79,1.79,0,0,0,1.18-.41,1.39,1.39,0,0,0,.56-1h1.2a2.27,2.27,0,0,1-.44,1.21,2.83,2.83,0,0,1-1.08.91,3.25,3.25,0,0,1-3.82-.66,4,4,0,0,1-.9-2.76v-.21a4.51,4.51,0,0,1,.4-1.92,3,3,0,0,1,1.14-1.31,3.22,3.22,0,0,1,1.75-.46,3,3,0,0,1,2.07.74,2.68,2.68,0,0,1,.88,1.94h-1.2a1.72,1.72,0,0,0-.54-1.18,1.7,1.7,0,0,0-1.21-.47,1.77,1.77,0,0,0-1.49.7,3.28,3.28,0,0,0-.53,2v.23a3.12,3.12,0,0,0,.53,2A1.77,1.77,0,0,0,166.12,112.1Z" transform="translate(-16.68 -22.76)" style="fill: rgb(108, 141, 59); stroke: rgba(108, 141, 59, 0);"/>
        <path class="cls-10" d="M175.05,113a2.34,2.34,0,0,1-.18-.78,2.83,2.83,0,0,1-2.11.92,2.62,2.62,0,0,1-1.79-.62,2,2,0,0,1-.7-1.57,2.1,2.1,0,0,1,.88-1.8,4.17,4.17,0,0,1,2.47-.64h1.23v-.58a1.39,1.39,0,0,0-.4-1.05,1.59,1.59,0,0,0-1.17-.4,1.81,1.81,0,0,0-1.13.35,1,1,0,0,0-.46.82h-1.27a1.77,1.77,0,0,1,.39-1.07,2.69,2.69,0,0,1,1.07-.81,3.59,3.59,0,0,1,1.48-.3,2.94,2.94,0,0,1,2,.63,2.34,2.34,0,0,1,.75,1.77v3.4a4.21,4.21,0,0,0,.26,1.62V113Zm-2.1-1a2.32,2.32,0,0,0,1.13-.31,1.91,1.91,0,0,0,.77-.8v-1.52h-1c-1.55,0-2.33.45-2.33,1.36a1.16,1.16,0,0,0,.4.93A1.53,1.53,0,0,0,173,112Z" transform="translate(-16.68 -22.76)" style="fill: rgb(108, 141, 59); stroke: rgba(108, 141, 59, 0);"/>
        <path class="cls-10" d="M182.4,111a1,1,0,0,0-.38-.8,3.8,3.8,0,0,0-1.35-.49,6.26,6.26,0,0,1-1.53-.49,2.22,2.22,0,0,1-.83-.68,1.66,1.66,0,0,1-.27-1,1.94,1.94,0,0,1,.77-1.54,3.48,3.48,0,0,1,4,0,2.05,2.05,0,0,1,.78,1.66h-1.27a1.16,1.16,0,0,0-.44-.9,1.68,1.68,0,0,0-1.11-.38,1.71,1.71,0,0,0-1.08.31.94.94,0,0,0-.39.78.76.76,0,0,0,.36.69,4.54,4.54,0,0,0,1.31.45,7,7,0,0,1,1.53.5,2.26,2.26,0,0,1,.87.71,1.74,1.74,0,0,1,.29,1,1.9,1.9,0,0,1-.8,1.59,3.3,3.3,0,0,1-2.05.6,3.74,3.74,0,0,1-1.58-.32,2.59,2.59,0,0,1-1.07-.88,2.15,2.15,0,0,1-.38-1.22h1.26a1.35,1.35,0,0,0,.51,1,2.37,2.37,0,0,0,2.41.08A.88.88,0,0,0,182.4,111Z" transform="translate(-16.68 -22.76)" style="fill: rgb(108, 141, 59); stroke: rgba(108, 141, 59, 0);"/>
      </g>
    </g>
  </g>
  <g id="resIV_On" data-name="resIV On" transform="matrix(1, 0, 0, 1, -629.248962, 73.64418)">
    <g id="Group_14508" data-name="Group 14508">
      <g class="cls-9" style="isolation: isolate;">
        <path class="cls-11" d="M57.79,136a3.67,3.67,0,0,1-1.16,2.44,3.85,3.85,0,0,1-2.61.86A3.52,3.52,0,0,1,51.19,138a5.07,5.07,0,0,1-1.06-3.38v-1a5.54,5.54,0,0,1,.5-2.44,3.71,3.71,0,0,1,1.4-1.62,4,4,0,0,1,2.11-.56,3.61,3.61,0,0,1,2.54.89,3.66,3.66,0,0,1,1.11,2.45H56.47a2.84,2.84,0,0,0-.74-1.73,2.22,2.22,0,0,0-1.59-.54,2.37,2.37,0,0,0-2,.93,4.33,4.33,0,0,0-.71,2.65v1a4.33,4.33,0,0,0,.68,2.58,2.19,2.19,0,0,0,1.89,1,2.53,2.53,0,0,0,1.68-.49,2.72,2.72,0,0,0,.77-1.73Z" transform="translate(-16.68 -22.76)" style="fill: rgb(112, 112, 113); stroke: rgba(108, 141, 59, 0);"/>
        <path class="cls-11" d="M65.08,136.52H60.91l-.94,2.6H58.62l3.8-10h1.15l3.81,10H66Zm-3.77-1.08h3.38L63,130.79Z" transform="translate(-16.68 -22.76)" style="fill: rgb(112, 112, 113); stroke: rgba(108, 141, 59, 0);"/>
        <path class="cls-11" d="M74.71,130.24h-3.2v8.88h-1.3v-8.88H67v-1.07h7.7Z" transform="translate(-16.68 -22.76)" style="fill: rgb(112, 112, 113); stroke: rgba(108, 141, 59, 0);"/>
        <path class="cls-11" d="M81.81,134.52H77.5v3.53h5v1.07H76.19v-10h6.25v1.07H77.5v3.21h4.31Z" transform="translate(-16.68 -22.76)" style="fill: rgb(112, 112, 113); stroke: rgba(108, 141, 59, 0);"/>
        <path class="cls-11" d="M91.49,137.81a2.94,2.94,0,0,1-1.41,1.09,5.65,5.65,0,0,1-2.11.36,4.1,4.1,0,0,1-2.16-.57,3.86,3.86,0,0,1-1.46-1.63,5.65,5.65,0,0,1-.53-2.44v-.87a5.2,5.2,0,0,1,1.05-3.48A3.65,3.65,0,0,1,87.82,129a3.78,3.78,0,0,1,2.51.8,3.47,3.47,0,0,1,1.16,2.26H90.18a2.17,2.17,0,0,0-2.35-2,2.32,2.32,0,0,0-2,.93,4.59,4.59,0,0,0-.69,2.69v.81a4.26,4.26,0,0,0,.77,2.67,2.5,2.5,0,0,0,2.07,1,4.55,4.55,0,0,0,1.29-.16,2,2,0,0,0,.92-.55v-2.23H87.88v-1.08h3.61Z" transform="translate(-16.68 -22.76)" style="fill: rgb(112, 112, 113); stroke: rgba(108, 141, 59, 0);"/>
        <path class="cls-11" d="M101.34,134.46a6.32,6.32,0,0,1-.49,2.56,3.72,3.72,0,0,1-1.4,1.66,3.76,3.76,0,0,1-2.1.58,3.86,3.86,0,0,1-2.09-.58A3.75,3.75,0,0,1,93.85,137a5.84,5.84,0,0,1-.52-2.48v-.71a6.12,6.12,0,0,1,.5-2.54,3.81,3.81,0,0,1,1.41-1.69,3.89,3.89,0,0,1,2.09-.58,3.82,3.82,0,0,1,2.11.58,3.7,3.7,0,0,1,1.41,1.67,6.35,6.35,0,0,1,.49,2.56Zm-1.31-.64a4.52,4.52,0,0,0-.71-2.72,2.54,2.54,0,0,0-3.95,0,4.42,4.42,0,0,0-.73,2.63v.73a4.46,4.46,0,0,0,.72,2.7,2.53,2.53,0,0,0,4,.06,4.41,4.41,0,0,0,.72-2.66Z" transform="translate(-16.68 -22.76)" style="fill: rgb(112, 112, 113); stroke: rgba(108, 141, 59, 0);"/>
        <path class="cls-11" d="M107,135.09h-2.34v4H103.3v-10h3.29a3.89,3.89,0,0,1,2.59.76,2.75,2.75,0,0,1,.91,2.23,2.65,2.65,0,0,1-.51,1.62,2.93,2.93,0,0,1-1.39,1l2.33,4.23v.08h-1.4ZM104.62,134h2a2.25,2.25,0,0,0,1.55-.51,1.69,1.69,0,0,0,.58-1.35,1.83,1.83,0,0,0-.55-1.42,2.36,2.36,0,0,0-1.59-.5h-2Z" transform="translate(-16.68 -22.76)" style="fill: rgb(112, 112, 113); stroke: rgba(108, 141, 59, 0);"/>
        <path class="cls-11" d="M113.33,139.12H112v-10h1.31Z" transform="translate(-16.68 -22.76)" style="fill: rgb(112, 112, 113); stroke: rgba(108, 141, 59, 0);"/>
        <path class="cls-11" d="M121.35,136.52h-4.17l-.93,2.6h-1.36l3.8-10h1.15l3.81,10H122.3Zm-3.77-1.08H121l-1.69-4.65Z" transform="translate(-16.68 -22.76)" style="fill: rgb(112, 112, 113); stroke: rgba(108, 141, 59, 0);"/>
        <path class="cls-11" d="M136.1,139.12h-1.31l-5-7.67v7.67h-1.31v-10h1.31l5,7.7v-7.7h1.3Z" transform="translate(-16.68 -22.76)" style="fill: rgb(112, 112, 113); stroke: rgba(108, 141, 59, 0);"/>
        <path class="cls-11" d="M146.09,134.46a6.16,6.16,0,0,1-.49,2.56,3.7,3.7,0,0,1-1.39,1.66,3.82,3.82,0,0,1-2.11.58,3.71,3.71,0,0,1-3.5-2.23,6,6,0,0,1-.51-2.48v-.71a6,6,0,0,1,.5-2.54,3.81,3.81,0,0,1,1.41-1.69,4.09,4.09,0,0,1,4.2,0,3.74,3.74,0,0,1,1.4,1.67,6.19,6.19,0,0,1,.49,2.56Zm-1.3-.64a4.52,4.52,0,0,0-.71-2.72,2.35,2.35,0,0,0-2-.94,2.31,2.31,0,0,0-2,.94,4.42,4.42,0,0,0-.74,2.63v.73a4.46,4.46,0,0,0,.72,2.7,2.54,2.54,0,0,0,4,.06,4.55,4.55,0,0,0,.72-2.66Z" transform="translate(-16.68 -22.76)" style="fill: rgb(112, 112, 113); stroke: rgba(108, 141, 59, 0);"/>
        <path class="cls-11" d="M151.71,135.09h-2.34v4h-1.32v-10h3.3a3.92,3.92,0,0,1,2.59.76,2.77,2.77,0,0,1,.9,2.23,2.71,2.71,0,0,1-.5,1.62,3,3,0,0,1-1.4,1l2.34,4.23v.08h-1.41ZM149.37,134h2a2.29,2.29,0,0,0,1.56-.51,1.71,1.71,0,0,0,.57-1.35,1.8,1.8,0,0,0-.55-1.42,2.33,2.33,0,0,0-1.59-.5h-2Z" transform="translate(-16.68 -22.76)" style="fill: rgb(112, 112, 113); stroke: rgba(108, 141, 59, 0);"/>
        <path class="cls-11" d="M158.38,129.17l3.25,8.12,3.25-8.12h1.71v10h-1.32v-3.88l.13-4.18-3.27,8.06h-1l-3.26-8,.13,4.16v3.88h-1.31v-10Z" transform="translate(-16.68 -22.76)" style="fill: rgb(112, 112, 113); stroke: rgba(108, 141, 59, 0);"/>
        <path class="cls-11" d="M174.52,136.52h-4.17l-.93,2.6h-1.36l3.8-10H173l3.81,10h-1.35Zm-3.77-1.08h3.38l-1.69-4.65Z" transform="translate(-16.68 -22.76)" style="fill: rgb(112, 112, 113); stroke: rgba(108, 141, 59, 0);"/>
        <path class="cls-11" d="M177.92,138.46a.81.81,0,0,1,.2-.55.72.72,0,0,1,.58-.22.74.74,0,0,1,.59.22.81.81,0,0,1,.2.55.73.73,0,0,1-.2.52.74.74,0,0,1-.59.22.72.72,0,0,1-.58-.22A.73.73,0,0,1,177.92,138.46Zm0-6a.8.8,0,0,1,.19-.55.77.77,0,0,1,.59-.21.79.79,0,0,1,.59.21.81.81,0,0,1,.2.55.76.76,0,0,1-.2.53.79.79,0,0,1-.59.21.77.77,0,0,1-.59-.21A.75.75,0,0,1,177.93,132.42Z" transform="translate(-16.68 -22.76)" style="fill: rgb(112, 112, 113); stroke: rgba(108, 141, 59, 0);"/>
      </g>
      <g class="cls-9" style="isolation: isolate;">
        <path class="cls-12" d="M116.51,147.24h-3.2v8.88H112v-8.88h-3.19v-1.07h7.69Z" transform="translate(-16.68 -22.76)" style="fill: rgb(150, 180, 61); stroke: rgba(108, 141, 59, 0);"/>
        <path class="cls-12" d="M121.82,156.12h-1.27v-8.43l-2.55.94v-1.15l3.62-1.36h.2Z" transform="translate(-16.68 -22.76)" style="fill: rgb(150, 180, 61); stroke: rgba(108, 141, 59, 0);"/>
      </g>
      <g class="cls-9" style="isolation: isolate;">
        <path class="cls-11" d="M88.46,189.05h4.72v1.07h-6v-10h1.31Z" transform="translate(-16.68 -22.76)" style="fill: rgb(112, 112, 113); stroke: rgba(108, 141, 59, 0);"/>
        <path class="cls-11" d="M96.09,190.12H94.77v-10h1.32Z" transform="translate(-16.68 -22.76)" style="fill: rgb(112, 112, 113); stroke: rgba(108, 141, 59, 0);"/>
        <path class="cls-11" d="M105.83,188.81a2.94,2.94,0,0,1-1.41,1.09,5.65,5.65,0,0,1-2.11.36,4.1,4.1,0,0,1-2.16-.57,3.86,3.86,0,0,1-1.46-1.63,5.65,5.65,0,0,1-.53-2.44v-.87a5.2,5.2,0,0,1,1-3.48,3.65,3.65,0,0,1,3-1.24,3.78,3.78,0,0,1,2.51.8,3.42,3.42,0,0,1,1.16,2.26h-1.31a2.17,2.17,0,0,0-2.35-2,2.32,2.32,0,0,0-2,.93,4.59,4.59,0,0,0-.69,2.69v.81a4.26,4.26,0,0,0,.77,2.67,2.5,2.5,0,0,0,2.07,1,4.55,4.55,0,0,0,1.29-.16,2,2,0,0,0,.92-.55v-2.23h-2.3v-1.08h3.6Z" transform="translate(-16.68 -22.76)" style="fill: rgb(112, 112, 113); stroke: rgba(108, 141, 59, 0);"/>
        <path class="cls-11" d="M113.52,187.52h-4.17l-.94,2.6h-1.35l3.8-10H112l3.8,10h-1.34Zm-3.78-1.08h3.39l-1.7-4.65Z" transform="translate(-16.68 -22.76)" style="fill: rgb(112, 112, 113); stroke: rgba(108, 141, 59, 0);"/>
        <path class="cls-11" d="M124.4,187a3.67,3.67,0,0,1-1.16,2.44,3.85,3.85,0,0,1-2.61.86A3.52,3.52,0,0,1,117.8,189a5.07,5.07,0,0,1-1.06-3.38v-1a5.69,5.69,0,0,1,.49-2.44,3.73,3.73,0,0,1,1.41-1.62,4,4,0,0,1,2.1-.56,3.62,3.62,0,0,1,2.55.89,3.7,3.7,0,0,1,1.11,2.45h-1.32a2.84,2.84,0,0,0-.74-1.73,2.23,2.23,0,0,0-1.6-.54,2.36,2.36,0,0,0-2,.93,4.33,4.33,0,0,0-.71,2.65v1a4.41,4.41,0,0,0,.67,2.58,2.22,2.22,0,0,0,1.9,1,2.53,2.53,0,0,0,1.68-.49,2.77,2.77,0,0,0,.77-1.73Zm-3.34,3.22-.08.36a1.1,1.1,0,0,1,1,1.18,1.23,1.23,0,0,1-.54,1.05,2.62,2.62,0,0,1-1.53.39l0-.74a1.76,1.76,0,0,0,.84-.17.56.56,0,0,0,.3-.5.52.52,0,0,0-.22-.45,2.32,2.32,0,0,0-.89-.2l.22-.92Z" transform="translate(-16.68 -22.76)" style="fill: rgb(112, 112, 113); stroke: rgba(108, 141, 59, 0);"/>
        <path class="cls-11" d="M131.69,187.52h-4.17l-.94,2.6h-1.35l3.8-10h1.15l3.81,10h-1.35Zm.37-9.8a1.72,1.72,0,0,1-.42,1.2,1.38,1.38,0,0,1-1,.45,1.77,1.77,0,0,1-.49-.06,3.12,3.12,0,0,1-.53-.28,2.16,2.16,0,0,0-.48-.26,1.16,1.16,0,0,0-.34-.05.64.64,0,0,0-.48.22.79.79,0,0,0-.2.55l-.85-.05a1.78,1.78,0,0,1,.42-1.21,1.31,1.31,0,0,1,1-.48,1.43,1.43,0,0,1,.43.07,3.79,3.79,0,0,1,.52.27,3.05,3.05,0,0,0,.5.26,1.18,1.18,0,0,0,.39.06.62.62,0,0,0,.48-.23.84.84,0,0,0,.2-.54Zm-4.14,8.72h3.38l-1.7-4.65Z" transform="translate(-16.68 -22.76)" style="fill: rgb(112, 112, 113); stroke: rgba(108, 141, 59, 0);"/>
        <path class="cls-11" d="M142.91,185.46a6.15,6.15,0,0,1-.5,2.56,3.64,3.64,0,0,1-1.39,1.66,3.77,3.77,0,0,1-2.11.58,3.83,3.83,0,0,1-2.08-.58,3.75,3.75,0,0,1-1.41-1.65,5.84,5.84,0,0,1-.52-2.48v-.71a6.12,6.12,0,0,1,.5-2.54,3.81,3.81,0,0,1,1.41-1.69,3.89,3.89,0,0,1,2.09-.58,3.82,3.82,0,0,1,2.11.58,3.62,3.62,0,0,1,1.4,1.67,6.19,6.19,0,0,1,.5,2.56Zm-1.31-.64a4.52,4.52,0,0,0-.71-2.72,2.54,2.54,0,0,0-3.95,0,4.42,4.42,0,0,0-.73,2.63v.73a4.46,4.46,0,0,0,.72,2.7,2.53,2.53,0,0,0,3.95.06,4.41,4.41,0,0,0,.72-2.66Z" transform="translate(-16.68 -22.76)" style="fill: rgb(112, 112, 113); stroke: rgba(108, 141, 59, 0);"/>
      </g>
      <g class="cls-9" style="isolation: isolate;">
        <path class="cls-10" d="M91.2,198.24H88v8.88H86.69v-8.88H83.5v-1.07h7.7Z" transform="translate(-16.68 -22.76)" style="fill: rgb(108, 141, 59); stroke: rgba(108, 141, 59, 0);"/>
        <path class="cls-10" d="M96.32,203.09H94v4H92.67v-10H96a3.92,3.92,0,0,1,2.59.76,2.77,2.77,0,0,1,.9,2.23,2.64,2.64,0,0,1-.5,1.62,2.91,2.91,0,0,1-1.4,1L99.89,207v.08H98.48ZM94,202h2a2.29,2.29,0,0,0,1.56-.51,1.71,1.71,0,0,0,.57-1.35,1.8,1.8,0,0,0-.55-1.42,2.32,2.32,0,0,0-1.58-.5H94Z" transform="translate(-16.68 -22.76)" style="fill: rgb(108, 141, 59); stroke: rgba(108, 141, 59, 0);"/>
        <path class="cls-10" d="M102.7,207.12h-1.31v-10h1.31Z" transform="translate(-16.68 -22.76)" style="fill: rgb(108, 141, 59); stroke: rgba(108, 141, 59, 0);"/>
        <path class="cls-10" d="M110.59,202.72h-4.18v4.4H105.1v-10h6.17v1.07h-4.86v3.41h4.18Z" transform="translate(-16.68 -22.76)" style="fill: rgb(108, 141, 59); stroke: rgba(108, 141, 59, 0);"/>
        <path class="cls-10" d="M117.17,204.52H113l-.93,2.6h-1.36l3.8-10h1.15l3.81,10h-1.35Zm-3.77-1.08h3.38l-1.69-4.65Zm2.34-8.94h1.53l-1.83,2h-1Z" transform="translate(-16.68 -22.76)" style="fill: rgb(108, 141, 59); stroke: rgba(108, 141, 59, 0);"/>
        <path class="cls-10" d="M123.74,202.68a6.25,6.25,0,0,1-2.46-1.19,2.27,2.27,0,0,1-.76-1.75,2.39,2.39,0,0,1,.94-1.94,3.73,3.73,0,0,1,2.44-.77,4,4,0,0,1,1.83.4,3,3,0,0,1,1.24,1.09,2.75,2.75,0,0,1,.44,1.52h-1.32a1.83,1.83,0,0,0-.57-1.42,2.35,2.35,0,0,0-1.62-.52,2.45,2.45,0,0,0-1.52.43,1.44,1.44,0,0,0-.54,1.19,1.26,1.26,0,0,0,.52,1,5,5,0,0,0,1.75.77,8.13,8.13,0,0,1,2,.77,3,3,0,0,1,1,1,2.47,2.47,0,0,1,.34,1.32,2.33,2.33,0,0,1-.94,1.94,4.06,4.06,0,0,1-2.52.73,4.59,4.59,0,0,1-1.92-.4,3.24,3.24,0,0,1-1.37-1.07,2.66,2.66,0,0,1-.48-1.55h1.32a1.7,1.7,0,0,0,.67,1.42,2.77,2.77,0,0,0,1.78.52,2.6,2.6,0,0,0,1.59-.42,1.5,1.5,0,0,0,0-2.29A6,6,0,0,0,123.74,202.68Z" transform="translate(-16.68 -22.76)" style="fill: rgb(108, 141, 59); stroke: rgba(108, 141, 59, 0);"/>
        <path class="cls-10" d="M130.52,207.12h-1.31v-10h1.31Z" transform="translate(-16.68 -22.76)" style="fill: rgb(108, 141, 59); stroke: rgba(108, 141, 59, 0);"/>
        <path class="cls-10" d="M140.24,204a3.67,3.67,0,0,1-1.16,2.44,3.85,3.85,0,0,1-2.61.86,3.52,3.52,0,0,1-2.83-1.27,5.12,5.12,0,0,1-1.06-3.38v-1a5.69,5.69,0,0,1,.5-2.44,3.77,3.77,0,0,1,1.4-1.62,4,4,0,0,1,2.11-.56,3.61,3.61,0,0,1,2.54.89,3.66,3.66,0,0,1,1.11,2.45h-1.32a2.84,2.84,0,0,0-.74-1.73,2.22,2.22,0,0,0-1.59-.54,2.37,2.37,0,0,0-2,.93,4.33,4.33,0,0,0-.71,2.65v1a4.41,4.41,0,0,0,.68,2.58,2.19,2.19,0,0,0,1.89,1,2.53,2.53,0,0,0,1.68-.49,2.72,2.72,0,0,0,.77-1.73Z" transform="translate(-16.68 -22.76)" style="fill: rgb(108, 141, 59); stroke: rgba(108, 141, 59, 0);"/>
        <path class="cls-10" d="M147.53,204.52h-4.17l-.94,2.6h-1.35l3.8-10H146l3.81,10h-1.35Zm-3.77-1.08h3.38l-1.69-4.65Z" transform="translate(-16.68 -22.76)" style="fill: rgb(108, 141, 59); stroke: rgba(108, 141, 59, 0);"/>
      </g>
      <g class="cls-9" style="isolation: isolate;">
        <path class="cls-11" d="M60.78,238a3.72,3.72,0,0,1-1.17,2.44,3.82,3.82,0,0,1-2.61.86A3.5,3.5,0,0,1,54.18,240a5.07,5.07,0,0,1-1.07-3.38v-1a5.69,5.69,0,0,1,.5-2.44,3.77,3.77,0,0,1,1.4-1.62,4,4,0,0,1,2.11-.56,3.59,3.59,0,0,1,2.54.89,3.71,3.71,0,0,1,1.12,2.45H59.46a2.9,2.9,0,0,0-.75-1.73,2.22,2.22,0,0,0-1.59-.54,2.33,2.33,0,0,0-2,.93,4.26,4.26,0,0,0-.72,2.65v1a4.41,4.41,0,0,0,.68,2.58,2.19,2.19,0,0,0,1.89,1,2.53,2.53,0,0,0,1.68-.49,2.77,2.77,0,0,0,.78-1.73Z" transform="translate(-16.68 -22.76)" style="fill: rgb(112, 112, 113); stroke: rgba(108, 141, 59, 0);"/>
        <path class="cls-11" d="M68.06,238.52H63.89l-.93,2.6H61.6l3.8-10h1.15l3.81,10H69Zm-3.77-1.08h3.38L66,232.79Z" transform="translate(-16.68 -22.76)" style="fill: rgb(112, 112, 113); stroke: rgba(108, 141, 59, 0);"/>
        <path class="cls-11" d="M73.11,241.12H71.79v-10h1.32Z" transform="translate(-16.68 -22.76)" style="fill: rgb(112, 112, 113); stroke: rgba(108, 141, 59, 0);"/>
        <path class="cls-11" d="M78.87,235l2.39-3.81H82.8l-3.14,4.93,3.22,5H81.32l-2.45-3.88-2.46,3.88H74.86l3.22-5-3.15-4.93h1.54Z" transform="translate(-16.68 -22.76)" style="fill: rgb(112, 112, 113); stroke: rgba(108, 141, 59, 0);"/>
        <path class="cls-11" d="M89.9,238.52H85.73l-.94,2.6H83.44l3.8-10h1.15l3.8,10H90.85Zm-3.78-1.08h3.39l-1.7-4.65Z" transform="translate(-16.68 -22.76)" style="fill: rgb(112, 112, 113); stroke: rgba(108, 141, 59, 0);"/>
        <path class="cls-11" d="M97,241.12v-10h2.81a4.59,4.59,0,0,1,2.3.57,3.94,3.94,0,0,1,1.54,1.64,5.37,5.37,0,0,1,.55,2.43v.63a5.23,5.23,0,0,1-.55,2.47,3.82,3.82,0,0,1-1.55,1.63,4.78,4.78,0,0,1-2.35.58Zm1.31-8.88v7.81h1.38a3,3,0,0,0,2.36-1,3.86,3.86,0,0,0,.85-2.69v-.58a4,4,0,0,0-.8-2.64,2.85,2.85,0,0,0-2.26-.95Z" transform="translate(-16.68 -22.76)" style="fill: rgb(112, 112, 113); stroke: rgba(108, 141, 59, 0);"/>
        <path class="cls-11" d="M111.81,236.52h-4.32v3.53h5v1.07h-6.32v-10h6.25v1.07h-4.94v3.21h4.32Z" transform="translate(-16.68 -22.76)" style="fill: rgb(112, 112, 113); stroke: rgba(108, 141, 59, 0);"/>
        <path class="cls-11" d="M119.3,231.17l3.25,8.12,3.26-8.12h1.7v10H126.2v-3.88l.12-4.18-3.27,8.06h-1l-3.26-8,.13,4.16v3.88H117.6v-10Z" transform="translate(-16.68 -22.76)" style="fill: rgb(112, 112, 113); stroke: rgba(108, 141, 59, 0);"/>
        <path class="cls-11" d="M135.45,236.52h-4.31v3.53h5v1.07h-6.32v-10h6.25v1.07h-4.94v3.21h4.31Z" transform="translate(-16.68 -22.76)" style="fill: rgb(112, 112, 113); stroke: rgba(108, 141, 59, 0);"/>
        <path class="cls-11" d="M137.78,241.12v-10h2.81a4.56,4.56,0,0,1,2.3.57,3.88,3.88,0,0,1,1.54,1.64,5.24,5.24,0,0,1,.55,2.43v.63a5.35,5.35,0,0,1-.54,2.47,3.84,3.84,0,0,1-1.56,1.63,4.77,4.77,0,0,1-2.34.58Zm1.31-8.88v7.81h1.39a3,3,0,0,0,2.36-1,3.91,3.91,0,0,0,.84-2.69v-.58a3.93,3.93,0,0,0-.8-2.64,2.84,2.84,0,0,0-2.25-.95Z" transform="translate(-16.68 -22.76)" style="fill: rgb(112, 112, 113); stroke: rgba(108, 141, 59, 0);"/>
        <path class="cls-11" d="M148.37,241.12h-1.31v-10h1.31Z" transform="translate(-16.68 -22.76)" style="fill: rgb(112, 112, 113); stroke: rgba(108, 141, 59, 0);"/>
        <path class="cls-11" d="M158.09,238a3.67,3.67,0,0,1-1.16,2.44,3.85,3.85,0,0,1-2.61.86,3.52,3.52,0,0,1-2.83-1.27,5.07,5.07,0,0,1-1.06-3.38v-1a5.69,5.69,0,0,1,.49-2.44,3.73,3.73,0,0,1,1.41-1.62,4,4,0,0,1,2.1-.56,3.62,3.62,0,0,1,2.55.89,3.66,3.66,0,0,1,1.11,2.45h-1.32a2.84,2.84,0,0,0-.74-1.73,2.23,2.23,0,0,0-1.6-.54,2.36,2.36,0,0,0-2,.93,4.33,4.33,0,0,0-.71,2.65v1a4.41,4.41,0,0,0,.67,2.58,2.22,2.22,0,0,0,1.9,1,2.53,2.53,0,0,0,1.68-.49,2.77,2.77,0,0,0,.77-1.73Zm-3.34,3.22-.08.36a1.1,1.1,0,0,1,1,1.18,1.23,1.23,0,0,1-.54,1.05,2.62,2.62,0,0,1-1.53.39l0-.74a1.76,1.76,0,0,0,.84-.17.56.56,0,0,0,.3-.5.5.5,0,0,0-.22-.45,2.32,2.32,0,0,0-.89-.2l.22-.92Z" transform="translate(-16.68 -22.76)" style="fill: rgb(112, 112, 113); stroke: rgba(108, 141, 59, 0);"/>
        <path class="cls-11" d="M165.38,238.52h-4.17l-.94,2.6h-1.35l3.8-10h1.15l3.81,10h-1.35Zm.37-9.8a1.72,1.72,0,0,1-.42,1.2,1.38,1.38,0,0,1-1.05.45,1.77,1.77,0,0,1-.49-.06,3.12,3.12,0,0,1-.53-.28,2,2,0,0,0-.48-.26,1.16,1.16,0,0,0-.34-.05.64.64,0,0,0-.48.22.79.79,0,0,0-.2.55l-.84-.05a1.78,1.78,0,0,1,.41-1.21,1.31,1.31,0,0,1,1-.48,1.43,1.43,0,0,1,.43.07,3.79,3.79,0,0,1,.52.27,3.05,3.05,0,0,0,.5.26,1.23,1.23,0,0,0,.39.06.64.64,0,0,0,.49-.23.83.83,0,0,0,.19-.54Zm-4.14,8.72H165l-1.7-4.65Z" transform="translate(-16.68 -22.76)" style="fill: rgb(112, 112, 113); stroke: rgba(108, 141, 59, 0);"/>
        <path class="cls-11" d="M176.6,236.46a6.15,6.15,0,0,1-.5,2.56,3.64,3.64,0,0,1-1.39,1.66,3.77,3.77,0,0,1-2.11.58,3.85,3.85,0,0,1-2.08-.58,3.75,3.75,0,0,1-1.41-1.65,5.84,5.84,0,0,1-.52-2.48v-.71a6.12,6.12,0,0,1,.5-2.54,3.81,3.81,0,0,1,1.41-1.69,3.89,3.89,0,0,1,2.09-.58,3.82,3.82,0,0,1,2.11.58,3.62,3.62,0,0,1,1.4,1.67,6.19,6.19,0,0,1,.5,2.56Zm-1.31-.64a4.52,4.52,0,0,0-.71-2.72,2.54,2.54,0,0,0-4,0,4.42,4.42,0,0,0-.73,2.63v.73a4.46,4.46,0,0,0,.72,2.7,2.53,2.53,0,0,0,3.95.06,4.41,4.41,0,0,0,.72-2.66Z" transform="translate(-16.68 -22.76)" style="fill: rgb(112, 112, 113); stroke: rgba(108, 141, 59, 0);"/>
      </g>
      <g class="cls-9" style="isolation: isolate;">
        <path class="cls-10" d="M81.12,254.22v3.9H79.81v-10h3.67A3.72,3.72,0,0,1,86,249a2.83,2.83,0,0,1,.93,2.21,2.77,2.77,0,0,1-.91,2.23,3.85,3.85,0,0,1-2.59.78Zm0-1.07h2.36a2.3,2.3,0,0,0,1.61-.5,1.79,1.79,0,0,0,.56-1.43,1.88,1.88,0,0,0-.56-1.43,2.19,2.19,0,0,0-1.53-.55H81.12Z" transform="translate(-16.68 -22.76)" style="fill: rgb(108, 141, 59); stroke: rgba(108, 141, 59, 0);"/>
        <path class="cls-10" d="M96.3,253.46a6.32,6.32,0,0,1-.49,2.56,3.72,3.72,0,0,1-1.4,1.66,3.76,3.76,0,0,1-2.1.58,3.86,3.86,0,0,1-2.09-.58A3.82,3.82,0,0,1,88.81,256a5.84,5.84,0,0,1-.52-2.48v-.71a6.12,6.12,0,0,1,.5-2.54,3.94,3.94,0,0,1,1.41-1.69,3.89,3.89,0,0,1,2.09-.58,3.82,3.82,0,0,1,2.11.58,3.7,3.7,0,0,1,1.41,1.67,6.35,6.35,0,0,1,.49,2.56ZM95,252.82a4.45,4.45,0,0,0-.71-2.72,2.54,2.54,0,0,0-4,0,4.42,4.42,0,0,0-.73,2.63v.73a4.46,4.46,0,0,0,.72,2.7,2.53,2.53,0,0,0,4,.06,4.41,4.41,0,0,0,.72-2.66Z" transform="translate(-16.68 -22.76)" style="fill: rgb(108, 141, 59); stroke: rgba(108, 141, 59, 0);"/>
        <path class="cls-10" d="M99.59,257.05h4.71v1.07h-6v-10h1.32Z" transform="translate(-16.68 -22.76)" style="fill: rgb(108, 141, 59); stroke: rgba(108, 141, 59, 0);"/>
        <path class="cls-10" d="M107.21,258.12H105.9v-10h1.31Z" transform="translate(-16.68 -22.76)" style="fill: rgb(108, 141, 59); stroke: rgba(108, 141, 59, 0);"/>
        <path class="cls-10" d="M115.1,253.72h-4.18v4.4h-1.31v-10h6.16v1.07h-4.85v3.41h4.18Z" transform="translate(-16.68 -22.76)" style="fill: rgb(108, 141, 59); stroke: rgba(108, 141, 59, 0);"/>
        <path class="cls-10" d="M121.68,255.52h-4.17l-.94,2.6h-1.35l3.8-10h1.15l3.81,10h-1.35Zm-3.77-1.08h3.38l-1.69-4.65Zm2.33-8.94h1.54l-1.84,2h-1Z" transform="translate(-16.68 -22.76)" style="fill: rgb(108, 141, 59); stroke: rgba(108, 141, 59, 0);"/>
        <path class="cls-10" d="M128.25,253.68a6.11,6.11,0,0,1-2.46-1.19,2.28,2.28,0,0,1-.77-1.75,2.42,2.42,0,0,1,.94-1.94,3.76,3.76,0,0,1,2.45-.77,4,4,0,0,1,1.83.4,3,3,0,0,1,1.24,1.09,2.83,2.83,0,0,1,.44,1.52H130.6a1.83,1.83,0,0,0-.57-1.42,2.39,2.39,0,0,0-1.62-.52,2.43,2.43,0,0,0-1.52.43,1.44,1.44,0,0,0-.54,1.19,1.26,1.26,0,0,0,.52,1,4.92,4.92,0,0,0,1.75.77,7.86,7.86,0,0,1,1.94.77,2.91,2.91,0,0,1,1,1,2.47,2.47,0,0,1,.34,1.32,2.33,2.33,0,0,1-.94,1.94,4.07,4.07,0,0,1-2.53.73,4.54,4.54,0,0,1-1.91-.4,3.24,3.24,0,0,1-1.37-1.07,2.66,2.66,0,0,1-.48-1.55H126a1.71,1.71,0,0,0,.66,1.42,2.81,2.81,0,0,0,1.78.52,2.61,2.61,0,0,0,1.6-.42,1.5,1.5,0,0,0,0-2.29A6,6,0,0,0,128.25,253.68Z" transform="translate(-16.68 -22.76)" style="fill: rgb(108, 141, 59); stroke: rgba(108, 141, 59, 0);"/>
        <path class="cls-10" d="M135,258.12h-1.31v-10H135Z" transform="translate(-16.68 -22.76)" style="fill: rgb(108, 141, 59); stroke: rgba(108, 141, 59, 0);"/>
        <path class="cls-10" d="M144.75,255a3.67,3.67,0,0,1-1.16,2.44,3.85,3.85,0,0,1-2.61.86,3.52,3.52,0,0,1-2.83-1.27,5.07,5.07,0,0,1-1.06-3.38v-1a5.69,5.69,0,0,1,.49-2.44,3.73,3.73,0,0,1,1.41-1.62,4,4,0,0,1,2.1-.56,3.62,3.62,0,0,1,2.55.89,3.66,3.66,0,0,1,1.11,2.45h-1.32a2.84,2.84,0,0,0-.74-1.73,2.23,2.23,0,0,0-1.6-.54,2.36,2.36,0,0,0-2,.93,4.33,4.33,0,0,0-.71,2.65v1a4.41,4.41,0,0,0,.67,2.58,2.22,2.22,0,0,0,1.9.95,2.53,2.53,0,0,0,1.68-.49,2.77,2.77,0,0,0,.77-1.73Z" transform="translate(-16.68 -22.76)" style="fill: rgb(108, 141, 59); stroke: rgba(108, 141, 59, 0);"/>
        <path class="cls-10" d="M152,255.52h-4.17l-.94,2.6h-1.35l3.8-10h1.15l3.81,10H153Zm-3.77-1.08h3.38l-1.7-4.65Z" transform="translate(-16.68 -22.76)" style="fill: rgb(108, 141, 59); stroke: rgba(108, 141, 59, 0);"/>
      </g>
      <g class="cls-9" style="isolation: isolate;">
        <path class="cls-11" d="M80.6,292.12v-9.95h2.81a4.56,4.56,0,0,1,2.3.57,3.88,3.88,0,0,1,1.54,1.64,5.37,5.37,0,0,1,.55,2.43v.63a5.23,5.23,0,0,1-.55,2.47,3.76,3.76,0,0,1-1.55,1.63,4.78,4.78,0,0,1-2.35.58Zm1.31-8.88v7.81h1.38a3,3,0,0,0,2.37-.95,3.91,3.91,0,0,0,.84-2.69v-.58a4,4,0,0,0-.8-2.64,2.85,2.85,0,0,0-2.26-.95Z" transform="translate(-16.68 -22.76)" style="fill: rgb(112, 112, 113); stroke: rgba(108, 141, 59, 0);"/>
        <path class="cls-11" d="M91.19,292.12H89.88v-9.95h1.31Z" transform="translate(-16.68 -22.76)" style="fill: rgb(112, 112, 113); stroke: rgba(108, 141, 59, 0);"/>
        <path class="cls-11" d="M96.52,287.68a6.25,6.25,0,0,1-2.46-1.19,2.28,2.28,0,0,1-.77-1.75,2.42,2.42,0,0,1,.94-1.94,3.78,3.78,0,0,1,2.45-.77,4,4,0,0,1,1.83.4,3,3,0,0,1,1.24,1.09,2.83,2.83,0,0,1,.44,1.52H98.87a1.83,1.83,0,0,0-.57-1.42,2.35,2.35,0,0,0-1.62-.52,2.45,2.45,0,0,0-1.52.43,1.44,1.44,0,0,0-.54,1.19,1.26,1.26,0,0,0,.52,1,5,5,0,0,0,1.75.77,7.86,7.86,0,0,1,1.94.77,2.91,2.91,0,0,1,1,1,2.47,2.47,0,0,1,.34,1.32,2.33,2.33,0,0,1-.94,1.94,4.06,4.06,0,0,1-2.52.73,4.56,4.56,0,0,1-1.92-.4,3.24,3.24,0,0,1-1.37-1.07,2.66,2.66,0,0,1-.48-1.55H94.3a1.7,1.7,0,0,0,.67,1.42,2.77,2.77,0,0,0,1.78.52,2.6,2.6,0,0,0,1.59-.42,1.5,1.5,0,0,0,0-2.29A6,6,0,0,0,96.52,287.68Z" transform="translate(-16.68 -22.76)" style="fill: rgb(112, 112, 113); stroke: rgba(108, 141, 59, 0);"/>
        <path class="cls-11" d="M106.06,282.17h1.32v7a2.92,2.92,0,0,1-.85,2.24,3.22,3.22,0,0,1-2.29.81,3.31,3.31,0,0,1-2.31-.76,2.76,2.76,0,0,1-.83-2.13h1.31a1.64,1.64,0,0,0,1.83,1.81,1.75,1.75,0,0,0,1.31-.51,1.94,1.94,0,0,0,.51-1.43Z" transform="translate(-16.68 -22.76)" style="fill: rgb(112, 112, 113); stroke: rgba(108, 141, 59, 0);"/>
        <path class="cls-11" d="M116.63,282.17v6.76a3.2,3.2,0,0,1-.89,2.31,3.59,3.59,0,0,1-2.38,1l-.35,0a3.78,3.78,0,0,1-2.61-.88,3.19,3.19,0,0,1-1-2.43v-6.78h1.3v6.74a2.27,2.27,0,0,0,.59,1.67,2.3,2.3,0,0,0,1.7.6,2.07,2.07,0,0,0,2.3-2.27v-6.74Z" transform="translate(-16.68 -22.76)" style="fill: rgb(112, 112, 113); stroke: rgba(108, 141, 59, 0);"/>
        <path class="cls-11" d="M126.35,292.12H125l-5-7.67v7.67H118.7v-9.95H120l5,7.7v-7.7h1.31Z" transform="translate(-16.68 -22.76)" style="fill: rgb(112, 112, 113); stroke: rgba(108, 141, 59, 0);"/>
        <path class="cls-11" d="M135.36,283.24h-3.2v8.88h-1.31v-8.88h-3.19v-1.07h7.7Z" transform="translate(-16.68 -22.76)" style="fill: rgb(112, 112, 113); stroke: rgba(108, 141, 59, 0);"/>
        <path class="cls-11" d="M144.3,287.46a6.15,6.15,0,0,1-.5,2.56,3.64,3.64,0,0,1-1.39,1.66,3.77,3.77,0,0,1-2.11.58,3.85,3.85,0,0,1-2.08-.58,3.75,3.75,0,0,1-1.41-1.65,5.84,5.84,0,0,1-.52-2.48v-.71a6.12,6.12,0,0,1,.5-2.54,3.81,3.81,0,0,1,1.41-1.69,3.89,3.89,0,0,1,2.09-.58,3.82,3.82,0,0,1,2.11.58,3.62,3.62,0,0,1,1.4,1.67,6.19,6.19,0,0,1,.5,2.56Zm-1.31-.64a4.52,4.52,0,0,0-.71-2.72,2.54,2.54,0,0,0-3.95,0,4.42,4.42,0,0,0-.73,2.63v.73a4.46,4.46,0,0,0,.72,2.7,2.53,2.53,0,0,0,4,.06,4.41,4.41,0,0,0,.72-2.66Z" transform="translate(-16.68 -22.76)" style="fill: rgb(112, 112, 113); stroke: rgba(108, 141, 59, 0);"/>
        <path class="cls-11" d="M149.92,288.09h-2.34v4h-1.32v-9.95h3.29a3.89,3.89,0,0,1,2.59.76,2.75,2.75,0,0,1,.91,2.23,2.65,2.65,0,0,1-.51,1.62,2.93,2.93,0,0,1-1.39,1l2.33,4.23v.08h-1.4ZM147.58,287h2a2.25,2.25,0,0,0,1.55-.51,1.69,1.69,0,0,0,.58-1.35,1.83,1.83,0,0,0-.55-1.42,2.36,2.36,0,0,0-1.59-.5h-2Z" transform="translate(-16.68 -22.76)" style="fill: rgb(112, 112, 113); stroke: rgba(108, 141, 59, 0);"/>
      </g>
      <g class="cls-9" style="isolation: isolate;">
        <path class="cls-10" d="M108.22,299.16v1.07H108a3.33,3.33,0,0,0-2.35.88,3.64,3.64,0,0,0-1,2.38,2.71,2.71,0,0,1,2.15-.9,2.57,2.57,0,0,1,2.07.92,4,4,0,0,1-.06,4.82,2.88,2.88,0,0,1-2.24.93,2.84,2.84,0,0,1-2.32-1.1,4.36,4.36,0,0,1-.89-2.83v-.48a6.57,6.57,0,0,1,1.17-4.2,4.3,4.3,0,0,1,3.49-1.49Zm-1.66,4.48a2.13,2.13,0,0,0-2,1.37v.47a3.32,3.32,0,0,0,.55,2,1.67,1.67,0,0,0,1.39.75,1.62,1.62,0,0,0,1.34-.63,2.65,2.65,0,0,0,.49-1.65,2.6,2.6,0,0,0-.5-1.65A1.6,1.6,0,0,0,106.56,303.64Z" transform="translate(-16.68 -22.76)" style="fill: rgb(108, 141, 59); stroke: rgba(108, 141, 59, 0);"/>
        <path class="cls-10" d="M113,303.53h1a2.12,2.12,0,0,0,1.41-.47,1.6,1.6,0,0,0,.52-1.24,1.55,1.55,0,0,0-1.75-1.75,1.84,1.84,0,0,0-1.31.47,1.65,1.65,0,0,0-.49,1.24H111a2.56,2.56,0,0,1,.86-2,3.17,3.17,0,0,1,2.2-.78,3.1,3.1,0,0,1,2.21.75,2.68,2.68,0,0,1,.8,2.07,2.16,2.16,0,0,1-.42,1.25,2.48,2.48,0,0,1-1.15.91,2.45,2.45,0,0,1,1.27.87,2.37,2.37,0,0,1,.45,1.46,2.72,2.72,0,0,1-.87,2.13,3.28,3.28,0,0,1-2.28.79,3.37,3.37,0,0,1-2.28-.76,2.52,2.52,0,0,1-.88-2h1.27a1.61,1.61,0,0,0,.51,1.25,1.94,1.94,0,0,0,1.38.47,1.9,1.9,0,0,0,1.4-.47,1.87,1.87,0,0,0,.49-1.38,1.65,1.65,0,0,0-.54-1.33,2.32,2.32,0,0,0-1.54-.48h-1Z" transform="translate(-16.68 -22.76)" style="fill: rgb(108, 141, 59); stroke: rgba(108, 141, 59, 0);"/>
        <path class="cls-10" d="M128.27,306.52H124.1l-.94,2.6h-1.35l3.8-9.95h1.15l3.8,9.95h-1.34Zm-3.78-1.08h3.39l-1.7-4.65Z" transform="translate(-16.68 -22.76)" style="fill: rgb(108, 141, 59); stroke: rgba(108, 141, 59, 0);"/>
      </g>
      <g class="cls-9" style="isolation: isolate;">
        <path class="cls-11" d="M106.77,340a3.67,3.67,0,0,1-1.16,2.44,3.85,3.85,0,0,1-2.61.86,3.52,3.52,0,0,1-2.83-1.27,5.07,5.07,0,0,1-1.06-3.38v-1a5.69,5.69,0,0,1,.49-2.44,3.73,3.73,0,0,1,1.41-1.62,4,4,0,0,1,2.1-.56,3.62,3.62,0,0,1,2.55.89,3.66,3.66,0,0,1,1.11,2.45h-1.32a2.84,2.84,0,0,0-.74-1.73,2.23,2.23,0,0,0-1.6-.54,2.36,2.36,0,0,0-2,.93,4.33,4.33,0,0,0-.71,2.65v1a4.41,4.41,0,0,0,.67,2.58,2.22,2.22,0,0,0,1.9.95,2.53,2.53,0,0,0,1.68-.49,2.77,2.77,0,0,0,.77-1.73Z" transform="translate(-16.68 -22.76)" style="fill: rgb(112, 112, 113); stroke: rgba(108, 141, 59, 0);"/>
        <path class="cls-11" d="M114.06,340.52h-4.17l-.94,2.6H107.6l3.8-9.95h1.15l3.81,9.95H115Zm-3.77-1.08h3.38l-1.7-4.65Z" transform="translate(-16.68 -22.76)" style="fill: rgb(112, 112, 113); stroke: rgba(108, 141, 59, 0);"/>
        <path class="cls-11" d="M117.7,343.12v-9.95H121a3.78,3.78,0,0,1,2.44.67,2.4,2.4,0,0,1,.81,2,2,2,0,0,1-.39,1.23,2.57,2.57,0,0,1-1.08.83,2.32,2.32,0,0,1,1.27.86,2.49,2.49,0,0,1,.47,1.51,2.65,2.65,0,0,1-.87,2.1,3.55,3.55,0,0,1-2.45.77Zm1.31-5.71h2a2.09,2.09,0,0,0,1.38-.43,1.68,1.68,0,0,0,0-2.37,2.43,2.43,0,0,0-1.46-.37H119Zm0,1v3.59h2.16a2.06,2.06,0,0,0,1.45-.48,1.68,1.68,0,0,0,.53-1.31q0-1.8-2-1.8Z" transform="translate(-16.68 -22.76)" style="fill: rgb(112, 112, 113); stroke: rgba(108, 141, 59, 0);"/>
        <path class="cls-11" d="M134.07,338.46a6.32,6.32,0,0,1-.49,2.56,3.72,3.72,0,0,1-1.4,1.66,3.76,3.76,0,0,1-2.1.58,3.86,3.86,0,0,1-2.09-.58,3.75,3.75,0,0,1-1.41-1.65,5.84,5.84,0,0,1-.52-2.48v-.71a6.12,6.12,0,0,1,.5-2.54,3.81,3.81,0,0,1,1.41-1.69,3.89,3.89,0,0,1,2.09-.58,3.82,3.82,0,0,1,2.11.58,3.7,3.7,0,0,1,1.41,1.67,6.35,6.35,0,0,1,.49,2.56Zm-1.31-.64a4.52,4.52,0,0,0-.71-2.72,2.54,2.54,0,0,0-4,0,4.42,4.42,0,0,0-.73,2.63v.73a4.46,4.46,0,0,0,.72,2.7,2.53,2.53,0,0,0,3.95.06,4.41,4.41,0,0,0,.72-2.66Z" transform="translate(-16.68 -22.76)" style="fill: rgb(112, 112, 113); stroke: rgba(108, 141, 59, 0);"/>
      </g>
      <g class="cls-9" style="isolation: isolate;">
        <path class="cls-10" d="M63.14,360.12H61.87v-8.43l-2.55.94v-1.15l3.62-1.36h.2Z" transform="translate(-16.68 -22.76)" style="fill: rgb(108, 141, 59); stroke: rgba(108, 141, 59, 0);"/>
        <path class="cls-10" d="M71.81,350.16v1.07h-.24a3.32,3.32,0,0,0-2.35.88,3.64,3.64,0,0,0-1,2.38,2.7,2.7,0,0,1,2.15-.9,2.59,2.59,0,0,1,2.07.92,4,4,0,0,1-.06,4.82,2.88,2.88,0,0,1-2.25.93,2.83,2.83,0,0,1-2.31-1.1,4.3,4.3,0,0,1-.89-2.83v-.48a6.57,6.57,0,0,1,1.17-4.2,4.29,4.29,0,0,1,3.49-1.49Zm-1.67,4.48a2.13,2.13,0,0,0-2,1.37v.47a3.25,3.25,0,0,0,.55,2,1.66,1.66,0,0,0,1.38.75,1.62,1.62,0,0,0,1.35-.63,2.65,2.65,0,0,0,.49-1.65,2.6,2.6,0,0,0-.5-1.65A1.6,1.6,0,0,0,70.14,354.64Z" transform="translate(-16.68 -22.76)" style="fill: rgb(108, 141, 59); stroke: rgba(108, 141, 59, 0);"/>
        <path class="cls-10" d="M80.19,350.17l3.26,8.12,3.25-8.12h1.7v9.95H87.09v-3.88l.12-4.18L84,360.12h-1l-3.26-8,.13,4.16v3.88H78.5v-9.95Z" transform="translate(-16.68 -22.76)" style="fill: rgb(108, 141, 59); stroke: rgba(108, 141, 59, 0);"/>
        <path class="cls-10" d="M92.42,350.17l3.25,8.12,3.25-8.12h1.71v9.95H99.31v-3.88l.13-4.18-3.27,8.06h-1l-3.26-8,.13,4.16v3.88H90.72v-9.95Z" transform="translate(-16.68 -22.76)" style="fill: rgb(108, 141, 59); stroke: rgba(108, 141, 59, 0);"/>
        <path class="cls-10" d="M106.46,355.56h-4.1v-.74l2-1.93q.75-.69.75-1.17a.74.74,0,0,0-.22-.54.89.89,0,0,0-.63-.21,1,1,0,0,0-.76.26.92.92,0,0,0-.24.65h-1.07a1.62,1.62,0,0,1,.57-1.28,2.12,2.12,0,0,1,1.47-.51,2.18,2.18,0,0,1,1.43.44,1.45,1.45,0,0,1,.53,1.18,2.09,2.09,0,0,1-.73,1.44l-.58.54-1.2,1h2.73Z" transform="translate(-16.68 -22.76)" style="fill: rgb(108, 141, 59); stroke: rgba(108, 141, 59, 0);"/>
        <path class="cls-10" d="M111.54,360.12v-9.95h2.81a4.56,4.56,0,0,1,2.3.57,3.88,3.88,0,0,1,1.54,1.64,5.24,5.24,0,0,1,.55,2.43v.63a5.35,5.35,0,0,1-.54,2.47,3.87,3.87,0,0,1-1.55,1.63,4.84,4.84,0,0,1-2.35.58Zm1.31-8.88v7.81h1.39a3,3,0,0,0,2.36-.95,3.91,3.91,0,0,0,.84-2.69v-.58a4,4,0,0,0-.79-2.64,2.88,2.88,0,0,0-2.26-.95Z" transform="translate(-16.68 -22.76)" style="fill: rgb(108, 141, 59); stroke: rgba(108, 141, 59, 0);"/>
        <path class="cls-10" d="M126.35,355.52H122v3.53h5v1.07h-6.33v-9.95H127v1.07H122v3.21h4.31Z" transform="translate(-16.68 -22.76)" style="fill: rgb(108, 141, 59); stroke: rgba(108, 141, 59, 0);"/>
        <path class="cls-10" d="M139.47,357a3.68,3.68,0,0,1-1.17,2.44,3.82,3.82,0,0,1-2.61.86,3.52,3.52,0,0,1-2.82-1.27,5.07,5.07,0,0,1-1.07-3.38v-1a5.69,5.69,0,0,1,.5-2.44,3.73,3.73,0,0,1,1.41-1.62,3.92,3.92,0,0,1,2.1-.56,3.59,3.59,0,0,1,2.54.89,3.71,3.71,0,0,1,1.12,2.45h-1.32a2.9,2.9,0,0,0-.74-1.73,2.25,2.25,0,0,0-1.6-.54,2.33,2.33,0,0,0-2,.93,4.26,4.26,0,0,0-.72,2.65v1a4.41,4.41,0,0,0,.68,2.58,2.19,2.19,0,0,0,1.89.95,2.53,2.53,0,0,0,1.68-.49,2.77,2.77,0,0,0,.78-1.73Z" transform="translate(-16.68 -22.76)" style="fill: rgb(108, 141, 59); stroke: rgba(108, 141, 59, 0);"/>
        <path class="cls-10" d="M148.91,355.46a6.16,6.16,0,0,1-.49,2.56,3.7,3.7,0,0,1-1.39,1.66,4.07,4.07,0,0,1-4.19,0,3.75,3.75,0,0,1-1.41-1.65,5.84,5.84,0,0,1-.52-2.48v-.71a6.12,6.12,0,0,1,.5-2.54,3.81,3.81,0,0,1,1.41-1.69,3.89,3.89,0,0,1,2.09-.58,3.82,3.82,0,0,1,2.11.58,3.68,3.68,0,0,1,1.4,1.67,6.19,6.19,0,0,1,.49,2.56Zm-1.3-.64a4.52,4.52,0,0,0-.71-2.72,2.35,2.35,0,0,0-2-.94,2.32,2.32,0,0,0-2,.94,4.42,4.42,0,0,0-.74,2.63v.73a4.46,4.46,0,0,0,.73,2.7,2.53,2.53,0,0,0,3.95.06,4.41,4.41,0,0,0,.72-2.66Z" transform="translate(-16.68 -22.76)" style="fill: rgb(108, 141, 59); stroke: rgba(108, 141, 59, 0);"/>
        <path class="cls-10" d="M150.88,360.12v-9.95h3.26a3.73,3.73,0,0,1,2.43.67,2.38,2.38,0,0,1,.82,2,2,2,0,0,1-.4,1.23,2.46,2.46,0,0,1-1.08.83,2.31,2.31,0,0,1,1.28.86,2.49,2.49,0,0,1,.47,1.51,2.65,2.65,0,0,1-.87,2.1,3.55,3.55,0,0,1-2.45.77Zm1.32-5.71h2a2.09,2.09,0,0,0,1.38-.43,1.46,1.46,0,0,0,.51-1.17,1.43,1.43,0,0,0-.48-1.2,2.4,2.4,0,0,0-1.45-.37H152.2Zm0,1v3.59h2.16a2.08,2.08,0,0,0,1.45-.48,1.68,1.68,0,0,0,.53-1.31c0-1.2-.65-1.8-2-1.8Z" transform="translate(-16.68 -22.76)" style="fill: rgb(108, 141, 59); stroke: rgba(108, 141, 59, 0);"/>
        <path class="cls-10" d="M163.25,356.09h-2.34v4h-1.32v-9.95h3.3a3.87,3.87,0,0,1,2.58.76,2.75,2.75,0,0,1,.91,2.23,2.71,2.71,0,0,1-.5,1.62,3,3,0,0,1-1.4,1l2.34,4.23v.08h-1.41ZM160.91,355h2a2.25,2.25,0,0,0,1.55-.51,1.69,1.69,0,0,0,.58-1.35,1.8,1.8,0,0,0-.55-1.42,2.36,2.36,0,0,0-1.59-.5h-2Z" transform="translate(-16.68 -22.76)" style="fill: rgb(108, 141, 59); stroke: rgba(108, 141, 59, 0);"/>
        <path class="cls-10" d="M173.85,355.52h-4.32v3.53h5v1.07h-6.32v-9.95h6.25v1.07h-4.94v3.21h4.32Z" transform="translate(-16.68 -22.76)" style="fill: rgb(108, 141, 59); stroke: rgba(108, 141, 59, 0);"/>
      </g>
    </g>
  </g>
</svg>