<svg id="Layer_1" data-name="Layer 1" xmlns="http://www.w3.org/2000/svg" xmlns:xlink="http://www.w3.org/1999/xlink" viewBox="0 0 108.64 100.97"><defs><style>.cls-1{fill:none;}.cls-2,.cls-81,.cls-84{fill:#fff;}.cls-2{fill-opacity:0;}.cls-3{fill:#fefefe;}.cls-3,.cls-39{opacity:0.03;}.cls-10,.cls-11,.cls-12,.cls-13,.cls-14,.cls-15,.cls-16,.cls-17,.cls-18,.cls-19,.cls-20,.cls-21,.cls-22,.cls-23,.cls-24,.cls-25,.cls-26,.cls-27,.cls-28,.cls-29,.cls-3,.cls-30,.cls-31,.cls-32,.cls-33,.cls-34,.cls-39,.cls-4,.cls-40,.cls-41,.cls-42,.cls-43,.cls-44,.cls-45,.cls-46,.cls-47,.cls-48,.cls-49,.cls-5,.cls-50,.cls-51,.cls-52,.cls-53,.cls-54,.cls-55,.cls-56,.cls-57,.cls-58,.cls-59,.cls-6,.cls-60,.cls-61,.cls-62,.cls-63,.cls-64,.cls-65,.cls-66,.cls-67,.cls-68,.cls-69,.cls-7,.cls-70,.cls-8,.cls-9{isolation:isolate;}.cls-39,.cls-4{fill:#fcfcfc;}.cls-4,.cls-40{opacity:0.06;}.cls-5{fill:#fafafa;}.cls-41,.cls-5{opacity:0.09;}.cls-6{fill:#f8f8f8;}.cls-42,.cls-6{opacity:0.12;}.cls-7{fill:#f5f5f5;}.cls-43,.cls-7{opacity:0.15;}.cls-75,.cls-8{fill:#f2f2f2;}.cls-44,.cls-8{opacity:0.18;}.cls-9{fill:#efefef;}.cls-45,.cls-9{opacity:0.21;}.cls-10,.cls-73{fill:#ededed;}.cls-10,.cls-46{opacity:0.24;}.cls-11{fill:#eaeaea;}.cls-11,.cls-47{opacity:0.27;}.cls-12{fill:#e7e7e7;}.cls-12,.cls-48{opacity:0.3;}.cls-13,.cls-43{fill:#e4e4e4;}.cls-13,.cls-49{opacity:0.33;}.cls-14{fill:#e1e1e1;}.cls-14,.cls-50{opacity:0.36;}.cls-15,.cls-44{fill:#dedede;}.cls-15,.cls-51{opacity:0.39;}.cls-16{fill:#dcdcdc;}.cls-16,.cls-52{opacity:0.42;}.cls-17,.cls-45,.cls-77{fill:#d8d8d8;}.cls-17,.cls-53{opacity:0.46;}.cls-18{fill:#d4d4d4;}.cls-18,.cls-54{opacity:0.49;}.cls-19{fill:#d1d1d1;}.cls-19,.cls-55{opacity:0.51;}.cls-20{fill:#cecece;}.cls-20,.cls-56{opacity:0.55;}.cls-21{fill:#cacaca;}.cls-21,.cls-57{opacity:0.58;}.cls-22{fill:#c7c7c7;}.cls-22,.cls-58{opacity:0.61;}.cls-23,.cls-71{fill:#c4c4c4;}.cls-23,.cls-59{opacity:0.64;}.cls-24{fill:#c1c1c1;}.cls-24,.cls-60{opacity:0.67;}.cls-25{fill:#bdbdbd;}.cls-25,.cls-61{opacity:0.7;}.cls-26{fill:#bababa;}.cls-26,.cls-62{opacity:0.73;}.cls-27{fill:#b7b7b7;}.cls-27,.cls-63{opacity:0.76;}.cls-28,.cls-50{fill:#b4b4b4;}.cls-28,.cls-64{opacity:0.79;}.cls-29{fill:#aeaeae;}.cls-29,.cls-65{opacity:0.82;}.cls-30{fill:#aaa;}.cls-30,.cls-66{opacity:0.85;}.cls-31{fill:#a7a7a7;}.cls-31,.cls-67{opacity:0.88;}.cls-32,.cls-52{fill:#a4a4a4;}.cls-32,.cls-68{opacity:0.91;}.cls-33{fill:#9f9f9f;}.cls-33,.cls-69{opacity:0.94;}.cls-34,.cls-53{fill:#9b9b9b;}.cls-34,.cls-70{opacity:0.97;}.cls-35{fill:#979797;}.cls-36{fill:#9d9d9d;}.cls-37{fill:url(#linear-gradient);}.cls-38{clip-path:url(#clip-path);}.cls-40{fill:#f7f7f7;}.cls-41{fill:#f1f1f1;}.cls-42{fill:#ebebeb;}.cls-46{fill:#d0d0d0;}.cls-47{fill:#c9c9c9;}.cls-48{fill:#c2c2c2;}.cls-49{fill:#bbb;}.cls-51{fill:#adadad;}.cls-54{fill:#919191;}.cls-55{fill:#868686;}.cls-56{fill:#7a7a7a;}.cls-57{fill:#6d6d6d;}.cls-58{fill:#5f5f5f;}.cls-59{fill:#525252;}.cls-60{fill:#434343;}.cls-61{fill:#343434;}.cls-62,.cls-83{fill:#252525;}.cls-63{fill:#171717;}.cls-64{fill:#070707;}.cls-72{fill:#dfdfdf;}.cls-74{fill:#9e9e9e;}.cls-76{fill:#757575;}.cls-78{fill:#797979;}.cls-79{fill:#676767;}.cls-80{fill:#e2e2e2;}.cls-81,.cls-82{fill-rule:evenodd;}.cls-82,.cls-85{fill:#bcbcbc;}</style><linearGradient id="linear-gradient" x1="2.83" y1="785.69" x2="3.83" y2="785.69" gradientTransform="matrix(95.78, 0, 0, -36.95, -21.39, 29457.08)" gradientUnits="userSpaceOnUse"><stop offset="0" stop-color="#303030"/><stop offset="0.1" stop-color="#252525"/><stop offset="0.3" stop-color="#202020"/><stop offset="0.38" stop-color="#0b0b0b"/><stop offset="0.59"/><stop offset="0.74"/><stop offset="1"/></linearGradient><clipPath id="clip-path" transform="translate(-252.88 -344.48)"><path class="cls-1" d="M325.7,387.54c-19.6-11.36-39.84-11.39-59.47-.1h0c-9.81,5.64-14.73,11.39-14.74,17.14s4.89,11.51,14.69,17.19c19.59,11.35,39.83,11.39,59.46.1,9.82-5.65,14.73-11.39,14.74-17.14S335.5,393.21,325.7,387.54Z"/></clipPath></defs><g id="Group_10618" data-name="Group 10618"><g id="Group_9839" data-name="Group 9839"><g id="Group_9829" data-name="Group 9829"><path id="Path_7407" data-name="Path 7407" class="cls-2" d="M347.44,394.53c-18.77-10.83-38.14-10.83-56.9,0h0c-9.38,5.42-14.08,10.92-14.08,16.43s4.7,11,14.08,16.42c18.77,10.84,38.14,10.84,56.9,0,9.38-5.41,14.07-10.92,14.07-16.42S356.82,400,347.44,394.53Z" transform="translate(-252.88 -344.48)"/><path id="Path_7408" data-name="Path 7408" class="cls-3" d="M346.73,394.53c-18.77-10.83-38.14-10.83-56.9,0h0c-9.39,5.42-14.08,10.92-14.08,16.43s4.69,11,14.08,16.42c18.76,10.84,38.13,10.84,56.9,0C356.11,422,360.8,416.46,360.8,411S356.11,400,346.73,394.53Z" transform="translate(-252.88 -344.48)"/><path id="Path_7409" data-name="Path 7409" class="cls-4" d="M346,394.53c-18.77-10.83-38.13-10.83-56.9,0h0C279.73,400,275,405.45,275,411s4.69,11,14.07,16.42c18.77,10.84,38.14,10.84,56.9,0,9.38-5.41,14.08-10.92,14.08-16.42S355.39,400,346,394.53Z" transform="translate(-252.88 -344.48)"/><path id="Path_7410" data-name="Path 7410" class="cls-5" d="M345.3,394.53c-18.77-10.83-38.14-10.83-56.9,0h0C279,400,274.32,405.45,274.32,411s4.69,11,14.08,16.42c18.76,10.84,38.13,10.84,56.9,0,9.38-5.41,14.07-10.92,14.07-16.42S354.68,400,345.3,394.53Z" transform="translate(-252.88 -344.48)"/><path id="Path_7411" data-name="Path 7411" class="cls-6" d="M344.58,394.53c-18.76-10.83-38.13-10.83-56.9,0h0C278.3,400,273.61,405.45,273.61,411s4.69,11,14.07,16.42c18.77,10.84,38.14,10.84,56.9,0C354,422,358.66,416.46,358.66,411S354,400,344.58,394.53Z" transform="translate(-252.88 -344.48)"/><path id="Path_7412" data-name="Path 7412" class="cls-7" d="M343.87,394.53c-18.77-10.83-38.14-10.83-56.9,0h0c-9.39,5.42-14.08,10.92-14.08,16.43s4.69,11,14.08,16.42c18.76,10.84,38.13,10.84,56.9,0,9.38-5.41,14.07-10.92,14.07-16.42S353.25,400,343.87,394.53Z" transform="translate(-252.88 -344.48)"/><path id="Path_7413" data-name="Path 7413" class="cls-8" d="M343.15,394.53c-18.76-10.83-38.13-10.83-56.9,0h0c-9.38,5.42-14.07,10.92-14.07,16.43s4.69,11,14.07,16.42c18.77,10.84,38.14,10.84,56.9,0,9.39-5.41,14.08-10.92,14.08-16.42S352.54,400,343.15,394.53Z" transform="translate(-252.88 -344.48)"/><path id="Path_7414" data-name="Path 7414" class="cls-9" d="M342.44,394.53c-18.77-10.83-38.14-10.83-56.9,0h0c-9.39,5.42-14.08,10.92-14.08,16.43s4.69,11,14.08,16.42c18.77,10.84,38.13,10.84,56.9,0,9.38-5.41,14.07-10.92,14.07-16.42S351.82,400,342.44,394.53Z" transform="translate(-252.88 -344.48)"/><path id="Path_7415" data-name="Path 7415" class="cls-10" d="M341.72,394.53c-18.76-10.83-38.13-10.83-56.9,0h0c-9.38,5.42-14.07,10.92-14.07,16.43s4.69,11,14.07,16.42c18.77,10.84,38.14,10.84,56.9,0C351.11,422,355.8,416.46,355.8,411S351.11,400,341.72,394.53Z" transform="translate(-252.88 -344.48)"/><path id="Path_7416" data-name="Path 7416" class="cls-11" d="M341,394.53c-18.77-10.83-38.14-10.83-56.9,0h0C274.72,400,270,405.45,270,411s4.7,11,14.08,16.42c18.77,10.84,38.13,10.84,56.9,0,9.38-5.41,14.07-10.92,14.07-16.42S350.39,400,341,394.53Z" transform="translate(-252.88 -344.48)"/><path id="Path_7417" data-name="Path 7417" class="cls-12" d="M340.29,394.53c-18.76-10.83-38.13-10.83-56.9,0h0C274,400,269.32,405.45,269.32,411s4.69,11,14.07,16.42c18.77,10.84,38.14,10.84,56.9,0,9.39-5.41,14.08-10.92,14.08-16.42S349.68,400,340.29,394.53Z" transform="translate(-252.88 -344.48)"/><path id="Path_7418" data-name="Path 7418" class="cls-13" d="M339.58,394.53c-18.77-10.83-38.14-10.83-56.9,0h0C273.3,400,268.6,405.45,268.6,411s4.7,11,14.08,16.42c18.77,10.84,38.14,10.84,56.9,0C349,422,353.65,416.46,353.65,411S349,400,339.58,394.53Z" transform="translate(-252.88 -344.48)"/><path id="Path_7419" data-name="Path 7419" class="cls-14" d="M338.86,394.53c-18.76-10.83-38.13-10.83-56.9,0h0c-9.38,5.42-14.07,10.92-14.07,16.43s4.69,11,14.07,16.42c18.77,10.84,38.14,10.84,56.9,0,9.39-5.41,14.08-10.92,14.08-16.42S348.25,400,338.86,394.53Z" transform="translate(-252.88 -344.48)"/><path id="Path_7420" data-name="Path 7420" class="cls-15" d="M338.15,394.53c-18.77-10.83-38.13-10.83-56.9,0h0c-9.38,5.42-14.07,10.92-14.07,16.43s4.69,11,14.07,16.42c18.77,10.84,38.14,10.84,56.9,0,9.38-5.41,14.08-10.92,14.08-16.42S347.53,400,338.15,394.53Z" transform="translate(-252.88 -344.48)"/><path id="Path_7421" data-name="Path 7421" class="cls-16" d="M337.44,394.53c-18.77-10.83-38.14-10.83-56.9,0h0c-9.39,5.42-14.08,10.92-14.08,16.43s4.69,11,14.08,16.42c18.76,10.84,38.13,10.84,56.9,0,9.38-5.41,14.07-10.92,14.07-16.42S346.82,400,337.44,394.53Z" transform="translate(-252.88 -344.48)"/><path id="Path_7422" data-name="Path 7422" class="cls-17" d="M336.73,394.53c-18.77-10.83-38.14-10.83-56.9,0h0c-9.39,5.42-14.08,10.92-14.08,16.43s4.69,11,14.08,16.42c18.76,10.84,38.13,10.84,56.9,0C346.11,422,350.8,416.46,350.8,411S346.11,400,336.73,394.53Z" transform="translate(-252.88 -344.48)"/><path id="Path_7423" data-name="Path 7423" class="cls-18" d="M336,394.53c-18.77-10.83-38.14-10.83-56.9,0h0C269.72,400,265,405.45,265,411s4.69,11,14.08,16.42c18.76,10.84,38.13,10.84,56.9,0,9.38-5.41,14.07-10.92,14.07-16.42S345.39,400,336,394.53Z" transform="translate(-252.88 -344.48)"/><path id="Path_7424" data-name="Path 7424" class="cls-19" d="M335.29,394.53c-18.77-10.83-38.13-10.83-56.9,0h0C269,400,264.32,405.45,264.32,411s4.69,11,14.07,16.42c18.77,10.84,38.14,10.84,56.9,0,9.39-5.41,14.08-10.92,14.08-16.42S344.68,400,335.29,394.53Z" transform="translate(-252.88 -344.48)"/><path id="Path_7425" data-name="Path 7425" class="cls-20" d="M334.58,394.53c-18.77-10.83-38.14-10.83-56.9,0h0C268.29,400,263.6,405.45,263.6,411s4.69,11,14.08,16.42c18.77,10.84,38.13,10.84,56.9,0C344,422,348.65,416.46,348.65,411S344,400,334.58,394.53Z" transform="translate(-252.88 -344.48)"/><path id="Path_7426" data-name="Path 7426" class="cls-21" d="M333.86,394.53c-18.77-10.83-38.13-10.83-56.9,0h0c-9.38,5.42-14.07,10.92-14.07,16.43s4.69,11,14.07,16.42c18.77,10.84,38.14,10.84,56.9,0,9.39-5.41,14.08-10.92,14.08-16.42S343.25,400,333.86,394.53Z" transform="translate(-252.88 -344.48)"/><path id="Path_7427" data-name="Path 7427" class="cls-22" d="M333.15,394.53c-18.77-10.83-38.14-10.83-56.9,0h0c-9.39,5.42-14.08,10.92-14.08,16.43s4.7,11,14.08,16.42c18.77,10.84,38.13,10.84,56.9,0,9.38-5.41,14.07-10.92,14.07-16.42S342.53,400,333.15,394.53Z" transform="translate(-252.88 -344.48)"/><path id="Path_7428" data-name="Path 7428" class="cls-23" d="M332.43,394.53c-18.77-10.83-38.14-10.83-56.9,0h0c-9.38,5.42-14.07,10.92-14.07,16.43s4.69,11,14.07,16.42c18.77,10.84,38.14,10.84,56.9,0,9.38-5.41,14.08-10.92,14.08-16.42S341.82,400,332.43,394.53Z" transform="translate(-252.88 -344.48)"/><path id="Path_7429" data-name="Path 7429" class="cls-24" d="M331.72,394.53c-18.77-10.83-38.14-10.83-56.9,0h0c-9.38,5.42-14.08,10.92-14.08,16.43s4.7,11,14.08,16.42c18.77,10.84,38.13,10.84,56.9,0,9.38-5.41,14.07-10.92,14.07-16.42S341.1,400,331.72,394.53Z" transform="translate(-252.88 -344.48)"/><path id="Path_7430" data-name="Path 7430" class="cls-25" d="M331,394.53c-18.76-10.83-38.13-10.83-56.9,0h0C264.72,400,260,405.45,260,411s4.69,11,14.07,16.42c18.77,10.84,38.14,10.84,56.9,0,9.39-5.41,14.08-10.92,14.08-16.42S340.39,400,331,394.53Z" transform="translate(-252.88 -344.48)"/><path id="Path_7431" data-name="Path 7431" class="cls-26" d="M330.29,394.53c-18.77-10.83-38.14-10.83-56.9,0h0C264,400,259.31,405.45,259.31,411s4.7,11,14.08,16.42c18.77,10.84,38.14,10.84,56.9,0,9.38-5.41,14.07-10.92,14.07-16.42S339.67,400,330.29,394.53Z" transform="translate(-252.88 -344.48)"/><path id="Path_7432" data-name="Path 7432" class="cls-27" d="M329.58,394.53c-18.77-10.83-38.14-10.83-56.9,0h0C263.29,400,258.6,405.45,258.6,411s4.69,11,14.08,16.42c18.76,10.84,38.13,10.84,56.9,0C339,422,343.65,416.46,343.65,411S339,400,329.58,394.53Z" transform="translate(-252.88 -344.48)"/><path id="Path_7433" data-name="Path 7433" class="cls-28" d="M328.86,394.53c-18.77-10.83-38.13-10.83-56.9,0h0c-9.38,5.42-14.07,10.92-14.07,16.43s4.69,11,14.07,16.42c18.77,10.84,38.14,10.84,56.9,0,9.38-5.41,14.08-10.92,14.08-16.42S338.24,400,328.86,394.53Z" transform="translate(-252.88 -344.48)"/><path id="Path_7434" data-name="Path 7434" class="cls-29" d="M328.15,394.53c-18.77-10.83-38.14-10.83-56.9,0h0c-9.39,5.42-14.08,10.92-14.08,16.43s4.69,11,14.08,16.42c18.76,10.84,38.13,10.84,56.9,0,9.38-5.41,14.07-10.92,14.07-16.42S337.53,400,328.15,394.53Z" transform="translate(-252.88 -344.48)"/><path id="Path_7435" data-name="Path 7435" class="cls-30" d="M327.43,394.53c-18.77-10.83-38.13-10.83-56.9,0h0c-9.38,5.42-14.07,10.92-14.07,16.43s4.69,11,14.07,16.42c18.77,10.84,38.14,10.84,56.9,0,9.38-5.41,14.08-10.92,14.08-16.42S336.82,400,327.43,394.53Z" transform="translate(-252.88 -344.48)"/><path id="Path_7436" data-name="Path 7436" class="cls-31" d="M326.72,394.53c-18.77-10.83-38.14-10.83-56.9,0h0c-9.39,5.42-14.08,10.92-14.08,16.43s4.69,11,14.08,16.42c18.76,10.84,38.13,10.84,56.9,0,9.38-5.41,14.07-10.92,14.07-16.42S336.1,400,326.72,394.53Z" transform="translate(-252.88 -344.48)"/><path id="Path_7437" data-name="Path 7437" class="cls-32" d="M326,394.53c-18.77-10.83-38.13-10.83-56.9,0h0C259.72,400,255,405.45,255,411s4.69,11,14.07,16.42c18.77,10.84,38.14,10.84,56.9,0,9.39-5.41,14.08-10.92,14.08-16.42S335.39,400,326,394.53Z" transform="translate(-252.88 -344.48)"/><path id="Path_7438" data-name="Path 7438" class="cls-33" d="M325.29,394.53c-18.77-10.83-38.14-10.83-56.9,0h0C259,400,254.31,405.45,254.31,411s4.69,11,14.08,16.42c18.77,10.84,38.13,10.84,56.9,0,9.38-5.41,14.07-10.92,14.07-16.42S334.67,400,325.29,394.53Z" transform="translate(-252.88 -344.48)"/><path id="Path_7439" data-name="Path 7439" class="cls-34" d="M324.57,394.53c-18.76-10.83-38.13-10.83-56.9,0h0C258.29,400,253.6,405.45,253.6,411s4.69,11,14.07,16.42c18.77,10.84,38.14,10.84,56.9,0C334,422,338.65,416.46,338.65,411S334,400,324.57,394.53Z" transform="translate(-252.88 -344.48)"/><path id="Path_7440" data-name="Path 7440" class="cls-35" d="M323.86,394.53c-18.77-10.83-38.14-10.83-56.9,0h0c-9.38,5.42-14.08,10.92-14.08,16.43s4.7,11,14.08,16.42c18.77,10.84,38.13,10.84,56.9,0,9.38-5.41,14.07-10.92,14.07-16.42S333.24,400,323.86,394.53Z" transform="translate(-252.88 -344.48)"/></g><g id="Group_9830" data-name="Group 9830"><path id="Path_7441" data-name="Path 7441" class="cls-36" d="M332.82,399.36c-21.11-12.23-42.91-12.26-64.06-.1h0c-10.58,6.09-15.87,12.28-15.88,18.47s5.26,12.4,15.82,18.52c21.11,12.23,42.92,12.27,64.07.1,10.57-6.08,15.86-12.27,15.87-18.47S343.38,405.48,332.82,399.36Z" transform="translate(-252.88 -344.48)"/><path id="Path_7442" data-name="Path 7442" class="cls-37" d="M332.78,427.12c-21.15,12.17-43,12.13-64.07-.1-10.55-6.11-15.83-12.32-15.82-18.52v9.23c0,6.2,5.26,12.4,15.82,18.52,21.11,12.24,42.91,12.27,64.06.1,10.58-6.08,15.87-12.27,15.88-18.47l0-9.23C348.65,414.85,343.35,421,332.78,427.12Z" transform="translate(-252.88 -344.48)"/><path id="Path_7443" data-name="Path 7443" d="M332.84,390.14c-21.11-12.24-42.92-12.27-64.07-.1h0c-10.57,6.08-15.86,12.27-15.87,18.46s5.26,12.4,15.81,18.52c21.11,12.24,42.92,12.27,64.07.1,10.58-6.08,15.87-12.27,15.88-18.46S343.39,396.25,332.84,390.14Z" transform="translate(-252.88 -344.48)"/></g></g><g id="Group_10353" data-name="Group 10353"><g id="Group_9863" data-name="Group 9863"><g class="cls-38"><g id="Group_9862" data-name="Group 9862"><g id="Group_9861" data-name="Group 9861"><path id="Path_7611" data-name="Path 7611" class="cls-2" d="M322.64,389.44v0h0c-3.43,5.78-5.61,10.43-5.62,14.42v0c0,5.07,7.11,9.18,15.89,9.18,6,0,11.29-1.94,14-4.8a6.41,6.41,0,0,0,1.91-4.38h0v0c0-4-2.19-8.64-5.63-14.43v-4.63h0c3.44-5.78,5.62-10.44,5.63-14.42v0c0-5.07-7.12-9.18-15.9-9.18-6,0-11.28,1.94-14,4.8A6.4,6.4,0,0,0,317,370.4h0v0c0,4,2.19,8.64,5.63,14.42h0Z" transform="translate(-252.88 -344.48)"/><path id="Path_7612" data-name="Path 7612" class="cls-39" d="M321.52,389.44v0h0c-3.43,5.78-5.61,10.43-5.62,14.42v0c0,5.07,7.11,9.18,15.89,9.18,6,0,11.29-1.94,14-4.8a6.41,6.41,0,0,0,1.91-4.38h0v0c0-4-2.19-8.64-5.62-14.43v-4.63h0c3.43-5.78,5.61-10.44,5.62-14.42v0c0-5.07-7.11-9.18-15.89-9.18-6,0-11.29,1.94-14,4.8a6.4,6.4,0,0,0-1.92,4.38h0v0c0,4,2.19,8.64,5.63,14.42h0Z" transform="translate(-252.88 -344.48)"/><path id="Path_7613" data-name="Path 7613" class="cls-40" d="M320.4,389.44v0h0c-3.43,5.78-5.61,10.43-5.62,14.42v0c0,5.07,7.11,9.18,15.89,9.18,6,0,11.28-1.94,14-4.8a6.41,6.41,0,0,0,1.91-4.38h0v0c0-4-2.19-8.64-5.62-14.43v-4.63h0c3.43-5.78,5.61-10.44,5.62-14.42v0c0-5.07-7.11-9.18-15.89-9.18-6,0-11.29,1.94-14,4.8a6.4,6.4,0,0,0-1.92,4.38h0v0c0,4,2.19,8.64,5.63,14.42h0Z" transform="translate(-252.88 -344.48)"/><path id="Path_7614" data-name="Path 7614" class="cls-41" d="M319.28,389.44v0h0c-3.43,5.78-5.61,10.43-5.62,14.42v0c0,5.07,7.11,9.18,15.89,9.18,6,0,11.29-1.94,14-4.8a6.41,6.41,0,0,0,1.91-4.38h0v0c0-4-2.19-8.64-5.62-14.43v-4.63h0c3.43-5.78,5.61-10.44,5.62-14.42v0c0-5.07-7.12-9.18-15.89-9.18-6,0-11.29,1.94-14,4.8a6.4,6.4,0,0,0-1.92,4.38h0v0c0,4,2.19,8.64,5.63,14.42h0Z" transform="translate(-252.88 -344.48)"/><path id="Path_7615" data-name="Path 7615" class="cls-42" d="M318.16,389.44v0h0c-3.43,5.78-5.61,10.43-5.62,14.42v0c0,5.07,7.11,9.18,15.89,9.18,6,0,11.28-1.94,14-4.8a6.41,6.41,0,0,0,1.91-4.38h0v0c0-4-2.19-8.64-5.63-14.43v-4.63h0c3.44-5.78,5.62-10.44,5.63-14.42v0c0-5.07-7.12-9.18-15.89-9.18-6,0-11.29,1.94-14,4.8a6.4,6.4,0,0,0-1.92,4.38h0v0c0,4,2.19,8.64,5.63,14.42h0Z" transform="translate(-252.88 -344.48)"/><path id="Path_7616" data-name="Path 7616" class="cls-43" d="M317,389.44v0h0c-3.43,5.78-5.61,10.43-5.62,14.42v0c0,5.07,7.11,9.18,15.89,9.18,6,0,11.28-1.94,14-4.8a6.41,6.41,0,0,0,1.91-4.38h0v0c0-4-2.19-8.64-5.63-14.43v-4.63h0c3.44-5.78,5.62-10.44,5.63-14.42v0c0-5.07-7.12-9.18-15.89-9.18-6,0-11.29,1.94-14,4.8a6.4,6.4,0,0,0-1.92,4.38h0v0c0,4,2.19,8.64,5.63,14.42h0Z" transform="translate(-252.88 -344.48)"/><path id="Path_7617" data-name="Path 7617" class="cls-44" d="M315.92,389.44v0h0c-3.43,5.78-5.61,10.43-5.62,14.42v0c0,5.07,7.12,9.18,15.89,9.18,6,0,11.29-1.94,14-4.8a6.42,6.42,0,0,0,1.92-4.38h0v0c0-4-2.19-8.64-5.63-14.43v-4.63h0c3.44-5.78,5.62-10.44,5.63-14.42v0c0-5.07-7.12-9.18-15.89-9.18-6,0-11.29,1.94-14,4.8a6.4,6.4,0,0,0-1.92,4.38h0v0c0,4,2.19,8.64,5.63,14.42h0Z" transform="translate(-252.88 -344.48)"/><path id="Path_7618" data-name="Path 7618" class="cls-45" d="M314.8,389.44v0h0c-3.43,5.78-5.61,10.43-5.62,14.42v0c0,5.07,7.11,9.18,15.89,9.18,6,0,11.28-1.94,14-4.8a6.41,6.41,0,0,0,1.91-4.38h0v0c0-4-2.19-8.64-5.63-14.43v-4.63h0c3.44-5.78,5.62-10.44,5.63-14.42v0c0-5.07-7.12-9.18-15.89-9.18-6,0-11.29,1.94-14,4.8a6.4,6.4,0,0,0-1.92,4.38h0v0c0,4,2.19,8.64,5.63,14.42h0Z" transform="translate(-252.88 -344.48)"/><path id="Path_7619" data-name="Path 7619" class="cls-46" d="M313.68,389.44v0h0c-3.43,5.78-5.61,10.43-5.62,14.42v0c0,5.07,7.11,9.18,15.89,9.18,6,0,11.28-1.94,14-4.8a6.41,6.41,0,0,0,1.91-4.38h0v0c0-4-2.19-8.64-5.63-14.43v-4.63h0c3.44-5.78,5.62-10.44,5.63-14.42v0c0-5.07-7.12-9.18-15.89-9.18-6,0-11.29,1.94-14,4.8A6.4,6.4,0,0,0,308,370.4h0v0c0,4,2.19,8.64,5.63,14.42h0Z" transform="translate(-252.88 -344.48)"/><path id="Path_7620" data-name="Path 7620" class="cls-47" d="M312.56,389.44v0h0c-3.43,5.78-5.61,10.43-5.62,14.42v0c0,5.07,7.11,9.18,15.89,9.18,6,0,11.28-1.94,14-4.8a6.37,6.37,0,0,0,1.91-4.38h0v0c0-4-2.18-8.64-5.62-14.43v-4.63h0c3.44-5.78,5.62-10.44,5.62-14.42v0c0-5.07-7.11-9.18-15.89-9.18-6,0-11.28,1.94-14,4.8a6.4,6.4,0,0,0-1.92,4.38h0v0c0,4,2.19,8.64,5.62,14.42h0Z" transform="translate(-252.88 -344.48)"/><path id="Path_7621" data-name="Path 7621" class="cls-48" d="M311.44,389.44v0h0c-3.43,5.78-5.62,10.43-5.62,14.42v0c0,5.07,7.11,9.18,15.89,9.18,6,0,11.28-1.94,14-4.8a6.42,6.42,0,0,0,1.92-4.38h0v0c0-4-2.19-8.64-5.63-14.43v-4.63h0c3.44-5.78,5.62-10.44,5.63-14.42v0c0-5.07-7.12-9.18-15.89-9.18-6,0-11.29,1.94-14,4.8a6.4,6.4,0,0,0-1.92,4.38h0v0c0,4,2.19,8.64,5.63,14.42h0Z" transform="translate(-252.88 -344.48)"/><path id="Path_7622" data-name="Path 7622" class="cls-49" d="M310.32,389.44v0h0c-3.43,5.78-5.62,10.43-5.62,14.42v0c0,5.07,7.11,9.18,15.89,9.18,6,0,11.28-1.94,14-4.8a6.42,6.42,0,0,0,1.92-4.38h0v0c0-4-2.19-8.64-5.63-14.43v-4.63h0c3.44-5.78,5.62-10.44,5.63-14.42v0c0-5.07-7.12-9.18-15.89-9.18-6,0-11.29,1.94-14,4.8a6.4,6.4,0,0,0-1.92,4.38h0v0c0,4,2.19,8.64,5.63,14.42h0Z" transform="translate(-252.88 -344.48)"/><path id="Path_7623" data-name="Path 7623" class="cls-50" d="M309.2,389.44v0h0c-3.43,5.78-5.62,10.43-5.62,14.42v0c0,5.07,7.11,9.18,15.89,9.18,6,0,11.28-1.94,14-4.8a6.41,6.41,0,0,0,1.91-4.38h0v0c0-4-2.19-8.64-5.63-14.43v-4.63h0c3.44-5.78,5.62-10.44,5.63-14.42v0c0-5.07-7.12-9.18-15.89-9.18-6,0-11.29,1.94-14,4.8a6.4,6.4,0,0,0-1.92,4.38h0v0c0,4,2.19,8.64,5.63,14.42h0Z" transform="translate(-252.88 -344.48)"/><path id="Path_7624" data-name="Path 7624" class="cls-51" d="M308.08,389.44v0h0c-3.43,5.78-5.62,10.43-5.62,14.42v0c0,5.07,7.11,9.18,15.89,9.18,6,0,11.28-1.94,14-4.8a6.42,6.42,0,0,0,1.92-4.38h0v0c0-4-2.19-8.64-5.63-14.43v-4.63h0c3.44-5.78,5.62-10.44,5.63-14.42v0c0-5.07-7.12-9.18-15.9-9.18-6,0-11.28,1.94-14,4.8a6.4,6.4,0,0,0-1.92,4.38h0v0c0,4,2.19,8.64,5.62,14.42h0Z" transform="translate(-252.88 -344.48)"/><path id="Path_7625" data-name="Path 7625" class="cls-52" d="M307,389.44v0h0c-3.44,5.78-5.62,10.43-5.62,14.42v0c0,5.07,7.11,9.18,15.89,9.18,6,0,11.28-1.94,14-4.8a6.42,6.42,0,0,0,1.92-4.38h0v0c0-4-2.19-8.64-5.63-14.43v-4.63h0c3.44-5.78,5.62-10.44,5.63-14.42v0c0-5.07-7.12-9.18-15.9-9.18-6,0-11.28,1.94-14,4.8a6.4,6.4,0,0,0-1.92,4.38h0v0c0,4,2.19,8.64,5.63,14.42h0Z" transform="translate(-252.88 -344.48)"/><path id="Path_7626" data-name="Path 7626" class="cls-53" d="M305.84,389.44v0h0c-3.44,5.78-5.62,10.43-5.62,14.42v0c0,5.07,7.11,9.18,15.89,9.18,6,0,11.28-1.94,14-4.8a6.42,6.42,0,0,0,1.92-4.38h0v0c0-4-2.19-8.64-5.63-14.43v-4.63h0c3.44-5.78,5.62-10.44,5.63-14.42v0c0-5.07-7.12-9.18-15.9-9.18-6,0-11.28,1.94-14,4.8a6.4,6.4,0,0,0-1.92,4.38h0v0c0,4,2.19,8.64,5.63,14.42h0Z" transform="translate(-252.88 -344.48)"/><path id="Path_7627" data-name="Path 7627" class="cls-54" d="M304.72,389.44v0h0c-3.44,5.78-5.62,10.43-5.62,14.42v0c0,5.07,7.11,9.18,15.89,9.18,6,0,11.28-1.94,14-4.8a6.42,6.42,0,0,0,1.92-4.38h0v0c0-4-2.19-8.64-5.63-14.43v-4.63h0c3.44-5.78,5.62-10.44,5.63-14.42v0c0-5.07-7.12-9.18-15.9-9.18-6,0-11.28,1.94-14,4.8a6.4,6.4,0,0,0-1.92,4.38h0v0c0,4,2.19,8.64,5.63,14.42h0Z" transform="translate(-252.88 -344.48)"/><path id="Path_7628" data-name="Path 7628" class="cls-55" d="M303.6,389.44v0h0c-3.44,5.78-5.62,10.43-5.62,14.42v0c0,5.07,7.11,9.18,15.89,9.18,6,0,11.28-1.94,14-4.8a6.42,6.42,0,0,0,1.92-4.38h0v0c0-4-2.19-8.64-5.63-14.43v-4.63h0c3.44-5.78,5.62-10.44,5.63-14.42v0c0-5.07-7.12-9.18-15.9-9.18-6,0-11.28,1.94-14,4.8A6.4,6.4,0,0,0,298,370.4h0v0c0,4,2.19,8.64,5.63,14.42h0Z" transform="translate(-252.88 -344.48)"/><path id="Path_7629" data-name="Path 7629" class="cls-56" d="M302.48,389.44v0h0c-3.44,5.78-5.62,10.43-5.62,14.42v0c0,5.07,7.11,9.18,15.89,9.18,6,0,11.28-1.94,14-4.8a6.42,6.42,0,0,0,1.92-4.38h0v0c0-4-2.19-8.64-5.63-14.43v-4.63h0c3.44-5.78,5.62-10.44,5.63-14.42v0c0-5.07-7.12-9.18-15.9-9.18-6,0-11.28,1.94-14,4.8a6.4,6.4,0,0,0-1.92,4.38h0v0c0,4,2.19,8.64,5.63,14.42h0Z" transform="translate(-252.88 -344.48)"/><path id="Path_7630" data-name="Path 7630" class="cls-57" d="M301.36,389.44v0h0c-3.43,5.78-5.61,10.43-5.62,14.42v0c0,5.07,7.11,9.18,15.89,9.18,6,0,11.28-1.94,14-4.8a6.42,6.42,0,0,0,1.92-4.38h0v0c0-4-2.19-8.64-5.63-14.43v-4.63h0c3.44-5.78,5.62-10.44,5.63-14.42v0c0-5.07-7.12-9.18-15.9-9.18-6,0-11.28,1.94-14,4.8a6.4,6.4,0,0,0-1.92,4.38h0v0c0,4,2.19,8.64,5.63,14.42h0Z" transform="translate(-252.88 -344.48)"/><path id="Path_7631" data-name="Path 7631" class="cls-58" d="M300.24,389.44v0h0c-3.44,5.78-5.62,10.43-5.62,14.42v0c0,5.07,7.11,9.18,15.89,9.18,6,0,11.28-1.94,14-4.8a6.42,6.42,0,0,0,1.92-4.38h0v0c0-4-2.19-8.64-5.63-14.43v-4.63h0c3.44-5.78,5.62-10.44,5.63-14.42v0c0-5.07-7.12-9.18-15.9-9.18-6,0-11.28,1.94-14,4.8a6.4,6.4,0,0,0-1.92,4.38h0v0c0,4,2.19,8.64,5.63,14.42h0Z" transform="translate(-252.88 -344.48)"/><path id="Path_7632" data-name="Path 7632" class="cls-59" d="M299.12,389.44v0h0c-3.44,5.78-5.62,10.43-5.63,14.42v0c0,5.07,7.12,9.18,15.9,9.18,6,0,11.28-1.94,14-4.8a6.42,6.42,0,0,0,1.92-4.38h0v0c0-4-2.19-8.64-5.63-14.43v-4.63h0c3.44-5.78,5.62-10.44,5.63-14.42v0c0-5.07-7.12-9.18-15.9-9.18-6,0-11.28,1.94-14,4.8a6.4,6.4,0,0,0-1.92,4.38h0v0c0,4,2.19,8.64,5.63,14.42h0Z" transform="translate(-252.88 -344.48)"/><path id="Path_7633" data-name="Path 7633" class="cls-60" d="M298,389.44v0h0c-3.44,5.78-5.62,10.43-5.63,14.42v0c0,5.07,7.12,9.18,15.9,9.18,6,0,11.28-1.94,14-4.8a6.42,6.42,0,0,0,1.92-4.38h0v0c0-4-2.19-8.64-5.63-14.43v-4.63h0c3.44-5.78,5.62-10.44,5.63-14.42v0c0-5.07-7.12-9.18-15.9-9.18-6,0-11.28,1.94-14,4.8a6.4,6.4,0,0,0-1.92,4.38h0v0c0,4,2.19,8.64,5.62,14.42h0Z" transform="translate(-252.88 -344.48)"/><path id="Path_7634" data-name="Path 7634" class="cls-61" d="M296.88,389.44v0h0c-3.44,5.78-5.62,10.43-5.63,14.42v0c0,5.07,7.12,9.18,15.9,9.18,6,0,11.28-1.94,14-4.8a6.42,6.42,0,0,0,1.92-4.38h0v0c0-4-2.19-8.64-5.63-14.43v-4.63h0c3.44-5.78,5.62-10.44,5.63-14.42v0c0-5.07-7.12-9.18-15.9-9.18-6,0-11.28,1.94-14,4.8a6.4,6.4,0,0,0-1.92,4.38h0v0c0,4,2.19,8.64,5.63,14.42h0Z" transform="translate(-252.88 -344.48)"/><path id="Path_7635" data-name="Path 7635" class="cls-62" d="M295.76,389.44v0h0c-3.44,5.78-5.62,10.43-5.62,14.42v0c0,5.07,7.11,9.18,15.89,9.18,6,0,11.28-1.94,14-4.8a6.42,6.42,0,0,0,1.92-4.38h0v0c0-4-2.19-8.64-5.63-14.43v-4.63h0c3.44-5.78,5.62-10.44,5.63-14.42v0c0-5.07-7.12-9.18-15.9-9.18-6,0-11.28,1.94-14,4.8a6.4,6.4,0,0,0-1.92,4.38h0v0c0,4,2.19,8.64,5.63,14.42h0Z" transform="translate(-252.88 -344.48)"/><path id="Path_7636" data-name="Path 7636" class="cls-63" d="M294.64,389.44v0h0c-3.44,5.78-5.62,10.43-5.63,14.42v0c0,5.07,7.12,9.18,15.9,9.18,6,0,11.28-1.94,14-4.8a6.42,6.42,0,0,0,1.92-4.38h0v0c0-4-2.19-8.64-5.63-14.43v-4.63h0c3.44-5.78,5.62-10.44,5.63-14.42v0c0-5.07-7.12-9.18-15.9-9.18-6,0-11.28,1.94-14,4.8A6.4,6.4,0,0,0,289,370.4h0v0c0,4,2.19,8.64,5.63,14.42h0Z" transform="translate(-252.88 -344.48)"/><path id="Path_7637" data-name="Path 7637" class="cls-64" d="M293.52,389.44v0h0c-3.44,5.78-5.62,10.43-5.63,14.42v0c0,5.07,7.12,9.18,15.9,9.18,6,0,11.28-1.94,14-4.8a6.37,6.37,0,0,0,1.91-4.38h0v0c0-4-2.19-8.64-5.62-14.43v-4.63h0c3.43-5.78,5.62-10.44,5.62-14.42v0c0-5.07-7.11-9.18-15.89-9.18-6,0-11.28,1.94-14,4.8a6.36,6.36,0,0,0-1.92,4.38h0v0c0,4,2.19,8.64,5.62,14.42h0Z" transform="translate(-252.88 -344.48)"/><path id="Path_7638" data-name="Path 7638" class="cls-65" d="M292.4,389.44v0h0c-3.44,5.78-5.62,10.43-5.63,14.42v0c0,5.07,7.12,9.18,15.9,9.18,6,0,11.28-1.94,14-4.8a6.37,6.37,0,0,0,1.91-4.38h0v0c0-4-2.18-8.64-5.62-14.43v-4.63h0c3.44-5.78,5.62-10.44,5.63-14.42v0c0-5.07-7.12-9.18-15.9-9.18-6,0-11.28,1.94-14,4.8a6.4,6.4,0,0,0-1.92,4.38h0v0c0,4,2.19,8.64,5.62,14.42h0Z" transform="translate(-252.88 -344.48)"/><path id="Path_7639" data-name="Path 7639" class="cls-66" d="M291.28,389.44v0h0c-3.44,5.78-5.62,10.43-5.63,14.42v0c0,5.07,7.12,9.18,15.9,9.18,6,0,11.28-1.94,14-4.8a6.37,6.37,0,0,0,1.91-4.38h0v0c0-4-2.18-8.64-5.62-14.43v-4.63h0c3.44-5.78,5.62-10.44,5.63-14.42v0c0-5.07-7.12-9.18-15.9-9.18-6,0-11.28,1.94-14,4.8a6.4,6.4,0,0,0-1.92,4.38h0v0c0,4,2.19,8.64,5.62,14.42h0Z" transform="translate(-252.88 -344.48)"/><path id="Path_7640" data-name="Path 7640" class="cls-67" d="M290.15,389.44v0h0c-3.44,5.78-5.62,10.43-5.63,14.42v0c0,5.07,7.12,9.18,15.9,9.18,6,0,11.28-1.94,14-4.8a6.37,6.37,0,0,0,1.91-4.38h0v0c0-4-2.18-8.64-5.62-14.43v-4.63h0c3.44-5.78,5.62-10.44,5.62-14.42v0c0-5.07-7.11-9.18-15.89-9.18-6,0-11.28,1.94-14,4.8a6.4,6.4,0,0,0-1.92,4.38h0v0c0,4,2.19,8.64,5.62,14.42h0Z" transform="translate(-252.88 -344.48)"/><path id="Path_7641" data-name="Path 7641" class="cls-68" d="M289,389.44v0h0c-3.44,5.78-5.62,10.43-5.63,14.42v0c0,5.07,7.12,9.18,15.9,9.18,6,0,11.28-1.94,14-4.8a6.37,6.37,0,0,0,1.91-4.38h0v0c0-4-2.18-8.64-5.62-14.43v-4.63h0c3.44-5.78,5.62-10.44,5.62-14.42v0c0-5.07-7.11-9.18-15.89-9.18-6,0-11.28,1.94-14,4.8a6.4,6.4,0,0,0-1.92,4.38h0v0c0,4,2.19,8.64,5.62,14.42h0Z" transform="translate(-252.88 -344.48)"/><path id="Path_7642" data-name="Path 7642" class="cls-69" d="M287.91,389.44v0h0c-3.44,5.78-5.62,10.43-5.63,14.42v0c0,5.07,7.12,9.18,15.9,9.18,6,0,11.28-1.94,14-4.8a6.37,6.37,0,0,0,1.91-4.38h0v0c0-4-2.18-8.64-5.62-14.43v-4.63h0c3.44-5.78,5.62-10.44,5.62-14.42v0c0-5.07-7.11-9.18-15.89-9.18-6,0-11.28,1.94-14,4.8a6.4,6.4,0,0,0-1.92,4.38h0v0c0,4,2.19,8.64,5.62,14.42h0Z" transform="translate(-252.88 -344.48)"/><path id="Path_7643" data-name="Path 7643" class="cls-70" d="M286.79,389.44v0h0c-3.44,5.78-5.62,10.43-5.62,14.42v0c0,5.07,7.11,9.18,15.89,9.18,6,0,11.28-1.94,14-4.8a6.38,6.38,0,0,0,1.92-4.38h0v0c0-4-2.18-8.64-5.62-14.43v-4.63h0c3.44-5.78,5.62-10.44,5.62-14.42v0c0-5.07-7.11-9.18-15.89-9.18-6,0-11.28,1.94-14,4.8a6.4,6.4,0,0,0-1.92,4.38h0v0c0,4,2.19,8.64,5.62,14.42h0Z" transform="translate(-252.88 -344.48)"/><path id="Path_7644" data-name="Path 7644" d="M285.67,389.44v0h0c-3.44,5.78-5.62,10.43-5.63,14.42v0c0,5.07,7.12,9.18,15.9,9.18,6,0,11.28-1.94,14-4.8a6.37,6.37,0,0,0,1.91-4.38h0v0c0-4-2.18-8.64-5.62-14.43v-4.63h0c3.44-5.78,5.62-10.44,5.62-14.42v0c0-5.07-7.11-9.18-15.89-9.18-6,0-11.28,1.94-14,4.8A6.4,6.4,0,0,0,280,370.4h0v0c0,4,2.19,8.64,5.62,14.42h0Z" transform="translate(-252.88 -344.48)"/></g></g></g></g><g id="Group_9868" data-name="Group 9868"><g id="Group_9868-2" data-name="Group 9868-2"><path id="Path_7646" data-name="Path 7646" class="cls-71" d="M297.24,367.54a17.22,17.22,0,0,1,0,6.71,16.66,16.66,0,0,1-5.81,3.35v-6.71Z" transform="translate(-252.88 -344.48)"/><path id="Path_7647" data-name="Path 7647" class="cls-72" d="M293.61,377.18l4.35-2.51v-5Z" transform="translate(-252.88 -344.48)"/><path id="Path_7648" data-name="Path 7648" class="cls-72" d="M293.61,369.64l.72-.42-2.9,5v-.84l2.18-3.78Z" transform="translate(-252.88 -344.48)"/><path id="Path_7649" data-name="Path 7649" class="cls-73" d="M297.24,374.25c.3-.18.53,0,.72.42a12.52,12.52,0,0,1-5.81,3.35l-.72-.42Z" transform="translate(-252.88 -344.48)"/><path id="Path_7650" data-name="Path 7650" class="cls-74" d="M298,368a10.42,10.42,0,0,1,0,6.71l-.72-.42v-6.71Z" transform="translate(-252.88 -344.48)"/><path id="Path_7651" data-name="Path 7651" class="cls-71" d="M297.24,380.12a17.17,17.17,0,0,1,0,6.7,16.53,16.53,0,0,1-5.81,3.36v-6.71Z" transform="translate(-252.88 -344.48)"/><path id="Path_7652" data-name="Path 7652" class="cls-72" d="M293.61,389.76l4.35-2.52v-5Z" transform="translate(-252.88 -344.48)"/><path id="Path_7653" data-name="Path 7653" class="cls-72" d="M293.61,382.21l.72-.42-2.9,5V386l2.18-3.78Z" transform="translate(-252.88 -344.48)"/><path id="Path_7654" data-name="Path 7654" class="cls-73" d="M297.24,386.83c.3-.18.53,0,.72.41a12.46,12.46,0,0,1-5.81,3.36l-.72-.42Z" transform="translate(-252.88 -344.48)"/><path id="Path_7655" data-name="Path 7655" class="cls-74" d="M298,380.54a10.39,10.39,0,0,1,0,6.7l-.72-.42v-6.7Z" transform="translate(-252.88 -344.48)"/><path id="Path_7656" data-name="Path 7656" class="cls-71" d="M297.24,392.69a17.22,17.22,0,0,1,0,6.71,16.53,16.53,0,0,1-5.81,3.36v-6.71Z" transform="translate(-252.88 -344.48)"/><path id="Path_7657" data-name="Path 7657" class="cls-72" d="M293.61,402.34l4.35-2.52v-5Z" transform="translate(-252.88 -344.48)"/><path id="Path_7658" data-name="Path 7658" class="cls-72" d="M293.61,394.79l.72-.42-2.9,5v-.84l2.18-3.77Z" transform="translate(-252.88 -344.48)"/><path id="Path_7659" data-name="Path 7659" class="cls-73" d="M297.24,399.4c.3-.17.53,0,.72.42a12.46,12.46,0,0,1-5.81,3.36l-.72-.42,5.81-3.36Z" transform="translate(-252.88 -344.48)"/><path id="Path_7660" data-name="Path 7660" class="cls-74" d="M298,393.11a10.42,10.42,0,0,1,0,6.71l-.72-.42v-6.71Z" transform="translate(-252.88 -344.48)"/><path id="Path_7661" data-name="Path 7661" class="cls-75" d="M272.54,395.25a9.67,9.67,0,0,1,0,5.83c-.15.49-.38.64-.72.42a8.82,8.82,0,0,1,0-5.87l.72-.38Z" transform="translate(-252.88 -344.48)"/><path id="Path_7662" data-name="Path 7662" class="cls-76" d="M272.55,401.08v3.35l-.73.42a3.29,3.29,0,0,1,0-3.35Z" transform="translate(-252.88 -344.48)"/><path id="Path_7663" data-name="Path 7663" d="M278.36,398.56v9.23l-5.81-3.36v-9.22Z" transform="translate(-252.88 -344.48)"/><path id="Path_7664" data-name="Path 7664" class="cls-77" d="M274,401a.52.52,0,0,0-.19-.2.19.19,0,0,0-.19,0l-.37.21.39.66.36-.21a.17.17,0,0,0,.08-.17A.5.5,0,0,0,274,401Z" transform="translate(-252.88 -344.48)"/><path id="Path_7665" data-name="Path 7665" class="cls-78" d="M273.45,401a.16.16,0,0,0-.23,0,.18.18,0,0,0,0,.14.53.53,0,0,0,.08.27.61.61,0,0,0,.19.2.17.17,0,0,0,.24,0,.18.18,0,0,0,0-.14.61.61,0,0,0-.08-.27.64.64,0,0,0-.2-.2Z" transform="translate(-252.88 -344.48)"/><path id="Path_7666" data-name="Path 7666" class="cls-79" d="M275.45,367.54a17.22,17.22,0,0,0,0,6.71,16.57,16.57,0,0,0,5.81,3.35v-6.71Z" transform="translate(-252.88 -344.48)"/><path id="Path_7667" data-name="Path 7667" class="cls-71" d="M279.08,377.18l-4.36-2.51v-5Z" transform="translate(-252.88 -344.48)"/><path id="Path_7668" data-name="Path 7668" class="cls-71" d="M279.08,369.64l-.72-.42,2.9,5v-.84l-2.18-3.77Z" transform="translate(-252.88 -344.48)"/><path id="Path_7669" data-name="Path 7669" class="cls-80" d="M275.45,374.25c-.3-.18-.54,0-.73.42a12.62,12.62,0,0,0,5.81,3.35l.73-.42Z" transform="translate(-252.88 -344.48)"/><path id="Path_7670" data-name="Path 7670" class="cls-75" d="M274.72,368a10.42,10.42,0,0,0,0,6.71l.73-.42v-6.71Z" transform="translate(-252.88 -344.48)"/><path id="Path_7671" data-name="Path 7671" class="cls-79" d="M275.45,380.12a17.17,17.17,0,0,0,0,6.7,16.44,16.44,0,0,0,5.81,3.36v-6.71Z" transform="translate(-252.88 -344.48)"/><path id="Path_7672" data-name="Path 7672" class="cls-71" d="M279.08,389.76l-4.36-2.52v-5Z" transform="translate(-252.88 -344.48)"/><path id="Path_7673" data-name="Path 7673" class="cls-71" d="M279.08,382.21l-.72-.42,2.9,5V386l-2.18-3.78Z" transform="translate(-252.88 -344.48)"/><path id="Path_7674" data-name="Path 7674" class="cls-80" d="M275.45,386.83c-.3-.18-.54,0-.73.41a12.56,12.56,0,0,0,5.81,3.36l.73-.42Z" transform="translate(-252.88 -344.48)"/><path id="Path_7675" data-name="Path 7675" class="cls-75" d="M274.72,380.54a10.39,10.39,0,0,0,0,6.7l.73-.42v-6.7Z" transform="translate(-252.88 -344.48)"/><path id="Path_7676" data-name="Path 7676" class="cls-81" d="M286.34,373a39,39,0,0,1,8.72-15.09c3.45,0,6.32,1.8,8.71,5v36.9c-5.72,5.28-11.53,8.66-17.43,10.06-2.22-7.91-2.36-29.16,0-36.9Zm5.81,23.48,5.81-3.36v6.71l-5.81,3.36Zm0-12.58,5.81-3.35v6.7l-5.81,3.36Zm0-12.58L298,368v6.71L292.15,378Z" transform="translate(-252.88 -344.48)"/><path id="Path_7677" data-name="Path 7677" class="cls-76" d="M303.77,399.82v3.36l-17.43,10.06a2.27,2.27,0,0,1-.14-3.21l.14-.14,17.43-10.07Z" transform="translate(-252.88 -344.48)"/><path id="Path_7678" data-name="Path 7678" class="cls-82" d="M277.63,404.86c1.88,2.65,4.83,4.29,8.71,5V373l-17.42-10.06v36.9c.53,1.51,1.5,2.08,2.9,1.67v-5.86l5.81,3.35v5.87Zm2.9-21-5.81-3.35v6.71l5.81,3.35Zm0-12.57L274.72,368v6.71l5.81,3.35v-6.7Z" transform="translate(-252.88 -344.48)"/><path id="Path_7679" data-name="Path 7679" class="cls-83" d="M286.34,409.88v3.36l-8.71-5v-3.36Z" transform="translate(-252.88 -344.48)"/><path id="Path_7680" data-name="Path 7680" class="cls-83" d="M271.82,401.5v3.35l-2.9-1.67v-3.36l2.9,1.68Z" transform="translate(-252.88 -344.48)"/><path id="Path_7681" data-name="Path 7681" class="cls-76" d="M303.77,362.93l2.9-1.68-11.61-6.71c-6.55,5.82-10.37,12.54-11.62,20.13l2.9-1.68,8.72-15.09,8.71,5Z" transform="translate(-252.88 -344.48)"/><path id="Path_7682" data-name="Path 7682" class="cls-83" d="M277.63,344.48l17.43,10.06-11.62,20.13L266,364.6l11.62-20.12Z" transform="translate(-252.88 -344.48)"/><path id="Path_7683" data-name="Path 7683" d="M277.63,357.9a2.85,2.85,0,0,1,2.9,1.67l-1.45,2.52-2.9-1.68,1.45-2.52Z" transform="translate(-252.88 -344.48)"/><path id="Path_7684" data-name="Path 7684" class="cls-84" d="M283.44,351.19v3.35l-2.9,5a9,9,0,0,1,0-6.71A3.67,3.67,0,0,1,283.44,351.19Z" transform="translate(-252.88 -344.48)"/><path id="Path_7685" data-name="Path 7685" class="cls-85" d="M280.53,352.86v6.71l-2.9-1.67v-6.71A4.2,4.2,0,0,1,280.53,352.86Z" transform="translate(-252.88 -344.48)"/><path id="Path_7686" data-name="Path 7686" class="cls-73" d="M280.53,349.51l2.9,1.68-2.9,1.67-2.9-1.67Z" transform="translate(-252.88 -344.48)"/><path id="Path_7687" data-name="Path 7687" class="cls-85" d="M282,351.19l-1.46-.84a1.63,1.63,0,0,0,0,1.68Z" transform="translate(-252.88 -344.48)"/><path id="Path_7688" data-name="Path 7688" class="cls-84" d="M279.08,351.19l1.45-.84V352l-1.45-.84Z" transform="translate(-252.88 -344.48)"/></g></g><g id="Group_10314" data-name="Group 10314"><g id="Group_9868-3" data-name="Group 9868-3"><path id="Path_7646-2" data-name="Path 7646-2" class="cls-71" d="M316.06,379.3a17.22,17.22,0,0,1,0,6.71,16.69,16.69,0,0,1-5.81,3.36v-6.71Z" transform="translate(-252.88 -344.48)"/><path id="Path_7647-2" data-name="Path 7647-2" class="cls-72" d="M312.43,389l4.36-2.52v-5Z" transform="translate(-252.88 -344.48)"/><path id="Path_7648-2" data-name="Path 7648-2" class="cls-72" d="M312.43,381.4l.73-.42-2.9,5v-.84l2.17-3.77Z" transform="translate(-252.88 -344.48)"/><path id="Path_7649-2" data-name="Path 7649-2" class="cls-73" d="M316.06,386c.3-.17.54,0,.73.42a12.45,12.45,0,0,1-5.81,3.35l-.73-.42Z" transform="translate(-252.88 -344.48)"/><path id="Path_7650-2" data-name="Path 7650-2" class="cls-74" d="M316.79,379.72a10.42,10.42,0,0,1,0,6.71l-.73-.42V379.3Z" transform="translate(-252.88 -344.48)"/><path id="Path_7651-2" data-name="Path 7651-2" class="cls-71" d="M316.06,391.88a17.22,17.22,0,0,1,0,6.71,16.66,16.66,0,0,1-5.81,3.35v-6.71Z" transform="translate(-252.88 -344.48)"/><path id="Path_7652-2" data-name="Path 7652-2" class="cls-72" d="M312.43,401.52l4.36-2.51v-5Z" transform="translate(-252.88 -344.48)"/><path id="Path_7653-2" data-name="Path 7653-2" class="cls-72" d="M312.43,394l.73-.42-2.9,5v-.84l2.17-3.77Z" transform="translate(-252.88 -344.48)"/><path id="Path_7654-2" data-name="Path 7654-2" class="cls-73" d="M316.06,398.59c.3-.18.54,0,.73.42a12.45,12.45,0,0,1-5.81,3.35l-.73-.42Z" transform="translate(-252.88 -344.48)"/><path id="Path_7655-2" data-name="Path 7655-2" class="cls-74" d="M316.79,392.3a10.42,10.42,0,0,1,0,6.71l-.73-.42v-6.71Z" transform="translate(-252.88 -344.48)"/><path id="Path_7656-2" data-name="Path 7656-2" class="cls-71" d="M316.06,404.46a17.22,17.22,0,0,1,0,6.71,16.66,16.66,0,0,1-5.81,3.35v-6.71Z" transform="translate(-252.88 -344.48)"/><path id="Path_7657-2" data-name="Path 7657-2" class="cls-72" d="M312.43,414.1l4.36-2.51v-5Z" transform="translate(-252.88 -344.48)"/><path id="Path_7658-2" data-name="Path 7658-2" class="cls-72" d="M312.43,406.55l.73-.41-2.9,5v-.84l2.17-3.78Z" transform="translate(-252.88 -344.48)"/><path id="Path_7659-2" data-name="Path 7659-2" class="cls-73" d="M316.06,411.17c.3-.18.54,0,.73.42a12.54,12.54,0,0,1-5.81,3.35l-.73-.42,5.81-3.35Z" transform="translate(-252.88 -344.48)"/><path id="Path_7660-2" data-name="Path 7660-2" class="cls-74" d="M316.79,404.88a10.42,10.42,0,0,1,0,6.71l-.73-.42v-6.71Z" transform="translate(-252.88 -344.48)"/><path id="Path_7661-2" data-name="Path 7661-2" class="cls-75" d="M291.37,407a9.82,9.82,0,0,1,0,5.83c-.15.49-.39.64-.73.42a8.82,8.82,0,0,1,0-5.87l.73-.38Z" transform="translate(-252.88 -344.48)"/><path id="Path_7662-2" data-name="Path 7662-2" class="cls-76" d="M291.37,412.84v3.36l-.73.42a3.36,3.36,0,0,1,0-3.36Z" transform="translate(-252.88 -344.48)"/><path id="Path_7663-2" data-name="Path 7663-2" d="M297.18,410.33v9.22l-5.81-3.35V407Z" transform="translate(-252.88 -344.48)"/><path id="Path_7664-2" data-name="Path 7664-2" class="cls-77" d="M292.83,412.74a.52.52,0,0,0-.19-.2.19.19,0,0,0-.19,0l-.37.21.39.67.36-.21a.18.18,0,0,0,.08-.18.53.53,0,0,0-.08-.27Z" transform="translate(-252.88 -344.48)"/><path id="Path_7665-2" data-name="Path 7665-2" class="cls-78" d="M292.28,412.74a.17.17,0,0,0-.24,0,.18.18,0,0,0,0,.14.77.77,0,0,0,.08.27.64.64,0,0,0,.2.2.16.16,0,0,0,.23,0,.14.14,0,0,0,0-.14.5.5,0,0,0-.08-.26.52.52,0,0,0-.19-.2Z" transform="translate(-252.88 -344.48)"/><path id="Path_7666-2" data-name="Path 7666-2" class="cls-79" d="M294.27,379.3a17.22,17.22,0,0,0,0,6.71,16.69,16.69,0,0,0,5.81,3.36v-6.71Z" transform="translate(-252.88 -344.48)"/><path id="Path_7667-2" data-name="Path 7667-2" class="cls-71" d="M297.9,389l-4.35-2.52v-5Z" transform="translate(-252.88 -344.48)"/><path id="Path_7668-2" data-name="Path 7668-2" class="cls-71" d="M297.91,381.4l-.73-.42,2.9,5v-.84l-2.18-3.77Z" transform="translate(-252.88 -344.48)"/><path id="Path_7669-2" data-name="Path 7669-2" class="cls-80" d="M294.27,386c-.3-.17-.53,0-.72.42a12.36,12.36,0,0,0,5.81,3.35l.72-.42Z" transform="translate(-252.88 -344.48)"/><path id="Path_7670-2" data-name="Path 7670-2" class="cls-75" d="M293.55,379.72a10.42,10.42,0,0,0,0,6.71l.72-.42V379.3Z" transform="translate(-252.88 -344.48)"/><path id="Path_7671-2" data-name="Path 7671-2" class="cls-79" d="M294.27,391.88a17.22,17.22,0,0,0,0,6.71,16.66,16.66,0,0,0,5.81,3.35v-6.71Z" transform="translate(-252.88 -344.48)"/><path id="Path_7672-2" data-name="Path 7672-2" class="cls-71" d="M297.9,401.52,293.55,399v-5Z" transform="translate(-252.88 -344.48)"/><path id="Path_7673-2" data-name="Path 7673-2" class="cls-71" d="M297.91,394l-.73-.42,2.9,5v-.84L297.9,394Z" transform="translate(-252.88 -344.48)"/><path id="Path_7674-2" data-name="Path 7674-2" class="cls-80" d="M294.27,398.59c-.3-.18-.53,0-.72.42a12.36,12.36,0,0,0,5.81,3.35l.72-.42Z" transform="translate(-252.88 -344.48)"/><path id="Path_7675-2" data-name="Path 7675-2" class="cls-75" d="M293.55,392.3a10.42,10.42,0,0,0,0,6.71l.72-.42v-6.71Z" transform="translate(-252.88 -344.48)"/><path id="Path_7676-2" data-name="Path 7676-2" class="cls-81" d="M305.17,384.75a39.1,39.1,0,0,1,8.71-15.09c3.45,0,6.33,1.81,8.72,5v36.9c-5.73,5.28-11.53,8.67-17.43,10.06-2.23-7.91-2.36-29.16,0-36.89ZM311,408.23l5.81-3.35v6.71L311,414.94Zm0-12.58,5.81-3.35V399L311,402.36Zm0-12.57,5.81-3.36v6.71L311,389.78Z" transform="translate(-252.88 -344.48)"/><path id="Path_7677-2" data-name="Path 7677-2" class="cls-76" d="M322.6,411.59v3.35L305.17,425a2.27,2.27,0,0,1-.14-3.21l.14-.14,17.43-10.06Z" transform="translate(-252.88 -344.48)"/><path id="Path_7678-2" data-name="Path 7678-2" class="cls-82" d="M296.45,416.62c1.88,2.66,4.83,4.3,8.72,5v-36.9l-17.43-10.06v36.9c.53,1.51,1.5,2.09,2.9,1.68V407.4l5.81,3.35v5.87Zm2.9-21-5.81-3.36V399l5.81,3.36Zm0-12.58-5.81-3.35v6.7l5.81,3.36v-6.71Z" transform="translate(-252.88 -344.48)"/><path id="Path_7679-2" data-name="Path 7679-2" class="cls-83" d="M305.17,421.65V425l-8.72-5v-3.35Z" transform="translate(-252.88 -344.48)"/><path id="Path_7680-2" data-name="Path 7680-2" class="cls-83" d="M290.64,413.26v3.36l-2.9-1.68v-3.35l2.9,1.67Z" transform="translate(-252.88 -344.48)"/><path id="Path_7681-2" data-name="Path 7681-2" class="cls-76" d="M322.6,374.69l2.9-1.68-11.62-6.7c-6.55,5.81-10.36,12.54-11.62,20.12l2.9-1.68,8.72-15.09,8.71,5Z" transform="translate(-252.88 -344.48)"/><path id="Path_7682-2" data-name="Path 7682-2" class="cls-83" d="M296.45,356.24l17.43,10.07-11.62,20.12-17.43-10.06,11.62-20.13Z" transform="translate(-252.88 -344.48)"/><path id="Path_7683-2" data-name="Path 7683-2" d="M296.45,369.66a2.84,2.84,0,0,1,2.9,1.68l-1.45,2.51-2.9-1.68,1.45-2.51Z" transform="translate(-252.88 -344.48)"/><path id="Path_7684-2" data-name="Path 7684-2" class="cls-84" d="M302.26,363v3.36l-2.9,5a9,9,0,0,1,0-6.71A3.68,3.68,0,0,1,302.26,363Z" transform="translate(-252.88 -344.48)"/><path id="Path_7685-2" data-name="Path 7685-2" class="cls-85" d="M299.36,364.63v6.71l-2.9-1.68V363A4.22,4.22,0,0,1,299.36,364.63Z" transform="translate(-252.88 -344.48)"/><path id="Path_7686-2" data-name="Path 7686-2" class="cls-73" d="M299.36,361.27l2.9,1.68-2.9,1.68-2.9-1.68Z" transform="translate(-252.88 -344.48)"/><path id="Path_7687-2" data-name="Path 7687-2" class="cls-85" d="M300.81,363l-1.45-.84a1.59,1.59,0,0,0,0,1.68Z" transform="translate(-252.88 -344.48)"/><path id="Path_7688-2" data-name="Path 7688-2" class="cls-84" d="M297.91,363l1.45-.84v1.68l-1.45-.84Z" transform="translate(-252.88 -344.48)"/></g></g></g></g></svg>