<svg id="Layer_1" data-name="Layer 1" xmlns="http://www.w3.org/2000/svg" viewBox="0 0 24 24"><defs><style>.cls-1{fill:#00A443;}</style></defs><path class="cls-1" d="M17.55,13.67H13.8v-.2H10.27v.2H6.52A.8.8,0,0,1,5.75,13a7.11,7.11,0,0,1,0-2.06.8.8,0,0,1,.77-.64h3.75v.2H13.8v-.2h3.75a.8.8,0,0,1,.77.64,7.11,7.11,0,0,1,0,2.06A.8.8,0,0,1,17.55,13.67Zm-3.4-.35h3.4A.43.43,0,0,0,18,13a6.44,6.44,0,0,0,0-2,.43.43,0,0,0-.41-.34h-3.4v.2H9.92v-.2H6.52a.43.43,0,0,0-.41.34,6.44,6.44,0,0,0,0,2,.43.43,0,0,0,.41.34h3.4v-.2h4.23Z"/><path class="cls-1" d="M17.55,13.72h-3.8v-.2H10.33v.2H6.52A.83.83,0,0,1,5.71,13a6.6,6.6,0,0,1,0-2.08.83.83,0,0,1,.81-.68h3.81v.2h3.42v-.2h3.8a.85.85,0,0,1,.82.68,7.25,7.25,0,0,1,0,2.08A.85.85,0,0,1,17.55,13.72Zm-3.7-.1h3.7a.74.74,0,0,0,.72-.6,7,7,0,0,0,0-2,.74.74,0,0,0-.72-.6h-3.7v.2H10.23v-.2H6.52a.74.74,0,0,0-.72.6,7,7,0,0,0,0,2,.74.74,0,0,0,.72.6h3.71v-.2h3.62Zm3.7-.25H14.1v-.2H10v.2H6.52A.48.48,0,0,1,6.06,13a6.57,6.57,0,0,1,0-2,.48.48,0,0,1,.46-.38H10v.2H14.1v-.2h3.45A.48.48,0,0,1,18,11a6.57,6.57,0,0,1,0,2A.48.48,0,0,1,17.55,13.37Zm-3.35-.1h3.35a.4.4,0,0,0,.37-.3,7,7,0,0,0,0-1.94.4.4,0,0,0-.37-.3H14.2v.2H9.87v-.2H6.52a.38.38,0,0,0-.36.3,6.31,6.31,0,0,0,0,1.94.38.38,0,0,0,.36.3H9.87v-.2H14.2Z"/><rect class="cls-1" x="7.2" y="10.51" width="0.36" height="2.99"/><path class="cls-1" d="M7.6,13.54H7.15V10.46H7.6Zm-.35-.1H7.5V10.56H7.25Z"/><rect class="cls-1" x="13.17" y="10.61" width="0.36" height="2.79"/><path class="cls-1" d="M13.58,13.44h-.46V10.56h.46Zm-.36-.1h.26V10.66h-.26Z"/><rect class="cls-1" x="12.18" y="10.61" width="0.36" height="2.79"/><path class="cls-1" d="M12.58,13.44h-.45V10.56h.45Zm-.35-.1h.25V10.66h-.25Z"/><rect class="cls-1" x="9.92" y="10.51" width="0.36" height="2.99"/><path class="cls-1" d="M10.33,13.54H9.87V10.46h.46Zm-.36-.1h.26V10.56H10Z"/><rect class="cls-1" x="13.8" y="10.51" width="0.36" height="2.79"/><path class="cls-1" d="M14.2,13.34h-.45V10.46h.45Zm-.35-.09h.25V10.56h-.25Z"/><rect class="cls-1" x="0.96" y="11.82" width="4.9" height="0.36"/><path class="cls-1" d="M5.91,12.23h-5v-.46h5ZM1,12.13h4.8v-.26H1Z"/><rect class="cls-1" x="18.21" y="11.82" width="4.82" height="0.36"/><path class="cls-1" d="M23.09,12.23H18.17v-.46h4.92Zm-4.83-.1H23v-.26H18.26Z"/></svg>
