<svg id="ic-pony_hair" data-name="ic-pony hair" xmlns="http://www.w3.org/2000/svg" width="24" height="24" viewBox="0 0 24 24">
  <rect id="Retângulo_635" data-name="Retângulo 635" width="24" height="24" fill="none"/>
  <path id="icon-girl" d="M12.464,10.674a5.329,5.329,0,0,0,.517-.941,2.85,2.85,0,0,0,2.152.988h.575V5.143a3.939,3.939,0,0,0-3.9-3.97h-.344A5.116,5.116,0,0,0,8.208,0a5.252,5.252,0,0,0-5.2,5.293V7.639a5.33,5.33,0,0,0,.942,3.035A4.374,4.374,0,0,0,.5,14.973V20H15.916V14.973a4.374,4.374,0,0,0-3.453-4.3ZM6.639,12.685a5.114,5.114,0,0,0,3.138,0v.247a1.569,1.569,0,1,1-3.138,0Zm1.569-.925A4.089,4.089,0,0,1,4.161,7.639V6.327A5.4,5.4,0,0,0,6.231,5.1a5.339,5.339,0,0,0,4.881,2.092,5.331,5.331,0,0,0,1.144-.262v.706A4.089,4.089,0,0,1,8.208,11.76Zm6.35-6.617V9.448a1.761,1.761,0,0,1-1.153-1.659h0c0-.05,0-.1,0-.15V5.293A5.332,5.332,0,0,0,12.6,2.462a2.8,2.8,0,0,1,1.96,2.68ZM8.208,1.172a4.089,4.089,0,0,1,4.047,4.121v.381a4.186,4.186,0,0,1-1.274.357A4.23,4.23,0,0,1,6.8,3.874l-.418-.745L5.858,3.8A4.275,4.275,0,0,1,4.166,5.08,4.085,4.085,0,0,1,8.208,1.172Zm6.558,17.656H13.229V16.091H12.078v2.737H4.338V16.091H3.187v2.737H1.65V14.973a3.189,3.189,0,0,1,3.156-3.214h.143a5.255,5.255,0,0,0,.539.389v.785a2.72,2.72,0,1,0,5.439,0v-.785a5.255,5.255,0,0,0,.539-.389h.143a3.189,3.189,0,0,1,3.156,3.214Zm0,0" transform="translate(3.5 2)" fill="#698a48"/>
</svg>
