<svg xmlns="http://www.w3.org/2000/svg" width="5.931" height="12.85" viewBox="0 0 5.931 12.85">
  <path id="Caminho_10638" data-name="Caminho 10638" d="M228.86,42.413c.01,0,1.094-.029,1.094.988a.988.988,0,0,1-1.78.593.988.988,0,1,0-1.581,1.187,2.979,2.979,0,0,0,1.383,1.014v.666a.988.988,0,1,0,1.977,0V46.2a2.971,2.971,0,0,0-.743-5.761c-.01,0-1.234.113-1.234-.988a.988.988,0,0,1,1.78-.593.988.988,0,0,0,1.581-1.187,2.979,2.979,0,0,0-1.383-1.014v-.666a.988.988,0,1,0-1.977,0v.664a2.966,2.966,0,0,0,.883,5.761Z" transform="translate(-226 -35)" fill="#ef3d59"/>
</svg>
