<svg xmlns="http://www.w3.org/2000/svg" xmlns:xlink="http://www.w3.org/1999/xlink" width="477.168" height="339.686" viewBox="0 0 477.168 339.686">
  <defs>
    <linearGradient id="linear-gradient" y1="0.5" x2="1" y2="0.5" gradientUnits="objectBoundingBox">
      <stop offset="0" stop-color="#29323c"/>
      <stop offset="1" stop-color="#485563"/>
    </linearGradient>
    <linearGradient id="linear-gradient-2" y1="0.5" x2="1" y2="0.5" gradientUnits="objectBoundingBox">
      <stop offset="0" stop-color="#485563"/>
      <stop offset="1" stop-color="#29323c"/>
    </linearGradient>
    <linearGradient id="linear-gradient-3" y1="0.5" x2="1" y2="0.5" gradientUnits="objectBoundingBox">
      <stop offset="0" stop-color="#eea22f"/>
      <stop offset="1" stop-color="#e35e23"/>
    </linearGradient>
    <linearGradient id="linear-gradient-4" x1="-1.096" x2="2.096" xlink:href="#linear-gradient-2"/>
    <linearGradient id="linear-gradient-5" x1="0.5" y1="0.041" x2="0.5" y2="1.031" xlink:href="#linear-gradient-2"/>
    <linearGradient id="linear-gradient-8" x1="0.776" y1="1.738" x2="0.224" y2="-1.186" gradientUnits="objectBoundingBox">
      <stop offset="0" stop-color="#e35e23"/>
      <stop offset="1" stop-color="#eea22f"/>
    </linearGradient>
    <linearGradient id="linear-gradient-9" x1="0.752" y1="2.541" x2="0.248" y2="-2.204" xlink:href="#linear-gradient-8"/>
    <linearGradient id="linear-gradient-10" x1="0.369" y1="1.725" x2="0.631" y2="-0.724" gradientUnits="objectBoundingBox">
      <stop offset="0" stop-color="#ffca6e"/>
      <stop offset="0.344" stop-color="#fabe5b"/>
      <stop offset="1" stop-color="#eea22f"/>
    </linearGradient>
    <linearGradient id="linear-gradient-11" x1="0.754" y1="2.022" x2="0.246" y2="-1.022" xlink:href="#linear-gradient-8"/>
    <linearGradient id="linear-gradient-12" y1="0.5" x2="1" y2="0.5" gradientUnits="objectBoundingBox">
      <stop offset="0" stop-color="#f8e356"/>
      <stop offset="0.251" stop-color="#f6da50"/>
      <stop offset="0.641" stop-color="#f3c542"/>
      <stop offset="1" stop-color="#efab32"/>
    </linearGradient>
    <linearGradient id="linear-gradient-14" x1="0.752" y1="2.541" x2="0.248" y2="-2.204" xlink:href="#linear-gradient-8"/>
    <linearGradient id="linear-gradient-17" x1="0.776" y1="1.738" x2="0.224" y2="-1.186" xlink:href="#linear-gradient-8"/>
    <linearGradient id="linear-gradient-18" x1="0.752" y1="2.541" x2="0.248" y2="-2.204" xlink:href="#linear-gradient-8"/>
    <linearGradient id="linear-gradient-25" x1="0.754" y1="2.022" x2="0.246" y2="-1.022" xlink:href="#linear-gradient-8"/>
    <linearGradient id="linear-gradient-30" x1="0.754" y1="2.022" x2="0.246" y2="-1.022" xlink:href="#linear-gradient-8"/>
    <linearGradient id="linear-gradient-33" x1="0.752" y1="2.541" x2="0.248" y2="-2.204" xlink:href="#linear-gradient-8"/>
    <linearGradient id="linear-gradient-40" y1="0.5" x2="1" y2="0.5" gradientUnits="objectBoundingBox">
      <stop offset="0" stop-color="#6b73ff"/>
      <stop offset="1" stop-color="#000dff"/>
    </linearGradient>
    <linearGradient id="linear-gradient-44" x1="66.655" y1="4.388" x2="67.573" y2="4.388" gradientUnits="objectBoundingBox">
      <stop offset="0"/>
      <stop offset="1" stop-color="#4d4d4d"/>
    </linearGradient>
    <linearGradient id="linear-gradient-45" y1="0.5" x2="1" y2="0.5" gradientUnits="objectBoundingBox">
      <stop offset="0" stop-color="#4d4d4d"/>
      <stop offset="1"/>
    </linearGradient>
    <linearGradient id="linear-gradient-48" x1="0" y1="0.5" x2="1" y2="0.5" xlink:href="#linear-gradient-3"/>
    <linearGradient id="linear-gradient-50" y1="0.5" x2="1" y2="0.5" gradientUnits="objectBoundingBox">
      <stop offset="0" stop-color="#fff"/>
      <stop offset="1" stop-color="#dfe9f3"/>
    </linearGradient>
    <linearGradient id="linear-gradient-51" x1="-0.125" y1="0.978" x2="0.818" y2="0.978" gradientUnits="objectBoundingBox">
      <stop offset="0" stop-color="#c1e5f4"/>
      <stop offset="1" stop-color="#a3bee3"/>
    </linearGradient>
    <linearGradient id="linear-gradient-52" x1="0.173" y1="3.317" x2="1.326" y2="3.317" xlink:href="#linear-gradient-8"/>
    <linearGradient id="linear-gradient-53" x1="-0.845" y1="3.284" x2="0.227" y2="3.284" gradientUnits="objectBoundingBox">
      <stop offset="0" stop-color="#6b73ff"/>
      <stop offset="1" stop-color="#0792E5"/>
    </linearGradient>
    <linearGradient id="linear-gradient-56" x1="-9.355" y1="-2.302" x2="10.355" y2="-2.302" xlink:href="#linear-gradient-51"/>
    <linearGradient id="linear-gradient-57" x1="-10.867" y1="-1.646" x2="11.867" y2="-1.646" xlink:href="#linear-gradient-51"/>
    <linearGradient id="linear-gradient-58" x1="-11.39" y1="-1.321" x2="12.39" y2="-1.321" xlink:href="#linear-gradient-51"/>
    <linearGradient id="linear-gradient-59" x1="-12.087" y1="-1.159" x2="13.087" y2="-1.159" xlink:href="#linear-gradient-51"/>
    <linearGradient id="linear-gradient-60" x1="-12.675" y1="-0.856" x2="13.675" y2="-0.856" xlink:href="#linear-gradient-51"/>
    <linearGradient id="linear-gradient-61" x1="-11.547" y1="-0.652" x2="12.547" y2="-0.652" xlink:href="#linear-gradient-51"/>
    <linearGradient id="linear-gradient-62" x1="-13.201" y1="0.339" x2="14.201" y2="0.339" xlink:href="#linear-gradient-51"/>
    <linearGradient id="linear-gradient-63" x1="-12.539" y1="-0.179" x2="13.539" y2="-0.179" xlink:href="#linear-gradient-51"/>
    <linearGradient id="linear-gradient-64" x1="-13.062" y1="0.946" x2="14.062" y2="0.946" xlink:href="#linear-gradient-51"/>
    <linearGradient id="linear-gradient-65" x1="0" y1="0.5" x2="1" y2="0.5" xlink:href="#linear-gradient-3"/>
    <linearGradient id="linear-gradient-67" x1="45.028" y1="0.877" x2="46.077" y2="0.877" gradientUnits="objectBoundingBox">
      <stop offset="0" stop-color="#00A443"/>
      <stop offset="1" stop-color="#e35e23"/>
    </linearGradient>
    <linearGradient id="linear-gradient-68" x1="-32.811" y1="4.334" x2="-31.812" y2="4.334" gradientUnits="objectBoundingBox">
      <stop offset="0" stop-color="#00A443"/>
      <stop offset="1" stop-color="#799326"/>
    </linearGradient>
  </defs>
  <g id="Grupo_12529" data-name="Grupo 12529" transform="translate(-568.737 -494.543)">
    <path id="Caminho_10255" data-name="Caminho 10255" d="M812.559,744.427a5.916,5.916,0,0,1-1.964,4.087c-7.973,8.157-39.3,14.224-76.73,14.224-34.82,0-64.359-5.265-74.728-12.564-2.573-1.8-3.964-3.731-3.964-5.748,0-1.909,1.268-3.765,3.622-5.5,10.047-7.424,39.857-12.815,75.069-12.815,37.814,0,69.4,6.211,76.968,14.493A5.662,5.662,0,0,1,812.559,744.427Z" transform="translate(26.684 71.491)" fill="#c6daf2"/>
    <g id="Grupo_12481" data-name="Grupo 12481" transform="translate(663.382 494.543)">
      <rect id="Retângulo_17740" data-name="Retângulo 17740" width="209.095" height="292.733" rx="15.977" transform="translate(20.91)" fill="url(#linear-gradient)"/>
      <rect id="Retângulo_17741" data-name="Retângulo 17741" width="209.095" height="292.733" rx="15.977" fill="url(#linear-gradient-2)"/>
      <g id="Grupo_12479" data-name="Grupo 12479" transform="translate(20.91 105.928)">
        <rect id="Retângulo_17742" data-name="Retângulo 17742" width="36.33" height="25.079" rx="3.994" transform="translate(87.297 64.794)" fill="#ecf2fa"/>
        <rect id="Retângulo_17743" data-name="Retângulo 17743" width="36.33" height="25.079" rx="3.994" transform="translate(87.297 97.192)" fill="#ecf2fa"/>
        <rect id="Retângulo_17744" data-name="Retângulo 17744" width="36.33" height="25.079" rx="3.994" transform="translate(87.297 32.397)" fill="#ecf2fa"/>
        <rect id="Retângulo_17745" data-name="Retângulo 17745" width="36.33" height="25.079" rx="3.994" transform="translate(43.649 97.192)" fill="#ecf2fa"/>
        <rect id="Retângulo_17746" data-name="Retângulo 17746" width="36.33" height="25.079" rx="3.994" transform="translate(43.649 32.397)" fill="#ecf2fa"/>
        <rect id="Retângulo_17747" data-name="Retângulo 17747" width="36.33" height="25.079" rx="3.994" transform="translate(130.946)" fill="url(#linear-gradient-3)"/>
        <rect id="Retângulo_17748" data-name="Retângulo 17748" width="36.33" height="25.079" rx="3.994" transform="translate(0 129.589)" fill="#ecf2fa"/>
        <rect id="Retângulo_17749" data-name="Retângulo 17749" width="36.33" height="25.079" rx="3.994" transform="translate(43.649 64.794)" fill="#ecf2fa"/>
        <rect id="Retângulo_17750" data-name="Retângulo 17750" width="36.33" height="57.476" rx="3.994" transform="translate(130.946 97.192)" fill="#ecf2fa"/>
        <rect id="Retângulo_17751" data-name="Retângulo 17751" width="36.33" height="25.079" rx="3.994" transform="translate(87.297 129.589)" fill="#ecf2fa"/>
        <rect id="Retângulo_17752" data-name="Retângulo 17752" width="36.33" height="25.079" rx="3.994" transform="translate(130.946 32.397)" fill="#ecf2fa"/>
        <rect id="Retângulo_17753" data-name="Retângulo 17753" width="36.33" height="25.079" rx="3.994" transform="translate(130.946 64.794)" fill="#ecf2fa"/>
        <rect id="Retângulo_17754" data-name="Retângulo 17754" width="36.33" height="25.079" rx="3.994" transform="translate(0 97.192)" fill="#ecf2fa"/>
        <rect id="Retângulo_17755" data-name="Retângulo 17755" width="36.33" height="25.079" rx="3.994" transform="translate(0 32.397)" fill="#ecf2fa"/>
        <rect id="Retângulo_17756" data-name="Retângulo 17756" width="36.33" height="25.079" rx="3.994" transform="translate(0 64.794)" fill="#ecf2fa"/>
        <rect id="Retângulo_17757" data-name="Retângulo 17757" width="36.33" height="25.079" rx="3.994" fill="#ecf2fa"/>
        <rect id="Retângulo_17758" data-name="Retângulo 17758" width="36.33" height="25.079" rx="3.994" transform="translate(43.649 129.589)" fill="#ecf2fa"/>
      </g>
      <g id="Grupo_12480" data-name="Grupo 12480" transform="translate(21.567 106.585)" style="mix-blend-mode: multiply;isolation: isolate">
        <path id="Caminho_10256" data-name="Caminho 10256" d="M723.812,675.006a5.146,5.146,0,0,1,.658,2.479V692.11a5.243,5.243,0,0,1-5.228,5.227H693.367a5.147,5.147,0,0,1-2.48-.657,5.221,5.221,0,0,0,4.57,2.748h25.876a5.243,5.243,0,0,0,5.227-5.227V679.576A5.217,5.217,0,0,0,723.812,675.006Z" transform="translate(-647.239 -545.417)" fill="#dfe9f3"/>
        <path id="Caminho_10257" data-name="Caminho 10257" d="M690.46,575.986a5.145,5.145,0,0,1,.657,2.479V593.09a5.242,5.242,0,0,1-5.227,5.227H660.014a5.147,5.147,0,0,1-2.479-.657,5.219,5.219,0,0,0,4.57,2.748h25.876a5.242,5.242,0,0,0,5.227-5.227V580.556A5.219,5.219,0,0,0,690.46,575.986Z" transform="translate(-657.535 -575.986)" fill="#dfe9f3"/>
        <path id="Caminho_10258" data-name="Caminho 10258" d="M723.812,625.5a5.146,5.146,0,0,1,.658,2.479V642.6a5.243,5.243,0,0,1-5.228,5.227H693.367a5.147,5.147,0,0,1-2.48-.657,5.221,5.221,0,0,0,4.57,2.748h25.876a5.243,5.243,0,0,0,5.227-5.227V630.066A5.217,5.217,0,0,0,723.812,625.5Z" transform="translate(-647.239 -560.701)" fill="#dfe9f3"/>
        <path id="Caminho_10259" data-name="Caminho 10259" d="M690.46,675.006a5.145,5.145,0,0,1,.657,2.479V692.11a5.242,5.242,0,0,1-5.227,5.227H660.014a5.146,5.146,0,0,1-2.479-.657,5.222,5.222,0,0,0,4.57,2.748h25.876a5.243,5.243,0,0,0,5.227-5.227V679.576A5.217,5.217,0,0,0,690.46,675.006Z" transform="translate(-657.535 -545.417)" fill="#dfe9f3"/>
        <path id="Caminho_10260" data-name="Caminho 10260" d="M723.812,650.251a5.146,5.146,0,0,1,.658,2.479v14.625a5.243,5.243,0,0,1-5.228,5.227H693.367a5.146,5.146,0,0,1-2.48-.657,5.221,5.221,0,0,0,4.57,2.748h25.876a5.243,5.243,0,0,0,5.227-5.228V654.821A5.219,5.219,0,0,0,723.812,650.251Z" transform="translate(-647.239 -553.059)" fill="#dfe9f3"/>
        <path id="Caminho_10261" data-name="Caminho 10261" d="M690.46,600.741a5.145,5.145,0,0,1,.657,2.479v14.625a5.242,5.242,0,0,1-5.227,5.227H660.014a5.147,5.147,0,0,1-2.479-.657,5.219,5.219,0,0,0,4.57,2.748h25.876a5.243,5.243,0,0,0,5.227-5.227V605.311A5.219,5.219,0,0,0,690.46,600.741Z" transform="translate(-657.535 -568.344)" fill="#dfe9f3"/>
        <path id="Caminho_10262" data-name="Caminho 10262" d="M690.46,650.251a5.145,5.145,0,0,1,.657,2.479v14.625a5.242,5.242,0,0,1-5.227,5.227H660.014a5.145,5.145,0,0,1-2.479-.657,5.221,5.221,0,0,0,4.57,2.748h25.876a5.243,5.243,0,0,0,5.227-5.228V654.821A5.219,5.219,0,0,0,690.46,650.251Z" transform="translate(-657.535 -553.059)" fill="#dfe9f3"/>
        <path id="Caminho_10263" data-name="Caminho 10263" d="M690.46,625.5a5.146,5.146,0,0,1,.657,2.479V642.6a5.242,5.242,0,0,1-5.227,5.227H660.014a5.146,5.146,0,0,1-2.479-.657,5.221,5.221,0,0,0,4.57,2.748h25.876a5.243,5.243,0,0,0,5.227-5.227V630.066A5.217,5.217,0,0,0,690.46,625.5Z" transform="translate(-657.535 -560.701)" fill="#dfe9f3"/>
        <path id="Caminho_10264" data-name="Caminho 10264" d="M757.165,600.741a5.16,5.16,0,0,1,.657,2.479v14.625a5.243,5.243,0,0,1-5.227,5.227H726.719a5.151,5.151,0,0,1-2.48-.657,5.221,5.221,0,0,0,4.571,2.748h25.875a5.244,5.244,0,0,0,5.228-5.227V605.311A5.221,5.221,0,0,0,757.165,600.741Z" transform="translate(-636.942 -568.344)" fill="#dfe9f3"/>
        <path id="Caminho_10265" data-name="Caminho 10265" d="M790.517,625.5a5.146,5.146,0,0,1,.657,2.479V642.6a5.242,5.242,0,0,1-5.227,5.227H760.071a5.145,5.145,0,0,1-2.479-.657,5.22,5.22,0,0,0,4.57,2.748h25.875a5.244,5.244,0,0,0,5.228-5.227V630.066A5.22,5.22,0,0,0,790.517,625.5Z" transform="translate(-626.646 -560.701)" fill="#dfe9f3"/>
        <path id="Caminho_10266" data-name="Caminho 10266" d="M790.517,650.251a5.145,5.145,0,0,1,.657,2.479v47.022a5.242,5.242,0,0,1-5.227,5.227H760.071a5.146,5.146,0,0,1-2.479-.657,5.22,5.22,0,0,0,4.57,2.748h25.875a5.244,5.244,0,0,0,5.228-5.227V654.821A5.221,5.221,0,0,0,790.517,650.251Z" transform="translate(-626.646 -553.059)" fill="#dfe9f3"/>
        <path id="Caminho_10267" data-name="Caminho 10267" d="M790.517,600.741a5.145,5.145,0,0,1,.657,2.479v14.625a5.242,5.242,0,0,1-5.227,5.227H760.071a5.147,5.147,0,0,1-2.479-.657,5.217,5.217,0,0,0,4.57,2.748h25.875a5.244,5.244,0,0,0,5.228-5.227V605.311A5.221,5.221,0,0,0,790.517,600.741Z" transform="translate(-626.646 -568.344)" fill="#dfe9f3"/>
        <path id="Caminho_10268" data-name="Caminho 10268" d="M723.812,600.741a5.146,5.146,0,0,1,.658,2.479v14.625a5.243,5.243,0,0,1-5.228,5.227H693.367a5.148,5.148,0,0,1-2.48-.657,5.219,5.219,0,0,0,4.57,2.748h25.876a5.243,5.243,0,0,0,5.227-5.227V605.311A5.219,5.219,0,0,0,723.812,600.741Z" transform="translate(-647.239 -568.344)" fill="#dfe9f3"/>
        <path id="Caminho_10269" data-name="Caminho 10269" d="M790.517,575.986a5.145,5.145,0,0,1,.657,2.479V593.09a5.242,5.242,0,0,1-5.227,5.227H760.071a5.146,5.146,0,0,1-2.479-.657,5.218,5.218,0,0,0,4.57,2.748h25.875a5.243,5.243,0,0,0,5.228-5.227V580.556A5.221,5.221,0,0,0,790.517,575.986Z" transform="translate(-626.646 -575.986)" fill="#f8e388" style="mix-blend-mode: multiply;isolation: isolate"/>
        <path id="Caminho_10270" data-name="Caminho 10270" d="M757.165,625.5a5.161,5.161,0,0,1,.657,2.479V642.6a5.243,5.243,0,0,1-5.227,5.227H726.719a5.15,5.15,0,0,1-2.48-.657,5.223,5.223,0,0,0,4.571,2.748h25.875a5.244,5.244,0,0,0,5.228-5.227V630.066A5.22,5.22,0,0,0,757.165,625.5Z" transform="translate(-636.942 -560.701)" fill="#dfe9f3"/>
        <path id="Caminho_10271" data-name="Caminho 10271" d="M757.165,675.006a5.16,5.16,0,0,1,.657,2.479V692.11a5.243,5.243,0,0,1-5.227,5.227H726.719a5.15,5.15,0,0,1-2.48-.657,5.223,5.223,0,0,0,4.571,2.748h25.875a5.244,5.244,0,0,0,5.228-5.227V679.576A5.22,5.22,0,0,0,757.165,675.006Z" transform="translate(-636.942 -545.417)" fill="#dfe9f3"/>
        <path id="Caminho_10272" data-name="Caminho 10272" d="M757.165,650.251a5.16,5.16,0,0,1,.657,2.479v14.625a5.243,5.243,0,0,1-5.227,5.227H726.719a5.149,5.149,0,0,1-2.48-.657,5.223,5.223,0,0,0,4.571,2.748h25.875a5.244,5.244,0,0,0,5.228-5.228V654.821A5.221,5.221,0,0,0,757.165,650.251Z" transform="translate(-636.942 -553.059)" fill="#dfe9f3"/>
      </g>
    </g>
    <g id="Grupo_12483" data-name="Grupo 12483" transform="translate(680.11 522.513)">
      <rect id="Retângulo_17759" data-name="Retângulo 17759" width="54.365" height="173.549" transform="translate(173.549 0) rotate(90)" fill="url(#linear-gradient-4)" style="mix-blend-mode: multiply;isolation: isolate"/>
      <rect id="Retângulo_17760" data-name="Retângulo 17760" width="167.276" height="48.092" transform="translate(4.182 4.182)" fill="#ecf2fa"/>
      <path id="Caminho_10273" data-name="Caminho 10273" d="M662.26,524.338H824.309V519.11H657.033V567.2h5.227Z" transform="translate(-652.851 -514.929)" fill="#dfe9f3" style="mix-blend-mode: multiply;isolation: isolate"/>
      <g id="Grupo_12482" data-name="Grupo 12482" transform="translate(92.524 11.105)">
        <path id="Caminho_10274" data-name="Caminho 10274" d="M762.349,529.628a2.614,2.614,0,0,0,0-5.228h-15.7a2.614,2.614,0,0,0-2.614,2.615v31.363a2.613,2.613,0,0,0,2.614,2.614h15.7a2.613,2.613,0,0,0,2.613-2.614v-15.7a2.613,2.613,0,0,0-2.613-2.613H749.266v-10.44Zm-13.083,26.136v-10.44h10.47v10.44Z" transform="translate(-718.515 -524.4)" fill="url(#linear-gradient-5)"/>
        <path id="Caminho_10275" data-name="Caminho 10275" d="M742.848,524.4h-15.7a2.614,2.614,0,0,0,0,5.228h13.085v10.44H727.149a2.613,2.613,0,0,0-2.613,2.613v15.7a2.613,2.613,0,0,0,2.613,2.614h15.7a2.613,2.613,0,1,0,0-5.227H729.764v-10.44h13.083a2.614,2.614,0,0,0,2.614-2.615v-15.7A2.614,2.614,0,0,0,742.848,524.4Z" transform="translate(-724.536 -524.4)" fill="url(#linear-gradient-5)"/>
        <path id="Caminho_10276" data-name="Caminho 10276" d="M781.851,524.4h-15.7a2.614,2.614,0,0,0-2.614,2.615v31.363a2.613,2.613,0,0,0,2.614,2.614h15.7a2.613,2.613,0,0,0,2.614-2.614V527.015A2.614,2.614,0,0,0,781.851,524.4Zm-2.614,5.228v10.44h-10.47v-10.44Zm-10.47,26.136v-10.44h10.47v10.44Z" transform="translate(-712.495 -524.4)" fill="url(#linear-gradient-5)"/>
      </g>
    </g>
    <g id="Grupo_12506" data-name="Grupo 12506" transform="translate(861.374 707.314)">
      <path id="Caminho_10277" data-name="Caminho 10277" d="M970.47,744.427a5.916,5.916,0,0,1-1.964,4.087c-7.973,8.157-39.3,14.224-76.73,14.224-34.82,0-64.359-5.265-74.727-12.564-2.573-1.8-3.966-3.731-3.966-5.748,0-1.909,1.268-3.765,3.624-5.5,10.046-7.424,39.856-12.815,75.068-12.815,37.814,0,69.4,6.211,76.968,14.493A5.663,5.663,0,0,1,970.47,744.427Z" transform="translate(-785.94 -635.824)" fill="#c6daf2"/>
      <g id="Grupo_12505" data-name="Grupo 12505">
        <g id="Grupo_12486" data-name="Grupo 12486" transform="translate(40.396 82.801)">
          <g id="Grupo_12485" data-name="Grupo 12485">
            <path id="Caminho_10278" data-name="Caminho 10278" d="M950.267,729.439V741.6c0,2.735-5.142,5.315-13.724,7.328-.465.121-.946.223-1.428.326-.877.207-1.789.379-2.718.568-2.683.5-5.607,1-8.754,1.394-.086.017-.19.017-.275.034-1.979.258-4.043.5-6.174.739a302.133,302.133,0,0,1-30.462,1.445,309.267,309.267,0,0,1-31.492-1.548c-1.531-.171-3.044-.326-4.489-.516-.534-.069-1.05-.154-1.565-.224-2.7-.378-5.194-.773-7.517-1.2-1.53-.292-2.992-.585-4.352-.912-.361-.085-.7-.154-1.031-.258-8.2-1.978-13.071-4.489-13.071-7.172V729.439c0,2.683,4.867,5.176,13.071,7.172.327.085.67.154,1.031.241,1.36.327,2.822.619,4.352.911,2.323.378,4.816.792,7.517,1.17.516.069,1.031.137,1.565.207,1.445.188,2.958.361,4.489.516a319.6,319.6,0,0,0,61.953.086c2.132-.224,4.2-.465,6.174-.722.085-.017.188-.017.275-.035,3.147-.4,6.071-.843,8.754-1.341.929-.188,1.841-.361,2.718-.567.481-.1.963-.207,1.428-.327C945.125,734.735,950.267,732.156,950.267,729.439Z" transform="translate(-823.209 -717.599)" fill="url(#linear-gradient-8)"/>
            <path id="Caminho_10279" data-name="Caminho 10279" d="M950.256,729.84c0,6.49-28.431,11.773-63.524,11.773S823.21,736.33,823.21,729.84c10.02-4.078,37.857.344,63.523.344C910.869,730.185,939.5,726.107,950.256,729.84Z" transform="translate(-823.21 -718.008)" fill="url(#linear-gradient-9)"/>
            <path id="Caminho_10280" data-name="Caminho 10280" d="M950.256,732.224c0,6.49-28.431,11.773-63.524,11.773s-63.523-5.283-63.523-11.773c0-6.548,28.431-11.832,63.523-11.832S950.256,725.677,950.256,732.224Z" transform="translate(-823.21 -720.392)" fill="url(#linear-gradient-10)"/>
            <g id="Grupo_12484" data-name="Grupo 12484" transform="translate(6.968 1.884)">
              <path id="Caminho_10281" data-name="Caminho 10281" d="M885.091,740.678c-31.716,0-56.557-4.138-56.557-9.423s24.842-9.423,56.557-9.423,56.554,4.14,56.554,9.423S916.8,740.678,885.091,740.678Zm0-17.982c-29.826,0-54.091,3.84-54.091,8.559s24.265,8.56,54.091,8.56,54.085-3.84,54.085-8.56S914.913,722.7,885.091,722.7Z" transform="translate(-828.534 -721.832)" fill="url(#linear-gradient-11)"/>
            </g>
            <path id="Caminho_10282" data-name="Caminho 10282" d="M846.1,737.241v12.212c-2.7-.378-5.194-.773-7.517-1.2-1.53-.292-2.992-.585-4.352-.912-.361-.085-.7-.154-1.031-.258V734.919c.327.085.67.154,1.031.241,1.36.327,2.822.619,4.352.911C840.908,736.449,843.4,736.862,846.1,737.241Z" transform="translate(-820.125 -715.907)" fill="#e35e23" opacity="0.6" style="mix-blend-mode: screen;isolation: isolate"/>
            <path id="Caminho_10283" data-name="Caminho 10283" d="M912.852,735.024V747.2c-.465.12-.946.223-1.428.326-.877.207-1.789.379-2.718.568-2.683.5-5.607,1-8.754,1.394v-12.23c3.147-.4,6.071-.843,8.754-1.341.929-.188,1.841-.361,2.718-.567C911.906,735.248,912.387,735.144,912.852,735.024Z" transform="translate(-799.518 -715.875)" opacity="0.6" fill="url(#linear-gradient-12)" style="mix-blend-mode: multiply;isolation: isolate"/>
          </g>
        </g>
        <g id="Grupo_12489" data-name="Grupo 12489" transform="translate(33.41 69.179)">
          <g id="Grupo_12488" data-name="Grupo 12488">
            <path id="Caminho_10284" data-name="Caminho 10284" d="M944.929,719.029v12.159c0,2.735-5.142,5.315-13.725,7.328-.465.12-.946.224-1.428.327-.877.205-1.789.378-2.718.567-2.683.5-5.607,1-8.754,1.394-.086.017-.19.017-.275.034-1.979.258-4.043.5-6.175.74a302.132,302.132,0,0,1-30.462,1.445,309.7,309.7,0,0,1-31.492-1.547c-1.531-.173-3.044-.327-4.489-.517-.534-.068-1.05-.154-1.565-.224-2.7-.378-5.194-.773-7.517-1.2-1.53-.292-2.992-.585-4.351-.911-.361-.086-.705-.156-1.031-.258-8.2-1.979-13.072-4.489-13.072-7.173V719.029c0,2.683,4.867,5.177,13.072,7.172.326.086.67.154,1.031.241,1.36.327,2.822.619,4.351.912,2.323.378,4.816.79,7.517,1.169.516.069,1.031.137,1.565.207,1.445.19,2.958.361,4.489.516a319.6,319.6,0,0,0,61.953.086c2.132-.224,4.2-.465,6.175-.722.085-.017.188-.017.275-.034,3.147-.4,6.071-.843,8.754-1.341.929-.19,1.841-.361,2.718-.568.482-.1.963-.207,1.428-.327C939.787,724.325,944.929,721.746,944.929,719.029Z" transform="translate(-817.871 -707.19)" fill="url(#linear-gradient-8)"/>
            <path id="Caminho_10285" data-name="Caminho 10285" d="M944.918,719.43c0,6.49-28.43,11.775-63.524,11.775s-63.523-5.285-63.523-11.775c10.02-4.078,37.857.344,63.523.344C905.531,719.775,934.158,715.7,944.918,719.43Z" transform="translate(-817.872 -707.6)" fill="url(#linear-gradient-14)"/>
            <path id="Caminho_10286" data-name="Caminho 10286" d="M944.918,721.814c0,6.49-28.43,11.775-63.524,11.775s-63.523-5.285-63.523-11.775c0-6.548,28.431-11.831,63.523-11.831S944.918,715.266,944.918,721.814Z" transform="translate(-817.872 -709.983)" fill="url(#linear-gradient-10)"/>
            <g id="Grupo_12487" data-name="Grupo 12487" transform="translate(6.968 1.885)">
              <path id="Caminho_10287" data-name="Caminho 10287" d="M879.754,730.268c-31.715,0-56.558-4.138-56.558-9.423s24.842-9.423,56.558-9.423,56.554,4.138,56.554,9.423S911.465,730.268,879.754,730.268Zm0-17.983c-29.826,0-54.091,3.84-54.091,8.56s24.265,8.56,54.091,8.56,54.085-3.841,54.085-8.56S909.575,712.285,879.754,712.285Z" transform="translate(-823.196 -711.423)" fill="#eea22f" style="mix-blend-mode: screen;isolation: isolate"/>
            </g>
            <path id="Caminho_10288" data-name="Caminho 10288" d="M840.764,726.831v12.212c-2.7-.378-5.194-.773-7.517-1.2-1.53-.292-2.992-.585-4.351-.911-.361-.086-.705-.156-1.031-.258V724.509c.326.086.67.154,1.031.241,1.36.327,2.822.619,4.351.912C835.57,726.04,838.063,726.452,840.764,726.831Z" transform="translate(-814.787 -705.498)" fill="#e35e23" opacity="0.6" style="mix-blend-mode: screen;isolation: isolate"/>
            <path id="Caminho_10289" data-name="Caminho 10289" d="M907.514,724.614v12.178c-.465.12-.946.224-1.428.327-.877.205-1.789.378-2.718.567-2.683.5-5.607,1-8.754,1.394V726.851c3.147-.4,6.071-.843,8.754-1.341.929-.19,1.841-.361,2.718-.568C906.568,724.838,907.049,724.734,907.514,724.614Z" transform="translate(-794.18 -705.466)" opacity="0.6" fill="url(#linear-gradient-12)" style="mix-blend-mode: multiply;isolation: isolate"/>
          </g>
        </g>
        <g id="Grupo_12492" data-name="Grupo 12492" transform="translate(18.501 55.555)">
          <g id="Grupo_12491" data-name="Grupo 12491">
            <path id="Caminho_10290" data-name="Caminho 10290" d="M933.537,708.619V720.78c0,2.734-5.142,5.315-13.726,7.326-.463.12-.945.224-1.427.327-.878.207-1.789.378-2.718.568-2.683.5-5.607,1-8.754,1.392-.086.017-.19.017-.276.034-1.977.259-4.041.5-6.174.741A302.445,302.445,0,0,1,870,732.613a309.3,309.3,0,0,1-31.492-1.548c-1.531-.173-3.045-.327-4.49-.516-.533-.069-1.048-.156-1.565-.224-2.7-.38-5.193-.775-7.516-1.2-1.531-.293-2.993-.585-4.352-.912-.361-.086-.705-.154-1.031-.258-8.2-1.977-13.073-4.489-13.073-7.172V708.619c0,2.683,4.868,5.177,13.073,7.172.326.086.67.156,1.031.241,1.358.327,2.82.619,4.352.912,2.323.378,4.816.792,7.516,1.17.517.068,1.033.137,1.565.205,1.445.19,2.959.361,4.49.517a319.738,319.738,0,0,0,61.952.085c2.133-.224,4.2-.465,6.174-.722.086-.017.19-.017.276-.034,3.148-.4,6.071-.843,8.754-1.341.929-.19,1.84-.361,2.718-.568.482-.1.963-.205,1.427-.327C928.4,713.917,933.537,711.336,933.537,708.619Z" transform="translate(-806.479 -696.78)" fill="url(#linear-gradient-17)"/>
            <path id="Caminho_10291" data-name="Caminho 10291" d="M933.525,709.02c0,6.491-28.429,11.774-63.523,11.774s-63.523-5.283-63.523-11.774c10.019-4.078,37.857.346,63.523.346C894.139,709.366,922.766,705.288,933.525,709.02Z" transform="translate(-806.48 -697.19)" fill="url(#linear-gradient-18)"/>
            <path id="Caminho_10292" data-name="Caminho 10292" d="M933.525,711.4c0,6.491-28.429,11.775-63.523,11.775S806.48,717.895,806.48,711.4c0-6.547,28.43-11.831,63.523-11.831S933.525,704.856,933.525,711.4Z" transform="translate(-806.48 -699.573)" fill="url(#linear-gradient-10)"/>
            <g id="Grupo_12490" data-name="Grupo 12490" transform="translate(6.966 1.885)">
              <path id="Caminho_10293" data-name="Caminho 10293" d="M868.362,719.859c-31.716,0-56.559-4.138-56.559-9.423s24.843-9.423,56.559-9.423,56.554,4.138,56.554,9.423S900.073,719.859,868.362,719.859Zm0-17.983c-29.826,0-54.091,3.84-54.091,8.56S838.536,719,868.362,719s54.085-3.841,54.085-8.56S898.184,701.875,868.362,701.875Z" transform="translate(-811.803 -701.013)" fill="url(#linear-gradient-11)"/>
            </g>
            <path id="Caminho_10294" data-name="Caminho 10294" d="M829.371,716.422v12.212c-2.7-.38-5.193-.775-7.516-1.2-1.531-.293-2.993-.585-4.352-.912-.361-.086-.705-.154-1.031-.258V714.1c.326.086.67.156,1.031.241,1.358.327,2.82.619,4.352.912C824.178,715.63,826.671,716.044,829.371,716.422Z" transform="translate(-803.395 -695.089)" fill="#e35e23" opacity="0.6" style="mix-blend-mode: screen;isolation: isolate"/>
            <path id="Caminho_10295" data-name="Caminho 10295" d="M896.121,714.2v12.178c-.463.12-.945.224-1.427.327-.878.207-1.789.378-2.718.568-2.683.5-5.606,1-8.754,1.393V716.441c3.148-.4,6.071-.843,8.754-1.341.929-.19,1.84-.361,2.718-.568C895.176,714.428,895.657,714.326,896.121,714.2Z" transform="translate(-782.788 -695.056)" opacity="0.6" fill="url(#linear-gradient-12)" style="mix-blend-mode: multiply;isolation: isolate"/>
          </g>
        </g>
        <g id="Grupo_12495" data-name="Grupo 12495" transform="translate(16.04 41.931)">
          <g id="Grupo_12494" data-name="Grupo 12494">
            <path id="Caminho_10296" data-name="Caminho 10296" d="M931.656,698.209V710.37c0,2.735-5.142,5.315-13.724,7.328-.465.12-.946.223-1.428.326-.877.207-1.789.379-2.718.568-2.683.5-5.607,1-8.754,1.392-.086.018-.19.018-.275.035-1.979.258-4.043.5-6.174.739A302.094,302.094,0,0,1,868.12,722.2a309.3,309.3,0,0,1-31.492-1.548c-1.531-.171-3.044-.327-4.489-.516-.534-.069-1.05-.156-1.565-.224-2.7-.378-5.194-.773-7.517-1.2-1.53-.292-2.992-.585-4.351-.912-.361-.085-.7-.154-1.031-.258-8.2-1.978-13.072-4.489-13.072-7.172V698.209c0,2.684,4.867,5.177,13.072,7.173.327.085.67.154,1.031.241,1.36.326,2.822.619,4.351.911,2.323.378,4.816.792,7.517,1.17.516.068,1.031.137,1.565.207,1.445.188,2.958.361,4.489.516a319.612,319.612,0,0,0,61.953.086c2.132-.224,4.2-.465,6.174-.722.085-.018.189-.018.275-.035,3.147-.4,6.071-.843,8.754-1.341.929-.189,1.841-.361,2.718-.567.481-.1.963-.207,1.428-.327C926.514,703.507,931.656,700.927,931.656,698.209Z" transform="translate(-804.598 -686.37)" fill="url(#linear-gradient-17)"/>
            <path id="Caminho_10297" data-name="Caminho 10297" d="M931.646,698.611c0,6.49-28.431,11.773-63.524,11.773S804.6,705.1,804.6,698.611c10.02-4.078,37.857.344,63.523.344C892.258,698.956,920.885,694.878,931.646,698.611Z" transform="translate(-804.599 -686.779)" fill="url(#linear-gradient-9)"/>
            <path id="Caminho_10298" data-name="Caminho 10298" d="M931.646,700.995c0,6.49-28.431,11.773-63.524,11.773S804.6,707.485,804.6,700.995c0-6.547,28.431-11.832,63.523-11.832S931.646,694.448,931.646,700.995Z" transform="translate(-804.599 -689.163)" fill="url(#linear-gradient-10)"/>
            <g id="Grupo_12493" data-name="Grupo 12493" transform="translate(6.968 1.885)">
              <path id="Caminho_10299" data-name="Caminho 10299" d="M866.48,709.448c-31.715,0-56.558-4.138-56.558-9.423s24.842-9.423,56.558-9.423,56.554,4.138,56.554,9.423S898.192,709.448,866.48,709.448Zm0-17.983c-29.826,0-54.091,3.841-54.091,8.56s24.265,8.56,54.091,8.56,54.085-3.84,54.085-8.56S896.3,691.465,866.48,691.465Z" transform="translate(-809.923 -690.603)" fill="url(#linear-gradient-25)"/>
            </g>
            <path id="Caminho_10300" data-name="Caminho 10300" d="M827.491,706.012v12.212c-2.7-.378-5.194-.773-7.517-1.2-1.53-.292-2.992-.585-4.351-.912-.361-.085-.7-.154-1.031-.258V703.69c.327.085.67.154,1.031.241,1.36.326,2.822.619,4.351.911C822.3,705.22,824.79,705.633,827.491,706.012Z" transform="translate(-801.514 -684.678)" fill="#e35e23" opacity="0.6" style="mix-blend-mode: screen;isolation: isolate"/>
            <path id="Caminho_10301" data-name="Caminho 10301" d="M894.241,703.795v12.178c-.465.12-.946.223-1.428.326-.877.207-1.789.38-2.718.568-2.683.5-5.607,1-8.754,1.392V706.03c3.147-.4,6.071-.843,8.754-1.341.929-.189,1.841-.361,2.718-.567C893.295,704.019,893.777,703.915,894.241,703.795Z" transform="translate(-780.907 -684.646)" opacity="0.6" fill="url(#linear-gradient-12)" style="mix-blend-mode: multiply;isolation: isolate"/>
          </g>
        </g>
        <g id="Grupo_12498" data-name="Grupo 12498" transform="translate(11.742 28.308)">
          <g id="Grupo_12497" data-name="Grupo 12497">
            <path id="Caminho_10302" data-name="Caminho 10302" d="M928.372,687.8v12.159c0,2.735-5.142,5.315-13.725,7.328-.464.12-.946.224-1.428.327-.877.205-1.789.378-2.718.567-2.683.5-5.607,1-8.754,1.394-.086.017-.19.017-.275.034-1.979.258-4.043.5-6.175.739a302.11,302.11,0,0,1-30.462,1.445,309.345,309.345,0,0,1-31.492-1.548c-1.531-.172-3.044-.326-4.489-.516-.534-.068-1.05-.154-1.565-.224-2.7-.378-5.194-.773-7.517-1.2-1.53-.292-2.992-.585-4.351-.911-.361-.086-.7-.156-1.031-.258-8.2-1.979-13.072-4.49-13.072-7.173V687.8c0,2.683,4.867,5.176,13.072,7.172.327.086.67.154,1.031.241,1.36.327,2.822.619,4.351.912,2.323.378,4.816.791,7.517,1.169.516.069,1.031.137,1.565.207,1.445.189,2.958.361,4.489.516a319.592,319.592,0,0,0,61.953.086c2.132-.224,4.2-.465,6.175-.722.085-.017.188-.017.275-.034,3.147-.4,6.071-.843,8.754-1.343.929-.188,1.841-.361,2.718-.567.482-.1.963-.207,1.428-.327C923.23,693.1,928.372,690.517,928.372,687.8Z" transform="translate(-801.314 -675.96)" fill="url(#linear-gradient-8)"/>
            <path id="Caminho_10303" data-name="Caminho 10303" d="M928.361,688.2c0,6.49-28.431,11.773-63.524,11.773s-63.523-5.283-63.523-11.773c10.02-4.078,37.857.344,63.523.344C888.974,688.546,917.6,684.468,928.361,688.2Z" transform="translate(-801.315 -676.369)" fill="url(#linear-gradient-9)"/>
            <path id="Caminho_10304" data-name="Caminho 10304" d="M928.361,690.585c0,6.49-28.431,11.773-63.524,11.773s-63.523-5.283-63.523-11.773c0-6.548,28.431-11.832,63.523-11.832S928.361,684.038,928.361,690.585Z" transform="translate(-801.315 -678.753)" fill="url(#linear-gradient-10)"/>
            <g id="Grupo_12496" data-name="Grupo 12496" transform="translate(6.968 1.885)">
              <path id="Caminho_10305" data-name="Caminho 10305" d="M863.2,699.04c-31.716,0-56.558-4.139-56.558-9.423s24.842-9.424,56.558-9.424,56.553,4.139,56.553,9.424S894.908,699.04,863.2,699.04Zm0-17.983c-29.826,0-54.091,3.84-54.091,8.56s24.265,8.559,54.091,8.559,54.087-3.84,54.087-8.559S893.018,681.057,863.2,681.057Z" transform="translate(-806.639 -680.193)" fill="url(#linear-gradient-30)"/>
            </g>
            <path id="Caminho_10306" data-name="Caminho 10306" d="M824.207,695.6v12.212c-2.7-.378-5.194-.773-7.517-1.2-1.53-.292-2.992-.585-4.351-.911-.361-.086-.7-.156-1.031-.258V693.28c.327.086.67.154,1.031.241,1.36.327,2.822.619,4.351.912C819.013,694.811,821.506,695.224,824.207,695.6Z" transform="translate(-798.23 -674.268)" fill="#e35e23" opacity="0.6" style="mix-blend-mode: screen;isolation: isolate"/>
            <path id="Caminho_10307" data-name="Caminho 10307" d="M890.957,693.385v12.178c-.464.12-.946.224-1.428.327-.877.205-1.789.378-2.718.567-2.683.5-5.607,1-8.754,1.394V695.622c3.147-.4,6.071-.843,8.754-1.343.929-.188,1.841-.361,2.718-.567C890.011,693.609,890.493,693.505,890.957,693.385Z" transform="translate(-777.623 -674.236)" opacity="0.6" fill="url(#linear-gradient-12)" style="mix-blend-mode: multiply;isolation: isolate"/>
          </g>
        </g>
        <g id="Grupo_12501" data-name="Grupo 12501" transform="translate(16.04 14.685)">
          <g id="Grupo_12500" data-name="Grupo 12500">
            <path id="Caminho_10308" data-name="Caminho 10308" d="M931.656,677.39v12.161c0,2.734-5.142,5.315-13.724,7.326-.465.12-.946.224-1.428.327-.877.207-1.789.378-2.718.567-2.683.5-5.607,1-8.754,1.394-.086.017-.19.017-.275.034-1.979.259-4.043.5-6.174.741a302.569,302.569,0,0,1-30.462,1.443,309.347,309.347,0,0,1-31.492-1.547c-1.531-.173-3.044-.327-4.489-.517-.534-.068-1.05-.154-1.565-.222-2.7-.38-5.194-.775-7.517-1.2-1.53-.293-2.992-.585-4.351-.912-.361-.086-.7-.154-1.031-.258-8.2-1.979-13.072-4.489-13.072-7.172V677.39c0,2.683,4.867,5.177,13.072,7.172.327.086.67.154,1.031.241,1.36.327,2.822.619,4.351.912,2.323.378,4.816.79,7.517,1.169.516.069,1.031.139,1.565.207,1.445.19,2.958.361,4.489.516a319.586,319.586,0,0,0,61.953.086c2.132-.224,4.2-.465,6.174-.722.085-.017.189-.017.275-.034,3.147-.4,6.071-.843,8.754-1.341.929-.19,1.841-.361,2.718-.568.481-.1.963-.207,1.428-.327C926.514,682.688,931.656,680.107,931.656,677.39Z" transform="translate(-804.598 -665.551)" fill="url(#linear-gradient-8)"/>
            <path id="Caminho_10309" data-name="Caminho 10309" d="M931.646,677.791c0,6.49-28.431,11.775-63.524,11.775S804.6,684.281,804.6,677.791c10.02-4.078,37.857.346,63.523.346C892.258,678.137,920.885,674.059,931.646,677.791Z" transform="translate(-804.599 -665.961)" fill="url(#linear-gradient-33)"/>
            <path id="Caminho_10310" data-name="Caminho 10310" d="M931.646,680.175c0,6.49-28.431,11.774-63.524,11.774S804.6,686.665,804.6,680.175c0-6.548,28.431-11.831,63.523-11.831S931.646,673.627,931.646,680.175Z" transform="translate(-804.599 -668.344)" fill="url(#linear-gradient-10)"/>
            <g id="Grupo_12499" data-name="Grupo 12499" transform="translate(6.968 1.885)">
              <path id="Caminho_10311" data-name="Caminho 10311" d="M866.48,688.63c-31.715,0-56.558-4.138-56.558-9.423s24.842-9.423,56.558-9.423,56.554,4.138,56.554,9.423S898.192,688.63,866.48,688.63Zm0-17.983c-29.826,0-54.091,3.84-54.091,8.56s24.265,8.56,54.091,8.56,54.085-3.841,54.085-8.56S896.3,670.646,866.48,670.646Z" transform="translate(-809.923 -669.784)" fill="#eea22f" style="mix-blend-mode: screen;isolation: isolate"/>
            </g>
            <path id="Caminho_10312" data-name="Caminho 10312" d="M827.491,685.192V697.4c-2.7-.38-5.194-.775-7.517-1.2-1.53-.293-2.992-.585-4.351-.912-.361-.086-.7-.154-1.031-.258V682.87c.327.086.67.154,1.031.241,1.36.327,2.822.619,4.351.912C822.3,684.4,824.79,684.813,827.491,685.192Z" transform="translate(-801.514 -663.86)" fill="#e35e23" opacity="0.6" style="mix-blend-mode: screen;isolation: isolate"/>
            <path id="Caminho_10313" data-name="Caminho 10313" d="M894.241,682.975v12.178c-.465.12-.946.224-1.428.327-.877.207-1.789.378-2.718.567-2.683.5-5.607,1-8.754,1.394V685.212c3.147-.4,6.071-.843,8.754-1.341.929-.19,1.841-.361,2.718-.568C893.295,683.2,893.777,683.1,894.241,682.975Z" transform="translate(-780.907 -663.827)" opacity="0.6" fill="url(#linear-gradient-12)" style="mix-blend-mode: multiply;isolation: isolate"/>
          </g>
        </g>
        <g id="Grupo_12504" data-name="Grupo 12504">
          <g id="Grupo_12503" data-name="Grupo 12503">
            <path id="Caminho_10314" data-name="Caminho 10314" d="M919.4,666.169V678.33c0,2.734-5.143,5.315-13.726,7.328-.465.12-.946.223-1.428.326-.877.207-1.789.378-2.717.568-2.684.5-5.608,1-8.755,1.394-.086.017-.188.017-.275.034-1.978.258-4.041.5-6.175.739a302.085,302.085,0,0,1-30.46,1.445,309.328,309.328,0,0,1-31.493-1.548c-1.531-.171-3.044-.327-4.489-.516-.533-.069-1.05-.155-1.565-.224-2.7-.378-5.194-.773-7.516-1.2-1.531-.292-2.993-.585-4.352-.912-.361-.085-.705-.154-1.033-.258-8.2-1.978-13.071-4.489-13.071-7.172V666.169c0,2.683,4.867,5.177,13.071,7.173.327.085.671.154,1.033.241,1.359.326,2.82.619,4.352.911,2.322.378,4.816.792,7.516,1.17l1.565.207c1.445.188,2.958.361,4.489.516a319.466,319.466,0,0,0,61.953.085c2.133-.223,4.2-.463,6.175-.722.086-.017.188-.017.275-.034q4.721-.593,8.755-1.341c.928-.188,1.84-.361,2.717-.568.482-.1.963-.206,1.428-.326C914.257,671.467,919.4,668.887,919.4,666.169Z" transform="translate(-792.342 -654.33)" fill="url(#linear-gradient-17)"/>
            <path id="Caminho_10315" data-name="Caminho 10315" d="M919.388,666.572c0,6.49-28.431,11.773-63.523,11.773s-63.523-5.283-63.523-11.773c10.02-4.078,37.856.344,63.523.344C880,666.916,908.628,662.838,919.388,666.572Z" transform="translate(-792.343 -654.739)" fill="url(#linear-gradient-9)"/>
            <path id="Caminho_10316" data-name="Caminho 10316" d="M919.388,668.955c0,6.49-28.431,11.773-63.523,11.773s-63.523-5.283-63.523-11.773c0-6.547,28.429-11.832,63.523-11.832S919.388,662.408,919.388,668.955Z" transform="translate(-792.343 -657.123)" fill="url(#linear-gradient-10)"/>
            <g id="Grupo_12502" data-name="Grupo 12502" transform="translate(6.966 1.885)">
              <path id="Caminho_10317" data-name="Caminho 10317" d="M854.225,677.409c-31.717,0-56.559-4.138-56.559-9.423s24.842-9.423,56.559-9.423,56.554,4.138,56.554,9.423S885.935,677.409,854.225,677.409Zm0-17.983c-29.827,0-54.091,3.841-54.091,8.56s24.264,8.56,54.091,8.56,54.085-3.84,54.085-8.56S884.047,659.425,854.225,659.425Z" transform="translate(-797.666 -658.563)" fill="#eea22f" style="mix-blend-mode: screen;isolation: isolate"/>
            </g>
            <path id="Caminho_10318" data-name="Caminho 10318" d="M815.234,673.972v12.212c-2.7-.378-5.194-.773-7.516-1.2-1.531-.292-2.993-.585-4.352-.912-.361-.085-.705-.154-1.033-.258V671.65c.327.085.671.154,1.033.241,1.359.326,2.82.619,4.352.911C810.04,673.18,812.534,673.594,815.234,673.972Z" transform="translate(-789.259 -652.638)" fill="#e35e23" opacity="0.6" style="mix-blend-mode: screen;isolation: isolate"/>
            <path id="Caminho_10319" data-name="Caminho 10319" d="M881.984,671.755v12.178c-.465.12-.946.222-1.428.326-.877.207-1.789.378-2.717.568-2.684.5-5.608,1-8.755,1.394V673.99q4.721-.593,8.755-1.341c.928-.188,1.84-.361,2.717-.568C881.038,671.979,881.519,671.875,881.984,671.755Z" transform="translate(-768.652 -652.606)" opacity="0.6" fill="url(#linear-gradient-12)" style="mix-blend-mode: multiply;isolation: isolate"/>
          </g>
        </g>
      </g>
    </g>
    <g id="Grupo_12528" data-name="Grupo 12528" transform="translate(568.737 531.445)">
      <g id="Grupo_12509" data-name="Grupo 12509" transform="translate(138.557 90.468)">
        <path id="Caminho_10320" data-name="Caminho 10320" d="M684.515,638.366c1.9-9.407,8.151-24.045,8.206-29.349.887-2.7,3.157-6.3,5.948-10.26a18.019,18.019,0,0,1-11.387-6.889c-1.992,5.169-3.552,9.554-4.312,11.733a31.694,31.694,0,0,0-1.39,3.038c-3.043,7.744-4.828,29.14-5.325,30.331C675.88,637.863,685.786,639.449,684.515,638.366Z" transform="translate(-674.104 -591.867)" fill="#fed0ca"/>
        <g id="Grupo_12508" data-name="Grupo 12508" transform="translate(0 43.002)">
          <g id="Grupo_12507" data-name="Grupo 12507">
            <path id="Caminho_10321" data-name="Caminho 10321" d="M674.821,636.566c-.97-5.714,1.678-7.368,2.042-10.324.03-.257.069-.509.1-.763,3.2.226,5.809-1.582,8.7-.275a6.3,6.3,0,0,0,.581,4.731c1.615,2.193.914,6.77-.933,7.249-.551.143-1.375,3.1-1.616,4.557-.273.441-.406,3.731-1.756,3.732-.677,0-.817-3.4-.987-3.968-.47.246,1.43,4.845-.471,3.783-1.15-.641-1.839-4.464-1.8-5.239-.547.127,1.08,3.85.639,3.645-1.886-.875-2.613-4.685-2.7-5.211-.306.182,1.756,3.71.985,3.374C675.834,641.087,674.855,636.767,674.821,636.566Z" transform="translate(-674.609 -624.725)" fill="#fed0ca"/>
          </g>
          <path id="Caminho_10322" data-name="Caminho 10322" d="M679.539,638.062a2.859,2.859,0,0,1-.153-1.029c0-.344.014-.688.044-1.03a.255.255,0,0,1,.509.041.245.245,0,0,1-.01.054c-.1.319-.181.639-.245.963a2.656,2.656,0,0,0-.06.971.045.045,0,0,1-.03.056A.052.052,0,0,1,679.539,638.062Z" transform="translate(-673.134 -621.316)" fill="#adcbe9"/>
          <path id="Caminho_10323" data-name="Caminho 10323" d="M677.825,637.16a1.96,1.96,0,0,1-.237-.664c-.052-.228-.094-.458-.132-.688s-.067-.463-.09-.7a2.581,2.581,0,0,1,0-.781.257.257,0,1,1,.506.093.239.239,0,0,1-.017.054l-.013.033a2.648,2.648,0,0,0-.088.6l-.029.683c0,.229,0,.458.012.687a1.951,1.951,0,0,0,.113.663.017.017,0,0,1,0,.024C677.844,637.17,677.833,637.166,677.825,637.16Z" transform="translate(-673.768 -621.825)" fill="#adcbe9"/>
        </g>
      </g>
      <path id="Caminho_10324" data-name="Caminho 10324" d="M681.432,629.22c.154,1.4-2.4,3.136-3.341,3.793-.891.623-1.945.5-1.208,1.7.852,1.381,2.084,3.337,4.009,2.767,2.445-.724,2.7-3.24,2.127-5.388A10.025,10.025,0,0,0,681.432,629.22Z" transform="translate(-535.427 -489.868)" fill="#fdb9b1"/>
      <path id="Caminho_10325" data-name="Caminho 10325" d="M696.755,607.746c6.985-9.759,16.339-21.53,16.816-27.576.508-6.449-2.624-14.943-8.418-13.181-5.115,1.553-16.54,20.946-21.371,33.231C687.346,604.951,694.113,607.45,696.755,607.746Z" transform="translate(-533.22 -509.152)" fill="url(#linear-gradient-40)"/>
      <path id="Caminho_10326" data-name="Caminho 10326" d="M706,567.41l-6.383.778S692.41,589.7,695.1,605.25c6.722-9.25,14.721-19.7,15.16-25.283C710.63,575.294,709.086,569.551,706,567.41Z" transform="translate(-529.911 -508.95)" fill="url(#linear-gradient-40)" style="mix-blend-mode: multiply;isolation: isolate"/>
      <path id="Caminho_10327" data-name="Caminho 10327" d="M716.641,557.244c-1.141-2.5-1.734-6.086-2.205-6.278-.741-.3-6.346-1.8-7.121-1.979-4.164-.978-2.937,3.708-4.074,3.726-.221.949-.423,1.86-.594,2.695-1.582,7.685,11.408,11.6,16.05,10.091C716.471,562.823,717.679,559.514,716.641,557.244Z" transform="translate(-527.437 -514.678)" fill="#fdb9b1"/>
      <path id="Caminho_10328" data-name="Caminho 10328" d="M722.449,548.127c-.572-5.932-3.578-5.85-6.813-6.968s-6.341.7-7.034.887a5.976,5.976,0,0,0-3.126,3.984c-.779,2.628-1.694,6.1-2.406,9.17.72-.012,3.672-3.168,4.264-3.014,1.266.333,5.046,1.221,5.673,1.517,1.183.56,3.548,5.641,3.267,6.936-.388,1.772-.588,2.869.075,3.931.446.716,1.744,2.895,2.178,3.416a2.359,2.359,0,0,0,1.446-1.042C722.993,561.109,722.938,553.2,722.449,548.127Z" transform="translate(-527.266 -517.165)" fill="#fed0ca"/>
      <path id="Caminho_10329" data-name="Caminho 10329" d="M698.852,624.706c2.157-5.006,1.311-7.444-.065-17.4-1.58-11.421-3.229-18.588-1.445-30.3.794-5.215,2.528-10.256,6.7-13.855,3.013-2.6,8.662,2.216,14.719,8.793a87.042,87.042,0,0,0,7.9,7.041c9.653,8.028,9.527,14.518,8.058,17.254-1.294,2.411-6.307,26.193-4.959,32.685C717.433,630.321,710.472,628.985,698.852,624.706Z" transform="translate(-529.273 -510.485)" fill="url(#linear-gradient-40)"/>
      <path id="Caminho_10330" data-name="Caminho 10330" d="M730.63,595.248l-22.549-14.332-2.772,1.96s6.393,20.386,22.384,27.813c.784-5.493,1.964-11.409,2.937-15.44Z" transform="translate(-526.575 -504.78)" fill="url(#linear-gradient-40)" style="mix-blend-mode: multiply;isolation: isolate"/>
      <path id="Caminho_10331" data-name="Caminho 10331" d="M701.018,567.822c-.84.773,4.728,1.68,10.249,4.643,3.358,1.8,8.19,4.9,8.42,4.731s-4.068-3.774-4.511-4.431c-.755-1.118-1.7-5.312.342-11.631.75-2.319-1.4-3.074-4.155-6.011-1.707-1.819-7-1.453-7.469.364C702.269,561.81,702.724,566.255,701.018,567.822Z" transform="translate(-527.925 -513.111)" fill="#fdb9b1"/>
      <path id="Caminho_10332" data-name="Caminho 10332" d="M708.866,561.1a32.7,32.7,0,0,0,3.128,2.576c.069-.567.172-1.167.3-1.792A20.084,20.084,0,0,1,708.866,561.1Z" transform="translate(-525.476 -510.896)" fill="#fee8e5" style="mix-blend-mode: multiply;isolation: isolate"/>
      <path id="Caminho_10333" data-name="Caminho 10333" d="M705.029,566.967c-3.41-.8-9.606-12.307-9.7-17.242-.174-8.745,6.72-13.488,13.655-14.228,5.719-.611,15.2-1.6,17.566,5.911,2.289,7.266-4.613,5.529-5.845,14.857-5.764-6.854-5.133,6.926-9.508,9.945A6.381,6.381,0,0,1,705.029,566.967Z" transform="translate(-529.658 -518.929)" fill="url(#linear-gradient-44)"/>
      <path id="Caminho_10334" data-name="Caminho 10334" d="M715.533,555.575c-1.33,3.7-4.549-.209-4.549-2.417,0-2.052.86-3.447,2.285-3.128S716.227,553.643,715.533,555.575Z" transform="translate(-524.823 -514.329)" fill="#fed0ca"/>
      <path id="Caminho_10335" data-name="Caminho 10335" d="M712.471,550.513c1.019,1.042,1.123,2.549,1.44,3.9C714.46,553.818,714.076,549.75,712.471,550.513Z" transform="translate(-524.364 -514.195)" fill="#fdb9b1"/>
      <path id="Caminho_10336" data-name="Caminho 10336" d="M709.177,530.725a19.987,19.987,0,0,0-4.9-5.908,9.1,9.1,0,0,0-1.1-.885l-.879-.639-.763-.554.69.644.789.737a8.794,8.794,0,0,1,.971,1,19.151,19.151,0,0,1,3.961,6.16,12.979,12.979,0,0,1,.6,2.061,11.86,11.86,0,0,0-5.626-5.379c-7.038-3.125-15.927,1.511-19.855,10.357s-1.406,18.548,5.633,21.674,15.928-1.512,19.854-10.357a21.12,21.12,0,0,0,1.826-7.818,12.986,12.986,0,0,0,.568-3.365A15.332,15.332,0,0,0,709.177,530.725Z" transform="translate(-534.011 -522.74)" fill="url(#linear-gradient-45)"/>
      <path id="Caminho_10337" data-name="Caminho 10337" d="M708.823,531.4a20.076,20.076,0,0,1-1.412,12.425c-3.928,8.846-12.818,13.482-19.856,10.357a12.03,12.03,0,0,1-6-6.113,12.793,12.793,0,0,0,7.046,9.249c7.038,3.125,15.928-1.512,19.854-10.357A19.106,19.106,0,0,0,708.823,531.4Z" transform="translate(-533.908 -520.066)" fill="url(#linear-gradient-45)" style="mix-blend-mode: multiply;isolation: isolate"/>
      <g id="Grupo_12510" data-name="Grupo 12510" transform="translate(233.223 68.773)">
        <path id="Caminho_10338" data-name="Caminho 10338" d="M755.117,578.766c1.971-1.6,16.188-1.832,17.227-.682,2.009,1.883-7.447,1.5-7.534,2.75-.185,2.591.007,6.2-.865,6.489-2.793.92-6.127,1.873-7.173,1.789-.737-.06-1.165.033-1.9-.048a2.143,2.143,0,0,0-2,.682c-.565.789-1.463,1.572-2.026,1.112C742.494,584.058,749.286,583.5,755.117,578.766Z" transform="translate(-746.944 -574.649)" fill="#fed0ca"/>
        <path id="Caminho_10339" data-name="Caminho 10339" d="M757.7,577.163a9.632,9.632,0,0,0,2.145-1.379c.331-.28.742-.606,1.149-.455a.759.759,0,0,1,.438.732,1.659,1.659,0,0,1-.312.841,6.544,6.544,0,0,1-2.129,1.917,7.484,7.484,0,0,1-3.528,1.243c-.974.043-3.451.669-1.9-.815C754.7,578.154,756.313,577.815,757.7,577.163Z" transform="translate(-745.055 -575.29)" fill="#fed0ca"/>
      </g>
      <g id="Grupo_12511" data-name="Grupo 12511" transform="translate(178.735 66.895)">
        <path id="Caminho_10340" data-name="Caminho 10340" d="M757.7,577.163a9.632,9.632,0,0,0,2.145-1.379c.331-.28.742-.606,1.149-.455a.759.759,0,0,1,.438.732,1.659,1.659,0,0,1-.312.841,6.544,6.544,0,0,1-2.129,1.917,7.484,7.484,0,0,1-3.528,1.243c-.974.043-3.451.669-1.9-.815C754.7,578.154,756.313,577.815,757.7,577.163Z" transform="translate(-690.567 -573.412)" fill="#fdb9b1"/>
        <path id="Caminho_10341" data-name="Caminho 10341" d="M784.954,579.047c-1.039-1.15-15.256-.917-17.227.682-2.489,2.019-5.15,3.28-6.736,4.588v0c-5.531,4.336-12.729,4.571-20.6,8.662-.293-1.046-27.246-23.41-32.206-17.839-11.688,13.128,29.33,33.576,31.749,32.437,19.925-9.381,26.337-17.435,26.337-17.435s4.265.632,10.281-1.854c.848-.351.68-3.9.865-6.489C777.507,580.548,786.963,580.93,784.954,579.047Z" transform="translate(-705.066 -573.734)" fill="#fed0ca"/>
        <path id="Caminho_10342" data-name="Caminho 10342" d="M730.558,605.09c-3.18-.343-35.2-15.422-22.128-29.831,5.478-6.037,26.064,8.979,29.228,15.053C737.884,592.176,735.768,602.036,730.558,605.09Z" transform="translate(-705.309 -573.855)" fill="url(#linear-gradient-40)"/>
      </g>
      <g id="Grupo_12513" data-name="Grupo 12513" transform="translate(161.704 116.66)">
        <path id="Caminho_10343" data-name="Caminho 10343" d="M697.889,729.372l-2.023,15.088s.1,1.088-1.372.593c0,0,.047-12.692-1.822-14.876S697.889,729.372,697.889,729.372Z" transform="translate(-692.277 -575.742)" fill="url(#linear-gradient-48)"/>
        <path id="Caminho_10344" data-name="Caminho 10344" d="M708.4,776.341a2.991,2.991,0,0,1-3.129-1.112,9.306,9.306,0,0,1-1.475-3.188c-1.856-5.752-6.284-8.507-10.4-12.854.4-.273,4.709-6.548,3.522-24.071-.9-13.27-.406-19.65,4.823-30.808,6.744-14.393,1.955-28.474-2.909-38.633-3.615-7.547-2.509-40.3-.114-45.77,6.3-14.406,14.571-4.781,15.807-5.918,4.1,12.647,6.931,22.971,8.43,34.284,2.947,22.244-2.633,41.176-3.341,47.124-.593,4.985-7.193,26.3-12.217,58.391-.831,5.312,1.67,16.28,1.706,19.533.007.493.641.785,1.115,1.1-.03.064-.052.132-.085.195A3.326,3.326,0,0,1,708.4,776.341Z" transform="translate(-691.956 -611.881)" fill="#fdb9b1"/>
        <g id="Grupo_12512" data-name="Grupo 12512" transform="translate(0 145.257)">
          <path id="Caminho_10345" data-name="Caminho 10345" d="M717.959,740.982l-14.282,1.6c-.148-.6-.8-.542-.907-1.017a32.394,32.394,0,0,0-1.018-3.651,13.156,13.156,0,0,0-1.436-3.359,9.662,9.662,0,0,0-2.464-2.424,15.384,15.384,0,0,0-1.908-1.213c5.9,6.451,2.091,14.459,7.341,14.459,9.885,0,14.905-3.192,14.905-3.192Z" transform="translate(-691.177 -720.4)" fill="url(#linear-gradient-3)"/>
          <path id="Caminho_10346" data-name="Caminho 10346" d="M695.351,722.873a8.063,8.063,0,0,1,5.6,3.782c2.094,3.18,2.029,7.525,3.188,11.12a9.308,9.308,0,0,0,1.475,3.188,2.991,2.991,0,0,0,3.129,1.112,3.326,3.326,0,0,0,1.731-1.729c.033-.063.055-.131.085-.195,2.418,1.6,9.212.694,8.61,3.242-3.183,2.382-9.742,3.582-13.679,3.056a1.894,1.894,0,0,1-1.381-.764,2.016,2.016,0,0,1-.6-1.212c-.612-6.209-1.878-7.546-5.512-9.788-.8-.492-3.679-.322-4.723-.963C691.219,731,692.643,724.7,695.351,722.873Z" transform="translate(-692.296 -722.873)" fill="#ecf2fa"/>
        </g>
      </g>
      <g id="Grupo_12526" data-name="Grupo 12526" transform="translate(0 139.32)">
        <path id="Caminho_10347" data-name="Caminho 10347" d="M681.676,629.228c-4.429,6.515-11.716,21.315-12.056,29.606-.537,13.026,8.279,25.708-.361,37.751-6.88,9.59-18.34,13.086-29.035,15.643-28.122,6.723-41.8,42.765-71.353,28.166,8.933,7.627,47.3,35.664,51.642,39.832,12.763,4.349,29.321-18.983,43.1-28.929,12.242-8.84,23.371-7.741,30.822-12.17,13.06-7.763,20.221-18.448,23.145-28.645,4.684-16.334-.526-28.885,1.682-45.532,1.5-11.306,10.37-22.007,12.582-29.221C717.575,635.581,693.295,628.669,681.676,629.228Z" transform="translate(-568.695 -629.195)" fill="url(#linear-gradient-50)"/>
        <path id="Caminho_10348" data-name="Caminho 10348" d="M573.379,703.762l47.221,36.16s-6.4,9.776.518,17.533L570.284,718.4S565.235,717.659,573.379,703.762Z" transform="translate(-568.737 -606.175)" fill="url(#linear-gradient-51)"/>
        <path id="Caminho_10349" data-name="Caminho 10349" d="M662.368,664.214l4.375-15.845,7.959.127-6.24,12.5,7.072.112-8.525,16.919,3.467-13.877Z" transform="translate(-539.831 -623.276)" fill="url(#linear-gradient-52)"/>
        <g id="Grupo_12514" data-name="Grupo 12514" transform="translate(42.763 111.615)">
          <path id="Caminho_10350" data-name="Caminho 10350" d="M605.964,722.547a1.382,1.382,0,0,0,.442-.982,3.386,3.386,0,0,0-.4-1.419,10.159,10.159,0,0,1-.568-1.411,2.849,2.849,0,0,1,.705-3.045,2.722,2.722,0,0,1,1.9-.863,3.071,3.071,0,0,1,2.025.751l1.108-1.1.8.813L610.86,716.4a2.83,2.83,0,0,1,.607,2.107,3.61,3.61,0,0,1-1.14,2.089l-1.218-1.229a2.263,2.263,0,0,0,.724-1.288,1.315,1.315,0,0,0-.406-1.144,1.485,1.485,0,0,0-1.018-.5,1.419,1.419,0,0,0-1.03.478,1.33,1.33,0,0,0-.439.974,3.744,3.744,0,0,0,.408,1.424,11.171,11.171,0,0,1,.572,1.458,3.709,3.709,0,0,1,.153,1.085,2.627,2.627,0,0,1-.213.988,3.01,3.01,0,0,1-.661.929,2.675,2.675,0,0,1-1.913.855,3.254,3.254,0,0,1-2.082-.843l-.991.983-.8-.807.985-.976a3.042,3.042,0,0,1,.266-4.4l1.224,1.234a1.984,1.984,0,0,0-.67,1.3,1.652,1.652,0,0,0,.554,1.259,1.769,1.769,0,0,0,1.153.6A1.354,1.354,0,0,0,605.964,722.547Z" transform="translate(-601.412 -714.481)" fill="url(#linear-gradient-53)"/>
        </g>
        <g id="Grupo_12515" data-name="Grupo 12515" transform="translate(48.493 117.393)">
          <path id="Caminho_10351" data-name="Caminho 10351" d="M610.343,726.962a1.375,1.375,0,0,0,.441-.982,3.36,3.36,0,0,0-.4-1.417,10.126,10.126,0,0,1-.568-1.411,2.853,2.853,0,0,1,.705-3.047,2.727,2.727,0,0,1,1.9-.862,3.072,3.072,0,0,1,2.025.753l1.107-1.1.806.813-1.118,1.108a2.827,2.827,0,0,1,.606,2.11,3.6,3.6,0,0,1-1.139,2.086l-1.22-1.229a2.252,2.252,0,0,0,.725-1.286,1.31,1.31,0,0,0-.406-1.144,1.479,1.479,0,0,0-1.019-.5,1.414,1.414,0,0,0-1.029.478,1.328,1.328,0,0,0-.438.972,3.7,3.7,0,0,0,.408,1.424,10.9,10.9,0,0,1,.571,1.459,3.666,3.666,0,0,1,.154,1.085,2.629,2.629,0,0,1-.213.988,3.007,3.007,0,0,1-.661.928,2.675,2.675,0,0,1-1.913.855,3.252,3.252,0,0,1-2.082-.842l-.991.983-.8-.807.985-.976a3.041,3.041,0,0,1,.266-4.4l1.224,1.233a1.987,1.987,0,0,0-.67,1.306,1.651,1.651,0,0,0,.554,1.258,1.758,1.758,0,0,0,1.153.6A1.344,1.344,0,0,0,610.343,726.962Z" transform="translate(-605.791 -718.896)" fill="url(#linear-gradient-53)"/>
        </g>
        <g id="Grupo_12516" data-name="Grupo 12516" transform="translate(54.224 123.172)">
          <path id="Caminho_10352" data-name="Caminho 10352" d="M614.722,731.378a1.382,1.382,0,0,0,.441-.982,3.365,3.365,0,0,0-.4-1.419,10.127,10.127,0,0,1-.568-1.409,2.853,2.853,0,0,1,.705-3.048,2.734,2.734,0,0,1,1.9-.862,3.081,3.081,0,0,1,2.023.754l1.107-1.1.806.813-1.118,1.109a2.832,2.832,0,0,1,.606,2.108,3.6,3.6,0,0,1-1.139,2.086l-1.22-1.229a2.264,2.264,0,0,0,.725-1.285,1.316,1.316,0,0,0-.406-1.145,1.482,1.482,0,0,0-1.02-.5,1.407,1.407,0,0,0-1.029.476,1.331,1.331,0,0,0-.438.974,3.718,3.718,0,0,0,.408,1.424,11.087,11.087,0,0,1,.571,1.458,3.661,3.661,0,0,1,.154,1.086,2.618,2.618,0,0,1-.213.987,3.007,3.007,0,0,1-.661.928,2.675,2.675,0,0,1-1.913.855,3.256,3.256,0,0,1-2.083-.84l-.991.982-.8-.807.985-.976a3.042,3.042,0,0,1,.266-4.4l1.224,1.233a1.989,1.989,0,0,0-.67,1.306,1.656,1.656,0,0,0,.553,1.259,1.764,1.764,0,0,0,1.153.6A1.349,1.349,0,0,0,614.722,731.378Z" transform="translate(-610.17 -723.312)" fill="url(#linear-gradient-53)"/>
        </g>
        <g id="Grupo_12517" data-name="Grupo 12517" transform="translate(53.299 101.31)">
          <rect id="Retângulo_17761" data-name="Retângulo 17761" width="1.255" height="31.254" transform="matrix(0.643, -0.766, 0.766, 0.643, 0, 0.961)" fill="url(#linear-gradient-56)"/>
        </g>
        <g id="Grupo_12518" data-name="Grupo 12518" transform="translate(59.114 94.608)">
          <rect id="Retângulo_17762" data-name="Retângulo 17762" width="1.255" height="35.59" transform="translate(0 0.978) rotate(-51.21)" fill="url(#linear-gradient-57)"/>
        </g>
        <g id="Grupo_12519" data-name="Grupo 12519" transform="translate(66.807 89.802)">
          <rect id="Retângulo_17763" data-name="Retângulo 17763" width="1.254" height="37.044" transform="matrix(0.621, -0.784, 0.784, 0.621, 0, 0.983)" fill="url(#linear-gradient-58)"/>
        </g>
        <g id="Grupo_12520" data-name="Grupo 12520" transform="translate(77.273 88.022)">
          <rect id="Retângulo_17764" data-name="Retângulo 17764" width="1.255" height="37.472" transform="translate(0 1.034) rotate(-55.483)" fill="url(#linear-gradient-59)"/>
        </g>
        <g id="Grupo_12521" data-name="Grupo 12521" transform="translate(86.917 83.331)">
          <rect id="Retângulo_17765" data-name="Retângulo 17765" width="1.254" height="38.075" transform="matrix(0.526, -0.85, 0.85, 0.526, 0, 1.066)" fill="url(#linear-gradient-60)"/>
        </g>
        <g id="Grupo_12522" data-name="Grupo 12522" transform="translate(96.32 78.311)">
          <rect id="Retângulo_17766" data-name="Retângulo 17766" width="1.254" height="34.991" transform="matrix(0.536, -0.844, 0.844, 0.536, 0, 1.059)" fill="url(#linear-gradient-61)"/>
        </g>
        <g id="Grupo_12523" data-name="Grupo 12523" transform="translate(108.241 62.699)">
          <rect id="Retângulo_17767" data-name="Retângulo 17767" width="1.254" height="37.255" transform="translate(0 1.139) rotate(-65.293)" fill="url(#linear-gradient-62)"/>
        </g>
        <g id="Grupo_12524" data-name="Grupo 12524" transform="translate(103.263 71.542)">
          <rect id="Retângulo_17768" data-name="Retângulo 17768" width="1.255" height="36.112" transform="matrix(0.455, -0.89, 0.89, 0.455, 0, 1.117)" fill="url(#linear-gradient-63)"/>
        </g>
        <g id="Grupo_12525" data-name="Grupo 12525" transform="translate(109.651 52.236)">
          <rect id="Retângulo_17769" data-name="Retângulo 17769" width="1.254" height="36.439" transform="translate(0 1.154) rotate(-66.963)" fill="url(#linear-gradient-64)"/>
        </g>
      </g>
      <g id="Grupo_12527" data-name="Grupo 12527" transform="translate(171.707 121.5)">
        <path id="Caminho_10353" data-name="Caminho 10353" d="M710.34,733.2l-1.212,15.173s.157,1.082-1.339.666c0,0-.632-12.676-2.616-14.757S710.34,733.2,710.34,733.2Z" transform="translate(-698.431 -579.342)" fill="url(#linear-gradient-65)"/>
        <path id="Caminho_10354" data-name="Caminho 10354" d="M723.246,779.667a2.994,2.994,0,0,1-3.185-.942,9.316,9.316,0,0,1-1.642-3.106c-2.162-5.645-6.732-8.157-11.076-12.278.39-.294,4.578-5.87,2.454-23.3-1.608-13.2-1.684-20.523,2.938-31.944,5.964-14.734.428-28.538-4.974-38.423-4.014-7.342-9.453-39.938-7.355-45.533,5.52-14.723,19.084-5.719,20.256-6.922,4.769,12.411,8.151,22.568,10.254,33.785a169.492,169.492,0,0,1,2.6,44.161c-.326,5.008-9.183,29.724-12.481,62.036-.546,5.349,2.54,16.167,2.751,19.414.033.492.683.75,1.173,1.038-.026.065-.046.135-.075.2A3.331,3.331,0,0,1,723.246,779.667Z" transform="translate(-699.939 -615.579)" fill="#fed0ca"/>
        <path id="Caminho_10355" data-name="Caminho 10355" d="M731,743.763l-14.884,2.31c-.148-.6-.2-1.25-.3-1.725a32.4,32.4,0,0,0-1.018-3.651,13.159,13.159,0,0,0-1.436-3.36,9.666,9.666,0,0,0-2.464-2.424c-.287-.192-1.249-.819-1.589-.483-.319.315-.69,1.306-.442,1.577,5.9,6.451,2.195,12.7,7.444,12.7,9.883,0,14.925-3.74,14.925-3.74Z" transform="translate(-697.21 -578.917)" fill="url(#linear-gradient-3)"/>
        <path id="Caminho_10356" data-name="Caminho 10356" d="M707.376,726.856a8.058,8.058,0,0,1,5.791,3.477c2.263,3.062,2.429,7.406,3.781,10.933a9.316,9.316,0,0,0,1.642,3.105,2.994,2.994,0,0,0,3.185.942,3.418,3.418,0,0,0,1.711-2.018c2.5,1.472,9.236.2,8.771,2.775-3.566,2.981-13.155,5.275-14.915,3.361-2.077-2.26.709-6.885-6.694-10.92-.825-.45-3.691-.126-4.769-.709C703.685,735.19,704.77,728.828,707.376,726.856Z" transform="translate(-698.469 -581.225)" fill="#ecf2fa"/>
      </g>
      <path id="Caminho_10357" data-name="Caminho 10357" d="M700.2,611.213s-7,11.86-7.549,24.586c-.3,6.941,1.973,47.661,5.864,56.616,0,0,18.377,5.8,41.321-2.09,0,0-3.929-67.3-8.047-78.908Z" transform="translate(-530.49 -495.427)" fill="url(#linear-gradient-67)"/>
      <path id="Caminho_10358" data-name="Caminho 10358" d="M738.447,690.294s-3.93-67.3-8.047-78.909l-11.517-.073s17.236,53.75,3.66,68.064-25.418,13.009-25.418,13.009S715.5,698.185,738.447,690.294Z" transform="translate(-529.101 -495.396)" fill="#f8e388" style="mix-blend-mode: multiply;isolation: isolate"/>
      <path id="Caminho_10359" data-name="Caminho 10359" d="M689.43,615.622l-.041-.043C689.384,615.694,689.4,615.7,689.43,615.622Z" transform="translate(-531.49 -494.079)" fill="#675c58" opacity="0.5" style="mix-blend-mode: multiply;isolation: isolate"/>
      <path id="Caminho_10360" data-name="Caminho 10360" d="M698.413,612.458c1.259,1.065,17.584,6.062,31.59.2l-1.014-4.552c-13.149,2.053-16.462,2.666-30.112-.929Z" transform="translate(-528.703 -496.672)" fill="url(#linear-gradient-68)"/>
      <path id="Caminho_10361" data-name="Caminho 10361" d="M685.457,633.042a18.876,18.876,0,0,1-1.625,3.059c-.5,1-.6,2.085-1.067,3.094-1.15,2.481-2.357-.389-2.08-2.118a29.489,29.489,0,0,0,.679-2.871c.064-.959-.221-2.33-.2-3.187.033-1.623,1.552-3.27,3.01-2.275C685.783,629.845,685.477,632,685.457,633.042Z" transform="translate(-534.189 -490.108)" fill="#fed0ca"/>
    </g>
  </g>
</svg>
