<svg width="98" height="50" xmlns="http://www.w3.org/2000/svg">
 <style type="text/css">.st0{fill:#5D556A;}
	.st1{fill:#F8961D;}
	.st2{fill:#FED206;}
	.st3{fill:#C66D00;}
	.st4{fill:#FFFFFF;}
	.st5{font-family:'Roboto-Bold';}
	.st6{font-size:10px;}</style>

 <g>
  <title>background</title>
  <rect fill="none" id="canvas_background" height="52" width="100" y="-1" x="-1"/>
 </g>
 <g>
  <title>Layer 1</title>
  <g id="Group_14398">
   <g id="XMLID_423_">
    <path d="m24.95505,12.63c-7.11,0.01 -12.87,5.78 -12.87,12.89c0.01,7.11 5.78,12.87 12.89,12.87c7.11,-0.01 12.87,-5.77 12.87,-12.88c-0.01,-7.11 -5.78,-12.87 -12.89,-12.88zm6.3,20.22c-0.1,0.34 -0.41,0.57 -0.76,0.57l-11.08,0c-0.35,0 -0.66,-0.24 -0.76,-0.57l-3.17,-11.15c-0.09,-0.32 0.03,-0.66 0.3,-0.85c0.26,-0.2 0.63,-0.21 0.9,-0.02l4.07,2.71l3.52,-5.64c0.15,-0.23 0.4,-0.37 0.67,-0.38c0.27,0 0.53,0.14 0.67,0.38l3.52,5.64l4.07,-2.71c0.27,-0.19 0.64,-0.18 0.9,0.02c0.27,0.19 0.39,0.53 0.3,0.85l-3.15,11.15z" class="st0" id="XMLID_395_"/>
    <path d="m32.34505,22.98l-2.42,8.51l-9.9,0l-2.41,-8.51l2.96,1.98c0.18,0.12 0.39,0.16 0.6,0.12s0.39,-0.17 0.5,-0.36l3.29,-5.26l3.29,5.26c0.11,0.18 0.29,0.31 0.5,0.36c0.21,0.04 0.42,0 0.6,-0.12l2.99,-1.98z" class="st1" id="XMLID_384_"/>
    <path d="m32.34505,23.2l-2.42,8.51l-9.9,0l-2.41,-8.51l2.96,1.98c0.18,0.12 0.39,0.16 0.6,0.12s0.39,-0.17 0.5,-0.36l3.94,-5.58l3.29,5.26c0.11,0.18 0.29,0.31 0.5,0.36c0.21,0.04 0.42,0 0.6,-0.12l2.34,-1.66z" class="st2" id="XMLID_292_"/>
    <path d="m46.67505,22.57l-3.54,-3.54c-0.48,-0.48 -0.75,-1.13 -0.75,-1.81l0,-5.02c0,-2.29 -1.86,-4.14 -4.15,-4.15l-5.02,0c-0.68,0 -1.33,-0.27 -1.81,-0.75l-3.54,-3.54c-1.61,-1.62 -4.23,-1.62 -5.85,-0.01l-0.01,0.01l-3.54,3.54c-0.48,0.48 -1.13,0.75 -1.81,0.75l-5.02,0c-2.29,0 -4.14,1.86 -4.15,4.15l0,5.02c0,0.68 -0.27,1.33 -0.75,1.81l-3.54,3.54c-1.61,1.62 -1.61,4.24 0,5.86l3.54,3.54c0.48,0.48 0.75,1.13 0.75,1.81l0,5.02c0,2.29 1.86,4.14 4.15,4.15l5.02,0c0.68,0 1.33,0.27 1.81,0.75l3.54,3.55c1.61,1.62 4.23,1.62 5.85,0.01l0.01,-0.01l3.54,-3.54c0.48,-0.48 1.13,-0.75 1.81,-0.75l5.02,0c2.29,0 4.14,-1.86 4.15,-4.15l0,-5.02c0,-0.68 0.27,-1.33 0.75,-1.81l3.54,-3.54c1.62,-1.61 1.63,-4.23 0.02,-5.85c-0.01,-0.01 -0.01,-0.01 -0.02,-0.02z" class="st3" id="XMLID_739_"/>
    <path d="m24.95505,12.63c-7.11,0.01 -12.87,5.78 -12.87,12.89c0.01,7.11 5.78,12.87 12.89,12.87c7.11,-0.01 12.87,-5.77 12.87,-12.88c-0.01,-7.11 -5.78,-12.87 -12.89,-12.88z" class="st4" id="XMLID_422_"/>
    <path d="m34.09505,20.91c-0.26,-0.2 -0.63,-0.21 -0.9,-0.02l-4.07,2.71l-3.52,-5.64c-0.15,-0.23 -0.4,-0.37 -0.67,-0.38c-0.27,0 -0.53,0.14 -0.67,0.38l-3.52,5.64l-4.07,-2.71c-0.27,-0.19 -0.64,-0.18 -0.9,0.02c-0.27,0.19 -0.39,0.53 -0.3,0.85l3.17,11.15c0.1,0.34 0.41,0.57 0.76,0.57l11.09,0c0.35,0 0.66,-0.24 0.76,-0.57l3.17,-11.15c0.06,-0.32 -0.07,-0.66 -0.33,-0.85zm-4.23,11l-9.9,0l-2.42,-8.51l2.96,1.98c0.18,0.12 0.39,0.16 0.6,0.12s0.39,-0.17 0.5,-0.36l3.29,-5.26l3.29,5.26c0.11,0.18 0.29,0.31 0.5,0.36c0.21,0.04 0.42,0 0.6,-0.12l2.96,-1.98l-2.38,8.51z" class="st3" id="XMLID_733_"/>
   </g>
   <text id="svg_1" x="-1033.00098" y="-663" class="st3 st5 st6" transform="matrix(1,0,0,1,1079.9773,681.5375) ">TARIFA</text>
   <text id="svg_2" x="-1033.00098" y="-663" class="st3 st5 st6" transform="matrix(1,0,0,1,1081.9773,691.5375) ">MAIS</text>
   <text id="svg_3" x="-1033.00098" y="-663" class="st3 st5 st6" transform="matrix(1,0,0,1,1079.9773,701.5375) ">ADOTADA</text>
  </g>
 </g>
</svg>
