<svg xmlns="http://www.w3.org/2000/svg" xmlns:xlink="http://www.w3.org/1999/xlink" width="525.611" height="564.886" viewBox="0 0 525.611 564.886">
  <defs>
    <linearGradient id="linear-gradient" x1="1.2" y1="0.764" x2="-0.016" y2="0.346" gradientUnits="objectBoundingBox">
      <stop offset="0"/>
      <stop offset="0.004" stop-color="#090909"/>
      <stop offset="0.027" stop-color="#373737"/>
      <stop offset="0.053" stop-color="#626262"/>
      <stop offset="0.081" stop-color="#878787"/>
      <stop offset="0.111" stop-color="#a8a8a8"/>
      <stop offset="0.144" stop-color="#c3c3c3"/>
      <stop offset="0.182" stop-color="#d9d9d9"/>
      <stop offset="0.226" stop-color="#eaeaea"/>
      <stop offset="0.28" stop-color="#f6f6f6"/>
      <stop offset="0.357" stop-color="#fdfdfd"/>
      <stop offset="0.569" stop-color="#fff"/>
    </linearGradient>
  </defs>
  <g id="Grupo_13020" data-name="Grupo 13020" transform="translate(-839.929 -215.935)">
    <g id="Grupo_12343" data-name="Grupo 12343" transform="translate(-268.937 -60.494)">
      <path id="Caminho_10090" data-name="Caminho 10090" d="M1266.088,435.094H1136.71a27.844,27.844,0,1,1,0-55.687h101.534a27.875,27.875,0,0,1,27.844,27.844Z" fill="#fff"/>
      <path id="Caminho_10089" data-name="Caminho 10089" d="M1266.088,435.094H1136.71a27.844,27.844,0,1,1,0-55.687h101.534a27.875,27.875,0,0,1,27.844,27.844ZM1136.71,380.668a26.582,26.582,0,1,0,0,53.164h128.116V407.251a26.612,26.612,0,0,0-26.582-26.582Z" transform="translate(0 0)" fill="#efc958"/>
    </g>
    <g id="Grupo_12345" data-name="Grupo 12345" transform="translate(1167.929 244.913)">
      <path id="Caminho_10090-2" data-name="Caminho 10090" d="M1108.866,435.094h106.378a27.844,27.844,0,1,0,0-55.687H1136.71a27.875,27.875,0,0,0-27.844,27.844Z" transform="translate(-1108.866 -379.407)" fill="#fff"/>
      <path id="Caminho_10089-2" data-name="Caminho 10089" d="M1108.866,435.094h106.378a27.844,27.844,0,1,0,0-55.687H1136.71a27.875,27.875,0,0,0-27.844,27.844Zm106.378-54.426a26.582,26.582,0,1,1,0,53.164H1110.128V407.251a26.612,26.612,0,0,1,26.582-26.582Z" transform="translate(-1108.866 -379.407)" fill="#1e2d36"/>
    </g>
    <g id="Grupo_12344" data-name="Grupo 12344" transform="translate(842.929 608.913)">
      <path id="Caminho_10090-3" data-name="Caminho 10090" d="M1266.088,379.407H1198.71a27.844,27.844,0,1,0,0,55.687h39.534a27.875,27.875,0,0,0,27.844-27.844Z" transform="translate(-1108.866 -379.407)" fill="#fff"/>
      <path id="Caminho_10089-3" data-name="Caminho 10089" d="M1266.088,379.407H1198.71a27.844,27.844,0,1,0,0,55.687h39.534a27.875,27.875,0,0,0,27.844-27.844Zm-67.378,54.426a26.582,26.582,0,1,1,0-53.164h66.116V407.25a26.612,26.612,0,0,1-26.582,26.582Z" transform="translate(-1108.866 -379.407)" fill="#ef3d59"/>
    </g>
    <g id="Grupo_12324" data-name="Grupo 12324" transform="translate(971.221 321.813)">
      <g id="clock" transform="translate(0 0)">
        <path id="Caminho_10048" data-name="Caminho 10048" d="M217.341,80.364a169.041,169.041,0,0,1,0,168.927A168.916,168.916,0,0,1,71.048,333.728V164.82Z" transform="translate(97.859 4.079)" fill="url(#linear-gradient)" style="mix-blend-mode: multiply;isolation: isolate"/>
        <path id="Caminho_10642" data-name="Caminho 10642" d="M206.442,24.883a164.206,164.206,0,0,1,17.475-2.76,172.085,172.085,0,0,1,17.655-.911l13.773,156.748-13.773,12.15-.013-.026,10.418-3.847-1.521,5.1-9.419-12.964L189.365,29.439A164.257,164.257,0,0,1,206.442,24.883Z" transform="matrix(0.588, -0.809, 0.809, 0.588, -130.328, 258.66)" fill="#fff"/>
        <path id="Caminho_10643" data-name="Caminho 10643" d="M206.442,24.883a164.206,164.206,0,0,1,17.475-2.76,172.085,172.085,0,0,1,17.655-.911v168.9l-.013-.026v-.02l-.02-.013L189.365,29.439A164.257,164.257,0,0,1,206.442,24.883Z" transform="translate(-135.27 203.094) rotate(-45)" fill="#fff"/>
        <g id="Grupo_12257" data-name="Grupo 12257" transform="translate(84.448)">
          <g id="Grupo_12256" data-name="Grupo 12256">
            <path id="Caminho_10038" data-name="Caminho 10038" d="M189.365,43.826l84.458,146.286V21.213A167.972,167.972,0,0,0,189.365,43.826Z" transform="translate(-189.365 -21.213)" fill="#fff"/>
            <path id="Caminho_10641" data-name="Caminho 10641" d="M189.365,43.826l84.458,146.286V21.213A167.972,167.972,0,0,0,189.365,43.826Z" transform="translate(-189.365 -21.213)" fill="#fff"/>
          </g>
        </g>
        <g id="Grupo_12259" data-name="Grupo 12259" transform="translate(22.614 22.613)">
          <g id="Grupo_12258" data-name="Grupo 12258" transform="translate(0)">
            <path id="Caminho_10039" data-name="Caminho 10039" d="M189.365,98.883l146.293,84.456L251.2,37.053A169.3,169.3,0,0,0,189.365,98.883Z" transform="matrix(0.719, -0.695, 0.695, 0.719, -224.237, 247.23)" fill="#efc958"/>
            <path id="Caminho_10644" data-name="Caminho 10644" d="M189.365,98.883l146.293,84.456L251.2,37.053A169.3,169.3,0,0,0,189.365,98.883Z" transform="matrix(0.719, -0.695, 0.695, 0.719, -224.237, 247.23)" fill="#efc958"/>
          </g>
        </g>
        <g id="Grupo_12265" data-name="Grupo 12265" transform="translate(22.614 168.899)">
          <g id="Grupo_12264" data-name="Grupo 12264" transform="translate(0)">
            <path id="Caminho_10042" data-name="Caminho 10042" d="M189.365,224a169.341,169.341,0,0,0,61.834,61.82l84.458-146.291s23.834-17.719-12.74,3.4S189.365,224,189.365,224Z" transform="translate(-189.365 -139.524)" fill="#ef3d59"/>
            <path id="Caminho_10640" data-name="Caminho 10640" d="M189.365,224a169.341,169.341,0,0,0,61.834,61.82l84.458-146.291Z" transform="matrix(0.966, 0.259, -0.259, 0.966, -144.377, -225.22)" fill="#ef3d59"/>
          </g>
        </g>
        <g id="Grupo_12267" data-name="Grupo 12267" transform="translate(84.448 168.899)">
          <g id="Grupo_12266" data-name="Grupo 12266" transform="translate(0)">
            <path id="Caminho_10043" data-name="Caminho 10043" d="M189.365,285.815a167.918,167.918,0,0,0,84.458,22.617V139.524Z" transform="translate(-189.365 -139.524)" fill="#efc958"/>
            <path id="Caminho_10083" data-name="Caminho 10083" d="M189.365,285.815a167.918,167.918,0,0,0,84.458,22.617V139.524Z" transform="translate(-189.365 -139.524)" fill="#ef3d59"/>
          </g>
        </g>
        <g id="Grupo_12269" data-name="Grupo 12269" transform="translate(168.907 168.899)">
          <g id="Grupo_12268" data-name="Grupo 12268" transform="translate(0)">
            <path id="Caminho_10044" data-name="Caminho 10044" d="M130.206,139.524V308.432a167.9,167.9,0,0,0,84.454-22.617Z" transform="translate(-130.206 -139.524)" fill="#efc958"/>
            <path id="Caminho_10645" data-name="Caminho 10645" d="M130.206,139.524V308.432a167.9,167.9,0,0,0,84.454-22.617Z" transform="translate(-130.206 -139.524)" fill="#efc958"/>
            <path id="Caminho_10646" data-name="Caminho 10646" d="M130.206,139.524V308.432a167.9,167.9,0,0,0,84.454-22.617Z" transform="translate(-130.206 -139.524)" fill="#efc958"/>
          </g>
        </g>
        <g id="Grupo_12271" data-name="Grupo 12271" transform="translate(168.907 168.899)">
          <g id="Grupo_12270" data-name="Grupo 12270">
            <path id="Caminho_10045" data-name="Caminho 10045" d="M86.889,139.524l84.454,146.291A169.321,169.321,0,0,0,233.182,224Z" transform="translate(-86.889 -139.524)" fill="#fff"/>
            <path id="Caminho_10647" data-name="Caminho 10647" d="M130.206,139.524V308.432a167.9,167.9,0,0,0,84.454-22.617L137.079,158.492Z" transform="translate(-167.156 -104.323) rotate(-17)" fill="#efc958"/>
          </g>
        </g>
        <g id="Grupo_12275" data-name="Grupo 12275" transform="translate(168.907 84.443)">
          <g id="Grupo_12274" data-name="Grupo 12274">
            <path id="Caminho_10047" data-name="Caminho 10047" d="M71.048,164.82H239.955a167.961,167.961,0,0,0-22.614-84.456Z" transform="translate(-71.048 -80.364)" fill="#fff"/>
          </g>
        </g>
        <g id="Grupo_12277" data-name="Grupo 12277" transform="translate(168.907 22.613)">
          <g id="Grupo_12276" data-name="Grupo 12276">
            <path id="Caminho_10049" data-name="Caminho 10049" d="M86.889,183.339,233.182,98.883a169.283,169.283,0,0,0-61.838-61.83Z" transform="translate(-86.889 -37.053)" fill="#fff"/>
          </g>
        </g>
        <g id="Grupo_12279" data-name="Grupo 12279" transform="translate(168.907)">
          <g id="Grupo_12278" data-name="Grupo 12278" transform="translate(0)">
            <path id="Caminho_10050" data-name="Caminho 10050" d="M130.206,21.213v168.9L214.66,43.826A167.953,167.953,0,0,0,130.206,21.213Z" transform="translate(-130.206 -21.213)" fill="#fff"/>
          </g>
        </g>
        <path id="Caminho_10051" data-name="Caminho 10051" d="M206.442,24.883a164.206,164.206,0,0,1,17.475-2.76,172.085,172.085,0,0,1,17.655-.911v168.9l-.013-.026v-.02l-.02-.013L189.365,29.439A164.257,164.257,0,0,1,206.442,24.883Z" transform="translate(-133.309 127.854) rotate(-31)" fill="#fff"/>
        <g id="Grupo_12283" data-name="Grupo 12283" transform="translate(32.742 32.117)" style="mix-blend-mode: multiply;isolation: isolate">
          <g id="Grupo_12282" data-name="Grupo 12282">
            <path id="Caminho_10057" data-name="Caminho 10057" d="M362.434,213.659A136.8,136.8,0,0,0,93.551,167.414a136.795,136.795,0,1,1,268.883,46.245Z" transform="translate(-93.551 -43.71)" fill="#9ea0a1"/>
          </g>
        </g>
        <path id="Caminho_10084" data-name="Caminho 10084" d="M0,146.291c24.831,14.393,17.729,14.679,48.492,14.679L84.458,0,33.471,77.076Z" transform="matrix(0.875, -0.485, 0.485, 0.875, 97.337, 209.954)" fill="#ef3d59"/>
        <g id="Grupo_12290" data-name="Grupo 12290" transform="translate(164.434 44.276)">
          <g id="Grupo_12287" data-name="Grupo 12287" transform="translate(0)">
            <g id="Grupo_12286" data-name="Grupo 12286">
              <path id="Caminho_10059" data-name="Caminho 10059" d="M190.7,80.8a4.487,4.487,0,0,0,4.487-4.484V56.713a4.48,4.48,0,1,0-8.961,0V76.32A4.481,4.481,0,0,0,190.7,80.8Z" transform="translate(-186.221 -52.228)" fill="#1e2d36"/>
            </g>
          </g>
          <g id="Grupo_12289" data-name="Grupo 12289" transform="translate(0 220.683)">
            <g id="Grupo_12288" data-name="Grupo 12288" transform="translate(0 0)">
              <path id="Caminho_10060" data-name="Caminho 10060" d="M190.7,235.375a4.477,4.477,0,0,0,4.487-4.47V211.294a4.48,4.48,0,1,0-8.961,0V230.9A4.47,4.47,0,0,0,190.7,235.375Z" transform="translate(-186.221 -206.813)" fill="#1e2d36"/>
            </g>
          </g>
        </g>
        <g id="Grupo_12295" data-name="Grupo 12295" transform="translate(107.342 63.358)">
          <g id="Grupo_12292" data-name="Grupo 12292" transform="translate(110.339)">
            <g id="Grupo_12291" data-name="Grupo 12291" transform="translate(0)">
              <path id="Caminho_10061" data-name="Caminho 10061" d="M147.726,85.573a1.492,1.492,0,0,0,1.293-.747l9.806-16.99a1.487,1.487,0,0,0-.538-2.046,1.5,1.5,0,0,0-2.046.554L146.432,83.33a1.5,1.5,0,0,0,.557,2.039A1.411,1.411,0,0,0,147.726,85.573Z" transform="translate(-146.237 -65.594)" fill="#1e2d36"/>
            </g>
          </g>
          <g id="Grupo_12294" data-name="Grupo 12294" transform="translate(0 191.111)">
            <g id="Grupo_12293" data-name="Grupo 12293">
              <path id="Caminho_10062" data-name="Caminho 10062" d="M225.024,219.441a1.47,1.47,0,0,0,1.292-.751l9.8-16.985a1.494,1.494,0,1,0-2.588-1.495l-9.8,16.994a1.491,1.491,0,0,0,.542,2.037A1.536,1.536,0,0,0,225.024,219.441Z" transform="translate(-223.527 -199.465)" fill="#1e2d36"/>
            </g>
          </g>
        </g>
        <g id="Grupo_12298" data-name="Grupo 12298" transform="translate(63.368 217.671)">
          <g id="Grupo_12297" data-name="Grupo 12297" transform="translate(0)">
            <g id="Grupo_12296" data-name="Grupo 12296">
              <path id="Caminho_10063" data-name="Caminho 10063" d="M250.788,186.482a1.584,1.584,0,0,0,.752-.191l16.987-9.816a1.491,1.491,0,1,0-1.49-2.583L250.043,183.7a1.5,1.5,0,0,0-.541,2.044A1.472,1.472,0,0,0,250.788,186.482Z" transform="translate(-249.301 -173.688)" fill="#1e2d36"/>
            </g>
          </g>
        </g>
        <g id="Grupo_12301" data-name="Grupo 12301" transform="translate(44.282 164.429)">
          <g id="Grupo_12300" data-name="Grupo 12300" transform="translate(0)">
            <g id="Grupo_12299" data-name="Grupo 12299">
              <path id="Caminho_10064" data-name="Caminho 10064" d="M261.123,145.354h19.619a4.48,4.48,0,1,0,0-8.961H261.123a4.48,4.48,0,0,0,0,8.961Z" transform="translate(-256.643 -136.393)" fill="#1e2d36"/>
            </g>
          </g>
        </g>
        <g id="Grupo_12325" data-name="Grupo 12325" transform="translate(265.557 164.429)">
          <g id="Grupo_12300-2" data-name="Grupo 12300" transform="translate(0)">
            <g id="Grupo_12299-2" data-name="Grupo 12299">
              <g id="Grupo_12686" data-name="Grupo 12686" transform="translate(-96.65 4.47)">
                <path id="Caminho_10046" data-name="Caminho 10046" d="M71.048,139.524,217.341,224a168.059,168.059,0,0,0,22.614-84.471Z" transform="translate(-71.048 -139.524)" fill="#fff"/>
              </g>
              <path id="Caminho_10064-2" data-name="Caminho 10064" d="M261.123,145.354h19.619a4.48,4.48,0,1,0,0-8.961H261.123a4.48,4.48,0,0,0,0,8.961Z" transform="translate(-256.643 -136.393)" fill="#1e2d36"/>
            </g>
          </g>
        </g>
        <g id="Grupo_12306" data-name="Grupo 12306" transform="translate(63.368 107.335)">
          <g id="Grupo_12303" data-name="Grupo 12303" transform="translate(191.107 110.336)">
            <g id="Grupo_12302" data-name="Grupo 12302">
              <path id="Caminho_10065" data-name="Caminho 10065" d="M133.91,186.482a1.47,1.47,0,0,0,1.293-.739,1.487,1.487,0,0,0-.542-2.044l-16.984-9.806a1.494,1.494,0,0,0-1.495,2.587l16.988,9.812A1.552,1.552,0,0,0,133.91,186.482Z" transform="translate(-115.432 -173.688)" fill="#1e2d36"/>
            </g>
          </g>
          <g id="Grupo_12305" data-name="Grupo 12305" transform="translate(0 0)">
            <g id="Grupo_12304" data-name="Grupo 12304" transform="translate(0)">
              <path id="Caminho_10066" data-name="Caminho 10066" d="M267.782,109.2a1.489,1.489,0,0,0,1.293-.758,1.472,1.472,0,0,0-.548-2.024L251.541,96.6a1.494,1.494,0,0,0-1.5,2.585L267.037,109A1.5,1.5,0,0,0,267.782,109.2Z" transform="translate(-249.301 -96.399)" fill="#1e2d36"/>
              <path id="Caminho_10082" data-name="Caminho 10082" d="M250.8,109.2a1.489,1.489,0,0,1-1.293-.758,1.472,1.472,0,0,1,.548-2.024L267.038,96.6a1.494,1.494,0,0,1,1.5,2.585L251.541,109A1.5,1.5,0,0,1,250.8,109.2Z" transform="translate(-56.579 -96.399)" fill="#1e2d36"/>
            </g>
          </g>
        </g>
        <g id="Grupo_12311" data-name="Grupo 12311" transform="translate(107.339 63.358)">
          <g id="Grupo_12308" data-name="Grupo 12308" transform="translate(110.337 191.114)">
            <g id="Grupo_12307" data-name="Grupo 12307" transform="translate(0)">
              <path id="Caminho_10067" data-name="Caminho 10067" d="M157.539,219.44a1.514,1.514,0,0,0,.751-.2,1.476,1.476,0,0,0,.541-2.037l-9.806-16.975a1.482,1.482,0,0,0-2.044-.56,1.5,1.5,0,0,0-.542,2.04l9.809,16.981A1.475,1.475,0,0,0,157.539,219.44Z" transform="translate(-146.238 -199.467)" fill="#1e2d36"/>
            </g>
          </g>
          <g id="Grupo_12310" data-name="Grupo 12310" transform="translate(0)">
            <g id="Grupo_12309" data-name="Grupo 12309">
              <path id="Caminho_10068" data-name="Caminho 10068" d="M234.837,85.58a1.456,1.456,0,0,0,.75-.211,1.492,1.492,0,0,0,.537-2.039l-9.8-16.985a1.494,1.494,0,1,0-2.588,1.492l9.8,16.99A1.516,1.516,0,0,0,234.837,85.58Z" transform="translate(-223.527 -65.594)" fill="#1e2d36"/>
            </g>
          </g>
        </g>
        <g id="Grupo_12313" data-name="Grupo 12313" transform="translate(165.172 101.344)">
          <g id="Grupo_12312" data-name="Grupo 12312" transform="translate(0 0)">
            <path id="Caminho_10069" data-name="Caminho 10069" d="M190.482,163.5a3.733,3.733,0,0,0,3.737-3.739V95.945a3.736,3.736,0,1,0-7.472,0v63.813A3.73,3.73,0,0,0,190.482,163.5Z" transform="translate(-186.747 -92.203)" fill="#1e2d36"/>
          </g>
        </g>
        <g id="Grupo_12315" data-name="Grupo 12315" transform="translate(164.695 165.307)" style="mix-blend-mode: multiply;isolation: isolate">
          <g id="Grupo_12314" data-name="Grupo 12314" transform="translate(0)">
            <path id="Caminho_10070" data-name="Caminho 10070" d="M186.733,137.111a3.63,3.63,0,0,0-1.168-.09,3.738,3.738,0,0,0-3.43,4.013l7.081,88.531a3.735,3.735,0,1,0,7.445-.6l-7.078-88.523A3.721,3.721,0,0,0,186.733,137.111Z" transform="translate(-182.123 -137.008)" fill="#adafb0"/>
          </g>
        </g>
        <g id="Grupo_12317" data-name="Grupo 12317" transform="translate(165.169 165.167)">
          <g id="Grupo_12316" data-name="Grupo 12316" transform="translate(0)">
            <path id="Caminho_10071" data-name="Caminho 10071" d="M191.444,137.086a3.752,3.752,0,0,0-4.887,3.562l.28,88.813a3.733,3.733,0,0,0,7.466-.027l-.277-88.8A3.733,3.733,0,0,0,191.444,137.086Z" transform="translate(-186.557 -136.91)" fill="#1e2d36"/>
          </g>
        </g>
        <g id="Grupo_12319" data-name="Grupo 12319" transform="translate(155.192 155.182)">
          <g id="Grupo_12318" data-name="Grupo 12318" transform="translate(0)">
            <path id="Caminho_10072" data-name="Caminho 10072" d="M185.96,155.1a13.71,13.71,0,1,1,18.983-3.947A13.72,13.72,0,0,1,185.96,155.1Z" transform="translate(-179.754 -129.916)" fill="#1e2d36"/>
          </g>
        </g>
        <g id="Grupo_12321" data-name="Grupo 12321" transform="translate(164.066 76.825)" style="mix-blend-mode: multiply;isolation: isolate">
          <g id="Grupo_12320" data-name="Grupo 12320" transform="translate(0)">
            <path id="Caminho_10073" data-name="Caminho 10073" d="M204.163,75.813l-30.5,87.279a4.178,4.178,0,0,1,2.331,1.755c1.362,2.19.371,5.269-2.217,6.9s-5.8,1.156-7.176-1.022c-1.363-2.2-.367-5.286,2.221-6.9a6.2,6.2,0,0,1,3.466-.946l30.5-87.287a.87.87,0,0,1,.353-.434.889.889,0,0,1,.572-.113A.566.566,0,0,1,204.163,75.813Z" transform="translate(-165.989 -75.028)" fill="#adafb0"/>
          </g>
        </g>
        <g id="Grupo_12323" data-name="Grupo 12323" transform="translate(163.412 67.324)">
          <g id="Grupo_12322" data-name="Grupo 12322" transform="translate(0)">
            <path id="Caminho_10074" data-name="Caminho 10074" d="M202.845,69.308,178.2,164.882a5.423,5.423,0,0,1,2.575,2.164,5.534,5.534,0,1,1-4.03-2.531l24.641-95.584a.8.8,0,0,1,.331-.455.81.81,0,0,1,.585-.081A.746.746,0,0,1,202.845,69.308Z" transform="translate(-170.632 -68.372)" fill="#efc958"/>
          </g>
        </g>
        <path id="Caminho_10085" data-name="Caminho 10085" d="M232.125,325.051c78.725,0,142.756-64.051,142.756-142.768S310.851,39.522,232.125,39.522,89.366,103.57,89.366,182.283,153.4,325.051,232.125,325.051Zm0-273.576c72.133,0,130.816,58.674,130.816,130.808a130.817,130.817,0,0,1-261.634,0C101.308,110.149,159.991,51.475,232.125,51.475Z" transform="translate(-63.218 -13.384)" fill="#1e2d36"/>
      </g>
      <g id="hand" transform="translate(81.79 297.717)">
        <path id="Caminho_10075" data-name="Caminho 10075" d="M335.01,295.4l-85.628-58.913a26.269,26.269,0,0,0-26.453-5.149l-2.133,1.1c-.308.148-.611.308-.911.468l-64.895,33.418h-36.98v7.963L77.442,249A16.377,16.377,0,0,0,52.481,261.04l96.373,60.081c.117.107.221.231.338.336l77.166-31.916L335.01,361.05Z" transform="translate(-52.481 -229.76)" fill="#ffd3ba"/>
        <path id="Caminho_10076" data-name="Caminho 10076" d="M52.481,304.329l101.055,76.765V310.158L81.571,253.047C75.209,263.388,61.258,289.649,52.481,304.329Z" transform="translate(158.993 -219.803)" fill="#00A443"/>
        <path id="Caminho_10077" data-name="Caminho 10077" d="M230.02,259.143c-.488-9.051-2.467-5.755-11.512-5.266l-74.284-6.157a16.375,16.375,0,0,0-13.532,24.187l14.045-.759,14.387,6.745,13.829-8.264,71.632-3.862C245.483,263.582,230.155,261.652,230.02,259.143Z" transform="translate(-70.898 -222.08)" fill="#998376"/>
        <path id="Caminho_10078" data-name="Caminho 10078" d="M243.184,268.847a16.375,16.375,0,0,0-14.815-23.421h-84.43a16.373,16.373,0,0,0-14.815,23.421Z" transform="translate(-69.385 -223.061)" fill="#ffd3ba"/>
      </g>
    </g>
    <text id="Intermediário" transform="translate(864 353)" fill="#efc958" font-size="18" font-family="Roboto-Bold, Roboto" font-weight="700"><tspan x="0" y="0">Intermediário</tspan></text>
    <text id="Fora_ponta" data-name="Fora ponta" transform="translate(1192 279)" fill="#1e2d36" font-size="18" font-family="Roboto-Bold, Roboto" font-weight="700"><tspan x="0" y="0">Fora ponta</tspan></text>
    <text id="Ponta" transform="translate(929 643)" fill="#ef3d59" font-size="18" font-family="Roboto-Bold, Roboto" font-weight="700"><tspan x="0" y="0">Ponta</tspan></text>
    <g id="Grupo_12341" data-name="Grupo 12341" transform="translate(-266.111 -544.135) rotate(24)" opacity="0.7">
      <g id="Grupo_12333" data-name="Grupo 12333" transform="translate(1803.472 138.806)">
        <path id="Caminho_10088" data-name="Caminho 10088" d="M1865.573,214.279a18.024,18.024,0,0,1-3.284-.3,6.959,6.959,0,0,1-5.692-6.842v-1.162h1.675v1.162a5.283,5.283,0,0,0,4.32,5.194,16.3,16.3,0,0,0,5.958,0,5.282,5.282,0,0,0,.637-10.229l-7.739-2.458a6.958,6.958,0,0,1,.839-13.473,17.962,17.962,0,0,1,6.568,0,6.959,6.959,0,0,1,5.692,6.842v1.162h-1.675V193.01a5.283,5.283,0,0,0-4.32-5.194,16.3,16.3,0,0,0-5.959,0,5.283,5.283,0,0,0-.637,10.229l7.739,2.458a6.958,6.958,0,0,1-.839,13.473A18.008,18.008,0,0,1,1865.573,214.279Z" transform="translate(-1856.598 -181.613)" fill="#1e2d36"/>
        <rect id="Retângulo_17705" data-name="Retângulo 17705" width="1.675" height="5.091" transform="translate(8.138 0)" fill="#1e2d36"/>
        <rect id="Retângulo_17706" data-name="Retângulo 17706" width="1.675" height="5.091" transform="translate(8.138 31.776)" fill="#1e2d36"/>
      </g>
      <g id="Grupo_12340" data-name="Grupo 12340" transform="translate(1776.698 121.485)">
        <g id="Grupo_12334" data-name="Grupo 12334" transform="translate(34.908)">
          <rect id="Retângulo_17707" data-name="Retângulo 17707" width="1.675" height="5.253" fill="#1e2d36"/>
          <rect id="Retângulo_17708" data-name="Retângulo 17708" width="1.675" height="5.244" transform="translate(0 66.265)" fill="#1e2d36"/>
        </g>
        <g id="Grupo_12335" data-name="Grupo 12335" transform="translate(17.144 4.372)">
          <rect id="Retângulo_17709" data-name="Retângulo 17709" width="1.675" height="5.247" transform="translate(0 0.84) rotate(-30.083)" fill="#1e2d36"/>
          <rect id="Retângulo_17710" data-name="Retângulo 17710" width="1.675" height="5.25" transform="matrix(0.866, -0.499, 0.499, 0.866, 33.131, 58.223)" fill="#1e2d36"/>
        </g>
        <g id="Grupo_12336" data-name="Grupo 12336" transform="translate(4.365 17.152)">
          <rect id="Retângulo_17711" data-name="Retângulo 17711" width="1.675" height="5.25" transform="translate(0 1.451) rotate(-60.039)" fill="#1e2d36"/>
          <rect id="Retângulo_17712" data-name="Retângulo 17712" width="1.675" height="5.25" transform="translate(57.385 34.584) rotate(-60.038)" fill="#1e2d36"/>
        </g>
        <g id="Grupo_12337" data-name="Grupo 12337" transform="translate(0 34.917)">
          <rect id="Retângulo_17713" data-name="Retângulo 17713" width="5.244" height="1.675" fill="#1e2d36"/>
          <rect id="Retângulo_17714" data-name="Retângulo 17714" width="5.244" height="1.675" transform="translate(66.256)" fill="#1e2d36"/>
        </g>
        <g id="Grupo_12338" data-name="Grupo 12338" transform="translate(4.365 17.152)">
          <rect id="Retângulo_17715" data-name="Retângulo 17715" width="5.25" height="1.675" transform="translate(0 35.753) rotate(-29.942)" fill="#1e2d36"/>
          <rect id="Retângulo_17716" data-name="Retângulo 17716" width="5.25" height="1.675" transform="translate(57.385 2.621) rotate(-29.942)" fill="#1e2d36"/>
        </g>
        <g id="Grupo_12339" data-name="Grupo 12339" transform="translate(17.144 4.365)">
          <rect id="Retângulo_17717" data-name="Retângulo 17717" width="5.247" height="1.675" transform="translate(0 61.932) rotate(-59.915)" fill="#1e2d36"/>
          <rect id="Retângulo_17718" data-name="Retângulo 17718" width="5.25" height="1.675" transform="translate(33.131 4.549) rotate(-60.036)" fill="#1e2d36"/>
        </g>
      </g>
    </g>
    <g id="Grupo_12346" data-name="Grupo 12346" transform="matrix(0.995, -0.105, 0.105, 0.995, -900.269, 523.774)" opacity="0.8">
      <g id="Grupo_12333-2" data-name="Grupo 12333" transform="translate(1803.472 138.806)">
        <path id="Caminho_10088-2" data-name="Caminho 10088" d="M1865.573,214.279a18.024,18.024,0,0,1-3.284-.3,6.959,6.959,0,0,1-5.692-6.842v-1.162h1.675v1.162a5.283,5.283,0,0,0,4.32,5.194,16.3,16.3,0,0,0,5.958,0,5.282,5.282,0,0,0,.637-10.229l-7.739-2.458a6.958,6.958,0,0,1,.839-13.473,17.962,17.962,0,0,1,6.568,0,6.959,6.959,0,0,1,5.692,6.842v1.162h-1.675V193.01a5.283,5.283,0,0,0-4.32-5.194,16.3,16.3,0,0,0-5.959,0,5.283,5.283,0,0,0-.637,10.229l7.739,2.458a6.958,6.958,0,0,1-.839,13.473A18.008,18.008,0,0,1,1865.573,214.279Z" transform="translate(-1856.598 -181.613)" fill="#ef3d59"/>
        <rect id="Retângulo_17705-2" data-name="Retângulo 17705" width="1.675" height="5.091" transform="translate(8.138 0)" fill="#ef3d59"/>
        <rect id="Retângulo_17706-2" data-name="Retângulo 17706" width="1.675" height="5.091" transform="translate(8.138 31.776)" fill="#ef3d59"/>
      </g>
      <g id="Grupo_12340-2" data-name="Grupo 12340" transform="translate(1776.698 121.485)">
        <g id="Grupo_12334-2" data-name="Grupo 12334" transform="translate(34.908)">
          <rect id="Retângulo_17707-2" data-name="Retângulo 17707" width="1.675" height="5.253" fill="#ef3d59"/>
          <rect id="Retângulo_17708-2" data-name="Retângulo 17708" width="1.675" height="5.244" transform="translate(0 66.265)" fill="#ef3d59"/>
        </g>
        <g id="Grupo_12335-2" data-name="Grupo 12335" transform="translate(17.144 4.372)">
          <rect id="Retângulo_17709-2" data-name="Retângulo 17709" width="1.675" height="5.247" transform="translate(0 0.84) rotate(-30.083)" fill="#ef3d59"/>
          <rect id="Retângulo_17710-2" data-name="Retângulo 17710" width="1.675" height="5.25" transform="matrix(0.866, -0.499, 0.499, 0.866, 33.131, 58.223)" fill="#ef3d59"/>
        </g>
        <g id="Grupo_12336-2" data-name="Grupo 12336" transform="translate(4.365 17.152)">
          <rect id="Retângulo_17711-2" data-name="Retângulo 17711" width="1.675" height="5.25" transform="translate(0 1.451) rotate(-60.039)" fill="#ef3d59"/>
          <rect id="Retângulo_17712-2" data-name="Retângulo 17712" width="1.675" height="5.25" transform="translate(57.385 34.584) rotate(-60.038)" fill="#ef3d59"/>
        </g>
        <g id="Grupo_12337-2" data-name="Grupo 12337" transform="translate(0 34.917)">
          <rect id="Retângulo_17713-2" data-name="Retângulo 17713" width="5.244" height="1.675" fill="#ef3d59"/>
          <rect id="Retângulo_17714-2" data-name="Retângulo 17714" width="5.244" height="1.675" transform="translate(66.256)" fill="#ef3d59"/>
        </g>
        <g id="Grupo_12338-2" data-name="Grupo 12338" transform="translate(4.365 17.152)">
          <rect id="Retângulo_17715-2" data-name="Retângulo 17715" width="5.25" height="1.675" transform="translate(0 35.753) rotate(-29.942)" fill="#ef3d59"/>
          <rect id="Retângulo_17716-2" data-name="Retângulo 17716" width="5.25" height="1.675" transform="translate(57.385 2.621) rotate(-29.942)" fill="#ef3d59"/>
        </g>
        <g id="Grupo_12339-2" data-name="Grupo 12339" transform="translate(17.144 4.365)">
          <rect id="Retângulo_17717-2" data-name="Retângulo 17717" width="5.247" height="1.675" transform="translate(0 61.932) rotate(-59.915)" fill="#ef3d59"/>
          <rect id="Retângulo_17718-2" data-name="Retângulo 17718" width="5.25" height="1.675" transform="translate(33.131 4.549) rotate(-60.036)" fill="#ef3d59"/>
        </g>
      </g>
    </g>
    <g id="Grupo_12431" data-name="Grupo 12431" transform="matrix(0.999, -0.052, 0.052, 0.999, -840.159, 511.457)" opacity="0.8">
      <g id="Grupo_12333-3" data-name="Grupo 12333" transform="translate(1786.122 127.582)">
        <path id="Caminho_10088-3" data-name="Caminho 10088" d="M1859.757,195.867a6.345,6.345,0,0,1-1.156-.107,2.45,2.45,0,0,1-2-2.408v-.409h.59v.409a1.86,1.86,0,0,0,1.521,1.828,5.738,5.738,0,0,0,2.1,0,1.859,1.859,0,0,0,.224-3.6l-2.724-.865a2.449,2.449,0,0,1,.3-4.743,6.323,6.323,0,0,1,2.312,0,2.45,2.45,0,0,1,2,2.408v.409h-.59v-.409a1.86,1.86,0,0,0-1.521-1.828,5.739,5.739,0,0,0-2.1,0,1.86,1.86,0,0,0-.224,3.6l2.724.865a2.449,2.449,0,0,1-.3,4.743A6.341,6.341,0,0,1,1859.757,195.867Z" transform="translate(-1856.598 -184.369)" fill="#ef3d59"/>
        <rect id="Retângulo_17705-3" data-name="Retângulo 17705" width="0.59" height="1.792" transform="translate(2.864 0)" fill="#ef3d59"/>
        <rect id="Retângulo_17706-3" data-name="Retângulo 17706" width="0.59" height="1.792" transform="translate(2.864 11.185)" fill="#ef3d59"/>
      </g>
      <g id="Grupo_12340-3" data-name="Grupo 12340" transform="translate(1776.698 121.485)">
        <g id="Grupo_12334-3" data-name="Grupo 12334" transform="translate(12.288)">
          <rect id="Retângulo_17707-3" data-name="Retângulo 17707" width="0.59" height="1.849" fill="#ef3d59"/>
          <rect id="Retângulo_17708-3" data-name="Retângulo 17708" width="0.59" height="1.846" transform="translate(0 23.325)" fill="#ef3d59"/>
        </g>
        <g id="Grupo_12335-3" data-name="Grupo 12335" transform="translate(6.035 1.539)">
          <rect id="Retângulo_17709-3" data-name="Retângulo 17709" width="0.59" height="1.847" transform="translate(0 0.296) rotate(-30.083)" fill="#ef3d59"/>
          <rect id="Retângulo_17710-3" data-name="Retângulo 17710" width="0.59" height="1.848" transform="matrix(0.866, -0.499, 0.499, 0.866, 11.662, 20.494)" fill="#ef3d59"/>
        </g>
        <g id="Grupo_12336-3" data-name="Grupo 12336" transform="translate(1.537 6.037)">
          <rect id="Retângulo_17711-3" data-name="Retângulo 17711" width="0.59" height="1.848" transform="translate(0 0.511) rotate(-60.039)" fill="#ef3d59"/>
          <rect id="Retângulo_17712-3" data-name="Retângulo 17712" width="0.59" height="1.848" transform="translate(20.199 12.173) rotate(-60.038)" fill="#ef3d59"/>
        </g>
        <g id="Grupo_12337-3" data-name="Grupo 12337" transform="translate(0 12.291)">
          <rect id="Retângulo_17713-3" data-name="Retângulo 17713" width="1.846" height="0.59" fill="#ef3d59"/>
          <rect id="Retângulo_17714-3" data-name="Retângulo 17714" width="1.846" height="0.59" transform="translate(23.322)" fill="#ef3d59"/>
        </g>
        <g id="Grupo_12338-3" data-name="Grupo 12338" transform="translate(1.536 6.038)">
          <rect id="Retângulo_17715-3" data-name="Retângulo 17715" width="1.848" height="0.59" transform="translate(0 12.585) rotate(-29.942)" fill="#ef3d59"/>
          <rect id="Retângulo_17716-3" data-name="Retângulo 17716" width="1.848" height="0.59" transform="translate(20.199 0.922) rotate(-29.942)" fill="#ef3d59"/>
        </g>
        <g id="Grupo_12339-3" data-name="Grupo 12339" transform="translate(6.035 1.537)">
          <rect id="Retângulo_17717-3" data-name="Retângulo 17717" width="1.847" height="0.59" transform="translate(0 21.8) rotate(-59.915)" fill="#ef3d59"/>
          <rect id="Retângulo_17718-3" data-name="Retângulo 17718" width="1.848" height="0.59" transform="translate(11.662 1.601) rotate(-60.036)" fill="#ef3d59"/>
        </g>
      </g>
    </g>
    <g id="Grupo_12435" data-name="Grupo 12435" transform="translate(-779.139 -57.25) rotate(16)" opacity="0.8">
      <g id="Grupo_12333-4" data-name="Grupo 12333" transform="translate(1790.288 130.277)">
        <path id="Caminho_10088-4" data-name="Caminho 10088" d="M1861.154,200.287a9.15,9.15,0,0,1-1.667-.154,3.532,3.532,0,0,1-2.889-3.473v-.59h.85v.59a2.682,2.682,0,0,0,2.193,2.637,8.275,8.275,0,0,0,3.024,0,2.681,2.681,0,0,0,.323-5.192l-3.928-1.248a3.532,3.532,0,0,1,.426-6.839,9.118,9.118,0,0,1,3.333,0,3.532,3.532,0,0,1,2.889,3.473v.59h-.85v-.59a2.681,2.681,0,0,0-2.193-2.636,8.275,8.275,0,0,0-3.025,0,2.681,2.681,0,0,0-.323,5.192l3.928,1.248a3.532,3.532,0,0,1-.426,6.839A9.143,9.143,0,0,1,1861.154,200.287Z" transform="translate(-1856.598 -183.707)" fill="#ef3d59"/>
        <rect id="Retângulo_17705-4" data-name="Retângulo 17705" width="0.85" height="2.584" transform="translate(4.13 0)" fill="#ef3d59"/>
        <rect id="Retângulo_17706-4" data-name="Retângulo 17706" width="0.85" height="2.584" transform="translate(4.13 16.129)" fill="#ef3d59"/>
      </g>
      <g id="Grupo_12340-4" data-name="Grupo 12340" transform="translate(1776.698 121.485)">
        <g id="Grupo_12334-4" data-name="Grupo 12334" transform="translate(17.719)">
          <rect id="Retângulo_17707-4" data-name="Retângulo 17707" width="0.85" height="2.666" fill="#ef3d59"/>
          <rect id="Retângulo_17708-4" data-name="Retângulo 17708" width="0.85" height="2.662" transform="translate(0 33.634)" fill="#ef3d59"/>
        </g>
        <g id="Grupo_12335-4" data-name="Grupo 12335" transform="translate(8.702 2.219)">
          <rect id="Retângulo_17709-4" data-name="Retângulo 17709" width="0.85" height="2.663" transform="translate(0 0.426) rotate(-30.083)" fill="#ef3d59"/>
          <rect id="Retângulo_17710-4" data-name="Retângulo 17710" width="0.85" height="2.665" transform="matrix(0.866, -0.499, 0.499, 0.866, 16.817, 29.552)" fill="#ef3d59"/>
        </g>
        <g id="Grupo_12336-4" data-name="Grupo 12336" transform="translate(2.216 8.706)">
          <rect id="Retângulo_17711-4" data-name="Retângulo 17711" width="0.85" height="2.665" transform="translate(0 0.737) rotate(-60.039)" fill="#ef3d59"/>
          <rect id="Retângulo_17712-4" data-name="Retângulo 17712" width="0.85" height="2.665" transform="translate(29.127 17.554) rotate(-60.038)" fill="#ef3d59"/>
        </g>
        <g id="Grupo_12337-4" data-name="Grupo 12337" transform="translate(0 17.723)">
          <rect id="Retângulo_17713-4" data-name="Retângulo 17713" width="2.662" height="0.85" fill="#ef3d59"/>
          <rect id="Retângulo_17714-4" data-name="Retângulo 17714" width="2.662" height="0.85" transform="translate(33.63)" fill="#ef3d59"/>
        </g>
        <g id="Grupo_12338-4" data-name="Grupo 12338" transform="translate(2.216 8.706)">
          <rect id="Retângulo_17715-4" data-name="Retângulo 17715" width="2.665" height="0.85" transform="translate(0 18.147) rotate(-29.942)" fill="#ef3d59"/>
          <rect id="Retângulo_17716-4" data-name="Retângulo 17716" width="2.665" height="0.85" transform="translate(29.127 1.33) rotate(-29.942)" fill="#ef3d59"/>
        </g>
        <g id="Grupo_12339-4" data-name="Grupo 12339" transform="translate(8.702 2.216)">
          <rect id="Retângulo_17717-4" data-name="Retângulo 17717" width="2.663" height="0.85" transform="translate(0 31.435) rotate(-59.915)" fill="#ef3d59"/>
          <rect id="Retângulo_17718-4" data-name="Retângulo 17718" width="2.665" height="0.85" transform="translate(16.817 2.309) rotate(-60.036)" fill="#ef3d59"/>
        </g>
      </g>
    </g>
    <g id="Grupo_12433" data-name="Grupo 12433" transform="matrix(0.883, -0.469, 0.469, 0.883, -614.429, 963.758)" opacity="0.7">
      <g id="Grupo_12333-5" data-name="Grupo 12333" transform="translate(1803.472 138.806)">
        <path id="Caminho_10088-5" data-name="Caminho 10088" d="M1865.573,214.279a18.024,18.024,0,0,1-3.284-.3,6.959,6.959,0,0,1-5.692-6.842v-1.162h1.675v1.162a5.283,5.283,0,0,0,4.32,5.194,16.3,16.3,0,0,0,5.958,0,5.282,5.282,0,0,0,.637-10.229l-7.739-2.458a6.958,6.958,0,0,1,.839-13.473,17.962,17.962,0,0,1,6.568,0,6.959,6.959,0,0,1,5.692,6.842v1.162h-1.675V193.01a5.283,5.283,0,0,0-4.32-5.194,16.3,16.3,0,0,0-5.959,0,5.283,5.283,0,0,0-.637,10.229l7.739,2.458a6.958,6.958,0,0,1-.839,13.473A18.008,18.008,0,0,1,1865.573,214.279Z" transform="translate(-1856.598 -181.613)" fill="#efc958"/>
        <rect id="Retângulo_17705-5" data-name="Retângulo 17705" width="1.675" height="5.091" transform="translate(8.138 0)" fill="#efc958"/>
        <rect id="Retângulo_17706-5" data-name="Retângulo 17706" width="1.675" height="5.091" transform="translate(8.138 31.776)" fill="#efc958"/>
      </g>
      <g id="Grupo_12340-5" data-name="Grupo 12340" transform="translate(1776.698 121.485)">
        <g id="Grupo_12334-5" data-name="Grupo 12334" transform="translate(34.908)">
          <rect id="Retângulo_17707-5" data-name="Retângulo 17707" width="1.675" height="5.253" fill="#efc958"/>
          <rect id="Retângulo_17708-5" data-name="Retângulo 17708" width="1.675" height="5.244" transform="translate(0 66.265)" fill="#efc958"/>
        </g>
        <g id="Grupo_12335-5" data-name="Grupo 12335" transform="translate(17.144 4.372)">
          <rect id="Retângulo_17709-5" data-name="Retângulo 17709" width="1.675" height="5.247" transform="translate(0 0.84) rotate(-30.083)" fill="#efc958"/>
          <rect id="Retângulo_17710-5" data-name="Retângulo 17710" width="1.675" height="5.25" transform="matrix(0.866, -0.499, 0.499, 0.866, 33.131, 58.223)" fill="#efc958"/>
        </g>
        <g id="Grupo_12336-5" data-name="Grupo 12336" transform="translate(4.365 17.152)">
          <rect id="Retângulo_17711-5" data-name="Retângulo 17711" width="1.675" height="5.25" transform="translate(0 1.451) rotate(-60.039)" fill="#efc958"/>
          <rect id="Retângulo_17712-5" data-name="Retângulo 17712" width="1.675" height="5.25" transform="translate(57.385 34.584) rotate(-60.038)" fill="#efc958"/>
        </g>
        <g id="Grupo_12337-5" data-name="Grupo 12337" transform="translate(0 34.917)">
          <rect id="Retângulo_17713-5" data-name="Retângulo 17713" width="5.244" height="1.675" fill="#efc958"/>
          <rect id="Retângulo_17714-5" data-name="Retângulo 17714" width="5.244" height="1.675" transform="translate(66.256)" fill="#efc958"/>
        </g>
        <g id="Grupo_12338-5" data-name="Grupo 12338" transform="translate(4.365 17.152)">
          <rect id="Retângulo_17715-5" data-name="Retângulo 17715" width="5.25" height="1.675" transform="translate(0 35.753) rotate(-29.942)" fill="#efc958"/>
          <rect id="Retângulo_17716-5" data-name="Retângulo 17716" width="5.25" height="1.675" transform="translate(57.385 2.621) rotate(-29.942)" fill="#efc958"/>
        </g>
        <g id="Grupo_12339-5" data-name="Grupo 12339" transform="translate(17.144 4.365)">
          <rect id="Retângulo_17717-5" data-name="Retângulo 17717" width="5.247" height="1.675" transform="translate(0 61.932) rotate(-59.915)" fill="#efc958"/>
          <rect id="Retângulo_17718-5" data-name="Retângulo 17718" width="5.25" height="1.675" transform="translate(33.131 4.549) rotate(-60.036)" fill="#efc958"/>
        </g>
      </g>
    </g>
    <g id="Grupo_12434" data-name="Grupo 12434" transform="translate(-700.104 -158.267) rotate(11)">
      <g id="Grupo_12333-6" data-name="Grupo 12333" transform="translate(1786.089 127.561)">
        <path id="Caminho_10088-6" data-name="Caminho 10088" d="M1859.746,195.832a6.323,6.323,0,0,1-1.152-.106,2.441,2.441,0,0,1-2-2.4v-.408h.588v.408a1.853,1.853,0,0,0,1.516,1.822,5.718,5.718,0,0,0,2.09,0,1.853,1.853,0,0,0,.223-3.588l-2.715-.862a2.441,2.441,0,0,1,.294-4.726,6.3,6.3,0,0,1,2.3,0,2.441,2.441,0,0,1,2,2.4v.408h-.588v-.408a1.853,1.853,0,0,0-1.516-1.822,5.718,5.718,0,0,0-2.09,0,1.853,1.853,0,0,0-.223,3.588l2.715.862a2.441,2.441,0,0,1-.294,4.726A6.316,6.316,0,0,1,1859.746,195.832Z" transform="translate(-1856.598 -184.374)" fill="#efc958"/>
        <rect id="Retângulo_17705-6" data-name="Retângulo 17705" width="0.588" height="1.786" transform="translate(2.854 0)" fill="#efc958"/>
        <rect id="Retângulo_17706-6" data-name="Retângulo 17706" width="0.588" height="1.786" transform="translate(2.854 11.146)" fill="#efc958"/>
      </g>
      <g id="Grupo_12340-6" data-name="Grupo 12340" transform="translate(1776.698 121.485)">
        <g id="Grupo_12334-6" data-name="Grupo 12334" transform="translate(12.245)">
          <rect id="Retângulo_17707-6" data-name="Retângulo 17707" width="0.588" height="1.842" fill="#efc958"/>
          <rect id="Retângulo_17708-6" data-name="Retângulo 17708" width="0.588" height="1.84" transform="translate(0 23.244)" fill="#efc958"/>
        </g>
        <g id="Grupo_12335-6" data-name="Grupo 12335" transform="translate(6.014 1.534)">
          <rect id="Retângulo_17709-6" data-name="Retângulo 17709" width="0.588" height="1.841" transform="translate(0 0.295) rotate(-30.083)" fill="#efc958"/>
          <rect id="Retângulo_17710-6" data-name="Retângulo 17710" width="0.588" height="1.842" transform="matrix(0.866, -0.499, 0.499, 0.866, 11.622, 20.423)" fill="#efc958"/>
        </g>
        <g id="Grupo_12336-6" data-name="Grupo 12336" transform="translate(1.531 6.016)">
          <rect id="Retângulo_17711-6" data-name="Retângulo 17711" width="0.588" height="1.842" transform="translate(0 0.509) rotate(-60.039)" fill="#efc958"/>
          <rect id="Retângulo_17712-6" data-name="Retângulo 17712" width="0.588" height="1.842" transform="translate(20.129 12.131) rotate(-60.038)" fill="#efc958"/>
        </g>
        <g id="Grupo_12337-6" data-name="Grupo 12337" transform="translate(0 12.248)">
          <rect id="Retângulo_17713-6" data-name="Retângulo 17713" width="1.839" height="0.588" fill="#efc958"/>
          <rect id="Retângulo_17714-6" data-name="Retângulo 17714" width="1.839" height="0.588" transform="translate(23.241)" fill="#efc958"/>
        </g>
        <g id="Grupo_12338-6" data-name="Grupo 12338" transform="translate(1.531 6.017)">
          <rect id="Retângulo_17715-6" data-name="Retângulo 17715" width="1.842" height="0.588" transform="translate(0 12.541) rotate(-29.942)" fill="#efc958"/>
          <rect id="Retângulo_17716-6" data-name="Retângulo 17716" width="1.842" height="0.588" transform="translate(20.129 0.919) rotate(-29.942)" fill="#efc958"/>
        </g>
        <g id="Grupo_12339-6" data-name="Grupo 12339" transform="translate(6.014 1.531)">
          <rect id="Retângulo_17717-6" data-name="Retângulo 17717" width="1.841" height="0.588" transform="translate(0 21.724) rotate(-59.915)" fill="#efc958"/>
          <rect id="Retângulo_17718-6" data-name="Retângulo 17718" width="1.842" height="0.588" transform="translate(11.622 1.596) rotate(-60.036)" fill="#efc958"/>
        </g>
      </g>
    </g>
  </g>
</svg>
