<svg xmlns="http://www.w3.org/2000/svg" xmlns:xlink="http://www.w3.org/1999/xlink" width="198" height="198" viewBox="0 0 198 198"><defs><style>.a{fill:rgba(227,60,79,0.1);}.b{fill:#e33c4f;}.c{fill:#fff;}.d{filter:url(#a);}</style><filter id="a" x="0" y="0" width="198" height="198" filterUnits="userSpaceOnUse"><feOffset dy="3" input="SourceAlpha"/><feGaussianBlur stdDeviation="3" result="b"/><feFlood flood-opacity="0.078"/><feComposite operator="in" in2="b"/><feComposite in="SourceGraphic"/></filter></defs><g transform="translate(23.723 20.723)"><g class="d" transform="matrix(1, 0, 0, 1, -23.72, -20.72)"><path class="a" d="M90,180a90,90,0,1,1,90-90A90.1,90.1,0,0,1,90,180Z" transform="translate(9 6)"/></g><g transform="translate(2.548 2.548)"><circle class="b" cx="67.096" cy="67.096" r="67.096" transform="translate(5.634 5.634)"/><path class="b" d="M72.729,145.459a72.729,72.729,0,1,1,72.729-72.729A72.813,72.813,0,0,1,72.729,145.459Zm0-134.192a61.462,61.462,0,1,0,61.462,61.462A61.53,61.53,0,0,0,72.729,11.267Z"/></g><g transform="translate(-4.608 -0.862)"><path class="c" d="M17.485,6A6.485,6.485,0,0,0,11,12.485V57.877a6.485,6.485,0,1,0,12.969,0V12.485A6.485,6.485,0,0,0,17.485,6Z" transform="translate(62.401 31.201)"/><circle class="c" cx="6" cy="6" r="6" transform="translate(73.886 102.14)"/></g></g></svg>